<?xml version="1.0" encoding="utf-8" ?>
<svg baseProfile="full" height="300mm" version="1.1" viewBox="0,0,200,300" width="200mm" xmlns="http://www.w3.org/2000/svg" xmlns:ev="http://www.w3.org/2001/xml-events" xmlns:xlink="http://www.w3.org/1999/xlink"><defs /><rect fill="#222222" height="300" width="200" x="0" y="0" /><text fill="#FFFFFF" style="font-size:12px; font-family:Arial; font-weight:bold;" x="10" y="20">Over 10km Runs</text><text fill="#FFFFFF" style="font-size:4px; font-family:Arial" x="10" y="280">ATHLETE</text><text fill="#FFFFFF" style="font-size:9px; font-family:Arial" x="10" y="290">Allen</text><text fill="#FFFFFF" style="font-size:4px; font-family:Arial" x="120" y="280">STATISTICS</text><text fill="#FFFFFF" style="font-size:3px; font-family:Arial" x="120" y="285">Number: 26</text><text fill="#FFFFFF" style="font-size:3px; font-family:Arial" x="120" y="290">Weekly: 1.6</text><text fill="#FFFFFF" style="font-size:3px; font-family:Arial" x="141" y="285">Total: 405.9 km</text><text fill="#FFFFFF" style="font-size:3px; font-family:Arial" x="141" y="290">Avg: 15.6 km</text><text fill="#FFFFFF" style="font-size:3px; font-family:Arial" x="167" y="285">Min: 10.1 km</text><text fill="#FFFFFF" style="font-size:3px; font-family:Arial" x="167" y="290">Max: 24.1 km</text><polyline fill="none" points="44.12390605685505,51.406158179041086 42.98249690976081,49.50045646014041 42.8343139678509,49.439634595251846 41.10417799752395,46.9053023893066 39.926724351051234,45.86110761445525 39.526229913462885,45.622864919903805 39.52222496909235,45.4150349480733 38.26467243510342,44.75605423687011 36.86694684795293,44.609049264825444 35.98185414091495,44.82702194778176 34.912533992577664,44.943611466478615 34.74032138441544,45.044993361472734 33.186402966621245,45.21734195281533 32.60568603214779,45.5671057724212 32.25725587143825,45.67355498190591 31.600444993826386,45.47586335194137 31.456266996287013,45.32379215691981 31.24800988874631,44.89292041601584 30.795451174286427,44.862505752782454 30.55515451174142,44.96895696597858 30.222744128546765,45.318723106451216 29.97443757725705,45.850969658360555 29.91436341161898,46.14496927095024 29.43777503090314,46.39841535963933 29.217503090225364,46.378139735687 29.0533003708224,46.2767614512195 28.55668726823569,46.378139735687 28.408504326325783,46.34772627917482 27.54744128553648,45.66848597878925 27.28711990110969,45.61779590993683 18.211915945616056,47.13846811826079 17.507045735477732,47.49328274544678 14.983930778744252,47.07257360294534 14.791693448703882,47.18408733013348 14.527367119906557,47.10298647058153 14.259035846727784,46.78365012812719 14.034758961679472,46.64172199043969 13.938640296673839,46.03345244832599 13.422002472198074,45.63807194570472 13.153671199012024,45.24775632772071 12.833275648958079,45.004440636432264 12.592978986409435,45.050062449023244 12.284598269467097,44.89292041601584 11.87208899876714,44.806745472676994 11.799999999999272,44.63946413398662 11.884103831904213,44.806745472676994 12.13641532757174,44.82702194778176 12.588974042031623,45.03485518434172 12.793226205198152,44.98416425744654 13.21374536465737,45.2933778437764 13.393967861560668,45.59751986317133 13.962669962922519,46.00303871177675 14.06679851669469,46.61637762351165 14.519357231154572,47.06243597490902 14.755648949314491,47.15874333040483 14.983930778744252,47.047229527703166 17.50304079109992,47.4679389550256 18.09577255871045,47.12833050806512 27.3031396786173,45.592450849766465 27.56346106303681,45.653278965342906 28.400494437577436,46.32238171320569 28.55268232385788,46.35786410075525 29.08934487021179,46.26155468487559 29.29359703337832,46.46937995696862 29.44578491964421,46.47951774561079 29.56593325092763,46.31224388201008 29.91436341161898,46.13483139171149 30.15866501853816,45.298446897671965 30.27080346105504,45.21734195281533 30.278813349821576,45.2629635059202 30.503090234851697,44.9790951609757 30.70333745365133,44.857436639853404 31.288059332513512,44.88785130720498 31.452262051916478,45.318723106451216 31.97290482076278,45.57217478926759 32.2812855376942,45.63807194570472 32.577651421503106,45.546829698214424 33.158368355991115,45.16665127302622 33.5188133498159,45.095684206011356 34.94056860321507,44.943611466478615 35.260964153269015,44.83716018121777 36.882966625467816,44.593841820958914 38.23263288009548,44.71550119879976 39.24588380716523,45.19199662149549 40.07490729294295,45.73438296569293 41.128207663779904,46.7430992865593 42.157478368349985,48.08125386686879 43.374981458582624,49.9312751745274 44.20000000000073,50.93481013341443" stroke="#4dd2ff" stroke-linecap="round" stroke-linejoin="round" stroke-width="0.5"><title>2022-11-05 16.8km</title></polyline><polyline fill="none" points="80.19999999999709,51.308750406315085 80.14312225705362,51.103095635964564 79.03400626959046,49.704613665653596 77.78269592476136,47.79190053529601 77.18954231974931,47.01033411332173 76.03167398120058,45.8945173334032 75.18663322884095,45.37002069874143 74.13439498432126,44.87122796271433 73.56968025078095,44.840374588613486 72.92371159874892,44.701534094900126 72.50931661442155,44.7529565591758 71.80647021943878,44.917507976872 70.98580564263466,45.01006783595949 70.56734796238743,45.17976032496517 69.09258934169338,45.29803039915714 68.41411912225522,45.72997014947032 68.01597492162546,45.82767012592012 67.39031974921818,45.5911329084156 67.25625078369922,45.447153011133196 67.10999373040977,45.04606327578222 66.4762131661555,44.99978341831229 65.98462695925264,45.503716607316164 65.7327398119196,46.28531403763918 65.23709090908596,46.54755693952757 64.9770783699023,46.50642091780901 64.899887147345,46.42929075698339 64.21735423198697,46.52184693118397 63.29918495298625,45.80710173071566 63.0472978056423,45.75053858644242 53.995611285263294,47.262288203612115 53.60152978056067,47.354842347562226 53.313078369912546,47.601652295332315 53.11806896552298,47.6582126824469 51.19641379310997,47.38055179196817 50.55044514106339,47.2160110470395 50.38387460816011,47.33427477951773 50.071047021952836,47.226294864496595 49.60789968651443,46.78923016719273 49.53070846395349,46.25960385174767 49.38038871473691,46.04877967078937 48.98630721003428,45.77624911702151 48.57191222570691,45.282603888634185 48.32815047022086,45.14376501188235 48.12095297805354,45.19004469387073 47.79999999999927,45.00492562749059 48.129078369918716,45.1694759532802 48.38502821317161,45.123196246240695 48.80754858934597,45.45743730761387 48.99849529781204,45.771107012293214 49.45757993730513,46.04877967078937 49.54289655173852,46.18761523861758 49.64040125392057,46.79437213403435 49.888225705330115,46.98462441830634 50.07917241379255,47.24686249101069 50.43668965517645,47.323990991309984 50.546382445143536,47.205727226813906 51.29391849530293,47.38569367875607 53.114006269603124,47.62736157263862 53.309015673985414,47.56051741542251 53.540589341690065,47.34970045659793 53.73966144200676,47.298281508621585 63.09198746081893,45.72997014947032 63.30324764890611,45.78653332436079 64.16453918495245,46.47042686225541 64.86738557993522,46.393296628324606 65.05833228840856,46.614402879760746 65.20865203763242,46.6503967988574 65.34272100313319,46.48071088161305 65.7246144200617,46.254461812466616 65.98462695925264,45.406015797354485 66.5087147335471,44.97921457467601 67.08561755485061,44.99978341831229 67.32937931033666,45.503716607316164 67.85346708464203,45.72997014947032 68.19067084640119,45.77624911702151 69.0844639498464,45.24660867303828 70.80298432602649,45.07177428333307 71.63989968652095,44.845516819375916 71.98116614419996,44.86094350746862 72.71245141066174,44.69124959368855 74.11408150470743,44.8198056586225 75.17038244514333,45.31345690341914 75.80822570533564,45.69911747309743 76.24293416927685,46.15162088087891 77.15297805642695,46.91263717959009 77.84363636364287,47.95129697557422 78.29053291535456,48.460332740502054 79.20057680250466,49.848577422540984" stroke="#4dd2ff" stroke-linecap="round" stroke-linejoin="round" stroke-width="0.5"><title>2022-11-04 16.4km</title></polyline><polyline fill="none" points="116.19999999999709,51.49205063666159 112.96171111696822,46.94981648091925 112.41843147609688,46.408395397163986 111.38748349615707,45.574592589531676 109.96297861101993,44.805746020705556 109.75336678108579,44.70828554064792 108.38875099021607,44.50794936334205 106.47229997357499,44.81657494826868 105.98890942697471,44.98442295044515 104.34623712699977,45.18475674034926 103.65323475044715,45.62332180343583 103.33240031686364,45.6828796508853 102.6094533931755,45.45006210641077 102.31000792181658,44.87071954208295 101.66406126220318,44.83281833411456 101.13361499866733,45.33094562921178 100.86411407445848,46.19723918736781 100.32511222602261,46.47336631429789 100.0727224716029,46.44088086894044 99.95294428306806,46.34342437444866 99.2385529442654,46.4138096442839 98.38299445469966,45.73702307157873 98.0707156060198,45.639564861547115 93.80575653550841,46.30552456245641 92.43686295219595,46.603307831865095 88.50984948507903,47.220524273696356 88.07779244783887,47.31797863044267 87.80401373118002,47.5507852990595 87.5815685238922,47.631996608764894 85.63089516766559,47.355877482823416 84.86089252705642,47.15555457056689 84.75822550830344,47.285493871251674 84.64272511221134,47.29632212725119 84.3732241880025,47.18262529304411 83.93688935833052,46.77656253174064 83.84277792447756,46.5708224920636 83.87272247160217,46.37590989900491 83.79999999999927,46.083539227915026 83.85133350936303,46.00232477321333 83.9026670187377,46.64662157720886 84.36466860310975,47.16096871652917 84.59566939528304,47.285493871251674 84.75822550830344,47.285493871251674 84.89083707418831,47.17721115000313 87.57729073144947,47.61575436000567 87.73984684445168,47.583269842740265 88.16334829678817,47.26925148176815 98.0707156060198,45.628736156857485 98.29316081330762,45.655807913044555 99.2385529442654,46.402981149316474 99.96149986796445,46.33259586041822 100.30800105623712,46.57623671719921 100.51761288618582,46.36508139375292 100.84700290466208,46.208067738072714 101.12078162133184,45.30387365306888 101.65122788486406,44.838232794587384 102.26722999735648,44.838232794587384 102.57950884603633,45.379675140047766 103.31528914706723,45.666636610370915 103.60617903352613,45.617907449272025 104.38045946658531,45.13602699194962 106.23702138895169,44.91403516434366 108.45719566938715,44.52960737685498 109.01330868760124,44.637897268414235 109.67636651703287,44.64872624144118 110.97681542116698,45.29304485749162 111.79815157115445,45.83448104409035 112.81198838129058,46.8090477043952 113.1798785318133,47.285493871251674" stroke="#4dd2ff" stroke-linecap="round" stroke-linejoin="round" stroke-width="0.5"><title>2022-10-29 14.6km</title></polyline><polyline fill="none" points="152.20000000000073,51.30496792311533 151.53072666912703,50.49328460535253 149.79380302470963,47.92703898101536 148.92135743268227,46.782506994692085 147.81785319069968,45.80937503642417 147.08882331243512,45.33036291876124 146.15263740317096,44.891683257810655 144.80612320176442,44.695032076881034 144.097012172635,44.8110059758983 143.8779048321594,44.947148787719925 142.85805975654876,45.01269885291549 142.61504979712845,45.199263791448175 142.14894872740842,45.184136939355085 141.20877904832378,45.295067045273754 140.14909627443558,45.7992906342879 139.45990409443039,45.57239086419577 139.2846182220528,45.33540518366499 139.18104020655664,45.027825774639496 138.6193286610178,44.987487303023954 138.10940612320337,45.44633483892176 137.87436370342766,45.9606407407191 137.84249354480926,46.23291745993993 137.37639247511106,46.47493953898811 137.10151235707235,46.47493953898811 136.97004795278554,46.38922356588955 136.3366285503471,46.44972897914704 135.48011803762347,45.80433283570528 135.28092954629028,45.73374195384895 126.34533382514928,47.195954325812636 125.94695684249018,47.29679444193607 125.65614164514409,47.53376763995038 125.44101807450716,47.58922923448699 122.97904832165295,47.206038349719165 122.79579490962351,47.28671044261864 122.49701217263282,47.180828284854215 122.01497602360905,46.706875888652576 121.93530062706122,46.1371166190911 121.40545924012258,45.743826373724005 121.21423828844854,45.43120808721869 120.84773146439693,45.148840927267884 120.58878642567288,45.163967793683696 119.82390261894761,44.84630230823677 119.79999999999927,44.755540243175346 119.89162670600854,44.876556280767545 120.41748432311579,45.01269885291549 120.58878642567288,45.13875634624128 120.83976392474506,45.09841799480273 120.99513094798385,45.20430607411254 121.28594614532994,45.47658832391244 121.4452969383965,45.73374195384895 121.92334931758887,46.036273362442444 122.03887864255739,46.691749649016856 122.51693102175705,47.1606602206557 122.75994098118827,47.25141642348535 122.96709701216241,47.13040810388702 123.59254887494899,47.29679444193607 125.44500184433491,47.56906139147395 125.63622279601623,47.52872567271697 125.99077831058821,47.261500432356115 135.24109184802364,45.718615318888624 135.53987458502525,45.79424843220113 136.3525636296581,46.4547710924744 137.01386942087993,46.379139320804825 137.17720398376696,46.56065531475906 137.32858723718164,46.59594998862303 137.58354850609248,46.36401294802272 137.8345260051683,46.26317030585051 138.08151973440908,45.44129258903922 138.571523423092,44.97236036491813 139.1651051272529,44.98244499100838 139.42803393581562,45.461461584483914 139.8702323865764,45.6782775956417 140.20885282183735,45.73374195384895 140.48771670970018,45.65810871762005 141.13308742161826,45.26481341280305 144.0253043157536,44.83621764527197 144.21652526743492,44.74041321082768 144.96149022500322,44.70511677810282 146.12475101438395,44.84125997709998 147.49118406492926,45.542137457054196 148.45924013279364,46.293423127182905 149.1364810033192,46.99427327434023 150.9052748063441,49.45974918788488" stroke="#4dd2ff" stroke-linecap="round" stroke-linejoin="round" stroke-width="0.5"><title>2022-10-22 16.5km</title></polyline><polyline fill="none" points="188.0885747038592,51.56729691385044 188.1999999999971,51.33228372596932 186.96606801682356,49.72893333533648 184.76232327092657,46.58471077226204 183.68108521208342,45.62885810117223 182.86809323653506,45.09607747941482 181.84050439434577,44.61030049875262 181.25036301108412,44.584183283477614 180.51578142911967,44.43792655113066 179.88849828047387,44.52672534762678 179.42628964463802,44.67298174326788 178.62155139472816,44.73566288590882 178.25013374093032,44.902812101645395 176.82636606801316,45.01772676730252 176.46732900267307,45.148311199081945 175.93496369889544,45.482605329932994 175.6254489873827,45.5400618419153 174.96927779899852,45.34157534678525 174.77531524647566,45.09607747941482 174.6432556362197,44.751333155647444 174.0654948414267,44.71476918301414 173.52074894916586,45.22143828776825 173.24837600305545,46.0571665984462 172.922353840273,46.19819396532694 172.74489873901985,46.401899251675786 172.39411539930734,46.17207782516198 171.70492930837645,46.26087262954388 170.8713030187173,45.58184834232452 170.6195643866995,45.49827529624599 165.9025601834037,46.24520297303752 164.68513565150715,46.51680945145927 161.57348108519727,46.986893067947676 160.97508597630804,47.117470833672996 160.68620557890245,47.347286627835274 160.43859380970025,47.4204095479472 159.46052732134922,47.310725115807145 157.84692395872116,46.99733930547154 157.65708826900664,47.101801525128394 157.39709591133942,47.01300865644953 156.89361864728562,46.527255816286925 156.85647688190875,46.03627361135659 156.71616354603975,45.80122672679863 156.2704623614627,45.51916857473043 156.1425296140551,45.28934188884887 155.79999999999927,44.975939655767434 156.12189529994794,45.25277842619835 156.2869698127506,45.51394525617434 156.79457393961638,45.86912930721883 156.86473060756543,46.45935439435925 157.38884218570092,46.986893067947676 157.58693160106486,47.08613221021733 157.88819258692456,46.986893067947676 159.6256018341519,47.30550203982057 160.5087504776493,47.39429423523325 160.84302636606662,47.14358633377924 161.09063813526154,47.0600166712029 170.61131066105372,45.46693535727536 170.82178066487904,45.52439189258803 171.71318303399676,46.219086864708515 172.36935422238457,46.16163136416799 172.68712265953218,46.38100645129816 172.8274359954121,46.3287744008594 172.90997325180433,46.19819396532694 173.2194879633098,46.08850605787666 173.53312953763452,45.169204667126905 174.07374856705064,44.69387546879443 174.66801681314973,44.73566288590882 174.870233091322,45.17965139693115 175.65433702712107,45.508721936905204 175.92258311042679,45.4617120316434 176.59938861292903,45.049067071253376 178.7412304165082,44.68865203847599 180.45387848682003,44.4327030861532 181.6589224302661,44.56851294583248 181.84875811999154,44.599853614774474 183.2890332441857,45.3467986887008 183.85028658769806,45.738547315701 184.74168895681942,46.55337171597421 185.95498662590035,48.15163112580558 186.9124188001515,49.58269610766001" stroke="#4dd2ff" stroke-linecap="round" stroke-linejoin="round" stroke-width="0.5"><title>2022-10-15 16.0km</title></polyline><polyline fill="none" points="44.19999999999709,92.25195839904336 43.711493188729946,91.68797526399794 43.462954635626375,91.21617558069556 40.819018648322526,87.58801304207009 39.68345456949828,86.55753326500053 39.027827007008455,86.14533393068268 37.772278799096966,85.54872211740803 37.382330379568884,85.46194147694405 37.1680730062144,85.49448423915237 36.44388308424459,85.34804160095882 35.58685359079391,85.4673652724814 34.832667636554106,85.6734689586774 34.339875677815144,85.66262142268897 34.022774765238864,85.81991040698995 32.385848432753846,86.01516483847809 31.734506017724925,86.41109451363809 31.348842745668662,86.51414406116601 30.650363708497025,86.2971973368767 30.50038354714343,86.13991022694245 30.333262795920746,85.70601154900942 29.68192038090274,85.64092634190092 29.163417537358328,86.13448652249645 28.88916809944567,87.02396423780374 28.38352069830944,87.28971899093449 28.12212670281224,87.27344834242831 27.99357227879227,87.15955361787564 27.265097209368832,87.24090702560716 26.330935061498167,86.52499136653205 26.00954900145007,86.46533115065904 16.47081073931622,88.05985545952353 16.080862319795415,88.14663047142676 15.605210950932815,88.46118831374406 12.922708636411699,88.03816167717014 12.65274434597086,88.11951330040392 12.39135035047002,88.01646788308062 11.88141780186561,87.54462495451298 11.799999999999272,86.93718679367521 11.842851474662893,87.39818981201097 11.94569501388105,87.59343654970507 12.159952387239173,87.72902400203384 12.3484988758064,87.97850371511959 12.6098928713036,88.09781955036306 12.918423488947155,88.0110444327147 15.54950403384646,88.43949474874171 15.772331702144584,88.37441398328883 15.995159370442707,88.16832419503407 16.380822642506246,88.05985545952353 20.417431556670635,87.41446040983283 20.93593440021141,87.2354834702237 26.069541065986414,86.45990749026896 26.330935061498167,86.50329675285684 27.25652691441792,87.21921279970411 27.415077370715153,87.26260123977045 28.010712868664996,87.17040074845863 28.289247454031283,87.41446040983283 28.52921571220213,87.1812478760985 28.842031477317505,87.04565856946283 29.15056209494287,86.1236391113489 29.59193228407821,85.7005877857955 29.85761142706542,85.64635011319479 30.34611823832529,85.71143531150301" stroke="#4dd2ff" stroke-linecap="round" stroke-linejoin="round" stroke-width="0.5"><title>2022-10-05 12.1km</title></polyline><polyline fill="none" points="80.20000000000073,91.88949987725937 77.49260273972322,88.0290203403274 76.23372353673403,86.92084674129728 75.34201743462472,86.34887343344599 74.42206724781863,85.88924573901022 73.058281444577,85.76157038527163 72.21902864258664,85.95563675211815 71.37574097135075,86.03224162203333 70.92787048568061,86.17012999572398 69.55198007472063,86.34887343344599 69.21708592777577,86.44590523059742 68.73693648817425,86.74721290413072 68.47870485678504,86.80849552617292 67.7685678704911,86.62464736128095 67.40946450810225,86.05777654407211 66.86879202988712,86.00159969273955 66.3482938978741,86.51740218452323 66.11830635118167,87.05362501856507 66.10216687421416,87.273218835835 65.58570361146849,87.65112148137632 65.25484433375095,87.45195704553771 64.60119551682146,87.51834530767883 63.8022914072244,86.90041927252969 63.44722291407015,86.76764045588425 58.84343711084148,87.5132385224315 58.222067247817904,87.71750939292178 58.10909090909263,87.68176207045326 54.42122042340998,88.27924858211918 54.04597758406089,88.371168743819 53.787745952671685,88.59075488988674 53.52951432130067,88.64692788470347 51.019825653795124,88.23839510502876 50.89877957659337,88.34563538803195 50.592129514330736,88.2537151641227 50.07163138231772,87.75325668150617 50.05549190535021,87.38556866654835 49.97479452055268,87.18640282834531 49.454296388546936,86.7727473420855 49.212204234114324,86.39994283148553 48.824856787043245,86.1445951497335 48.63118306351316,86.20077178806605 47.888767123287835,85.91988775957725 47.79999999999927,85.74624931377184 47.900871731017105,85.91988775957725 48.43347447073029,86.06799050806876 48.619078455798444,86.1956648243904 48.86117061020559,86.13948817847267 49.204134495637845,86.39483589480005 49.47043586551081,86.7625335689736 49.97882938978728,87.1353344952804 50.124084682443936,87.78900393622462 50.60019925279994,88.23839510502876 50.850361145701754,88.33031536627459 51.02386052304064,88.21796834987617 53.54968866750278,88.61628807972374 54.13474470735673,88.29967530407521 58.13330012452934,87.64601471410788 58.835367372354085,87.45195704553771 63.2858281444569,86.75742668137173 63.52388542965127,86.74210601445884 63.73369863014159,86.82381616612474 64.56084682440996,87.47238421556904 65.24677459526356,87.42131626976334 65.52518057285488,87.65112148137632 65.76727272727658,87.44174345637293 66.05778331258261,87.31918017067437 66.34022415940126,86.44079830012925 66.84458281445768,85.99649270211012 67.46998754670494,86.03224162203333 67.70400996263197,86.54293677808528 67.79277708592781,86.51229526374664 68.10346201744323,86.69614397634723 68.4383561643881,86.7727473420855 68.72079701120674,86.70635776743438 69.39865504359113,86.31312481367422 71.15785803237304,86.07309748901389 71.33942714819204,85.98117172605271 71.81150684932072,85.95563675211815 72.8363636363647,85.73603526264924 73.32054794520081,85.71050012274281 74.45838107098461,85.8739247193771" stroke="#4dd2ff" stroke-linecap="round" stroke-linejoin="round" stroke-width="0.5"><title>2022-10-02 14.7km</title></polyline><polyline fill="none" points="116.20000000000073,92.32872363066053 115.18923992068812,90.90324122951642 114.97081295439784,90.75147585543527 114.40975545274705,89.81376989345154 112.9321612690037,87.77025365204827 112.56383344348797,87.3691268112998 111.63873099803095,86.53975721868483 110.62797091870743,85.82962972990208 110.46093853273123,85.84047146563171 109.72000000000844,85.48811355083672 109.11611368143713,85.38511603609004 108.28523463317833,85.30922296088829 107.30873760741088,85.52605993683756 104.35783212161186,85.9814137631256 103.62545935228991,86.37171292019775 103.34707204230654,86.42592083549607 102.52475875743039,86.2090887338818 102.25493721084786,85.64531977296429 101.68103106410854,85.59653170112506 101.141387970918,86.07898890914657 100.81160608064238,86.9679959512323 100.46469266357599,87.14145843801816 100.37475214804726,87.27155480986039 99.94646397885299,87.119775668285 99.22265697289549,87.19024462701782 98.21617977528513,86.43134162298156 98.04486450760305,86.3988168870128 88.74244547257695,87.95455382591535 88.05290152015368,88.12801203805793 87.56893588896128,88.40445951026413 84.82360872439313,87.95455382591535 84.60518175809557,88.07922699185656 84.30109715796789,87.94371266271992 83.8556774619974,87.51006372686606 83.79999999999927,87.36370615079431 83.8256972901545,86.95173380456617 83.88565763384031,87.48296051240322 84.47241242565724,87.9762361435387 84.63087904825807,88.01960074355156 84.84502313285338,87.91660974183833 85.46604097819727,88.07380642748831 87.56465300727359,88.37735690130648 88.04005287508699,88.04670359469674 88.34842035690963,87.98165672111645 98.06627891606331,86.36087132832472 98.28898876404855,86.3988168870128 99.18411103768085,87.12519636181605 99.35970918705789,87.16856188369275 99.9764441506959,87.07641009355575 100.05353602115429,87.22276871996655 100.25483146067927,87.30407883676526 100.4604097818883,87.119775668285 100.83302048909536,86.95715452084914 101.07286186385318,86.10067224263548 101.62107072042636,85.57484809456582 102.30204890945606,85.59653170112506 102.54189028420296,86.09525141036283 103.2785459352308,86.3988168870128 103.55265036351557,86.36087132832472 104.19508261731244,85.97599291469669 104.69617977527741,85.84047146563171 106.26799735625173,85.65616155861426 107.00037012559187,85.48269263562906 107.38154659617066,85.4718508029764 107.85694646399133,85.31464389962639 108.34519497687143,85.27127636933801 109.758545935234,85.41764159568993 109.89988103106225,85.35801138290117 111.66442828816798,86.51807412302514 112.89361533378178,87.6293176524814 114.10567085260845,89.2771537114786 115.6560740251225,91.56449793148931" stroke="#4dd2ff" stroke-linecap="round" stroke-linejoin="round" stroke-width="0.5"><title>2022-10-01 15.4km</title></polyline><polyline fill="none" points="152.1119764545947,93.45126063549833 146.2217342087606,85.29117665224476 144.21186325558665,83.45293497930106 142.97219832465635,82.64520714322134 140.95499207606917,81.6796349440774 138.71772696400149,81.2989729359033 136.7298618972127,81.83746979099669 135.20412044372642,81.92102926874941 134.42657912609138,82.23669748779503 131.59515508264303,82.5616485481005 130.56821371970727,83.23011445774318 130.0327371519088,83.39722991679446 128.74172515283135,83.0165774450652 128.1695721077558,81.99530427458376 127.0766130858101,81.90246050471615 126.26239529091254,82.68234426392883 125.67557165497419,84.31635766063118 124.72198324654164,84.89196674095001 124.20851256509923,84.50203853710991 122.99085352049588,84.65058287626744 121.20104143083881,83.23939866061119 119.80000000000291,83.45293497930106 121.14969436269166,83.27653545947396 122.96884763416165,84.5855947674936 124.21584786053427,84.50203853710991 124.72198324654164,84.90125071877992 125.13275979171885,84.52989062522829 125.73425401855638,84.24208516925864 125.79293638215313,83.75931201405183 126.21104822278721,82.69162854096794 127.09861897217343,81.90246050471615 128.1989132895469,81.91174488737306 128.6316957210729,82.8216082873987 129.94471360652096,83.30438804539881 130.52420194703154,83.220830253631 131.80787865067396,82.46880554517702 136.4877971473761,81.68891935690772 137.13330314694758,81.69820376846474 138.49766810052097,81.37324861567322 140.96966266696836,81.6796349440774 143.44899252886535,82.94230354561296 144.51994566447684,83.69432306046656 146.26574598143634,85.31902841982082 152.04595879554108,93.31201819905255 152.20000000000437,93.69261352221656 151.99461172741576,94.22173034007574 150.9676703645091,95.46560292072536 149.96273488793668,96.30102706410253" stroke="#4dd2ff" stroke-linecap="round" stroke-linejoin="round" stroke-width="0.5"><title>2022-09-29 10.1km</title></polyline><polyline fill="none" points="188.1999999999971,91.9434679238584 187.68684927950744,91.32599799790842 185.42814487862051,88.08944529066139 184.8771387771012,87.5145034558227 184.21677268596613,86.95552416660576 183.43863429833436,86.43380299271303 182.37447747631813,85.90142731077503 181.68887446449662,85.75236082789343 181.6005452421232,85.80559892238307 180.96120991821954,85.65653207614378 179.8129300272667,85.94934141738122 178.9506685706874,85.98660790435315 178.51322861224617,86.14099725980122 177.16725950928958,86.30603348652585 176.85179800077458,86.37524202058557 176.27976113202385,86.74790126354492 176.01897961833674,86.79581433849307 175.23663507724996,86.55624837978394 174.92537972218634,85.99725546557966 174.32810593276736,85.96531277326358 173.83598597948367,86.43380299271303 173.53314293133008,87.30155990181447 173.01157990393767,87.67421036443557 172.649850707523,87.4452969272752 172.09463845255596,87.55176845918322 171.06833701155483,86.82775635602229 170.80334934441635,86.75854861857806 161.44465792547635,88.31303151141401 160.9693625860018,88.41950069344603 160.5024795534191,88.71228945741314 158.57606127482723,88.45676483904026 157.81474750098278,88.27044375787591 157.69276905101287,88.38755996910913 157.57499675451254,88.38223651253065 157.3184213942659,88.27576722958474 156.87677528235872,87.86053427118168 156.75059067894836,87.21105854211783 156.18696611709674,86.7425775849515 156.06078151369366,86.48704016438205 155.79999999999927,86.2687673023429 156.05236920679454,86.46574530436556 156.21220303779046,86.73193022556734 156.72114760483964,87.07264429488714 156.8347137478995,87.3388251070246 156.86836297546688,87.76471065799706 157.3436583149487,88.24382638847965 157.60023367519534,88.36094267900262 157.83577826820692,88.26512028543584 160.4898610930759,88.70164263148035 161.0366610411511,88.37158959721273 170.72763858237158,86.75322494141437 171.04730624432705,86.73725390561958 171.90115539399994,87.47723841713014 172.11566921978738,87.535797747787 172.65826301441484,87.43997334312007 172.98634298325123,87.65291614743182 173.54155523822192,87.28558908877676 173.79813059846492,86.43380299271303 174.36596131378246,85.94934141738122 174.96323510321236,85.96531277326358 175.03473971179483,86.23150108282425 175.2450473841418,86.48171645045295 175.64463196157885,86.67869338551463 175.98953654420984,86.74790126354492 176.24611190445648,86.70531181455226 176.80132415942353,86.35927083122806 177.2724133454576,86.21020608440085 180.7593145527644,85.67782737449306 181.55007140075395,85.75768464059001 181.65101908348151,85.70977030040012 182.24829287290777,85.8162465326277 183.4218096845434,86.40718437983014 184.263040373884,86.95020051613028 185.23466182007542,87.83391662428403 185.6763079319826,88.35029575792214 187.29147085551813,90.64464061989565 187.69526158639928,91.32599799790842 188.0780215500563,91.78377835529318" stroke="#4dd2ff" stroke-linecap="round" stroke-linejoin="round" stroke-width="0.5"><title>2022-09-24 16.0km</title></polyline><polyline fill="none" points="44.20000000000073,132.92245049669145 43.39690831556436,131.895185319976 41.065351812369045,128.56732231737988 39.84344349680396,127.49622757899851 37.98251599147261,126.45789431890807 36.49722814498455,126.27754950330927 35.47393390191792,126.54533393939346 34.5542643923327,126.5890536785846 34.16135394456796,126.7366074486672 32.52926439233124,126.93880988700403 31.885927505329164,127.32681713406055 31.45847547975427,127.41971972417741 30.711513859285333,127.15740597797412 30.44813432835508,126.59998360596 29.8177505330641,126.56719381490257 29.31257995735359,127.06996768367026 28.99738805970992,127.96620121938759 28.65628997868771,128.12467946885226 28.45767590618925,128.31594549289366 28.349733475486573,128.30501603022276 28.112260127927584,128.09189091656663 27.40847547975136,128.173862247324 26.471535181237414,127.47983305088201 26.134754797447385,127.39786031044423 22.13656716418336,128.02084896190354 20.612420042652957,128.3378044093406 16.52787846481442,128.98810175875042 16.044296375261183,129.11378827346925 15.850000000009459,129.31051420635413 15.58230277185794,129.39248306204172 14.369029850753577,129.25040360637286 12.909648187640414,128.94984926353936 12.70671641791705,129.05914201081396 12.495149253740237,129.01542494743262 11.894989339027234,128.48535178577004 11.799999999999272,127.85144071922332 11.929530916855583,128.47988707775585 12.395842217491008,128.91706138165318 12.65922174840307,129.03728348504592 12.883742004265514,128.91159673208313 15.638432835832646,129.37062471681202 16.199733475488756,129.02635421770538 20.53901918977499,128.33233968134664 22.076119402991026,127.98259554991091 26.359275053302554,127.34867658627627 27.36098081023738,128.12467946885226 28.18134328359156,128.09189091656663 28.289285714294238,128.56185762045425 28.142484008541942,128.58918109769002 28.073400852877967,128.39791636857262 27.969776119414746,128.37059276183936 27.611407249482,128.44709881404924 27.516417910454038,128.55092822437655 27.481876332629326,128.50721061049626 27.43006396589044,128.3214102231177 27.49914712154714,128.27769236058884 28.11657782516704,128.16293274617783 28.33246268656876,129.12471751711928 28.794456289990194,129.09739440243357" stroke="#4dd2ff" stroke-linecap="round" stroke-linejoin="round" stroke-width="0.5"><title>2022-09-22 12.2km</title></polyline><polyline fill="none" points="80.20000000000073,132.9239090059491 76.90663716814379,128.4283197334007 75.7955752212365,127.41522522025844 75.07079646017883,126.95655147226353 73.95176991150583,126.47266974334707 72.72522123894305,126.31137443576154 71.78539823008396,126.54323622061202 70.93318584071676,126.59868121604086 70.42345132743867,126.77509656110851 69.01371681415912,126.95655147226353 68.42433628318759,127.2992972242937 68.0738938053073,127.38498316915866 67.38097345132337,127.15816700274081 67.14203539822483,126.63396435194227 66.57654867255769,126.58860031392396 66.0986725663679,127.01703624607035 65.87168141593429,127.53115285515742 65.81592920353069,127.84869191922189 65.46150442478029,128.04022210848052 65.33805309734817,128.19646969082896 65.1946902654854,128.18134898571225 64.97964601770218,127.98981952264148 64.44203539823502,128.08558437736065 64.28672566370733,128.0553428709136 63.418584070797806,127.40010419778628 63.239380530972994,127.34466039614927 59.046017699107324,127.9999000452699 58.12610619468978,128.2065501574907 54.2075221238847,128.8416140538393 53.904867256631405,128.91217604021222 53.61017699115473,129.14906173042618 53.41902654866499,129.18938254883687 51.82610619469051,128.98273789280574 50.922123893800745,128.7760920896144 50.790707964602916,128.88193520528512 50.472123893803655,128.8012928587341 49.97433628317958,128.29223401390118 49.91460176991313,127.7277249761355 49.41681415928906,127.38498316915866 49.22964601769854,127.07248053573858 49.02654867255842,126.8960666001658 48.80752212389416,126.73981355899014 48.56460176991459,126.78013698723589 48.0548672566365,126.54827667814607 47.89159292034674,126.54323622061202 47.79999999999927,126.37186025802293 47.79999999999927,126.64404524177371 47.84778761061898,126.52307438360731 48.011061946897826,126.52811484388076 48.55265486724966,126.77005613427536 48.76371681414821,126.71461139413077 48.990707964600006,126.83054121114401 49.30530973450004,127.12288436374365 49.412831858393474,127.34970074516241 49.93053097344091,127.67732196715588 50.04601769911096,128.3577568298242 50.49203539822702,128.7760920896144 50.72699115042997,128.85673449074602 50.95398230088176,128.73073066218421 51.53938053097954,128.90713590275482 53.454867256634316,129.17426224705196 53.92079646017737,128.8970556258064 54.31504424777813,128.79625270627002 63.05221238937884,127.33457969607116 63.486283185840875,127.40010419778628 64.3026548672533,128.03518185296343 65.01946902654163,127.97973899728095 65.0632743362803,128.08558437736065 65.29424778760949,128.18134898571225 65.81194690264965,127.85373219999747 65.82787610619562,127.59667701082799 66.05486725662922,127.0422382061588 66.5566371681416,126.58355986183233 67.15796460176716,126.58860031392396 67.39292035398103,127.07752092160445 67.50840707964744,127.07752092160445 67.83495575221605,127.28417615471335 68.16548672566933,127.34970074516241 68.41637168141824,127.29425686844479 69.12123893805983,126.86078371272015 72.77300884956276,126.27609099405163 74.10707964601534,126.43738645454141 75.57256637167666,127.21865144892217 76.9384955752248,128.38295788218238 77.83053097344964,129.5976283755881" stroke="#4dd2ff" stroke-linecap="round" stroke-linejoin="round" stroke-width="0.5"><title>2022-09-17 16.2km</title></polyline><polyline fill="none" points="116.19999999999709,132.90131333835598 112.93294030949619,128.38385328034929 111.8585114222551,127.4168340215474 110.10361090640436,126.47497338739413 109.57833456153094,126.35912791889496 109.49874723654284,126.40949555823317 108.81827560795136,126.29868666164111 107.84333087692721,126.54045110128936 107.06735445836239,126.58074502178715 106.60574797346271,126.7318468348385 105.09756816506342,126.92324158344854 104.41311717021745,127.33121131308872 104.09078850404694,127.396687519642 103.44215180545507,127.15996530486154 103.13971997052795,126.61096543349049 102.62240235814534,126.56563480671684 102.10906411200631,127.05419531766529 101.88224023580187,127.59311544772936 101.85040530581682,127.83487147363121 101.50817980838838,128.0212240044857 101.33706705968507,128.19750256627594 101.23360353721364,128.19246604753425 101.01473839350365,127.99100473858925 100.35814296241733,128.06655285732268 99.53043478260224,127.4218706453139 99.21606484892618,127.33624794846037 90.37789240972779,128.81195273618505 89.96403831982389,128.91268130387834 89.51834929993493,129.19471984230404 86.96757553427233,128.78173411268654 86.8442151805466,128.88246276221253 86.53780397936498,128.79684342750988 86.04038319823667,128.3183788115166 85.95681650699407,127.73917656793128 85.43551952837515,127.34632121713366 85.21267501842885,126.99375518993111 84.86249078850597,126.74192026719902 84.6157700810727,126.77214054795695 83.85969049374398,126.46489988272879 83.79999999999927,126.323870530774 83.90744288872884,126.51023063227694 84.39292557111185,126.62607563014899 84.62372881355986,126.76206712377098 84.89830508475279,126.7318468348385 85.2922623434024,127.04412196986232 85.43551952837515,127.31610140290286 85.92100221075452,127.6334082278263 86.02844509948045,127.85501773819851 86.04834193073475,128.29319629281235 86.49403095063099,128.75151546463894 86.80442151805619,128.8723899095421 86.98349299926485,128.75151546463894 87.95445836403451,128.96304548544867 89.52232866617851,129.16953791688502 89.95210022107494,128.88246276221253 90.36993367722243,128.7918069899206 99.29167280765614,127.32617467705131 99.47870302137017,127.37654100682266 100.35416359615556,128.0564797836778 101.00677966101648,127.98596819187514 101.32512896093613,128.19750256627594 101.50420044214479,128.02626054642315 101.83846720707515,127.87516399183733 101.86234340457304,127.61829844040767 102.10508474576272,127.02901194305014 102.59852616064018,126.58074502178715 103.21134856300705,126.60592869991524 103.45806927044032,127.11463534717768 104.1663964627769,127.36143111505226 104.43699336771533,127.30602812603684 105.07369196757281,126.91820489216116 107.58069270450142,126.46993663539979 108.04627855562649,126.45482637532041 108.77450257920646,126.30372343682757 110.08371407516097,126.4346793523182 111.53220338982283,127.17507527847192 112.58275607958058,128.0061143746061 113.81635961678694,129.48179258710297 114.46897568163695,130.48904785185732" stroke="#4dd2ff" stroke-linecap="round" stroke-linejoin="round" stroke-width="0.5"><title>2022-09-11 16.4km</title></polyline><polyline fill="none" points="152.20000000000073,132.98613896486495 151.0734756487218,131.5290460570286 149.81027738719422,129.63683997238695 148.88255145084986,128.39977990709667 147.739460564997,127.35139297393107 147.1679151220742,127.00017700232638 145.96269973155722,126.39733618946047 145.35802121947563,126.29773549930906 144.57525246069417,126.21386103513578 143.59782692062072,126.46024175647835 142.74050875622925,126.51266298423434 142.14825514507538,126.67516833911213 140.85606544802795,126.83243093623969 140.4916016873285,126.95824055394041 139.9780391154236,127.29373086885607 139.72125782947114,127.33042494566325 139.01718010992408,127.11550200108468 138.71484085388875,126.53887357147323 138.12672887638473,126.50217874435111 137.8243896203494,126.72758927582254 137.59659976990588,127.01590315874273 137.33981848394615,127.80744477888584 136.78483957560456,128.184862899383 136.47421705227316,127.9647027762694 135.75771443179838,128.03808962308904 134.99979547486873,127.4247809834269 134.67674805062052,127.27276280936712 129.7150709446396,128.06429917751666 128.99442669052587,128.26349121133535 125.39534705355254,128.8034013069082 124.96461715453552,128.8925119579544 124.5297456218832,129.201776743932 122.85238399590526,129.0078313195554 121.85010865395816,128.7719504399247 121.67616004089359,128.8925119579544 121.35725425027704,128.7824340650768 120.88924964846592,128.31590999726905 120.87268311388107,127.88607385742944 120.78570880735424,127.69212184148637 120.30113767096918,127.34090896122143 120.01536494950051,126.93203025064213 119.88283267287989,126.82718885996655 119.79999999999927,126.85339923425636 119.85798287100988,126.78525222418466 120.1603221270525,127.04735545242511 120.2762878690919,127.28324684053587 120.74843410455651,127.57155658503689 120.88510801481607,127.87034805450094 120.91409945033593,128.29494249140407 121.3779624185081,128.7719504399247 121.62231880352556,128.88202836260461 121.89980825769817,128.7719504399247 124.48004601815046,129.1912932323212 125.0681579956472,128.8400939527637 134.6394733478155,127.25703675727345 134.83827176275008,127.30945690603403 135.74114789722444,127.99615429907499 135.93166304486294,128.03808962308904 136.47007541863422,127.9384931544082 136.64816566533773,128.15865342656252 136.79726447653957,128.19010479180724 137.29840214750948,127.84938030732519 137.59245813624875,126.94251437408457 138.089454173587,126.4969366233563 138.7106992202498,126.48121025609726 138.93434743704347,127.01590315874273 139.02960501086636,126.99493494875787 139.34851080148292,127.17840640106078 139.737824364056,127.27800482530074 140.02773871915633,127.2203426109154 140.70696663683702,126.78525222418466 141.2578039115433,126.73283136557802" stroke="#4dd2ff" stroke-linecap="round" stroke-linejoin="round" stroke-width="0.5"><title>2022-09-10 13.4km</title></polyline><polyline fill="none" points="188.1999999999971,132.96764499165147 185.04682651622352,128.54593527350517 183.87529170406196,127.46803434618778 183.5263238876687,127.24193425774865 181.99335812283607,126.43742791784462 181.64023592768353,126.35855385004834 181.36189255032514,126.37958695046473 180.601641236055,126.23235500834562 179.26393127324263,126.52681833430688 178.52029747403503,126.5846590823785 178.34165918707004,126.70559854988824 176.75884087703525,126.88963614726526 176.01520707782765,127.31554838456941 175.7036286703442,127.3681298182928 175.02231055262746,127.12099646070419 174.74396717526542,126.57414258912468 174.1457366328941,126.52681833430688 173.62643928708712,127.03160741211468 173.37717656109453,127.60474538889684 173.33978715219928,127.87290795925219 173.03651750223798,128.0096175765284 172.8121810488483,128.2199391248505 172.4756763687583,128.0096175765284 171.76112322091285,128.0569400242166 170.91778433132276,127.4049367795269 170.66021284779708,127.31029023729207 165.7663546608601,128.08848829064664 162.61733555583123,128.6826425213767 161.42502884985151,128.83512311470622 160.98051032183503,128.95079764818365 160.61077061160904,129.21369303372558 160.4404410821844,129.25575613026012 157.8938068983116,128.84038105552463 157.60715476342375,128.9350238684492 157.36204641619406,128.83512311470622 156.88844723681177,128.38819554330985 156.77212463135584,127.74671403918182 156.25282728553793,127.3681298182928 156.06172586228422,127.05789833011659 155.79999999999927,126.85282869757066 156.09080651364638,127.02634922638026 156.2362097704754,127.2892576410195 156.73473522246059,127.59422917192933 156.84690344915725,127.79929488905691 156.90506475188522,128.32509947184008 157.41189896139258,128.8246072309339 157.6694704449219,128.89821835749535 157.86057186817925,128.78254366740293 158.48372868316073,128.9350238684492 160.43628670342514,129.20843514346416 160.5983074753167,129.17688778689262 161.01374535196737,128.89821835749535 170.58958840877676,127.2839994901733 170.90947557378968,127.33658096660292 171.79020387227865,128.03590783236723 172.54630080779316,127.97806924604083 172.64600589818656,128.15684277996843 172.79556353377848,128.21468110002752 172.98251057827292,128.03064978262773 173.33978715219928,127.846617593048 173.6056673932435,126.97376732983685 174.02941402743818,126.57414258912468 174.1789716630301,126.52156008022212 174.75643031157233,126.55310959411872 175.0140017951053,127.0421237814553 175.75348121553543,127.32606467701044 176.10244903192142,127.2314179425266 176.7962302859305,126.83179585350808 180.5559430696194,126.24287159414598 181.3992819592204,126.29545448047065 182.03490191049423,126.41639484876578 183.06934222335985,126.93170176133572 183.73404282600313,127.34709725334687 184.51922041287617,128.0043595232346 185.17561225798272,128.69315844359517 187.97981792537757,132.6153988199403" stroke="#4dd2ff" stroke-linecap="round" stroke-linejoin="round" stroke-width="0.5"><title>2022-09-03 16.2km</title></polyline><polyline fill="none" points="42.430252100839425,174.79337069135 42.681894576006016,174.4697116325442 42.91291061879383,174.35486421688984 43.688464476697845,173.61878856978728 43.98961038961352,173.27945818622175 43.95660809777473,173.21159175126013 44.19999999999709,173.0027712023184 40.953399541620456,168.4345387764588 39.67868601985174,167.2388777353808 38.837127578310174,166.72718613599136 37.80580595874562,166.21548774596522 36.40733384262785,166.0484010866203 35.41726508784632,166.27292361787113 32.65332314744228,166.67497232566893 31.99740259740429,167.06657417960741 31.700381970971648,167.15533671358935 30.953705118401558,166.92559797036665 30.644308632534376,166.39301652814174 30.07501909854909,166.32513797264983 29.54285714285652,166.82639218081022 29.262337662334176,167.67224388111572 28.95706646293911,167.79755366606332 28.759052711997356,167.99595999271696 28.64766997708648,167.99073878666604 28.40840336133624,167.78711119953732 27.69885408708069,167.8602084058184 26.877922077910625,167.22843511755127 26.539648586713156,167.11356613481257 16.92773109243717,168.72170075395843 16.655462184869975,168.98275524144628 16.494576012228208,169.03496592686133 14.365928189461556,168.7425851780099 13.846142093207163,168.6016150962605 13.722383498850832,168.71125853770718 13.4047364400285,168.61205734219402 12.91382734911167,168.15781702939785 12.880825057291077,167.67224388111572 12.740565317031724,167.42162308953266 12.332161955688207,167.16055803274867 12.064018334611319,166.78984261505684 11.799999999999272,166.596651477641 12.142398777687049,166.85249899228074 12.328036669208814,167.16055803274867 12.794194041252922,167.47383588876983 12.872574484335928,167.61481009358613 12.926203208553488,168.1421534748879 13.396485867073352,168.61205734219402 13.722383498850832,168.71125853770718 13.895645530938054,168.6016150962605 16.465699006872455,169.02974486150924 16.89885408709233,168.7530273857701 17.15462184873104,168.67471075853246 26.58090145148526,167.10312348306616 26.849045072565787,167.17100066895728 27.690603514132818,167.83932350388932 28.44965622611926,167.78711119953732 28.62704354469679,167.99595999271696 28.77967914437977,167.99595999271696 28.911688311683974,167.83410227662898 29.287089381206897,167.63047386231483 29.32009167302749,167.34330375809077 29.55935828875954,166.7637357611493 29.96363636363094,166.38257368122504 30.18227654698785,166.32513797264983 30.648433919024683,166.3512451235256 30.94545454544641,166.88904849864775 31.477616501138982,167.10312348306616 31.74576012223406,167.12923010715167 32.73170359051801,166.63320122651567 35.88754774635527,166.1006157454467 36.51046600458358,166.00662930864928 37.21176470588034,166.1423874216016 37.8800611153456,166.17371614900912 38.226585179534595,166.41912363306255 39.23728036668763,166.88904849864775 40.01283422460256,167.47383588876983 40.65637891519873,168.06905680309137 41.423682200147596,169.008860592985 43.72971734148814,172.3084347473632" stroke="#4dd2ff" stroke-linecap="round" stroke-linejoin="round" stroke-width="0.5"><title>2022-09-01 16.9km</title></polyline><polyline fill="none" points="80.19999999999709,173.78433597609182 76.81851709564944,169.11623169529048 75.83104110640124,168.22875573470083 75.18793699576054,167.8769105307838 74.92654629273238,167.6405947958301 73.951517479818,167.19946823755163 73.35820207452707,167.10494046505482 72.57402996542078,167.01566402390745 71.55336150593939,167.2729896790661 71.29197080291851,167.24148050690565 70.623972339592,167.3412594642432 70.24640799076587,167.48830167023698 68.81913177102979,167.61958888302615 68.04740683826094,168.076464918875 67.73622742987573,168.1499846977349 67.04748367267166,167.91892206624834 66.7404533230947,167.35701401295955 66.10564733000137,167.31500186877747 65.62435651171108,167.78763586682908 65.37956204378861,168.36529181977312 65.33807145599712,168.64361388912585 64.99369957740782,168.81165643562053 64.80284287359973,169.00595472233908 64.4916634652327,168.77489719079313 64.05186323472299,168.86942089281365 63.632808298105374,168.75389189238922 62.88597771800778,168.17099032324404 62.6287360737515,168.08696775294447 53.35973876295975,169.64135583606912 52.96972723779618,169.7253750387572 52.67514406452756,169.977431554762 52.46354206683827,170.0404454277923 51.02796772953661,169.85665467859144 49.82888974259549,169.5835925286192 49.63803303880559,169.70962145211888 49.32685363042037,169.59409495456566 49.12354975027483,169.33678470043378 48.90779869381004,169.20550330084734 48.82481751823434,169.0164573047041 48.841413753350935,168.68037325839032 48.72938916633939,168.43881105108449 48.24809834804546,168.11847623814174 48.08628505570232,167.84015039992664 47.79999999999927,167.6143374030471 48.11117940835902,167.84015039992664 48.235651171726204,168.09747058420544 48.75428351901064,168.44406241942488 48.89535151747259,169.11623169529048 49.35589704186714,169.59934616646206 49.61313868612342,169.7043702551564 49.83303880137828,169.55208523374313 50.49688820591473,169.7306262328857 52.46354206683827,170.01418965980338 53.09419900114517,169.6623606537978 62.64118325008167,168.09221916893148 62.898424894345226,168.12897906084618 63.79877064924949,168.84841564560338 64.46676911255781,168.769645867269 64.64517864002119,168.9534417678624 64.80699193238979,168.97969825399923 64.98125240107038,168.80640511707315 65.31317710334042,168.6593679087855 65.57871686514409,167.84015039992664 66.13054168265808,167.30449882562243 66.70726085284696,167.2992473029699 66.9935459085682,167.82964749901294 67.084825201684,167.80864168860717 67.43749519784251,168.03445355407894 67.83165578178523,168.09747058420544 68.71125624279011,167.6300918408415 69.07222435650328,167.55657107636944 72.52424126007463,167.01566402390745 73.36235113329894,167.07343115635376 73.9017287744864,167.16270746451482 75.21283134843543,167.7981387791442 75.90987322320143,168.26551549719807 76.60691509796015,168.87467220284816 77.80184402611121,170.31875547573873 79.8639262389479,173.31702575809322" stroke="#4dd2ff" stroke-linecap="round" stroke-linejoin="round" stroke-width="0.5"><title>2022-08-28 16.3km</title></polyline><polyline fill="none" points="116.19999999999709,173.67217691954647 113.03112974841133,169.29254306270013 112.10004933399614,168.44285485001092 111.58455846078505,168.08375461605465 110.12599901332578,167.32508079759282 109.5785397138643,167.21380734165723 109.03507646769867,167.12782308045644 108.11998026641231,167.32002292042307 107.90019733597,167.44141178344216 107.04104588061091,167.49199035990023 106.6334484459876,167.61337866401664 105.09896398620185,167.8106338167272 104.44361124814895,168.2051409969099 104.19185989146717,168.27089178847382 103.48855451406416,168.0432924014276 103.16887025161122,167.49199035990023 102.63339911199,167.47681679416928 102.14188455845579,167.92696329023602 101.8621608288122,168.72608640191174 101.39861864826162,169.07506518209993 101.25076467686813,169.07506518209993 101.00700542674531,168.87781670698314 100.35165268869969,168.93345099773433 99.54444992599383,168.30123826862837 99.30468672916322,168.2152565108263 90.341539220517,169.70220725908075 89.95392205229291,169.78818559406864 89.70217069560749,169.99048677807878 89.45041933892571,170.0764644494957 87.61223482980131,169.82864591852558 86.93290577207881,169.65668923692647 86.81702022693935,169.75784032195952 86.6651702022682,169.76289786902998 86.4294030587007,169.63140142285556 86.03379378391037,169.25208215753082 85.91391218549688,168.62999022324584 85.40641341884475,168.24560303618273 85.07474099654064,167.79040256694134 84.79102121361575,167.60326298706423 84.58322644301734,167.64878351172592 84.04775530341067,167.4211803336584 83.89990133201718,167.39589100603553 83.79999999999927,167.48187465010415 83.83596447952004,167.39589100603553 83.99181055747613,167.40094887292798 84.58322644301734,167.6386678443596 84.83098174642146,167.5931473073797 85.09072520966947,167.78028693795932 85.37844104587202,168.15456338615695 85.93389245189246,168.56929777248297 86.04178589046933,169.21667882956172 86.4893438579129,169.66680435774106 86.74109521460196,169.75784032195952 86.96887025159958,169.62634385799174 89.49037987173506,170.0562344269747 89.89797730636565,169.77301296109363 90.09777997039419,169.71737992081762 99.26472619635024,168.1849099608262 99.52846571287955,168.25571853915608 100.35564874198462,168.91827801757245 100.50749876665577,168.94862397174074 100.97104094722454,168.8373553525562 101.35466206216006,169.06494990101783 101.5185002466751,168.8929897035814 101.8621608288122,168.73620177475823 102.10592007893138,167.92696329023602 102.42160828810665,167.57797378274336 102.64538727184117,167.44141178344216 103.20483473112836,167.46670108023318 103.46058214109144,167.9522522582738 104.17587567834926,168.22537202201784 104.64341391218477,168.05846573704184 105.07099161322185,167.78028693795932 105.37868771584544,167.7044196331699 108.13596447952295,167.34531229942877 108.36773556980916,167.2289810142538 108.82728169708571,167.1480546891362 109.51859891466302,167.2643862263576 109.61050814011105,167.21886523320427 110.20991613222213,167.33519654988413 110.74938332511374,167.64372567838655 111.14898865318901,167.77522912243876 111.98416378886031,168.3113537565332 113.07109028120976,169.3026582821185 114.30187469166412,170.96657459455673 115.79240256537378,173.18164300350327 115.90828811051688,173.2473850361057" stroke="#4dd2ff" stroke-linecap="round" stroke-linejoin="round" stroke-width="0.5"><title>2022-08-26 16.9km</title></polyline><polyline fill="none" points="151.7334007074278,172.5550047088509 150.21081354219132,170.4052851234046 149.138453764539,169.2086418908002 148.64320363820661,168.76830920294742 147.8778170793339,168.281347152355 146.76043456291154,167.74257340535405 145.42203132894792,167.57679534124327 144.73441131885193,167.7114900730594 144.46018191005714,167.8565454077252 143.60065689741896,167.88762862215663 143.19954522487023,168.04822482775126 141.62784234462015,168.2243618264256 140.9484082870149,168.6284377590964 140.62915613946097,168.6957833329434 139.94562910561217,168.45748307768372 139.63865588681074,167.90317021989904 139.05745325922908,167.8824480881667 138.55401718039502,168.37977615177806 138.25932289034972,169.20346153570426 137.94825669530474,169.35887188359266 137.75997978778105,169.54018315824214 137.45300656897234,169.3277898645283 136.77766548762884,169.42103584598954 135.9345123799976,168.7372267040737 135.64800404245398,168.6336181920742 126.13592723598049,170.23433838169512 125.77983830217636,170.4881681171537 125.50151591713802,170.5451500712188 122.99252147549123,170.13073392407387 122.8206164729636,170.2550592395528 122.51773623040935,170.13073392407387 122.06341586659983,169.70595271452476 121.95699848408913,169.07395243020437 121.44128347649166,168.66988120319002 121.13431025770842,168.25544474199705 120.77412834764255,168.01196122734473 120.56129358261023,168.06894686969463 120.04148559879468,167.84100379102892 119.79999999999927,167.84100379102892 120.23794845880911,167.86172594521486 120.54901465386502,168.03268328894046 120.75775644265013,167.98605863458943 120.95831227892268,168.0793078864408 121.29393633147265,168.3745956844432 121.4494694290006,168.65952034637667 121.89151086406491,168.93408210383132 122.03067205660045,169.23972400667844 122.08797372410845,169.7214935736156 122.54638706417245,170.12555369383335 122.79196563920414,170.22397794855715 123.04163719050484,170.09447229762372 123.72107124811009,170.2654196642834 125.57928246588926,170.53478972224912 126.24234461848391,170.19289663230666 135.62344618494535,168.6336181920742 135.88130368872953,168.69060290839843 136.7449216776149,169.36405221766108 137.47756442647733,169.32260952555225 137.6044466902531,169.48838002458797 137.74770085901764,169.54018315824214 137.9810005053041,169.3277898645283 138.27569479535669,169.19310082339507 138.55401718039502,168.3227909724519 139.01652349672077,167.86690648200602 139.6591207680649,167.8824480881667 139.89242041435136,168.40567847794955 140.00702374937828,168.39013708434868 140.34264780191734,168.58699427013198 140.69873673572874,168.65952034637667 140.9443153107677,168.5973551465795 141.69332996462617,168.17255691099126 145.45068216271466,167.56643418838212 146.0769075290591,167.67004559070483 146.23244062657977,167.62342049438666 146.8300151591684,167.7477539582942 148.0947448206207,168.40567847794955 148.71278423446347,168.83047412495944 149.7032844871137,169.70595271452476 150.94754926731184,171.38432902100976 152.20000000000073,173.23356581161715" stroke="#4dd2ff" stroke-linecap="round" stroke-linejoin="round" stroke-width="0.5"><title>2022-08-21 16.1km</title></polyline><polyline fill="none" points="188.1999999999971,173.67945014582074 187.75937616968076,173.16276062035467 185.0347847785415,169.3001547236745 183.95545851528732,168.31269673410497 183.27633187773245,167.88291421207396 182.12019962570412,167.30986324449987 180.7457766687403,167.16148255950975 180.18792264504373,167.26893069995276 179.85240174672435,167.41219441187422 179.04796007485857,167.44801025497873 178.52244541484106,167.61685591515925 177.20865876481184,167.77546781769706 176.1737991266382,168.26664884058118 175.45020586400278,168.07222378254664 175.2723393636843,167.8931471860742 175.08234560200435,167.4838260641227 174.52853399875312,167.4531268012288 174.03940112289638,167.91361312577646 173.8008983156542,168.50200415122526 173.7928134747308,168.7168925023616 173.26325639426796,169.09550233800474 172.91156581410542,168.87038343350287 172.26073611977336,168.95224500850964 171.37948845913706,168.28199814465188 171.0763069245113,168.215484448614 163.41996257018764,169.51503853567192 162.4740361821605,169.60713122388916 161.6372551466011,169.8117808385432 161.44726138490296,170.01131314566737 161.2249282595185,170.08805606016904 159.43817841546843,169.85271062845277 158.64586400499684,169.64294498645904 158.48820960698504,169.78108346699446 158.22949469744344,169.69922368763946 157.70802245790037,169.2080612872851 157.70398003742594,168.7987544098978 157.6271740486518,168.60944847955034 157.10974422957952,168.23595021371148 156.9480474111042,167.95966144955673 156.43466001247725,167.58104023211854 156.49125389893743,167.46335989163708 156.38210854647332,167.37126197818725 156.38615096693684,167.27916384024866 156.53572052401796,167.3661454208559 156.59231441048541,167.28939697776514 156.54380536494136,167.37126197818725 156.38210854647332,167.26893069995276 156.49529631940095,167.49917568623277 156.28509045539613,167.63220548320896 155.79999999999927,167.4326606121067 156.24466625077912,167.62197243854826 156.53167810356172,167.59127328788236 156.95208983156408,167.91872960895853 157.12995633187893,168.21036800561706 157.59483468496182,168.49688774702372 157.70398003742594,168.70154337495842 157.77674360573656,169.23364281990507 158.29821584529782,169.70433992904145 158.49225202744128,169.76573477187776 158.69841547098986,169.62759623521924 159.28052401746754,169.7913159269374 161.1925888958176,170.07270748972587 161.35024329383668,170.03177793809664 161.71810355583148,169.7503860705183 171.13694323143864,168.1489706354987 171.3431066749872,168.21036800561706 172.2162694947001,168.89596519475526 172.41030567686175,168.93177963138805 172.9398627573246,168.85503436845102 173.214747348713,169.06992071185232 173.72813474733994,168.76293984717267 174.01918902057878,167.88291421207396 174.46385527136226,167.46335989163708 174.6578914535312,167.41219441187422 175.09447286337672,167.42754406308813 175.40573923892225,167.95966144955673 176.14145976293366,168.20525156192525 176.38804741110653,168.14385418347592 177.10355583280398,167.70895322996876 180.8872613849053,167.12054985418217 182.22126013723755,167.28428040934887 182.8518777292593,167.66802111776633 183.4178165938829,167.91872960895853 183.97971303805025,168.3178131632485" stroke="#4dd2ff" stroke-linecap="round" stroke-linejoin="round" stroke-width="0.5"><title>2022-08-19 15.6km</title></polyline><polyline fill="none" points="44.20000000000073,214.43917763299032 44.11582333291517,214.3072880686268 44.07173079302083,214.22105233326147 41.730817765677784,210.9287279040691 41.01732030186395,210.0459908210505 39.975132995172316,209.09727893018135 38.2635407645721,208.17391059850706 36.920722504026344,207.9811165365245 36.20722504020523,208.1181018931311 35.96271186440936,208.23479272776603 35.072844240996346,208.30074825611882 34.720103921805276,208.44280592285577 33.19289867622865,208.6203772488152 32.599653593959374,208.9653705618075 32.2469132747683,209.08713214910676 31.593542001726746,208.90448961975562 31.409155016699515,208.68633209837571 31.24080168254295,208.30582175350355 30.715699616481288,208.2753807589579 30.587430409494118,208.33118923005895 30.15051342323568,208.78780087098494 29.910008660150197,209.56402788925698 29.593344055425405,209.71115407321486 29.408957070390898,209.89379267026743 29.112334529265354,209.69086084081937 28.430904367192852,209.77203370449206 27.504961029328115,209.0668385786994 27.292515155262663,209.03639820248281 22.49043671904292,209.7872535968454 21.348039094391424,210.05613734245344 18.341729555857455,210.49750836405656 17.936879871329438,210.58882585731408 17.48793764691436,210.8982890405241 14.982679698125139,210.48228876019857 14.786267474941269,210.57360629055984 14.529729060988757,210.49750836405656 14.000618582213065,209.980038364949 13.984584931335121,209.55388123458397 13.884374613382533,209.34587420820753 13.399356674501178,209.02117800510678 13.287121118384675,208.79287430240947 13.034591117160744,208.57471613109374 12.762019052330288,208.4072915566794 12.55358159098978,208.44280592285577 11.992403810469114,208.20435167550022 11.804008412720577,208.2500132446221 11.832067301744246,208.4275854843363 12.132698255594732,208.71677275900947 12.19683285908468,208.66603831087195 12.052530001241394,208.46309983127503 11.924260794254224,208.49354067330933 11.799999999999272,208.3667036683837 11.860126190771553,208.19927816438576 12.55358159098978,208.44280592285577 12.80210317950332,208.39714458872913 12.974464926388464,208.50876108503508 13.283112705670646,208.78780087098494 13.399356674501178,209.00595780152798 13.940492391433509,209.37631433298156 14.016652233080094,210.00033144074405 14.525720648267452,210.49243516345814 14.790275887673488,210.5685331002751 14.970654459975776,210.46199594546852 15.507781764197716,210.59897223172447 17.467895583326026,210.8830695994693 17.997006062108994,210.5533135252699 27.28449832982733,209.02117800510678 27.545045156501146,209.0668385786994 28.374786589141877,209.72637399031737 29.080267227513104,209.67564090929227 29.392923419523868,209.89379267026743 29.901991834725777,209.558954562257 30.166547074106347,208.71677275900947 30.711691203752707,208.26523375527904 31.296919460601202,208.2906012593303 31.52940739825135,208.77258057261497 32.05851787702704,209.0008843989781 32.327081529136194,209.03132480404747 32.54754422863334,208.9704439691668 33.18087343807201,208.54934881942245 34.976642335765064,208.32104224151044 36.972831869352376,207.9608223670075 38.28759124086719,208.14854301547166 39.409946801930346,208.71677275900947 40.08336013856024,209.14801279435414 41.20571569961248,210.1931151124627 42.42026475318562,211.8976854718603" stroke="#4dd2ff" stroke-linecap="round" stroke-linejoin="round" stroke-width="0.5"><title>2022-08-14 16.5km</title></polyline><polyline fill="none" points="80.20000000000073,214.5286699713215 77.75081605105515,211.0668007432796 76.87610749785017,209.9396109439549 75.93380782918393,209.0740670004052 74.39511596515149,208.21353530493798 73.84245919745081,208.0424330607202 72.9478709044015,207.94681675757238 72.82064056939998,207.87133002867995 71.89424469260484,208.1732760242412 71.04736777518337,208.21353530493798 70.61796539452916,208.37457199162236 69.15084059394212,208.53560798044782 68.53456865873159,208.89290408887246 68.19661308135619,208.99355025986006 67.49684623879875,208.75199899155268 67.3338323720709,208.54567270656844 67.23840962081522,208.2437297368524 66.6102098416959,208.19843807979487 66.1410479813494,208.67651389823368 65.88261136335859,209.45651913564507 65.35778623143779,209.8238707702476 65.03175849798208,209.6024537813828 64.35982329119724,209.6527759401506 63.63222481286721,209.0740670004052 63.25450975579224,208.94322720844502 59.1950668793761,209.597421561768 57.40191434532608,209.95973963302822 54.400073628668906,210.40256803436205 54.00645477973012,210.50824221397488 53.75994600564809,210.7145576033945 53.51741317953929,210.78500649845228 51.79582770893103,210.5635952357552 51.040397594802926,210.38747169845738 50.81774450852754,210.4931459209838 50.57521168241874,210.38747169845738 50.11002577002728,209.95470746177307 50.018578966744826,209.36090647082892 49.509657626698754,208.95832413101743 49.3347159160694,208.66141686117044 49.12399067370279,208.485284308892 48.857602159776434,208.32424810199154 48.66675665726507,208.36953960571918 48.39639219536548,208.2034704888647 47.93915817891684,208.14308153508682 47.79999999999927,207.91158963650741 47.89144680329264,208.01727089954147 47.96301386673804,208.38966914521006 47.9153024911102,208.38966914521006 48.257234016455186,208.35947483187556 48.70254018898413,208.88787177317136 49.060375506203854,208.78722531598032 49.263148852624,208.93819489954694 49.947011903299426,209.22000314797333 50.04641060254289,209.33071294661931 50.09412197816346,209.85406389378477 50.54340409866563,210.36734324106146 50.84160019635601,210.46798541907265 51.05232543870443,210.34218265397067 51.76004417720469,210.51830640586923 53.52934102344079,210.76991031789657 53.68440299424037,210.73971793838427 54.07802184317552,210.44785700527427 57.92276352927365,209.81883858059518 59.127475763896655,209.54206710093422 63.36186035096398,208.92813027973898 63.564633697384124,208.98851795778683 64.35584734323129,209.6276148692814 65.06356608172791,209.57729267645118 65.15103693704441,209.70309803076452 65.32995459565427,209.77858103893232 65.85875567555559,209.47161584971764 66.13707203338345,208.61612571316437 66.65792121733102,208.16321119725035 67.21057798502443,208.1934056700411 67.49287029083644,208.69664327145074 68.18866118542792,208.96838874266905 68.45902564732023,208.90296871824103 69.15084059394212,208.48025193798458 70.89230580439471,208.22863252395837 71.6715916063331,208.0424330607202 72.0294269235601,208.03740062985526 72.27991164560808,207.93171942407935 73.14666830286296,207.88642738672934 73.46474414038312,207.9770114062012 74.45873113265043,208.05249792042378 74.85632592956244,208.26385934448626 75.41295864522908,208.71174029419853 76.0411584243484,209.08916386981582 77.05104920849772,210.05031859892551 77.81443121856137,211.11208890478883" stroke="#4dd2ff" stroke-linecap="round" stroke-linejoin="round" stroke-width="0.5"><title>2022-08-12 16.3km</title></polyline><polyline fill="none" points="116.20000000000073,214.8509454218074 113.1950340798503,210.65365792280136 112.17366114897959,209.81015008897884 112.00014605647084,209.5955266720266 111.2824245374868,209.12135422740175 110.32414800389597,208.67712398175354 109.574878286272,208.48245960270287 109.21207400194908,208.42755407914228 108.06845180136588,208.67213260026256 107.11411879260413,208.7669687330199 106.79074975657568,208.94166623354977 105.36319376826214,209.0315103399662 104.68885102239074,209.47573631452178 104.420691333984,209.53563154193398 103.71480038948357,209.31601523222344 103.57677702045476,209.17126740356616 103.403261927946,208.7769514696447 102.85511197663072,208.737020506931 102.38977604674074,209.20121527682568 102.15316455696302,209.7652290120932 102.13739045765033,209.97486023584497 101.77852969814921,210.1894814440784 101.64444985394584,210.34919874154002 101.52220058424064,210.3292341171982 101.30136319376106,210.13457846324673 100.64673807204963,210.20944614411565 99.61353456670986,209.47074504116608 95.25199610515483,210.18449026738745 93.95851996105193,210.4739773986439 90.75243427457826,210.95811458939716 90.38174294061173,211.03298059762164 89.9085199610563,211.33244311000817 88.20886075949238,211.09786434843045 87.40438169424306,210.90820383278333 87.021859785782,210.46898626045368 86.61173320350281,209.05646699733916 86.18188899708548,208.59726179678182 85.4838851022323,208.36266562766104 84.38364167477994,208.252854141836 84.09970788705323,208.15302523443825 83.94196689386081,208.00827283842955 83.79999999999927,207.54905457818677 83.97351509250075,208.0432131239977 84.10365141187867,208.1280679653355 84.72278481012108,208.29777706193636 85.25910418695275,208.3127513564723 85.81908471275165,208.43254549375342 86.31202531645613,208.6920981221847 86.789191820837,209.345962987878 87.13227848101087,210.51390647970766 87.44381694254844,210.92317706685208 87.85000000000218,210.98306994236918 89.92823758519808,210.45900398207596 90.15696202531763,210.5937645120648 90.27132424537558,210.8383286599783 90.27526777019739,211.07790012957412 90.75637779941098,210.9381502948563 95.04298928919161,210.1794990900271 99.57409931840812,209.46575376713736 99.78704965920406,209.51566647693835 100.66645569621323,210.19946379545217 101.34079844206644,210.1395696467116 101.56557935735327,211.05294484079423 102.05457643623231,210.96310566133616 102.12555988314853,210.8882395112014 102.08218111002861,210.64367569444585 102.25175267770464,210.5488443901595 102.25175267770464,210.34420758646593 102.41343719571523,209.9948250521229 102.38188899708257,209.69036042897278 102.27935735151186,209.51067520901051 102.31090555015544,209.31102393725814 102.40555014605707,209.12135422740175 102.84328140214711,208.737020506931 103.43481012657867,208.74201187964354 103.66353456669822,209.23116312573984 104.27083739045702,209.48571885917045 104.68490749756893,209.46575376713736 104.75194741967789,209.59053541491085 105.06348588120818,209.40585842617293 105.35136319377852,209.0464843364207 105.77726387537405,208.95164892285902 108.23802336904191,208.60724457936522 108.90053554041151,208.44751973353777 110.33992210321958,208.60724457936522 112.10267770204518,209.57057037964842 113.13193768257042,210.508915346938 115.8569133398305,214.37184996302312 116.01465433301564,214.47665262663213" stroke="#4dd2ff" stroke-linecap="round" stroke-linejoin="round" stroke-width="0.5"><title>2022-08-07 17.9km</title></polyline><polyline fill="none" points="152.20000000000073,219.12517565266535 149.05654885655895,214.76801468535268 148.1359667359684,213.95335480585345 147.45114345114052,213.5081256905214 146.52307692308023,213.06762747779067 145.64365904366423,212.8781641747155 145.44158004158817,212.8544811896827 144.03825363825672,213.1670953010762 143.58918918919153,213.18604152104308 143.15135135136006,213.33287437794206 141.86403326402797,213.44655100507953 141.2690228690335,213.81126102307098 140.8985446985389,213.9201996415104 140.25862785863137,213.7212679954282 139.95925155925215,213.18604152104308 139.43160083160183,213.18130496701633 138.97505197505234,213.59811926657494 138.7243243243247,214.36068711731423 138.23409563409587,214.6827604705977 137.91226611226375,214.46962402457575 137.33970893970763,214.55014239015873 136.5276507276467,213.95335480585345 136.23950103950483,213.8823079866197 132.71060291061076,214.43173296488385 131.37837837839106,214.71117856527053 127.92806652806394,215.2558542512961 127.5575883575948,215.33637080709377 127.14220374220531,215.61107295559486 125.75010395010395,215.4405684277117 124.72474012473685,215.2084914848565 124.5937629937689,215.31742575181488 124.36174636174474,215.2558542512961 123.89771309771822,214.83432337542035 123.8378378378402,214.3512143267326 123.74802494802861,214.18544007633318 123.28399168399483,213.8633621437839 123.17920997922556,213.64548421360087 122.99958419959148,213.47497010414372 122.71891891891573,213.29024554749776 122.5392931392962,213.34234744430069 121.89563409563198,213.1149931432119 121.6972972973017,212.90658373560655 121.48399168399555,212.97763253680387 121.4690228690306,213.02499832408284 121.55135135136516,212.96815937164865 121.61496881497442,213.02026174824277 121.43908523908976,213.1670953010762 121.0910602910626,212.71711956015497 120.75426195426917,210.18293754092883 120.69438669439114,208.64339150943852 120.24158004157653,203.2094364646291 120.10311850312428,202.27131863516115 119.79999999999927,201.626940288872 119.85613305613515,201.56060654951216 120.12182952183502,201.70748823173926 120.24158004157653,201.58429718516345 120.18918918919735,201.47058198762898 120.06569646570279,201.41372425012742 119.8261954262016,201.5700828057088 119.81496881496787,201.6695833405647 120.07692307692923,202.08179682512127 120.16673596674082,202.48452944331802 120.88523908524076,210.41504783230994 121.17338877338989,212.76922231071512 121.40166320166827,213.1339393914168 121.55509355510367,213.2523532101659 121.83201663202271,213.32340130898228 121.83575883576123,213.38497621123315 122.02661122661084,213.30445516341933 122.16881496882343,213.32340130898228 122.5355509355577,213.80178808371056 122.86486486486683,213.71179503167514 123.16049896050026,213.9107267316358 123.13430353430522,213.6928490964783 122.92474012474486,213.4607605574929 122.99958419959148,213.45602404066813 123.20166320166754,213.64548421360087 123.30270270270557,213.84915275492676 123.77422037422366,214.16649439769753 123.84532224532813,214.29911393270595 123.89022869023393,214.77275102454587 124.30187110187035,215.20375520468951 124.58627858627733,215.30321695362727 124.78835758836067,215.18481007758237 125.34968814969397,215.3316345442363 127.15343035343176,215.58739182086356 127.58752598753563,215.30321695362727 136.3031185031141,213.83967982581817 136.5463617463647,213.90125381919643 137.3209979209969,214.5264605371667 137.9983367983441,214.4885695390367 138.20041580042016,215.34584333088424 138.7692307692305,215.21322776439047 139.43908523908613,215.1706012255163 140.49438669439405,214.98588562352234 140.53929313928893,214.5075150432349 140.38960498960296,214.15702155452527 140.40083160083668,213.9107267316358 141.14178794178588,213.8349433602998 141.80415800415722,213.41339536032683 142.4066528066578,213.37550315640328 145.16465696466548,212.8923739580532 146.51559251559593,213.04868119368257 147.81413721413264,213.72600447633158 148.28191268191222,214.038610798445 148.99667359668092,214.68749682130874 149.8873180873088,215.79578525626857 151.78461538461852,218.48584361364192 151.66860706860462,218.69895559145516 151.81081081080993,218.9357451553842 151.7733887733957,219.01625324205816 151.8706860706916,219.2719835825992 151.81455301454844,219.60348309387336 151.51517671518013,219.9160368991361 151.45530145530574,220.08178399627286 151.23076923076587,220.23805911155068 150.81538461538366,220.74950006318977 150.7854469854501,220.72108687310174 150.78918918918862,220.89156566746897 150.88648648649178,220.98627574987404 150.7218295218263,220.7684421770864 150.58336798336677,220.83473949497784 150.7068607068686,220.81106189586717" stroke="#ff0000" stroke-linecap="round" stroke-linejoin="round" stroke-width="0.5"><title>2022-08-06 24.1km</title></polyline><polyline fill="none" points="187.79436619721673,215.2860330069816 186.27323943662486,212.9653200099492 181.0253521126724,205.86372864222358 178.80281690139964,203.85292113370815 177.15492957746028,202.8154100058673 175.12676056338387,201.82067004519195 173.85070422536955,201.4569985451526 172.64225352113135,201.32864349833835 170.22535211269133,201.88484719488042 168.07887323944306,202.1094668082369 167.50422535213147,202.34478190851223 164.8591549295743,202.55870411855722 162.5605633802843,203.72456998028792 160.8873239436507,203.20046727253794 160.22816901409533,202.06668216922117 159.00281690141128,202.04528984105855 158.0647887324012,202.94376263669983 157.49859154930164,204.7085901599421 156.39154929576762,205.45729295430647 155.89295774647326,205.11502970028232 155.8000000000029,204.83693971440516 156.00281690141128,204.78346075872832 156.07042253523105,204.48397793780896 156.58591549297125,203.99196798122284 157.4056338028313,203.61761052646034 157.50704225352092,202.7405375416056 157.49859154930164,203.55343478463328 157.34647887324536,203.7031781011101 157.57464788732614,203.39299520193163 157.4732394366365,202.46243919574772 157.5577464788803,202.7619296815028 157.304225352098,202.68705716652767 157.6253521126855,202.77262574926135 157.60845070421783,203.04002697291435 157.69295774649072,202.55870411855722 157.32957746479224,200.8580065418937 157.03380281690625,200.986362353593 157.38028169013705,202.65496892409283 156.9746478873276,202.91167449853674 156.6957746478729,202.82610606641538 156.81408450705203,202.0559860058711 156.66197183099575,201.10402166441054 156.46760563379212,201.01845127391425 156.1802816901327,201.1468068248796 156.4760563380405,202.83680212550098 157.2873239436667,202.85819423932116 157.46478873238812,203.62830647835654 156.32394366197695,204.47328210176784 155.89295774647326,204.98668059770716 156.3408450704228,206.95467725382332 157.41408450705057,206.68728928210476 157.43098591548187,206.02416320654447 157.6845070422787,205.99207631974423 157.84507042253244,205.61772834408475 158.28450704225543,205.41451012864854 158.34366197184136,205.0829424442054 158.10704225352674,204.7406775681302 157.88732394365798,203.31812328514206 158.05633802816737,202.92237054600992 158.96056338028575,202.1094668082369 160.38873239439272,202.03459367476898 160.82816901407205,203.15768322451186 162.23943661973317,203.66039432538673 163.10985915493802,203.52134689416562 164.2591549295612,202.83680212550098 163.35492957746465,203.88500888949784 164.84225352112844,203.4357791225193 164.8000000000029,203.0614190316628 165.03661971831752,202.83680212550098 164.89295774647326,202.7191453959167 164.09014084507362,202.82610606641538 163.01690140844585,203.56413074520242 162.3661971830952,203.71387404143024 161.08169014085433,203.30742729127087 160.70140845071,202.86889029407757 160.3464788732308,202.0559860058711 159.04507042252226,202.02389750704606 158.12394366195804,202.8474981831314 157.53239436617878,204.6871985472535 156.29014084506343,205.45729295430647 155.9352112675988,205.2005956528301 155.89295774647326,204.98668059770716 156.36619718310249,204.43049874314602 157.3887323943709,203.75665778820985 157.60845070421783,203.27533930083882 157.71830985913402,202.62288066861947 157.43943661973026,202.70844932087493 157.67605633802305,202.83680212550098 157.3887323943709,202.47313530411338 156.99154929578071,202.47313530411338 157.43943661973026,202.4945275163991 157.53239436617878,202.68705716652767 157.2112676056422,201.30725097021786 157.32112676058023,201.1575031113607 157.35492957745737,201.2537696246727 157.2873239436667,201.0719327788247 157.27042253522086,201.7671890472775 157.60845070421783,202.83680212550098 157.49859154930164,203.54273882260168 156.39154929576762,204.4198028998726 155.91830985915294,205.0508551750463 156.29014084506343,206.9332862493975 157.35492957745737,206.71937588651053 157.51549295773293,206.55894273419835 157.3887323943709,206.10972817424772 157.60845070421783,206.00277195010858 157.71830985913402,206.10972817424772 157.8112676056262,205.40381441860518 158.14929577463772,204.6871985472535 158.03943661970698,203.97057617449173 157.8028169014069,203.62830647835654 157.8619718309783,203.4250831445388 158.03943661970698,202.91167449853674 159.01971830985713,201.98111282169702 160.3633802816912,201.98111282169702 160.8873239436507,203.05072300301254 162.5774647887447,203.62830647835654 163.05915492957865,203.45717107411474 164.4619718309841,202.53731192366104 168.12957746478787,202.18433987075696 168.38309859154833,202.00250516725646 169.68450704225688,201.77788524974312 170.49577464786853,201.87415100688668 171.4929577464718,201.43560605184757 172.94647887323663,201.3607322795724 173.72394366197113,201.60674583620857 175.00845070423384,201.62813828318758 177.1971830985931,202.70844932087493 179.1577464788861,204.02405568052927 181.53239436619333,206.3022490127696 185.81690140845603,212.48405762840412 188.20000000000437,215.58547487991746 185.93521126760606,218.14137896679313 184.7436619718501,219.08244416460366 184.71830985915585,219.30701488484192 184.4225352112844,219.53158496681135 184.3887323943709,220.04488561461767 184.5323943662006,220.03419188511907 184.36338028170576,220.26945359945967 184.32112676056568,219.6171353063546 184.4816901408558,219.6706042215228 184.32112676056568,219.98072321598738 184.10985915493075,219.90586701843858 184.253521126775,219.79892947032204 183.85633802818484,220.1518228298737 183.7887323943578,220.35500314010278 184.13521126762498,220.73997492671333 183.53521126761188,221.41367104012897 183.62816901410406,221.31742908988963 184.00000000001455,221.52060640291165 184.1605633802901,221.499219341953 184.10140845071146,221.25326772459812 184.21126760564948,221.45644520261703 184.2704225352427,221.36020330447354 183.47605633805506,221.54199345810048 183.81408450703748,221.30673553261295" stroke="#4dd2ff" stroke-linecap="round" stroke-linejoin="round" stroke-width="0.5"><title>2022-07-23 16.3km</title></polyline><polyline fill="none" points="44.200000000004366,258.7696045810517 42.6748648648645,256.6917968294947 42.30999999999767,256.3685766026756 41.675135135126766,255.306556503936 37.6397297297226,249.68219182764733 35.4140540540684,247.59487118523975 34.03486486485781,246.71743857149704 32.13756756756629,245.7845767812396 29.714864864865376,245.2673409831914 28.70054054055072,245.23039541894832 28.029189189182944,245.37817755584547 27.569459459467907,245.2765773711144 27.474594594612427,245.8954125133314 27.211891891885898,246.00624806532142 25.321891891908308,246.38493484233186 22.811621621629456,246.6804937927518 21.811891891898995,247.33626064068085 21.27918918919022,247.47480212577648 19.987567567572114,246.9483429852844 19.484054054060834,246.0801383332655 18.44783783785533,246.05242949218518 17.491891891899286,246.8744536579179 17.024864864863048,248.31528110341605 16.368108108115848,248.66624728150055 16.200270270273904,248.8786733014349 15.419459459473728,248.58312387621118 14.29567567569029,248.72166282873513 12.624594594621158,247.4470938512677 11.80000000000291,247.4470938512677 12.661081081088923,247.42862166200212 14.22270270271838,248.66624728150055 15.550810810833354,248.62006762440433 15.864594594604569,249.66372024369048 15.930270270277106,250.26404416192963 15.798918918932031,250.3564012188508 15.915675675700186,250.5688219752774 18.389459459474892,250.08856540923443 18.54270270269626,249.86690739212645 26.139189189205354,248.69395506073488 25.591891891890555,248.01049322048493 24.65783783783263,247.31778842140193 24.71621621622762,247.17001048707607 25.051891891896958,247.16077435555053 25.088378378393827,246.42187978119182 25.372972972989373,246.18173732097057 27.7300000000032,245.77534046208166 28.313783783807594,245.80304941577197 28.64216216217028,245.59985016080464 29.612702702703245,245.45206850420072 32.18864864864008,245.7291588476437 33.983783783776744,246.6435489939904 35.57459459461825,247.6410515364696 37.522972972961725,249.4512966686234 42.55081081081153,256.46092539519304 42.419459459459176,256.71950134909275 42.23702702704031,256.76567552344204 42.39027027027623,256.9873111252964" stroke="#4dd2ff" stroke-linecap="round" stroke-linejoin="round" stroke-width="0.5"><title>2022-07-16 10.3km</title></polyline></svg>