<?xml version="1.0" encoding="utf-8" ?>
<svg baseProfile="full" height="300mm" version="1.1" viewBox="0,0,200,300" width="200mm" xmlns="http://www.w3.org/2000/svg" xmlns:ev="http://www.w3.org/2001/xml-events" xmlns:xlink="http://www.w3.org/1999/xlink"><defs /><rect fill="#222222" height="300" width="200" x="0" y="0" /><text fill="#FFFFFF" style="font-size:12px; font-family:Arial; font-weight:bold;" x="10" y="20">Over 10km Runs</text><text fill="#FFFFFF" style="font-size:4px; font-family:Arial" x="10" y="280">ATHLETE</text><text fill="#FFFFFF" style="font-size:9px; font-family:Arial" x="10" y="290">Allen</text><text fill="#FFFFFF" style="font-size:4px; font-family:Arial" x="120" y="280">STATISTICS</text><text fill="#FFFFFF" style="font-size:3px; font-family:Arial" x="120" y="285">Number: 18</text><text fill="#FFFFFF" style="font-size:3px; font-family:Arial" x="120" y="290">Weekly: 1.6</text><text fill="#FFFFFF" style="font-size:3px; font-family:Arial" x="141" y="285">Total: 283.4 km</text><text fill="#FFFFFF" style="font-size:3px; font-family:Arial" x="141" y="290">Avg: 15.7 km</text><text fill="#FFFFFF" style="font-size:3px; font-family:Arial" x="167" y="285">Min: 10.1 km</text><text fill="#FFFFFF" style="font-size:3px; font-family:Arial" x="167" y="290">Max: 24.1 km</text><polyline fill="none" points="52.63997056824155,58.31407579437655 45.27716776094894,48.11397081530595 42.76482906948513,45.816168724129966 41.21524790581316,44.806508929032134 38.69374009508465,43.599543680102215 35.897158705003676,43.123716169880936 33.41232737150858,43.79683723875496 31.505150554650754,43.9012865859404 30.53322390760877,44.29587185975106 26.99394385330379,44.70206068512198 25.710267149632273,45.5376430721808 25.040921439882368,45.74653739600035 23.427156441030093,45.270721806329675 22.71196513468749,43.994130343235156 21.345766357255343,43.878075630891544 20.327994113635214,44.85293032991467 19.594464568712283,46.895447075796255 18.40247905817523,47.61495842618751 17.76064070636494,47.12754817138921 16.238566900618025,47.313228595332475 14.00130178854306,45.54924832576944 12.25,45.816168724129966 13.937117953362758,45.59566932434245 16.21105954270024,47.2319934593761 17.769809825666016,47.12754817138921 18.40247905817523,47.62656339848036 18.91594973964675,47.16236328154628 19.667817523193662,46.80260646157694 19.741170477689593,46.199140017568425 20.26381027847674,44.86453567620629 21.373273715209507,43.878075630891544 22.74864161192818,43.889681109219964 23.289619651339308,45.027010359255655 24.930892008145747,45.63048505674669 25.65525243378943,45.52603781704238 27.25984831333335,44.586006931473094 33.109746434216504,43.61114919613465 33.91662893367902,43.6227547105882 35.622085125643935,43.21656076959334 38.712078333701356,43.599543680102215 41.81124066108168,45.177879432019836 43.149932080596045,46.11790382559411 45.332182476791786,48.14878552477603 52.557448494422715,58.14002274881932 52.75,58.61576690277434 52.49326465926424,59.27716292510013 51.209587955629104,60.83200365091761 49.95341860991903,61.87628383012634" stroke="#4dd2ff" stroke-linecap="round" stroke-linejoin="round" stroke-width="0.5"><title>2022-09-29 10.1km</title></polyline><polyline fill="none" points="97.75,56.42933490482028 97.10856159938703,55.65749749738461 94.28518109827564,51.611806613327644 93.59642347137924,50.89312931977838 92.7709658574604,50.194405208258104 91.79829287292159,49.542253740888555 90.4680968454013,48.87678413846879 89.61109308062441,48.690451034864964 89.50068155265399,48.75699865297793 88.70151239777624,48.57066509517972 87.26616253408429,48.936676771725615 86.18833571335927,48.98325988044235 85.64153576530953,49.17624657475244 83.95907438661379,49.38254185815458 83.56474750097186,49.46905252573197 82.84970141503436,49.93487657942751 82.52372452292184,49.99476792311907 81.54579384656245,49.69531047472992 81.15672465273383,48.99656933197548 80.4101324159601,48.95664096657856 79.79498247435549,49.542253740888555 79.41642866416441,50.62694987726718 78.76447487992118,51.09276295554446 78.31231338440557,50.806621159092174 77.61829806569585,50.93971057398085 76.33542126444445,50.034695445028774 76.00418668052225,49.94818577322076 64.30582240684816,51.8912893892666 63.71170323250408,52.02437586680753 63.1280994417757,52.39036182176642 60.72007659353767,52.07095604879942 59.76843437623029,51.8380546973458 59.61596131376791,51.98444996138278 59.468745943140675,51.977795640665136 59.14802674283419,51.84470903698093 58.59596910294931,51.3256678389771 58.438238348688174,50.51382317764728 57.73370764637366,49.92822198119029 57.5759768921198,49.608800205478474 57.25,49.33595912792589 57.56546150849681,49.582181630456034 57.765253797238984,49.914912781958265 58.401434506049554,50.34080536860711 58.54339218487803,50.673531383781665 58.5854537193336,51.20588832249632 59.1795728936886,51.80478298559683 59.500292093995085,51.95117834875418 59.79472283526047,51.83140035679389 63.11232636634668,52.37705328935044 63.79582630144432,51.96448699651228 75.90954822796994,49.94153117676615 76.30913280541427,49.92156738202175 77.37644424250539,50.84654802141449 77.64458652473695,50.91974718473284 78.32282876802128,50.79996667890009 78.73292872906677,51.06614518428978 79.42694404777649,50.60698636097004 79.74766324808661,49.542253740888555 80.45745164223263,48.936676771725615 81.20404387901726,48.95664096657856 81.29342463974535,49.289376353532134 81.55630923017816,49.60214556306528 82.0557899519772,49.848366731890565 82.48692068026503,49.93487657942751 82.80763988057515,49.881639768191235 83.50165519928487,49.449088539033255 84.09051668182292,49.262757605501974 88.44914319095915,48.59728421811451 89.43758925094517,48.697105800740246 89.5637738543519,48.637212875499245 90.31036609113653,48.7703081657819 91.7772621056829,49.50898047478768 92.8288004673559,50.18775064516376 94.04332727509609,51.29239578035413 94.59538491497733,51.937869697401766 96.61433856939766,54.80580077486957 97.1190769829991,55.65749749738461 97.59752693757036,56.229722944117384" stroke="#4dd2ff" stroke-linecap="round" stroke-linejoin="round" stroke-width="0.5"><title>2022-09-24 16.0km</title></polyline><polyline fill="none" points="142.75,56.6530631208625 141.74613539445636,55.36898164997183 138.83168976546222,51.209152896724845 137.30430437100586,49.87028447374905 134.9781449893453,48.572367898636 133.12153518123523,48.3469368791375 131.84241737740012,48.68166742424364 130.6928304904177,48.736317098231666 130.20169243070995,48.92075931083673 128.1615804904177,49.17351235875685 127.35740938166418,49.658521417575685 126.82309434969284,49.77464965522449 125.88939232410848,49.44675747246947 125.56016791044385,48.74997950745092 124.77218816633103,48.70899226862821 124.14072494669381,49.33745960459055 123.74673507464104,50.45775152423448 123.32036247336146,50.65584933606806 123.0720948827402,50.894931866121624 122.93716684436004,50.88127003777845 122.6403251599113,50.61486364571101 121.7605943496892,50.71732780915772 120.5894189765495,49.8497913136016 120.16844349681196,49.7473253880562 115.1707089552292,50.52606120238124 113.2655250533171,50.92225551167576 108.15984808102075,51.73512719844075 107.55537046907921,51.89223534183475 107.31250000001455,52.138142757950845 106.97787846482242,52.24060382755488 105.46128731344288,52.06300450796698 103.6370602345487,51.68731157942602 103.38339552239631,51.823927513520175 103.11893656717439,51.769281184289866 102.36873667378313,51.106689732212544 102.25,50.31430089903006 102.41191364606857,51.09985884719572 102.99480277186376,51.64632672706648 103.32402718550657,51.79660435631013 103.6046775053328,51.639495915107545 107.04804104479263,52.21328089601593 107.74966684436004,51.78294277213354 113.17377398722238,50.91542460168421 115.09514925374242,50.47824443738864 120.44909381663092,49.68584573284534 121.70122601279945,50.65584933606806 122.72667910448945,50.61486364571101 122.86160714286962,51.20232202556872 122.67810501067652,51.23647637211252 122.59175106609837,50.99739546071578 122.46222014926752,50.96324095229647 122.0142590618525,51.05887351756246 121.89552238806937,51.188660280473414 121.85234541578757,51.13401326312305 121.78757995736669,50.901762778899865 121.87393390193392,50.847115450738784 122.64572228146062,50.70366593272411 122.91557835821004,51.90589689639819 123.49307036248865,51.87174300304105" stroke="#4dd2ff" stroke-linecap="round" stroke-linejoin="round" stroke-width="0.5"><title>2022-09-22 12.2km</title></polyline><polyline fill="none" points="187.75,56.654886257434555 183.63329646017883,51.03539966674725 182.24446902654745,49.769031525320315 181.33849557522626,49.19568934032941 179.93971238937957,48.59083717918111 178.4065265486788,48.3892180447001 177.23174778760585,48.6790452757632 176.16648230089777,48.748351520047436 175.52931415929925,48.96887070138473 173.7671460176971,49.19568934032941 173.03042035398175,49.62412153036712 172.5923672566314,49.731228961445595 171.7262168141533,49.447708753425104 171.42754424778104,48.79245543992511 170.72068584069712,48.73575039240313 170.12334070795987,49.271295307586115 169.83960176991604,49.91394106894222 169.76991150441245,50.310864899027365 169.32688053097445,50.55027763559701 169.17256637168612,50.745587113531656 168.99336283185767,50.72668623213758 168.7245575221241,50.48727440330185 168.0525442477956,50.60698047170081 167.85840707963507,50.56917858863744 166.77323008849635,49.75013024723012 166.54922566371533,49.680825495182944 161.30752212388325,50.49987505658646 160.15763274336132,50.75818769685793 155.2594026548577,51.5520175672973 154.88108407078835,51.64022005026345 154.5127212389416,51.93632716303182 154.27378318583214,51.98672818604609 152.28263274336132,51.72842236600627 151.1526548672482,51.470115112013445 150.98838495575183,51.60241900660549 150.59015486725184,51.50161607341215 149.96792035397448,50.865292517373746 149.8932522123905,50.15965622016665 149.27101769911314,49.731228961445595 149.03705752212045,49.3406006696714 148.78318584070075,49.120083250207244 148.5094026548686,48.92476694873767 148.20575221239415,48.975171234043955 147.56858407079562,48.685345847679855 147.36449115043433,48.6790452757632 147.25,48.46482532252412 147.25,48.8050565522135 147.30973451327372,48.65384297950732 147.51382743362046,48.66014355484731 148.19081858406207,48.96257016784148 148.45464601768617,48.89326424266255 148.7383849557482,49.038176513924554 149.13163716812414,49.403605454677745 149.26603982299275,49.68712593145028 149.91316371680296,50.096652458945755 150.05752212388688,50.947196037279355 150.61504424778468,51.470115112013445 150.90873893803655,51.570918113433436 151.19247787609856,51.41341332772572 151.9242256637226,51.63391987844079 154.31858407079562,51.967827808814036 154.90099557521899,51.621319532259804 155.39380530972267,51.49531588283571 166.31526548672628,49.66822462008713 166.85785398229928,49.75013024723012 167.8783185840657,50.543977316199744 168.77433628317885,50.474673746597546 168.82909292035038,50.60698047170081 169.1178097345146,50.72668623213758 169.76493362831388,50.317165249995014 169.78484513274452,49.99584626353317 170.06858407078835,49.30279775769668 170.6957964601752,48.7294498272895 171.44745575221168,48.73575039240313 171.74115044247446,49.34690115200283 171.88550884956203,49.34690115200283 172.29369469027006,49.60522019338896 172.70685840708757,49.68712593145028 173.0204646017737,49.61782108555417 173.90154867257297,49.07597964090019 178.46626106195254,48.345113742565445 180.13384955751826,48.546733068174944 181.9657079645949,49.5233143111509 183.67311946903283,50.97869735272616 184.78816371681387,52.49703546948149" stroke="#4dd2ff" stroke-linecap="round" stroke-linejoin="round" stroke-width="0.5"><title>2022-09-17 16.2km</title></polyline><polyline fill="none" points="52.75,105.37664167294861 48.66617538687569,99.7298166004366 47.32313927782161,98.52104252693243 45.12951363300817,97.34371673424175 44.47291820191822,97.19890989862324 44.3734340456831,97.26186944778965 43.52284450994193,97.12335832705503 42.30416359616356,97.4255638766117 41.334193072954804,97.47593127723303 40.75718496683112,97.66480854354813 38.871960206332005,97.9040519793125 38.01639646277545,98.41401414136271 37.613485630059586,98.49585939955068 36.80268975682338,98.19995663107693 36.4246499631663,97.5137067918622 35.77800294768531,97.45704350839878 35.13633014001243,98.06774414708343 34.85280029475689,98.7413943096617 34.813006632273755,99.04358934203992 34.3852247604882,99.27653000560895 34.171333824608155,99.49687820784675 34.04200442151705,99.49058255942145 33.76842299188138,99.23875592324111 32.9476787030253,99.33319107165153 31.91304347825644,98.5273383066451 31.520081061160454,98.42030993557637 20.47236551216338,100.26494092023131 19.955047899784404,100.39085162985066 19.397936624922295,100.74339980288278 16.20946941784132,100.22716764085999 16.055268975687795,100.35307845276475 15.672254974211683,100.24605428438736 15.050478997800383,99.64797351439847 14.94602063374623,98.92397070991501 14.29439941047167,98.43290152142072 14.015843773042434,97.9921939874148 13.578113485637004,97.67740033399969 13.269712601344509,97.71517568494528 12.324613117179979,97.3311248534119 12.25,97.15483816347114 12.384303610917414,97.38778829034709 12.991156963893445,97.53259453768987 13.279661016953469,97.70258390471645 13.622881355946447,97.66480854354813 14.115327929259365,98.05515246232972 14.29439941047167,98.39512675363221 14.901252763447701,98.79176028478469 15.0355563743542,99.06877217274814 15.060427413420257,99.61649536601544 15.61753868829328,100.18939433079868 16.005526897573873,100.34048738692945 16.229366249084705,100.18939433079868 17.443072955047683,100.45380685681084 19.402910832726775,100.711922396109 19.940125276349136,100.35307845276475 20.46241709653259,100.23975873740346 31.614591009572905,98.40771834631232 31.848378776714526,98.47067625853379 32.942704495198996,99.32059972959905 33.75847457627242,99.23246023984757 34.15641120117289,99.49687820784675 34.38025055268372,99.28282568303257 34.79808400884576,99.09395498979939 34.82792925571994,98.77287305051141 35.13135593220795,98.03626492881449 35.74815770080386,97.47593127723303 36.51418570376336,97.50741087489587 36.822586588055856,98.14329418397392 37.70799557847204,98.45178889381714 38.04624170964962,98.38253515755059 38.842114959468745,97.89775611520236 41.97586588062768,97.33742079425065 42.557848194537655,97.31853296915142 43.46812822401262,97.12965429603719 45.10464259395303,97.29334919040048 46.91525423727944,98.21884409809354 48.22844509948118,99.25764296825946 49.77044952098731,101.10224073388235 50.58621960204982,102.36130981482347" stroke="#4dd2ff" stroke-linecap="round" stroke-linejoin="round" stroke-width="0.5"><title>2022-09-11 16.4km</title></polyline><polyline fill="none" points="97.75,105.482673706083 96.34184456090225,103.66130757128849 94.76284673399277,101.29604996548369 93.60318931356232,99.74972488387357 92.17432570624806,98.43924121741657 91.45989390259638,98.0002212529107 89.95337466444835,97.2466702368256 89.19752652434909,97.12216937413541 88.21906557587135,97.01732629392063 86.99728365077681,97.32530219560067 85.92563594528838,97.39082873029838 85.18531893134787,97.59396042389199 83.57008181003766,97.79053867030234 83.11450210916155,97.94780069242915 82.47254889428223,98.36716358607009 82.15157228684257,98.41303118208089 81.2714751374042,98.14437750135767 80.89355106736184,97.42359196434336 80.1584110954791,97.37772343044344 79.78048702543674,97.6594865947809 79.49574971238326,98.01987894843114 79.17477310493268,99.00930597361003 78.48104946950843,99.48107862423058 78.09277131534691,99.2058784703404 77.19714303974979,99.2976120288622 76.24974434358955,98.53097622928544 75.84593506327656,98.34095351171345 69.6438386808004,99.33037397189764 68.74303336315643,99.57936401417464 64.24418381693977,100.25425163363616 63.705771443172125,100.36563994744574 63.16218202735399,100.7522209299168 61.06547999488248,100.50978914944426 59.81263581744861,100.21493804990678 59.59520005112063,100.36563994744574 59.196567812847206,100.22804258134784 58.61156206058149,99.6448874965863 58.59085389235406,99.10759232179043 58.48213600919553,98.86515230186342 57.8764220887133,98.4261362015277 57.519206186876545,97.91503781330539 57.35354084110077,97.7839860749591 57.25,97.81674904282045 57.32247858876508,97.73156528023537 57.70040265881835,98.05919431553411 57.84535983636306,98.35405855067074 58.43554263070109,98.71444573129702 58.606385018523724,99.08793506812799 58.642624312920816,99.61867811426055 59.22245302313604,100.21493804990678 59.52789850440604,100.35253545325395 59.87476032212362,100.21493804990678 63.100057522689895,100.73911654040057 63.835197494561726,100.30011744095827 75.7993416847712,98.32129594659636 76.04783970343851,98.38682113254617 77.17643487153327,99.24519287384828 77.41457880607777,99.2976120288622 78.08759427329642,99.17311644300935 78.31020708167489,99.44831678319679 78.4965805956781,99.48763098976269 79.12300268438776,99.06172538415558 79.49057267031458,97.92814296760844 80.11181771698466,97.37117077919902 80.88837402531135,97.35151282012157 81.16793429630707,98.01987894843114 81.28700626358477,97.99366868595098 81.6856385018582,98.22300800132871 82.17228045507,98.34750603162684 82.53467339894632,98.27542826364515 83.38370829604537,97.73156528023537 84.07225488943004,97.66603920697526" stroke="#4dd2ff" stroke-linecap="round" stroke-linejoin="round" stroke-width="0.5"><title>2022-09-10 13.4km</title></polyline><polyline fill="none" points="142.75,105.45955623956615 138.80853314528213,99.93241909188146 137.3441146300829,98.58504293274018 136.9079048595886,98.30241782218582 134.99169765354964,97.29678489730577 134.55029490960442,97.19819231256406 134.20236568791006,97.22448368808182 133.25205154507057,97.04044376043385 131.5799140915551,97.40852291788542 130.6503718425447,97.48082385297676 130.427073983843,97.6319981873603 128.44855109629498,97.8620451840834 127.5190088472882,98.39443548071358 127.12953583793569,98.46016227286964 126.27788819078705,98.15124557588206 125.92995896908178,97.46767823640766 125.18217079111855,97.40852291788542 124.53304910886072,98.03950926514517 124.22147070136998,98.75593173612288 124.17473394025001,99.09113494906705 123.7956468777993,99.26202197066232 123.51522631106491,99.52492390606858 123.09459546094877,99.26202197066232 122.20140402614561,99.32117503027621 121.14723041415346,98.50617097440772 120.82526605974999,98.38786279661508 114.70794332607329,99.36061036331012 110.77166944478813,100.10330315172541 109.28128606231621,100.29390389338369 108.7256379022947,100.4384970602332 108.26346326451312,100.76711629215788 108.05055135273142,100.81969516283061 104.86725862289313,100.30047631940761 104.50894345428242,100.41877983556333 104.20255802024622,100.29390389338369 103.61055904601744,99.73524442913913 103.4651557891957,98.93339254897728 102.81603410692696,98.46016227286964 102.577157327858,98.07237291264755 102.25,97.81603587196514 102.61350814206162,98.03293653297806 102.79526221309789,98.36157205127529 103.41841902807937,98.74278646491439 103.55862931144657,98.99911861132205 103.63133093985743,99.65637433980373 104.26487370174073,100.2807590386692 104.5868380561551,100.3727729468701 104.82571483522406,100.2281795842573 105.60466085395092,100.41877983556333 108.04535837928051,100.76054392933293 108.24788434414586,100.7211097336185 108.76718168996376,100.3727729468701 120.7369855109755,98.35499936272026 121.13684446724073,98.42072620825274 122.23775484034923,99.29488479045904 123.18287600974509,99.22258655755286 123.30750737273775,99.44605347496326 123.49445441722492,99.51835137503804 123.72813822284297,99.2883122282874 124.17473394025001,99.0582719913109 124.50708424155891,97.96720916229606 125.03676753430045,97.46767823640766 125.22371457878762,97.40195010027674 125.94553788947087,97.44138699265022 126.26750224388525,98.05265472682004 127.19185151941929,98.40758084626577 127.62806128990269,98.28927242815917 128.49528785741495,97.78974481688783 133.19492883702696,97.05358949268339 134.24910244903003,97.1193181005874 135.0436273881205,97.27049356095813 136.33667777919982,97.91462720167328 137.16755353250846,98.43387156668541 138.14902551609703,99.25544940404507 138.96951532248204,100.11644805449396 142.4747724067238,105.01924852492812" stroke="#4dd2ff" stroke-linecap="round" stroke-linejoin="round" stroke-width="0.5"><title>2022-09-03 16.2km</title></polyline><polyline fill="none" points="185.537815126052,106.74171336418658 185.8523682200139,106.33713954067935 186.14113827349502,106.1935802711123 187.11058059587594,105.2734857122341 187.4870129870178,104.84932273277809 187.44576012222387,104.76448968907789 187.75,104.50346400290073 183.69174942703103,98.7931734705744 182.09835752482104,97.2985971692251 181.04640947288863,96.6589826699892 179.75725744843658,96.01935968246107 178.00916730328754,95.81050135827536 176.77158135981153,96.09115452233891 173.3166539343074,96.5937154070889 172.49675324675627,97.08321772451018 172.12547746371638,97.1941708919876 171.19213139800559,96.90699746296013 170.8053857906707,96.241270660179 170.09377387319182,96.1564224658141 169.4285714285761,96.78299022601641 169.07792207792227,97.84030485139374 168.69633307867844,97.99694208258006 168.44881589000215,98.24494999089438 168.30958747136174,98.23842348332983 168.01050420167667,97.98388899942074 167.1235676088545,98.07526050727756 166.09740259739192,97.28554389693818 165.67456073339417,97.14195766851844 153.6596638655501,99.15212594244804 153.3193277310893,99.47844405180876 153.11822001529072,99.54370740857848 150.4574102368315,99.17823147251329 149.80767761651077,99.00201887032745 149.6529793735681,99.13907317213307 149.25592055003654,99.01507167774616 148.6422841863896,98.44727128675004 148.60103132161748,97.84030485139374 148.42570664629602,97.52702886191764 147.91520244461572,97.20069754093856 147.5800229182678,96.73730326882287 147.25,96.49581434705033 147.67799847211063,96.81562374034911 147.91004583651375,97.20069754093856 148.4927425515707,97.59229486096592 148.59071810542446,97.76851261698175 148.6577540106955,98.42769184361168 149.2456073338435,99.01507167774616 149.6529793735681,99.13907317213307 149.86955691367257,99.00201887032745 153.08212375859512,99.53718107688837 153.62356760886541,99.19128423221628 153.94327731091835,99.09338844816739 165.7261268143593,97.12890435383451 166.06130634070723,97.21375083619932 167.11325439266875,98.04915437985983 168.0620702826527,97.98388899942074 168.28380443087372,98.24494999089438 168.47459893047926,98.24494999089438 168.6396103896077,98.04262784578532 169.10886172651226,97.78809232789354 169.150114591288,97.42912969761164 169.44919786095124,96.70466970143752 169.9545454545405,96.22821710153221 170.22784568373754,96.1564224658141 170.81054239878358,96.18905640441153 171.18181818181256,96.86131062330969 171.84702062642828,97.12890435383451 172.1822001527944,97.16153763393959 173.41462948815024,96.54150153314549 177.35943468294863,95.8757696818102 178.13808250573493,95.75828663580978 179.01470588235316,95.92798427700109 179.85007639418836,95.96714518626322 180.28323147441915,96.2739045413291 181.546600458365,96.86131062330969 182.51604278075683,97.59229486096592 183.3204736439984,98.3363210038624 184.2796027501863,99.51107574123307 187.1621466768629,103.63554343420401" stroke="#4dd2ff" stroke-linecap="round" stroke-linejoin="round" stroke-width="0.5"><title>2022-09-01 16.9km</title></polyline><polyline fill="none" points="52.75,154.23041997011387 48.52314636956726,148.39528961910764 47.28880138300519,147.2859446683724 46.48492124470795,146.84613816348065 46.158182865921844,146.5507434947831 44.93939684977886,145.9993352969359 44.197752593165205,145.88117558131853 43.21753745678143,145.7695800298825 41.941701882431516,146.09123709882988 41.61496350365269,146.05185063363024 40.77996542449546,146.17657433030035 40.30800998846098,146.36037708779622 38.52391471379087,146.52448610377905 37.55925854782981,147.095581148591 37.170284287349205,147.1874808721659 36.30935459084503,146.8986525828077 35.92556665387019,146.1962675161958 35.132059162508085,146.1437523359673 34.530445639640675,146.7345448335327 34.22445255474304,147.45661477471367 34.17258932000186,147.80451736140458 33.74212447176615,148.01457054452476 33.50355359200694,148.25744340292295 33.11457933154452,147.9686214884896 32.56482904340737,148.08677611601524 32.041010372635355,147.94236486548107 31.10747214751609,147.2137379040505 30.785920092195738,147.10870969117605 19.199673453702417,149.0516947950855 18.71215904724886,149.15671879844376 18.343930080663995,149.4717894434507 18.07942758355057,149.55055678473946 16.284959661927132,149.3208183482384 14.786112178248004,148.97949066077126 14.547541298510623,149.13702681514405 14.158567038030014,148.99261869320617 13.904437187848089,148.6709808755404 13.634748367265274,148.50687912605645 13.531021897797473,148.27057163087738 13.551767191696854,147.85046657298517 13.411736457928782,147.5485138138538 12.810122935061372,147.14809529767444 12.607856319631537,146.80018799990648 12.25,146.51792175380615 12.638974260451505,146.80018799990648 12.794563964660483,147.1218382302577 13.442854398770578,147.55507802427746 13.619189396846195,148.39528961910764 14.19487130233756,148.99918270807393 14.516423357657914,149.13046281894276 14.791298501724668,148.9401065421771 15.621110257397959,149.16328279110166 18.07942758355057,149.5177370747515 18.86774875143601,149.07795081724544 30.801479062603903,147.1152739611607 31.12303111793517,147.1612238260568 32.24846331156368,148.06051955699877 33.08346139070272,147.9620573340835 33.30647330003194,148.19180220982525 33.508739915494516,148.22462281749904 33.72656550134343,148.00800639633962 34.141471379181894,147.82420988598096 34.47339608143375,146.80018799990648 35.16317710332805,146.13062353202258 35.884076066064154,146.12405912870963 36.24193238571388,146.78705937376435 36.35603150210591,146.76080211075896 36.7968689973095,147.04306694259867 37.28956972723972,147.1218382302577 38.38907030349219,146.5376148010473 38.84028044563456,146.44571384545634 43.15530157509784,145.7695800298825 44.202938916630956,145.84178894543948 44.87716096811346,145.9533843306417 46.516039185549744,146.74767347392844 47.387341529007244,147.3318943714985 48.25864387245383,148.0933402535593 49.75230503264538,149.89844434466795 52.32990779868851,153.64628219761653" stroke="#4dd2ff" stroke-linecap="round" stroke-linejoin="round" stroke-width="0.5"><title>2022-08-28 16.3km</title></polyline><polyline fill="none" points="97.75,154.09022114943218 93.78891218551871,148.61567882837699 92.62506166750245,147.55356856251456 91.98069807598586,147.10469327007013 90.15749876666086,146.15635099699284 89.47317464233493,146.01725917707154 88.79384558462698,145.90977885057146 87.64997533301721,146.15002865052884 87.37524666996978,146.30176472930543 86.30130735076818,146.3649879498771 85.79181055748631,146.5167233300199 83.87370498275777,146.76329227091264 83.05451406018983,147.2564262461383 82.73982486434033,147.33861473559227 81.86069314258202,147.05411550178542 81.4610878145213,146.3649879498771 80.79174888999114,146.34602099271433 80.17735569807337,146.9087041127932 79.82770103602161,147.90760800238786 79.24827331032793,148.34383147762492 79.06345584608789,148.34383147762492 78.758756783438,148.09727088372892 77.93956586088098,148.16681374717155 76.93056240749502,147.37654783578546 76.63085841145949,147.26907063853287 65.4269240256508,149.12775907385003 64.9424025653716,149.2352319925849 64.62771336951118,149.4881084726003 64.31302417366169,149.59558056187234 62.015293537257094,149.2858073981588 61.16613221510124,149.070861546159 61.021275283677824,149.19730040245122 60.83146275284162,149.2036223362884 60.53675382338042,149.03925177856945 60.04224222989433,148.56510269691353 59.89239023187474,147.78748777906003 59.258016773561394,147.3070037952275 58.84342624568308,146.73800320867667 58.4887765170206,146.50407873382937 58.22903305377622,146.56097938966195 57.55969412926788,146.2764754170712 57.3748766650242,146.2448637575435 57.25,146.35234331262836 57.29495559940551,146.2448637575435 57.4897631968488,146.2511860911618 58.22903305377622,146.54833480544767 58.53872718303319,146.49143413422644 58.863406512093206,146.72535867245097 59.223051307344576,147.19320423269528 59.917365564870124,147.71162221560735 60.052232363093935,148.52084853695123 60.61167982239567,149.0835054471754 60.92636901825608,149.19730040245122 61.211087814506755,149.03292982248968 64.36297483967064,149.5702930337211 64.87247163296342,149.21626620136522 65.12222496300092,149.14672490102384 76.58090774543962,147.23113745103183 76.91058214110672,147.31964817394692 77.94456092748442,148.1478475219701 78.13437345832062,148.18577996467502 78.71380118403249,148.04669419069614 79.19332757770462,148.331187376265 79.39812530834752,148.11623712947767 79.82770103602161,147.9202522184496 80.1324000986715,146.9087041127932 80.52701036013968,146.47246722843192 80.8067340898051,146.30176472930543 81.5060434139159,146.33337635029238 81.82572767636884,146.94031532284134 82.71984459794112,147.2817150275223 83.3042673902346,147.07308217130412 83.83873951653368,146.72535867245097 84.22335964481317,146.630524541466 87.66995559940915,146.1816403742887 87.95966946226326,146.0362262678209 88.53410212136077,145.93506836142114 89.39824864333059,146.08048278294882 89.51313517514427,146.02358154150716 90.26239516528221,146.16899568735244 90.93672915639763,146.55465709798227 91.43623581649081,146.71903640305027 92.48020473607903,147.38919219566742 93.83886285151675,148.62832285264813 95.3773433645838,150.70821824319864 97.24050320671813,153.4770537543809 97.38536013815246,153.55923129513394" stroke="#4dd2ff" stroke-linecap="round" stroke-linejoin="round" stroke-width="0.5"><title>2022-08-26 16.9km</title></polyline><polyline fill="none" points="142.16675088428383,152.69375588607 140.26351692773824,150.00660640426213 138.92306720567285,148.51080236350026 138.30400454775372,147.96038650368791 137.34727134916466,147.35168394044376 135.95054320363488,146.6782167566962 134.27753916117945,146.4709941765541 133.41801414855945,146.63936259132606 133.0752273875696,146.82068175965833 132.00082112177188,146.85953577770124 131.49943153108688,147.06028103469362 129.53480293077155,147.2804522830338 128.6855103587659,147.78554719887688 128.28644517432622,147.86972916618106 127.43203638201157,147.5718538471083 127.04831985851342,146.8789627748738 126.32181657403271,146.8530601102102 125.69252147549196,147.4747201897262 125.32415361293533,148.50432691963215 124.93532086912819,148.69858985449537 124.69997473472176,148.92522894780268 124.3162582112127,148.65973733066494 123.47208185953423,148.77629480749238 122.41814047499793,147.92153338009302 122.06000505306292,147.79202274009367 110.16990904497652,149.79292297712163 109.7247978777159,150.11021014644575 109.37689489642071,150.18143758902806 106.2406518443604,149.66341740509597 106.02577059120449,149.81882404944554 105.6471702880117,149.66341740509597 105.07926983324796,149.13244089315776 104.94624810510868,148.34244053775546 104.30160434561549,147.83735150398934 103.91788782213553,147.31930592749995 103.46766043455136,147.01495153418 103.20161697826188,147.08618358711828 102.55185699849244,146.80125473878797 102.25,146.80125473878797 102.79743557351321,146.82715743151857 103.18626831732763,147.04085411117921 103.44719555331176,146.98257329324042 103.69789034865244,147.09913485805373 104.11742041434263,147.46824460555945 104.31183678624802,147.82440043297538 104.86438858008114,148.16760262979005 105.03834007075056,148.5496550083517 105.10996715513102,149.15186696702222 105.68298383021101,149.65694211729715 105.98995704900153,149.77997243569916 106.30204648813015,149.61809037203057 107.1513390601358,149.83177458035425 109.47410308235703,150.1684871528123 110.30293077310489,149.74112079038605 122.02930773117987,147.79202274009367 122.35162961091191,147.8632536355035 123.431152097015,148.70506527207908 124.34695553309575,148.65326190694395 124.50555836281274,148.86047503073496 124.68462607376932,148.92522894780268 124.97625063162923,148.65973733066494 125.34461849419677,148.49137602924748 125.69252147549196,147.40348871556853 126.27065437089914,146.83363310250934 127.07390096008021,146.8530601102102 127.36552551793648,147.50709809743785 127.50877968672285,147.4876713554404 127.92830975239485,147.7337428376668 128.3734209196591,147.82440043297538 128.68039413846054,147.74669393322984 129.6166624557809,147.21569613874453 134.31335270339332,146.45804273548129 135.09613441132387,146.5875569883865 135.290550783222,146.52927561798424 136.0375189489605,146.68469244787048 137.61843102577404,147.50709809743785 138.39098029307934,148.0380926561993 139.62910560889213,149.13244089315776 141.1844365841389,151.23041127626857 142.75,153.54195726452235" stroke="#4dd2ff" stroke-linecap="round" stroke-linejoin="round" stroke-width="0.5"><title>2022-08-21 16.1km</title></polyline><polyline fill="none" points="187.75,154.09931268227592 187.19922021210368,153.45345077544698 183.7934809731778,148.62519340459403 182.44432314411097,147.39087091763213 181.59541484717192,146.85364276509426 180.15024953213288,146.13732905562574 178.43222083592627,145.951853199389 177.7349033063074,146.0861633749446 177.31550218341,146.2652430148446 176.30995009357503,146.31001281872523 175.65305676855496,146.5210698939518 174.01082345601753,146.71933477212588 172.71724890830228,147.33331105072648 171.81275733000803,147.09027972818512 171.59042420461265,146.86643398259548 171.3529320025118,146.35478258015792 170.66066749844322,146.3164085015378 170.0492514036232,146.8920164072224 169.75112289456956,147.6275051890334 169.74101684341804,147.8961156279547 169.07907049283676,148.36937792250683 168.63945726763268,148.08797929188222 167.82592014972033,148.19030626063613 166.72436057392406,147.3524976808185 166.34538365564367,147.26935556076933 156.77495321273818,148.89379816959263 155.5925452277079,149.00891402986235 154.54656893325227,149.26472604818264 154.30907673113325,149.51414143208967 154.03116032440448,149.6100700752104 151.79772301933917,149.31588828557142 150.80733000624969,149.05368123307198 150.61026200873675,149.2263543337467 150.28686837180794,149.12402960954932 149.6350280723782,148.5100766091091 149.62997504678788,147.9984430123768 149.53396756081565,147.76181059944065 148.88718028697986,147.29493776714298 148.68505926388752,146.949576811945 148.04332501559838,146.47630029014908 148.1140673736736,146.32919986454726 147.9776356830953,146.2140774727377 147.98268870867832,146.09895480031264 148.16965065502518,146.2076817760717 148.24039301311132,146.11174622221006 148.17975670618034,146.2140774727377 147.9776356830953,146.0861633749446 148.11912039925664,146.3739696077937 147.85636306925153,146.54025685401575 147.25,146.2908257651361 147.80583281347936,146.5274655481844 148.1645976294567,146.48909160985568 148.690112289456,146.89841201120362 148.91244541485503,147.26296000702496 149.49354335620956,147.6211096837833 149.62997504678788,147.87692921869893 149.72092950717706,148.54205352488134 150.372769806625,149.13042491130182 150.61531503430524,149.20716846485084 150.87301933874187,149.0344952940286 151.60065502183716,149.23914490867537 153.99073611977656,149.59088436215825 154.18780411729676,149.53972242262535 154.64762944479662,149.1879825881515 166.42117903930193,147.1862132943752 166.67888334373492,147.26296000702496 167.77033686837967,148.1199564934468 168.01288209608174,148.16472453923416 168.67482844665938,148.0687929605665 169.01843418589488,148.33740088982086 169.66016843418038,147.9536748089704 170.0239862757262,146.85364276509426 170.57981908920556,146.32919986454726 170.82236431691854,146.2652430148446 171.36809107922454,146.28443007886017 171.75717404865645,146.949576811945 172.67682470367072,147.25656445240747 172.9850592638868,147.1798177293458 173.8794447910077,146.6361915374655 178.60907673113616,145.90068731772772 180.27657517154876,146.105350511687 181.06484716157865,146.58502639720973 181.77227074235998,146.89841201120362 182.47464129756918,147.39726645406336" stroke="#4dd2ff" stroke-linecap="round" stroke-linejoin="round" stroke-width="0.5"><title>2022-08-19 15.6km</title></polyline><polyline fill="none" points="52.75,202.79897204124063 52.64477916614851,202.63411008578623 52.58966349127877,202.52631541658047 49.66352220709814,198.4109098800909 48.77165037733357,197.30748852631586 47.468916243968124,196.1215986627285 45.329425955715124,194.96738824813656 43.65090313003384,194.72639567065926 42.75903130025836,194.8976273664157 42.45338983050897,195.04349090970936 41.34105530124725,195.12593532015308 40.900129902256595,195.30350740357244 38.99112334528763,195.52547156102082 38.24956699245013,195.95671320226393 37.80864159345947,196.10891518638527 36.99192750216025,195.88061202469544 36.76144377087621,195.60791512297146 36.55100210318051,195.13227719188217 35.89462452060252,195.09422594870193 35.734288011870376,195.16398653757642 35.18814177904642,195.7347510887339 34.887510825192294,196.70503486157395 34.491680069284484,196.88894259151857 34.26119633798953,197.11724083783702 33.89041816158351,196.86357605102603 33.038630458991975,196.9650421306178 31.881201286661963,196.08354822337787 31.61564394407833,196.04549775310443 25.613045898808195,196.98406699605766 24.18504886799201,197.3201716780677 20.427161944826366,197.87188545507524 19.921099839164526,197.98603232164533 19.35992205864386,198.37286130065695 16.228349622659152,197.85286095025003 15.982834343678405,197.9670078632007 15.662161326235946,197.87188545507524 15.00077322776633,197.22504795618806 14.98073116417072,196.69235154323542 14.855468266730895,196.43234276026124 14.249195843127382,196.0264725063862 14.108901397983573,195.74109287801184 13.79323889645093,195.46839516387263 13.45252381541286,195.25911444584926 13.191976988739043,195.30350740357244 12.490504763085482,195.0054395943771 12.25501051590254,195.06251655577944 12.290084127183945,195.2844818554222 12.665872819492506,195.6459659487664 12.746041073856759,195.58254788858903 12.565662501550833,195.3288747890947 12.405325992818689,195.3669258416412 12.25,195.20837958548145 12.32515773846535,194.99909770548402 13.191976988739043,195.30350740357244 13.502628974380059,195.24643073591142 13.718081157989218,195.38595135629657 14.103890882091946,195.7347510887339 14.249195843127382,196.0074472519118 14.925615489293705,196.47039291622787 15.020815291354666,197.25041430093188 15.657150810337043,197.8655439543254 15.98784485959186,197.96066637534386 16.21331807497336,197.82749493183655 16.884727205248055,197.9987152896574 19.334869479156623,198.35383699933664 19.996257577637152,197.9416419065892 31.60562291228416,196.0264725063862 31.93130644562916,196.08354822337787 32.968483236429165,196.90796748789944 33.85033403438865,196.84455113661534 34.241154274404835,197.11724083783702 34.87748979340904,196.69869320282305 35.208183842631115,195.6459659487664 35.889614004689065,195.08154219410062 36.62114932575423,195.1132515741665 36.91175924781419,195.71572571577053 37.57314734628744,196.00110549872625 37.90885191142297,196.03915600505934 38.18443028578986,195.96305496146306 38.97609179759456,195.4366860242808 41.22080291970633,195.15130280188896 43.71603983669411,194.701027958763 45.35948905108671,194.93567876933957 46.76243350241202,195.6459659487664 47.604200173202116,196.18501599294177 49.00714462451651,197.4913938905811 50.525330941480206,199.6221068398263" stroke="#4dd2ff" stroke-linecap="round" stroke-linejoin="round" stroke-width="0.5"><title>2022-08-14 16.5km</title></polyline><polyline fill="none" points="97.75,202.91083746415097 94.68852006381712,198.5835009291004 93.59513437231362,197.17451367994363 92.41725978648174,196.09258375050558 90.49389495643845,195.01691913117247 89.8030739968126,194.80304132590027 88.68483863050278,194.6835209469682 88.52580071174816,194.58916253584903 87.36780586575696,194.96659503030241 86.30920971898013,195.01691913117247 85.77245674316146,195.21821498952704 83.93855074242674,195.41950997555978 83.16821082341266,195.86613011108784 82.74576635169433,195.99193782482325 81.87105779850026,195.68999873944267 81.66729046508772,195.43209088321237 81.54801202602175,195.05466217106368 80.7627623021217,194.99804759973995 80.17630997668675,195.5956423727912 79.85326420419733,196.57064891955815 79.19723278929814,197.02983846281495 78.7896981224767,196.75306722672758 77.94977911399837,196.81596992518462 77.04028101608128,196.09258375050558 76.56813719474303,195.92903401055446 71.49383359922285,196.74677695220817 69.25239293165578,197.19967454128346 65.50009203583613,197.75321004295256 65.00806847466447,197.88530276747042 64.69993250706102,198.1431970042504 64.3967664744232,198.2312581230617 62.244784636164695,197.954494044694 61.30049699350275,197.73433962307172 61.022180635660334,197.86643240123158 60.719014603022515,197.73433962307172 60.13753221253501,197.19338432721634 60.02322370843103,196.45113308853615 59.38707203337253,195.9479051637718 59.16839489508493,195.57677107646305 58.90498834213213,195.3566053861141 58.57200269972236,195.15531012749125 58.333445821583155,195.21192450714807 57.99549024420776,195.00433811108087 57.42394772364787,194.92885191885944 57.25,194.63948704563154 57.36430850411489,194.77158862442593 57.45376733341982,195.23708643151258 57.394128113886836,195.23708643151258 57.821542520567164,195.19934353984354 58.37817523623016,195.85983971646056 58.82546938275482,195.73403164497722 59.07893606578,195.92274362443277 59.933764879122464,196.27500393496666 60.058013253179524,196.41339118327232 60.11765247270159,197.06757986723096 60.67925512333022,197.70917905132592 61.052000245443196,197.83498177383808 61.31540679837781,197.67772831746333 62.20005522150677,197.89788300733562 64.41167627929826,198.21238789737254 64.60550374279774,198.17464742298034 65.0975273039694,197.8098212565892 69.90345441158934,197.0235482257449 71.409344704869,196.67758387616414 76.70232543870588,195.9101628496719 76.95579212173106,195.98564744723262 77.94480917904002,196.784518586599 78.82945760215807,196.72161584556306 78.93879617130733,196.87887253845474 79.16244324456784,196.9732262986654 79.82344459444357,196.58951981214705 80.17134004173204,195.52015714145455 80.8224015216656,194.95401399656475 81.51322248128417,194.99175708755138 81.86608786354554,195.6208040893107 82.7358264817849,195.9604859283354 83.07378205914938,195.87871089779946 83.93855074242674,195.35031492248163 86.11538225549157,195.03579065494705 87.08948950791455,194.80304132590027 87.53678365445012,194.79675078731452 87.84988955700828,194.66464928009736 88.93333537858052,194.6080342334135 89.33093017548163,194.7212642577506 90.57341391581576,194.8156224005288 91.07040741195306,195.0798241806042 91.76619830653726,195.63967536774726 92.55144803043731,196.1114548372716 93.81381151062305,197.31289824865598 94.76803902320535,198.64011113098604" stroke="#4dd2ff" stroke-linecap="round" stroke-linejoin="round" stroke-width="0.5"><title>2022-08-12 16.3km</title></polyline><polyline fill="none" points="142.75,203.31368177726108 138.99379259981288,198.06707240350443 137.71707643622358,197.01268761122628 137.50018257058764,196.7444083400369 136.60303067186032,196.15169278425674 135.40518500487087,195.59640497719738 134.46859785784181,195.35307450338223 134.01509250243907,195.2844425989315 132.58556475170553,195.59016575033093 131.39264849075698,195.70871091627487 130.98843719572324,195.92708279193903 129.20399221032858,196.03938792496047 128.36106377798933,196.59467039315496 128.0258641674809,196.6695394274211 127.14350048685446,196.39501904028293 126.97097127556844,196.21408425446134 126.7540774099325,195.7211893370586 126.06888997078931,195.6712756336674 125.48722005842865,196.251519096033 125.19145569620378,196.95653626512285 125.171738072062,197.21857529480985 124.72316212268561,197.48685180510074 124.55556231743321,197.68649842692685 124.40275073029989,197.66154264650322 124.12670399220224,197.41822307906114 123.30842259006022,197.51180768014456 122.01691820838823,196.58843130146124 116.56499513144445,197.48061283423885 114.94814995131674,197.8424717483067 110.94054284322556,198.44764323674826 110.47717867576648,198.5412257470307 109.88564995132401,198.91555388751294 107.76107594936548,198.6223304355408 106.75547711780746,198.38525479098462 106.27732473222568,197.83623282557164 105.76466650437942,196.07058374667758 105.22736124635412,195.49657724598 104.3548563777913,195.20333203457994 102.97955209347492,195.06606767730045 102.62463485881744,194.94128154305145 102.42745861732692,194.76034104803693 102.25,194.18631822273892 102.46689386562502,194.80401640499986 102.62956426485107,194.9100849566712 103.40348101265408,195.12222132742681 104.07388023369276,195.1409391955931 104.77385589094047,195.2906818671945 105.39003164556925,195.61512265273268 105.98648977604535,196.43245373485115 106.41534810126541,197.89238309963912 106.80477117818737,198.40397133356964 107.31250000000364,198.4788374279633 109.91029698149941,197.82375497759858 110.19620253164976,197.99220564008647 110.33915530671948,198.29791082497468 110.34408471274946,198.59737516197129 110.94547224926646,198.42268786857676 116.30373661149133,197.4743738625366 121.96762414800833,196.58219220892352 122.23381207400598,196.6445830961784 123.33306962026472,197.49932974431795 124.17599805258214,197.42446205839224 124.45697419669159,198.5661810509955 125.06822054529039,198.45388207667565 125.1569498539393,198.36029938900538 125.10272638753668,198.05459461806095 125.31469084713171,197.9360554877021 125.31469084713171,197.68025948308423 125.51679649464495,197.24353131515454 125.47736124635412,196.8629505362187 125.34919668938892,196.63834401126587 125.38863193769794,196.3887799215736 125.50693768257042,196.15169278425674 126.0541017526848,195.6712756336674 126.79351265822334,195.67751484955807 127.07941820837004,196.28895390717662 127.83854673807218,196.6071485739667 128.35613437195934,196.58219220892352 128.43993427459645,196.7381692686431 128.8293573515075,196.50732303271798 129.18920399222407,196.0581054205286 129.72157984421574,195.93956115357287 132.79752921130057,195.50905572420743 133.62566942551712,195.30939966692313 135.42490262902356,195.50905572420743 137.62834712755648,196.71321297456598 138.91492210321667,197.88614418367433 142.32114167479085,202.71481245378163 142.51831791627046,202.8458157832938" stroke="#4dd2ff" stroke-linecap="round" stroke-linejoin="round" stroke-width="0.5"><title>2022-08-07 17.9km</title></polyline><polyline fill="none" points="187.75,208.65646956582714 183.82068607069596,203.21001835669085 182.66995841995958,202.1916935073168 181.8139293139211,201.63515711315267 180.65384615384755,201.0845343472356 179.55457380457665,200.84770521839164 179.30197505198157,200.81810148710065 177.54781704782,201.2088691263416 176.98648648648668,201.23255190130294 176.43918918919735,201.41609297242394 174.83004158003314,201.55818875634577 174.08627858628824,202.01407627883964 173.6231808731718,202.1502495518871 172.8232848232874,201.9015849942807 172.4490644490652,201.23255190130294 171.78950103950046,201.22663120876678 171.21881496881542,201.74764908321595 170.90540540540314,202.70085889663824 170.29261954261892,203.10345058824532 169.89033264032696,202.83703003071787 169.17463617463363,202.93767798769477 168.15956340955745,202.1916935073168 167.79937629937922,202.10288498327282 163.38825363826254,202.789666206103 161.72297297298428,203.13897320658361 157.41008316008083,203.8198178141174 156.9469854469935,203.9204635088645 156.42775467775573,204.26384119448994 154.68762993763085,204.0507105346369 153.40592515591925,203.76061435606607 153.2422037422075,203.8967821897677 152.95218295217637,203.8198178141174 152.37214137214323,203.29290421926999 152.2972972972966,202.68901790841483 152.18503118503213,202.48180009541466 151.60498960499172,202.07920267972804 151.47401247403104,201.80685526699745 151.2494802494839,201.59371263017965 150.89864864864285,201.36280693436856 150.67411642411753,201.42793430537495 149.86954261954088,201.14374142900851 149.6216216216235,200.88322966950727 149.35498960499172,200.97204067100392 149.3362785862846,201.031247905099 149.43918918920463,200.9601992145581 149.51871101871438,201.02532718530347 149.29885654885948,201.2088691263416 148.8638253638237,200.64639945019007 148.4428274428319,197.4786719261574 148.3679833679853,195.5542393867945 147.80197505197066,188.76179558078366 147.62889812890353,187.5891482939478 147.25,186.78367536109 147.3201663201653,186.7007581868893 147.65228690229196,186.88436028967044 147.80197505197066,186.73037148145158 147.73648648649396,186.58822748453167 147.58212058212666,186.51715531265654 147.28274428275108,186.71260350713055 147.2687110187071,186.83697917569953 147.59615384615972,187.35224603139795 147.7084199584242,187.8556618041439 148.6065488565473,197.7688097903847 148.9667359667328,200.71152788839026 149.2520790020826,201.16742423926917 149.44386694387504,201.31544151270646 149.79002079002748,201.40425163622785 149.79469854470153,201.4812202640387 150.0332640332599,201.38056895427144 150.2110187110302,201.40425163622785 150.66943866944348,202.00223510463184 151.0810810810799,201.88974378959392 151.45062370062442,202.1384084145393 151.4178794178806,201.8660613705979 151.15592515593016,201.5759506968643 151.2494802494839,201.57003005083243 151.5020790020826,201.80685526699745 151.62837837838015,202.06144094365663 152.21777546777594,202.458117997121 152.30665280665926,202.62389241588244 152.3627858627915,203.2159387806787 152.87733887733702,203.75469400585644 153.23284823284484,203.87902119203136 153.48544698545084,203.73101259697432 154.18711018711838,203.91454318029355 156.4417879417888,204.23423977607672 156.984407484415,203.87902119203136 167.87889812888898,202.04959978226907 168.18295218295316,202.12656727399371 169.1512474012452,202.90807567145748 169.9979209979283,202.86071192379313 170.25051975052338,203.93230416360166 170.96153846153538,203.76653470548627 171.79885654885584,203.71325153189537 173.11798336798893,203.48235702939928 173.17411642411025,202.88439380404088 172.98700623699915,202.44627694315568 173.00103950104312,202.1384084145393 173.9272349272287,202.04367920037475 174.7551975051938,201.5167442004058 175.50831600832316,201.46937894550138 178.95582120582912,200.86546744756197 180.64449064449218,201.06085149209684 182.26767151766398,201.90750559540902 182.85239085238936,202.29826349805444 183.74584199584933,203.1093710266323 184.8591476091351,204.49473157033208 187.2307692307695,207.8573045170524 187.08575883575395,208.1236944893135 187.26351351351332,208.41968144422935 187.21673596674373,208.52031655257088 187.33835758835994,208.83997947824537 187.26819126818373,209.25435386733807 186.89397089397244,209.64504612391465 186.8191268191331,209.85222999533653 186.53846153845734,210.04757388943472 186.01923076922685,210.68687507898358 185.98180873181263,210.65135859137445 185.98648648648305,210.8644570843353 186.10810810811017,210.98284468733982 185.90228690228105,210.71055272135345 185.72920997920664,210.79342436871957 185.88357588358485,210.76382736983214" stroke="#ff0000" stroke-linecap="round" stroke-linejoin="round" stroke-width="0.5"><title>2022-08-06 24.1km</title></polyline><polyline fill="none" points="52.24295774651546,252.60754125872336 50.34154929577198,249.70665001244197 43.78169014083687,240.8296608027813 41.00352112674591,238.316151417137 38.94366197182535,237.0192625073396 36.40845070422074,235.7758375564881 34.813380281710124,235.32124818144075 33.30281690141419,235.1608043729284 30.2816901408587,235.85605899360962 27.59859154930018,236.13683351029613 26.88028169015888,236.43097738564393 23.573943661962403,236.69838014819834 20.70070422534627,238.15571247536718 18.60915492955246,237.50058409067424 17.785211267611885,236.08335271152464 16.25352112676046,236.05661230132682 15.080985915497877,237.17970329587115 14.373239436623408,239.38573769993673 12.989436619704065,240.32161619287945 12.366197183087934,239.89378712535108 12.25,239.54617464300827 12.503521126753185,239.47932594841404 12.58802816903335,239.10497242226847 13.232394366212247,238.48995997652673 14.257042253535474,238.02201315807906 14.383802816890238,236.92567192701244 14.373239436623408,237.94179348079342 14.183098591543967,238.1289726263858 14.468309859148576,237.74124400242 14.341549295793811,236.57804899469193 14.447183098593086,236.95241210188397 14.130281690115226,236.8588214581614 14.531690140851424,236.96578218658397 14.51056338026683,237.30003371614293 14.616197183109762,236.69838014819834 14.161971830988477,234.57250817737076 13.79225352112553,234.73295294199488 14.225352112662222,236.8187111551233 13.718309859155852,237.1395931231673 13.369718309833843,237.03263258302468 13.51760563380958,236.06998250734614 13.327464788737416,234.880027080515 13.084507042229234,234.773064092391 12.725352112662222,234.93350853110314 13.09507042253972,237.04600265687623 14.109154929581564,237.07274279915146 14.330985915483325,238.03538309794385 12.904929577467556,239.0916026272098 12.366197183087934,239.73335074713395 12.926056338023045,242.1933465672846 14.267605633802305,241.85911160262913 14.288732394343242,241.03020400818787 14.605633802835655,240.99009539968392 14.806338028160098,240.5221604301114 15.355633802806551,240.26813766080886 15.429577464798058,239.8536780552604 15.13380281690479,239.42584696016274 14.859154929574288,237.64765410643304 15.070422535209218,237.15296318251785 16.200704225353547,236.13683351029613 17.985915492979984,236.0432420934667 18.535211267590057,237.44710403064528 20.299295774661005,238.07549290673342 21.38732394366525,237.90168361771066 22.82394366194785,237.04600265687623 21.69366197182535,238.35626111187594 23.552816901406914,237.7947239031564 23.499999999992724,237.32677378958033 23.79577464788599,237.04600265687623 23.616197183080658,236.89893174490135 22.61267605633475,237.03263258302468 21.27112676055549,237.95516343150666 20.457746478867193,238.14234255179326 18.852112676060642,237.63428411408677 18.37676056338387,237.08611286759697 17.933098591529415,236.06998250734614 16.306338028145547,236.0298718838094 15.154929577445728,237.05937272890878 14.415492957719835,239.35899818407051 12.862676056327473,240.32161619287945 12.419014084494847,240.0007445660376 12.366197183087934,239.73335074713395 12.95774647887447,239.0381234289307 14.235915492958156,238.1958222352623 14.51056338026683,237.59417412605399 14.64788732391753,236.7786008357798 14.299295774653729,236.88556165109912 14.595070422525168,237.04600265687623 14.235915492958156,236.59141913014173 13.739436619718617,236.59141913014173 14.299295774653729,236.61815939549706 14.415492957719835,236.8588214581614 14.01408450704912,235.13406371277233 14.151408450721647,234.94687888920453 14.193661971818074,235.06721203084453 14.109154929581564,234.83991597353452 14.088028169018799,235.70898630909505 14.51056338026683,237.04600265687623 14.373239436623408,237.92842352825392 12.989436619704065,239.02475362484256 12.397887323939358,239.81356896881334 12.862676056327473,242.1666078117487 14.193661971818074,241.89921985814 14.394366197164345,241.69867841774976 14.235915492958156,241.13716021781147 14.51056338026683,241.00346493763936 14.64788732391753,241.13716021781147 14.764084507020016,240.25476802324556 15.186619718289876,239.35899818407051 15.049295774624625,238.4632202181092 14.753521126753185,238.03538309794385 14.827464788722864,237.7813539306735 15.049295774624625,237.1395931231673 16.27464788731595,235.97639102712128 17.95422535211401,235.97639102712128 18.60915492955246,237.3134037537675 20.721830985930865,238.03538309794385 21.323943661962403,237.8214638426507 23.077464788722864,236.6716399045763 27.6619718309812,236.23042483845347 27.97887323942996,236.00313145906694 29.605633802813827,235.72235656218254 30.619718309833843,235.84268875861017 31.866197183080658,235.29450756481674 33.68309859154397,235.2009153494655 34.65492957746028,235.50843229526072 36.26056338028866,235.53517285398266 38.99647887323226,236.88556165109912 41.44718309860036,238.53006960065977 44.41549295774166,241.37781126596383 49.77112676057004,249.10507203550515 52.75,252.98184359989682 49.91901408450212,256.1767237084932 48.42957746481261,257.3530552057564 48.39788732393936,257.63376860605786 48.02816901409824,257.91448120852147 47.985915492958156,258.5561070182739 48.16549295774166,258.54273985639884 47.95422535212856,258.8368169993337 47.90140845069982,258.02141913295054 48.10211267606792,258.0882552769035 47.90140845069982,258.47590401998605 47.637323943657975,258.38233377305005 47.81690140846331,258.24866183791164 47.32042253522377,258.68977853734395 47.235915492943604,258.94375392513757 47.66901408452395,259.4249686583935 46.919014084516675,260.2670888001594 47.03521126761916,260.14678636236204 47.500000000007276,260.4007580036414 47.70070422535355,260.37402417744306 47.62676056338387,260.0665846557458 47.764084507056396,260.3205565032695 47.838028169040626,260.20025413059193 46.845070422568824,260.42749182262196 47.26760563379503,260.133419415768" stroke="#4dd2ff" stroke-linecap="round" stroke-linejoin="round" stroke-width="0.5"><title>2022-07-23 16.3km</title></polyline><polyline fill="none" points="97.75,255.96200572631642 95.84358108107699,253.36474603687384 95.38749999999709,252.96072075334814 94.59391891890846,251.63319562992547 89.54966216215689,244.60273978456098 86.76756756757823,241.99358898155333 85.04358108107408,240.89679821437312 82.67195945945423,239.73072097655677 79.6435810810799,239.08417622899287 78.37567567569204,239.03799427368358 77.53648648648232,239.2227219448032 76.96182432433125,239.09572171390028 76.84324324326008,239.86926564166788 76.51486486485373,240.00781008166086 74.1523648648872,240.481168552913 71.01452702703682,240.85061724093975 69.76486486486829,241.67032580085652 69.09898648648232,241.84350265721878 67.48445945946878,241.18542873160914 66.85506756757968,240.10017291658733 65.55979729731916,240.06553686523694 64.36486486487411,241.09306707240466 63.78108108107699,242.8941013792719 62.96013513514481,243.3328091018775 62.75033783783874,243.59834162679908 61.7743243243458,243.2289048452658 60.369594594609225,243.40207853592437 58.28074324327463,241.80886731408827 57.25,241.80886731408827 58.32635135136661,241.7857770775081 60.278378378396155,243.3328091018775 61.938513513538055,243.2750845305127 62.33074324325571,244.57965030461492 62.41283783784456,245.3300552024084 62.24864864866686,245.44550152356533 62.394594594617956,245.7110274690931 65.48682432434725,245.11070676155214 65.6783783783685,244.83363424016716 75.17398648650851,243.3674438259186 74.48986486486683,242.5131165256098 73.32229729728715,241.64723552675423 73.39527027028089,241.4625131088469 73.8148648648712,241.45096794444544 73.86047297299228,240.5273497264934 74.2162162162349,240.2271716512114 77.16250000000582,239.71917557760753 77.89222972975404,239.7538117697186 78.30270270271285,239.49981270100398 79.51587837838451,239.31508563025272 82.73581081080192,239.66144855955645 84.97972972972639,240.80443624248437 86.96824324327463,242.05131442059064 89.40371621619852,244.31412083577743 95.68851351351623,253.0761567439913 95.5243243243167,253.3993766863714 95.29628378379857,253.457094404308 95.48783783784165,253.73413890662778" stroke="#4dd2ff" stroke-linecap="round" stroke-linejoin="round" stroke-width="0.5"><title>2022-07-16 10.3km</title></polyline></svg>