<?xml version="1.0" encoding="utf-8" ?>
<svg baseProfile="full" height="300mm" version="1.1" viewBox="0,0,200,300" width="200mm" xmlns="http://www.w3.org/2000/svg" xmlns:ev="http://www.w3.org/2001/xml-events" xmlns:xlink="http://www.w3.org/1999/xlink"><defs /><rect fill="#222222" height="300" width="200" x="0" y="0" /><text fill="#FFFFFF" style="font-size:12px; font-family:Arial; font-weight:bold;" x="10" y="20">Over 10km Runs</text><text fill="#FFFFFF" style="font-size:4px; font-family:Arial" x="10" y="280">ATHLETE</text><text fill="#FFFFFF" style="font-size:9px; font-family:Arial" x="10" y="290">Allen</text><text fill="#FFFFFF" style="font-size:4px; font-family:Arial" x="120" y="280">STATISTICS</text><text fill="#FFFFFF" style="font-size:3px; font-family:Arial" x="120" y="285">Number: 19</text><text fill="#FFFFFF" style="font-size:3px; font-family:Arial" x="120" y="290">Weekly: 1.7</text><text fill="#FFFFFF" style="font-size:3px; font-family:Arial" x="141" y="285">Total: 298.7 km</text><text fill="#FFFFFF" style="font-size:3px; font-family:Arial" x="141" y="290">Avg: 15.7 km</text><text fill="#FFFFFF" style="font-size:3px; font-family:Arial" x="167" y="285">Min: 10.1 km</text><text fill="#FFFFFF" style="font-size:3px; font-family:Arial" x="167" y="290">Max: 24.1 km</text><polyline fill="none" points="52.75,56.91090453832658 51.486549900859245,55.12905153689644 51.21351619299821,54.93934481929682 50.51219431593563,53.76721236681624 48.665201586256444,51.212817065061245 48.204791804360866,50.71140851412929 47.0484137475396,49.67469652335785 45.78496364838429,48.78703716238306 45.57617316591495,48.80058933204418 44.65000000000873,48.36014193854862 43.8951421017955,48.2313950451171 42.85654329147292,48.136528701114 41.635922009263595,48.40757492105331 37.94729015201665,48.97676720390882 37.031824190362386,49.46464115025083 36.68384005288317,49.532401044376456 35.65594844678708,49.2613609173568 35.31867151355982,48.556649716207176 34.60128883013749,48.49566462641087 33.92673496365023,49.098736136438674 33.51450760080479,50.2099949390431 33.080865829469985,50.42682304752816 32.9684401850609,50.589443512330035 32.433079973568965,50.39971958536262 31.528321216119366,50.48780578377773 30.270224719108228,49.5391770287315 30.056080634505633,49.49852110876964 18.428056840719364,51.44319228239692 17.56612690019392,51.66001504757514 16.961169861202507,52.005574387832894 13.529510905493225,51.44319228239692 13.25647719762128,51.59903373982161 12.87637144745895,51.429640828402626 12.319596827499481,50.88757965858531 12.25,50.70463268849926 12.282121612697665,50.189667255712266 12.357072042301297,50.85370064050949 13.090515532072459,51.47029517942792 13.28859881032622,51.524500929441274 13.55627891606855,51.39576217730064 14.332551222745678,51.59225803436493 16.955816259094718,51.971696126634924 17.550066093856003,51.55837949337365 17.935525446137035,51.47707090139738 30.082848645080958,49.45108916041136 30.361235955060693,49.49852110876964 31.480138797101972,50.40649545227279 31.69963648382327,50.46070235461957 32.47055518837078,50.34551261694651 32.56692002644559,50.52846089996456 32.81853932585,50.63009854596021 33.075512227362196,50.39971958536262 33.5412756113692,50.1964431510678 33.84107732981647,49.12584030329526 34.52633840053022,48.46856011821001 35.37756113681826,48.49566462641087 35.677362855254614,49.11906426295536 36.598182419038494,49.49852110876964 36.94081295439901,49.45108916041136 37.743853271644184,48.9699911433745 38.3702247190995,48.80058933204418 40.334996695317386,48.57020194827055 41.25046265699348,48.35336579453724 41.72693324521606,48.339813503724145 42.32118307998826,48.143304874534806 42.93149372108746,48.08909546167706 44.69818241904068,48.27205199461969 44.87485128883054,48.19751422862828 47.0805353602118,49.64759265378598 48.6170191672245,51.036647065604484 50.13208856576239,53.096442139350984 52.07009253140495,55.95562241436346" stroke="#4dd2ff" stroke-linecap="round" stroke-linejoin="round" stroke-width="0.5"><title>2022-10-01 15.4km</title></polyline><polyline fill="none" points="97.63997056824155,58.31407579437655 90.27716776094894,48.11397081530595 87.76482906948513,45.816168724129966 86.21524790581316,44.806508929032134 83.69374009508465,43.599543680102215 80.89715870500368,43.123716169880936 78.41232737150858,43.79683723875496 76.50515055465075,43.9012865859404 75.53322390760877,44.29587185975106 71.99394385330379,44.70206068512198 70.71026714963227,45.5376430721808 70.04092143988237,45.74653739600035 68.42715644103009,45.270721806329675 67.71196513468749,43.994130343235156 66.34576635725534,43.878075630891544 65.32799411363521,44.85293032991467 64.59446456871228,46.895447075796255 63.40247905817523,47.61495842618751 62.76064070636494,47.12754817138921 61.238566900618025,47.313228595332475 59.00130178854306,45.54924832576944 57.25,45.816168724129966 58.93711795336276,45.59566932434245 61.21105954270024,47.2319934593761 62.769809825666016,47.12754817138921 63.40247905817523,47.62656339848036 63.91594973964675,47.16236328154628 64.66781752319366,46.80260646157694 64.7411704776896,46.199140017568425 65.26381027847674,44.86453567620629 66.3732737152095,43.878075630891544 67.74864161192818,43.889681109219964 68.28961965133931,45.027010359255655 69.93089200814575,45.63048505674669 70.65525243378943,45.52603781704238 72.25984831333335,44.586006931473094 78.1097464342165,43.61114919613465 78.91662893367902,43.6227547105882 80.62208512564393,43.21656076959334 83.71207833370136,43.599543680102215 86.81124066108168,45.177879432019836 88.14993208059605,46.11790382559411 90.33218247679179,48.14878552477603 97.55744849442272,58.14002274881932 97.75,58.61576690277434 97.49326465926424,59.27716292510013 96.2095879556291,60.83200365091761 94.95341860991903,61.87628383012634" stroke="#4dd2ff" stroke-linecap="round" stroke-linejoin="round" stroke-width="0.5"><title>2022-09-29 10.1km</title></polyline><polyline fill="none" points="142.75,56.42933490482028 142.10856159938703,55.65749749738461 139.28518109827564,51.611806613327644 138.59642347137924,50.89312931977838 137.7709658574604,50.194405208258104 136.7982928729216,49.542253740888555 135.4680968454013,48.87678413846879 134.6110930806244,48.690451034864964 134.500681552654,48.75699865297793 133.70151239777624,48.57066509517972 132.2661625340843,48.936676771725615 131.18833571335927,48.98325988044235 130.64153576530953,49.17624657475244 128.9590743866138,49.38254185815458 128.56474750097186,49.46905252573197 127.84970141503436,49.93487657942751 127.52372452292184,49.99476792311907 126.54579384656245,49.69531047472992 126.15672465273383,48.99656933197548 125.4101324159601,48.95664096657856 124.79498247435549,49.542253740888555 124.41642866416441,50.62694987726718 123.76447487992118,51.09276295554446 123.31231338440557,50.806621159092174 122.61829806569585,50.93971057398085 121.33542126444445,50.034695445028774 121.00418668052225,49.94818577322076 109.30582240684816,51.8912893892666 108.71170323250408,52.02437586680753 108.1280994417757,52.39036182176642 105.72007659353767,52.07095604879942 104.76843437623029,51.8380546973458 104.61596131376791,51.98444996138278 104.46874594314068,51.977795640665136 104.14802674283419,51.84470903698093 103.59596910294931,51.3256678389771 103.43823834868817,50.51382317764728 102.73370764637366,49.92822198119029 102.5759768921198,49.608800205478474 102.25,49.33595912792589 102.56546150849681,49.582181630456034 102.76525379723898,49.914912781958265 103.40143450604955,50.34080536860711 103.54339218487803,50.673531383781665 103.5854537193336,51.20588832249632 104.1795728936886,51.80478298559683 104.50029209399509,51.95117834875418 104.79472283526047,51.83140035679389 108.11232636634668,52.37705328935044 108.79582630144432,51.96448699651228 120.90954822796994,49.94153117676615 121.30913280541427,49.92156738202175 122.37644424250539,50.84654802141449 122.64458652473695,50.91974718473284 123.32282876802128,50.79996667890009 123.73292872906677,51.06614518428978 124.42694404777649,50.60698636097004 124.74766324808661,49.542253740888555 125.45745164223263,48.936676771725615 126.20404387901726,48.95664096657856 126.29342463974535,49.289376353532134 126.55630923017816,49.60214556306528 127.0557899519772,49.848366731890565 127.48692068026503,49.93487657942751 127.80763988057515,49.881639768191235 128.50165519928487,49.449088539033255 129.09051668182292,49.262757605501974 133.44914319095915,48.59728421811451 134.43758925094517,48.697105800740246 134.5637738543519,48.637212875499245 135.31036609113653,48.7703081657819 136.7772621056829,49.50898047478768 137.8288004673559,50.18775064516376 139.0433272750961,51.29239578035413 139.59538491497733,51.937869697401766 141.61433856939766,54.80580077486957 142.1190769829991,55.65749749738461 142.59752693757036,56.229722944117384" stroke="#4dd2ff" stroke-linecap="round" stroke-linejoin="round" stroke-width="0.5"><title>2022-09-24 16.0km</title></polyline><polyline fill="none" points="187.75,56.6530631208625 186.74613539445636,55.36898164997183 183.83168976546222,51.209152896724845 182.30430437100586,49.87028447374905 179.9781449893453,48.572367898636 178.12153518123523,48.3469368791375 176.84241737740012,48.68166742424364 175.6928304904177,48.736317098231666 175.20169243070995,48.92075931083673 173.1615804904177,49.17351235875685 172.35740938166418,49.658521417575685 171.82309434969284,49.77464965522449 170.88939232410848,49.44675747246947 170.56016791044385,48.74997950745092 169.77218816633103,48.70899226862821 169.1407249466938,49.33745960459055 168.74673507464104,50.45775152423448 168.32036247336146,50.65584933606806 168.0720948827402,50.894931866121624 167.93716684436004,50.88127003777845 167.6403251599113,50.61486364571101 166.7605943496892,50.71732780915772 165.5894189765495,49.8497913136016 165.16844349681196,49.7473253880562 160.1707089552292,50.52606120238124 158.2655250533171,50.92225551167576 153.15984808102075,51.73512719844075 152.5553704690792,51.89223534183475 152.31250000001455,52.138142757950845 151.97787846482242,52.24060382755488 150.46128731344288,52.06300450796698 148.6370602345487,51.68731157942602 148.3833955223963,51.823927513520175 148.1189365671744,51.769281184289866 147.36873667378313,51.106689732212544 147.25,50.31430089903006 147.41191364606857,51.09985884719572 147.99480277186376,51.64632672706648 148.32402718550657,51.79660435631013 148.6046775053328,51.639495915107545 152.04804104479263,52.21328089601593 152.74966684436004,51.78294277213354 158.17377398722238,50.91542460168421 160.09514925374242,50.47824443738864 165.44909381663092,49.68584573284534 166.70122601279945,50.65584933606806 167.72667910448945,50.61486364571101 167.86160714286962,51.20232202556872 167.67810501067652,51.23647637211252 167.59175106609837,50.99739546071578 167.46222014926752,50.96324095229647 167.0142590618525,51.05887351756246 166.89552238806937,51.188660280473414 166.85234541578757,51.13401326312305 166.7875799573667,50.901762778899865 166.87393390193392,50.847115450738784 167.64572228146062,50.70366593272411 167.91557835821004,51.90589689639819 168.49307036248865,51.87174300304105" stroke="#4dd2ff" stroke-linecap="round" stroke-linejoin="round" stroke-width="0.5"><title>2022-09-22 12.2km</title></polyline><polyline fill="none" points="52.75,105.40488625743455 48.633296460178826,99.78539966674725 47.24446902654745,98.51903152532032 46.33849557522626,97.94568934032941 44.939712389379565,97.34083717918111 43.40652654867881,97.1392180447001 42.231747787605855,97.4290452757632 41.16648230089777,97.49835152004744 40.52931415929925,97.71887070138473 38.76714601769709,97.94568934032941 38.030420353981754,98.37412153036712 37.592367256631405,98.4812289614456 36.726216814153304,98.1977087534251 36.42754424778104,97.5424554399251 35.720685840697115,97.48575039240313 35.12334070795987,98.02129530758612 34.839601769916044,98.66394106894222 34.76991150441245,99.06086489902737 34.32688053097445,99.30027763559701 34.172566371686116,99.49558711353166 33.99336283185767,99.47668623213758 33.72455752212409,99.23727440330185 33.052544247795595,99.35698047170081 32.85840707963507,99.31917858863744 31.773230088496348,98.50013024723012 31.549225663715333,98.43082549518294 26.307522123883246,99.24987505658646 25.15763274336132,99.50818769685793 20.259402654857695,100.3020175672973 19.881084070788347,100.39022005026345 19.512721238941594,100.68632716303182 19.273783185832144,100.7367281860461 17.28263274336132,100.47842236600627 16.152654867248202,100.22011511201345 15.988384955751826,100.35241900660549 15.59015486725184,100.25161607341215 14.967920353974478,99.61529251737375 14.893252212390507,98.90965622016665 14.271017699113145,98.4812289614456 14.037057522120449,98.0906006696714 13.783185840700753,97.87008325020724 13.509402654868609,97.67476694873767 13.205752212394145,97.72517123404396 12.568584070795623,97.43534584767986 12.364491150434333,97.4290452757632 12.25,97.21482532252412 12.25,97.5550565522135 12.309734513273725,97.40384297950732 12.513827433620463,97.41014355484731 13.190818584062072,97.71257016784148 13.454646017686173,97.64326424266255 13.738384955748188,97.78817651392455 14.131637168124143,98.15360545467775 14.266039822992752,98.43712593145028 14.913163716802956,98.84665245894575 15.057522123886883,99.69719603727935 15.615044247784681,100.22011511201345 15.90873893803655,100.32091811343344 16.192477876098565,100.16341332772572 16.92422566372261,100.38391987844079 19.318584070795623,100.71782780881404 19.900995575218985,100.3713195322598 20.393805309722666,100.24531588283571 31.315265486726275,98.41822462008713 31.857853982299275,98.50013024723012 32.87831858406571,99.29397731619974 33.774336283178855,99.22467374659755 33.82909292035038,99.35698047170081 34.117809734514594,99.47668623213758 34.764933628313884,99.06716524999501 34.78484513274452,98.74584626353317 35.06858407078835,98.05279775769668 35.69579646017519,97.4794498272895 36.44745575221168,97.48575039240313 36.74115044247446,98.09690115200283 36.88550884956203,98.09690115200283 37.29369469027006,98.35522019338896 37.706858407087566,98.43712593145028 38.02046460177371,98.36782108555417 38.90154867257297,97.82597964090019 43.46626106195254,97.09511374256545 45.13384955751826,97.29673306817494 46.96570796459491,98.2733143111509 48.67311946903283,99.72869735272616 49.78816371681387,101.24703546948149" stroke="#4dd2ff" stroke-linecap="round" stroke-linejoin="round" stroke-width="0.5"><title>2022-09-17 16.2km</title></polyline><polyline fill="none" points="97.75,105.37664167294861 93.6661753868757,99.7298166004366 92.32313927782161,98.52104252693243 90.12951363300817,97.34371673424175 89.47291820191822,97.19890989862324 89.3734340456831,97.26186944778965 88.52284450994193,97.12335832705503 87.30416359616356,97.4255638766117 86.3341930729548,97.47593127723303 85.75718496683112,97.66480854354813 83.871960206332,97.9040519793125 83.01639646277545,98.41401414136271 82.61348563005959,98.49585939955068 81.80268975682338,98.19995663107693 81.4246499631663,97.5137067918622 80.77800294768531,97.45704350839878 80.13633014001243,98.06774414708343 79.85280029475689,98.7413943096617 79.81300663227375,99.04358934203992 79.3852247604882,99.27653000560895 79.17133382460815,99.49687820784675 79.04200442151705,99.49058255942145 78.76842299188138,99.23875592324111 77.9476787030253,99.33319107165153 76.91304347825644,98.5273383066451 76.52008106116045,98.42030993557637 65.47236551216338,100.26494092023131 64.9550478997844,100.39085162985066 64.3979366249223,100.74339980288278 61.20946941784132,100.22716764085999 61.055268975687795,100.35307845276475 60.67225497421168,100.24605428438736 60.05047899780038,99.64797351439847 59.94602063374623,98.92397070991501 59.29439941047167,98.43290152142072 59.015843773042434,97.9921939874148 58.578113485637004,97.67740033399969 58.26971260134451,97.71517568494528 57.32461311717998,97.3311248534119 57.25,97.15483816347114 57.384303610917414,97.38778829034709 57.991156963893445,97.53259453768987 58.27966101695347,97.70258390471645 58.62288135594645,97.66480854354813 59.115327929259365,98.05515246232972 59.29439941047167,98.39512675363221 59.9012527634477,98.79176028478469 60.0355563743542,99.06877217274814 60.06042741342026,99.61649536601544 60.61753868829328,100.18939433079868 61.00552689757387,100.34048738692945 61.229366249084705,100.18939433079868 62.44307295504768,100.45380685681084 64.40291083272677,100.711922396109 64.94012527634914,100.35307845276475 65.46241709653259,100.23975873740346 76.6145910095729,98.40771834631232 76.84837877671453,98.47067625853379 77.942704495199,99.32059972959905 78.75847457627242,99.23246023984757 79.15641120117289,99.49687820784675 79.38025055268372,99.28282568303257 79.79808400884576,99.09395498979939 79.82792925571994,98.77287305051141 80.13135593220795,98.03626492881449 80.74815770080386,97.47593127723303 81.51418570376336,97.50741087489587 81.82258658805586,98.14329418397392 82.70799557847204,98.45178889381714 83.04624170964962,98.38253515755059 83.84211495946874,97.89775611520236 86.97586588062768,97.33742079425065 87.55784819453766,97.31853296915142 88.46812822401262,97.12965429603719 90.10464259395303,97.29334919040048 91.91525423727944,98.21884409809354 93.22844509948118,99.25764296825946 94.77044952098731,101.10224073388235 95.58621960204982,102.36130981482347" stroke="#4dd2ff" stroke-linecap="round" stroke-linejoin="round" stroke-width="0.5"><title>2022-09-11 16.4km</title></polyline><polyline fill="none" points="142.75,105.482673706083 141.34184456090225,103.66130757128849 139.76284673399277,101.29604996548369 138.60318931356232,99.74972488387357 137.17432570624806,98.43924121741657 136.45989390259638,98.0002212529107 134.95337466444835,97.2466702368256 134.1975265243491,97.12216937413541 133.21906557587135,97.01732629392063 131.9972836507768,97.32530219560067 130.92563594528838,97.39082873029838 130.18531893134787,97.59396042389199 128.57008181003766,97.79053867030234 128.11450210916155,97.94780069242915 127.47254889428223,98.36716358607009 127.15157228684257,98.41303118208089 126.2714751374042,98.14437750135767 125.89355106736184,97.42359196434336 125.1584110954791,97.37772343044344 124.78048702543674,97.6594865947809 124.49574971238326,98.01987894843114 124.17477310493268,99.00930597361003 123.48104946950843,99.48107862423058 123.09277131534691,99.2058784703404 122.19714303974979,99.2976120288622 121.24974434358955,98.53097622928544 120.84593506327656,98.34095351171345 114.6438386808004,99.33037397189764 113.74303336315643,99.57936401417464 109.24418381693977,100.25425163363616 108.70577144317213,100.36563994744574 108.16218202735399,100.7522209299168 106.06547999488248,100.50978914944426 104.81263581744861,100.21493804990678 104.59520005112063,100.36563994744574 104.1965678128472,100.22804258134784 103.61156206058149,99.6448874965863 103.59085389235406,99.10759232179043 103.48213600919553,98.86515230186342 102.8764220887133,98.4261362015277 102.51920618687654,97.91503781330539 102.35354084110077,97.7839860749591 102.25,97.81674904282045 102.32247858876508,97.73156528023537 102.70040265881835,98.05919431553411 102.84535983636306,98.35405855067074 103.4355426307011,98.71444573129702 103.60638501852372,99.08793506812799 103.64262431292082,99.61867811426055 104.22245302313604,100.21493804990678 104.52789850440604,100.35253545325395 104.87476032212362,100.21493804990678 108.1000575226899,100.73911654040057 108.83519749456173,100.30011744095827 120.7993416847712,98.32129594659636 121.04783970343851,98.38682113254617 122.17643487153327,99.24519287384828 122.41457880607777,99.2976120288622 123.08759427329642,99.17311644300935 123.31020708167489,99.44831678319679 123.4965805956781,99.48763098976269 124.12300268438776,99.06172538415558 124.49057267031458,97.92814296760844 125.11181771698466,97.37117077919902 125.88837402531135,97.35151282012157 126.16793429630707,98.01987894843114 126.28700626358477,97.99366868595098 126.6856385018582,98.22300800132871 127.17228045507,98.34750603162684 127.53467339894632,98.27542826364515 128.38370829604537,97.73156528023537 129.07225488943004,97.66603920697526" stroke="#4dd2ff" stroke-linecap="round" stroke-linejoin="round" stroke-width="0.5"><title>2022-09-10 13.4km</title></polyline><polyline fill="none" points="187.75,105.45955623956615 183.80853314528213,99.93241909188146 182.3441146300829,98.58504293274018 181.9079048595886,98.30241782218582 179.99169765354964,97.29678489730577 179.55029490960442,97.19819231256406 179.20236568791006,97.22448368808182 178.25205154507057,97.04044376043385 176.5799140915551,97.40852291788542 175.6503718425447,97.48082385297676 175.427073983843,97.6319981873603 173.44855109629498,97.8620451840834 172.5190088472882,98.39443548071358 172.1295358379357,98.46016227286964 171.27788819078705,98.15124557588206 170.92995896908178,97.46767823640766 170.18217079111855,97.40852291788542 169.53304910886072,98.03950926514517 169.22147070136998,98.75593173612288 169.17473394025,99.09113494906705 168.7956468777993,99.26202197066232 168.5152263110649,99.52492390606858 168.09459546094877,99.26202197066232 167.2014040261456,99.32117503027621 166.14723041415346,98.50617097440772 165.82526605975,98.38786279661508 159.7079433260733,99.36061036331012 155.77166944478813,100.10330315172541 154.2812860623162,100.29390389338369 153.7256379022947,100.4384970602332 153.26346326451312,100.76711629215788 153.05055135273142,100.81969516283061 149.86725862289313,100.30047631940761 149.50894345428242,100.41877983556333 149.20255802024622,100.29390389338369 148.61055904601744,99.73524442913913 148.4651557891957,98.93339254897728 147.81603410692696,98.46016227286964 147.577157327858,98.07237291264755 147.25,97.81603587196514 147.61350814206162,98.03293653297806 147.79526221309789,98.36157205127529 148.41841902807937,98.74278646491439 148.55862931144657,98.99911861132205 148.63133093985743,99.65637433980373 149.26487370174073,100.2807590386692 149.5868380561551,100.3727729468701 149.82571483522406,100.2281795842573 150.60466085395092,100.41877983556333 153.04535837928051,100.76054392933293 153.24788434414586,100.7211097336185 153.76718168996376,100.3727729468701 165.7369855109755,98.35499936272026 166.13684446724073,98.42072620825274 167.23775484034923,99.29488479045904 168.1828760097451,99.22258655755286 168.30750737273775,99.44605347496326 168.49445441722492,99.51835137503804 168.72813822284297,99.2883122282874 169.17473394025,99.0582719913109 169.5070842415589,97.96720916229606 170.03676753430045,97.46767823640766 170.22371457878762,97.40195010027674 170.94553788947087,97.44138699265022 171.26750224388525,98.05265472682004 172.1918515194193,98.40758084626577 172.6280612899027,98.28927242815917 173.49528785741495,97.78974481688783 178.19492883702696,97.05358949268339 179.24910244903003,97.1193181005874 180.0436273881205,97.27049356095813 181.33667777919982,97.91462720167328 182.16755353250846,98.43387156668541 183.14902551609703,99.25544940404507 183.96951532248204,100.11644805449396 187.4747724067238,105.01924852492812" stroke="#4dd2ff" stroke-linecap="round" stroke-linejoin="round" stroke-width="0.5"><title>2022-09-03 16.2km</title></polyline><polyline fill="none" points="50.53781512605201,155.49171336418658 50.85236822001389,155.08713954067935 51.14113827349502,154.9435802711123 52.110580595875945,154.0234857122341 52.487012987017806,153.5993227327781 52.445760122223874,153.5144896890779 52.75,153.25346400290073 48.69174942703103,147.5431734705744 47.09835752482104,146.0485971692251 46.04640947288863,145.4089826699892 44.757257448436576,144.76935968246107 43.00916730328754,144.56050135827536 41.771581359811535,144.8411545223389 38.316653934307396,145.3437154070889 37.49675324675627,145.83321772451018 37.12547746371638,145.9441708919876 36.192131398005586,145.65699746296013 35.8053857906707,144.991270660179 35.09377387319182,144.9064224658141 34.428571428576106,145.5329902260164 34.07792207792227,146.59030485139374 33.696333078678435,146.74694208258006 33.44881589000215,146.99494999089438 33.30958747136174,146.98842348332983 33.01050420167667,146.73388899942074 32.1235676088545,146.82526050727756 31.09740259739192,146.03554389693818 30.674560733394173,145.89195766851844 18.6596638655501,147.90212594244804 18.319327731089288,148.22844405180876 18.118220015290717,148.29370740857848 15.457410236831493,147.9282314725133 14.807677616510773,147.75201887032745 14.652979373568087,147.88907317213307 14.255920550036535,147.76507167774616 13.642284186389588,147.19727128675004 13.601031321617484,146.59030485139374 13.425706646296021,146.27702886191764 12.915202444615716,145.95069754093856 12.580022918267787,145.48730326882287 12.25,145.24581434705033 12.67799847211063,145.5656237403491 12.910045836513746,145.95069754093856 13.4927425515707,146.34229486096592 13.590718105424457,146.51851261698175 13.657754010695498,147.17769184361168 14.245607333843509,147.76507167774616 14.652979373568087,147.88907317213307 14.869556913672568,147.75201887032745 18.082123758595117,148.28718107688837 18.623567608865415,147.94128423221628 18.943277310918347,147.8433884481674 30.726126814359304,145.8789043538345 31.061306340707233,145.96375083619932 32.11325439266875,146.79915437985983 33.06207028265271,146.73388899942074 33.283804430873715,146.99494999089438 33.47459893047926,146.99494999089438 33.6396103896077,146.79262784578532 34.10886172651226,146.53809232789354 34.150114591288,146.17912969761164 34.449197860951244,145.45466970143752 34.954545454540494,144.9782171015322 35.22784568373754,144.9064224658141 35.81054239878358,144.93905640441153 36.18181818181256,145.6113106233097 36.847020626428275,145.8789043538345 37.182200152794394,145.9115376339396 38.41462948815024,145.2915015331455 42.35943468294863,144.6257696818102 43.13808250573493,144.50828663580978 44.014705882353155,144.6779842770011 44.85007639418836,144.71714518626322 45.28323147441915,145.0239045413291 46.54660045836499,145.6113106233097 47.516042780756834,146.34229486096592 48.32047364399841,147.0863210038624 49.279602750186314,148.26107574123307 52.1621466768629,152.385543434204" stroke="#4dd2ff" stroke-linecap="round" stroke-linejoin="round" stroke-width="0.5"><title>2022-09-01 16.9km</title></polyline><polyline fill="none" points="97.75,154.23041997011387 93.52314636956726,148.39528961910764 92.2888013830052,147.2859446683724 91.48492124470795,146.84613816348065 91.15818286592184,146.5507434947831 89.93939684977886,145.9993352969359 89.1977525931652,145.88117558131853 88.21753745678143,145.7695800298825 86.94170188243152,146.09123709882988 86.61496350365269,146.05185063363024 85.77996542449546,146.17657433030035 85.30800998846098,146.36037708779622 83.52391471379087,146.52448610377905 82.55925854782981,147.095581148591 82.1702842873492,147.1874808721659 81.30935459084503,146.8986525828077 80.92556665387019,146.1962675161958 80.13205916250809,146.1437523359673 79.53044563964067,146.7345448335327 79.22445255474304,147.45661477471367 79.17258932000186,147.80451736140458 78.74212447176615,148.01457054452476 78.50355359200694,148.25744340292295 78.11457933154452,147.9686214884896 77.56482904340737,148.08677611601524 77.04101037263536,147.94236486548107 76.10747214751609,147.2137379040505 75.78592009219574,147.10870969117605 64.19967345370242,149.0516947950855 63.71215904724886,149.15671879844376 63.343930080663995,149.4717894434507 63.07942758355057,149.55055678473946 61.28495966192713,149.3208183482384 59.786112178248004,148.97949066077126 59.54754129851062,149.13702681514405 59.158567038030014,148.99261869320617 58.90443718784809,148.6709808755404 58.634748367265274,148.50687912605645 58.53102189779747,148.27057163087738 58.551767191696854,147.85046657298517 58.41173645792878,147.5485138138538 57.81012293506137,147.14809529767444 57.60785631963154,146.80018799990648 57.25,146.51792175380615 57.638974260451505,146.80018799990648 57.79456396466048,147.1218382302577 58.44285439877058,147.55507802427746 58.619189396846195,148.39528961910764 59.19487130233756,148.99918270807393 59.516423357657914,149.13046281894276 59.79129850172467,148.9401065421771 60.62111025739796,149.16328279110166 63.07942758355057,149.5177370747515 63.86774875143601,149.07795081724544 75.8014790626039,147.1152739611607 76.12303111793517,147.1612238260568 77.24846331156368,148.06051955699877 78.08346139070272,147.9620573340835 78.30647330003194,148.19180220982525 78.50873991549452,148.22462281749904 78.72656550134343,148.00800639633962 79.1414713791819,147.82420988598096 79.47339608143375,146.80018799990648 80.16317710332805,146.13062353202258 80.88407606606415,146.12405912870963 81.24193238571388,146.78705937376435 81.3560315021059,146.76080211075896 81.7968689973095,147.04306694259867 82.28956972723972,147.1218382302577 83.38907030349219,146.5376148010473 83.84028044563456,146.44571384545634 88.15530157509784,145.7695800298825 89.20293891663096,145.84178894543948 89.87716096811346,145.9533843306417 91.51603918554974,146.74767347392844 92.38734152900724,147.3318943714985 93.25864387245383,148.0933402535593 94.75230503264538,149.89844434466795 97.32990779868851,153.64628219761653" stroke="#4dd2ff" stroke-linecap="round" stroke-linejoin="round" stroke-width="0.5"><title>2022-08-28 16.3km</title></polyline><polyline fill="none" points="142.75,154.09022114943218 138.7889121855187,148.61567882837699 137.62506166750245,147.55356856251456 136.98069807598586,147.10469327007013 135.15749876666086,146.15635099699284 134.47317464233493,146.01725917707154 133.79384558462698,145.90977885057146 132.6499753330172,146.15002865052884 132.37524666996978,146.30176472930543 131.30130735076818,146.3649879498771 130.79181055748631,146.5167233300199 128.87370498275777,146.76329227091264 128.05451406018983,147.2564262461383 127.73982486434033,147.33861473559227 126.86069314258202,147.05411550178542 126.4610878145213,146.3649879498771 125.79174888999114,146.34602099271433 125.17735569807337,146.9087041127932 124.82770103602161,147.90760800238786 124.24827331032793,148.34383147762492 124.06345584608789,148.34383147762492 123.758756783438,148.09727088372892 122.93956586088098,148.16681374717155 121.93056240749502,147.37654783578546 121.63085841145949,147.26907063853287 110.4269240256508,149.12775907385003 109.9424025653716,149.2352319925849 109.62771336951118,149.4881084726003 109.31302417366169,149.59558056187234 107.0152935372571,149.2858073981588 106.16613221510124,149.070861546159 106.02127528367782,149.19730040245122 105.83146275284162,149.2036223362884 105.53675382338042,149.03925177856945 105.04224222989433,148.56510269691353 104.89239023187474,147.78748777906003 104.2580167735614,147.3070037952275 103.84342624568308,146.73800320867667 103.4887765170206,146.50407873382937 103.22903305377622,146.56097938966195 102.55969412926788,146.2764754170712 102.3748766650242,146.2448637575435 102.25,146.35234331262836 102.29495559940551,146.2448637575435 102.4897631968488,146.2511860911618 103.22903305377622,146.54833480544767 103.53872718303319,146.49143413422644 103.8634065120932,146.72535867245097 104.22305130734458,147.19320423269528 104.91736556487012,147.71162221560735 105.05223236309394,148.52084853695123 105.61167982239567,149.0835054471754 105.92636901825608,149.19730040245122 106.21108781450675,149.03292982248968 109.36297483967064,149.5702930337211 109.87247163296342,149.21626620136522 110.12222496300092,149.14672490102384 121.58090774543962,147.23113745103183 121.91058214110672,147.31964817394692 122.94456092748442,148.1478475219701 123.13437345832062,148.18577996467502 123.71380118403249,148.04669419069614 124.19332757770462,148.331187376265 124.39812530834752,148.11623712947767 124.82770103602161,147.9202522184496 125.1324000986715,146.9087041127932 125.52701036013968,146.47246722843192 125.8067340898051,146.30176472930543 126.5060434139159,146.33337635029238 126.82572767636884,146.94031532284134 127.71984459794112,147.2817150275223 128.3042673902346,147.07308217130412 128.83873951653368,146.72535867245097 129.22335964481317,146.630524541466 132.66995559940915,146.1816403742887 132.95966946226326,146.0362262678209 133.53410212136077,145.93506836142114 134.3982486433306,146.08048278294882 134.51313517514427,146.02358154150716 135.26239516528221,146.16899568735244 135.93672915639763,146.55465709798227 136.4362358164908,146.71903640305027 137.48020473607903,147.38919219566742 138.83886285151675,148.62832285264813 140.3773433645838,150.70821824319864 142.24050320671813,153.4770537543809 142.38536013815246,153.55923129513394" stroke="#4dd2ff" stroke-linecap="round" stroke-linejoin="round" stroke-width="0.5"><title>2022-08-26 16.9km</title></polyline><polyline fill="none" points="187.16675088428383,152.69375588607 185.26351692773824,150.00660640426213 183.92306720567285,148.51080236350026 183.30400454775372,147.96038650368791 182.34727134916466,147.35168394044376 180.95054320363488,146.6782167566962 179.27753916117945,146.4709941765541 178.41801414855945,146.63936259132606 178.0752273875696,146.82068175965833 177.00082112177188,146.85953577770124 176.49943153108688,147.06028103469362 174.53480293077155,147.2804522830338 173.6855103587659,147.78554719887688 173.28644517432622,147.86972916618106 172.43203638201157,147.5718538471083 172.04831985851342,146.8789627748738 171.3218165740327,146.8530601102102 170.69252147549196,147.4747201897262 170.32415361293533,148.50432691963215 169.9353208691282,148.69858985449537 169.69997473472176,148.92522894780268 169.3162582112127,148.65973733066494 168.47208185953423,148.77629480749238 167.41814047499793,147.92153338009302 167.06000505306292,147.79202274009367 155.16990904497652,149.79292297712163 154.7247978777159,150.11021014644575 154.3768948964207,150.18143758902806 151.2406518443604,149.66341740509597 151.0257705912045,149.81882404944554 150.6471702880117,149.66341740509597 150.07926983324796,149.13244089315776 149.94624810510868,148.34244053775546 149.3016043456155,147.83735150398934 148.91788782213553,147.31930592749995 148.46766043455136,147.01495153418 148.20161697826188,147.08618358711828 147.55185699849244,146.80125473878797 147.25,146.80125473878797 147.7974355735132,146.82715743151857 148.18626831732763,147.04085411117921 148.44719555331176,146.98257329324042 148.69789034865244,147.09913485805373 149.11742041434263,147.46824460555945 149.31183678624802,147.82440043297538 149.86438858008114,148.16760262979005 150.03834007075056,148.5496550083517 150.10996715513102,149.15186696702222 150.68298383021101,149.65694211729715 150.98995704900153,149.77997243569916 151.30204648813015,149.61809037203057 152.1513390601358,149.83177458035425 154.47410308235703,150.1684871528123 155.3029307731049,149.74112079038605 167.02930773117987,147.79202274009367 167.3516296109119,147.8632536355035 168.431152097015,148.70506527207908 169.34695553309575,148.65326190694395 169.50555836281274,148.86047503073496 169.68462607376932,148.92522894780268 169.97625063162923,148.65973733066494 170.34461849419677,148.49137602924748 170.69252147549196,147.40348871556853 171.27065437089914,146.83363310250934 172.0739009600802,146.8530601102102 172.36552551793648,147.50709809743785 172.50877968672285,147.4876713554404 172.92830975239485,147.7337428376668 173.3734209196591,147.82440043297538 173.68039413846054,147.74669393322984 174.6166624557809,147.21569613874453 179.31335270339332,146.45804273548129 180.09613441132387,146.5875569883865 180.290550783222,146.52927561798424 181.0375189489605,146.68469244787048 182.61843102577404,147.50709809743785 183.39098029307934,148.0380926561993 184.62910560889213,149.13244089315776 186.1844365841389,151.23041127626857 187.75,153.54195726452235" stroke="#4dd2ff" stroke-linecap="round" stroke-linejoin="round" stroke-width="0.5"><title>2022-08-21 16.1km</title></polyline><polyline fill="none" points="52.75,202.84931268227592 52.19922021210368,202.20345077544698 48.79348097317779,197.37519340459403 47.44432314411097,196.14087091763213 46.595414847171924,195.60364276509426 45.150249532132875,194.88732905562574 43.43222083592627,194.701853199389 42.73490330630739,194.8361633749446 42.31550218340999,195.0152430148446 41.309950093575026,195.06001281872523 40.65305676855496,195.2710698939518 39.01082345601753,195.46933477212588 37.71724890830228,196.08331105072648 36.812757330008026,195.84027972818512 36.590424204612646,195.61643398259548 36.35293200251181,195.10478258015792 35.66066749844322,195.0664085015378 35.0492514036232,195.6420164072224 34.75112289456956,196.3775051890334 34.74101684341804,196.6461156279547 34.07907049283676,197.11937792250683 33.63945726763268,196.83797929188222 32.82592014972033,196.94030626063613 31.72436057392406,196.1024976808185 31.345383655643673,196.01935556076933 21.774953212738183,197.64379816959263 20.592545227707888,197.75891402986235 19.546568933252274,198.01472604818264 19.309076731133246,198.26414143208967 19.031160324404482,198.3600700752104 16.797723019339173,198.06588828557142 15.807330006249686,197.80368123307198 15.610262008736754,197.9763543337467 15.286868371807941,197.87402960954932 14.63502807237819,197.2600766091091 14.629975046787877,196.7484430123768 14.533967560815654,196.51181059944065 13.887180286979856,196.04493776714298 13.685059263887524,195.699576811945 13.043325015598384,195.22630029014908 13.114067373673606,195.07919986454726 12.977635683095286,194.9640774727377 12.982688708678324,194.84895480031264 13.16965065502518,194.9576817760717 13.240393013111316,194.86174622221006 13.179756706180342,194.9640774727377 12.977635683095286,194.8361633749446 13.119120399256644,195.1239696077937 12.856363069251529,195.29025685401575 12.25,195.0408257651361 12.805832813479356,195.2774655481844 13.164597629456694,195.23909160985568 13.69011228945601,195.64841201120362 13.912445414855029,196.01296000702496 14.493543356209557,196.3711096837833 14.629975046787877,196.62692921869893 14.720929507177061,197.29205352488134 15.372769806625001,197.88042491130182 15.61531503430524,197.95716846485084 15.87301933874187,197.7844952940286 16.600655021837156,197.98914490867537 18.990736119776557,198.34088436215825 19.187804117296764,198.28972242262535 19.64762944479662,197.9379825881515 31.421179039301933,195.9362132943752 31.678883343734924,196.01296000702496 32.77033686837967,196.8699564934468 33.01288209608174,196.91472453923416 33.674828446659376,196.8187929605665 34.018434185894876,197.08740088982086 34.66016843418038,196.7036748089704 35.0239862757262,195.60364276509426 35.57981908920556,195.07919986454726 35.82236431691854,195.0152430148446 36.36809107922454,195.03443007886017 36.75717404865645,195.699576811945 37.67682470367072,196.00656445240747 37.9850592638868,195.9298177293458 38.8794447910077,195.3861915374655 43.609076731136156,194.65068731772772 45.27657517154876,194.855350511687 46.064847161578655,195.33502639720973 46.77227074235998,195.64841201120362 47.47464129756918,196.14726645406336" stroke="#4dd2ff" stroke-linecap="round" stroke-linejoin="round" stroke-width="0.5"><title>2022-08-19 15.6km</title></polyline><polyline fill="none" points="97.75,202.79897204124063 97.64477916614851,202.63411008578623 97.58966349127877,202.52631541658047 94.66352220709814,198.4109098800909 93.77165037733357,197.30748852631586 92.46891624396812,196.1215986627285 90.32942595571512,194.96738824813656 88.65090313003384,194.72639567065926 87.75903130025836,194.8976273664157 87.45338983050897,195.04349090970936 86.34105530124725,195.12593532015308 85.9001299022566,195.30350740357244 83.99112334528763,195.52547156102082 83.24956699245013,195.95671320226393 82.80864159345947,196.10891518638527 81.99192750216025,195.88061202469544 81.76144377087621,195.60791512297146 81.55100210318051,195.13227719188217 80.89462452060252,195.09422594870193 80.73428801187038,195.16398653757642 80.18814177904642,195.7347510887339 79.8875108251923,196.70503486157395 79.49168006928448,196.88894259151857 79.26119633798953,197.11724083783702 78.89041816158351,196.86357605102603 78.03863045899197,196.9650421306178 76.88120128666196,196.08354822337787 76.61564394407833,196.04549775310443 70.6130458988082,196.98406699605766 69.18504886799201,197.3201716780677 65.42716194482637,197.87188545507524 64.92109983916453,197.98603232164533 64.35992205864386,198.37286130065695 61.22834962265915,197.85286095025003 60.982834343678405,197.9670078632007 60.662161326235946,197.87188545507524 60.00077322776633,197.22504795618806 59.98073116417072,196.69235154323542 59.855468266730895,196.43234276026124 59.24919584312738,196.0264725063862 59.10890139798357,195.74109287801184 58.79323889645093,195.46839516387263 58.45252381541286,195.25911444584926 58.19197698873904,195.30350740357244 57.49050476308548,195.0054395943771 57.25501051590254,195.06251655577944 57.290084127183945,195.2844818554222 57.665872819492506,195.6459659487664 57.74604107385676,195.58254788858903 57.56566250155083,195.3288747890947 57.40532599281869,195.3669258416412 57.25,195.20837958548145 57.32515773846535,194.99909770548402 58.19197698873904,195.30350740357244 58.50262897438006,195.24643073591142 58.71808115798922,195.38595135629657 59.103890882091946,195.7347510887339 59.24919584312738,196.0074472519118 59.925615489293705,196.47039291622787 60.020815291354666,197.25041430093188 60.65715081033704,197.8655439543254 60.98784485959186,197.96066637534386 61.21331807497336,197.82749493183655 61.884727205248055,197.9987152896574 64.33486947915662,198.35383699933664 64.99625757763715,197.9416419065892 76.60562291228416,196.0264725063862 76.93130644562916,196.08354822337787 77.96848323642917,196.90796748789944 78.85033403438865,196.84455113661534 79.24115427440483,197.11724083783702 79.87748979340904,196.69869320282305 80.20818384263112,195.6459659487664 80.88961400468907,195.08154219410062 81.62114932575423,195.1132515741665 81.91175924781419,195.71572571577053 82.57314734628744,196.00110549872625 82.90885191142297,196.03915600505934 83.18443028578986,195.96305496146306 83.97609179759456,195.4366860242808 86.22080291970633,195.15130280188896 88.71603983669411,194.701027958763 90.35948905108671,194.93567876933957 91.76243350241202,195.6459659487664 92.60420017320212,196.18501599294177 94.00714462451651,197.4913938905811 95.5253309414802,199.6221068398263" stroke="#4dd2ff" stroke-linecap="round" stroke-linejoin="round" stroke-width="0.5"><title>2022-08-14 16.5km</title></polyline><polyline fill="none" points="142.75,202.91083746415097 139.68852006381712,198.5835009291004 138.59513437231362,197.17451367994363 137.41725978648174,196.09258375050558 135.49389495643845,195.01691913117247 134.8030739968126,194.80304132590027 133.68483863050278,194.6835209469682 133.52580071174816,194.58916253584903 132.36780586575696,194.96659503030241 131.30920971898013,195.01691913117247 130.77245674316146,195.21821498952704 128.93855074242674,195.41950997555978 128.16821082341266,195.86613011108784 127.74576635169433,195.99193782482325 126.87105779850026,195.68999873944267 126.66729046508772,195.43209088321237 126.54801202602175,195.05466217106368 125.7627623021217,194.99804759973995 125.17630997668675,195.5956423727912 124.85326420419733,196.57064891955815 124.19723278929814,197.02983846281495 123.7896981224767,196.75306722672758 122.94977911399837,196.81596992518462 122.04028101608128,196.09258375050558 121.56813719474303,195.92903401055446 116.49383359922285,196.74677695220817 114.25239293165578,197.19967454128346 110.50009203583613,197.75321004295256 110.00806847466447,197.88530276747042 109.69993250706102,198.1431970042504 109.3967664744232,198.2312581230617 107.2447846361647,197.954494044694 106.30049699350275,197.73433962307172 106.02218063566033,197.86643240123158 105.71901460302252,197.73433962307172 105.137532212535,197.19338432721634 105.02322370843103,196.45113308853615 104.38707203337253,195.9479051637718 104.16839489508493,195.57677107646305 103.90498834213213,195.3566053861141 103.57200269972236,195.15531012749125 103.33344582158315,195.21192450714807 102.99549024420776,195.00433811108087 102.42394772364787,194.92885191885944 102.25,194.63948704563154 102.36430850411489,194.77158862442593 102.45376733341982,195.23708643151258 102.39412811388684,195.23708643151258 102.82154252056716,195.19934353984354 103.37817523623016,195.85983971646056 103.82546938275482,195.73403164497722 104.07893606578,195.92274362443277 104.93376487912246,196.27500393496666 105.05801325317952,196.41339118327232 105.1176524727016,197.06757986723096 105.67925512333022,197.70917905132592 106.0520002454432,197.83498177383808 106.31540679837781,197.67772831746333 107.20005522150677,197.89788300733562 109.41167627929826,198.21238789737254 109.60550374279774,198.17464742298034 110.0975273039694,197.8098212565892 114.90345441158934,197.0235482257449 116.409344704869,196.67758387616414 121.70232543870588,195.9101628496719 121.95579212173106,195.98564744723262 122.94480917904002,196.784518586599 123.82945760215807,196.72161584556306 123.93879617130733,196.87887253845474 124.16244324456784,196.9732262986654 124.82344459444357,196.58951981214705 125.17134004173204,195.52015714145455 125.8224015216656,194.95401399656475 126.51322248128417,194.99175708755138 126.86608786354554,195.6208040893107 127.7358264817849,195.9604859283354 128.07378205914938,195.87871089779946 128.93855074242674,195.35031492248163 131.11538225549157,195.03579065494705 132.08948950791455,194.80304132590027 132.53678365445012,194.79675078731452 132.84988955700828,194.66464928009736 133.93333537858052,194.6080342334135 134.33093017548163,194.7212642577506 135.57341391581576,194.8156224005288 136.07040741195306,195.0798241806042 136.76619830653726,195.63967536774726 137.5514480304373,196.1114548372716 138.81381151062305,197.31289824865598 139.76803902320535,198.64011113098604" stroke="#4dd2ff" stroke-linecap="round" stroke-linejoin="round" stroke-width="0.5"><title>2022-08-12 16.3km</title></polyline><polyline fill="none" points="187.75,203.31368177726108 183.99379259981288,198.06707240350443 182.71707643622358,197.01268761122628 182.50018257058764,196.7444083400369 181.60303067186032,196.15169278425674 180.40518500487087,195.59640497719738 179.46859785784181,195.35307450338223 179.01509250243907,195.2844425989315 177.58556475170553,195.59016575033093 176.39264849075698,195.70871091627487 175.98843719572324,195.92708279193903 174.20399221032858,196.03938792496047 173.36106377798933,196.59467039315496 173.0258641674809,196.6695394274211 172.14350048685446,196.39501904028293 171.97097127556844,196.21408425446134 171.7540774099325,195.7211893370586 171.06888997078931,195.6712756336674 170.48722005842865,196.251519096033 170.19145569620378,196.95653626512285 170.171738072062,197.21857529480985 169.7231621226856,197.48685180510074 169.5555623174332,197.68649842692685 169.40275073029989,197.66154264650322 169.12670399220224,197.41822307906114 168.30842259006022,197.51180768014456 167.01691820838823,196.58843130146124 161.56499513144445,197.48061283423885 159.94814995131674,197.8424717483067 155.94054284322556,198.44764323674826 155.47717867576648,198.5412257470307 154.885649951324,198.91555388751294 152.76107594936548,198.6223304355408 151.75547711780746,198.38525479098462 151.27732473222568,197.83623282557164 150.76466650437942,196.07058374667758 150.22736124635412,195.49657724598 149.3548563777913,195.20333203457994 147.97955209347492,195.06606767730045 147.62463485881744,194.94128154305145 147.42745861732692,194.76034104803693 147.25,194.18631822273892 147.46689386562502,194.80401640499986 147.62956426485107,194.9100849566712 148.40348101265408,195.12222132742681 149.07388023369276,195.1409391955931 149.77385589094047,195.2906818671945 150.39003164556925,195.61512265273268 150.98648977604535,196.43245373485115 151.4153481012654,197.89238309963912 151.80477117818737,198.40397133356964 152.31250000000364,198.4788374279633 154.9102969814994,197.82375497759858 155.19620253164976,197.99220564008647 155.33915530671948,198.29791082497468 155.34408471274946,198.59737516197129 155.94547224926646,198.42268786857676 161.30373661149133,197.4743738625366 166.96762414800833,196.58219220892352 167.23381207400598,196.6445830961784 168.33306962026472,197.49932974431795 169.17599805258214,197.42446205839224 169.4569741966916,198.5661810509955 170.0682205452904,198.45388207667565 170.1569498539393,198.36029938900538 170.10272638753668,198.05459461806095 170.31469084713171,197.9360554877021 170.31469084713171,197.68025948308423 170.51679649464495,197.24353131515454 170.47736124635412,196.8629505362187 170.34919668938892,196.63834401126587 170.38863193769794,196.3887799215736 170.50693768257042,196.15169278425674 171.0541017526848,195.6712756336674 171.79351265822334,195.67751484955807 172.07941820837004,196.28895390717662 172.83854673807218,196.6071485739667 173.35613437195934,196.58219220892352 173.43993427459645,196.7381692686431 173.8293573515075,196.50732303271798 174.18920399222407,196.0581054205286 174.72157984421574,195.93956115357287 177.79752921130057,195.50905572420743 178.62566942551712,195.30939966692313 180.42490262902356,195.50905572420743 182.62834712755648,196.71321297456598 183.91492210321667,197.88614418367433 187.32114167479085,202.71481245378163 187.51831791627046,202.8458157832938" stroke="#4dd2ff" stroke-linecap="round" stroke-linejoin="round" stroke-width="0.5"><title>2022-08-07 17.9km</title></polyline><polyline fill="none" points="52.75,257.40646956582714 48.820686070695956,251.96001835669085 47.669958419959585,250.9416935073168 46.81392931392111,250.38515711315267 45.65384615384755,249.8345343472356 44.55457380457665,249.59770521839164 44.30197505198157,249.56810148710065 42.54781704781999,249.9588691263416 41.98648648648668,249.98255190130294 41.43918918919735,250.16609297242394 39.83004158003314,250.30818875634577 39.086278586288245,250.76407627883964 38.623180873171805,250.9002495518871 37.823284823287395,250.6515849942807 37.44906444906519,249.98255190130294 36.789501039500465,249.97663120876678 36.21881496881542,250.49764908321595 35.905405405403144,251.45085889663824 35.29261954261892,251.85345058824532 34.89033264032696,251.58703003071787 34.17463617463363,251.68767798769477 33.15956340955745,250.9416935073168 32.79937629937922,250.85288498327282 28.38825363826254,251.539666206103 26.72297297298428,251.88897320658361 22.41008316008083,252.5698178141174 21.946985446993494,252.6704635088645 21.42775467775573,253.01384119448994 19.687629937630845,252.8007105346369 18.40592515591925,252.51061435606607 18.242203742207494,252.6467821897677 17.952182952176372,252.5698178141174 17.372141372143233,252.04290421926999 17.29729729729661,251.43901790841483 17.18503118503213,251.23180009541466 16.604989604991715,250.82920267972804 16.474012474031042,250.55685526699745 16.249480249483895,250.34371263017965 15.898648648642848,250.11280693436856 15.674116424117528,250.17793430537495 14.86954261954088,249.89374142900851 14.62162162162349,249.63322966950727 14.354989604991715,249.72204067100392 14.336278586284607,249.781247905099 14.439189189204626,249.7101992145581 14.518711018714384,249.77532718530347 14.298856548859476,249.9588691263416 13.863825363823707,249.39639945019007 13.442827442831913,246.2286719261574 13.367983367985289,244.3042393867945 12.801975051970658,237.51179558078366 12.62889812890353,236.3391482939478 12.25,235.53367536109 12.3201663201653,235.4507581868893 12.652286902291962,235.63436028967044 12.801975051970658,235.48037148145158 12.736486486493959,235.33822748453167 12.582120582126663,235.26715531265654 12.282744282751082,235.46260350713055 12.268711018707108,235.58697917569953 12.596153846159723,236.10224603139795 12.708419958424201,236.6056618041439 13.606548856547306,246.5188097903847 13.966735966732813,249.46152788839026 14.25207900208261,249.91742423926917 14.443866943875037,250.06544151270646 14.790020790027484,250.15425163622785 14.794698544701532,250.2312202640387 15.033264033259911,250.13056895427144 15.211018711030192,250.15425163622785 15.66943866944348,250.75223510463184 16.0810810810799,250.63974378959392 16.45062370062442,250.8884084145393 16.417879417880613,250.6160613705979 16.155925155930163,250.3259506968643 16.249480249483895,250.32003005083243 16.50207900208261,250.55685526699745 16.628378378380148,250.81144094365663 17.217775467775937,251.208117997121 17.306652806659258,251.37389241588244 17.362785862791497,251.9659387806787 17.877338877337024,252.50469400585644 18.232848232844844,252.62902119203136 18.485446985450835,252.48101259697432 19.18711018711838,252.66454318029355 21.44178794178879,252.98423977607672 21.984407484414987,252.62902119203136 32.87889812888898,250.79959978226907 33.18295218295316,250.87656727399371 34.1512474012452,251.65807567145748 34.997920997928304,251.61071192379313 35.25051975052338,252.68230416360166 35.96153846153538,252.51653470548627 36.79885654885584,252.46325153189537 38.11798336798893,252.23235702939928 38.17411642411025,251.63439380404088 37.98700623699915,251.19627694315568 38.001039501043124,250.8884084145393 38.92723492722871,250.79367920037475 39.75519750519379,250.2667442004058 40.50831600832316,250.21937894550138 43.955821205829125,249.61546744756197 45.64449064449218,249.81085149209684 47.267671517663985,250.65750559540902 47.85239085238936,251.04826349805444 48.74584199584933,251.8593710266323 49.85914760913511,253.24473157033208 52.23076923076951,256.6073045170524 52.08575883575395,256.8736944893135 52.26351351351332,257.16968144422935 52.21673596674373,257.2703165525709 52.33835758835994,257.58997947824537 52.26819126818373,258.00435386733807 51.89397089397244,258.39504612391465 51.81912681913309,258.60222999533653 51.53846153845734,258.7975738894347 51.01923076922685,259.4368750789836 50.981808731812635,259.40135859137445 50.986486486483045,259.6144570843353 51.10810810811017,259.7328446873398 50.90228690228105,259.46055272135345 50.729209979206644,259.54342436871957 50.883575883584854,259.51382736983214" stroke="#ff0000" stroke-linecap="round" stroke-linejoin="round" stroke-width="0.5"><title>2022-08-06 24.1km</title></polyline><polyline fill="none" points="97.24295774651546,252.60754125872336 95.34154929577198,249.70665001244197 88.78169014083687,240.8296608027813 86.00352112674591,238.316151417137 83.94366197182535,237.0192625073396 81.40845070422074,235.7758375564881 79.81338028171012,235.32124818144075 78.30281690141419,235.1608043729284 75.2816901408587,235.85605899360962 72.59859154930018,236.13683351029613 71.88028169015888,236.43097738564393 68.5739436619624,236.69838014819834 65.70070422534627,238.15571247536718 63.60915492955246,237.50058409067424 62.785211267611885,236.08335271152464 61.25352112676046,236.05661230132682 60.08098591549788,237.17970329587115 59.37323943662341,239.38573769993673 57.989436619704065,240.32161619287945 57.366197183087934,239.89378712535108 57.25,239.54617464300827 57.503521126753185,239.47932594841404 57.58802816903335,239.10497242226847 58.23239436621225,238.48995997652673 59.257042253535474,238.02201315807906 59.38380281689024,236.92567192701244 59.37323943662341,237.94179348079342 59.18309859154397,238.1289726263858 59.468309859148576,237.74124400242 59.34154929579381,236.57804899469193 59.44718309859309,236.95241210188397 59.130281690115226,236.8588214581614 59.531690140851424,236.96578218658397 59.51056338026683,237.30003371614293 59.61619718310976,236.69838014819834 59.16197183098848,234.57250817737076 58.79225352112553,234.73295294199488 59.22535211266222,236.8187111551233 58.71830985915585,237.1395931231673 58.36971830983384,237.03263258302468 58.51760563380958,236.06998250734614 58.327464788737416,234.880027080515 58.084507042229234,234.773064092391 57.72535211266222,234.93350853110314 58.09507042253972,237.04600265687623 59.109154929581564,237.07274279915146 59.330985915483325,238.03538309794385 57.904929577467556,239.0916026272098 57.366197183087934,239.73335074713395 57.926056338023045,242.1933465672846 59.267605633802305,241.85911160262913 59.28873239434324,241.03020400818787 59.605633802835655,240.99009539968392 59.8063380281601,240.5221604301114 60.35563380280655,240.26813766080886 60.42957746479806,239.8536780552604 60.13380281690479,239.42584696016274 59.85915492957429,237.64765410643304 60.07042253520922,237.15296318251785 61.20070422535355,236.13683351029613 62.985915492979984,236.0432420934667 63.53521126759006,237.44710403064528 65.299295774661,238.07549290673342 66.38732394366525,237.90168361771066 67.82394366194785,237.04600265687623 66.69366197182535,238.35626111187594 68.55281690140691,237.7947239031564 68.49999999999272,237.32677378958033 68.79577464788599,237.04600265687623 68.61619718308066,236.89893174490135 67.61267605633475,237.03263258302468 66.27112676055549,237.95516343150666 65.4577464788672,238.14234255179326 63.85211267606064,237.63428411408677 63.37676056338387,237.08611286759697 62.933098591529415,236.06998250734614 61.30633802814555,236.0298718838094 60.15492957744573,237.05937272890878 59.415492957719835,239.35899818407051 57.86267605632747,240.32161619287945 57.41901408449485,240.0007445660376 57.366197183087934,239.73335074713395 57.95774647887447,239.0381234289307 59.235915492958156,238.1958222352623 59.51056338026683,237.59417412605399 59.64788732391753,236.7786008357798 59.29929577465373,236.88556165109912 59.59507042252517,237.04600265687623 59.235915492958156,236.59141913014173 58.73943661971862,236.59141913014173 59.29929577465373,236.61815939549706 59.415492957719835,236.8588214581614 59.01408450704912,235.13406371277233 59.15140845072165,234.94687888920453 59.193661971818074,235.06721203084453 59.109154929581564,234.83991597353452 59.0880281690188,235.70898630909505 59.51056338026683,237.04600265687623 59.37323943662341,237.92842352825392 57.989436619704065,239.02475362484256 57.39788732393936,239.81356896881334 57.86267605632747,242.1666078117487 59.193661971818074,241.89921985814 59.394366197164345,241.69867841774976 59.235915492958156,241.13716021781147 59.51056338026683,241.00346493763936 59.64788732391753,241.13716021781147 59.764084507020016,240.25476802324556 60.186619718289876,239.35899818407051 60.049295774624625,238.4632202181092 59.753521126753185,238.03538309794385 59.827464788722864,237.7813539306735 60.049295774624625,237.1395931231673 61.27464788731595,235.97639102712128 62.95422535211401,235.97639102712128 63.60915492955246,237.3134037537675 65.72183098593086,238.03538309794385 66.3239436619624,237.8214638426507 68.07746478872286,236.6716399045763 72.6619718309812,236.23042483845347 72.97887323942996,236.00313145906694 74.60563380281383,235.72235656218254 75.61971830983384,235.84268875861017 76.86619718308066,235.29450756481674 78.68309859154397,235.2009153494655 79.65492957746028,235.50843229526072 81.26056338028866,235.53517285398266 83.99647887323226,236.88556165109912 86.44718309860036,238.53006960065977 89.41549295774166,241.37781126596383 94.77112676057004,249.10507203550515 97.75,252.98184359989682 94.91901408450212,256.1767237084932 93.42957746481261,257.3530552057564 93.39788732393936,257.63376860605786 93.02816901409824,257.91448120852147 92.98591549295816,258.5561070182739 93.16549295774166,258.54273985639884 92.95422535212856,258.8368169993337 92.90140845069982,258.02141913295054 93.10211267606792,258.0882552769035 92.90140845069982,258.47590401998605 92.63732394365798,258.38233377305005 92.81690140846331,258.24866183791164 92.32042253522377,258.68977853734395 92.2359154929436,258.94375392513757 92.66901408452395,259.4249686583935 91.91901408451668,260.2670888001594 92.03521126761916,260.14678636236204 92.50000000000728,260.4007580036414 92.70070422535355,260.37402417744306 92.62676056338387,260.0665846557458 92.7640845070564,260.3205565032695 92.83802816904063,260.20025413059193 91.84507042256882,260.42749182262196 92.26760563379503,260.133419415768" stroke="#4dd2ff" stroke-linecap="round" stroke-linejoin="round" stroke-width="0.5"><title>2022-07-23 16.3km</title></polyline><polyline fill="none" points="142.75,255.96200572631642 140.843581081077,253.36474603687384 140.3874999999971,252.96072075334814 139.59391891890846,251.63319562992547 134.5496621621569,244.60273978456098 131.76756756757823,241.99358898155333 130.04358108107408,240.89679821437312 127.67195945945423,239.73072097655677 124.6435810810799,239.08417622899287 123.37567567569204,239.03799427368358 122.53648648648232,239.2227219448032 121.96182432433125,239.09572171390028 121.84324324326008,239.86926564166788 121.51486486485373,240.00781008166086 119.1523648648872,240.481168552913 116.01452702703682,240.85061724093975 114.76486486486829,241.67032580085652 114.09898648648232,241.84350265721878 112.48445945946878,241.18542873160914 111.85506756757968,240.10017291658733 110.55979729731916,240.06553686523694 109.36486486487411,241.09306707240466 108.78108108107699,242.8941013792719 107.96013513514481,243.3328091018775 107.75033783783874,243.59834162679908 106.7743243243458,243.2289048452658 105.36959459460923,243.40207853592437 103.28074324327463,241.80886731408827 102.25,241.80886731408827 103.32635135136661,241.7857770775081 105.27837837839616,243.3328091018775 106.93851351353806,243.2750845305127 107.33074324325571,244.57965030461492 107.41283783784456,245.3300552024084 107.24864864866686,245.44550152356533 107.39459459461796,245.7110274690931 110.48682432434725,245.11070676155214 110.6783783783685,244.83363424016716 120.17398648650851,243.3674438259186 119.48986486486683,242.5131165256098 118.32229729728715,241.64723552675423 118.39527027028089,241.4625131088469 118.8148648648712,241.45096794444544 118.86047297299228,240.5273497264934 119.2162162162349,240.2271716512114 122.16250000000582,239.71917557760753 122.89222972975404,239.7538117697186 123.30270270271285,239.49981270100398 124.51587837838451,239.31508563025272 127.73581081080192,239.66144855955645 129.9797297297264,240.80443624248437 131.96824324327463,242.05131442059064 134.40371621619852,244.31412083577743 140.68851351351623,253.0761567439913 140.5243243243167,253.3993766863714 140.29628378379857,253.457094404308 140.48783783784165,253.73413890662778" stroke="#4dd2ff" stroke-linecap="round" stroke-linejoin="round" stroke-width="0.5"><title>2022-07-16 10.3km</title></polyline></svg>