<?xml version="1.0" encoding="utf-8" ?>
<svg baseProfile="full" height="300mm" version="1.1" viewBox="0,0,200,300" width="200mm" xmlns="http://www.w3.org/2000/svg" xmlns:ev="http://www.w3.org/2001/xml-events" xmlns:xlink="http://www.w3.org/1999/xlink"><defs /><rect fill="#222222" height="300" width="200" x="0" y="0" /><text fill="#FFFFFF" style="font-size:12px; font-family:Arial; font-weight:bold;" x="10" y="20">Over 10km Runs</text><text fill="#FFFFFF" style="font-size:4px; font-family:Arial" x="10" y="280">ATHLETE</text><text fill="#FFFFFF" style="font-size:9px; font-family:Arial" x="10" y="290">Allen</text><text fill="#FFFFFF" style="font-size:4px; font-family:Arial" x="120" y="280">STATISTICS</text><text fill="#FFFFFF" style="font-size:3px; font-family:Arial" x="120" y="285">Number: 16</text><text fill="#FFFFFF" style="font-size:3px; font-family:Arial" x="120" y="290">Weekly: 1.6</text><text fill="#FFFFFF" style="font-size:3px; font-family:Arial" x="141" y="285">Total: 257.3 km</text><text fill="#FFFFFF" style="font-size:3px; font-family:Arial" x="141" y="290">Avg: 16.1 km</text><text fill="#FFFFFF" style="font-size:3px; font-family:Arial" x="167" y="285">Min: 10.3 km</text><text fill="#FFFFFF" style="font-size:3px; font-family:Arial" x="167" y="290">Max: 24.1 km</text><polyline fill="none" points="52.75,56.6530631208625 51.74613539445636,55.36898164997183 48.831689765462215,51.209152896724845 47.304304371005856,49.87028447374905 44.97814498934531,48.572367898636 43.12153518123523,48.3469368791375 41.842417377400125,48.68166742424364 40.69283049041769,48.736317098231666 40.201692430709954,48.92075931083673 38.16158049041769,49.17351235875685 37.35740938166418,49.658521417575685 36.82309434969284,49.77464965522449 35.889392324108485,49.44675747246947 35.56016791044385,48.74997950745092 34.772188166331034,48.70899226862821 34.14072494669381,49.33745960459055 33.74673507464104,50.45775152423448 33.320362473361456,50.65584933606806 33.0720948827402,50.894931866121624 32.937166844360036,50.88127003777845 32.6403251599113,50.61486364571101 31.7605943496892,50.71732780915772 30.589418976549496,49.8497913136016 30.16844349681196,49.7473253880562 25.170708955229202,50.52606120238124 23.265525053317106,50.92225551167576 18.159848081020755,51.73512719844075 17.555370469079207,51.89223534183475 17.312500000014552,52.138142757950845 16.977878464822425,52.24060382755488 15.461287313442881,52.06300450796698 13.637060234548699,51.68731157942602 13.383395522396313,51.823927513520175 13.118936567174387,51.769281184289866 12.368736673783133,51.106689732212544 12.25,50.31430089903006 12.41191364606857,51.09985884719572 12.99480277186376,51.64632672706648 13.324027185506566,51.79660435631013 13.604677505332802,51.639495915107545 17.048041044792626,52.21328089601593 17.749666844360036,51.78294277213354 23.173773987222376,50.91542460168421 25.09514925374242,50.47824443738864 30.44909381663092,49.68584573284534 31.701226012799452,50.65584933606806 32.72667910448945,50.61486364571101 32.861607142869616,51.20232202556872 32.67810501067652,51.23647637211252 32.59175106609837,50.99739546071578 32.46222014926752,50.96324095229647 32.0142590618525,51.05887351756246 31.895522388069367,51.188660280473414 31.852345415787568,51.13401326312305 31.787579957366688,50.901762778899865 31.873933901933924,50.847115450738784 32.64572228146062,50.70366593272411 32.91557835821004,51.90589689639819 33.49307036248865,51.87174300304105" stroke="#4dd2ff" stroke-linecap="round" stroke-linejoin="round" stroke-width="0.5"><title>2022-09-22 12.2km</title></polyline><polyline fill="none" points="97.75,56.654886257434555 93.63329646017883,51.03539966674725 92.24446902654745,49.769031525320315 91.33849557522626,49.19568934032941 89.93971238937957,48.59083717918111 88.40652654867881,48.3892180447001 87.23174778760585,48.6790452757632 86.16648230089777,48.748351520047436 85.52931415929925,48.96887070138473 83.76714601769709,49.19568934032941 83.03042035398175,49.62412153036712 82.5923672566314,49.731228961445595 81.7262168141533,49.447708753425104 81.42754424778104,48.79245543992511 80.72068584069712,48.73575039240313 80.12334070795987,49.271295307586115 79.83960176991604,49.91394106894222 79.76991150441245,50.310864899027365 79.32688053097445,50.55027763559701 79.17256637168612,50.745587113531656 78.99336283185767,50.72668623213758 78.72455752212409,50.48727440330185 78.0525442477956,50.60698047170081 77.85840707963507,50.56917858863744 76.77323008849635,49.75013024723012 76.54922566371533,49.680825495182944 71.30752212388325,50.49987505658646 70.15763274336132,50.75818769685793 65.2594026548577,51.5520175672973 64.88108407078835,51.64022005026345 64.5127212389416,51.93632716303182 64.27378318583214,51.98672818604609 62.28263274336132,51.72842236600627 61.1526548672482,51.470115112013445 60.988384955751826,51.60241900660549 60.59015486725184,51.50161607341215 59.96792035397448,50.865292517373746 59.89325221239051,50.15965622016665 59.271017699113145,49.731228961445595 59.03705752212045,49.3406006696714 58.78318584070075,49.120083250207244 58.50940265486861,48.92476694873767 58.205752212394145,48.975171234043955 57.56858407079562,48.685345847679855 57.36449115043433,48.6790452757632 57.25,48.46482532252412 57.25,48.8050565522135 57.309734513273725,48.65384297950732 57.51382743362046,48.66014355484731 58.19081858406207,48.96257016784148 58.45464601768617,48.89326424266255 58.73838495574819,49.038176513924554 59.13163716812414,49.403605454677745 59.26603982299275,49.68712593145028 59.913163716802956,50.096652458945755 60.05752212388688,50.947196037279355 60.61504424778468,51.470115112013445 60.90873893803655,51.570918113433436 61.192477876098565,51.41341332772572 61.92422566372261,51.63391987844079 64.31858407079562,51.967827808814036 64.90099557521899,51.621319532259804 65.39380530972267,51.49531588283571 76.31526548672628,49.66822462008713 76.85785398229928,49.75013024723012 77.87831858406571,50.543977316199744 78.77433628317885,50.474673746597546 78.82909292035038,50.60698047170081 79.1178097345146,50.72668623213758 79.76493362831388,50.317165249995014 79.78484513274452,49.99584626353317 80.06858407078835,49.30279775769668 80.69579646017519,48.7294498272895 81.44745575221168,48.73575039240313 81.74115044247446,49.34690115200283 81.88550884956203,49.34690115200283 82.29369469027006,49.60522019338896 82.70685840708757,49.68712593145028 83.02046460177371,49.61782108555417 83.90154867257297,49.07597964090019 88.46626106195254,48.345113742565445 90.13384955751826,48.546733068174944 91.96570796459491,49.5233143111509 93.67311946903283,50.97869735272616 94.78816371681387,52.49703546948149" stroke="#4dd2ff" stroke-linecap="round" stroke-linejoin="round" stroke-width="0.5"><title>2022-09-17 16.2km</title></polyline><polyline fill="none" points="142.75,56.62664167294861 138.6661753868757,50.97981660043661 137.3231392778216,49.77104252693243 135.12951363300817,48.59371673424175 134.47291820191822,48.44890989862324 134.3734340456831,48.51186944778965 133.52284450994193,48.37335832705503 132.30416359616356,48.675563876611704 131.3341930729548,48.72593127723303 130.75718496683112,48.91480854354813 128.871960206332,49.1540519793125 128.01639646277545,49.66401414136271 127.61348563005959,49.74585939955068 126.80268975682338,49.44995663107693 126.4246499631663,48.763706791862205 125.77800294768531,48.70704350839878 125.13633014001243,49.31774414708343 124.85280029475689,49.9913943096617 124.81300663227375,50.29358934203992 124.3852247604882,50.52653000560895 124.17133382460815,50.74687820784675 124.04200442151705,50.740582559421455 123.76842299188138,50.488755923241115 122.9476787030253,50.58319107165153 121.91304347825644,49.777338306645106 121.52008106116045,49.67030993557637 110.47236551216338,51.51494092023131 109.9550478997844,51.64085162985066 109.3979366249223,51.99339980288278 106.20946941784132,51.47716764085999 106.0552689756878,51.60307845276475 105.67225497421168,51.496054284387355 105.05047899780038,50.89797351439847 104.94602063374623,50.17397070991501 104.29439941047167,49.68290152142072 104.01584377304243,49.242193987414794 103.578113485637,48.927400333999685 103.26971260134451,48.96517568494528 102.32461311717998,48.58112485341189 102.25,48.40483816347114 102.38430361091741,48.63778829034709 102.99115696389345,48.782594537689874 103.27966101695347,48.95258390471645 103.62288135594645,48.91480854354813 104.11532792925937,49.305152462329715 104.29439941047167,49.64512675363221 104.9012527634477,50.04176028478469 105.0355563743542,50.31877217274814 105.06042741342026,50.86649536601544 105.61753868829328,51.43939433079868 106.00552689757387,51.59048738692945 106.2293662490847,51.43939433079868 107.44307295504768,51.70380685681084 109.40291083272677,51.961922396109 109.94012527634914,51.60307845276475 110.46241709653259,51.48975873740346 121.6145910095729,49.65771834631232 121.84837877671453,49.720676258533786 122.942704495199,50.57059972959905 123.75847457627242,50.48246023984757 124.15641120117289,50.74687820784675 124.38025055268372,50.53282568303257 124.79808400884576,50.343954989799386 124.82792925571994,50.02287305051141 125.13135593220795,49.28626492881449 125.74815770080386,48.72593127723303 126.51418570376336,48.75741087489587 126.82258658805586,49.39329418397392 127.70799557847204,49.70178889381714 128.04624170964962,49.63253515755059 128.84211495946874,49.147756115202355 131.97586588062768,48.58742079425065 132.55784819453766,48.56853296915142 133.46812822401262,48.37965429603719 135.10464259395303,48.54334919040048 136.91525423727944,49.46884409809354 138.22844509948118,50.50764296825946 139.7704495209873,52.352240733882354 140.58621960204982,53.61130981482347" stroke="#4dd2ff" stroke-linecap="round" stroke-linejoin="round" stroke-width="0.5"><title>2022-09-11 16.4km</title></polyline><polyline fill="none" points="187.75,56.732673706083006 186.34184456090225,54.91130757128849 184.76284673399277,52.54604996548369 183.60318931356232,50.99972488387357 182.17432570624806,49.689241217416566 181.45989390259638,49.250221252910706 179.95337466444835,48.496670236825594 179.1975265243491,48.37216937413541 178.21906557587135,48.26732629392063 176.9972836507768,48.57530219560067 175.92563594528838,48.64082873029838 175.18531893134787,48.843960423891986 173.57008181003766,49.04053867030234 173.11450210916155,49.197800692429155 172.47254889428223,49.61716358607009 172.15157228684257,49.663031182080886 171.2714751374042,49.39437750135767 170.89355106736184,48.67359196434336 170.1584110954791,48.62772343044344 169.78048702543674,48.9094865947809 169.49574971238326,49.26987894843114 169.17477310493268,50.259305973610026 168.48104946950843,50.73107862423058 168.0927713153469,50.455878470340394 167.1971430397498,50.547612028862204 166.24974434358955,49.78097622928544 165.84593506327656,49.59095351171345 159.6438386808004,50.58037397189764 158.74303336315643,50.829364014174644 154.24418381693977,51.50425163363616 153.70577144317213,51.61563994744574 153.162182027354,52.0022209299168 151.06547999488248,51.75978914944426 149.8126358174486,51.46493804990678 149.59520005112063,51.61563994744574 149.1965678128472,51.478042581347836 148.6115620605815,50.89488749658631 148.59085389235406,50.357592321790435 148.48213600919553,50.11515230186342 147.8764220887133,49.6761362015277 147.51920618687654,49.16503781330539 147.35354084110077,49.0339860749591 147.25,49.06674904282045 147.32247858876508,48.98156528023537 147.70040265881835,49.309194315534114 147.84535983636306,49.60405855067074 148.4355426307011,49.96444573129702 148.60638501852372,50.33793506812799 148.64262431292082,50.86867811426055 149.22245302313604,51.46493804990678 149.52789850440604,51.60253545325395 149.87476032212362,51.46493804990678 153.1000575226899,51.98911654040057 153.83519749456173,51.550117440958275 165.7993416847712,49.571295946596365 166.0478397034385,49.636821132546174 167.17643487153327,50.49519287384828 167.41457880607777,50.547612028862204 168.08759427329642,50.42311644300935 168.3102070816749,50.69831678319679 168.4965805956781,50.73763098976269 169.12300268438776,50.31172538415558 169.49057267031458,49.17814296760844 170.11181771698466,48.62117077919902 170.88837402531135,48.60151282012157 171.16793429630707,49.26987894843114 171.28700626358477,49.24366868595098 171.6856385018582,49.47300800132871 172.17228045507,49.597506031626835 172.53467339894632,49.52542826364515 173.38370829604537,48.98156528023537 174.07225488943004,48.916039206975256" stroke="#4dd2ff" stroke-linecap="round" stroke-linejoin="round" stroke-width="0.5"><title>2022-09-10 13.4km</title></polyline><polyline fill="none" points="52.75,121.70955623956615 48.80853314528213,116.18241909188146 47.34411463008291,114.83504293274018 46.9079048595886,114.55241782218582 44.991697653549636,113.54678489730577 44.55029490960442,113.44819231256406 44.20236568791006,113.47448368808182 43.25205154507057,113.29044376043385 41.57991409155511,113.65852291788542 40.6503718425447,113.73082385297676 40.427073983843,113.8819981873603 38.44855109629498,114.1120451840834 37.519008847288205,114.64443548071358 37.12953583793569,114.71016227286964 36.27788819078705,114.40124557588206 35.92995896908178,113.71767823640766 35.18217079111855,113.65852291788542 34.53304910886072,114.28950926514517 34.22147070136998,115.00593173612288 34.17473394025001,115.34113494906705 33.7956468777993,115.51202197066232 33.51522631106491,115.77492390606858 33.09459546094877,115.51202197066232 32.20140402614561,115.57117503027621 31.147230414153455,114.75617097440772 30.825266059749993,114.63786279661508 24.70794332607329,115.61061036331012 20.77166944478813,116.35330315172541 19.281286062316212,116.54390389338369 18.725637902294693,116.6884970602332 18.26346326451312,117.01711629215788 18.050551352731418,117.06969516283061 14.867258622893132,116.55047631940761 14.508943454282416,116.66877983556333 14.202558020246215,116.54390389338369 13.610559046017443,115.98524442913913 13.465155789195705,115.18339254897728 12.816034106926963,114.71016227286964 12.577157327858004,114.32237291264755 12.25,114.06603587196514 12.613508142061619,114.28293653297806 12.795262213097885,114.61157205127529 13.41841902807937,114.99278646491439 13.558629311446566,115.24911861132205 13.631330939857435,115.90637433980373 14.264873701740726,116.5307590386692 14.586838056155102,116.6227729468701 14.825714835224062,116.4781795842573 15.604660853950918,116.66877983556333 18.045358379280515,117.01054392933293 18.24788434414586,116.9711097336185 18.767181689963763,116.6227729468701 30.7369855109755,114.60499936272026 31.136844467240735,114.67072620825274 32.237754840349226,115.54488479045904 33.18287600974509,115.47258655755286 33.307507372737746,115.69605347496326 33.494454417224915,115.76835137503804 33.72813822284297,115.5383122282874 34.17473394025001,115.3082719913109 34.507084241558914,114.21720916229606 35.03676753430045,113.71767823640766 35.22371457878762,113.65195010027674 35.94553788947087,113.69138699265022 36.26750224388525,114.30265472682004 37.19185151941929,114.65758084626577 37.62806128990269,114.53927242815917 38.49528785741495,114.03974481688783 43.194928837026964,113.30358949268339 44.24910244903003,113.3693181005874 45.04362738812051,113.52049356095813 46.33667777919982,114.16462720167328 47.167553532508464,114.68387156668541 48.149025516097026,115.50544940404507 48.96951532248204,116.36644805449396 52.47477240672379,121.26924852492812" stroke="#4dd2ff" stroke-linecap="round" stroke-linejoin="round" stroke-width="0.5"><title>2022-09-03 16.2km</title></polyline><polyline fill="none" points="95.53781512605201,122.99171336418658 95.85236822001389,122.58713954067935 96.14113827349502,122.4435802711123 97.11058059587594,121.5234857122341 97.4870129870178,121.09932273277809 97.44576012222387,121.01448968907789 97.75,120.75346400290073 93.69174942703103,115.0431734705744 92.09835752482104,113.5485971692251 91.04640947288863,112.9089826699892 89.75725744843658,112.26935968246107 88.00916730328754,112.06050135827536 86.77158135981153,112.34115452233891 83.3166539343074,112.8437154070889 82.49675324675627,113.33321772451018 82.12547746371638,113.4441708919876 81.19213139800559,113.15699746296013 80.8053857906707,112.491270660179 80.09377387319182,112.4064224658141 79.4285714285761,113.03299022601641 79.07792207792227,114.09030485139374 78.69633307867844,114.24694208258006 78.44881589000215,114.49494999089438 78.30958747136174,114.48842348332983 78.01050420167667,114.23388899942074 77.1235676088545,114.32526050727756 76.09740259739192,113.53554389693818 75.67456073339417,113.39195766851844 63.6596638655501,115.40212594244804 63.31932773108929,115.72844405180876 63.11822001529072,115.79370740857848 60.45741023683149,115.42823147251329 59.80767761651077,115.25201887032745 59.65297937356809,115.38907317213307 59.255920550036535,115.26507167774616 58.64228418638959,114.69727128675004 58.601031321617484,114.09030485139374 58.42570664629602,113.77702886191764 57.915202444615716,113.45069754093856 57.58002291826779,112.98730326882287 57.25,112.74581434705033 57.67799847211063,113.06562374034911 57.910045836513746,113.45069754093856 58.4927425515707,113.84229486096592 58.59071810542446,114.01851261698175 58.6577540106955,114.67769184361168 59.24560733384351,115.26507167774616 59.65297937356809,115.38907317213307 59.86955691367257,115.25201887032745 63.08212375859512,115.78718107688837 63.623567608865415,115.44128423221628 63.94327731091835,115.34338844816739 75.7261268143593,113.37890435383451 76.06130634070723,113.46375083619932 77.11325439266875,114.29915437985983 78.06207028265271,114.23388899942074 78.28380443087372,114.49494999089438 78.47459893047926,114.49494999089438 78.6396103896077,114.29262784578532 79.10886172651226,114.03809232789354 79.150114591288,113.67912969761164 79.44919786095124,112.95466970143752 79.9545454545405,112.47821710153221 80.22784568373754,112.4064224658141 80.81054239878358,112.43905640441153 81.18181818181256,113.11131062330969 81.84702062642828,113.37890435383451 82.1822001527944,113.41153763393959 83.41462948815024,112.79150153314549 87.35943468294863,112.1257696818102 88.13808250573493,112.00828663580978 89.01470588235316,112.17798427700109 89.85007639418836,112.21714518626322 90.28323147441915,112.5239045413291 91.54660045836499,113.11131062330969 92.51604278075683,113.84229486096592 93.32047364399841,114.5863210038624 94.27960275018631,115.76107574123307 97.1621466768629,119.88554343420401" stroke="#4dd2ff" stroke-linecap="round" stroke-linejoin="round" stroke-width="0.5"><title>2022-09-01 16.9km</title></polyline><polyline fill="none" points="142.75,121.73041997011387 138.52314636956726,115.89528961910764 137.2888013830052,114.7859446683724 136.48492124470795,114.34613816348065 136.15818286592184,114.05074349478309 134.93939684977886,113.4993352969359 134.1977525931652,113.38117558131853 133.21753745678143,113.26958002988249 131.94170188243152,113.59123709882988 131.6149635036527,113.55185063363024 130.77996542449546,113.67657433030035 130.30800998846098,113.86037708779622 128.52391471379087,114.02448610377905 127.55925854782981,114.59558114859101 127.1702842873492,114.6874808721659 126.30935459084503,114.3986525828077 125.92556665387019,113.6962675161958 125.13205916250809,113.64375233596729 124.53044563964067,114.23454483353271 124.22445255474304,114.95661477471367 124.17258932000186,115.30451736140458 123.74212447176615,115.51457054452476 123.50355359200694,115.75744340292295 123.11457933154452,115.46862148848959 122.56482904340737,115.58677611601524 122.04101037263536,115.44236486548107 121.10747214751609,114.7137379040505 120.78592009219574,114.60870969117605 109.19967345370242,116.5516947950855 108.71215904724886,116.65671879844376 108.343930080664,116.97178944345069 108.07942758355057,117.05055678473946 106.28495966192713,116.82081834823839 104.786112178248,116.47949066077126 104.54754129851062,116.63702681514405 104.15856703803001,116.49261869320617 103.90443718784809,116.17098087554041 103.63474836726527,116.00687912605645 103.53102189779747,115.77057163087738 103.55176719169685,115.35046657298517 103.41173645792878,115.04851381385379 102.81012293506137,114.64809529767444 102.60785631963154,114.30018799990648 102.25,114.01792175380615 102.6389742604515,114.30018799990648 102.79456396466048,114.62183823025771 103.44285439877058,115.05507802427746 103.6191893968462,115.89528961910764 104.19487130233756,116.49918270807393 104.51642335765791,116.63046281894276 104.79129850172467,116.44010654217709 105.62111025739796,116.66328279110166 108.07942758355057,117.0177370747515 108.86774875143601,116.57795081724544 120.8014790626039,114.61527396116071 121.12303111793517,114.66122382605681 122.24846331156368,115.56051955699877 123.08346139070272,115.46205733408351 123.30647330003194,115.69180220982525 123.50873991549452,115.72462281749904 123.72656550134343,115.50800639633962 124.1414713791819,115.32420988598096 124.47339608143375,114.30018799990648 125.16317710332805,113.63062353202258 125.88407606606415,113.62405912870963 126.24193238571388,114.28705937376435 126.3560315021059,114.26080211075896 126.7968689973095,114.54306694259867 127.28956972723972,114.62183823025771 128.3890703034922,114.03761480104731 128.84028044563456,113.94571384545634 133.15530157509784,113.26958002988249 134.20293891663096,113.34178894543948 134.87716096811346,113.45338433064171 136.51603918554974,114.24767347392844 137.38734152900724,114.83189437149849 138.25864387245383,115.59334025355929 139.75230503264538,117.39844434466795 142.3299077986885,121.14628219761653" stroke="#4dd2ff" stroke-linecap="round" stroke-linejoin="round" stroke-width="0.5"><title>2022-08-28 16.3km</title></polyline><polyline fill="none" points="187.75,121.59022114943218 183.7889121855187,116.11567882837699 182.62506166750245,115.05356856251456 181.98069807598586,114.60469327007013 180.15749876666086,113.65635099699284 179.47317464233493,113.51725917707154 178.79384558462698,113.40977885057146 177.6499753330172,113.65002865052884 177.37524666996978,113.80176472930543 176.30130735076818,113.8649879498771 175.79181055748631,114.01672333001989 173.87370498275777,114.26329227091264 173.05451406018983,114.75642624613829 172.73982486434033,114.83861473559227 171.86069314258202,114.55411550178542 171.4610878145213,113.8649879498771 170.79174888999114,113.84602099271433 170.17735569807337,114.4087041127932 169.8277010360216,115.40760800238786 169.24827331032793,115.84383147762492 169.0634558460879,115.84383147762492 168.758756783438,115.59727088372892 167.93956586088098,115.66681374717155 166.93056240749502,114.87654783578546 166.63085841145949,114.76907063853287 155.4269240256508,116.62775907385003 154.9424025653716,116.73523199258489 154.62771336951118,116.98810847260029 154.3130241736617,117.09558056187234 152.0152935372571,116.7858073981588 151.16613221510124,116.570861546159 151.02127528367782,116.69730040245122 150.83146275284162,116.70362233628839 150.53675382338042,116.53925177856945 150.04224222989433,116.06510269691353 149.89239023187474,115.28748777906003 149.2580167735614,114.8070037952275 148.84342624568308,114.23800320867667 148.4887765170206,114.00407873382937 148.22903305377622,114.06097938966195 147.55969412926788,113.7764754170712 147.3748766650242,113.7448637575435 147.25,113.85234331262836 147.2949555994055,113.7448637575435 147.4897631968488,113.7511860911618 148.22903305377622,114.04833480544767 148.5387271830332,113.99143413422644 148.8634065120932,114.22535867245097 149.22305130734458,114.69320423269528 149.91736556487012,115.21162221560735 150.05223236309394,116.02084853695123 150.61167982239567,116.58350544717541 150.92636901825608,116.69730040245122 151.21108781450675,116.53292982248968 154.36297483967064,117.0702930337211 154.87247163296342,116.71626620136522 155.12222496300092,116.64672490102384 166.58090774543962,114.73113745103183 166.91058214110672,114.81964817394692 167.94456092748442,115.6478475219701 168.13437345832062,115.68577996467502 168.7138011840325,115.54669419069614 169.19332757770462,115.831187376265 169.39812530834752,115.61623712947767 169.8277010360216,115.4202522184496 170.1324000986715,114.4087041127932 170.52701036013968,113.97246722843192 170.8067340898051,113.80176472930543 171.5060434139159,113.83337635029238 171.82572767636884,114.44031532284134 172.71984459794112,114.7817150275223 173.3042673902346,114.57308217130412 173.83873951653368,114.22535867245097 174.22335964481317,114.130524541466 177.66995559940915,113.68164037428869 177.95966946226326,113.5362262678209 178.53410212136077,113.43506836142114 179.3982486433306,113.58048278294882 179.51313517514427,113.52358154150716 180.26239516528221,113.66899568735244 180.93672915639763,114.05465709798227 181.4362358164908,114.21903640305027 182.48020473607903,114.88919219566742 183.83886285151675,116.12832285264813 185.3773433645838,118.20821824319864 187.24050320671813,120.9770537543809 187.38536013815246,121.05923129513394" stroke="#4dd2ff" stroke-linecap="round" stroke-linejoin="round" stroke-width="0.5"><title>2022-08-26 16.9km</title></polyline><polyline fill="none" points="52.16675088428383,185.19375588607 50.26351692773824,182.50660640426213 48.92306720567285,181.01080236350026 48.30400454775372,180.46038650368791 47.34727134916466,179.85168394044376 45.95054320363488,179.1782167566962 44.27753916117945,178.9709941765541 43.41801414855945,179.13936259132606 43.07522738756961,179.32068175965833 42.00082112177188,179.35953577770124 41.499431531086884,179.56028103469362 39.53480293077155,179.7804522830338 38.685510358765896,180.28554719887688 38.28644517432622,180.36972916618106 37.432036382011574,180.0718538471083 37.04831985851342,179.3789627748738 36.32181657403271,179.3530601102102 35.69252147549196,179.9747201897262 35.32415361293533,181.00432691963215 34.93532086912819,181.19858985449537 34.69997473472176,181.42522894780268 34.3162582112127,181.15973733066494 33.47208185953423,181.27629480749238 32.41814047499793,180.42153338009302 32.06000505306292,180.29202274009367 20.16990904497652,182.29292297712163 19.7247978777159,182.61021014644575 19.37689489642071,182.68143758902806 16.2406518443604,182.16341740509597 16.02577059120449,182.31882404944554 15.647170288011694,182.16341740509597 15.079269833247963,181.63244089315776 14.94624810510868,180.84244053775546 14.301604345615488,180.33735150398934 13.917887822135526,179.81930592749995 13.467660434551362,179.51495153418 13.201616978261882,179.58618358711828 12.55185699849244,179.30125473878797 12.25,179.30125473878797 12.797435573513212,179.32715743151857 13.186268317327631,179.54085411117921 13.447195553311758,179.48257329324042 13.697890348652436,179.59913485805373 14.117420414342632,179.96824460555945 14.311836786248023,180.32440043297538 14.86438858008114,180.66760262979005 15.038340070750564,181.0496550083517 15.109967155131017,181.65186696702222 15.682983830211015,182.15694211729715 15.989957049001532,182.27997243569916 16.302046488130145,182.11809037203057 17.151339060135797,182.33177458035425 19.474103082357033,182.6684871528123 20.30293077310489,182.24112079038605 32.02930773117987,180.29202274009367 32.351629610911914,180.3632536355035 33.431152097015,181.20506527207908 34.34695553309575,181.15326190694395 34.505558362812735,181.36047503073496 34.68462607376932,181.42522894780268 34.97625063162923,181.15973733066494 35.344618494196766,180.99137602924748 35.69252147549196,179.90348871556853 36.27065437089914,179.33363310250934 37.07390096008021,179.3530601102102 37.365525517936476,180.00709809743785 37.508779686722846,179.9876713554404 37.92830975239485,180.2337428376668 38.37342091965911,180.32440043297538 38.68039413846054,180.24669393322984 39.6166624557809,179.71569613874453 44.31335270339332,178.95804273548129 45.096134411323874,179.0875569883865 45.29055078322199,179.02927561798424 46.037518948960496,179.18469244787048 47.61843102577404,180.00709809743785 48.39098029307934,180.5380926561993 49.62910560889213,181.63244089315776 51.18443658413889,183.73041127626857 52.75,186.04195726452235" stroke="#4dd2ff" stroke-linecap="round" stroke-linejoin="round" stroke-width="0.5"><title>2022-08-21 16.1km</title></polyline><polyline fill="none" points="97.75,186.59931268227592 97.19922021210368,185.95345077544698 93.7934809731778,181.12519340459403 92.44432314411097,179.89087091763213 91.59541484717192,179.35364276509426 90.15024953213288,178.63732905562574 88.43222083592627,178.451853199389 87.73490330630739,178.5861633749446 87.31550218340999,178.7652430148446 86.30995009357503,178.81001281872523 85.65305676855496,179.0210698939518 84.01082345601753,179.21933477212588 82.71724890830228,179.83331105072648 81.81275733000803,179.59027972818512 81.59042420461265,179.36643398259548 81.3529320025118,178.85478258015792 80.66066749844322,178.8164085015378 80.0492514036232,179.3920164072224 79.75112289456956,180.1275051890334 79.74101684341804,180.3961156279547 79.07907049283676,180.86937792250683 78.63945726763268,180.58797929188222 77.82592014972033,180.69030626063613 76.72436057392406,179.8524976808185 76.34538365564367,179.76935556076933 66.77495321273818,181.39379816959263 65.59254522770789,181.50891402986235 64.54656893325227,181.76472604818264 64.30907673113325,182.01414143208967 64.03116032440448,182.1100700752104 61.79772301933917,181.81588828557142 60.807330006249686,181.55368123307198 60.610262008736754,181.7263543337467 60.28686837180794,181.62402960954932 59.63502807237819,181.0100766091091 59.62997504678788,180.4984430123768 59.533967560815654,180.26181059944065 58.887180286979856,179.79493776714298 58.685059263887524,179.449576811945 58.043325015598384,178.97630029014908 58.114067373673606,178.82919986454726 57.977635683095286,178.7140774727377 57.982688708678324,178.59895480031264 58.16965065502518,178.7076817760717 58.240393013111316,178.61174622221006 58.17975670618034,178.7140774727377 57.977635683095286,178.5861633749446 58.119120399256644,178.8739696077937 57.85636306925153,179.04025685401575 57.25,178.7908257651361 57.805832813479356,179.0274655481844 58.16459762945669,178.98909160985568 58.69011228945601,179.39841201120362 58.91244541485503,179.76296000702496 59.49354335620956,180.1211096837833 59.62997504678788,180.37692921869893 59.72092950717706,181.04205352488134 60.372769806625,181.63042491130182 60.61531503430524,181.70716846485084 60.87301933874187,181.5344952940286 61.600655021837156,181.73914490867537 63.99073611977656,182.09088436215825 64.18780411729676,182.03972242262535 64.64762944479662,181.6879825881515 76.42117903930193,179.6862132943752 76.67888334373492,179.76296000702496 77.77033686837967,180.6199564934468 78.01288209608174,180.66472453923416 78.67482844665938,180.5687929605665 79.01843418589488,180.83740088982086 79.66016843418038,180.4536748089704 80.0239862757262,179.35364276509426 80.57981908920556,178.82919986454726 80.82236431691854,178.7652430148446 81.36809107922454,178.78443007886017 81.75717404865645,179.449576811945 82.67682470367072,179.75656445240747 82.9850592638868,179.6798177293458 83.8794447910077,179.1361915374655 88.60907673113616,178.40068731772772 90.27657517154876,178.605350511687 91.06484716157865,179.08502639720973 91.77227074235998,179.39841201120362 92.47464129756918,179.89726645406336" stroke="#4dd2ff" stroke-linecap="round" stroke-linejoin="round" stroke-width="0.5"><title>2022-08-19 15.6km</title></polyline><polyline fill="none" points="142.75,186.54897204124063 142.6447791661485,186.38411008578623 142.58966349127877,186.27631541658047 139.66352220709814,182.1609098800909 138.77165037733357,181.05748852631586 137.46891624396812,179.8715986627285 135.32942595571512,178.71738824813656 133.65090313003384,178.47639567065926 132.75903130025836,178.6476273664157 132.45338983050897,178.79349090970936 131.34105530124725,178.87593532015308 130.9001299022566,179.05350740357244 128.99112334528763,179.27547156102082 128.24956699245013,179.70671320226393 127.80864159345947,179.85891518638527 126.99192750216025,179.63061202469544 126.76144377087621,179.35791512297146 126.55100210318051,178.88227719188217 125.89462452060252,178.84422594870193 125.73428801187038,178.91398653757642 125.18814177904642,179.4847510887339 124.8875108251923,180.45503486157395 124.49168006928448,180.63894259151857 124.26119633798953,180.86724083783702 123.89041816158351,180.61357605102603 123.03863045899197,180.7150421306178 121.88120128666196,179.83354822337787 121.61564394407833,179.79549775310443 115.6130458988082,180.73406699605766 114.18504886799201,181.0701716780677 110.42716194482637,181.62188545507524 109.92109983916453,181.73603232164533 109.35992205864386,182.12286130065695 106.22834962265915,181.60286095025003 105.9828343436784,181.7170078632007 105.66216132623595,181.62188545507524 105.00077322776633,180.97504795618806 104.98073116417072,180.44235154323542 104.8554682667309,180.18234276026124 104.24919584312738,179.7764725063862 104.10890139798357,179.49109287801184 103.79323889645093,179.21839516387263 103.45252381541286,179.00911444584926 103.19197698873904,179.05350740357244 102.49050476308548,178.7554395943771 102.25501051590254,178.81251655577944 102.29008412718395,179.0344818554222 102.6658728194925,179.3959659487664 102.74604107385676,179.33254788858903 102.56566250155083,179.0788747890947 102.40532599281869,179.1169258416412 102.25,178.95837958548145 102.32515773846535,178.74909770548402 103.19197698873904,179.05350740357244 103.50262897438006,178.99643073591142 103.71808115798922,179.13595135629657 104.10389088209195,179.4847510887339 104.24919584312738,179.7574472519118 104.9256154892937,180.22039291622787 105.02081529135467,181.00041430093188 105.65715081033704,181.6155439543254 105.98784485959186,181.71066637534386 106.21331807497336,181.57749493183655 106.88472720524805,181.7487152896574 109.33486947915662,182.10383699933664 109.99625757763715,181.6916419065892 121.60562291228416,179.7764725063862 121.93130644562916,179.83354822337787 122.96848323642917,180.65796748789944 123.85033403438865,180.59455113661534 124.24115427440483,180.86724083783702 124.87748979340904,180.44869320282305 125.20818384263112,179.3959659487664 125.88961400468907,178.83154219410062 126.62114932575423,178.8632515741665 126.91175924781419,179.46572571577053 127.57314734628744,179.75110549872625 127.90885191142297,179.78915600505934 128.18443028578986,179.71305496146306 128.97609179759456,179.1866860242808 131.22080291970633,178.90130280188896 133.7160398366941,178.451027958763 135.3594890510867,178.68567876933957 136.76243350241202,179.3959659487664 137.60420017320212,179.93501599294177 139.0071446245165,181.2413938905811 140.5253309414802,183.3721068398263" stroke="#4dd2ff" stroke-linecap="round" stroke-linejoin="round" stroke-width="0.5"><title>2022-08-14 16.5km</title></polyline><polyline fill="none" points="187.75,186.66083746415097 184.68852006381712,182.3335009291004 183.59513437231362,180.92451367994363 182.41725978648174,179.84258375050558 180.49389495643845,178.76691913117247 179.8030739968126,178.55304132590027 178.68483863050278,178.4335209469682 178.52580071174816,178.33916253584903 177.36780586575696,178.71659503030241 176.30920971898013,178.76691913117247 175.77245674316146,178.96821498952704 173.93855074242674,179.16950997555978 173.16821082341266,179.61613011108784 172.74576635169433,179.74193782482325 171.87105779850026,179.43999873944267 171.66729046508772,179.18209088321237 171.54801202602175,178.80466217106368 170.7627623021217,178.74804759973995 170.17630997668675,179.3456423727912 169.85326420419733,180.32064891955815 169.19723278929814,180.77983846281495 168.7896981224767,180.50306722672758 167.94977911399837,180.56596992518462 167.04028101608128,179.84258375050558 166.56813719474303,179.67903401055446 161.49383359922285,180.49677695220817 159.25239293165578,180.94967454128346 155.50009203583613,181.50321004295256 155.00806847466447,181.63530276747042 154.69993250706102,181.8931970042504 154.3967664744232,181.9812581230617 152.2447846361647,181.704494044694 151.30049699350275,181.48433962307172 151.02218063566033,181.61643240123158 150.71901460302252,181.48433962307172 150.137532212535,180.94338432721634 150.02322370843103,180.20113308853615 149.38707203337253,179.6979051637718 149.16839489508493,179.32677107646305 148.90498834213213,179.1066053861141 148.57200269972236,178.90531012749125 148.33344582158315,178.96192450714807 147.99549024420776,178.75433811108087 147.42394772364787,178.67885191885944 147.25,178.38948704563154 147.3643085041149,178.52158862442593 147.45376733341982,178.98708643151258 147.39412811388684,178.98708643151258 147.82154252056716,178.94934353984354 148.37817523623016,179.60983971646056 148.82546938275482,179.48403164497722 149.07893606578,179.67274362443277 149.93376487912246,180.02500393496666 150.05801325317952,180.16339118327232 150.1176524727016,180.81757986723096 150.67925512333022,181.45917905132592 151.0520002454432,181.58498177383808 151.3154067983778,181.42772831746333 152.20005522150677,181.64788300733562 154.41167627929826,181.96238789737254 154.60550374279774,181.92464742298034 155.0975273039694,181.5598212565892 159.90345441158934,180.7735482257449 161.409344704869,180.42758387616414 166.70232543870588,179.6601628496719 166.95579212173106,179.73564744723262 167.94480917904002,180.534518586599 168.82945760215807,180.47161584556306 168.93879617130733,180.62887253845474 169.16244324456784,180.7232262986654 169.82344459444357,180.33951981214705 170.17134004173204,179.27015714145455 170.8224015216656,178.70401399656475 171.51322248128417,178.74175708755138 171.86608786354554,179.3708040893107 172.7358264817849,179.7104859283354 173.07378205914938,179.62871089779946 173.93855074242674,179.10031492248163 176.11538225549157,178.78579065494705 177.08948950791455,178.55304132590027 177.53678365445012,178.54675078731452 177.84988955700828,178.41464928009736 178.93333537858052,178.3580342334135 179.33093017548163,178.4712642577506 180.57341391581576,178.5656224005288 181.07040741195306,178.8298241806042 181.76619830653726,179.38967536774726 182.5514480304373,179.8614548372716 183.81381151062305,181.06289824865598 184.76803902320535,182.39011113098604" stroke="#4dd2ff" stroke-linecap="round" stroke-linejoin="round" stroke-width="0.5"><title>2022-08-12 16.3km</title></polyline><polyline fill="none" points="52.75,252.06368177726108 48.99379259981288,246.81707240350443 47.71707643622358,245.76268761122628 47.50018257058764,245.4944083400369 46.603030671860324,244.90169278425674 45.40518500487087,244.34640497719738 44.468597857841814,244.10307450338223 44.015092502439074,244.0344425989315 42.58556475170553,244.34016575033093 41.39264849075698,244.45871091627487 40.988437195723236,244.67708279193903 39.20399221032858,244.78938792496047 38.36106377798933,245.34467039315496 38.025864167480904,245.4195394274211 37.143500486854464,245.14501904028293 36.970971275568445,244.96408425446134 36.754077409932506,244.4711893370586 36.068889970789314,244.4212756336674 35.48722005842865,245.001519096033 35.191455696203775,245.70653626512285 35.171738072062,245.96857529480985 34.72316212268561,246.23685180510074 34.555562317433214,246.43649842692685 34.402750730299886,246.41154264650322 34.12670399220224,246.16822307906114 33.30842259006022,246.26180768014456 32.01691820838823,245.33843130146124 26.564995131444448,246.23061283423885 24.948149951316736,246.5924717483067 20.940542843225558,247.19764323674826 20.47717867576648,247.2912257470307 19.885649951324012,247.66555388751294 17.761075949365477,247.3723304355408 16.75547711780746,247.13525479098462 16.27732473222568,246.58623282557164 15.76466650437942,244.82058374667758 15.227361246354121,244.24657724598 14.354856377791293,243.95333203457994 12.979552093474922,243.81606767730045 12.624634858817444,243.69128154305145 12.42745861732692,243.51034104803693 12.25,242.93631822273892 12.466893865625025,243.55401640499986 12.62956426485107,243.6600849566712 13.403481012654083,243.87222132742681 14.073880233692762,243.8909391955931 14.773855890940467,244.0406818671945 15.390031645569252,244.36512265273268 15.986489776045346,245.18245373485115 16.41534810126541,246.64238309963912 16.804771178187366,247.15397133356964 17.312500000003638,247.2288374279633 19.910296981499414,246.57375497759858 20.19620253164976,246.74220564008647 20.339155306719476,247.04791082497468 20.344084712749464,247.34737516197129 20.94547224926646,247.17268786857676 26.30373661149133,246.2243738625366 31.967624148008326,245.33219220892352 32.23381207400598,245.3945830961784 33.33306962026472,246.24932974431795 34.175998052582145,246.17446205839224 34.45697419669159,247.3161810509955 35.06822054529039,247.20388207667565 35.156949853939295,247.11029938900538 35.10272638753668,246.80459461806095 35.314690847131715,246.6860554877021 35.314690847131715,246.43025948308423 35.51679649464495,245.99353131515454 35.47736124635412,245.6129505362187 35.34919668938892,245.38834401126587 35.38863193769794,245.1387799215736 35.506937682570424,244.90169278425674 36.0541017526848,244.4212756336674 36.793512658223335,244.42751484955807 37.07941820837004,245.03895390717662 37.83854673807218,245.3571485739667 38.35613437195934,245.33219220892352 38.43993427459645,245.4881692686431 38.8293573515075,245.25732303271798 39.189203992224066,244.8081054205286 39.72157984421574,244.68956115357287 42.79752921130057,244.25905572420743 43.62566942551712,244.05939966692313 45.42490262902356,244.25905572420743 47.62834712755648,245.46321297456598 48.91492210321667,246.63614418367433 52.32114167479085,251.46481245378163 52.51831791627046,251.5958157832938" stroke="#4dd2ff" stroke-linecap="round" stroke-linejoin="round" stroke-width="0.5"><title>2022-08-07 17.9km</title></polyline><polyline fill="none" points="97.75,257.40646956582714 93.82068607069596,251.96001835669085 92.66995841995958,250.9416935073168 91.81392931392111,250.38515711315267 90.65384615384755,249.8345343472356 89.55457380457665,249.59770521839164 89.30197505198157,249.56810148710065 87.54781704781999,249.9588691263416 86.98648648648668,249.98255190130294 86.43918918919735,250.16609297242394 84.83004158003314,250.30818875634577 84.08627858628824,250.76407627883964 83.6231808731718,250.9002495518871 82.8232848232874,250.6515849942807 82.44906444906519,249.98255190130294 81.78950103950046,249.97663120876678 81.21881496881542,250.49764908321595 80.90540540540314,251.45085889663824 80.29261954261892,251.85345058824532 79.89033264032696,251.58703003071787 79.17463617463363,251.68767798769477 78.15956340955745,250.9416935073168 77.79937629937922,250.85288498327282 73.38825363826254,251.539666206103 71.72297297298428,251.88897320658361 67.41008316008083,252.5698178141174 66.9469854469935,252.6704635088645 66.42775467775573,253.01384119448994 64.68762993763085,252.8007105346369 63.40592515591925,252.51061435606607 63.242203742207494,252.6467821897677 62.95218295217637,252.5698178141174 62.37214137214323,252.04290421926999 62.29729729729661,251.43901790841483 62.18503118503213,251.23180009541466 61.604989604991715,250.82920267972804 61.47401247403104,250.55685526699745 61.249480249483895,250.34371263017965 60.89864864864285,250.11280693436856 60.67411642411753,250.17793430537495 59.86954261954088,249.89374142900851 59.62162162162349,249.63322966950727 59.354989604991715,249.72204067100392 59.33627858628461,249.781247905099 59.439189189204626,249.7101992145581 59.518711018714384,249.77532718530347 59.298856548859476,249.9588691263416 58.86382536382371,249.39639945019007 58.44282744283191,246.2286719261574 58.36798336798529,244.3042393867945 57.80197505197066,237.51179558078366 57.62889812890353,236.3391482939478 57.25,235.53367536109 57.3201663201653,235.4507581868893 57.65228690229196,235.63436028967044 57.80197505197066,235.48037148145158 57.73648648649396,235.33822748453167 57.58212058212666,235.26715531265654 57.28274428275108,235.46260350713055 57.26871101870711,235.58697917569953 57.59615384615972,236.10224603139795 57.7084199584242,236.6056618041439 58.606548856547306,246.5188097903847 58.96673596673281,249.46152788839026 59.25207900208261,249.91742423926917 59.44386694387504,250.06544151270646 59.790020790027484,250.15425163622785 59.79469854470153,250.2312202640387 60.03326403325991,250.13056895427144 60.21101871103019,250.15425163622785 60.66943866944348,250.75223510463184 61.0810810810799,250.63974378959392 61.45062370062442,250.8884084145393 61.41787941788061,250.6160613705979 61.15592515593016,250.3259506968643 61.249480249483895,250.32003005083243 61.50207900208261,250.55685526699745 61.62837837838015,250.81144094365663 62.21777546777594,251.208117997121 62.30665280665926,251.37389241588244 62.3627858627915,251.9659387806787 62.877338877337024,252.50469400585644 63.232848232844844,252.62902119203136 63.485446985450835,252.48101259697432 64.18711018711838,252.66454318029355 66.44178794178879,252.98423977607672 66.98440748441499,252.62902119203136 77.87889812888898,250.79959978226907 78.18295218295316,250.87656727399371 79.1512474012452,251.65807567145748 79.9979209979283,251.61071192379313 80.25051975052338,252.68230416360166 80.96153846153538,252.51653470548627 81.79885654885584,252.46325153189537 83.11798336798893,252.23235702939928 83.17411642411025,251.63439380404088 82.98700623699915,251.19627694315568 83.00103950104312,250.8884084145393 83.92723492722871,250.79367920037475 84.75519750519379,250.2667442004058 85.50831600832316,250.21937894550138 88.95582120582912,249.61546744756197 90.64449064449218,249.81085149209684 92.26767151766398,250.65750559540902 92.85239085238936,251.04826349805444 93.74584199584933,251.8593710266323 94.8591476091351,253.24473157033208 97.23076923076951,256.6073045170524 97.08575883575395,256.8736944893135 97.26351351351332,257.16968144422935 97.21673596674373,257.2703165525709 97.33835758835994,257.58997947824537 97.26819126818373,258.00435386733807 96.89397089397244,258.39504612391465 96.81912681913309,258.60222999533653 96.53846153845734,258.7975738894347 96.01923076922685,259.4368750789836 95.98180873181263,259.40135859137445 95.98648648648305,259.6144570843353 96.10810810811017,259.7328446873398 95.90228690228105,259.46055272135345 95.72920997920664,259.54342436871957 95.88357588358485,259.51382736983214" stroke="#ff0000" stroke-linecap="round" stroke-linejoin="round" stroke-width="0.5"><title>2022-08-06 24.1km</title></polyline><polyline fill="none" points="142.24295774651546,252.60754125872336 140.34154929577198,249.70665001244197 133.78169014083687,240.8296608027813 131.0035211267459,238.316151417137 128.94366197182535,237.0192625073396 126.40845070422074,235.7758375564881 124.81338028171012,235.32124818144075 123.30281690141419,235.1608043729284 120.2816901408587,235.85605899360962 117.59859154930018,236.13683351029613 116.88028169015888,236.43097738564393 113.5739436619624,236.69838014819834 110.70070422534627,238.15571247536718 108.60915492955246,237.50058409067424 107.78521126761188,236.08335271152464 106.25352112676046,236.05661230132682 105.08098591549788,237.17970329587115 104.37323943662341,239.38573769993673 102.98943661970407,240.32161619287945 102.36619718308793,239.89378712535108 102.25,239.54617464300827 102.50352112675318,239.47932594841404 102.58802816903335,239.10497242226847 103.23239436621225,238.48995997652673 104.25704225353547,238.02201315807906 104.38380281689024,236.92567192701244 104.37323943662341,237.94179348079342 104.18309859154397,238.1289726263858 104.46830985914858,237.74124400242 104.34154929579381,236.57804899469193 104.44718309859309,236.95241210188397 104.13028169011523,236.8588214581614 104.53169014085142,236.96578218658397 104.51056338026683,237.30003371614293 104.61619718310976,236.69838014819834 104.16197183098848,234.57250817737076 103.79225352112553,234.73295294199488 104.22535211266222,236.8187111551233 103.71830985915585,237.1395931231673 103.36971830983384,237.03263258302468 103.51760563380958,236.06998250734614 103.32746478873742,234.880027080515 103.08450704222923,234.773064092391 102.72535211266222,234.93350853110314 103.09507042253972,237.04600265687623 104.10915492958156,237.07274279915146 104.33098591548332,238.03538309794385 102.90492957746756,239.0916026272098 102.36619718308793,239.73335074713395 102.92605633802305,242.1933465672846 104.2676056338023,241.85911160262913 104.28873239434324,241.03020400818787 104.60563380283565,240.99009539968392 104.8063380281601,240.5221604301114 105.35563380280655,240.26813766080886 105.42957746479806,239.8536780552604 105.13380281690479,239.42584696016274 104.85915492957429,237.64765410643304 105.07042253520922,237.15296318251785 106.20070422535355,236.13683351029613 107.98591549297998,236.0432420934667 108.53521126759006,237.44710403064528 110.299295774661,238.07549290673342 111.38732394366525,237.90168361771066 112.82394366194785,237.04600265687623 111.69366197182535,238.35626111187594 113.55281690140691,237.7947239031564 113.49999999999272,237.32677378958033 113.79577464788599,237.04600265687623 113.61619718308066,236.89893174490135 112.61267605633475,237.03263258302468 111.27112676055549,237.95516343150666 110.4577464788672,238.14234255179326 108.85211267606064,237.63428411408677 108.37676056338387,237.08611286759697 107.93309859152941,236.06998250734614 106.30633802814555,236.0298718838094 105.15492957744573,237.05937272890878 104.41549295771983,239.35899818407051 102.86267605632747,240.32161619287945 102.41901408449485,240.0007445660376 102.36619718308793,239.73335074713395 102.95774647887447,239.0381234289307 104.23591549295816,238.1958222352623 104.51056338026683,237.59417412605399 104.64788732391753,236.7786008357798 104.29929577465373,236.88556165109912 104.59507042252517,237.04600265687623 104.23591549295816,236.59141913014173 103.73943661971862,236.59141913014173 104.29929577465373,236.61815939549706 104.41549295771983,236.8588214581614 104.01408450704912,235.13406371277233 104.15140845072165,234.94687888920453 104.19366197181807,235.06721203084453 104.10915492958156,234.83991597353452 104.0880281690188,235.70898630909505 104.51056338026683,237.04600265687623 104.37323943662341,237.92842352825392 102.98943661970407,239.02475362484256 102.39788732393936,239.81356896881334 102.86267605632747,242.1666078117487 104.19366197181807,241.89921985814 104.39436619716435,241.69867841774976 104.23591549295816,241.13716021781147 104.51056338026683,241.00346493763936 104.64788732391753,241.13716021781147 104.76408450702002,240.25476802324556 105.18661971828988,239.35899818407051 105.04929577462462,238.4632202181092 104.75352112675318,238.03538309794385 104.82746478872286,237.7813539306735 105.04929577462462,237.1395931231673 106.27464788731595,235.97639102712128 107.95422535211401,235.97639102712128 108.60915492955246,237.3134037537675 110.72183098593086,238.03538309794385 111.3239436619624,237.8214638426507 113.07746478872286,236.6716399045763 117.6619718309812,236.23042483845347 117.97887323942996,236.00313145906694 119.60563380281383,235.72235656218254 120.61971830983384,235.84268875861017 121.86619718308066,235.29450756481674 123.68309859154397,235.2009153494655 124.65492957746028,235.50843229526072 126.26056338028866,235.53517285398266 128.99647887323226,236.88556165109912 131.44718309860036,238.53006960065977 134.41549295774166,241.37781126596383 139.77112676057004,249.10507203550515 142.75,252.98184359989682 139.91901408450212,256.1767237084932 138.4295774648126,257.3530552057564 138.39788732393936,257.63376860605786 138.02816901409824,257.91448120852147 137.98591549295816,258.5561070182739 138.16549295774166,258.54273985639884 137.95422535212856,258.8368169993337 137.90140845069982,258.02141913295054 138.10211267606792,258.0882552769035 137.90140845069982,258.47590401998605 137.63732394365798,258.38233377305005 137.8169014084633,258.24866183791164 137.32042253522377,258.68977853734395 137.2359154929436,258.94375392513757 137.66901408452395,259.4249686583935 136.91901408451668,260.2670888001594 137.03521126761916,260.14678636236204 137.50000000000728,260.4007580036414 137.70070422535355,260.37402417744306 137.62676056338387,260.0665846557458 137.7640845070564,260.3205565032695 137.83802816904063,260.20025413059193 136.84507042256882,260.42749182262196 137.26760563379503,260.133419415768" stroke="#4dd2ff" stroke-linecap="round" stroke-linejoin="round" stroke-width="0.5"><title>2022-07-23 16.3km</title></polyline><polyline fill="none" points="187.75,255.96200572631642 185.843581081077,253.36474603687384 185.3874999999971,252.96072075334814 184.59391891890846,251.63319562992547 179.5496621621569,244.60273978456098 176.76756756757823,241.99358898155333 175.04358108107408,240.89679821437312 172.67195945945423,239.73072097655677 169.6435810810799,239.08417622899287 168.37567567569204,239.03799427368358 167.53648648648232,239.2227219448032 166.96182432433125,239.09572171390028 166.84324324326008,239.86926564166788 166.51486486485373,240.00781008166086 164.1523648648872,240.481168552913 161.01452702703682,240.85061724093975 159.7648648648683,241.67032580085652 159.09898648648232,241.84350265721878 157.48445945946878,241.18542873160914 156.85506756757968,240.10017291658733 155.55979729731916,240.06553686523694 154.3648648648741,241.09306707240466 153.781081081077,242.8941013792719 152.9601351351448,243.3328091018775 152.75033783783874,243.59834162679908 151.7743243243458,243.2289048452658 150.36959459460923,243.40207853592437 148.28074324327463,241.80886731408827 147.25,241.80886731408827 148.3263513513666,241.7857770775081 150.27837837839616,243.3328091018775 151.93851351353806,243.2750845305127 152.3307432432557,244.57965030461492 152.41283783784456,245.3300552024084 152.24864864866686,245.44550152356533 152.39459459461796,245.7110274690931 155.48682432434725,245.11070676155214 155.6783783783685,244.83363424016716 165.1739864865085,243.3674438259186 164.48986486486683,242.5131165256098 163.32229729728715,241.64723552675423 163.3952702702809,241.4625131088469 163.8148648648712,241.45096794444544 163.86047297299228,240.5273497264934 164.2162162162349,240.2271716512114 167.16250000000582,239.71917557760753 167.89222972975404,239.7538117697186 168.30270270271285,239.49981270100398 169.5158783783845,239.31508563025272 172.73581081080192,239.66144855955645 174.9797297297264,240.80443624248437 176.96824324327463,242.05131442059064 179.40371621619852,244.31412083577743 185.68851351351623,253.0761567439913 185.5243243243167,253.3993766863714 185.29628378379857,253.457094404308 185.48783783784165,253.73413890662778" stroke="#4dd2ff" stroke-linecap="round" stroke-linejoin="round" stroke-width="0.5"><title>2022-07-16 10.3km</title></polyline></svg>