<?xml version="1.0" encoding="utf-8" ?>
<svg baseProfile="full" height="300mm" version="1.1" viewBox="0,0,200,300" width="200mm" xmlns="http://www.w3.org/2000/svg" xmlns:ev="http://www.w3.org/2001/xml-events" xmlns:xlink="http://www.w3.org/1999/xlink"><defs /><rect fill="#222222" height="300" width="200" x="0" y="0" /><text fill="#FFFFFF" style="font-size:12px; font-family:Arial; font-weight:bold;" x="10" y="20">Over 10km Runs</text><text fill="#FFFFFF" style="font-size:4px; font-family:Arial" x="10" y="280">ATHLETE</text><text fill="#FFFFFF" style="font-size:9px; font-family:Arial" x="10" y="290">Allen</text><text fill="#FFFFFF" style="font-size:4px; font-family:Arial" x="120" y="280">STATISTICS</text><text fill="#FFFFFF" style="font-size:3px; font-family:Arial" x="120" y="285">Number: 13</text><text fill="#FFFFFF" style="font-size:3px; font-family:Arial" x="120" y="290">Weekly: 1.6</text><text fill="#FFFFFF" style="font-size:3px; font-family:Arial" x="141" y="285">Total: 212.6 km</text><text fill="#FFFFFF" style="font-size:3px; font-family:Arial" x="141" y="290">Avg: 16.4 km</text><text fill="#FFFFFF" style="font-size:3px; font-family:Arial" x="167" y="285">Min: 10.3 km</text><text fill="#FFFFFF" style="font-size:3px; font-family:Arial" x="167" y="290">Max: 24.1 km</text><polyline fill="none" points="55.60000000000218,58.51485195315399 54.097967531630275,56.57206140937342 52.41370318292684,54.04911996317969 51.17673526779981,52.399706542793865 49.65261408666629,51.00185729857185 48.89055349610135,50.5335693364359 47.2835996420763,49.7297815859456 46.47736162597357,49.59698066574492 45.43366994759708,49.48514804684601 44.130435894163384,49.8136556753052 42.987345008306875,49.88355064564894 42.197673526770814,50.10022445214781 40.474753930709994,50.30990791498334 39.98880224977256,50.47765407192128 39.30405215390056,50.924974491808825 38.96167710596637,50.97389992755052 38.02290681323211,50.68733600144333 37.619787805186206,49.91849809529958 36.8356385018451,49.869571659135545 36.43251949379919,50.17011903443199 36.12879969320784,50.554537544991035 35.78642464526274,51.609926371849724 35.046452767477604,52.11315053251019 34.63228940303452,51.81960370169327 33.676952575733594,51.91745283078126 32.66639396649407,51.099707977900835 32.235664067495236,50.897017079158104 25.62009459285764,51.95239890335506 24.65923558736904,52.21798828178362 19.860462738070055,52.93786840920802 19.28615620604978,53.05668261060782 18.70632749584547,53.46903565857792 16.4698453278761,53.21044175940551 15.133478205279971,52.89593391989911 14.901546721193881,53.05668261060782 14.476339000371809,52.9099120867686 13.85233286462244,52.28787999635824 13.830244151846273,51.714765143238765 13.714278409810504,51.4561624553171 13.068183561295882,50.98787861496021 12.687153266000678,50.4427070008569 12.510443563842273,50.30291847995613 12.400000000001455,50.337865645673446 12.47731049468348,50.24700296558149 12.880429502740299,50.596473936566326 13.035050492122537,50.91099578738067 13.664578806081408,51.29540878004991 13.84681068642385,51.69379740599834 13.885465933781234,52.25992332187525 14.503949891346565,52.89593391989911 14.829758404699533,53.0427044834687 15.199744343601196,52.89593391989911 18.64006135753516,53.455057643092005 19.424210660865356,52.98679193701901 32.185964463758864,50.876049009697454 32.45102901700011,50.945942541380646 33.65486386296834,51.861539065434044 33.908884059819684,51.91745283078126 34.62676722485048,51.78465753921046 34.86422088712061,52.07820456874106 35.06301930205518,52.120139722410386 35.73120286334961,51.665840409765224 36.12327751500197,50.45668583211227 36.78593889811964,49.86258216447459 37.61426562699853,49.841613674794644 37.91246324939493,50.554537544991035 38.03947334782424,50.52657993167668 38.46468106864995,50.77120853474844 38.98376581874254,50.90400643373141 39.37031829221087,50.82712348122004 40.2759555157827,50.24700296558149 41.01040521539471,50.17710848743809" stroke="#4dd2ff" stroke-linecap="round" stroke-linejoin="round" stroke-width="0.5"><title>2022-09-10 13.4km</title></polyline><polyline fill="none" points="121.59999999999854,58.490193322202686 117.39576868830409,52.594580364671856 115.83372227208747,51.157379128253524 115.36843185022735,50.855912343664386 113.32447749711719,49.78323722379355 112.85364790357926,49.67807180006639 112.48252340043473,49.7061159339537 111.4688549814091,49.50980667779368 109.68524169765806,49.902424445743236 108.69372996538004,49.97954544316963 108.4555455827649,50.14079806651716 106.34512116938276,50.38618152968775 105.35360943710475,50.95406451275994 104.93817156046498,51.02417309105658 104.02974740350692,50.69466194760389 103.65862290035511,49.96552345216696 102.86098217719336,49.902424445743236 102.16858571611738,50.57547654948576 101.83623541479392,51.339660518529854 101.78638286959904,51.697210612335766 101.38202333632216,51.87949010203738 101.08290806513469,52.159918833134725 100.63423515834438,51.87949010203738 99.68149762788744,51.94258669895862 98.55704577509823,51.07324903936751 98.21361713040096,50.947053649721056 91.68847288114557,51.98465105419746 87.48978074111074,52.77685669517086 85.90003846647232,52.98016415294114 85.30734709578246,53.13439686424681 84.81436081547872,53.48492404496574 84.5872547762483,53.54100817368089 81.19174253108577,52.98717474069781 80.80953968456743,53.113365157929366 80.48272855492905,52.98016415294114 79.85126298241812,52.38426072441143 79.69616617514475,51.52895205224195 79.00376971405422,51.02417309105658 78.74896781638017,50.61053110682042 78.40000000000146,50.3371049300913 78.7877420181976,50.5684656351732 78.98161302730296,50.919010188023094 79.64631362994987,51.325638895908924 79.79587126554179,51.59905985207661 79.8734196691803,52.30013262911962 80.54919861519011,52.96614297457563 80.89262725989829,53.064291143327864 81.14742915757597,52.91005822320221 81.97830491088098,53.113365157929366 84.58171560456685,53.47791352461718 84.79774330042346,53.435850382520584 85.35166046929226,53.064291143327864 98.1194512117072,50.91199932022937 98.54596743172442,50.982107955467654 99.72027182970487,51.914543776489154 100.72840107705997,51.83742566138608 100.86134119758572,52.075790373291966 101.06075137837252,52.152908133371966 101.31001410436511,51.90753304350437 101.78638286959904,51.66215679073139 102.14088985766284,50.498356439780764 102.70588536992,49.96552345216696 102.9052955507068,49.89541344029567 103.67524041543584,49.93747945882569 104.01866906014402,50.58949837527325 105.00464162071512,50.96808623601464 105.46993204256069,50.84189059003256 106.39497371457401,50.30906113801029 111.40792409282949,49.52382879219658 112.53237594562961,49.59393930729129 113.37986921399352,49.75519313168843 114.75912296448223,50.442269015115016 115.64539043467448,50.99612967112989 116.69229388383974,51.87247936431231 117.56748301064727,52.79087792479186 121.30642390050707,58.02053175992114" stroke="#4dd2ff" stroke-linecap="round" stroke-linejoin="round" stroke-width="0.5"><title>2022-09-03 16.2km</title></polyline><polyline fill="none" points="185.240336134455,59.85782758846835 185.57585943468075,59.42628217672609 185.88388082506208,59.27315228918815 186.91795263560198,58.29171809305262 187.31948051948712,57.83927758163554 187.27547746370692,57.74878900168551 187.60000000000218,57.470361603096535 183.27119938883334,51.3793850352813 181.57158135980717,49.785170313840354 180.4495034377469,49.10291484799018 179.0744079449978,48.420650327960175 177.2097784568432,48.1978681154942 175.88968678380115,48.497231490495324 172.20443086325758,49.03329643423058 171.3298701298736,49.55543223947825 170.93384262796462,49.67378228478992 169.93827349120693,49.36746396049057 169.52574484338038,48.65735537085857 168.76669213140121,48.56685063020632 168.05714285714566,49.235189574417745 167.68311688311587,50.36299184148811 167.27608861725457,50.530071554752794 167.012070282668,50.794613323625526 166.8635599694535,50.78765171555642 166.54453781511984,50.51614826605146 165.59847211611122,50.613611207762006 164.50389610388447,49.77124682340582 164.05286478228663,49.61808817975543 151.23697478992108,51.762267671947484 150.87394957982906,52.11034032193129 150.65943468297337,52.17995456915014 147.8212375859548,51.79011357068521 147.1281894576132,51.60215346168479 146.96317799847384,51.74834471694339 146.53964858670588,51.61607645626282 145.8851031321501,51.01042270586913 145.84110007639174,50.36299184148811 145.65408708938048,50.028830786046456 145.109549274257,49.68074404367144 144.75202444615206,49.18645682007991 144.40000000000146,48.92886863685635 144.85653170358637,49.26999865637481 145.10404889228084,49.68074404367144 145.7255920550051,50.09844785169844 145.83009931245033,50.28641345811775 145.9016042780786,50.98953796652131 146.5286478227681,51.61607645626282 146.96317799847384,51.74834471694339 147.19419404125074,51.60215346168479 150.62093200916934,52.17299314868069 151.19847211612432,51.80403651436427 151.53949579831533,51.699614344714064 164.1078686019864,49.604164644089906 164.46539343008772,49.69466755861504 165.58747135218073,50.58576467185412 166.59954163483053,50.51614826605146 166.83605805959814,50.794613323625526 167.03957219251242,50.794613323625526 167.21558441558227,50.57880303550701 167.71611917494738,50.307298483086925 167.76012223070575,49.92440501078818 168.07914438501757,49.151647681537725 168.6181818181758,48.64343157496842 168.9097020626541,48.56685063020632 169.53124522536746,48.60166016470612 169.92727272726916,49.318731331532035 170.63682200152107,49.604164644089906 170.99434682964784,49.63897347620514 172.3089381206919,48.97760163536077 176.51673032847975,48.26748766059973 177.3472880061163,48.142172411535284 178.2823529411762,48.32318322880383 179.17341482046686,48.36495486534841 179.63544690604976,48.69216484408389 180.9830404889217,49.318731331532035 182.0171122994725,50.09844785169844 182.87517188693528,50.89207573745807 183.89824293353377,52.14514745731867 186.97295645532358,56.544579663153854" stroke="#4dd2ff" stroke-linecap="round" stroke-linejoin="round" stroke-width="0.5"><title>2022-09-01 16.9km</title></polyline><polyline fill="none" points="55.60000000000218,106.5124479681217 51.091356127541076,100.28830892705082 49.7747214752053,99.10500764626704 48.917249327689206,98.6358807077122 48.56872839031348,98.32079306110609 47.2686899730943,97.73262431673356 46.477602766040945,97.60658728674025 45.43203995389922,97.48755203187466 44.07114867459313,97.83065290542072 43.72262773722832,97.78864067587347 42.83196311946085,97.92167928565323 42.32854398769268,98.11773556031767 40.42550902804578,98.29278517736748 39.39654245101701,98.90195322516593 38.98163657317127,98.99997959698158 38.06331156356828,98.6918960883304 37.65393776412748,97.94268535061201 36.80752977334123,97.88666915836802 36.16580868228266,98.51684782243683 35.83941605839209,99.28705575969798 35.78409527467011,99.6581518521707 35.32493276988316,99.88220858082786 35.0704571648057,100.14127296311926 34.65555128698179,99.8331962543889 34.06915097963429,99.95922785708535 33.51041106414414,99.80518918985035 32.51463695734856,99.0279870976592 32.17164809834139,98.91595700392645 19.81298501728088,100.98847444809508 19.292969650399755,101.10050005167795 18.900192086042807,101.4365754063474 18.618056089122547,101.52059390372597 16.703956972723972,101.27553957145574 15.105186323464295,100.91145670482729 14.850710718408664,101.07949526948869 14.435804840562923,100.92545993942258 14.16473300036887,100.58237960057886 13.877064925083687,100.40733773446482 13.766423357650638,100.1552764062726 13.788551671143068,99.7071643445197 13.639185555122822,99.38508140144768 12.997464464064251,98.95796831752159 12.78171340760673,98.58686719990146 12.400000000001455,98.28578320406086 12.814905877814454,98.58686719990146 12.980868228973122,98.9299607789435 13.672378025352373,99.39208322589911 13.860468689967092,100.28830892705082 14.474529389157397,100.93246155527959 14.817518248168199,101.0724936735387 15.110718401840131,100.86944697832587 15.99585094122449,101.10750164384444 18.618056089122547,101.48558621306802 19.458932001532958,101.01648087172725 32.188244333447074,98.92295889190791 32.53123319246515,98.97197208112993 33.73169419900296,99.93122086080257 34.6223588167486,99.82619448969126 34.86023818669855,100.07125569048367 35.07598924319245,100.10626433866491 35.30833653476657,99.8752068227659 35.75090280445875,99.67915721171448 36.104955820195755,98.58686719990146 36.84072224354895,97.87266510082918 37.60968113713534,97.86566307062458 37.99139454476244,98.57286333201773 38.11310026891442,98.54485558481247 38.583326930460316,98.84593807210695 39.108874375720916,98.9299607789435 40.28167499039046,98.30678912112126 40.76296580867711,98.20876143515488 45.36565501343648,97.48755203187466 46.48313484440587,97.56457487513762 47.202305032653385,97.68360995268449 48.95044179791876,98.53085170552731 49.879830964273424,99.15402066293245 50.80922013061718,99.96622960379682 52.40245870148647,101.8916739676497 55.15190165193417,105.88936767746054" stroke="#4dd2ff" stroke-linecap="round" stroke-linejoin="round" stroke-width="0.5"><title>2022-08-28 16.3km</title></polyline><polyline fill="none" points="121.59999999999854,106.36290255939457 117.37483966454965,100.52339075026612 116.13339911200092,99.39047313334595 115.44607794771582,98.91167282140668 113.50133201776771,97.90010773012546 112.77138628515604,97.7517431222077 112.04676862360066,97.63709744060907 110.82664035521884,97.89336389389791 110.53359644796365,98.05521571125792 109.38806117415152,98.12265381320321 108.84459792798589,98.284504885356 106.79861864827399,98.54751175563797 105.92481499753558,99.07352132921369 105.58914652196108,99.1611890512977 104.65140601875464,98.85772320190517 104.22516033548527,98.12265381320321 103.51119881598788,98.10242239222862 102.8558460779459,98.70261772031154 102.48288110508656,99.76811520254705 101.86482486435125,100.23342024280282 101.66768623582539,100.23342024280282 101.34267390233072,99.97042227597558 100.46887025160322,100.04460133031534 99.39259990132632,99.20165102483588 99.07291563888793,99.087008681101 87.12205229402389,101.06960967877603 86.60522940306328,101.18424745875745 86.26956092747787,101.45398237077097 85.93389245190338,101.56861926599595 83.48297977307448,101.23819455803459 82.57720769610751,101.00891898256668 82.42269363592277,101.14378709594894 82.22022693636245,101.15053049204289 81.90587074493669,100.97520189714123 81.37839171188534,100.46944287670703 81.21854958066615,99.63998696432827 80.54188455846452,99.12747071490958 80.09965466205904,98.5205367559247 79.72136161815433,98.27101731608491 79.44430192402797,98.33171134897202 78.73034040454877,98.02824044487716 78.53320177602654,97.99452134138119 78.40000000000146,98.10916620013813 78.44795263936612,97.99452134138119 78.65574740996817,98.00126516390446 79.44430192402797,98.31822379247751 79.77464232856437,98.25752974317584 80.1209669462296,98.50704925061291 80.50458806116876,99.00608451487642 81.24518993586025,99.55906369664808 81.38904785396517,100.4222384394161 81.98579181055175,101.02240581031947 82.32146028613715,101.14378709594894 82.62516033547217,100.96845847732038 85.98717316231341,101.54164590263463 86.53063640849359,101.16401728145865 86.79703996052922,101.0898398944264 99.01963492847062,99.04654661443419 99.37128761717759,99.14095805221223 100.47419832264859,100.0243706900983 100.67666502220891,100.06483196232148 101.29472126296605,99.91647380340873 101.80621608288493,100.21993320135152 102.02466699557044,99.99065293811145 102.48288110508656,99.78160236634722 102.80789343858123,98.70261772031154 103.22881105081251,98.23729837699284 103.52718302912399,98.05521571125792 104.27311297483902,98.08893477364472 104.61410952145889,98.73633634436192 105.56783423780143,99.1004960293576 106.19121854958576,98.87795431605628 106.76132215096732,98.50704925061291 107.17158362112968,98.40589284422822 110.84795263936758,97.92708306590794 111.15698075974797,97.77197468567465 111.76970892944883,97.66407291884752 112.6914652195519,97.81918163514638 112.81401085348625,97.75848697760739 113.61322150963315,97.91359539984478 114.33251110015772,98.32496757118133 114.86531820425444,98.5003054965855 115.97888505181618,99.21513834204598 117.42812037494878,100.53687770949182 119.06916625555459,102.7554327927428 121.05653675383292,105.70885733800606 121.21105081402857,105.79651338147596" stroke="#4dd2ff" stroke-linecap="round" stroke-linejoin="round" stroke-width="0.5"><title>2022-08-26 16.9km</title></polyline><polyline fill="none" points="186.97786760990493,104.87333961180411 184.94775138959085,102.00704683120784 183.5179383527211,100.41152252106622 182.85760485094215,99.82441227059826 181.83708943911188,99.17512953647383 180.34724608388206,98.45676454047498 178.56270843859602,98.23572712165696 177.64588175846802,98.41532009741059 177.28024254674528,98.60872721029955 176.13420919655982,98.65017149621053 175.59939363316153,98.86429977033549 173.50378979282686,99.09914910189764 172.5978777160235,99.63791701213268 172.1722081859516,99.72771111059046 171.2608388074841,99.40997743691332 170.85154118241917,98.67089362653132 170.07660434563877,98.6432641175561 169.4053562405279,99.30636820237123 169.01243052046993,100.4046153809395 168.59767559374086,100.61182917812766 168.3466397170414,100.8535775443197 167.93734209196555,100.57038648604066 167.03688731684088,100.69471446132229 165.9126831733338,99.7829689387654 165.5306720566041,99.64482425609822 152.84790298130974,101.77911784226308 152.37311773623514,102.11755748953874 152.0020212228519,102.19353342829345 148.65669530065497,101.6409785654323 148.42748863061934,101.80674565273875 148.0236483072149,101.6409785654323 147.41788782213553,101.07460361936683 147.2759979787843,100.23193657360389 146.5883779686592,99.69317493758354 146.17908034361608,99.14059298932989 145.69883779685915,98.81594830312315 145.4150581101494,98.89192915959211 144.7219807983929,98.58800505470572 144.40000000000146,98.58800505470572 144.983931278417,98.61563459361787 145.39868620515335,98.84357771858777 145.6770085902026,98.7814115127876 145.94441637189811,98.90574384858701 146.39191510863384,99.29946091259262 146.599292572002,99.67936046183968 147.18868115208898,100.0454428051089 147.37422940880424,100.45296534223962 147.45063163214581,101.09532476482127 148.0618494188966,101.6340715917795 148.38928751893764,101.76530393141002 148.72218292067555,101.59262973016666 149.6280949974789,101.82055955237593 152.1057099545178,102.17971962966476 152.98979282465007,101.72386217640815 165.4979282465938,99.64482425609822 165.8417382516418,99.72080387786627 166.99322890348776,100.61873629021284 167.9700859019722,100.56347936740349 168.13926225367322,100.78450669944868 168.33026781202716,100.8535775443197 168.64133400707215,100.57038648604066 169.03425972714467,100.39080109785937 169.4053562405279,99.23038796327091 170.02203132896466,98.6225419760085 170.8788276907544,98.6432641175561 171.18989388580303,99.34090463726534 171.342698332508,99.32018277913448 171.7901970692219,99.58265902684434 172.26498231430742,99.67936046183968 172.59242041435937,99.59647352877437 173.59110661950035,99.03007588132459 178.60090955028863,98.22191225117786 179.43587670541456,98.36006078760693 179.64325416877182,98.2978939925124 180.44002021222695,98.46367194439154 182.12632642749668,99.34090463726534 182.95037897928705,99.90729883327731 184.2710459828195,101.07460361936683 185.93006568975034,103.3124386946838 187.60000000000218,105.77808774882214" stroke="#4dd2ff" stroke-linecap="round" stroke-linejoin="round" stroke-width="0.5"><title>2022-08-21 16.1km</title></polyline><polyline fill="none" points="55.60000000000218,154.37260019442692 55.012501559576776,153.6836808271437 51.37971303805898,148.53353963156405 49.94061135371885,147.21692897880712 49.03510917031599,146.6438856161003 47.493599500943674,145.87981765933364 45.6610355583216,145.6819767460147 44.9172301933977,145.82524093327447 44.469868995638535,146.016259215834 43.39728009981263,146.06401367330545 42.696593886459596,146.28914122021524 40.9448783530861,146.50062375693233 39.5650655021891,147.15553178744085 38.60027448534311,146.89629837673056 38.363119151585124,146.6575295814364 38.10979413601308,146.11176808550226 37.371378665007796,146.07083573497584 36.71920149719881,146.6848175010382 36.401197754206805,147.46933886830448 36.39041796631136,147.75585666981715 35.68434185902515,148.26066978400922 35.2154210854751,147.9605112446734 34.34764815970266,148.06966001134788 33.17265127885548,147.17599752620663 32.76840923268901,147.08731259815613 22.55995009358594,148.8200513808988 21.298714909553382,148.94284163185148 20.183006862138427,149.21570778472596 19.929681846540916,149.48175086089395 19.633237679365266,149.5840747468901 17.250904553962755,149.27028083793994 16.19448533999821,148.99059331527678 15.984279475986114,149.17477795599552 15.639326263262774,149.06563158351855 14.94402994387201,148.41074838304849 14.938640049906098,147.86500587986666 14.836232064870273,147.6125979727367 14.146325639445422,147.11460028495276 13.930729881478328,146.74621526607734 13.246213349972095,146.24138697615854 13.321671865254757,146.08447985551902 13.176144728637155,145.9616826375859 13.181534622588515,145.83888512033445 13.380960698694253,145.95486056114532 13.45641921398419,145.85252930369097 13.391740486589697,145.9616826375859 13.176144728637155,145.82524093327447 13.327061759206117,146.1322342483145 13.046787273866357,146.3096073109482 12.400000000001455,146.0435474828082 12.992888334378222,146.29596325139937 13.375570804753806,146.2550310505103 13.936119775422412,146.6916394786167 14.173275109176757,147.08049067415777 14.793112913288496,147.46251699603454 14.938640049906098,147.73539116661414 15.035658140986925,148.44485709320725 15.730954460399516,149.0724532387212 15.98966936992656,149.15431302917568 16.264553961325873,148.970128313631 17.040698689957935,149.1884212359182 19.59011852776166,149.56360998630043 19.80032439178467,149.50903725079843 20.290804741114698,149.13384809402487 32.84925764192303,146.99862751399996 33.12414223331871,147.08049067415777 34.28835932627044,147.9946202596766 34.54707423581931,148.04237284185 35.25315034310552,147.94004582460184 35.619663131619745,148.22656094914055 36.30417966312598,147.8172531295677 36.69225202744201,146.6438856161003 37.285140361818776,146.08447985551902 37.54385527137856,146.016259215834 38.125963817838056,146.03672541745254 38.54098565189997,146.74621526607734 39.521946350585495,147.07366874923537 39.85072988148022,146.9918055779708 40.80474111040894,146.41193763996125 45.84968184654281,145.62739980557672 47.62834684965492,145.84570721246564 48.46917030568147,146.35736149035802 49.22375545851537,146.6916394786167 49.97295071740518,147.22375088433546" stroke="#4dd2ff" stroke-linecap="round" stroke-linejoin="round" stroke-width="0.5"><title>2022-08-19 15.6km</title></polyline><polyline fill="none" points="121.60000000000218,154.31890351065522 121.48776444389296,154.1430507581681 121.4289743906993,154.0280697776834 118.30775702090614,149.63830387209237 117.35642706915678,148.46132109473547 115.96684399356673,147.19637190690992 113.68472101943189,145.96521413134542 111.89429667203513,145.70815538203533 110.94296672027849,145.89080252417625 110.61694915254702,146.04639030368708 109.43045898799755,146.1343310081611 108.96013856240825,146.32374123047703 106.92386490164063,146.56050299842173 106.13287145861614,147.02049408241146 105.66255103302683,147.1828428654735 104.79138933564172,146.9393194930053 104.54554002227087,146.6484427978321 104.3210689100597,146.14109567134074 103.62093282197748,146.1005076786132 103.44990721266367,146.17491897341097 102.86735123098333,146.78373449464925 102.54667821353723,147.81870385234288 102.12445874057084,148.01487209762126 101.87860942719271,148.25839022702348 101.48311270568956,147.98781445442728 100.57453915625956,148.0960449393242 99.339948039109,147.15578477159943 99.05668687368598,147.11519760331066 92.65391562539662,148.11633812912987 91.13071879252675,148.47484978993816 87.12230607448146,149.0633444854102 86.58250649510956,149.1851011430881 85.9839168625549,149.59771872069905 82.64357293083594,149.04305168026622 82.38168996659442,149.16480838741336 82.03963874798865,149.0633444854102 81.33415810961742,148.37338448660012 81.31277990845047,147.80517497944675 81.17916615118156,147.5278322776103 80.532475566004,147.0949040068117 80.38282815784987,146.79049906987711 80.0461214895513,146.49962150812644 79.68269206977493,146.27638874224067 79.4047754546591,146.32374123047703 78.65653841396124,146.00580223400175 78.40534455029774,146.06668432616425 78.44275640233172,146.30344731244986 78.84359767412752,146.68903034534742 78.92911047878442,146.62138441449497 78.73670666832186,146.35079977503483 78.56568105900806,146.3913875644139 78.40000000000146,146.2222715578464 78.48016825436207,145.9990375525158 79.4047754546591,146.32374123047703 79.7361375726723,146.2628594516391 79.96595323518704,146.4116814467161 80.3774836075645,146.78373449464925 80.532475566004,147.07461040203998 81.25398985524589,147.56841911064475 81.3555363107771,148.4004419209923 82.03429419769236,149.05658021794807 82.38703451689798,149.15804413369915 82.62753927997255,149.01599459395948 83.34370901893271,149.19862964230197 85.95719411110258,149.577426132626 86.66267474948108,149.1377513670268 99.04599777310432,147.0949040068117 99.39339354200638,147.15578477159943 100.4997154521916,148.0351653204234 101.44035630335202,147.9675212123875 101.85723122603304,148.25839022702348 102.53598911297013,147.8119394163441 102.88872943214301,146.68903034534742 103.61558827167028,146.0869783403723 104.39589261413857,146.12080167910972 104.70587653100301,146.76344076348687 105.41135716937424,147.06784586530557 105.76944203885432,147.10843307206233 106.06339230484446,147.027258625556 106.90783125076632,146.46579842589927 109.30218978102494,146.16138965534628 111.9637758258068,145.68109648934478 113.71678832115867,145.9313906872958 115.21326240257622,146.68903034534742 116.11114685141729,147.26401705913668 117.60762093282028,148.6574868166208 119.22701967091416,150.9302472958152" stroke="#4dd2ff" stroke-linecap="round" stroke-linejoin="round" stroke-width="0.5"><title>2022-08-14 16.5km</title></polyline><polyline fill="none" points="187.60000000000218,154.4382266284265 184.33442140140687,149.82240099103728 183.16814333046932,148.31948125860436 181.91174377224888,147.16542266720353 179.8601546202044,146.01804707324845 179.12327892993562,145.78991074762598 177.9304945392032,145.66242234343008 177.76085409253574,145.56177337156987 176.525659590141,145.96436803232064 175.3964903669148,146.01804707324845 174.82395385937343,146.2327626554943 172.86778745859192,146.44747730726158 172.04609154497666,146.923872118492 171.59548410847856,147.05806701314214 170.66246165173652,146.73599865540382 170.4451098294303,146.46089694208786 170.31787949442514,146.05830631580102 169.4802797889315,145.9979174397231 168.85473064180042,146.63535186430818 168.51014848447812,147.67535884752579 167.81038164191705,148.16516102699825 167.37567799730823,147.8699383751773 166.47976438826663,147.93703458686286 165.50963308382416,147.16542266720353 165.00601300772541,146.99096961125542 159.59342250583722,147.8632287490218 157.20255246043598,148.34631951070332 153.20009817156097,148.936757379146 152.6752730396438,149.07765628529887 152.34659467419988,149.35274347119775 152.02321757272148,149.4466753312663 149.72777027857592,149.15146031433687 148.7205301264039,148.91662893127432 148.42365934470945,149.05752789464168 148.1002822432274,148.91662893127432 147.48003436004,148.33960994902736 147.3581052889931,147.54787529443638 146.679543502265,147.0110988413544 146.44628788809496,146.6152224815596 146.16532089827524,146.3803790785205 145.81013621303646,146.16566413598775 145.55567554302252,146.22605280762218 145.19518959382185,146.0046273184853 144.58554423856185,145.9241087134469 144.40000000000146,145.61545284867316 144.52192907105564,145.75636119938645 144.6173518223186,146.25289219361002 144.55373665481238,146.25289219361002 145.009645355276,146.21263310916402 145.60338691864672,146.91716236422508 146.08050067493969,146.7829670879728 146.350865136832,146.98425986606162 147.26268253773378,147.36000419729316 147.39521413672628,147.5076172621557 147.45882930421794,148.2054185250454 148.05787213155418,148.88979098807977 148.4554669284771,149.02398055875892 148.73643391827136,148.8562435386266 149.6800589029408,149.09107520782345 152.03912136458894,149.42654709052658 152.24587065898595,149.38629058450897 152.77069579090312,148.997142673692 157.89701803903154,148.1584514407914 159.50330101852887,147.78942280124102 165.1491471346235,146.9708403729819 165.4195115965158,147.05135727704692 166.47446312431202,147.90348649237058 167.41808810897055,147.83639023526848 167.53471591606285,148.00413070768627 167.77327279420933,148.10477471857666 168.4783409007432,147.69548779962133 168.84942937784945,146.55483428421576 169.543894956445,145.95094826299828 170.28077064670288,145.9912075600514 170.65716038778191,146.6621910285976 171.58488158057298,147.02451832355655 171.94536752976273,146.93729162431555 172.86778745859192,146.3736692506427 175.18974107252507,146.0381766986102 176.22878880844655,145.78991074762598 176.7059025647468,145.7832008398036 177.03988219414532,145.64229256543695 178.19555773715547,145.5819031823048 178.6196588538478,145.70268187493275 179.94497484353997,145.80333056056043 180.47510123941902,146.08514579264374 181.21727819363878,146.68232039226132 182.0548778991324,147.18555182642012 183.40139894466483,148.46709146523062 184.41924162475334,149.88278520638414" stroke="#4dd2ff" stroke-linecap="round" stroke-linejoin="round" stroke-width="0.5"><title>2022-08-12 16.3km</title></polyline><polyline fill="none" points="55.60000000000218,202.8679272290792 51.593378773133736,197.27154389707357 50.23154819864067,196.14686678531143 50.00019474196233,195.8607022293727 49.04323271665271,195.22847230320986 47.76553067186251,194.63616530901345 46.76650438169963,194.3766128036077 46.28276533593453,194.30340543886268 44.757935735156934,194.6295101336873 43.48549172347339,194.75595831069586 43.05433300877121,194.98888831140357 41.15092502435073,195.10868045329335 40.2518013631925,195.70098175270323 39.894255111979874,195.7808420559195 38.95306718597931,195.48802030963634 38.76903602727543,195.29502320475876 38.5376825705971,194.76926862619803 37.8068159688446,194.71602734257976 37.18636806232462,195.3349537024369 36.87088607595433,196.08697201613177 36.84985394353134,196.36648031446748 36.37137293086562,196.6526419254442 36.192599805261125,196.86559832205967 36.029600778987515,196.83897882293604 35.73515092501475,196.57943795100073 34.86231742939708,196.67926152548898 33.48471275561678,195.69432672156108 27.669328140207654,196.64598702318835 25.94469328140258,197.03196986486364 21.669912366105564,197.6774861192025 21.17565725415261,197.77730746350062 20.544693281412037,198.17659081334932 18.27848101265772,197.8638191312457 17.20584225899438,197.61093844371862 16.695813047706906,197.02531501394333 16.1489776046692,195.14195599645973 15.57585199611276,194.5296823957142 14.645180136310955,194.21688750355315 13.178188899706583,194.0704721891234 12.799610516074608,193.9373669792585 12.589289191815624,193.7443637845754 12.400000000001455,193.13207277092442 12.631353456668876,193.79095083200082 12.804868549173989,193.90409062045364 13.63037974683175,194.13036941592145 14.34547224927519,194.15033514196693 15.092112950336741,194.310060658343 15.74936708860696,194.6561308295859 16.385589094446914,195.52795065051032 16.843037974682375,197.0852086396153 17.25842259006822,197.63090275580907 17.80000000000291,197.710759923164 20.570983446930768,197.0120053094397 20.87594936709138,197.19168601609272 21.02843232716623,197.5177715466416 21.03369036026561,197.83720017276937 21.675170399215858,197.65086705981594 27.39065238559124,196.63933212004122 33.43213242454294,195.68767168952036 33.71606621227329,195.75422196925865 34.88860759494855,196.66595172727466 35.78773125608859,196.58609286228602 36.08743914313891,197.8039264543986 36.739435248309746,197.68414088178906 36.83407984420046,197.58431934827604 36.77624148004179,197.25823425926865 37.00233690360619,197.13179252021655 37.00233690360619,196.8589434486239 37.21791626095364,196.3931000695011 37.175851996111305,195.98714723863668 37.03914313534915,195.74756694535245 37.08120740020968,195.4813652496814 37.20740019474397,195.22847230320986 37.79104186953191,194.71602734257976 38.5797468354358,194.72268250619527 38.88471275559641,195.374884167657 39.69444985394148,195.71429181223357 40.24654333008948,195.68767168952036 40.33592989290264,195.85404721988743 40.751314508277574,195.60781123490233 41.13515092504167,195.12864578189692 41.70301850049873,195.0021985638159 44.984031158721336,194.54299277249083 45.86738072055232,194.3300263113888 47.78656280429277,194.54299277249083 50.136903602728125,195.82742717286965 51.50925024343087,197.07855379592002 55.142551119777636,202.22913328403592 55.35287244402571,202.36887016885157" stroke="#4dd2ff" stroke-linecap="round" stroke-linejoin="round" stroke-width="0.5"><title>2022-08-07 17.9km</title></polyline><polyline fill="none" points="121.60000000000218,208.56690087021707 117.40873180874405,202.7573529138026 116.18128898128998,201.67113974113818 115.26819126818373,201.07750092069546 114.03076923077242,200.49016997038416 112.85821205821776,200.23755223294938 112.58877338878301,200.20597491957233 110.71767151767926,200.62279373476485 110.11891891892083,200.64805536138738 109.53513513514554,200.84383250391693 107.81871101870638,200.99540134010022 107.02536382537801,201.48168136409367 106.5313929313852,201.6269328553426 105.67817047817516,201.36169066056755 105.2790020790053,200.64805536138738 104.57546777547032,200.6417399560196 103.96673596673645,201.1974923554335 103.63243243243414,202.2142494897489 102.97879417879813,202.64368062746144 102.54968814968379,202.35949869943215 101.78627858627806,202.46685652020824 100.7035343035277,201.67113974113818 100.31933471933735,201.5764106488241 95.6141372141501,202.30897728650962 93.83783783785475,202.68157142035852 89.23742203742222,203.40780566839385 88.74345114346215,203.51516107612042 88.18960498960587,203.88143060745642 86.33347193347436,203.65409123694553 84.96632016631702,203.3446553131398 84.79168399169066,203.48990100241645 84.4823284823251,203.40780566839385 83.86361746362309,202.84576450055465 83.78378378378693,202.20161910230672 83.66403326403815,201.98058676844084 83.04532224532522,201.551149525043 82.9056133056365,201.26064561812746 82.66611226612076,201.03329347218823 82.29189189188764,200.78699406332817 82.05239085239373,200.85646325906782 81.19417879417597,200.55332419094339 80.92972972973439,200.27544498080533 80.6453222453274,200.3701767157363 80.62536382537292,200.4333310987713 80.73513513515354,200.35754582886148 80.81995841996468,200.42701566432152 80.58544698545302,200.62279373476485 80.12141372141559,200.02282608020323 79.67234927235768,196.64391672123384 79.59251559252152,194.59118867924917 78.98877338876991,187.34591528616875 78.80415800416449,186.0950915135436 78.40000000000146,185.2359203851629 78.47484407484444,185.14747539934615 78.82910602911215,185.34331764231683 78.98877338876991,185.1790629135503 78.91891891892737,185.02744265016736 78.75426195426917,184.95163233350104 78.43492723493546,185.16011040760714 78.41995841995595,185.2927777874138 78.7692307692414,185.84239576682376 78.88898128898654,186.37937259108367 79.84698544698404,196.9533971097444 80.2311850311853,200.09229641428465 80.5355509355577,200.578585855219 80.7401247401358,200.73647094688567 81.10935550936483,200.83120174530632 81.11434511435073,200.91330161497535 81.36881496881324,200.80594021788784 81.55841995843366,200.83120174530632 82.04740124740783,201.46905077827614 82.48648648649032,201.34906004223376 82.88066528066702,201.61430230884434 82.84573804574029,201.32379879530345 82.56632016632648,201.01434740998593 82.66611226612076,201.00803205421835 82.93555093555551,201.26064561812746 83.07027027027652,201.5322036732323 83.69896049896488,201.95532586359332 83.79376299377327,202.13215191027484 83.85363825364766,202.76366803272322 84.40249480249622,203.33834027291596 84.78170478170432,203.4709559381663 85.05114345114998,203.31308010343855 85.79958419959439,203.50884605897954 88.2045738045781,203.8498557611456 88.78336798337841,203.4709559381663 100.40415800415212,201.51957310108628 100.72848232848628,201.6016717589264 101.7613305613304,202.4352807162213 102.66444906445759,202.38475938537886 102.93388773389597,203.52779110784104 103.69230769230853,203.35097035251965 104.58544698544938,203.29413496735287 105.99251559252298,203.04784749802639 106.05239085238645,202.41002005764676 105.85280665280152,201.94269540603273 105.86777546778467,201.61430230884434 106.85571725571208,201.5132578137309 107.7388773388775,200.9511938137657 108.54220374221404,200.9006708752022 112.21954261955398,200.2564986107318 114.020790020797,200.4649082582364 115.75218295217928,201.3680059684375 116.37588357588174,201.7848143979245 117.3288981289079,202.6499957617416 118.51642411641296,204.12771367502137 121.04615384615681,207.71445815152038 120.89147609147403,207.99860745526894 121.08108108108354,208.31432687384222 121.03118503119549,208.42167098940627 121.1609147609197,208.76264477679433 121.0860706860658,209.2046441251623 120.68690228690684,209.62138253217563 120.60706860707796,209.84237866169133 120.30769230768783,210.0507454820654 119.7538461538461,210.7326667509151 119.71392931393711,210.6947824974668 119.71891891891937,210.92208755662432 119.84864864865449,211.04836766649532 119.62910602910415,210.75792290277604 119.44449064449145,210.8463193266325 119.60914760916057,210.81474919448738" stroke="#ff0000" stroke-linecap="round" stroke-linejoin="round" stroke-width="0.5"><title>2022-08-06 24.1km</title></polyline><polyline fill="none" points="187.05915492961503,203.44804400930298 185.03098591549497,200.35376001326222 178.0338028168917,190.88497152295895 175.07042253520194,188.2038948449408 172.87323943661613,186.8205466744912 170.1690140845094,185.49422672692162 168.4676056338285,185.00933139353583 166.85633802817756,184.83819133111683 163.63380281691934,185.57979625984444 160.7718309859265,185.8792890776458 160.0056338028371,186.19304254468443 156.47887323942996,186.47827215807774 153.4140845070433,188.0327599737211 151.18309859152941,187.33395636338537 150.3042253521271,185.82224289229634 148.67042253521504,185.79371978807467 147.41971830986586,186.99168351559638 146.66478873239976,189.3447868799267 145.18873239435197,190.3430572724028 144.52394366196677,189.8867062670397 144.40000000000146,189.51591961921076 144.67042253520776,189.4446143449677 144.7605633803032,189.0453039170825 145.44788732395682,188.3892906416295 146.54084507044172,187.89014736861282 146.67605633802305,186.72071672214224 146.66478873239976,187.8045797128434 146.4619718309841,188.0042374681434 146.76619718309666,187.59066026924847 146.63098591551534,186.34991892766993 146.74366197183554,186.7492395753361 146.4056338027949,186.6494095553644 146.83380281690916,186.76350099901902 146.8112676056262,187.1200359638824 146.92394366198278,186.47827215807774 146.43943661972298,184.21067538919306 146.0450704225368,184.3818164714612 146.50704225351365,186.60662523212523 145.96619718310103,186.94889933137893 145.59436619716143,186.8348080885553 145.75211267606937,185.80798134116048 145.54929577465373,184.53869555254641 145.29014084504888,184.42460169854894 144.90704225350783,184.59574243317184 145.30140845071583,186.84906950066215 146.3830985915556,186.8775923190915 146.6197183098484,187.90440863780532 145.09859154930018,189.03104280235857 144.52394366196677,189.7155741302704 145.1211267605613,192.33956967176346 146.552112676065,191.98305237613386 146.5746478873043,191.09888427539408 146.91267605636676,191.05610175965558 147.1267605633766,190.55697112545022 147.7126760563333,190.28601350486133 147.7915492957909,189.84392325893714 147.47605633803323,189.3875700908393 147.18309859154397,187.49083104685997 147.40845070422074,186.9631607280171 148.61408450704766,185.8792890776458 150.5183098591806,185.77945823303162 151.10422535209364,187.27691096602211 152.9859154929727,187.94719243385043 154.146478873241,187.76179585888895 155.6788732394125,186.84906950066215 154.47323943661468,188.2466785193319 156.45633802816883,187.6477054966963 156.39999999999418,187.14855870888277 156.71549295775185,186.84906950066215 156.5239436619595,186.6921938612213 155.45352112675755,186.8348080885553 154.02253521126113,187.8188409935974 153.15492957746028,188.01849872191087 151.44225352113426,187.47656972168625 150.93521126761334,186.8918537254358 150.46197183096956,185.80798134116048 148.72676056336059,185.76519667606044 147.4985915492798,186.8633309108336 146.70985915490746,189.31626472967037 145.05352112674882,190.3430572724028 144.58028169013414,190.00079420377006 144.52394366196677,189.7155741302704 145.15492957746756,188.97399832418887 146.51830985915876,188.07554371761216 146.8112676056262,187.4337857344508 146.95774647884537,186.5638408914965 146.58591549297125,186.67793242783955 146.90140845069982,186.84906950066215 146.51830985915876,186.3641804054787 145.98873239436944,186.3641804054787 146.58591549297125,186.3927033551954 146.70985915490746,186.6494095553644 146.2816901408587,184.80966796028952 146.4281690140997,184.6100041484824 146.4732394366074,184.73835949956265 146.3830985915556,184.49591037177015 146.3605633802872,185.42291872970236 146.8112676056262,186.84906950066215 146.66478873239976,187.79031843013217 145.18873239435197,188.95973719983158 144.55774647886574,189.80114023340138 145.05352112674882,192.31104833252903 146.4732394366074,192.02583451534156 146.68732394363906,191.81192364558956 146.51830985915876,191.212970898996 146.8112676056262,191.07036260014138 146.95774647884537,191.212970898996 147.08169014082523,190.27175255812472 147.53239436618605,189.31626472967037 147.38591549293778,188.3607682326474 147.07042253520922,187.90440863780532 147.14929577463772,187.63344419271743 147.38591549293778,186.94889933137893 148.69295774647617,185.70815042893082 150.48450704225252,185.70815042893082 151.18309859152941,187.13429733735393 153.43661971832626,187.90440863780532 154.0788732394285,187.67622809882596 155.94929577464063,186.44974923154223 160.83943661971716,185.97911982767982 161.17746478872868,185.73667355634097 162.91267605633766,185.43718033299228 163.9943661971556,185.56553467585036 165.3239436619624,184.9808080691364 167.26197183097975,184.88097637276223 168.29859154929727,185.20899444827955 170.01126760563784,185.23751771091338 172.9295774647835,186.67793242783955 175.54366197183845,188.43207424069988 178.70985915492201,191.46966535035608 184.42253521127714,199.71207683786633 187.60000000000582,203.84729983988655 184.58028169014142,207.2551719557232 182.99154929580254,208.5099255528039 182.95774647887447,208.8093531797931 182.56338028171012,209.10877995574992 182.51830985915876,209.7931808194844 182.7098591549293,209.77892251349112 182.48450704227434,210.09260479928344 182.42816901408514,209.22284707514336 182.64225352113863,209.2941389620246 182.42816901408514,209.70763095464645 182.14647887323372,209.60782269125048 182.33802816903335,209.46523929376417 181.80845070424402,209.9357637731664 181.7183098591413,210.20667085347668 182.18028169016907,210.7199665689477 181.3802816901516,211.61822805349948 181.50422535213147,211.4899054531852 182.00000000001455,211.76080853721214 182.2140845070462,211.73229245593393 182.1352112676177,211.40435696612985 182.2816901408587,211.67526027015265 182.3605633803163,211.54693773930194 181.30140845073765,211.78932461079967 181.75211267604755,211.47564737681387" stroke="#4dd2ff" stroke-linecap="round" stroke-linejoin="round" stroke-width="0.5"><title>2022-07-23 16.3km</title></polyline><polyline fill="none" points="55.599999999998545,255.02613944140467 53.56648648648115,252.25572910600022 53.07999999999447,251.8247688035699 52.233513513507205,250.40874200525286 46.85297297296347,242.9095891035322 43.88540540541726,240.126494913653 42.04648648647708,238.95658476199606 39.51675675674778,237.71276904166007 36.28648648648232,237.02312131092913 34.9340540540652,236.9738605586026 34.03891891891544,237.17090340779396 33.425945945949934,237.03543649482162 33.299459459478385,237.86055001778004 32.9491891891812,238.0083307537716 30.429189189213503,238.5132464564449 27.082162162172608,238.90732505700726 25.749189189191384,239.7816808542484 25.038918918915442,239.96640283436864 23.316756756765244,239.26445731371496 22.645405405419297,238.10685111102794 21.26378378381196,238.0699059895851 19.989189189196622,239.1659382105645 19.366486486484064,241.08704147122626 18.49081081082113,241.5549963753365 18.267027027031872,241.83823106858472 17.225945945967396,241.44416516828642 15.727567567584629,241.62888377164927 13.499459459490026,239.92945846835937 12.400000000001455,239.92945846835937 13.548108108123415,239.90482888267434 15.630270270288747,241.5549963753365 17.401081081108714,241.49342349921062 17.819459459467907,242.8849603249255 17.90702702703129,243.68539221590618 17.7318918919118,243.8085349584726 17.887567567595397,244.09176263370318 21.185945945966523,243.45142054565076 21.39027027026168,243.15587652284012 31.51891891894047,241.59194008097984 30.789189189192257,240.68065762731567 29.543783783774415,239.75705122853833 29.621621621634404,239.56001398276567 30.069189189191093,239.54769914074132 30.11783783786086,238.56250637492485 30.49729729731189,238.24231642796076 33.63999999999942,237.7004539494519 34.41837837840285,237.73739922103414 34.85621621622704,237.46646688107285 36.150270270270994,237.2694246722749 39.584864864853444,237.63887846352736 41.97837837837142,238.85806532532297 44.09945945948857,240.18806871529523 46.697297297279874,242.60172889149544 53.40108108107961,251.94790052692406 53.22594594593829,252.2926684654667 52.98270270271314,252.35423403126333 53.187027027030126,252.64974816706672" stroke="#4dd2ff" stroke-linecap="round" stroke-linejoin="round" stroke-width="0.5"><title>2022-07-16 10.3km</title></polyline></svg>