<?xml version="1.0" encoding="utf-8" ?>
<svg baseProfile="full" height="300mm" version="1.1" viewBox="0,0,200,300" width="200mm" xmlns="http://www.w3.org/2000/svg" xmlns:ev="http://www.w3.org/2001/xml-events" xmlns:xlink="http://www.w3.org/1999/xlink"><defs /><rect fill="#222222" height="300" width="200" x="0" y="0" /><text fill="#FFFFFF" style="font-size:12px; font-family:Arial; font-weight:bold;" x="10" y="20">Over 10km Runs</text><text fill="#FFFFFF" style="font-size:4px; font-family:Arial" x="10" y="280">ATHLETE</text><text fill="#FFFFFF" style="font-size:9px; font-family:Arial" x="10" y="290">Allen</text><text fill="#FFFFFF" style="font-size:4px; font-family:Arial" x="120" y="280">STATISTICS</text><text fill="#FFFFFF" style="font-size:3px; font-family:Arial" x="120" y="285">Number: 11</text><text fill="#FFFFFF" style="font-size:3px; font-family:Arial" x="120" y="290">Weekly: 1.6</text><text fill="#FFFFFF" style="font-size:3px; font-family:Arial" x="141" y="285">Total: 183.0 km</text><text fill="#FFFFFF" style="font-size:3px; font-family:Arial" x="141" y="290">Avg: 16.6 km</text><text fill="#FFFFFF" style="font-size:3px; font-family:Arial" x="167" y="285">Min: 10.3 km</text><text fill="#FFFFFF" style="font-size:3px; font-family:Arial" x="167" y="290">Max: 24.1 km</text><polyline fill="none" points="64.05042016806692,67.32228448558453 64.46982429335185,66.7828527209058 64.85485103132669,66.59144036148064 66.14744079449883,65.36464761631214 66.64935064935707,64.79909697703988 66.59434682963183,64.68598625210143 67.0,64.33795200386521 61.588999236038944,56.72423129409435 59.46447669975896,54.73146289229771 58.06187929718726,53.878643559983175 56.34300993124634,53.02581290994567 54.012223071054905,52.747335144362296 52.36210847974871,53.1215393631137 47.75553857907653,53.791620542782766 46.662337662346545,54.4442902993469 46.1673032849576,54.59222785598104 44.9228418640123,54.20932995060866 44.40718105423002,53.32169421356957 43.45836516425334,53.20856328774971 42.57142857143481,54.04398696801945 42.10389610389393,55.45373980185832 41.59511077157367,55.66258944344008 41.26508785333135,55.99326665452827 41.079449961813225,55.98456464443734 40.6806722688998,55.645185332563415 39.49809014514176,55.767014009703416 38.12987012985832,54.714058529250906 37.56608097785647,54.52261022468883 21.54621848739771,57.20283458993072 21.092436974788143,57.637925402406836 20.82429335371853,57.72494321143313 17.276546982444415,57.23764196335105 16.410236822019215,57.00269182710326 16.203972498093208,57.18543089617742 15.674560733386897,57.02009557032579 14.856378915188543,56.26302838233096 14.801375095492403,55.45373980185832 14.567608861725603,55.03603848255443 13.886936592818529,54.60093005458475 13.440030557692808,53.98307102509716 13.0,53.66108579606225 13.570664629485691,54.087498320463055 13.880061115349235,54.60093005458475 14.656990068760933,55.12305981462123 14.787624140568369,55.35801682263991 14.877005347596423,56.23692245814891 15.660809778462863,57.02009557032579 16.203972498093208,57.18543089617742 16.492742551563424,57.00269182710326 20.77616501146258,57.716241435846314 21.49809014515631,57.25504564295261 21.92436974789598,57.12451793088985 37.63483575248392,54.505205805107835 38.081741787609644,54.61833444826334 39.484339190225,55.732205839813105 40.7494270435418,55.645185332563415 41.04507257449586,55.99326665452827 41.29946524064144,55.99326665452827 41.51948051947693,55.72350379438285 42.14514896868786,55.3841231038532 42.200152788384,54.905506263479765 42.598930481268326,53.9395596019167 43.27272727272066,53.30428946870961 43.63712757831672,53.20856328774971 44.41405653171387,53.25207520587719 44.90909090908826,54.1484141644105 45.79602750190679,54.505205805107835 46.24293353706162,54.548716845252784 47.88617265086941,53.722002044196415 53.1459129106006,52.83435957574693 54.184110007649,52.67771551441547 55.35294117646845,52.903979036003875 56.466768525584484,52.95619358168187 57.0443086325613,53.365206055103044 58.72880061115575,54.1484141644105 60.021390374342445,55.12305981462123 61.09396485866455,56.11509467181895 62.372803666919935,57.68143432164652 66.21619556915539,63.18072457893868" stroke="#4dd2ff" stroke-linecap="round" stroke-linejoin="round" stroke-width="0.5"><title>2022-09-01 16.9km</title></polyline><polyline fill="none" points="127.0,65.64055996015668 121.36419515942544,57.86038615881262 119.71840184400935,56.38125955783471 118.6465616596106,55.79485088464571 118.21091048789094,55.40099132637988 116.58586246636696,54.665780395916954 115.59700345755118,54.50823410842713 114.29004994237766,54.35944003984332 112.5889358432396,54.78831613177317 112.15328467154177,54.73580084484274 111.0399538993297,54.90209910707199 110.41067998461949,55.147169450399815 108.0318862850545,55.365981471710256 106.74567806377308,56.127441531461955 106.22704571646318,56.24997449622606 105.07913945445762,55.86487011041754 104.56742220516026,54.92835668826592 103.50941221667745,54.858336447963666 102.70726085285423,55.64605977804604 102.29927007298829,56.60881969962065 102.23011909333582,57.07268981521338 101.65616596235486,57.35276072604029 101.33807145601168,57.676591203904536 100.81943910873088,57.29149531798612 100.08643872454559,57.44903482135851 99.3880138301829,57.25648648731294 98.1432961966857,56.28498387207219 97.71456012292765,56.144946254906245 82.26623127160565,58.735593060118845 81.61621206300333,58.875625064596534 81.12524010755442,59.29571925793425 80.77257011140318,59.40074237965746 78.3799462159077,59.094424464317854 76.3814829043331,58.6393208810332 76.06338839801174,58.84936908686359 75.54475605070911,58.656824924277316 75.20591625046654,58.227974500725395 74.8463311563537,58.00917216808011 74.7080291970633,57.69409550783894 74.73568958893156,57.13395543065417 74.54898194390262,56.731351751812326 73.74683058008668,56.197460396906536 73.47714175951114,55.73358399987774 73.0,55.357229005079716 73.51863234727352,55.73358399987774 73.7260852862164,56.16245097367937 74.5904725316941,56.7401040323748 74.8255858624616,57.86038615881262 75.59316173644766,58.665576944098575 76.02189781021298,58.840617091926106 76.38839800230198,58.586808722910064 77.49481367653061,58.884377054804645 80.77257011140318,59.35698276633775 81.8236650019171,58.77060108965816 97.7353054168052,56.1536986148858 98.16404149058508,56.21496510141151 99.66461774875643,57.41402607600321 100.77794852093939,57.282743112118624 101.07529773337592,57.589069613102765 101.34498655399511,57.63283042333205 101.63542066846276,57.34400852845283 102.18862850557343,57.098946514641284 102.63119477524742,55.73358399987774 103.55090280443983,54.840831376037386 104.51210142142372,54.83207883828436 104.98924318095669,55.716079165023984 105.14137533614121,55.681069481011946 105.72915866308176,56.05742259013641 106.38609296965296,56.16245097367937 107.85209373798716,55.38348640139884 108.45370726085093,55.26095179394906 114.20706876679469,54.35944003984332 115.60391855550552,54.4557185939193 116.50288129082037,54.604512440855615 118.68805224740208,55.66356463191187 119.84978870534542,56.44252582866466 121.0115251632742,57.45778700475057 123.00307337685808,59.86459245956212 126.43987706492044,64.86170959682204" stroke="#4dd2ff" stroke-linecap="round" stroke-linejoin="round" stroke-width="0.5"><title>2022-08-28 16.3km</title></polyline><polyline fill="none" points="187.0,65.45362819924048 181.71854958069162,58.15423843782992 180.16674888999842,56.73809141668244 179.30759743465023,56.139591026756534 176.87666502220964,54.87513466265227 175.96423285644414,54.689678902759624 175.05846077950264,54.54637180075588 173.53330044402537,54.86670486737057 173.1669955599573,55.06901963906785 171.7350764676885,55.15331726650038 171.05574740998418,55.35563110669318 168.49827331033885,55.68438969454655 167.4060187469222,56.341901661515294 166.98643315245135,56.45148631412303 165.81425752344512,56.07215400237692 165.28145041935932,55.15331726650038 164.38899851998576,55.128027990282135 163.56980759742873,55.87827215038851 163.1036013813573,57.210144003183814 162.33103108043724,57.79177530349989 162.084607794779,57.79177530349989 161.6783423779125,57.463027844969474 160.58608781450312,57.55575166289054 159.24074987666245,56.50206378104485 158.84114454861265,56.35876085137352 143.9025653675344,58.83701209846549 143.25653675382637,58.98030932344409 142.83695115934825,59.317477963464626 142.4173655648774,59.46077408249403 139.35372471634037,59.04774319754142 138.22150962013257,58.761148728208354 138.0283670448989,58.929733869932534 137.77528367045306,58.938163115049974 137.38233843116905,58.71900237142472 136.72298963985668,58.0868035958847 136.52318697583542,57.04998370540852 135.677355698077,56.40933839363424 135.12456832757744,55.65067094490223 134.65170202269655,55.338771645107045 134.30537740503496,55.4146391862123 133.4129255056905,55.035300556093716 133.16650222003227,54.993151676724665 133.0,55.13645775016994 133.05994079920492,54.993151676724665 133.3196842624602,55.00158145487876 134.30537740503496,55.39777974059689 134.71830291070364,55.32191217896616 135.1512086827861,55.63381156326432 135.63073507646186,56.257605643593706 136.5564874198244,56.94882962080737 136.73630981745373,58.02779804926831 137.48223976319423,58.77800726289934 137.90182535767235,58.929733869932534 138.2814504193375,58.71057309665048 142.48396645289176,59.427057378292375 143.1632955106179,58.9550216018215 143.4962999506606,58.86229986802937 158.77454366058373,56.30818326804001 159.21410952147562,56.426197565262555 160.59274790331256,57.53046336262196 160.8458312777584,57.58103995290003 161.61840157870756,57.3955922542591 162.25777010360616,57.774916501686675 162.5308337444585,57.48831617263568 163.1036013813573,57.22700295793038 163.5098667982238,55.87827215038851 164.03601381351473,55.29662297124014 164.4089787864068,55.06901963906785 165.3413912185497,55.11116846705045 165.7676369018227,55.920420430451486 166.95979279724997,56.37562003669518 167.73902318697947,56.097442895068525 168.45165268870915,55.63381156326432 168.96447952641756,55.507366055284365 173.5599407992122,54.90885383238128 173.94622594968678,54.714968357089674 174.71213616181194,54.580091148556676 175.8643315244408,54.773977043929335 176.01751356686145,54.69810872200833 177.01652688704053,54.89199424980325 177.91563887519442,55.406209463977575 178.58164775531623,55.62538187073005 179.97360631477204,56.51892292755656 181.78515046869143,58.171097136862954 183.83645781944506,60.944290990926675 186.32067094228842,64.63607167250302 186.51381351753662,64.74564172684404" stroke="#4dd2ff" stroke-linecap="round" stroke-linejoin="round" stroke-width="0.5"><title>2022-08-26 16.9km</title></polyline><polyline fill="none" points="66.22233451238571,123.59167451476242 63.68468923699402,120.00880853901617 61.89742294089956,118.01440315133368 61.07200606368133,117.28051533825783 59.796361798893486,116.46891192059411 57.93405760485621,115.57095567559736 55.703385548244114,115.29465890207211 54.55735219808412,115.51915012177051 54.100303183433425,115.76090901288262 52.66776149570069,115.8127143702659 51.99924204144918,116.08037471292482 49.37973724103358,116.37393637737841 48.24734714502847,117.04739626516675 47.71526023244223,117.15963888824626 46.57604850935604,116.76247179614438 46.06442647802032,115.83861703317234 45.09575543204846,115.80408014694694 44.256695300660795,116.63296025296586 43.76553815058287,118.0057692261762 43.24709449218062,118.26478647266049 42.93329964629811,118.566971930406 42.421677614955115,118.2129831075581 41.29610914605291,118.3683930766565 39.89085396666633,117.22871117346222 39.41334007075784,117.05603032012732 23.55987872663536,119.72389730282885 22.96639717029757,120.14694686192524 22.502526528565795,120.24191678537318 18.320869125818717,119.55122320679948 18.03436078827508,119.75843206592981 17.529560384020442,119.55122320679948 16.772359777671227,118.84325452421763 16.59499747348309,117.78992071701214 15.735472460823075,117.11646867198579 15.22385042951646,116.42574123666418 14.62354724607576,116.01993537891394 14.268822637684934,116.11491144949832 13.40247599799477,115.73500631839124 13.0,115.73500631839124 13.729914098017616,115.76954324202961 14.248357756441692,116.05447214823653 14.596260737751436,115.97676439098723 14.930520464869915,116.13217981073831 15.489893885795027,116.62432614075078 15.749115715007065,117.09920057730051 16.485851440113038,117.55680350639159 16.71778676100803,118.06620667780226 16.81328954017954,118.86915595603205 17.577311773624388,119.5425894897271 17.986609398671135,119.70662991426798 18.40272865084262,119.4907871627147 19.53511874684773,119.77569944047718 22.632137443149986,120.2246495370855 23.737241030808946,119.65482772051473 39.37241030824225,117.05603032012732 39.80217281455407,117.15100484734285 41.24153612936061,118.27342036276968 42.462607377470704,118.20434920925618 42.67407781709335,118.48063337431813 42.91283476503304,118.566971930406 43.30166750884382,118.2129831075581 43.79282465892902,117.9885013723324 44.256695300660795,116.53798495409137 45.02753916120855,115.77817747001245 46.098534613447555,115.80408014694694 46.487367357258336,116.67613079658622 46.67837291563774,116.65022847392538 47.23774633652647,116.97832378355815 47.83122789288609,117.09920057730051 48.240525517954666,116.99559191097069 49.48888327437453,116.28759485165938 55.75113693786261,115.27739031397505 56.794845881770016,115.45007598451775 57.0540677109675,115.3723674906505 58.05002526528551,115.57958993049397 60.15790803437267,116.67613079658622 61.187973724110634,117.38412354160391 62.83880747852527,118.84325452421763 64.91258211218519,121.64054836835567 67.0,124.72260968603223" stroke="#4dd2ff" stroke-linecap="round" stroke-linejoin="round" stroke-width="0.5"><title>2022-08-21 16.1km</title></polyline><polyline fill="none" points="127.0,125.46575024303456 126.26562694946915,124.60460103392688 121.72464129756554,118.16692453945143 119.9257641921431,116.52116122350708 118.79388646288862,115.80485702012083 116.86699937617232,114.84977207416523 114.57629444789927,114.60247093251382 113.64653774174076,114.78155116659036 113.0873362445418,115.02032401978795 111.7466001247667,115.08001709162636 110.87074235807086,115.36142652526905 108.68109794134944,115.62577969616541 106.9563318777291,116.4444147342947 105.75034310667252,116.12037297090865 105.45389893947868,115.82191197678912 105.13724267001089,115.13971010687237 104.2142233312552,115.08854466871708 103.3990018714976,115.85602187629411 103.00149719275942,116.83667358537059 102.98802245788829,117.19482083726325 102.10542732378235,117.82583723000425 101.51927635684115,117.45063905583811 100.43456019962468,117.58707501417666 98.96581409856299,116.46999690775556 98.4605115408558,116.35914074769244 85.69993761698424,118.52506422611623 84.123393636939,118.67855203981162 82.72875857767212,119.01963473090291 82.41210230817524,119.35218857611471 82.04154709920113,119.480093433609 79.0636306924498,119.08785104742128 77.7431066749923,118.73824164409598 77.48034934497991,118.96847244499077 77.04915782907483,118.83203947939182 76.18003742983274,118.0134354788097 76.17330006237898,117.33125734982605 76.04529008108511,117.01574746591359 75.18290704930405,116.39325035618822 74.91341235184518,115.93276908258849 74.05776668746694,115.30173372019635 74.15208983156481,115.1055998193915 73.97018091079372,114.95210329697875 73.97691827823292,114.79860640041443 74.2262008733669,114.94357570142893 74.32052401747933,114.81566162961099 74.23967560823803,114.95210329697875 73.97018091079372,114.78155116659036 74.15882719900401,115.16529281038675 73.80848409233295,115.38700913868524 73.0,115.05443435350753 73.74111041797005,115.36995406424103 74.21946350593498,115.31878881313605 74.9201497192771,115.86454934826179 75.21659388647095,116.35061334269267 75.99139114160789,116.82814624503953 76.17330006237898,117.1692389582604 76.29457267623366,118.0560713665036 77.16369307549758,118.84056654839515 77.48708671240456,118.94289128646051 77.83069245165098,118.71266039203329 78.80087336244469,118.98552654489322 81.9876481596948,119.45451248287281 82.25040548972902,119.38629656349076 82.86350592639064,118.91731011752563 98.56157205240015,116.2482843924954 98.90517779164657,116.35061334269267 100.36044915783714,117.49327532459574 100.68384279477323,117.55296605230978 101.56643792887917,117.42505728075048 102.02457891451922,117.78320118642296 102.88022457890474,117.27156641195324 103.3653150343016,115.80485702012083 104.10642545227165,115.1055998193915 104.42981908922229,115.02032401978795 105.15745477229939,115.04590677181113 105.67623206487042,115.93276908258849 106.90243293823005,116.34208593653602 107.31341235184664,116.23975697245623 108.50592638801027,115.51492204994429 114.81210230817669,114.53424975696544 117.03543356206501,114.80713401558023 118.08646288210002,115.44670186294388 119.02969432314421,115.86454934826179 119.96618839675648,116.52968860541296" stroke="#4dd2ff" stroke-linecap="round" stroke-linejoin="round" stroke-width="0.5"><title>2022-08-19 15.6km</title></polyline><polyline fill="none" points="187.0,125.39862938832084 186.8597055548671,125.17881344771013 186.78621798837412,125.03508722210245 182.88469627613085,119.54787984011637 181.69553383644234,118.07665136841388 179.9585549919575,116.49546488363558 177.10590127429168,114.95651766417723 174.86787084004754,114.63519422754325 173.67870840034448,114.8635031552185 173.27118644068105,115.05798787960521 171.78807373499876,115.16791376019683 171.20017320301122,115.40467653809173 168.6548311270526,115.70062874802534 167.66608932326926,116.27561760300887 167.07818879128172,116.47855358183733 165.98923666954943,116.17414936625573 165.68192502784223,115.81055349728558 165.40133613757644,115.17636958917137 164.52616602747003,115.12563459826197 164.3123840158296,115.21864871676371 163.58418903873098,115.97966811830702 163.18334776692063,117.27337981542223 162.65557342571265,117.51859012202476 162.3482617839909,117.82298778378026 161.85389088211377,117.48476806803228 160.71817394532263,117.6200561741498 159.17493504888262,116.44473096449656 158.8208585921093,116.39399700413196 150.8173945317467,117.64542266140779 148.91339849065844,118.09356223742361 143.90288259310182,118.82918060676457 143.22813311888603,118.98137642885558 142.4798960781918,119.49714840087108 138.3044661635431,118.80381460033095 137.9771124582403,118.95601048426761 137.54954843498126,118.82918060676457 136.66769763702177,117.96673060824833 136.64097488555853,117.25646872430661 136.47395768897695,116.90979034701013 135.66559445750318,116.36863000851008 135.47853519731143,115.98812383734185 135.05765186193457,115.62452688515623 134.60336508721957,115.34548592779902 134.25596931832115,115.40467653809173 133.32067301744974,115.00725279250037 133.00668068786763,115.0833554077035 133.05344550291193,115.37930914056051 133.55449709265667,115.86128793167882 133.66138809848053,115.77673051811871 133.42088333540596,115.43849971878808 133.20710132375825,115.4892344555119 133.0,115.27783944730618 133.10021031795623,114.99879694064293 134.25596931832115,115.40467653809173 134.67017196583765,115.32857431454613 134.95744154398562,115.51460180839058 135.47185450945835,115.97966811830702 135.66559445750318,116.34326300254179 136.56748731905827,116.9605238883014 136.69442038847046,118.00055240123766 137.54286774711363,118.82072527243145 137.98379314612248,118.9475551671203 138.28442409996205,118.76999324244389 139.17963627366407,118.99828705287655 142.4464926388755,119.47178266577976 143.32834343684954,118.92218920878076 158.8074972163813,116.36863000851008 159.24174192750797,116.44473096449656 160.6246443152413,117.54395665052289 161.8004453791873,117.45940151547984 162.3215390325422,117.82298778378026 163.16998639121448,117.26492427042831 163.61091179017967,115.86128793167882 164.51948533958785,115.10872292546264 165.4948657676723,115.15100209888624 165.88234566375468,115.95430095435586 166.76419646171416,116.33480733163015 167.2118025485688,116.38554134007427 167.57924038105557,116.2840732819459 168.634789063457,115.58224803236953 171.62773722627753,115.20173706918285 174.95471978226124,114.60137061167916 177.14598540144652,114.91423835911701 179.01657800321846,115.86128793167882 180.13893356426706,116.58002132391994 182.00952616602444,118.32185852077237 184.0337745886427,121.16280911976355" stroke="#4dd2ff" stroke-linecap="round" stroke-linejoin="round" stroke-width="0.5"><title>2022-08-14 16.5km</title></polyline><polyline fill="none" points="67.0,185.54778328553584 62.91802675175859,179.77800123879933 61.46017916308483,177.8993515732618 59.889679715306556,176.45677833400987 57.325193275253696,175.02255884156693 56.4040986624168,174.73738843453611 54.91311817400128,174.57802792929215 54.701067615664215,174.4522167144678 53.157074487673526,174.95546004040443 51.745612958642596,175.02255884156693 51.029942324210424,175.2909533193706 48.584734323230805,175.55934663408334 47.55761443121446,176.15484014811955 46.99435513559001,176.32258376643222 45.82807706466701,175.91999831925932 45.55638728678605,175.57612117761528 45.39734936802415,175.072882894754 44.35034973615984,174.9973967996557 43.56841330224415,175.79418983039068 43.137685605594015,177.09419855941087 42.26297705239267,177.70645128375327 41.71959749663074,177.33742296897617 40.59970548532874,177.42129323358313 39.387041354777466,176.45677833400987 38.75751625965495,176.23871201407383 31.991778132294712,177.32903593628362 29.00319057553861,177.9328993883828 24.00012271444575,178.67094672393796 23.3440912995502,178.84707035662723 22.93324334274803,179.19092933900174 22.529021965892753,179.30834416408834 19.65971284821717,178.93932539292655 18.400662658001238,178.64578616409926 18.029574180880445,178.8219098683112 17.625352804032445,178.64578616409926 16.850042950041825,177.92451243628966 16.697631611241377,176.9348441180482 15.849429377827619,176.26387355169936 15.55785986011324,175.76902810195315 15.206651122840412,175.47547384815334 14.762670266289206,175.20708016998833 14.444594428772689,175.28256600953318 13.993986992274586,175.00578414811025 13.231930298199586,174.905135891815 13.0,174.5193160608469 13.152411338815,174.6954514992358 13.271689777895517,175.316115242018 13.192170818510931,175.316115242018 13.762056694089551,175.26579138646048 14.50423364830931,176.1464529552868 15.10062584366824,175.97870885996963 15.438581421039999,176.23032483258066 16.57835317216086,176.70000524662464 16.744017670906032,176.88452157770007 16.82353663026879,177.75677315631037 17.57234016444272,178.61223873510244 18.069333660590928,178.7799756984532 18.42054239783465,178.57030442328687 19.60007362867327,178.86384400978568 22.548901705733442,179.2831838631646 22.80733832372789,179.23286323064167 23.46336973862344,178.74642834212136 29.871272548785782,177.69806430099197 31.87912627316109,177.23677850155582 38.93643391827209,176.2135504662292 39.274389495643845,176.314196596315 40.59307890538912,177.37935811546777 41.77261013621319,177.29548779409015 41.918394895074016,177.5051633846124 42.21659099275712,177.63096839822538 43.09792612592719,177.11935974953303 43.56178672230453,175.69354285527152 44.429868695551704,174.93868532875422 45.35096330837405,174.98900945006972 45.82145048472739,175.82773878575244 46.98110197571077,176.28064790444841 47.4317094122016,176.1716145304017 48.584734323230805,175.46708656330884 51.487176340655424,175.04772087326637 52.78598601055273,174.73738843453611 53.38237820593349,174.72900104975633 53.799852742675284,174.5528657067989 55.2444471714407,174.47737897788465 55.774573567308835,174.6283523436723 57.43121855441859,174.75416320070508 58.093876549268316,175.10643224080923 59.02159774204483,175.8529004903321 60.06859737390914,176.4819397830288 61.751748680828314,178.08386433154374 63.02405203093804,179.85348150798382" stroke="#4dd2ff" stroke-linecap="round" stroke-linejoin="round" stroke-width="0.5"><title>2022-08-12 16.3km</title></polyline><polyline fill="none" points="127.0,186.0849090363481 121.99172346641717,179.08942987133923 120.2894352482981,177.68358348163747 120.00024342745019,177.32587778671223 118.80404089581862,176.53559037900777 117.2069133398254,175.79520663626317 115.95813047712727,175.470766004506 115.35345666991634,175.37925679857653 113.44741966894799,175.7868876671091 111.85686465434264,175.94494788836892 111.31791626096674,176.23611038925446 108.93865628043568,176.3858505666176 107.81475170399062,177.1262271908745 107.36781888997211,177.22605256989482 106.19133398247504,176.8600253870427 105.96129503409611,176.61877900594482 105.67210321324819,175.9615857827448 104.75851996105484,175.89503417822198 103.98296007790486,176.66869212804522 103.58860759494564,177.60871502016016 103.562317429416,177.9581003930798 102.96421616358566,178.3158024068034 102.74074975658004,178.58199790256913 102.53700097373803,178.54872352867096 102.16893865627208,178.22429743874818 101.07789678675181,178.3490769068594 99.35589094452007,177.1179084019459 92.08666017526411,178.30748377898271 89.93086660175322,178.78996233107682 84.5873904576365,179.59685764899768 83.96957156769349,179.72163432937668 83.18086660176778,180.22073851668392 80.34810126582306,179.82977391405439 79.0073028237457,179.51367305464373 78.36976630963909,178.78164376742643 77.68622200583923,176.4274449955701 76.96981499514368,175.66210299463637 75.80647517039324,175.2711093794387 73.97273612463323,175.0880902364006 73.49951314509235,174.9217087240686 73.23661148977408,174.68045473071834 73.0,173.9150909636519 73.28919182083337,174.73868853999738 73.50608568646567,174.8801132755616 74.53797468353878,175.1629617699 75.43184031159035,175.18791892745503 76.36514118792547,175.387575822926 77.18670886076143,175.8201635369769 77.98198636806046,176.90993831313244 78.55379746835388,178.8565107995164 79.07302823758073,179.53862844475952 79.75000000000728,179.63844990395228 83.21372930866346,178.7650066367969 83.59493670886877,178.98960752011408 83.78554040895688,179.397214433302 83.79211295033747,179.79650021596171 84.59396299902437,179.56358382476537 91.73831548199087,178.2991651500488 99.29016553067777,177.1095896118968 99.64508276533888,177.19277746156877 101.11075949369115,178.3324396590906 102.23466407011438,178.23261607785753 102.60929892892455,179.75490806799644 103.42429406038718,179.60517610223178 103.5425998052524,179.4803991853405 103.47030185005133,179.07279282408126 103.75292112951138,178.91474065026705 103.75292112951138,178.57367931077897 104.02239532619569,177.99137508687272 103.96981499514368,177.4839340482904 103.79892891919008,177.1844586816842 103.85150925026392,176.85170656210175 104.00925024342723,176.53559037900777 104.73880233692034,175.89503417822198 105.7246835443002,175.9033531327441 106.10589094449824,176.71860520957125 107.11806231742958,177.1428647652865 107.80817916261731,177.1095896118968 107.91991236613103,177.31755902485747 108.4391431353506,177.00976404362518 108.91893865630118,176.41080722737024 109.62877312562341,176.25274820476625 113.73003894840076,175.6787409656099 114.83422590068949,175.41253288922962 117.2332035053696,175.6787409656099 120.17112950341107,177.28428396608797 121.88656280429132,178.8481922448991 126.42818889972114,185.28641660504218 126.69109055503213,185.46108771106083" stroke="#4dd2ff" stroke-linecap="round" stroke-linejoin="round" stroke-width="0.5"><title>2022-08-07 17.9km</title></polyline><polyline fill="none" points="187.0,193.20862608777315 181.7609147609328,185.94669114225326 180.2266112266152,184.58892467642363 179.08523908523057,183.84687615087023 177.53846153846825,183.11271246298202 176.0727650727713,182.79694029118764 175.73596673597785,182.75746864946996 173.39708939709817,183.2784921684579 172.64864864865376,183.31006920173604 171.91891891893465,183.55479062989616 169.77338877337752,183.7442516751289 168.7817047817225,184.3521017051171 168.1642411642315,184.5336660691828 167.09771309771895,184.20211332571125 166.59875259875116,183.31006920173604 165.7193347193388,183.30217494502358 164.95841995842056,183.99686544429278 164.54054054053995,185.26781186218795 163.72349272349675,185.80460078432588 163.18711018710746,185.44937337428928 162.23284823284484,185.58357065025848 160.87941787941236,184.58892467642363 160.39916839916987,184.4705133110292 154.5176715176858,185.38622160813975 152.2972972973148,185.85196427544724 146.54677754677687,186.7597570854923 145.92931392932223,186.89395134515144 145.23700623701006,187.3517882593187 142.91683991684113,187.06761404618373 141.20790020789718,186.68081914142385 140.98960498961242,186.86237625302238 140.60291060290183,186.7597570854923 139.8295218295316,186.05720562569695 139.72972972973366,185.25202387788522 139.5800415800477,184.97573346055287 138.80665280665562,184.43893690630648 138.63201663204381,184.07580702266205 138.33264033265004,183.7916168402371 137.86486486485956,183.4837425791593 137.5654885654876,183.5705790738357 136.4927234927236,183.19165523868287 136.16216216216708,182.84430622601212 135.80665280665562,182.9627208946731 135.78170478171523,183.04166387346777 135.91891891894193,182.94693228607866 136.02494802495494,183.03376958040462 135.7318087318199,183.2784921684579 135.15176715177222,182.52853260025586 134.59043659044983,178.30489590154684 134.4906444906519,175.73898584906055 133.7359667359633,166.68239410770911 133.5051975052047,165.1188643919304 133.0,164.04490048145453 133.09355509355373,163.9343442491845 133.53638253638928,164.17914705289877 133.7359667359633,163.97382864193787 133.64864864866104,163.7843033127101 133.44282744283555,163.68954041687903 133.04365904367296,163.95013800950983 133.0249480249404,164.11597223427088 133.4615384615463,164.80299470853424 133.61122661123227,165.4742157388573 134.8087318087346,178.69174638718323 135.28898128898436,182.6153705178549 135.66943866944348,183.22323231902556 135.92515592517157,183.42058868360982 136.3866943867033,183.53900218163471 136.39293139293295,183.64162701872192 136.71101871101564,183.5074252723607 136.94802494804026,183.53900218163471 137.55925155925797,184.3363134728461 138.1081081081138,184.1863250527931 138.60083160083013,184.5178778860536 138.557172557179,184.1547484941293 138.20790020791173,183.76793426248696 138.33264033265004,183.76004006777657 138.66943866944348,184.07580702266205 138.8378378378402,184.41525459154218 139.6237006237061,184.94415732949346 139.74220374221477,185.16518988784446 139.81704781705776,185.95458504090493 140.50311850311846,186.67292534114677 140.9771309771313,186.8386949227097 141.31392931393202,186.6413501292991 142.24948024949117,186.88605757372716 145.2557172557208,187.31231970143563 145.97920997922483,186.8386949227097 160.50519750519015,184.39946637635876 160.9106029106115,184.5020896986607 162.20166320166027,185.54410089527664 163.33056133057107,185.4809492317254 163.6673596673645,186.9097388848022 164.61538461538294,186.68871294064957 165.73180873181263,186.61766870919382 167.4906444906519,186.3098093725348 167.56548856548034,185.51252507205936 167.31600831600372,184.9283692575409 167.33471933472902,184.5178778860536 168.56964656963828,184.39157226716634 169.67359667359415,183.68899226720896 170.67775467776664,183.62583859400547 175.27442827443883,182.82062326341838 177.52598752599442,183.08113532279822 179.69022869021865,184.21000746054779 180.4698544698549,184.73101799740834 181.66112266113487,185.8124947021788 183.14553014551348,187.65964209377853 186.3076923076951,192.1430726894032 186.11434511434345,192.49825931908708 186.35135135135351,192.8929085923046 186.28898128899164,193.02708873676238 186.45114345115144,193.45330597099382 186.35758835758315,194.00580515645197 185.85862785862992,194.52672816522318 185.75883575884654,194.8029733271178 185.3846153846098,195.06343185258447 184.6923076923049,195.91583343864477 184.64241164241685,195.86847812183623 184.64864864864649,196.1526094457804 184.81081081081356,196.31045958312097 184.536382536382,195.9474036284737 184.30561330560886,196.05789915829519 184.5114345114489,196.0184364931083" stroke="#ff0000" stroke-linecap="round" stroke-linejoin="round" stroke-width="0.5"><title>2022-08-06 24.1km</title></polyline><polyline fill="none" points="66.32394366202061,246.810055011636 63.788732394372346,242.9422000165796 55.04225352111098,231.1062144036987 51.338028168989695,227.75486855617783 48.59154929577198,226.02568334311945 45.211267605627654,224.36778340865567 43.084507042280165,223.76166424191615 41.07042253522377,223.54773916389968 37.042253521154635,224.47474532481283 33.46478873240994,224.84911134706635 32.507042253550026,225.24130318085372 28.098591549278353,225.59784019760264 24.26760563379503,227.5409499671514 21.47887323940813,226.66744545423717 20.38028169015888,224.7778036153759 18.3380281690188,224.74214973510243 16.774647887330502,226.23960439450457 15.830985915497877,229.18098359991563 13.985915492943604,230.42882159051078 13.154929577445728,229.85838283380144 13.0,229.39489952400618 13.338028169004247,229.30576793121872 13.450704225382651,228.80662989635312 14.309859154949663,227.9866133020405 15.676056338052149,227.36268421077693 15.845070422525168,225.90089590268326 15.830985915497877,227.2557246410579 15.57746478873014,227.50529683518107 15.957746478859917,226.98832533655514 15.788732394386898,225.43739865958923 15.929577464790782,225.93654946917377 15.507042253491818,225.81176194422005 16.04225352112553,225.95437624877377 16.01408450702729,226.4000449548621 16.15492957747483,225.59784019760264 15.549295774646453,222.76334423650405 15.056338028167374,222.9772705893265 15.633802816882962,225.75828154016926 14.95774647887447,226.1861241642182 14.492957746449974,226.04351011069957 14.69014084507944,224.75997667646152 14.436619718311704,223.17336944068666 14.112676056305645,223.030752123188 13.633802816882962,223.24467804146116 14.126760563391144,226.06133687583497 15.478873239437235,226.09699039887346 15.77464788731595,227.38051079725847 13.873239436623408,228.7888035029464 13.154929577445728,229.64446766284527 13.901408450707095,232.92446208970796 15.69014084507944,232.47881547018187 15.718309859119472,231.37360534425534 16.14084507044754,231.32012719957856 16.408450704213465,230.69621390682005 17.140845070418436,230.35751688107848 17.239436619725893,229.80490407368052 16.84507042253972,229.23446261354547 16.478873239422683,226.86353880858223 16.760563380274107,226.20395091002865 18.26760563379503,224.84911134706635 20.64788732396846,224.72432279128407 21.380281690115226,226.5961387075222 23.73239436620497,227.43399054231122 25.183098591543967,227.20224482360936 27.0985915492638,226.06133687583497 25.591549295771983,227.80834814917762 28.070422535209218,227.05963187087036 28.0,226.4356983861071 28.394366197186173,226.06133687583497 28.154929577445728,225.86524232653028 26.81690140844148,226.04351011069957 25.028169014069135,227.27355124200403 23.943661971818074,227.52312340239587 21.80281690141419,226.84571215212054 21.169014084502123,226.11481715680566 20.577464788701036,224.75997667646152 18.408450704198913,224.7064958450792 16.873239436594304,226.07916363855475 15.887323943621595,229.14533091209887 13.816901408441481,230.42882159051078 13.225352112654946,230.00099275472166 13.154929577445728,229.64446766284527 13.943661971832626,228.7174979052361 15.647887323939358,227.59442964702612 16.01408450702729,226.79223216806713 16.197183098556707,225.70480111437791 15.732394366204971,225.84741553479398 16.12676056336204,226.06133687583497 15.647887323939358,225.45522550685564 14.985915492958156,225.45522550685564 15.732394366204971,225.49087919399608 15.887323943621595,225.81176194422005 15.352112676075194,223.51208495035826 15.535211267619161,223.26250518560119 15.591549295757432,223.42294937446422 15.478873239437235,223.1198879647127 15.450704225353547,224.2786484121316 16.01408450702729,226.06133687583497 15.830985915497877,227.23789803766704 13.985915492943604,228.69967149979493 13.19718309858581,229.75142529174627 13.816901408441481,232.88881041566492 15.591549295757432,232.53229314417695 15.85915492955246,232.26490455699968 15.647887323939358,231.51621362374863 16.01408450702729,231.33795325018582 16.197183098556707,231.51621362374863 16.35211267603154,230.3396906976559 16.915492957719835,229.14533091209887 16.732394366161316,227.95096029082197 16.338028169004247,227.38051079725847 16.436619718297152,227.04180524089315 16.732394366161316,226.1861241642182 18.366197183087934,224.6351880361617 20.605633802813827,224.6351880361617 21.47887323940813,226.41787167168513 24.29577464790782,227.38051079725847 25.098591549278353,227.09528512353427 27.436619718297152,225.56218653943506 33.54929577464645,224.97389978459978 33.97183098591631,224.67084194542258 36.140845070418436,224.29647541623854 37.49295774643542,224.4569183448184 39.15492957744573,223.72601008642232 41.57746478873014,223.60122046594915 42.873239436608856,224.01124306034762 45.014084507041844,224.04689713864354 48.6619718309812,225.84741553479398 51.92957746479078,228.04009280087485 55.8873239436507,231.83708168794692 63.02816901409824,242.1400960473402 67.0,247.30912479986728 63.2253521126695,251.56896494465764 61.239436619740445,253.13740694100852 61.19718309858581,253.51169147474866 60.704225352135836,253.88597494470014 60.64788732393936,254.7414760243555 60.88732394366525,254.72365314187482 60.60563380284293,255.11575599911157 60.53521126760461,254.0285588439292 60.80281690142874,254.117673702538 60.53521126760461,254.63453869330988 60.18309859154397,254.50977836406673 60.42253521128441,254.33154911721067 59.76056338030321,254.91970471646346 59.647887323924806,255.2583385668404 60.2253521126986,255.89995821118646 59.22535211268405,257.0227850668889 59.38028169015888,256.86238181647786 60.00000000001455,257.201010671517 60.26760563380958,257.16536556991923 60.169014084516675,256.75544620766595 60.352112676075194,257.09407533769263 60.4507042253972,256.9336721741274 59.12676056342025,257.23665576349595 59.69014084506489,256.84455922101915" stroke="#4dd2ff" stroke-linecap="round" stroke-linejoin="round" stroke-width="0.5"><title>2022-07-23 16.3km</title></polyline><polyline fill="none" points="127.0,251.28267430175765 124.4581081080978,247.81966138249845 123.84999999999127,247.2809610044642 122.79189189188764,245.51092750656244 116.06621621620434,236.13698637941707 112.35675675678067,232.65811864207353 110.05810810810362,231.19573095249507 106.89594594594382,229.64096130207326 102.85810810810653,228.7789016386596 101.16756756759423,228.71732569824962 100.04864864864794,228.96362925974245 99.28243243244651,228.79429561852885 99.12432432435162,229.8256875222287 98.6864864864765,230.01041344221449 95.53648648651142,230.64155807055795 91.35270270271576,231.13415632125543 89.68648648649105,232.2271010678087 88.79864864864794,232.4580035429608 86.64594594595837,231.5805716421528 85.80675675677776,230.1335638887831 84.07972972976859,230.087382486985 82.48648648649396,231.4574227632038 81.7081081080978,233.85880183903646 80.61351351352641,234.44374546917243 80.33378378378984,234.79778883573454 79.03243243246106,234.30520646035438 77.15945945947897,234.5361047145634 74.37432432436617,232.41182308545103 73.0,232.41182308545103 74.43513513515063,232.38103610334656 77.03783783786639,234.44374546917243 79.25135135138407,234.36677937401691 79.7743243243458,236.1062004061605 79.88378378379275,237.10674026988272 79.6648648648843,237.2606686980871 79.85945945949061,237.61470329212898 83.98243243245815,236.8142756820671 84.23783783783438,236.44484565355378 96.89864864868287,234.4899251012248 95.98648648649396,233.3508220341464 94.4297297297162,232.19631403567473 94.52702702704119,231.95001747846254 95.08648648648523,231.93462392592483 95.1472972973279,230.70313296865788 95.62162162164168,230.30289553495095 99.55000000000291,229.6255674368149 100.52297297300538,229.6717490262963 101.0702702702838,229.33308360134106 102.68783783784602,229.08678084034182 106.98108108107408,229.54859807941102 109.97297297295881,231.07258165664825 112.62432432436617,232.73508589412086 115.87162162159802,235.75216111437476 124.25135135135497,247.43487565865507 124.03243243243196,247.86583558183338 123.72837837839324,247.94279253907735 123.98378378378402,248.31218520883704" stroke="#4dd2ff" stroke-linecap="round" stroke-linejoin="round" stroke-width="0.5"><title>2022-07-16 10.3km</title></polyline></svg>