<?xml version="1.0" encoding="utf-8" ?>
<svg baseProfile="full" height="300mm" version="1.1" viewBox="0,0,200,300" width="200mm" xmlns="http://www.w3.org/2000/svg" xmlns:ev="http://www.w3.org/2001/xml-events" xmlns:xlink="http://www.w3.org/1999/xlink"><defs /><rect fill="#222222" height="300" width="200" x="0" y="0" /><text fill="#FFFFFF" style="font-size:12px; font-family:Arial; font-weight:bold;" x="10" y="20">Over 10km Runs</text><text fill="#FFFFFF" style="font-size:4px; font-family:Arial" x="10" y="280">ATHLETE</text><text fill="#FFFFFF" style="font-size:9px; font-family:Arial" x="10" y="290">Allen</text><text fill="#FFFFFF" style="font-size:4px; font-family:Arial" x="120" y="280">STATISTICS</text><text fill="#FFFFFF" style="font-size:3px; font-family:Arial" x="120" y="285">Number: 21</text><text fill="#FFFFFF" style="font-size:3px; font-family:Arial" x="120" y="290">Weekly: 1.8</text><text fill="#FFFFFF" style="font-size:3px; font-family:Arial" x="141" y="285">Total: 325.5 km</text><text fill="#FFFFFF" style="font-size:3px; font-family:Arial" x="141" y="290">Avg: 15.5 km</text><text fill="#FFFFFF" style="font-size:3px; font-family:Arial" x="167" y="285">Min: 10.1 km</text><text fill="#FFFFFF" style="font-size:3px; font-family:Arial" x="167" y="290">Max: 24.1 km</text><polyline fill="none" points="48.0,53.83550933227161 47.45721465414681,53.20886140444418 47.18106070625072,52.68463953410537 44.24335405369493,48.653347824521916 42.98161618833183,47.50837029444665 42.25314111890111,47.05037103409268 40.85808755455582,46.38746901934428 40.42481153285917,46.2910460854946 40.186747784686304,46.32720471017092 39.38209231583096,46.164490667732025 38.42983732310677,46.29707252497974 37.591852929508605,46.526076620753884 37.04430630868592,46.51402380298896 36.69197196137975,46.68878934109671 34.87316492528407,46.90573870942171 34.1494511308083,47.345660570710606 33.720936384077504,47.460160067959805 32.94484856499912,47.21910815208321 32.778203941270476,47.04434469660191 32.59251421769295,46.56223505445814 31.868800423228095,46.48991815766931 31.292686152621172,47.03831835832898 30.987964554940845,48.02662693089587 30.426134109235136,48.32190998992519 30.13569633645966,48.30383149158661 29.992858087549394,48.17728179763799 29.18344134374638,48.26767447289603 28.145483401665842,47.472212629480055 27.788387779390177,47.40592350072984 17.18978971035176,49.177617177250795 16.75651368866602,49.27403385713842 16.228012167703127,49.62354257082552 13.247454040458251,49.153512974633486 12.947493717743782,49.24390366711668 12.657055944968306,49.12940875897766 12.090464224296738,48.60513883834574 12.0,47.930207548528415 12.047612749625841,48.44243312445542 12.161883348759147,48.65937394411594 12.399947096935648,48.81002666892891 12.609443195342465,49.08722635013328 12.899880968117941,49.219799500406225 13.242692765499669,49.12338270301552 16.16611559316516,49.599438609715435 16.413701891273377,49.52712664809951 16.661288189381594,49.29813799448311 17.089802936119668,49.177617177250795 21.57492395185909,48.46051156648173 22.151038222458737,48.26164830024936 27.855045628879452,47.39989721140955 28.145483401665842,47.44810750317265 29.173918793800112,48.24356977744901 29.35008596746411,48.29177915529726 30.01190318740919,48.189334164952015 30.321386060037185,48.46051156648173 30.588017458005197,48.20138652899914 30.93559053035642,48.05073174384597 31.27840232771632,47.02626567927655 31.76881364897781,46.55620865088713 32.064012696740974,46.49594457021885 32.60679804258689,46.56826145722516" stroke="#4dd2ff" stroke-linecap="round" stroke-linejoin="round" stroke-width="0.5"><title>2022-10-05 12.1km</title></polyline><polyline fill="none" points="94.66666666666788,53.4327776413993 91.65844748858217,49.14335593369833 90.2596928185958,47.912051934774354 89.26890826069575,47.27652603715978 88.24674138646515,46.765828598898224 86.73142382731021,46.62396709474706 85.79892071398353,46.839596391240775 84.86193441261275,46.92471291337279 84.36430053964796,47.07792221746786 82.83553341635707,47.27652603715978 82.46342880863813,47.38433914510824 81.92992943130594,47.719125449035346 81.64300539642863,47.78721725130163 80.85396430054607,47.58294151253358 80.45496056455886,46.953085048968205 79.85421336653962,46.890666325267375 79.27588210874819,47.463780205023795 79.02034039020145,48.05958335395917 79.00240763801776,48.3035764842607 78.42855956829953,48.723468312637124 78.06093814861379,48.50217449503907 77.3346616853596,48.575939230755466 76.44699045247398,47.8893547472544 76.0524699045236,47.74182272875987 70.9371523453774,48.570265024922264 70.24674138646515,48.797232658802386 70.12121212121565,48.75751341161231 66.02357824823412,49.42138731346495 65.60664176007049,49.52352082646394 65.31971772519319,49.76750543320668 65.03279369033407,49.82991987189234 62.24425072644226,49.37599456114185 62.10975508510455,49.49515043114661 61.769032793701626,49.393016849026026 61.19070153591019,48.836951868335746 61.17276878372286,48.428409629497764 61.08310502283712,48.20711425371701 60.50477376505296,47.747497046762874 60.23578248235208,47.33326981275968 59.80539643004886,47.049550166368135 59.590203403902706,47.11196865340389 58.765296803652745,46.79987528841957 58.66666666666788,46.606943681967095 58.77874636779961,46.79987528841957 59.370527189701534,46.96443389785054 59.576753839777666,47.10629424932267 59.84574512244944,47.04387575385772 60.22681610626387,47.32759543866632 60.52270651723666,47.736148409971065 61.087588210873946,48.15037166142065 61.248982980494475,48.876671040248766 61.77799916977892,49.37599456114185 62.05595682856074,49.47812818474995 62.24873391449,49.353298166526656 65.05520963055824,49.795875644136686 65.70527189706263,49.444083671194676 70.14811124948028,48.7177941267837 70.92818596928191,48.50217449503907 75.8731423827303,47.730474090414646 76.13765047739071,47.713451127176086 76.37077625571328,47.80424018458143 77.28982980490036,48.524871350633475 78.0519717725183,48.4681291886227 78.36131174761977,48.723468312637124 78.63030303030973,48.49082606263619 78.95309256953988,48.35464463408425 79.2669157326709,47.37866477791977 79.82731423828591,46.88499189123468 80.52220838523135,46.92471291337279 80.78223329181492,47.492151975649904 80.8808634288107,47.458105848603736 81.22606890827228,47.662382195940154 81.59817351598758,47.747497046762874 81.9119966791186,47.67373085270083 82.66517227065924,47.236805348526104 84.6198422581947,46.970108321125736 84.82158572021217,46.867968584501796 85.34611872146706,46.839596391240775 86.48484848485168,46.595594736274506 87.02283105022434,46.56722235860434 88.287090078873,46.74880524375112" stroke="#4dd2ff" stroke-linecap="round" stroke-linejoin="round" stroke-width="0.5"><title>2022-10-02 14.7km</title></polyline><polyline fill="none" points="141.33333333333212,53.92080403406726 140.21026657853872,52.33693469946229 139.9675699493273,52.16830650603879 139.34417272527207,51.1264109927215 137.7024014100025,48.85583739116191 137.29314827053895,48.41014090144381 136.2652566644756,47.48861913187284 135.1421899096713,46.6995885887809 134.95659836969935,46.711634961815435 134.13333333333867,46.320126167596754 133.4623485349257,46.20568448454651 132.53914959241592,46.12135884543022 131.45415289712037,46.3622888187092 128.17536902401116,46.8682375145836 127.36162150253949,47.30190324466457 127.05230226922868,47.36213426166432 126.13862084158609,47.121209704313515 125.83881912316065,46.49479974773567 125.20114562678646,46.44059077902784 124.60154218990647,46.97665434349619 124.235117867378,47.964439945815684 123.84965851508241,48.15717604224483 123.7497246089406,48.301727566511545 123.27384886539221,48.13308407587465 122.46961885876954,48.21138291891111 121.35131086142792,47.36815735886921 121.1609605640042,47.33201876334715 110.82493941397115,49.060615362126555 110.0587794668354,49.25334670895245 109.52103987662122,49.56051056696015 106.47067636043357,49.060615362126555 106.22797973121487,49.19914110206082 105.89010795329523,49.048569625243545 105.39519717999428,48.56673747429522 105.33333333333212,48.404117945327016 105.36188587794823,47.94637089396565 105.42850848204398,48.53662279156197 106.08045825072622,49.084706826153706 106.25653227584189,49.13288971505608 106.49447014761245,49.01845526870602 107.1844899757707,49.193118252766 109.51628111919126,49.53039655700559 110.04450319453827,49.163003994104656 110.38713372989878,49.09072969012777 121.18475435117944,47.28985703147191 121.43220973782809,47.33201876334715 122.42679004186357,48.1391070686841 122.62189909672816,48.187290981877595 123.30716016743827,48.08490010394962 123.3928178012793,48.24752079996324 123.61647940075272,48.337865374182 123.84489975765246,48.13308407587465 124.25891165454595,47.95239391205541 124.52540207094353,47.00074693626084 125.1345230226907,46.41649788285213 125.89116545494835,46.44059077902784 126.15765587133501,46.99472378929204 126.97616215025482,47.33201876334715 127.28072262612841,47.28985703147191 127.99453624145826,46.86221434966137 128.55131086141773,46.711634961815435 130.29777484027727,46.50684617623847 131.11152236176713,46.31410292847431 131.53505177352054,46.302056447751966 132.06327384887481,46.12738211069518 132.60577219651896,46.07919596593274 134.17616215025555,46.24182399521305 134.3332011456223,46.17556820322352 136.29380920907352,47.46452680336006 137.6595725930856,48.69924183608964 139.00630094734151,50.530170790530974 140.72897113902218,53.07166436832267" stroke="#4dd2ff" stroke-linecap="round" stroke-linejoin="round" stroke-width="0.5"><title>2022-10-01 15.4km</title></polyline><polyline fill="none" points="187.9021960606624,55.16806737277511 181.357482454172,46.101307391378214 179.12429250620335,44.05881664366461 177.74688702738786,43.1613412702427 175.50554675118474,42.08848327119631 173.0196966266667,41.665525484335376 170.81095766356157,42.263855323326425 169.1156893819134,42.356699187497725 168.25175458454032,42.70744165310316 165.10572786959528,43.068498386768624 163.9646819107802,43.811238286376465 163.36970794655645,43.99692212977243 161.93525016980857,43.57397493895405 161.29952456416504,42.43922697175731 160.0851256508904,42.336067227457534 159.18043921211938,43.202604737693036 158.52841294996324,45.01817517847667 157.4688702739295,45.65774082327698 156.89834729454742,45.22448726345465 155.5453928005445,45.389536529182806 153.55671270092716,43.82155406734091 152.0,44.05881664366461 153.4996604029875,43.86281717719248 155.52094181573193,45.31732751944219 156.90649762281828,45.22448726345465 157.4688702739295,45.668056354203145 157.92528865746135,45.25543402803305 158.59361557616648,44.93565018806112 158.65881820239156,44.39923557116708 159.12338691420155,43.212920601072256 160.10957663574663,42.336067227457534 161.3321258772703,42.34638320819067 161.81299524562928,43.3573425415525 163.27190400724066,43.89376449488191 163.9157799411405,43.80092250403686 165.34208738963207,42.96533949463628 170.54199683041224,42.098799285449786 171.25922571882256,42.10911529829173 172.77518677835178,41.74805401740741 175.52184740773373,42.08848327119631 178.2766583654011,43.491448384011164 179.46660629386315,44.32702562274062 181.4063844238117,46.13225379979849 187.8288431061519,55.01335355449555 188.0,55.43623724690406 187.77179080823407,56.02414482230233 186.6307448494481,57.40622546747181 185.51414987548196,58.334474515664624" stroke="#4dd2ff" stroke-linecap="round" stroke-linejoin="round" stroke-width="0.5"><title>2022-09-29 10.1km</title></polyline><polyline fill="none" points="48.0,93.49274213761964 47.42983253278726,92.80666444212329 44.92016097624219,89.21049476740518 44.307931974559324,88.57167050646967 43.57419187329651,87.95058240734215 42.709593664818385,87.3708922141268 41.52719719590823,86.77936367864095 40.76541607166655,86.6137342532129 40.66727249124597,86.67288769153674 39.95689990913161,86.507257862384 38.681033363631286,86.83260157486802 37.722965078541165,86.87400878261542 37.236920680272306,87.04555251089187 35.741399454767816,87.22892609614064 35.39088666753014,87.30582446731569 34.75529014669519,87.7198902928285 34.46553290926386,87.7731270427721 33.5962611969444,87.50694264420599 33.25042191354078,86.88583940620083 32.58678436974151,86.85034752585125 32.039984421648114,87.3708922141268 31.70349214591988,88.33506655757446 31.123977671042667,88.74912262715225 30.722056341692223,88.49477436364032 30.105153836171667,88.61307606576156 28.964818901727995,87.80861817335972 28.670388160462608,87.73172068730855 18.271842139420187,89.45892390157314 17.74373620667029,89.577222992717 17.224977281577594,89.90254384157015 15.084512527588231,89.61862759893484 14.238608334424498,89.4116041754205 14.103076723349659,89.54173329901096 13.972218616123428,89.53581834725992 13.687134882518876,89.41751914398628 13.196416980397771,88.95614919020227 13.05621186549979,88.23450949124526 12.429962352329312,87.71397509438975 12.289757237438607,87.4300446270936 12.0,87.18751922482625 12.280410229770496,87.40638367151769 12.458003375322733,87.70214469507482 13.023497338712332,88.08071588321036 13.149681942111783,88.37647234114047 13.187069972740574,88.84967850888643 13.715175905501383,89.38202932053173 14.000259639105934,89.51215853222675 14.261975853565673,89.40568920603982 17.21095677008634,89.89071403498019 17.8185122679497,89.52398844134586 28.586265091526002,87.7258054904596 28.94145138258682,87.70805989513246 29.890172660001554,88.53026490792399 30.128521355320117,88.59533083087445 30.73140334934942,88.48885927013544 31.09593664806016,88.725462386039 31.71283915357708,88.31732120975357 31.99792288718527,87.3708922141268 32.628845904204354,86.83260157486802 33.2924834480109,86.85034752585125 33.37193301310617,87.14611231425079 33.605608204601594,87.42412938939378 34.04959106842216,87.64299265057343 34.43281838245821,87.7198902928285 34.71790211606276,87.67256868283948 35.33480462158332,87.28807870136734 35.85823705051007,87.12245120489024 39.73257172529702,86.53091930499068 40.61119044528459,86.61964960065961 40.723354537200066,86.56641144488822 41.38699208101025,86.68471836958634 42.690899649493076,87.34131597758824 43.62560041542747,87.94466724014637 44.70517980008299,88.92657402698023 45.19589770220409,89.50032861991349 46.99052317279711,92.04960068877335 47.43917954044446,92.80666444212329 47.86446838895063,93.31530928366192" stroke="#4dd2ff" stroke-linecap="round" stroke-linejoin="round" stroke-width="0.5"><title>2022-09-24 16.0km</title></polyline><polyline fill="none" points="94.66666666666788,93.69161166299091 93.77434257285131,92.55020591108769 91.1837242359652,88.85258035264633 89.82604832978177,87.66247508777815 87.75835110163825,86.50877146545827 86.10803127220788,86.30838833701273 84.97103766879809,86.60592659932809 83.94918265815068,86.65450408731704 83.5126154939644,86.81845272074497 81.69918265814704,87.04312209667478 80.9843638948114,87.47424126006808 80.50941719972616,87.57746636019874 79.67945984364997,87.2860066421963 79.38681592039575,86.66664845106789 78.68638948118314,86.63021534989457 78.1250888415052,87.18885298186069 77.77487562190072,88.18466802154217 77.3958777541011,88.36075496539343 77.17519545132382,88.57327276988508 77.05525941720771,88.56112892247256 76.79140014214136,88.3243232406312 76.00941719972252,88.4154024970303 74.96837242359834,87.64425894542364 74.594171997167,87.55317812271824 70.15174129353545,88.24538773544919 68.45824449183783,88.59756045482209 63.919864960906125,89.32011306528148 63.3825515280696,89.45976474829877 63.16666666667879,89.67834911817772 62.86922530206357,89.76942562449403 61.5211442786167,89.61155956263974 59.899609097377834,89.27761029282556 59.67412935323955,89.39904667868541 59.439054726379254,89.35047216381645 58.77221037669733,88.76150198419055 58.66666666666788,88.0571563546946 58.810589907614485,88.75543008639579 59.3287135749888,89.24117931295041 59.621357498224825,89.37475942783203 59.87082444918633,89.23510748009721 62.93159203981486,89.74513857423881 63.55525941720771,89.36261579745405 68.37668798863888,88.59148853483202 70.08457711443407,88.20288394434829 74.84363894811395,87.49852954030939 75.9566453447078,88.36075496539343 76.86815920399022,88.3243232406312 76.98809523810633,88.84650846717341 76.82498223171206,88.87686788632345 76.7482231698632,88.66435152063787 76.63308457712628,88.63399195759848 76.23489694386808,88.71899868227774 76.12935323383863,88.83436469375374 76.09097370292147,88.78578956722049 76.03340440654574,88.57934469235624 76.11016346838369,88.5307692895476 76.79619758352055,88.40325860686426 77.03606965174185,89.47190835235597 77.54939587776607,89.44154933603932" stroke="#4dd2ff" stroke-linecap="round" stroke-linejoin="round" stroke-width="0.5"><title>2022-09-22 12.2km</title></polyline><polyline fill="none" points="141.33333333333212,93.69323222883031 137.67404129793795,88.69813303710907 136.43952802359854,87.5724724669526 135.63421828909122,87.06283496918331 134.39085545722992,86.52518860371856 133.02802359882844,86.34597159528857 131.98377581120803,86.60359580067961 131.03687315635398,86.66520135115206 130.47050147493428,86.86121840123087 128.90412979351095,87.06283496918331 128.2492625368759,87.44366358254774 127.85988200589782,87.53887018795285 127.08997050147082,87.28685222526838 126.82448377580658,86.70440483548737 126.1961651917336,86.65400034880076 125.66519174040877,87.13004027340867 125.41297935103648,87.70128095017208 125.35103244836864,88.05410213246796 124.95722713864234,88.26691345386644 124.82005899705473,88.44052187869602 124.66076696165328,88.42372109523421 124.42182890855838,88.21091058071033 123.8244837758175,88.31731597484395 123.65191740412047,88.28371430101106 122.68731563421898,87.55567133087243 122.4882005899708,87.49406710683252 117.82890855456571,88.22211116140898 116.80678466076643,88.45172239720705 112.4528023598723,89.15734894870911 112.11651917403651,89.23575115578933 111.78908554572627,89.49895747825212 111.57669616518615,89.54375838759734 109.80678466076643,89.31415321422537 108.80235988200002,89.0845467662366 108.65634218289051,89.20215022809498 108.30235988200366,89.1125476208108 107.74926253686863,88.54692668211283 107.68289085545985,87.91969441792753 107.12979351032118,87.53887018795285 106.92182890855474,87.19164503970751 106.6961651917336,86.99562955573856 106.45280235988321,86.82201506554338 106.18289085545985,86.86681887470695 105.61651917404015,86.60919630905119 105.43510324483213,86.60359580067961 105.33333333333212,86.4131780644675 105.33333333333212,86.71560582419261 105.38643067846351,86.58119375956085 105.56784660766425,86.5867942709774 106.1696165191679,86.85561792696899 106.40412979350003,86.79401266014611 106.65634218288687,86.92282356793294 107.00589970500005,87.24764929304729 107.12536873155113,87.49966749462328 107.70058997049273,87.86369107461724 107.82890855456935,88.61972981091458 108.32448377581022,89.0845467662366 108.58554572270077,89.17414943416225 108.83775811209125,89.03414518020145 109.48820058997808,89.23015100305565 111.61651917404015,89.52695805227995 112.13421828908758,89.21895069534003 112.57227138642338,89.1069474514079 122.28023598820073,87.48286632896634 122.76253687315693,87.55567133087243 123.66961651917154,88.26131316995452 124.4660766961606,88.19970999697762 124.51474926253286,88.31731597484395 124.77138643067883,88.42372109523421 125.34660766961315,88.05970244443961 125.36430678466422,87.77408556758746 125.61651917403287,87.15804245128675 126.17404129793431,86.64839984647915 126.84218289085402,86.65400034880076 127.10324483775548,87.19724546844736 127.2315634218321,87.19724546844736 127.59439528024086,87.42686239412433 127.96165191741238,87.49966749462328 128.240412979354,87.43806318716088 129.02359882006567,86.95642634746764 133.08112094395983,86.30676777116969 134.56342182890876,86.48598494948601 136.19174041297447,87.3540571654703 137.70943952802918,88.64773098020305 138.7005899705,89.99736486176334" stroke="#4dd2ff" stroke-linecap="round" stroke-linejoin="round" stroke-width="0.5"><title>2022-09-17 16.2km</title></polyline><polyline fill="none" points="188.0,93.66812593150826 184.36993367722243,88.64872586705314 183.17612380250648,87.57426002393913 181.2262343404509,86.52774820821287 180.64259395726185,86.39903102099561 180.55416359615992,86.4549950647015 179.79808400883485,86.33187406849174 178.71481208547993,86.60050122365283 177.8526160648471,86.64527224642734 177.33971997051412,86.81316314981814 175.66396462784905,87.02582398160666 174.90346352246706,87.47912368120888 174.54532056005337,87.55187502182162 173.82461311717634,87.28885033873303 173.4885777450363,86.67885048165408 172.9137803979429,86.6284831185767 172.34340456889913,87.1713281307384 172.09137803978228,87.77012827525323 172.05600589535243,88.03874608181286 171.6757553426578,88.24580444942694 171.48563006631957,88.44166951808438 171.37067059690526,88.43607338614675 171.12748710389496,88.2122274873218 170.39793662491138,88.2961698414656 169.47826086956047,87.57985627257221 169.12896094325333,87.48471994273132 159.30876934414482,89.12439192909369 158.848931466473,89.23631255986402 158.35372144437497,89.54968871366873 155.51952837141653,89.09081568075999 155.38246131172127,89.20273640245796 155.0420044215207,89.10760380834108 154.48931466470822,88.57597645723945 154.396462785553,87.93241840881092 153.81724392041724,87.49591246348064 153.56963890936822,87.10417243325719 153.18054532056703,86.82435585244093 152.90641120119471,86.85793394217035 152.06632277082826,86.51655542525259 152.0,86.35985614530728 152.1193809874785,86.56692292475054 152.6588061901275,86.69563958905565 152.91525423729036,86.84674124863523 153.22033898306108,86.81316314981814 153.65806927045196,87.16013552206641 153.81724392041724,87.4623348921159 154.3566691230626,87.81489803091972 154.47605011053383,88.06113082022057 154.4981577008184,88.547995880901 154.99336772292736,89.05723940515236 155.33824613117395,89.19154434393567 155.53721444362964,89.05723940515236 156.61606484893127,89.29227276160964 158.3581429624246,89.52170879653931 158.83566691230953,89.20273640245796 159.29992630802735,89.10200776657803 169.21296978628743,87.47352741894429 169.42078113485695,87.52949000758235 170.39351510684355,88.28497753741976 171.11864406779569,88.20663132430491 171.47236551215246,88.44166951808438 171.67133382460815,88.25140060713602 172.04274134119623,88.0835155464847 172.0692704495268,87.79810937822913 172.3389830508495,87.14334660338864 172.8872512896014,86.64527224642734 173.56816507000985,86.6732541110141 173.84229918938217,87.23848371908389 174.62932940308747,87.51270123894574 174.92999263079764,87.45114236226436 175.6374355195294,87.02022765795482 178.42299189389087,86.52215181710926 178.9403095062553,86.50536263924369 179.74944731023425,86.33747048536316 181.20412675018088,86.48297705813093 182.81355932202496,87.30563919830456 183.98084008842852,88.22901597178497 185.35151068532286,89.86865843011401 186.07663964626772,90.98783094650935" stroke="#4dd2ff" stroke-linecap="round" stroke-linejoin="round" stroke-width="0.5"><title>2022-09-11 16.4km</title></polyline><polyline fill="none" points="48.0,133.76237662763015 46.74830627635674,132.14338450780997 45.344752652436,130.04093330265096 44.313946056499844,128.6664221189967 43.043845072217664,127.5015477488123 42.40879458008203,127.11130778036386 41.0696663683957,126.44148465495527 40.397801354974945,126.33081722145289 39.52805828966302,126.23762337236985 38.44202991179918,126.5113797294216 37.48945417358482,126.56962553803896 36.831394605640526,126.75018704345712 35.39562827558984,126.92492326248612 34.990668541475316,127.06471172660167 34.42004346158137,127.43747874317341 34.13473092163622,127.47824993962422 33.35242234436009,127.23944666787065 33.01648983765335,126.59874841274723 32.36303208487152,126.55797638261356 32.02709957816478,126.80843252869454 31.773999744338653,127.12878128749435 31.488687204382586,128.00827197654144 30.87204397289679,128.42762544375728 30.526907835861493,128.183003084745 29.730793813108903,128.26454402565287 28.888661638742633,127.58308998158464 28.529720056245424,127.41418089929721 23.016745494045608,128.2936657527971 22.216029656137835,128.51499023481665 18.217052281725046,129.11489034100669 17.738463505040272,129.21390217550652 17.255272913200315,129.55752971548281 15.391537773226446,129.3420347995052 14.277898504398763,129.07994493324804 14.084622267659142,129.21390217550652 13.730282500306203,129.0915934056393 13.21027738718476,128.57323333029854 13.191870126534923,128.09563761936442 13.09523200817057,127.8801353794297 12.556819634410203,127.48989884580078 12.239294388331473,127.03558916737893 12.092036303198256,126.91909873329496 12.0,126.94822137139636 12.064425412234414,126.8725024713167 12.40035791894843,127.16372828047315 12.529208743435447,127.42582982281601 13.053815671730263,127.74617398337432 13.205675572018663,128.07816450500104 13.237888278148603,128.5499361015609 13.7532915761185,129.07994493324804 14.02479867058355,129.20225373622452 14.333120286330086,129.07994493324804 17.200051131279906,129.54588136924576 17.853508884050825,129.15565994751523 28.488303719794203,127.39670750808364 28.709190847497666,127.45495211781599 29.71238655246998,128.21794922119443 29.924070049848524,128.26454402565287 30.52230602070631,128.15388128267296 30.720184072597476,128.39850380728603 30.885849418376893,128.43344976867593 31.442669052787096,128.05486700813708 31.76939792916528,127.04723819342689 32.32161574843121,126.55215180373125 33.01188802249817,126.53467806232948 33.2603860411582,127.12878128749435 33.36622778985111,127.10548327639845 33.72056755720405,127.30934044562309 34.15313818228242,127.42000536144405 34.47526524350542,127.35593623435125 35.2299629298177,126.8725024713167 35.84200434615923,126.8142570728669" stroke="#4dd2ff" stroke-linecap="round" stroke-linejoin="round" stroke-width="0.5"><title>2022-09-10 13.4km</title></polyline><polyline fill="none" points="94.66666666666788,133.74182776850284 91.16314057358613,128.8288169705629 89.86143522673956,127.631149273544 89.47369320852522,127.37992695305365 87.77039791426796,126.48603101982735 87.3780399196512,126.39839316672078 87.0687695003653,126.42176327829293 86.22404581784212,126.25817223149716 84.73770141471687,126.58535370478785 83.91144163782155,126.64962120264317 83.71295465230651,126.7839983887643 81.95426764115473,126.98848460807494 81.12800786425578,127.46172042730177 80.78180963372142,127.52014424254958 80.02478950292425,127.24555162300385 79.71551908363108,126.63793621013974 79.05081848099871,126.58535370478785 78.47382143009963,127.14623045790722 78.19686284566342,127.78305043211003 78.15531905800162,128.08100884361556 77.81835278026847,128.2329084183657 77.56909005427951,128.4665990276153 77.19519596529062,128.2329084183657 76.40124802324135,128.28548891579703 75.46420481258247,127.56104086614141 75.17801427533414,127.45587804143724 69.74039406762313,128.32054254516333 66.24148395092561,128.9807139126424 64.9166987220633,129.15013679412004 64.42278924648781,129.2786640535378 64.0119673462359,129.57077003747327 63.82271231354389,129.61750681140256 60.99311877590662,129.15597895058454 60.67461640380861,129.26113763160902 60.40227379577482,129.15013679412004 59.876052485349646,128.653550603678 59.74680514595457,127.94079337687072 59.16980809504821,127.52014424254958 58.95747318031863,127.17544258901762 58.66666666666788,126.94758744174396 58.98978501516831,127.140388029311 59.15134418942034,127.43250849002288 59.70526135829277,127.77136574659016 59.82989272128907,127.99921654339778 59.89451639098479,128.5834438576021 60.45766551266206,129.13845247881545 60.74385604991767,129.2202426194417 60.95619096464725,129.09171518600488 61.64858742573779,129.26113763160902 63.81809633714147,129.5649279371828 63.99811941702137,129.5298753187708 64.45971705774718,129.2202426194417 75.09954267642388,127.42666610019296 75.45497285977035,127.48508996289092 76.43355985809103,128.26211981374217 77.27366756421907,128.19785471782598 77.38445099798992,128.39649197774634 77.550626148648,128.46075677781118 77.75834508697517,128.25627753625304 78.15531905800162,128.0517973256101 78.4507415480548,127.0819636998167 78.92157114160364,126.63793621013974 79.08774629225809,126.57951120024518 79.7293670128638,126.61456621568868 80.01555755012305,127.15791531272771 80.83720135059775,127.47340519668069 81.22494336880482,127.36824215836168 81.99581142881652,126.92421761500736 86.17327007736094,126.2698573268317 87.1103132880271,126.32828275607608 87.81655767833217,126.4626609430743 88.96593580373519,127.03522417926433 89.70449202889722,127.4967747259434 90.57691156986766,128.22706613692935 91.30623584220666,128.9923982706605 94.42201991709226,133.35044313326944" stroke="#4dd2ff" stroke-linecap="round" stroke-linejoin="round" stroke-width="0.5"><title>2022-09-03 16.2km</title></polyline><polyline fill="none" points="139.36694677871128,134.88152299038848 139.6465495288976,134.52190181393598 139.90323402088325,134.39429357432164 140.76496052966468,133.5764317442081 141.09956709956896,133.19939798469204 141.0628978864188,133.1239908347343 141.33333333333212,132.8919680025756 137.72599949069263,127.81615419606169 136.30965113317143,126.48764192819726 135.37458619812242,125.91909570665666 134.22867328749635,125.35054193996257 132.67481538069842,125.16489009624274 131.57473898649914,125.41435957541034 128.50369238604617,125.86108036185396 127.77489177489406,126.29619353289308 127.44486885663355,126.39481857065402 126.61522790933668,126.13955330040699 126.2714540361485,125.5477961423785 125.63891010950101,125.4723755251689 125.04761904762199,126.02932464534388 124.73593073592929,126.96915986790555 124.3967405143776,127.10839296229096 124.17672523555302,127.32884443634975 124.0529666412076,127.32304309629035 123.78711484593077,127.0967902217053 122.9987267634242,127.17800933979743 122.08658008656857,126.4760390195006 121.7107206519031,126.34840681645801 111.0308123249306,128.1352230599514 110.72829131652179,128.42528360160577 110.5495289024766,128.48329547428875 108.18436465496052,128.15842797556616 107.60682454800917,128.00179455140096 107.46931499872517,128.1236205974492 107.11637382225308,128.01339704688144 106.57091927678994,127.50868558822185 106.53425006365796,126.96915986790555 106.37840590781707,126.69069232170295 105.92462439521114,126.40062003638741 105.62668703845702,125.98871401673023 105.33333333333212,125.77405719737726 105.71377641965228,126.05833221364082 105.92004074356737,126.40062003638741 106.43799337917153,126.74870654307597 106.52508276037406,126.90534454842782 106.58467023172852,127.4912816387623 107.10720651897282,128.01339704688144 107.46931499872517,128.1236205974492 107.66182836770895,128.00179455140096 110.51744334097384,128.4774942905642 110.99872676343512,128.17003042863507 111.28291316526156,128.08301195392414 121.75655716831898,126.33680387007189 122.0544945250731,126.41222296550768 122.98955946015121,127.15480389320874 123.83295136235756,127.0967902217053 124.03004838299603,127.32884443634975 124.19964349375732,127.32884443634975 124.34632034631795,127.14900252958614 124.76343264578827,126.92274873590213 124.80010185892024,126.60367084231984 125.06595365417888,125.9597064012778 125.51515151514468,125.53619297913974 125.75808505220994,125.4723755251689 126.27603768780682,125.501383470586 126.60606060605278,126.09894277627245 127.19735166793544,126.33680387007189 127.49528902470774,126.36581123016731 128.59078176724142,125.81466802946306 132.09727527373252,125.22290638382765 132.78940667176357,125.11847700960789 133.56862745097897,125.26931935733228 134.3111790170551,125.30412905445337 134.69620575503723,125.57680403673294 135.81920040743353,126.09894277627245 136.68092691622587,126.74870654307597 137.39597657244303,127.41006311454476 138.2485357779442,128.4542895477607 140.81079704609874,132.1204830526258" stroke="#4dd2ff" stroke-linecap="round" stroke-linejoin="round" stroke-width="0.5"><title>2022-09-01 16.9km</title></polyline><polyline fill="none" points="188.0,133.7603733067699 184.24279677294908,128.57359077254296 183.14560122933835,127.5875063718886 182.43104110640706,127.19656725642562 182.1406069919285,126.93399421758659 181.05724164424464,126.44385359727676 180.39800230503533,126.33882273895142 179.52669996158147,126.2396266932301 178.39262389549185,126.52554408785 178.1021897810242,126.49053389656183 177.35996926621738,126.60139940470981 176.94045332307724,126.76477963359503 175.354590856703,126.9106543144735 174.49711870918327,127.41829435430554 174.15136381097545,127.49998299748404 173.3860929696384,127.24324674027594 173.0449481367723,126.61890445884274 172.33960814445163,126.57222429864123 171.8048405685695,127.09737318536281 171.53284671532674,127.73921313308165 171.48674606222266,128.04845987680528 171.1041106415687,128.23517381735655 170.8920476373387,128.4510608025994 170.54629273914907,128.19433021199075 170.05762581636372,128.29935654756991 169.5920092201195,128.17099099154075 168.76219746445713,127.52332258137903 168.4763734152839,127.42996416993628 158.17748751440013,129.15706204007802 157.74414137533313,129.2504167097286 157.4168267383684,129.5304795052907 157.1817134076009,129.60049491977043 155.5866308106015,129.39628297621312 154.25432193621964,129.09288058735547 154.04225893200783,129.2329127245721 153.69650403380365,129.10454994951579 153.47061083364315,128.81864966714784 153.23088743757035,128.67278144538432 153.13868613137674,128.4627303385605 153.1571263926162,128.08930362043247 153.0326546292672,127.82090116787003 152.4978870533887,127.46497359793284 152.31809450633955,127.15572266658637 152.0,126.90481933671617 152.3457548981787,127.15572266658637 152.4840568574764,127.44163398244928 153.0603150211282,127.8267360215832 153.21705724163985,128.57359077254296 153.72877449096632,129.11038462939905 154.01459854013956,129.22707806128165 154.25893200153223,129.0578724819352 154.9965424510192,129.25625136986855 157.1817134076009,129.57132184422153 157.88244333460898,129.18040072643998 168.49020361120347,127.43579907658932 168.77602766038763,127.47664340093979 169.77641183250307,128.27601738399972 170.5186323472917,128.18849540807423 170.71686515558395,128.39271307540184 170.89665770265856,128.42188694888682 171.0902804456382,128.22933901896977 171.4590856703835,128.0659643430954 171.75412985016374,127.15572266658637 172.3672685362908,126.56055425068917 173.00806761427884,126.5547192255217 173.32616212063658,127.14405277667902 173.4275835574299,127.12071298734372 173.81943910871632,127.37161506008852 174.25739531309955,127.44163398244928 175.23472915865932,126.92232426760165 175.63580484056365,126.84063452929695 179.47137917786313,126.2396266932301 180.402612370337,126.30381239594499 181.0019208605445,126.40300829390253 182.45870149826442,127.10904308793761 183.23319247022664,127.62835055244432 184.0076834421816,128.30519133649796 185.33538225123993,129.90972830637475 187.62658470994575,133.24113973121348" stroke="#4dd2ff" stroke-linecap="round" stroke-linejoin="round" stroke-width="0.5"><title>2022-08-28 16.3km</title></polyline><polyline fill="none" points="48.0,173.6357521328282 44.47903305379441,168.7694922918854 43.44449926000016,167.8253942777883 42.87173162309773,167.42639401783526 41.25111001480764,166.58342310843364 40.64282190429731,166.45978593517066 40.038973852999334,166.3642478671718 39.02220029601449,166.5778032449125 38.777997039971524,166.71267975937735 37.82338431179596,166.76887817766692 37.37049827332157,166.9037540711288 35.665515540229535,167.12292646303104 34.937345831280254,167.5612677743411 34.65762210163666,167.63432420941172 33.876171682295535,167.38143600158583 33.52096694623833,166.76887817766692 32.925999013325054,166.75201866018688 32.37987173162037,167.25218143359234 32.069067587573954,168.14009600212012 31.55402072029392,168.52785020233205 31.389738529855094,168.52785020233205 31.11889491861075,168.30868522997844 30.390725209668744,168.3705011085949 29.49383325110466,167.66804252069414 29.22742969907631,167.57250723425022 19.268376911688392,169.2246747323079 18.837691169217578,169.32020621562697 18.55796743956671,169.544985308974 18.27824370991948,169.6405160549948 16.235816477561457,169.36516213169307 15.48100641342171,169.17409915213648 15.352244696601701,169.28648924662048 15.18352244696871,169.29210874336422 14.921558954116335,169.14600158094981 14.481993093238998,168.72453573058738 14.348791317221185,168.03332247027356 13.784903798718005,167.60622559575495 13.416378885049198,167.1004472966015 13.101134681797703,166.89251443007015 12.870251603355428,166.943092790807 12.27528367046034,166.69020037072914 12.111001480021514,166.66210111781402 12.0,166.75763850011208 12.039960532805708,166.66210111781402 12.213122841640143,166.66772096991917 12.870251603355428,166.9318531603967 13.145535273804853,166.88127478597744 13.434139121858607,167.08920770884288 13.753823384307907,167.50507042906247 14.370991613217484,167.96588641386916 14.490873211638245,168.68519869950978 14.988159842127061,169.18533817526622 15.267883571781567,169.28648924662048 15.520966946227418,169.14038206443 18.322644301930268,169.6180382521925 18.775530340411933,169.30334773454524 18.997533300444047,169.2415332453529 29.183029107058246,167.5387888453588 29.47607301431708,167.61746504350594 30.395165268873825,168.35364224174555 30.563887518506817,168.3873599685976 31.07893438580504,168.26372816950607 31.505180069070775,168.51661100112324 31.687222496308095,168.32554411509045 32.069067587573954,168.15133530528692 32.3399111988183,167.25218143359234 32.6906758756777,166.86441531415767 32.93931919093666,166.71267975937735 33.560927479033126,166.74077897803363 33.8450912678818,167.28028028696644 34.63986186483453,167.5837466911289 35.159348791319644,167.3982952633778 35.634435125804885,167.08920770884288 35.97631968427595,167.0049107035229 39.03996053280571,166.60590255491843 39.29748396645664,166.47664557139433 39.80809077454251,166.38672743237112 40.57622101629386,166.5159846959541 40.67834237790521,166.4654058146698 41.34435125802702,166.59466283320216 41.943759250130825,166.93747297598384 42.38776517021324,167.0835879138176 43.31573754318015,167.67928195170316 44.523433645794285,168.78073142457288 45.890971879627614,170.62952732728445 47.54711396152925,173.09071444833535 47.67587567835653,173.16376115122694" stroke="#4dd2ff" stroke-linecap="round" stroke-linejoin="round" stroke-width="0.5"><title>2022-08-26 16.9km</title></polyline><polyline fill="none" points="94.14822300825472,172.39444967650343 92.45645949132813,170.00587235933926 91.26494862726759,168.67626876755457 90.71467070911967,168.18701022549794 89.86424119926232,167.64594128039244 88.62270506990171,167.04730378372915 87.1355903654985,166.86310593471353 86.37156813205729,167.01276674784094 86.06686878895562,167.17393934191568 85.111840997135,167.2084762468403 84.66616136096854,167.38691647527958 82.91982482735693,167.58262425158318 82.16489809668565,168.03159751010753 81.81017348829482,168.10642592549266 81.05069900623857,167.84164786409383 80.70961765201719,167.22574468877428 80.0638369547014,167.202720097961 79.50446353377629,167.75530683530815 79.17702543372434,168.67051281744716 78.83139632811799,168.84319098177002 78.62219976420238,169.04464795360036 78.28111840997008,168.80865540503146 77.53073943070194,168.9122620511007 76.59390264444664,168.1524741156354 76.2755600471719,168.0373535467479 65.70658581775933,169.8159315352168 65.31093144686383,170.09796457461562 65.0016843523772,170.1612778569106 62.213912750547024,169.7008154711948 62.02290719218581,169.8389547106126 61.68637358934575,169.7008154711948 61.18157318511294,169.22883634946993 61.063331648987514,168.52661381133657 60.49031497388205,168.077645781319 60.14923361967885,167.61716082444036 59.74903149738384,167.34662358593778 59.512548425125715,167.40994096632494 58.934983998660755,167.15667087892143 58.66666666666788,167.15667087892143 59.15327606534629,167.17969549468035 59.49890517096355,167.36964809882193 59.730840491836716,167.31784292732118 59.95368030991449,167.4214532071528 60.32659592386335,167.74955076049446 60.499410476670164,168.06613371819913 60.99056762674081,168.37120233758833 61.14519117400414,168.71080445186453 61.20885969345545,169.24610397068318 61.7182078490805,169.69505965981443 61.99107293245106,169.80441994284047 62.26848576722841,169.66052477513585 63.0234124978997,169.8504662936466 65.08809162876787,170.14976635805215 65.82482735387384,169.76988514700497 76.24827353882938,168.0373535467479 76.53478187636938,168.10066989822008 77.49435741957495,168.8489469085107 78.30840491831259,168.80289947283381 78.44938521139557,168.98708891620845 78.60855651002203,169.04464795360036 78.86777833923043,168.80865540503146 79.19521643928965,168.6590009148822 79.50446353377629,167.6919899693894 80.01835944080449,167.18545164667376 80.73235640896382,167.202720097961 80.99157823817222,167.7840871977205 81.1189152770894,167.76681898261086 81.49183089102007,167.98554918903392 81.88748526192285,168.06613371819913 82.16035034530069,167.99706127397803 82.99258884958545,167.52506323443595 87.16742462524053,166.8515935426476 87.86323058784546,166.96671732300456 88.036045140645,166.9149116604276 88.7000168435261,167.0530599536578 90.10527202291269,167.7840871977205 90.79198248274042,168.256082361062 91.89253831901806,169.22883634946993 93.275054741458,171.0936989122347 94.66666666666788,173.1484064573524" stroke="#4dd2ff" stroke-linecap="round" stroke-linejoin="round" stroke-width="0.5"><title>2022-08-21 16.1km</title></polyline><polyline fill="none" points="141.33333333333212,173.64383349535638 140.8437512996461,173.06973402261792 137.816427531714,168.77794969296883 136.61717612809662,167.68077414900472 135.86259097526272,167.2032380134151 134.57799958411852,166.56651471611258 133.0508629652686,166.40164728834498 132.43102516116414,166.52103411106145 132.05822416302908,166.6802160131956 131.1644000831766,166.72001139442 130.58049490538178,166.9076176835115 129.12073196090205,167.08385313077815 127.97088791848728,167.62960982286677 127.16689540445077,167.41358198060698 126.96926595965488,167.21460798452972 126.75816178000969,166.75980673791491 126.14281555417256,166.72569644581017 125.5993345809984,167.2373479175294 125.33433146183961,167.89111572358524 125.32534830525765,168.12988055817914 124.73695154918823,168.5505581533398 124.34618423789652,168.30042603722904 123.62304013308312,168.39138334278687 122.64387606571108,167.64666460517037 122.30700769390387,167.5727604984604 113.7999584113204,169.0167094840799 112.74892909129267,169.11903469320896 111.81917238511232,169.34642315393648 111.60806820544894,169.56812571741102 111.36103139946863,169.65339562240842 109.37575379496775,169.39190069828328 108.4954044499973,169.15882776273065 108.32023289665449,169.3123149633284 108.03277188604989,169.22135965293273 107.4533582865588,168.6756236525398 107.44886670825508,168.220838233221 107.36352672072462,168.0104983106139 106.78860469953725,167.59550023746124 106.608941567898,167.2885127217305 106.03851112497796,166.86782248013333 106.10139322104442,166.73706654626585 105.98012060719338,166.6347355313228 105.98461218548982,166.53240426694538 106.15080058224339,166.62905046761807 106.21368267832077,166.54377441974066 106.15978373882535,166.6347355313228 105.98012060719338,166.52103411106145 106.10588479933722,166.7768618735936 105.87232272822075,166.9246727591235 105.33333333333212,166.7029562356729 105.82740694531458,166.91330270949766 106.14630900395787,166.87919254209191 106.61343314618352,167.24303289884483 106.81106259097942,167.56707556179754 107.32759409440769,167.88543083002878 107.44886670825508,168.11282597217723 107.5297151174891,168.70404757767392 108.10912871699838,169.2270443656016 108.32472447494001,169.2952608576452 108.55379496777095,169.14177359468886 109.20058224163222,169.32368436326578 111.3250987731335,169.63634165524854 111.50027032648723,169.59086437566293 111.90900395092831,169.27820674502073 122.37438136826677,167.4988562616636 122.60345186109771,167.56707556179754 123.57363277189143,168.32885021639595 123.7892285298476,168.36864403487562 124.37762528592066,168.28337152050153 124.68305260968191,168.52213412428318 125.25348305260195,168.18104427463913 125.5768766895344,167.2032380134151 126.07095030151686,166.73706654626585 126.28654605948032,166.6802160131956 126.77163651486626,166.69727118120863 127.11748804324816,167.2885127217305 127.93495529215215,167.56139062435977 128.20894156790018,167.49317131497446 129.00395092534018,167.00994803330104 133.20806820545113,166.35616650464726 134.69028904137667,166.53808934372137 135.39097525473335,166.96446790863047 136.01979621542705,167.24303289884483 136.64412559783523,167.68645907027894" stroke="#4dd2ff" stroke-linecap="round" stroke-linejoin="round" stroke-width="0.5"><title>2022-08-19 15.6km</title></polyline><polyline fill="none" points="188.0,173.59908625888056 187.90647036990777,173.45254229847342 187.85747865891244,173.35672481473375 185.2564641840836,169.69858656007636 184.4636892242961,168.71776757894622 183.30570332796924,167.66364325575705 181.40393418285748,166.63767844278482 179.91191389336018,166.42346281836217 179.11913893356177,166.57566877014324 178.84745762711827,166.70532525307135 177.85871582332766,166.77860917346698 177.46678213533596,166.93645102539813 175.76988741803143,167.13375249868477 175.11072621551284,167.51707840200834 174.71879252752115,167.65236905456186 173.99282444636265,167.44943291083837 173.78795001855542,167.2070356648619 173.60089075838187,166.78424639278091 173.01744401831093,166.7504230655104 172.8749226772161,166.81243247784369 172.38945935915035,167.31977874553922 172.12223184461254,168.18225321028513 171.77038228380843,168.3457267480153 171.5655078559903,168.54865852251896 171.2359272547401,168.32317871202395 170.47878263021266,168.41337078276774 169.4499566992563,167.62982064300013 169.21390572806922,167.59599800275828 163.87826302116082,168.43028177427186 162.6089323271044,168.72904149161332 159.2685883954,169.21945373784183 158.81875541258705,169.32091761923948 158.31993071879333,169.66476560058072 155.53631077569298,169.2025430668873 155.31807497215777,169.30400698951053 155.0330322899863,169.21945373784183 154.4451317580133,168.64448707216434 154.42731659037236,168.17097914953774 154.31597179264645,167.9398602313413 153.77706297166878,167.57908667234005 153.65235679820398,167.32541589156244 153.37176790795638,167.0830179234399 153.06891005814396,166.89699061853025 152.83731287888077,166.93645102539813 152.21378201163316,166.6715018616669 152.00445379191297,166.722236938469 152.03563033527098,166.91953942704276 152.36966472843778,167.24085862112042 152.44092539898338,167.18448701207672 152.2805888902658,166.9589998125266 152.13806754917096,166.9928229703437 152.0,166.85189296487079 152.06680687863263,166.6658646270953 152.83731287888077,166.93645102539813 153.11344797722631,166.88571620969742 153.3049610293201,167.00973453892948 153.64790300630193,167.31977874553922 153.77706297166878,167.5621753350315 154.37832487936976,167.97368259220093 154.46294692564697,168.66703493415844 155.02857849807333,169.21381684828884 155.32252876407802,169.29837011141717 155.52294939997591,169.1799954949638 156.11975751577484,169.33219136858315 158.29766175925033,169.64785511052105 158.8855622912306,169.2814594725205 169.2049981442542,167.57908667234005 169.494494618335,167.62982064300013 170.416429543493,168.3626377670189 171.2002969194582,168.3062676769914 171.54769268836026,168.54865852251896 172.1133242608048,168.17661618028433 172.40727452678402,167.24085862112042 173.01299022639068,166.7391486169763 173.66324384511245,166.76733473259083 173.92156377583524,167.3028673029039 174.50946430780823,167.55653822108798 174.8078683657077,167.59036089338406 175.0528269207025,167.52271552129605 175.75652604230345,167.05483202158211 177.75182481751835,166.8011580461207 179.96981318817052,166.40091374111944 181.4306569342989,166.60949223941134 182.67771866880867,167.24085862112042 183.42595570951016,167.72001421594905 184.6730174440163,168.88123901384824 186.02251639242604,170.7752060798448" stroke="#4dd2ff" stroke-linecap="round" stroke-linejoin="round" stroke-width="0.5"><title>2022-08-14 16.5km</title></polyline><polyline fill="none" points="48.0,213.69852219035602 45.278684501168755,209.85200082586744 44.30678610872201,208.59956771550424 43.25978647686861,207.63785222267325 41.55012885016549,206.68170589437796 40.93606577494211,206.49159228969074 39.94207878266752,206.38535195286022 39.800711743777356,206.30147780964398 38.77138299178114,206.63697336026962 37.83040863909264,206.68170589437796 37.35329488280695,206.86063554624707 35.723156215488416,207.039564422721 35.03840962081085,207.43656009874758 34.662903423726675,207.54838917762027 33.88538470977437,207.279998879505 33.70425819118827,207.05074745174352 33.5982329120161,206.71525526317055 32.90023315743747,206.66493119977167 32.3789422014961,207.19612655359379 32.09179040372692,208.06279903960603 31.50865136826178,208.47096752250218 31.146398331085948,208.22494864598048 30.399803656884615,208.28086215571966 29.59136090318134,207.63785222267325 29.171677506434207,207.492474676048 24.661185421529808,208.21935729085453 22.668793717024528,208.62193292558732 19.33341514296262,209.1139644826253 18.896060866365588,209.23138023775027 18.622162228497473,209.46061955933328 18.35268131059638,209.5388961093886 16.439808565479325,209.29288359528437 15.600441771999613,209.09719077606496 15.353049453919084,209.21460657887292 15.083568536017992,209.09719077606496 14.566695300029096,208.61634162419068 14.465087740823947,207.95656274536668 13.899619585219625,207.50924903446503 13.705239906739735,207.17935206796756 13.471100748560275,206.98364923210102 13.175113510860683,206.80472011332313 12.963062952516339,206.85504400635182 12.662657994849724,206.67052276540562 12.154620198798511,206.60342392787425 12.0,206.34621070723006 12.101607559208787,206.46363433282386 12.181126518593373,206.87741016134532 12.128113879007287,206.87741016134532 12.508037796058488,206.84386092430577 13.002822432204994,207.43096863685423 13.400417229113373,207.31913923997854 13.625720947358786,207.48688322171802 14.385568781442998,207.80000349774855 14.496011780600384,207.92301438513095 14.549024420179194,208.50451543754025 15.048226776292722,209.07482582340162 15.37955577372486,209.18665046563547 15.613694931889768,209.0468696155258 16.400049085779756,209.24256267318924 18.365934470486536,209.52212257544306 18.53822554915314,209.48857548709566 18.975579825750174,209.16428556141182 23.247515032522642,208.4653762006601 24.58608418210497,208.15785233437055 29.290955945514725,207.47570031082068 29.516259663760138,207.54279773087546 30.395385936924868,208.25290541031063 31.18174009080758,208.19699186272555 31.278929930049344,208.33677558973795 31.477727328503533,208.42064559881692 32.06528408394661,208.07957316635293 32.374524481536355,207.1290285701798 32.95324579703447,206.62579021916827 33.56730887225058,206.65933963337739 33.880966989814624,207.21849252383254 34.65406798380718,207.52043193629652 34.95447294146652,207.4477430202678 35.723156215488416,206.97805770887135 37.65811756043695,206.69848058217758 38.52399067370061,206.49159228969074 38.9215854706199,206.48600069983877 39.1999018284514,206.36857713786594 40.162964780960465,206.3182526519231 40.51638237820225,206.418901562447 41.620812369612395,206.5027754671355 42.06258436618009,206.7376214938704 42.68106516136322,207.23526699355352 43.37906491594185,207.6546265220204 44.50116578721645,208.72257622102916 45.34936802062293,209.90232100532012" stroke="#4dd2ff" stroke-linecap="round" stroke-linejoin="round" stroke-width="0.5"><title>2022-08-12 16.3km</title></polyline><polyline fill="none" points="94.66666666666788,214.05660602423086 91.32781564427933,209.3929532475595 90.19295683220116,208.45572232109043 90.00016228497043,208.21725185780815 89.20269393054332,207.69039358600276 88.1379422265527,207.19680442417302 87.30542031808363,206.98051066966946 86.9023044466121,206.91950453238314 85.63161311262957,207.1912584447382 84.5712431028951,207.29663192557564 84.21194417397783,207.49074025950176 82.625770853625,207.5905670444081 81.87650113599375,208.08415146058178 81.57854592665171,208.15070171326443 80.79422265498215,207.9066835913618 80.64086335606407,207.74585267062866 80.4480688088297,207.3077238551632 79.8390133073699,207.26335611881223 79.32197338527112,207.77912808536348 79.05907172996012,208.4058100134389 79.04154495294279,208.63873359538775 78.64281077572377,208.87720160453318 78.49383317105094,209.054665268377 78.35800064915747,209.0324823524461 78.11262577084926,208.81619829249757 77.38526452449878,208.8993846045705 76.23726062968126,208.07860560129848 71.39110678350698,208.87165585265393 69.95391106783791,209.19330822071788 66.39159363842191,209.73123843266512 65.9797143784599,209.81442288624748 65.45391106784518,210.1471590111214 63.56540084388325,209.8865159427005 62.671535215828044,209.67578203642915 62.2465108730903,209.18776251161762 61.790814670559485,207.6182966637134 61.31320999676245,207.10806866309213 60.53765011359428,206.84740625295672 59.31515741642215,206.7253934909313 58.99967543006278,206.6144724827136 58.824407659849385,206.45363648714556 58.66666666666788,205.9433939757655 58.859461213891336,206.4924590266637 59.00405712431166,206.58674218370652 59.6919831223604,206.77530784659757 60.28789354106266,206.7919459516379 60.91009412528001,206.92505054861613 61.4578059071755,207.2134423579846 61.98799091204273,207.93995887542042 62.36919831223713,209.23767386634427 62.71535215838958,209.6924189631718 63.16666666667152,209.75896660263243 65.4758195391114,209.17667109119793 65.72995780591009,209.32640501340938 65.8570269393058,209.59814295553224 65.86140863355467,209.86433347730417 66.3959753326817,209.70905588317692 71.1588769879927,208.86611010003253 76.19344368711972,208.0730597412621 76.4300551768938,208.1285183077125 77.4071729957941,208.88829310605797 78.15644271340716,208.8217440519038 78.4061992859497,209.83660537866308 78.94952937359267,209.73678406815452 79.02839987016705,209.65359945689488 78.98020123336755,209.38186188272084 79.1686140863385,209.2764937668435 79.1686140863385,209.0491195405193 79.34826355079713,208.6609167245806 79.31320999676245,208.32262269885905 79.19928594612429,208.12297245445734 79.23433950017716,207.9011377080642 79.33950016228846,207.69039358600276 79.82586822461235,207.26335611881223 80.48312236286438,207.26890208849363 80.73726062966671,207.8124034730463 81.41204154495426,208.09524317685646 81.87211944174487,208.0730597412621 81.94660824408857,208.21170601656922 82.2927620902301,208.00650936241436 82.61262577086745,207.60720481824683 83.08584875041561,207.50183213650962 85.82002596560415,207.11916064373872 86.55615060045966,206.94168859281854 88.15546900357731,207.11916064373872 90.11408633560495,208.18952264405743 91.25770853619179,209.23212816326486 94.28545926648076,213.52427773669478 94.46072703668688,213.64072514070722" stroke="#4dd2ff" stroke-linecap="round" stroke-linejoin="round" stroke-width="0.5"><title>2022-08-07 17.9km</title></polyline><polyline fill="none" points="141.33333333333212,218.80575072518332 137.84060984061944,213.9644607615046 136.81774081773983,213.05928311761818 136.05682605681795,212.56458410058258 135.0256410256443,212.07514164199165 134.04851004851298,211.8646268607954 133.82397782398402,211.83831243298118 132.2647262647297,212.18566144564102 131.76576576576554,212.20671280115857 131.27927927928613,212.3698604199344 129.84892584892077,212.4961677834217 129.18780318781137,212.90140113674715 128.77616077615312,213.0224440461243 128.06514206514476,212.80140888380993 127.73250173250199,212.20671280115857 127.14622314622466,212.20144996335148 126.63894663894462,212.66457696286307 126.36036036035875,213.51187457479318 125.81566181566086,213.86973385621968 125.45807345807043,213.63291558286437 124.82189882189778,213.72238043350808 123.91961191960581,213.05928311761818 123.59944559944779,212.98034220735644 119.678447678456,213.59081440543014 118.19819819820987,213.90130951696847 114.3645183645167,214.50650472366397 113.95287595288028,214.59596756343672 113.49133749133762,214.90119217288157 111.94455994456075,214.71174269745825 110.80526680526236,214.45387942761954 110.65973665974161,214.57491750201734 110.40194040193455,214.50650472366397 109.88634788634954,214.0381370838004 109.8198198198188,213.50134925192833 109.72002772002816,213.31715564037222 109.20443520443587,212.9592912708722 109.088011088028,212.71720468177955 108.88842688843215,212.5277445601605 108.57657657657182,212.3224950527765 108.37699237699417,212.38038604922622 107.6618156618133,212.12777015912434 107.4414414414423,211.89620415067475 107.2044352044395,211.97514726311783 107.18780318780773,212.02777591564882 107.2792792792934,211.9646215240573 107.34996534996753,212.0225130536055 107.15453915454418,212.18566144564102 106.76784476784451,211.68568840017178 106.39362439362958,208.86993060103487 106.32709632709884,207.15932389937734 105.82397782397311,201.12159607181093 105.67013167013647,200.07924292795724 105.33333333333212,199.36326698763878 105.39570339570128,199.2895628327933 105.69092169092619,199.45276470193494 105.82397782397311,199.31588576129434 105.76576576577281,199.18953554180916 105.62855162855703,199.12636027792178 105.362439362445,199.3000920063423 105.34996534996026,199.41064815618302 105.64102564103086,199.86866313902283 105.74081774082151,200.3161438259085 106.53915453915397,209.12783092479003 106.85932085931927,211.74358034523902 107.11295911296111,212.14882154601946 107.28343728344407,212.2803924557411 107.59112959113554,212.35933478776133 107.59528759528985,212.42775134581825 107.80734580734497,212.33828351490956 107.96534996535775,212.35933478776133 108.37283437283986,212.89087564856527 108.7387387387389,212.79088336852874 109.06722106722009,213.01191859070605 109.03811503811448,212.7698323294244 108.80526680527328,212.51195617499252 108.88842688843215,212.50669337852014 109.11295911296111,212.71720468177955 109.22522522522922,212.94350306103297 109.74913374913376,213.2961048863326 109.82813582814197,213.44345992523085 109.87803187803729,213.9697233606057 110.33541233541109,214.44861689410027 110.65142065141845,214.55912994847313 110.87595287595468,214.42756675286728 111.49965349966078,214.59070504915508 113.50381150381145,214.8748798009583 113.98613998614746,214.55912994847313 123.67013167012192,212.9329775842416 123.94040194040281,213.0013931324429 124.80110880110806,213.6960672635214 125.55370755371405,213.6539661544848 125.778239778243,214.60649258987178 126.41025641025408,214.45914196043668 127.1545391545369,214.41177913946376 128.32709632710248,214.2065395816935 128.3769923769869,213.67501671470745 128.2106722106655,213.2855795050309 128.22314622315025,213.01191859070605 129.04643104642673,212.92771484477998 129.7823977823973,212.45932817814173 130.4518364518408,212.4172257293394 133.51628551629256,211.8804155089456 135.0173250173284,212.05409021520245 136.46015246014576,212.8066716403664 136.97990297989963,213.15401199827465 137.7740817740887,213.87499646812284 138.76368676367565,215.10642806252145 140.87179487179674,218.09538179293668 140.7428967428932,218.3321728793926 140.9009009008987,218.59527239487215 140.85932085933018,218.68472582451068 140.96742896743308,218.96887064733164 140.905058905053,219.33720343763707 140.57241857242116,219.68448544348576 140.50589050589406,219.8686488847452 140.25641025640653,220.0422879017242 139.7948717948675,220.6105556257644 139.76160776161123,220.5789854145587 139.76576576576554,220.76840629718936 139.8738738738757,220.87363972208186 139.6909216909189,220.63160241898368 139.53707553707136,220.70526610553134 139.67428967429805,220.67895766207585" stroke="#ff0000" stroke-linecap="round" stroke-linejoin="round" stroke-width="0.5"><title>2022-08-06 24.1km</title></polyline><polyline fill="none" points="187.54929577467556,214.5400366744143 185.8591549295743,211.96146667771973 180.0281690140764,204.07080960246822 177.55868544599798,201.8365790374446 175.72769953050738,200.68378889540327 173.4741784037542,199.57852227242984 172.05633802818193,199.17444282794168 170.7136150234801,199.0318261092616 168.02816901409824,199.6498302165346 165.64319248827087,199.89940756469878 165.0046948356976,200.1608687872358 162.0657276995189,200.3985601317254 159.51173708919669,201.69396664476517 157.65258215960057,201.1116303028175 156.92018779343198,199.85186907690513 155.55868544600526,199.82809982339677 154.516431924887,200.82640292966244 153.88732394366525,202.78732239993406 152.65727699529089,203.61921439367143 152.10328638496867,203.23892188919854 152.0,202.92993301600654 152.2253521126695,202.87051195414097 152.30046948358358,202.53775326423056 152.87323943663068,201.9910755346864 153.78403755869658,201.57512280717492 153.89671361501678,200.60059726845066 153.88732394366525,201.50381642737193 153.71830985914858,201.6701978901183 153.97183098590904,201.3255502243701 153.85915492959612,200.29159910638555 153.95305164319143,200.62436631277524 153.67136150232545,200.54117462947033 154.0281690140837,200.636250832511 154.00938967135153,200.93336330322927 154.10328638498322,200.3985601317254 153.69953051643097,198.5088961576621 153.37089201877825,198.6515137262104 153.75586854459107,200.50552102676738 153.30516431925207,200.79074944281456 152.99530516429513,200.6956734071282 153.12676056338387,199.8399844509695 152.95774647887447,198.78224629378383 152.74178403753467,198.68716808212048 152.42253521124803,198.82978536096925 152.75117370892258,200.70755791721604 153.6525821596224,200.73132693257503 153.8497652582082,201.58700719816989 152.58215962441318,202.52586900196184 152.10328638496867,203.09631177522533 152.6009389671308,205.28297472646955 153.7934272300481,204.98587698011397 153.81220657275117,204.24907022949628 154.0938967136317,204.21341813304753 154.27230046947807,203.79747593787033 154.7605633802741,203.57167792071414 154.8262910798221,203.20326938244398 154.56338028169557,202.82297507569456 154.31924882628664,201.24235920570936 154.50704225351365,200.8026339400094 155.51173708919669,199.89940756469878 157.09859154931473,199.81621519418695 157.5868544600744,201.06409247167903 159.15492957747483,201.62266036153596 160.12206572770083,201.46816321573715 161.3990610328401,200.70755791721604 160.3943661971789,201.87223209944204 162.0469483568013,201.37308791391115 161.99999999999272,200.95713225739746 162.26291079811926,200.70755791721604 162.1032863849614,200.57682821767958 161.21126760562765,200.6956734071282 160.0187793427176,201.51570082800026 159.29577464787872,201.68208226825664 157.86854460094037,201.23047476806823 157.4460093896705,200.74321143786074 157.05164319246978,199.8399844509695 155.60563380279928,199.80433056337642 154.58215962439135,200.7194424256959 153.92488262908591,202.76355394138955 152.54460093895614,203.61921439367143 152.15023474176996,203.33399516980717 152.10328638496867,203.09631177522533 152.62910798122175,202.47833193682163 153.76525821595715,201.72961976467195 154.00938967135153,201.19482144537324 154.13145539903053,200.469867409578 153.82159624413907,200.56494368986023 154.08450704224379,200.70755791721604 153.76525821595715,200.30348367123224 153.32394366196968,200.30348367123224 153.82159624413907,200.32725279599254 153.92488262908591,200.54117462947033 153.5680751173786,199.0080566335746 153.69014084507944,198.84167012373655 153.7276995305001,198.94863291629736 153.6525821596224,198.7465919764727 153.6338028169048,199.51909894141136 154.00938967135153,200.70755791721604 153.88732394366525,201.4919320251065 152.65727699529089,202.46644766652025 152.13145539905236,203.16761686115933 152.54460093895614,205.2592069437669 153.7276995305001,205.02152876277978 153.90610328636103,204.84326970465918 153.76525821595715,204.34414241582272 154.00938967135153,204.2253021667857 154.13145539903053,204.34414241582272 154.23474178402103,203.55979379843484 154.61032863848232,202.76355394138955 154.4882629107742,201.9673068605407 154.2253521126695,201.58700719816989 154.29107981219568,201.36120349392877 154.4882629107742,200.79074944281456 155.57746478873014,199.75679202410538 157.07042253520922,199.75679202410538 157.65258215960057,200.945247781121 159.53051643193612,201.58700719816989 160.0657276995189,201.39685674901557 161.62441314553143,200.37479102628276 165.6995305164237,199.98259985639743 165.98122065727512,199.78056129694596 167.42723004694562,199.53098361082084 168.32863849762361,199.637945563205 169.43661971829715,199.15067339094094 171.05164319248433,199.06748031063034 171.91549295774166,199.340828706896 173.34272300469456,199.3645980924266 175.77464788731595,200.56494368986023 177.9530516431987,202.02672853391414 180.5915492957647,204.55805445862643 185.35211267606064,211.42673069822195 188.0,214.87274986656848 185.483568075113,217.712643296436 184.15962441316515,218.75827129400568 184.13145539905236,219.00779431649426 183.80281690142147,219.25731662978797 183.76525821596442,219.8276506829061 183.92488262910774,219.81576876124018 183.7370892018953,220.0771706660671 183.6901408450649,219.35237256261462 183.86854460094764,219.41178246834897 183.6901408450649,219.75635912887083 183.4553990610293,219.6731855760372 183.61502347418718,219.55436607813317 183.17370892019972,219.9464698109732 183.09859154928563,220.17222571122693 183.48356807513483,220.59997214078612 182.81690140845603,221.3485233779138 182.92018779343925,221.2415878776519 183.33333333334303,221.467340447678 183.51173708920396,221.44357704660797 183.44600938967778,221.17029747177003 183.5680751173786,221.39605022512114 183.63380281692662,221.28911478274676 182.7511737089444,221.49110384233063 183.12676056336932,221.22970614734368" stroke="#4dd2ff" stroke-linecap="round" stroke-linejoin="round" stroke-width="0.5"><title>2022-07-23 16.3km</title></polyline><polyline fill="none" points="48.0,257.521782867836 46.30540540540096,255.21310758832988 45.89999999999418,254.8539740029737 45.19459459458449,253.67395167104405 40.71081081080047,247.42465758627804 38.23783783784893,245.10541242804175 36.70540540539514,244.13048730166338 34.597297297288605,243.09397420137975 31.905405405399506,242.51926775910397 30.77837837838888,242.478217132164 30.032432432424685,242.6424195064901 29.521621621621307,242.52953041235014 29.416216216231987,243.2171250148167 29.12432432431524,243.34027562813571 27.024324324338522,243.76103871370287 24.23513513513899,244.08943754750362 23.124324324322515,244.81806737853913 22.532432432424685,244.97200236197386 21.097297297303157,244.38704776143277 20.537837837844563,243.42237592585298 19.38648648650269,243.39158832465182 18.32432432432688,244.30494850880496 17.80540540540096,245.90586789268855 17.07567567568185,246.29583031278162 16.8891891891908,246.53185922381817 16.02162162163586,246.20347097356716 14.772972972983553,246.35740314303985 12.916216216239263,244.9412153903031 12.0,244.9412153903031 12.956756756764662,244.92069073556195 14.691891891903651,246.29583031278162 16.167567567586957,246.2445195826731 16.516216216223256,247.40413360410457 16.58918918918789,248.0711601799194 16.44324324325862,248.17377913205564 16.57297297299374,248.40980219475023 19.32162162163877,247.87618378804473 19.491891891884734,247.62989710236434 27.932432432447968,246.32661673414987 27.324324324319605,245.5672146894285 26.28648648647504,244.79754269044497 26.35135135136079,244.63334498563927 26.724324324328336,244.62308261728322 26.76486486488284,243.80208864577435 27.081081081094453,243.53526368996245 29.69999999999709,243.0837116245384 30.348648648665403,243.1144993508642 30.713513513517682,242.88872240089404 31.79189189189492,242.7245205602303 34.654054054044536,243.0323987196025 36.64864864863921,244.04838777110126 38.41621621623926,245.15672392941633 40.58108108106535,247.16810740958317 46.16756756756513,254.95658377243672 46.02162162161403,255.2438903878865 45.81891891892883,255.2951950260467 45.98918918918935,255.54145680589136" stroke="#4dd2ff" stroke-linecap="round" stroke-linejoin="round" stroke-width="0.5"><title>2022-07-16 10.3km</title></polyline></svg>