<?xml version="1.0" encoding="utf-8" ?>
<svg baseProfile="full" height="300mm" version="1.1" viewBox="0,0,200,300" width="200mm" xmlns="http://www.w3.org/2000/svg" xmlns:ev="http://www.w3.org/2001/xml-events" xmlns:xlink="http://www.w3.org/1999/xlink"><defs /><rect fill="#222222" height="300" width="200" x="0" y="0" /><text fill="#FFFFFF" style="font-size:12px; font-family:Arial; font-weight:bold;" x="10" y="20">Over 10km Runs</text><text fill="#FFFFFF" style="font-size:4px; font-family:Arial" x="10" y="280">ATHLETE</text><text fill="#FFFFFF" style="font-size:9px; font-family:Arial" x="10" y="290">Allen</text><text fill="#FFFFFF" style="font-size:4px; font-family:Arial" x="120" y="280">STATISTICS</text><text fill="#FFFFFF" style="font-size:3px; font-family:Arial" x="120" y="285">Number: 14</text><text fill="#FFFFFF" style="font-size:3px; font-family:Arial" x="120" y="290">Weekly: 1.8</text><text fill="#FFFFFF" style="font-size:3px; font-family:Arial" x="141" y="285">Total: 228.9 km</text><text fill="#FFFFFF" style="font-size:3px; font-family:Arial" x="141" y="290">Avg: 16.4 km</text><text fill="#FFFFFF" style="font-size:3px; font-family:Arial" x="167" y="285">Min: 10.3 km</text><text fill="#FFFFFF" style="font-size:3px; font-family:Arial" x="167" y="290">Max: 24.1 km</text><polyline fill="none" points="55.60000000000218,58.40175111780991 51.24392041266765,52.37847104046159 49.81134856300923,51.08911202872696 47.47148120854399,49.833297849854716 46.77111274871277,49.678837225194 46.66499631539409,49.745994077642536 45.757700810605456,49.59824888219009 44.457774502574466,49.92060146838412 43.423139277820155,49.97432669571208 42.80766396462059,50.175795779781765 40.79675755342032,50.43098877793091 39.88415622696266,50.97494841744992 39.454384672066226,51.06225002618521 38.58953574061161,50.74662040648036 38.186293294042116,50.014620577985625 37.49653647753075,49.95417974228985 36.81208548268114,50.605593756885355 36.50965364773947,51.32415393030533 36.46720707442364,51.64649529817325 36.01090641118935,51.894965339313785 35.782756079581304,52.13000342169835 35.64480471628849,52.123288063376094 35.35298452467396,51.85467298478761 34.4775239498922,51.955403809759446 33.373913043473294,51.09582752708593 32.95475313190764,50.98166393127758 21.17052321297524,52.9492703149117 20.618717759771243,53.08357507183973 20.024465733251418,53.459626456402475 16.623434045701288,52.90897881691126 16.45895357406698,53.04328368294591 16.050405305828463,52.92912457000784 15.387177597654954,52.29117174868588 15.275755342663615,51.51890209057092 14.580692704505054,50.995094956178946 14.283566691243323,50.525006919906446 13.816654384681897,50.18922702292912 13.487693441435113,50.229520730605145 12.47958732499319,49.819866510300926 12.400000000001455,49.631827374367276 12.543257184977847,49.88030750969847 13.190567428151553,50.03476750686605 13.498305084751337,50.216089498360816 13.864406779677665,50.175795779781765 14.389683124543808,50.592162626482605 14.580692704505054,50.95480187053545 15.22800294767876,51.377877637103666 15.371260132644238,51.67335698426177 15.397789240982092,52.257595057079016 15.992041267512832,52.86868728618356 16.405895357409463,53.0298532127199 16.644657332355564,52.86868728618356 17.939277818717528,53.150727313928655 20.02977155490953,53.426050555844995 20.60280029477144,53.04328368294591 21.15991156963355,52.92240931989363 33.05556374354637,50.96823290273096 33.304937361830525,51.035388009098824 34.47221812821226,51.941973044904444 35.34237288135773,51.8479575891688 35.76683861458514,52.13000342169835 36.00560058953124,51.901680728562496 36.45128960943475,51.70021865578383 36.48312453943436,51.35773125387641 36.80677966101939,50.57201592406636 37.46470154752387,49.97432669571208 38.281798084011825,50.007904933219834 38.61075902725861,50.686180462900666 39.55519528370496,51.01524148673707 39.915991156958626,50.94137083471651 40.76492262343527,50.42427318954651 44.10759027266977,49.82658218053257 44.72837140750926,49.80643516709097 45.69933677228255,49.60496458243506 47.44495210021705,49.77957246975711 49.37627118643286,50.76676703796329 50.7770081061135,51.87481916613979 52.42181282238744,53.84239011613681 53.291967575521994,55.18539713581049" stroke="#4dd2ff" stroke-linecap="round" stroke-linejoin="round" stroke-width="0.5"><title>2022-09-11 16.4km</title></polyline><polyline fill="none" points="121.60000000000218,58.51485195315399 120.09796753163027,56.57206140937342 118.41370318292684,54.04911996317969 117.17673526779981,52.399706542793865 115.65261408666629,51.00185729857185 114.89055349610135,50.5335693364359 113.2835996420763,49.7297815859456 112.47736162597357,49.59698066574492 111.43366994759708,49.48514804684601 110.13043589416338,49.8136556753052 108.98734500830687,49.88355064564894 108.19767352677081,50.10022445214781 106.47475393071,50.30990791498334 105.98880224977256,50.47765407192128 105.30405215390056,50.924974491808825 104.96167710596637,50.97389992755052 104.02290681323211,50.68733600144333 103.6197878051862,49.91849809529958 102.8356385018451,49.869571659135545 102.43251949379919,50.17011903443199 102.12879969320784,50.554537544991035 101.78642464526274,51.609926371849724 101.0464527674776,52.11315053251019 100.63228940303452,51.81960370169327 99.6769525757336,51.91745283078126 98.66639396649407,51.099707977900835 98.23566406749524,50.897017079158104 91.62009459285764,51.95239890335506 90.65923558736904,52.21798828178362 85.86046273807005,52.93786840920802 85.28615620604978,53.05668261060782 84.70632749584547,53.46903565857792 82.4698453278761,53.21044175940551 81.13347820527997,52.89593391989911 80.90154672119388,53.05668261060782 80.47633900037181,52.9099120867686 79.85233286462244,52.28787999635824 79.83024415184627,51.714765143238765 79.7142784098105,51.4561624553171 79.06818356129588,50.98787861496021 78.68715326600068,50.4427070008569 78.51044356384227,50.30291847995613 78.40000000000146,50.337865645673446 78.47731049468348,50.24700296558149 78.8804295027403,50.596473936566326 79.03505049212254,50.91099578738067 79.66457880608141,51.29540878004991 79.84681068642385,51.69379740599834 79.88546593378123,52.25992332187525 80.50394989134656,52.89593391989911 80.82975840469953,53.0427044834687 81.1997443436012,52.89593391989911 84.64006135753516,53.455057643092005 85.42421066086536,52.98679193701901 98.18596446375886,50.876049009697454 98.45102901700011,50.945942541380646 99.65486386296834,51.861539065434044 99.90888405981968,51.91745283078126 100.62676722485048,51.78465753921046 100.86422088712061,52.07820456874106 101.06301930205518,52.120139722410386 101.73120286334961,51.665840409765224 102.12327751500197,50.45668583211227 102.78593889811964,49.86258216447459 103.61426562699853,49.841613674794644 103.91246324939493,50.554537544991035 104.03947334782424,50.52657993167668 104.46468106864995,50.77120853474844 104.98376581874254,50.90400643373141 105.37031829221087,50.82712348122004 106.2759555157827,50.24700296558149 107.01040521539471,50.17710848743809" stroke="#4dd2ff" stroke-linecap="round" stroke-linejoin="round" stroke-width="0.5"><title>2022-09-10 13.4km</title></polyline><polyline fill="none" points="187.59999999999854,58.490193322202686 183.3957686883041,52.594580364671856 181.83372227208747,51.157379128253524 181.36843185022735,50.855912343664386 179.3244774971172,49.78323722379355 178.85364790357926,49.67807180006639 178.48252340043473,49.7061159339537 177.4688549814091,49.50980667779368 175.68524169765806,49.902424445743236 174.69372996538004,49.97954544316963 174.4555455827649,50.14079806651716 172.34512116938276,50.38618152968775 171.35360943710475,50.95406451275994 170.93817156046498,51.02417309105658 170.02974740350692,50.69466194760389 169.6586229003551,49.96552345216696 168.86098217719336,49.902424445743236 168.16858571611738,50.57547654948576 167.83623541479392,51.339660518529854 167.78638286959904,51.697210612335766 167.38202333632216,51.87949010203738 167.0829080651347,52.159918833134725 166.63423515834438,51.87949010203738 165.68149762788744,51.94258669895862 164.55704577509823,51.07324903936751 164.21361713040096,50.947053649721056 157.68847288114557,51.98465105419746 153.48978074111074,52.77685669517086 151.90003846647232,52.98016415294114 151.30734709578246,53.13439686424681 150.81436081547872,53.48492404496574 150.5872547762483,53.54100817368089 147.19174253108577,52.98717474069781 146.80953968456743,53.113365157929366 146.48272855492905,52.98016415294114 145.85126298241812,52.38426072441143 145.69616617514475,51.52895205224195 145.00376971405422,51.02417309105658 144.74896781638017,50.61053110682042 144.40000000000146,50.3371049300913 144.7877420181976,50.5684656351732 144.98161302730296,50.919010188023094 145.64631362994987,51.325638895908924 145.7958712655418,51.59905985207661 145.8734196691803,52.30013262911962 146.5491986151901,52.96614297457563 146.8926272598983,53.064291143327864 147.14742915757597,52.91005822320221 147.97830491088098,53.113365157929366 150.58171560456685,53.47791352461718 150.79774330042346,53.435850382520584 151.35166046929226,53.064291143327864 164.1194512117072,50.91199932022937 164.54596743172442,50.982107955467654 165.72027182970487,51.914543776489154 166.72840107705997,51.83742566138608 166.86134119758572,52.075790373291966 167.06075137837252,52.152908133371966 167.3100141043651,51.90753304350437 167.78638286959904,51.66215679073139 168.14088985766284,50.498356439780764 168.70588536992,49.96552345216696 168.9052955507068,49.89541344029567 169.67524041543584,49.93747945882569 170.01866906014402,50.58949837527325 171.00464162071512,50.96808623601464 171.46993204256069,50.84189059003256 172.394973714574,50.30906113801029 177.4079240928295,49.52382879219658 178.5323759456296,49.59393930729129 179.37986921399352,49.75519313168843 180.75912296448223,50.442269015115016 181.64539043467448,50.99612967112989 182.69229388383974,51.87247936431231 183.56748301064727,52.79087792479186 187.30642390050707,58.02053175992114" stroke="#4dd2ff" stroke-linecap="round" stroke-linejoin="round" stroke-width="0.5"><title>2022-09-03 16.2km</title></polyline><polyline fill="none" points="53.24033613445499,107.85782758846835 53.57585943468075,107.42628217672609 53.88388082506208,107.27315228918815 54.91795263560198,106.29171809305262 55.319480519487115,105.83927758163554 55.27547746370692,105.74878900168551 55.60000000000218,105.47036160309653 51.27119938883334,99.3793850352813 49.57158135980717,97.78517031384035 48.4495034377469,97.10291484799018 47.0744079449978,96.42065032796017 45.209778456843196,96.1978681154942 43.88968678380115,96.49723149049532 40.204430863257585,97.03329643423058 39.3298701298736,97.55543223947825 38.93384262796462,97.67378228478992 37.93827349120693,97.36746396049057 37.52574484338038,96.65735537085857 36.766692131401214,96.56685063020632 36.057142857145664,97.23518957441775 35.68311688311587,98.36299184148811 35.27608861725457,98.5300715547528 35.01207028266799,98.79461332362553 34.86355996945349,98.78765171555642 34.54453781511984,98.51614826605146 33.598472116111225,98.613611207762 32.50389610388447,97.77124682340582 32.05286478228663,97.61808817975543 19.236974789921078,99.76226767194748 18.87394957982906,100.11034032193129 18.65943468297337,100.17995456915014 15.821237585954805,99.79011357068521 15.128189457613189,99.6021534616848 14.963177998473839,99.7483447169434 14.53964858670588,99.61607645626282 13.885103132150107,99.01042270586913 13.84110007639174,98.36299184148811 13.654087089380482,98.02883078604646 13.109549274257006,97.68074404367144 12.752024446152063,97.18645682007991 12.400000000001455,96.92886863685635 12.85653170358637,97.26999865637481 13.104048892280844,97.68074404367144 13.725592055005109,98.09844785169844 13.83009931245033,98.28641345811775 13.901604278078594,98.98953796652131 14.528647822768107,99.61607645626282 14.963177998473839,99.7483447169434 15.19419404125074,99.6021534616848 18.620932009169337,100.17299314868069 19.19847211612432,99.80403651436427 19.53949579831533,99.69961434471406 32.10786860198641,97.6041646440899 32.465393430087715,97.69466755861504 33.58747135218073,98.58576467185412 34.59954163483053,98.51614826605146 34.836058059598145,98.79461332362553 35.03957219251242,98.79461332362553 35.21558441558227,98.57880303550701 35.71611917494738,98.30729848308692 35.76012223070575,97.92440501078818 36.07914438501757,97.15164768153772 36.6181818181758,96.64343157496842 36.909702062654105,96.56685063020632 37.531245225367456,96.60166016470612 37.927272727269155,97.31873133153204 38.63682200152107,97.6041646440899 38.99434682964784,97.63897347620514 40.30893812069189,96.97760163536077 44.51673032847975,96.26748766059973 45.34728800611629,96.14217241153528 46.282352941176214,96.32318322880383 47.17341482046686,96.36495486534841 47.635446906049765,96.69216484408389 48.98304048892169,97.31873133153204 50.0171122994725,98.09844785169844 50.87517188693528,98.89207573745807 51.898242933533766,100.14514745731867 54.97295645532358,104.54457966315385" stroke="#4dd2ff" stroke-linecap="round" stroke-linejoin="round" stroke-width="0.5"><title>2022-09-01 16.9km</title></polyline><polyline fill="none" points="121.60000000000218,106.5124479681217 117.09135612754108,100.28830892705082 115.7747214752053,99.10500764626704 114.9172493276892,98.6358807077122 114.56872839031348,98.32079306110609 113.2686899730943,97.73262431673356 112.47760276604095,97.60658728674025 111.43203995389922,97.48755203187466 110.07114867459313,97.83065290542072 109.72262773722832,97.78864067587347 108.83196311946085,97.92167928565323 108.32854398769268,98.11773556031767 106.42550902804578,98.29278517736748 105.39654245101701,98.90195322516593 104.98163657317127,98.99997959698158 104.06331156356828,98.6918960883304 103.65393776412748,97.94268535061201 102.80752977334123,97.88666915836802 102.16580868228266,98.51684782243683 101.83941605839209,99.28705575969798 101.78409527467011,99.6581518521707 101.32493276988316,99.88220858082786 101.0704571648057,100.14127296311926 100.65555128698179,99.8331962543889 100.06915097963429,99.95922785708535 99.51041106414414,99.80518918985035 98.51463695734856,99.0279870976592 98.1716480983414,98.91595700392645 85.81298501728088,100.98847444809508 85.29296965039975,101.10050005167795 84.90019208604281,101.4365754063474 84.61805608912255,101.52059390372597 82.70395697272397,101.27553957145574 81.1051863234643,100.91145670482729 80.85071071840866,101.07949526948869 80.43580484056292,100.92545993942258 80.16473300036887,100.58237960057886 79.87706492508369,100.40733773446482 79.76642335765064,100.1552764062726 79.78855167114307,99.7071643445197 79.63918555512282,99.38508140144768 78.99746446406425,98.95796831752159 78.78171340760673,98.58686719990146 78.40000000000146,98.28578320406086 78.81490587781445,98.58686719990146 78.98086822897312,98.9299607789435 79.67237802535237,99.39208322589911 79.86046868996709,100.28830892705082 80.4745293891574,100.93246155527959 80.8175182481682,101.0724936735387 81.11071840184013,100.86944697832587 81.99585094122449,101.10750164384444 84.61805608912255,101.48558621306802 85.45893200153296,101.01648087172725 98.18824433344707,98.92295889190791 98.53123319246515,98.97197208112993 99.73169419900296,99.93122086080257 100.6223588167486,99.82619448969126 100.86023818669855,100.07125569048367 101.07598924319245,100.10626433866491 101.30833653476657,99.8752068227659 101.75090280445875,99.67915721171448 102.10495582019576,98.58686719990146 102.84072224354895,97.87266510082918 103.60968113713534,97.86566307062458 103.99139454476244,98.57286333201773 104.11310026891442,98.54485558481247 104.58332693046032,98.84593807210695 105.10887437572092,98.9299607789435 106.28167499039046,98.30678912112126 106.76296580867711,98.20876143515488 111.36565501343648,97.48755203187466 112.48313484440587,97.56457487513762 113.20230503265338,97.68360995268449 114.95044179791876,98.53085170552731 115.87983096427342,99.15402066293245 116.80922013061718,99.96622960379682 118.40245870148647,101.8916739676497 121.15190165193417,105.88936767746054" stroke="#4dd2ff" stroke-linecap="round" stroke-linejoin="round" stroke-width="0.5"><title>2022-08-28 16.3km</title></polyline><polyline fill="none" points="187.59999999999854,106.36290255939457 183.37483966454965,100.52339075026612 182.13339911200092,99.39047313334595 181.44607794771582,98.91167282140668 179.5013320177677,97.90010773012546 178.77138628515604,97.7517431222077 178.04676862360066,97.63709744060907 176.82664035521884,97.89336389389791 176.53359644796365,98.05521571125792 175.38806117415152,98.12265381320321 174.8445979279859,98.284504885356 172.798618648274,98.54751175563797 171.92481499753558,99.07352132921369 171.58914652196108,99.1611890512977 170.65140601875464,98.85772320190517 170.22516033548527,98.12265381320321 169.51119881598788,98.10242239222862 168.8558460779459,98.70261772031154 168.48288110508656,99.76811520254705 167.86482486435125,100.23342024280282 167.66768623582539,100.23342024280282 167.34267390233072,99.97042227597558 166.46887025160322,100.04460133031534 165.39259990132632,99.20165102483588 165.07291563888793,99.087008681101 153.1220522940239,101.06960967877603 152.60522940306328,101.18424745875745 152.26956092747787,101.45398237077097 151.93389245190338,101.56861926599595 149.48297977307448,101.23819455803459 148.5772076961075,101.00891898256668 148.42269363592277,101.14378709594894 148.22022693636245,101.15053049204289 147.9058707449367,100.97520189714123 147.37839171188534,100.46944287670703 147.21854958066615,99.63998696432827 146.54188455846452,99.12747071490958 146.09965466205904,98.5205367559247 145.72136161815433,98.27101731608491 145.44430192402797,98.33171134897202 144.73034040454877,98.02824044487716 144.53320177602654,97.99452134138119 144.40000000000146,98.10916620013813 144.44795263936612,97.99452134138119 144.65574740996817,98.00126516390446 145.44430192402797,98.31822379247751 145.77464232856437,98.25752974317584 146.1209669462296,98.50704925061291 146.50458806116876,99.00608451487642 147.24518993586025,99.55906369664808 147.38904785396517,100.4222384394161 147.98579181055175,101.02240581031947 148.32146028613715,101.14378709594894 148.62516033547217,100.96845847732038 151.9871731623134,101.54164590263463 152.5306364084936,101.16401728145865 152.79703996052922,101.0898398944264 165.01963492847062,99.04654661443419 165.3712876171776,99.14095805221223 166.4741983226486,100.0243706900983 166.6766650222089,100.06483196232148 167.29472126296605,99.91647380340873 167.80621608288493,100.21993320135152 168.02466699557044,99.99065293811145 168.48288110508656,99.78160236634722 168.80789343858123,98.70261772031154 169.2288110508125,98.23729837699284 169.527183029124,98.05521571125792 170.27311297483902,98.08893477364472 170.6141095214589,98.73633634436192 171.56783423780143,99.1004960293576 172.19121854958576,98.87795431605628 172.76132215096732,98.50704925061291 173.17158362112968,98.40589284422822 176.84795263936758,97.92708306590794 177.15698075974797,97.77197468567465 177.76970892944883,97.66407291884752 178.6914652195519,97.81918163514638 178.81401085348625,97.75848697760739 179.61322150963315,97.91359539984478 180.33251110015772,98.32496757118133 180.86531820425444,98.5003054965855 181.97888505181618,99.21513834204598 183.42812037494878,100.53687770949182 185.0691662555546,102.7554327927428 187.05653675383292,105.70885733800606 187.21105081402857,105.79651338147596" stroke="#4dd2ff" stroke-linecap="round" stroke-linejoin="round" stroke-width="0.5"><title>2022-08-26 16.9km</title></polyline><polyline fill="none" points="54.97786760990493,152.8733396118041 52.94775138959085,150.00704683120784 51.5179383527211,148.41152252106622 50.85760485094215,147.82441227059826 49.83708943911188,147.17512953647383 48.347246083882055,146.45676454047498 46.56270843859602,146.23572712165696 45.64588175846802,146.41532009741059 45.280242546745285,146.60872721029955 44.13420919655982,146.65017149621053 43.599393633161526,146.8642997703355 41.503789792826865,147.09914910189764 40.597877716023504,147.63791701213268 40.172208185951604,147.72771111059046 39.260838807484106,147.40997743691332 38.85154118241917,146.67089362653132 38.07660434563877,146.6432641175561 37.40535624052791,147.30636820237123 37.012430520469934,148.4046153809395 36.59767559374086,148.61182917812766 36.3466397170414,148.8535775443197 35.93734209196555,148.57038648604066 35.036887316840875,148.6947144613223 33.91268317333379,147.7829689387654 33.53067205660409,147.64482425609822 20.847902981309744,149.77911784226308 20.373117736235145,150.11755748953874 20.00202122285191,150.19353342829345 16.656695300654974,149.6409785654323 16.427488630619337,149.80674565273875 16.0236483072149,149.6409785654323 15.417887822135526,149.07460361936683 15.27599797878429,148.2319365736039 14.588377968659188,147.69317493758354 14.179080343616079,147.1405929893299 13.698837796859152,146.81594830312315 13.415058110149403,146.8919291595921 12.721980798392906,146.58800505470572 12.400000000001455,146.58800505470572 12.983931278417003,146.61563459361787 13.398686205153354,146.84357771858777 13.677008590202604,146.7814115127876 13.944416371898114,146.905743848587 14.391915108633839,147.29946091259262 14.599292572002014,147.67936046183968 15.188681152088975,148.0454428051089 15.37422940880424,148.45296534223962 15.450631632145814,149.09532476482127 16.0618494188966,149.6340715917795 16.389287518937635,149.76530393141002 16.72218292067555,149.59262973016666 17.62809499747891,149.82055955237593 20.105709954517806,150.17971962966476 20.989792824650067,149.72386217640815 33.4979282465938,147.64482425609822 33.8417382516418,147.72080387786627 34.99322890348776,148.61873629021284 35.9700859019722,148.5634793674035 36.13926225367322,148.78450669944868 36.33026781202716,148.8535775443197 36.641334007072146,148.57038648604066 37.03425972714467,148.39080109785937 37.40535624052791,147.2303879632709 38.02203132896466,146.6225419760085 38.878827690754406,146.6432641175561 39.18989388580303,147.34090463726534 39.34269833250801,147.32018277913448 39.790197069221904,147.58265902684434 40.26498231430742,147.67936046183968 40.59242041435937,147.59647352877437 41.59110661950035,147.0300758813246 46.600909550288634,146.22191225117786 47.43587670541456,146.36006078760693 47.64325416877182,146.2978939925124 48.440020212226955,146.46367194439154 50.12632642749668,147.34090463726534 50.95037897928705,147.9072988332773 52.27104598281949,149.07460361936683 53.930065689750336,151.3124386946838 55.60000000000218,153.77808774882214" stroke="#4dd2ff" stroke-linecap="round" stroke-linejoin="round" stroke-width="0.5"><title>2022-08-21 16.1km</title></polyline><polyline fill="none" points="121.60000000000218,154.37260019442692 121.01250155957678,153.6836808271437 117.37971303805898,148.53353963156405 115.94061135371885,147.21692897880712 115.03510917031599,146.6438856161003 113.49359950094367,145.87981765933364 111.6610355583216,145.6819767460147 110.9172301933977,145.82524093327447 110.46986899563854,146.016259215834 109.39728009981263,146.06401367330545 108.6965938864596,146.28914122021524 106.9448783530861,146.50062375693233 105.5650655021891,147.15553178744085 104.6002744853431,146.89629837673056 104.36311915158512,146.6575295814364 104.10979413601308,146.11176808550226 103.3713786650078,146.07083573497584 102.71920149719881,146.6848175010382 102.4011977542068,147.46933886830448 102.39041796631136,147.75585666981715 101.68434185902515,148.26066978400922 101.2154210854751,147.9605112446734 100.34764815970266,148.06966001134788 99.17265127885548,147.17599752620663 98.76840923268901,147.08731259815613 88.55995009358594,148.8200513808988 87.29871490955338,148.94284163185148 86.18300686213843,149.21570778472596 85.92968184654092,149.48175086089395 85.63323767936527,149.5840747468901 83.25090455396276,149.27028083793994 82.19448533999821,148.99059331527678 81.98427947598611,149.17477795599552 81.63932626326277,149.06563158351855 80.94402994387201,148.41074838304849 80.9386400499061,147.86500587986666 80.83623206487027,147.6125979727367 80.14632563944542,147.11460028495276 79.93072988147833,146.74621526607734 79.2462133499721,146.24138697615854 79.32167186525476,146.08447985551902 79.17614472863715,145.9616826375859 79.18153462258852,145.83888512033445 79.38096069869425,145.95486056114532 79.45641921398419,145.85252930369097 79.3917404865897,145.9616826375859 79.17614472863715,145.82524093327447 79.32706175920612,146.1322342483145 79.04678727386636,146.3096073109482 78.40000000000146,146.0435474828082 78.99288833437822,146.29596325139937 79.3755708047538,146.2550310505103 79.93611977542241,146.6916394786167 80.17327510917676,147.08049067415777 80.7931129132885,147.46251699603454 80.9386400499061,147.73539116661414 81.03565814098692,148.44485709320725 81.73095446039952,149.0724532387212 81.98966936992656,149.15431302917568 82.26455396132587,148.970128313631 83.04069868995794,149.1884212359182 85.59011852776166,149.56360998630043 85.80032439178467,149.50903725079843 86.2908047411147,149.13384809402487 98.84925764192303,146.99862751399996 99.12414223331871,147.08049067415777 100.28835932627044,147.9946202596766 100.54707423581931,148.04237284185 101.25315034310552,147.94004582460184 101.61966313161975,148.22656094914055 102.30417966312598,147.8172531295677 102.69225202744201,146.6438856161003 103.28514036181878,146.08447985551902 103.54385527137856,146.016259215834 104.12596381783806,146.03672541745254 104.54098565189997,146.74621526607734 105.5219463505855,147.07366874923537 105.85072988148022,146.9918055779708 106.80474111040894,146.41193763996125 111.84968184654281,145.62739980557672 113.62834684965492,145.84570721246564 114.46917030568147,146.35736149035802 115.22375545851537,146.6916394786167 115.97295071740518,147.22375088433546" stroke="#4dd2ff" stroke-linecap="round" stroke-linejoin="round" stroke-width="0.5"><title>2022-08-19 15.6km</title></polyline><polyline fill="none" points="187.60000000000218,154.31890351065522 187.48776444389296,154.1430507581681 187.4289743906993,154.0280697776834 184.30775702090614,149.63830387209237 183.35642706915678,148.46132109473547 181.96684399356673,147.19637190690992 179.6847210194319,145.96521413134542 177.89429667203513,145.70815538203533 176.9429667202785,145.89080252417625 176.61694915254702,146.04639030368708 175.43045898799755,146.1343310081611 174.96013856240825,146.32374123047703 172.92386490164063,146.56050299842173 172.13287145861614,147.02049408241146 171.66255103302683,147.1828428654735 170.79138933564172,146.9393194930053 170.54554002227087,146.6484427978321 170.3210689100597,146.14109567134074 169.62093282197748,146.1005076786132 169.44990721266367,146.17491897341097 168.86735123098333,146.78373449464925 168.54667821353723,147.81870385234288 168.12445874057084,148.01487209762126 167.8786094271927,148.25839022702348 167.48311270568956,147.98781445442728 166.57453915625956,148.0960449393242 165.339948039109,147.15578477159943 165.05668687368598,147.11519760331066 158.65391562539662,148.11633812912987 157.13071879252675,148.47484978993816 153.12230607448146,149.0633444854102 152.58250649510956,149.1851011430881 151.9839168625549,149.59771872069905 148.64357293083594,149.04305168026622 148.38168996659442,149.16480838741336 148.03963874798865,149.0633444854102 147.33415810961742,148.37338448660012 147.31277990845047,147.80517497944675 147.17916615118156,147.5278322776103 146.532475566004,147.0949040068117 146.38282815784987,146.79049906987711 146.0461214895513,146.49962150812644 145.68269206977493,146.27638874224067 145.4047754546591,146.32374123047703 144.65653841396124,146.00580223400175 144.40534455029774,146.06668432616425 144.44275640233172,146.30344731244986 144.84359767412752,146.68903034534742 144.92911047878442,146.62138441449497 144.73670666832186,146.35079977503483 144.56568105900806,146.3913875644139 144.40000000000146,146.2222715578464 144.48016825436207,145.9990375525158 145.4047754546591,146.32374123047703 145.7361375726723,146.2628594516391 145.96595323518704,146.4116814467161 146.3774836075645,146.78373449464925 146.532475566004,147.07461040203998 147.2539898552459,147.56841911064475 147.3555363107771,148.4004419209923 148.03429419769236,149.05658021794807 148.38703451689798,149.15804413369915 148.62753927997255,149.01599459395948 149.3437090189327,149.19862964230197 151.95719411110258,149.577426132626 152.66267474948108,149.1377513670268 165.04599777310432,147.0949040068117 165.39339354200638,147.15578477159943 166.4997154521916,148.0351653204234 167.44035630335202,147.9675212123875 167.85723122603304,148.25839022702348 168.53598911297013,147.8119394163441 168.888729432143,146.68903034534742 169.61558827167028,146.0869783403723 170.39589261413857,146.12080167910972 170.705876531003,146.76344076348687 171.41135716937424,147.06784586530557 171.76944203885432,147.10843307206233 172.06339230484446,147.027258625556 172.90783125076632,146.46579842589927 175.30218978102494,146.16138965534628 177.9637758258068,145.68109648934478 179.71678832115867,145.9313906872958 181.21326240257622,146.68903034534742 182.1111468514173,147.26401705913668 183.60762093282028,148.6574868166208 185.22701967091416,150.9302472958152" stroke="#4dd2ff" stroke-linecap="round" stroke-linejoin="round" stroke-width="0.5"><title>2022-08-14 16.5km</title></polyline><polyline fill="none" points="55.60000000000218,202.4382266284265 52.33442140140687,197.82240099103728 51.16814333046932,196.31948125860436 49.91174377224888,195.16542266720353 47.86015462020441,194.01804707324845 47.12327892993562,193.78991074762598 45.93049453920321,193.66242234343008 45.76085409253574,193.56177337156987 44.525659590141004,193.96436803232064 43.396490366914804,194.01804707324845 42.82395385937343,194.2327626554943 40.86778745859192,194.44747730726158 40.04609154497666,194.923872118492 39.59548410847856,195.05806701314214 38.66246165173652,194.73599865540382 38.445109829430294,194.46089694208786 38.31787949442514,194.05830631580102 37.48027978893151,193.9979174397231 36.854730641800415,194.63535186430818 36.51014848447812,195.67535884752579 35.81038164191705,196.16516102699825 35.37567799730823,195.8699383751773 34.47976438826663,195.93703458686286 33.509633083824156,195.16542266720353 33.006013007725414,194.99096961125542 27.593422505837225,195.8632287490218 25.20255246043598,196.34631951070332 21.200098171560967,196.936757379146 20.6752730396438,197.07765628529887 20.346594674199878,197.35274347119775 20.023217572721478,197.4466753312663 17.727770278575917,197.15146031433687 16.7205301264039,196.91662893127432 16.42365934470945,197.05752789464168 16.10028224322741,196.91662893127432 15.480034360040008,196.33960994902736 15.358105288993102,195.54787529443638 14.679543502265005,195.0110988413544 14.446287888094957,194.6152224815596 14.16532089827524,194.3803790785205 13.810136213036458,194.16566413598775 13.555675543022517,194.22605280762218 13.195189593821851,194.0046273184853 12.585544238561852,193.9241087134469 12.400000000001455,193.61545284867316 12.521929071055638,193.75636119938645 12.617351822318597,194.25289219361002 12.553736654812383,194.25289219361002 13.009645355276007,194.21263310916402 13.60338691864672,194.91716236422508 14.080500674939685,194.7829670879728 14.350865136831999,194.98425986606162 15.262682537733781,195.36000419729316 15.395214136726281,195.5076172621557 15.458829304217943,196.2054185250454 16.057872131554177,196.88979098807977 16.455466928477108,197.02398055875892 16.73643391827136,196.8562435386266 17.6800589029408,197.09107520782345 20.039121364588937,197.42654709052658 20.24587065898595,197.38629058450897 20.77069579090312,196.997142673692 25.897018039031536,196.1584514407914 27.503301018528873,195.78942280124102 33.14914713462349,194.9708403729819 33.419511596515804,195.05135727704692 34.474463124312024,195.90348649237058 35.41808810897055,195.83639023526848 35.53471591606285,196.00413070768627 35.77327279420933,196.10477471857666 36.478340900743206,195.69548779962133 36.84942937784945,194.55483428421576 37.543894956445,193.95094826299828 38.28077064670288,193.9912075600514 38.657160387781914,194.6621910285976 39.58488158057298,195.02451832355655 39.945367529762734,194.93729162431555 40.86778745859192,194.3736692506427 43.18974107252507,194.0381766986102 44.22878880844655,193.78991074762598 44.70590256474679,193.7832008398036 45.03988219414532,193.64229256543695 46.19555773715547,193.5819031823048 46.619658853847795,193.70268187493275 47.94497484353997,193.80333056056043 48.47510123941902,194.08514579264374 49.217278193638776,194.68232039226132 50.05487789913241,195.18555182642012 51.401398944664834,196.46709146523062 52.41924162475334,197.88278520638414" stroke="#4dd2ff" stroke-linecap="round" stroke-linejoin="round" stroke-width="0.5"><title>2022-08-12 16.3km</title></polyline><polyline fill="none" points="121.60000000000218,202.8679272290792 117.59337877313374,197.27154389707357 116.23154819864067,196.14686678531143 116.00019474196233,195.8607022293727 115.04323271665271,195.22847230320986 113.7655306718625,194.63616530901345 112.76650438169963,194.3766128036077 112.28276533593453,194.30340543886268 110.75793573515693,194.6295101336873 109.48549172347339,194.75595831069586 109.05433300877121,194.98888831140357 107.15092502435073,195.10868045329335 106.2518013631925,195.70098175270323 105.89425511197987,195.7808420559195 104.95306718597931,195.48802030963634 104.76903602727543,195.29502320475876 104.5376825705971,194.76926862619803 103.8068159688446,194.71602734257976 103.18636806232462,195.3349537024369 102.87088607595433,196.08697201613177 102.84985394353134,196.36648031446748 102.37137293086562,196.6526419254442 102.19259980526112,196.86559832205967 102.02960077898751,196.83897882293604 101.73515092501475,196.57943795100073 100.86231742939708,196.67926152548898 99.48471275561678,195.69432672156108 93.66932814020765,196.64598702318835 91.94469328140258,197.03196986486364 87.66991236610556,197.6774861192025 87.17565725415261,197.77730746350062 86.54469328141204,198.17659081334932 84.27848101265772,197.8638191312457 83.20584225899438,197.61093844371862 82.6958130477069,197.02531501394333 82.1489776046692,195.14195599645973 81.57585199611276,194.5296823957142 80.64518013631096,194.21688750355315 79.17818889970658,194.0704721891234 78.79961051607461,193.9373669792585 78.58928919181562,193.7443637845754 78.40000000000146,193.13207277092442 78.63135345666888,193.79095083200082 78.80486854917399,193.90409062045364 79.63037974683175,194.13036941592145 80.34547224927519,194.15033514196693 81.09211295033674,194.310060658343 81.74936708860696,194.6561308295859 82.38558909444691,195.52795065051032 82.84303797468237,197.0852086396153 83.25842259006822,197.63090275580907 83.80000000000291,197.710759923164 86.57098344693077,197.0120053094397 86.87594936709138,197.19168601609272 87.02843232716623,197.5177715466416 87.03369036026561,197.83720017276937 87.67517039921586,197.65086705981594 93.39065238559124,196.63933212004122 99.43213242454294,195.68767168952036 99.71606621227329,195.75422196925865 100.88860759494855,196.66595172727466 101.78773125608859,196.58609286228602 102.08743914313891,197.8039264543986 102.73943524830975,197.68414088178906 102.83407984420046,197.58431934827604 102.77624148004179,197.25823425926865 103.00233690360619,197.13179252021655 103.00233690360619,196.8589434486239 103.21791626095364,196.3931000695011 103.1758519961113,195.98714723863668 103.03914313534915,195.74756694535245 103.08120740020968,195.4813652496814 103.20740019474397,195.22847230320986 103.79104186953191,194.71602734257976 104.5797468354358,194.72268250619527 104.88471275559641,195.374884167657 105.69444985394148,195.71429181223357 106.24654333008948,195.68767168952036 106.33592989290264,195.85404721988743 106.75131450827757,195.60781123490233 107.13515092504167,195.12864578189692 107.70301850049873,195.0021985638159 110.98403115872134,194.54299277249083 111.86738072055232,194.3300263113888 113.78656280429277,194.54299277249083 116.13690360272813,195.82742717286965 117.50925024343087,197.07855379592002 121.14255111977764,202.22913328403592 121.3528724440257,202.36887016885157" stroke="#4dd2ff" stroke-linecap="round" stroke-linejoin="round" stroke-width="0.5"><title>2022-08-07 17.9km</title></polyline><polyline fill="none" points="187.60000000000218,208.56690087021707 183.40873180874405,202.7573529138026 182.18128898128998,201.67113974113818 181.26819126818373,201.07750092069546 180.03076923077242,200.49016997038416 178.85821205821776,200.23755223294938 178.588773388783,200.20597491957233 176.71767151767926,200.62279373476485 176.11891891892083,200.64805536138738 175.53513513514554,200.84383250391693 173.81871101870638,200.99540134010022 173.025363825378,201.48168136409367 172.5313929313852,201.6269328553426 171.67817047817516,201.36169066056755 171.2790020790053,200.64805536138738 170.57546777547032,200.6417399560196 169.96673596673645,201.1974923554335 169.63243243243414,202.2142494897489 168.97879417879813,202.64368062746144 168.5496881496838,202.35949869943215 167.78627858627806,202.46685652020824 166.7035343035277,201.67113974113818 166.31933471933735,201.5764106488241 161.6141372141501,202.30897728650962 159.83783783785475,202.68157142035852 155.23742203742222,203.40780566839385 154.74345114346215,203.51516107612042 154.18960498960587,203.88143060745642 152.33347193347436,203.65409123694553 150.96632016631702,203.3446553131398 150.79168399169066,203.48990100241645 150.4823284823251,203.40780566839385 149.8636174636231,202.84576450055465 149.78378378378693,202.20161910230672 149.66403326403815,201.98058676844084 149.04532224532522,201.551149525043 148.9056133056365,201.26064561812746 148.66611226612076,201.03329347218823 148.29189189188764,200.78699406332817 148.05239085239373,200.85646325906782 147.19417879417597,200.55332419094339 146.9297297297344,200.27544498080533 146.6453222453274,200.3701767157363 146.62536382537292,200.4333310987713 146.73513513515354,200.35754582886148 146.81995841996468,200.42701566432152 146.58544698545302,200.62279373476485 146.1214137214156,200.02282608020323 145.67234927235768,196.64391672123384 145.59251559252152,194.59118867924917 144.9887733887699,187.34591528616875 144.8041580041645,186.0950915135436 144.40000000000146,185.2359203851629 144.47484407484444,185.14747539934615 144.82910602911215,185.34331764231683 144.9887733887699,185.1790629135503 144.91891891892737,185.02744265016736 144.75426195426917,184.95163233350104 144.43492723493546,185.16011040760714 144.41995841995595,185.2927777874138 144.7692307692414,185.84239576682376 144.88898128898654,186.37937259108367 145.84698544698404,196.9533971097444 146.2311850311853,200.09229641428465 146.5355509355577,200.578585855219 146.7401247401358,200.73647094688567 147.10935550936483,200.83120174530632 147.11434511435073,200.91330161497535 147.36881496881324,200.80594021788784 147.55841995843366,200.83120174530632 148.04740124740783,201.46905077827614 148.48648648649032,201.34906004223376 148.88066528066702,201.61430230884434 148.8457380457403,201.32379879530345 148.56632016632648,201.01434740998593 148.66611226612076,201.00803205421835 148.9355509355555,201.26064561812746 149.07027027027652,201.5322036732323 149.69896049896488,201.95532586359332 149.79376299377327,202.13215191027484 149.85363825364766,202.76366803272322 150.40249480249622,203.33834027291596 150.78170478170432,203.4709559381663 151.05114345114998,203.31308010343855 151.7995841995944,203.50884605897954 154.2045738045781,203.8498557611456 154.7833679833784,203.4709559381663 166.40415800415212,201.51957310108628 166.72848232848628,201.6016717589264 167.7613305613304,202.4352807162213 168.66444906445759,202.38475938537886 168.93388773389597,203.52779110784104 169.69230769230853,203.35097035251965 170.58544698544938,203.29413496735287 171.99251559252298,203.04784749802639 172.05239085238645,202.41002005764676 171.85280665280152,201.94269540603273 171.86777546778467,201.61430230884434 172.85571725571208,201.5132578137309 173.7388773388775,200.9511938137657 174.54220374221404,200.9006708752022 178.21954261955398,200.2564986107318 180.020790020797,200.4649082582364 181.75218295217928,201.3680059684375 182.37588357588174,201.7848143979245 183.3288981289079,202.6499957617416 184.51642411641296,204.12771367502137 187.0461538461568,207.71445815152038 186.89147609147403,207.99860745526894 187.08108108108354,208.31432687384222 187.0311850311955,208.42167098940627 187.1609147609197,208.76264477679433 187.0860706860658,209.2046441251623 186.68690228690684,209.62138253217563 186.60706860707796,209.84237866169133 186.30769230768783,210.0507454820654 185.7538461538461,210.7326667509151 185.71392931393711,210.6947824974668 185.71891891891937,210.92208755662432 185.8486486486545,211.04836766649532 185.62910602910415,210.75792290277604 185.44449064449145,210.8463193266325 185.60914760916057,210.81474919448738" stroke="#ff0000" stroke-linecap="round" stroke-linejoin="round" stroke-width="0.5"><title>2022-08-06 24.1km</title></polyline><polyline fill="none" points="55.05915492961503,251.44804400930298 53.030985915494966,248.35376001326222 46.03380281689169,238.88497152295895 43.07042253520194,236.2038948449408 40.87323943661613,234.8205466744912 38.1690140845094,233.49422672692162 36.4676056338285,233.00933139353583 34.85633802817756,232.83819133111683 31.633802816919342,233.57979625984444 28.7718309859265,233.8792890776458 28.00563380283711,234.19304254468443 24.47887323942996,234.47827215807774 21.4140845070433,236.0327599737211 19.183098591529415,235.33395636338537 18.304225352127105,233.82224289229634 16.67042253521504,233.79371978807467 15.419718309865857,234.99168351559638 14.664788732399757,237.3447868799267 13.188732394351973,238.3430572724028 12.523943661966769,237.8867062670397 12.400000000001455,237.51591961921076 12.670422535207763,237.4446143449677 12.76056338030321,237.0453039170825 13.44788732395682,236.3892906416295 14.54084507044172,235.89014736861282 14.676056338023045,234.72071672214224 14.664788732399757,235.8045797128434 14.461971830984112,236.0042374681434 14.766197183096665,235.59066026924847 14.630985915515339,234.34991892766993 14.743661971835536,234.7492395753361 14.40563380279491,234.6494095553644 14.833802816909156,234.76350099901902 14.811267605626199,235.1200359638824 14.923943661982776,234.47827215807774 14.439436619722983,232.21067538919306 14.04507042253681,232.3818164714612 14.507042253513646,234.60662523212523 13.96619718310103,234.94889933137893 13.594366197161435,234.8348080885553 13.752112676069373,233.80798134116048 13.549295774653729,232.53869555254641 13.290140845048882,232.42460169854894 12.907042253507825,232.59574243317184 13.301408450715826,234.84906950066215 14.383098591555608,234.8775923190915 14.619718309848395,235.90440863780532 13.098591549300181,237.03104280235857 12.523943661966769,237.7155741302704 13.12112676056131,240.33956967176346 14.552112676065008,239.98305237613386 14.574647887304309,239.09888427539408 14.912676056366763,239.05610175965558 15.126760563376592,238.55697112545022 15.712676056333294,238.28601350486133 15.791549295790901,237.84392325893714 15.476056338033231,237.3875700908393 15.183098591543967,235.49083104685997 15.40845070422074,234.9631607280171 16.614084507047664,233.8792890776458 18.51830985918059,233.77945823303162 19.104225352093636,235.27691096602211 20.98591549297271,235.94719243385043 22.146478873240994,235.76179585888895 23.678873239412496,234.84906950066215 22.473239436614676,236.2466785193319 24.45633802816883,235.6477054966963 24.39999999999418,235.14855870888277 24.71549295775185,234.84906950066215 24.523943661959493,234.6921938612213 23.45352112675755,234.8348080885553 22.02253521126113,235.8188409935974 21.15492957746028,236.01849872191087 19.442253521134262,235.47656972168625 18.93521126761334,234.8918537254358 18.46197183096956,233.80798134116048 16.726760563360585,233.76519667606044 15.498591549279809,234.8633309108336 14.709859154907463,237.31626472967037 13.05352112674882,238.3430572724028 12.580281690134143,238.00079420377006 12.523943661966769,237.7155741302704 13.154929577467556,236.97399832418887 14.518309859158762,236.07554371761216 14.811267605626199,235.4337857344508 14.957746478845365,234.5638408914965 14.585915492971253,234.67793242783955 14.901408450699819,234.84906950066215 14.518309859158762,234.3641804054787 13.988732394369435,234.3641804054787 14.585915492971253,234.3927033551954 14.709859154907463,234.6494095553644 14.2816901408587,232.80966796028952 14.428169014099694,232.6100041484824 14.4732394366074,232.73835949956265 14.383098591555608,232.49591037177015 14.360563380287203,233.42291872970236 14.811267605626199,234.84906950066215 14.664788732399757,235.79031843013217 13.188732394351973,236.95973719983158 12.557746478865738,237.80114023340138 13.05352112674882,240.31104833252903 14.4732394366074,240.02583451534156 14.687323943639058,239.81192364558956 14.518309859158762,239.212970898996 14.811267605626199,239.07036260014138 14.957746478845365,239.212970898996 15.08169014082523,238.27175255812472 15.532394366186054,237.31626472967037 15.385915492937784,236.3607682326474 15.070422535209218,235.90440863780532 15.149295774637721,235.63344419271743 15.385915492937784,234.94889933137893 16.692957746476168,233.70815042893082 18.484507042252517,233.70815042893082 19.183098591529415,235.13429733735393 21.436619718326256,235.90440863780532 22.078873239428503,235.67622809882596 23.949295774640632,234.44974923154223 28.839436619717162,233.97911982767982 29.177464788728685,233.73667355634097 30.91267605633766,233.43718033299228 31.994366197155614,233.56553467585036 33.3239436619624,232.9808080691364 35.261971830979746,232.88097637276223 36.29859154929727,233.20899444827955 38.01126760563784,233.23751771091338 40.929577464783506,234.67793242783955 43.543661971838446,236.43207424069988 46.709859154922015,239.46966535035608 52.422535211277136,247.71207683786633 55.60000000000582,251.84729983988655 52.58028169014142,255.2551719557232 50.99154929580254,256.5099255528039 50.95774647887447,256.8093531797931 50.563380281710124,257.1087799557499 50.51830985915876,257.7931808194844 50.70985915492929,257.7789225134911 50.484507042274345,258.09260479928344 50.42816901408514,257.22284707514336 50.64225352113863,257.2941389620246 50.42816901408514,257.70763095464645 50.14647887323372,257.6078226912505 50.33802816903335,257.46523929376417 49.808450704244024,257.9357637731664 49.7183098591413,258.2066708534767 50.18028169016907,258.7199665689477 49.380281690151605,259.6182280534995 49.50422535213147,259.4899054531852 50.00000000001455,259.76080853721214 50.21408450704621,259.73229245593393 50.135211267617706,259.40435696612985 50.2816901408587,259.67526027015265 50.36056338031631,259.54693773930194 49.301408450737654,259.78932461079967 49.752112676047545,259.47564737681387" stroke="#4dd2ff" stroke-linecap="round" stroke-linejoin="round" stroke-width="0.5"><title>2022-07-23 16.3km</title></polyline><polyline fill="none" points="121.59999999999854,255.02613944140467 119.56648648648115,252.25572910600022 119.07999999999447,251.8247688035699 118.2335135135072,250.40874200525286 112.85297297296347,242.9095891035322 109.88540540541726,240.126494913653 108.04648648647708,238.95658476199606 105.51675675674778,237.71276904166007 102.28648648648232,237.02312131092913 100.9340540540652,236.9738605586026 100.03891891891544,237.17090340779396 99.42594594594993,237.03543649482162 99.29945945947838,237.86055001778004 98.9491891891812,238.0083307537716 96.4291891892135,238.5132464564449 93.08216216217261,238.90732505700726 91.74918918919138,239.7816808542484 91.03891891891544,239.96640283436864 89.31675675676524,239.26445731371496 88.6454054054193,238.10685111102794 87.26378378381196,238.0699059895851 85.98918918919662,239.1659382105645 85.36648648648406,241.08704147122626 84.49081081082113,241.5549963753365 84.26702702703187,241.83823106858472 83.2259459459674,241.44416516828642 81.72756756758463,241.62888377164927 79.49945945949003,239.92945846835937 78.40000000000146,239.92945846835937 79.54810810812342,239.90482888267434 81.63027027028875,241.5549963753365 83.40108108110871,241.49342349921062 83.81945945946791,242.8849603249255 83.90702702703129,243.68539221590618 83.7318918919118,243.8085349584726 83.8875675675954,244.09176263370318 87.18594594596652,243.45142054565076 87.39027027026168,243.15587652284012 97.51891891894047,241.59194008097984 96.78918918919226,240.68065762731567 95.54378378377442,239.75705122853833 95.6216216216344,239.56001398276567 96.06918918919109,239.54769914074132 96.11783783786086,238.56250637492485 96.49729729731189,238.24231642796076 99.63999999999942,237.7004539494519 100.41837837840285,237.73739922103414 100.85621621622704,237.46646688107285 102.150270270271,237.2694246722749 105.58486486485344,237.63887846352736 107.97837837837142,238.85806532532297 110.09945945948857,240.18806871529523 112.69729729727987,242.60172889149544 119.40108108107961,251.94790052692406 119.22594594593829,252.2926684654667 118.98270270271314,252.35423403126333 119.18702702703013,252.64974816706672" stroke="#4dd2ff" stroke-linecap="round" stroke-linejoin="round" stroke-width="0.5"><title>2022-07-16 10.3km</title></polyline></svg>