<?xml version="1.0" encoding="utf-8" ?>
<svg baseProfile="full" height="300mm" version="1.1" viewBox="0,0,200,300" width="200mm" xmlns="http://www.w3.org/2000/svg" xmlns:ev="http://www.w3.org/2001/xml-events" xmlns:xlink="http://www.w3.org/1999/xlink"><defs /><rect fill="#222222" height="300" width="200" x="0" y="0" /><text fill="#FFFFFF" style="font-size:12px; font-family:Arial; font-weight:bold;" x="10" y="20">Over 10km Runs</text><text fill="#FFFFFF" style="font-size:4px; font-family:Arial" x="10" y="280">ATHLETE</text><text fill="#FFFFFF" style="font-size:9px; font-family:Arial" x="10" y="290">Allen</text><text fill="#FFFFFF" style="font-size:4px; font-family:Arial" x="120" y="280">STATISTICS</text><text fill="#FFFFFF" style="font-size:3px; font-family:Arial" x="120" y="285">Number: 23</text><text fill="#FFFFFF" style="font-size:3px; font-family:Arial" x="120" y="290">Weekly: 1.6</text><text fill="#FFFFFF" style="font-size:3px; font-family:Arial" x="141" y="285">Total: 358.0 km</text><text fill="#FFFFFF" style="font-size:3px; font-family:Arial" x="141" y="290">Avg: 15.6 km</text><text fill="#FFFFFF" style="font-size:3px; font-family:Arial" x="167" y="285">Min: 10.1 km</text><text fill="#FFFFFF" style="font-size:3px; font-family:Arial" x="167" y="290">Max: 24.1 km</text><polyline fill="none" points="48.0,53.67218658123966 47.25636296569792,52.770316228172305 45.32644780522969,49.91893220112979 44.35706381408818,48.647229994105146 43.13094798966267,47.56597226269514 42.32091479159135,47.03373657640259 41.28070822574227,46.54631473090194 39.784581335294206,46.32781341876034 38.99668019181263,46.456673306554876 38.75322759128903,46.607943097467796 37.620066396164475,46.68077650324267 37.350055330138275,46.88807087939131 36.83216525267562,46.87126326595171 35.78753227591005,46.994518939198315 34.61010697159509,47.554767371435446 33.84433788269962,47.30265651577429 33.64957580227929,47.03933909296393 33.53448911839223,46.69758419404752 32.91036517890825,46.652763670026616 32.34378458133506,47.162594265468215 32.08262633713821,47.7340452674689 32.047215049788065,48.03657495549123 31.529324972343602,48.305488376656285 31.22390261896726,48.305488376656285 31.077831058646552,48.21024840654718 30.37403172260747,48.27747664349954 29.42235337513557,47.56036981745274 29.201032829208998,47.481935504281864 19.272593139052333,49.10661591756798 18.8299520472101,49.2186604910421 18.506824050156865,49.481964044389315 18.267797860560677,49.54358803832292 15.532275912944897,49.117820388579275 15.328661010691576,49.20745604735566 14.99668019181263,49.089809205393976 14.461084470676724,48.56319543183781 14.372556252288632,47.93012957677274 13.783843600132968,47.49314041525213 13.571375876053935,47.145786763576325 13.164146071550931,46.83204547474452 12.876429361858754,46.848853104096634 12.026558465495327,46.49589145360005 12.0,46.3950447146417 12.101807451119384,46.529506978633435 12.686093692351278,46.68077650324267 12.876429361858754,46.820840384716575 13.155293249717943,46.77601999422768 13.327923275533976,46.893673415681405 13.65105127258721,47.19620924879564 13.828107709327014,47.481935504281864 14.35927701953915,47.818081513825746 14.487642936172051,48.546388498911256 15.0188122463951,49.06740024517421 15.288823312428576,49.168240470538876 15.518996680180862,49.033786782096286 16.21394319438332,49.2186604910421 18.27222427148081,49.52117932385954 18.484691995574394,49.47636185857482 18.878642567317,49.179444924840936 29.156768720025866,47.46512813210211 29.48874953891209,47.54916492467237 30.391737366287998,48.28307899164065 31.126521578753454,48.19904368978314 31.308004426406114,48.40072812751532 31.47620804131293,48.43994443180418 31.759498340103164,48.182236608914536 32.03836222796235,48.070189228721574 32.31279970489777,47.15699176560156 32.85724824787758,46.635955961020954 33.516783474722615,46.64716110112204 33.808926595349476,47.17940176054253 34.30025820730589,47.420308439603104 34.676503135371604,47.481935504281864 34.98635189966808,47.397898575134604 35.70343046846392,46.96090379200541 38.917004795279354,46.484686272524414 39.1294725193693,46.378236900920456 39.95721136111024,46.33901864233849 41.2497233493159,46.49028886344604 42.76798229436463,47.26904161895072 43.843600147549296,48.103803474648885 44.59609000368437,48.882525860382884 46.56141645149182,51.621943542093504" stroke="#4dd2ff" stroke-linecap="round" stroke-linejoin="round" stroke-width="0.5"><title>2022-10-22 16.5km</title></polyline><polyline fill="none" points="94.54286078206496,53.96366323760958 94.66666666666788,53.702537473298435 93.29563112980395,51.921037039264775 90.8470258565867,48.42745641362126 89.64565023564865,47.36539789018934 88.7423258183735,46.77341942157 87.60056043816076,46.23366722083665 86.94484779009508,46.20464809274927 86.12864603235721,46.0421406123678 85.4316647560845,46.14080594180632 84.91809960515457,46.303313048072596 84.02394599414401,46.372958762120106 83.61125971215006,46.55868011293569 82.02929563112775,46.686363074779365 81.63036555852523,46.831456887870445 81.03884855432989,47.20289481103464 80.69494331931855,47.266735379904276 79.96586422111068,47.04619482975977 79.75035027386184,46.77341942157 79.60361737357744,46.39037017293958 78.96166093492138,46.34974353668076 78.35638772129823,46.912709208630986 78.05375111450849,47.84129622049659 77.69150426697524,47.99799329480811 77.49433193224468,48.22433250186077 77.10457266589583,47.968975361291086 76.3388103426405,48.067636255047546 75.4125589096875,47.313164824805426 75.13284931855742,47.220305884715344 69.89173353711885,48.05022552559603 68.53903961278411,48.35201050162141 65.08164565022162,48.87432563105176 64.41676219589863,49.0194120374108 64.0957839765615,49.274762919820205 63.82065978855826,49.35601060882982 62.73391924594398,49.234139017560665 60.941026620803314,48.88593256163222 60.73009807667404,49.00200169458549 60.44121767926845,48.903342951609375 59.88179849698645,48.36361757365012 59.84052986879033,47.81808179039581 59.684626162266795,47.556918585331005 59.18940262385149,47.24352063858532 59.047255126730306,46.98815765427571 58.66666666666788,46.63993295085311 59.024328111052455,46.94753158466483 59.20774423638795,47.23771695130199 59.77174882180043,47.632365896908595 59.84970067507311,48.288171549287654 60.432046873003856,48.87432563105176 60.652146223408636,48.98459134468794 60.98688065213719,48.87432563105176 62.91733537127948,49.22833559980063 63.89861164183094,49.3269935947028 64.27002929563241,49.048429259750264 64.54515348362474,48.95557407911474 75.12367851228191,47.18548373030717 75.35753407208904,47.249324325097405 76.3479811488869,48.021207627451076 77.07706024709478,47.957368182404025 77.4301362883707,48.201118279212096 77.58603999490515,48.14308266761873 77.67774805756198,47.99799329480811 78.02165329256604,47.87611784208275 78.37014393070785,46.85467185236121 78.97083174116779,46.32652829865765 79.6311297923894,46.372958762120106 79.85581454591374,46.86627932992269 80.72704114125008,47.23191326322922 81.02509234492027,47.179680035158526 81.77709845880963,46.72118563472395 84.15692268500788,46.32072448719191 86.0598649853564,46.03633676239042 87.39880270029607,46.18723660647811 87.60973124443626,46.22205957197002 89.21003693798411,47.051998542996444 89.83365176411098,47.48727479522131 90.82409884090885,48.39263523996851 92.17220736211311,50.168479028670845 93.23602088906046,51.75855123073052" stroke="#4dd2ff" stroke-linecap="round" stroke-linejoin="round" stroke-width="0.5"><title>2022-10-15 16.0km</title></polyline><polyline fill="none" points="141.33333333333212,53.83550933227161 140.79054798747893,53.20886140444418 140.51439403958284,52.68463953410537 137.57668738702705,48.653347824521916 136.31494952166395,47.50837029444665 135.58647445223323,47.05037103409268 134.19142088788794,46.38746901934428 133.7581448661913,46.2910460854946 133.52008111801842,46.32720471017092 132.71542564916308,46.164490667732025 131.7631706564389,46.29707252497974 130.92518626284073,46.526076620753884 130.37763964201804,46.51402380298896 130.02530529471187,46.68878934109671 128.2064982586162,46.90573870942171 127.48278446414042,47.345660570710606 127.05426971740962,47.460160067959805 126.27818189833124,47.21910815208321 126.1115372746026,47.04434469660191 125.92584755102507,46.56223505445814 125.20213375656022,46.48991815766931 124.6260194859533,47.03831835832898 124.32129788827297,48.02662693089587 123.75946744256726,48.32190998992519 123.46902966979178,48.30383149158661 123.32619142088151,48.17728179763799 122.5167746770785,48.26767447289603 121.47881673499796,47.472212629480055 121.1217211127223,47.40592350072984 110.52312304368388,49.177617177250795 110.08984702199814,49.27403385713842 109.56134550103525,49.62354257082552 106.58078737379037,49.153512974633486 106.2808270510759,49.24390366711668 105.99038927830043,49.12940875897766 105.42379755762886,48.60513883834574 105.33333333333212,47.930207548528415 105.38094608295796,48.44243312445542 105.49521668209127,48.65937394411594 105.73328043026777,48.81002666892891 105.94277652867459,49.08722635013328 106.23321430145006,49.219799500406225 106.57602609883179,49.12338270301552 109.49944892649728,49.599438609715435 109.7470352246055,49.52712664809951 109.99462152271371,49.29813799448311 110.42313626945179,49.177617177250795 114.90825728519121,48.46051156648173 115.48437155579086,48.26164830024936 121.18837896221157,47.39989721140955 121.47881673499796,47.44810750317265 122.50725212713223,48.24356977744901 122.68341930079623,48.29177915529726 123.34523652074131,48.189334164952015 123.6547193933693,48.46051156648173 123.92135079133732,48.20138652899914 124.26892386368854,48.05073174384597 124.61173566104844,47.02626567927655 125.10214698230993,46.55620865088713 125.3973460300731,46.49594457021885 125.94013137591901,46.56826145722516" stroke="#4dd2ff" stroke-linecap="round" stroke-linejoin="round" stroke-width="0.5"><title>2022-10-05 12.1km</title></polyline><polyline fill="none" points="188.0,53.4327776413993 184.9917808219143,49.14335593369833 183.59302615192792,47.912051934774354 182.60224159402787,47.27652603715978 181.58007471979727,46.765828598898224 180.06475716064233,46.62396709474706 179.13225404731566,46.839596391240775 178.19526774594488,46.92471291337279 177.69763387298008,47.07792221746786 176.1688667496892,47.27652603715978 175.79676214197025,47.38433914510824 175.26326276463806,47.719125449035346 174.97633872976076,47.78721725130163 174.1872976338782,47.58294151253358 173.78829389789098,46.953085048968205 173.18754669987175,46.890666325267375 172.6092154420803,47.463780205023795 172.35367372353357,48.05958335395917 172.33574097134988,48.3035764842607 171.76189290163165,48.723468312637124 171.3942714819459,48.50217449503907 170.66799501869173,48.575939230755466 169.7803237858061,47.8893547472544 169.38580323785573,47.74182272875987 164.27048567870952,48.570265024922264 163.58007471979727,48.797232658802386 163.45454545454777,48.75751341161231 159.35691158156624,49.42138731346495 158.9399750934026,49.52352082646394 158.6530510585253,49.76750543320668 158.3661270236662,49.82991987189234 155.57758405977438,49.37599456114185 155.44308841843667,49.49515043114661 155.10236612703375,49.393016849026026 154.5240348692423,48.836951868335746 154.50610211705498,48.428409629497764 154.41643835616924,48.20711425371701 153.83810709838508,47.747497046762874 153.5691158156842,47.33326981275968 153.13872976338098,47.049550166368135 152.92353673723483,47.11196865340389 152.09863013698487,46.79987528841957 152.0,46.606943681967095 152.11207970113173,46.79987528841957 152.70386052303365,46.96443389785054 152.9100871731098,47.10629424932267 153.17907845578156,47.04387575385772 153.560149439596,47.32759543866632 153.85603985056878,47.736148409971065 154.42092154420607,48.15037166142065 154.5823163138266,48.876671040248766 155.11133250311104,49.37599456114185 155.38929016189286,49.47812818474995 155.58206724782212,49.353298166526656 158.38854296389036,49.795875644136686 159.03860523039475,49.444083671194676 163.4814445828124,48.7177941267837 164.26151930261403,48.50217449503907 169.2064757160624,47.730474090414646 169.47098381072283,47.713451127176086 169.7041095890454,47.80424018458143 170.62316313823248,48.524871350633475 171.38530510585042,48.4681291886227 171.6946450809519,48.723468312637124 171.96363636364185,48.49082606263619 172.286425902872,48.35464463408425 172.60024906600302,47.37866477791977 173.16064757161803,46.88499189123468 173.85554171856347,46.92471291337279 174.11556662514704,47.492151975649904 174.21419676214282,47.458105848603736 174.5594022416044,47.662382195940154 174.9315068493197,47.747497046762874 175.24533001245072,47.67373085270083 175.99850560399136,47.236805348526104 177.95317559152681,46.970108321125736 178.1549190535443,46.867968584501796 178.67945205479919,46.839596391240775 179.8181818181838,46.595594736274506 180.35616438355646,46.56722235860434 181.62042341220513,46.74880524375112" stroke="#4dd2ff" stroke-linecap="round" stroke-linejoin="round" stroke-width="0.5"><title>2022-10-02 14.7km</title></polyline><polyline fill="none" points="48.0,93.92080403406726 46.8769332452066,92.33693469946229 46.63423661599518,92.16830650603879 46.01083939193995,91.1264109927215 44.369068076670374,88.85583739116191 43.95981493720683,88.41014090144381 42.93192333114348,87.48861913187284 41.80885657633917,86.6995885887809 41.62326503636723,86.71163496181543 40.80000000000655,86.32012616759675 40.129015201593575,86.20568448454651 39.205816259083804,86.12135884543022 38.120819563788245,86.3622888187092 34.84203569067904,86.8682375145836 34.02828816920737,87.30190324466457 33.718968935896555,87.36213426166432 32.80528750825397,87.12120970431351 32.505485789828526,86.49479974773567 31.867812293454335,86.44059077902784 31.268208856574347,86.9766543434962 30.901784534045873,87.96443994581568 30.51632518175029,88.15717604224483 30.416391275608476,88.30172756651154 29.94051553206009,88.13308407587465 29.136285525437415,88.21138291891111 28.0179775280958,87.36815735886921 27.82762723067208,87.33201876334715 17.49160608063903,89.06061536212655 16.725446133503283,89.25334670895245 16.187706543289096,89.56051056696015 13.137343027101451,89.06061536212655 12.894646397882752,89.19914110206082 12.556774619963107,89.04856962524354 12.061863846662163,88.56673747429522 12.0,88.40411794532702 12.028552544616105,87.94637089396565 12.09517514871186,88.53662279156197 12.747124917394103,89.0847068261537 12.92319894250977,89.13288971505608 13.161136814280326,89.01845526870602 13.851156642438582,89.193118252766 16.18294778585914,89.53039655700559 16.711169861206145,89.16300399410466 17.053800396566658,89.09072969012777 27.851421017847315,87.28985703147191 28.098876404495968,87.33201876334715 29.09345670853145,88.1391070686841 29.288565763396036,88.1872909818776 29.97382683410615,88.08490010394962 30.059484467947186,88.24752079996324 30.283146067420603,88.337865374182 30.511566424320335,88.13308407587465 30.925578321213834,87.95239391205541 31.192068737611407,87.00074693626084 31.80118968935858,86.41649788285213 32.55783212161623,86.44059077902784 32.82432253800289,86.99472378929204 33.6428288169227,87.33201876334715 33.94738929279629,87.28985703147191 34.66120290812614,86.86221434966137 35.21797752808561,86.71163496181543 36.96444150694515,86.50684617623847 37.77818902843501,86.31410292847431 38.201718440188415,86.30205644775197 38.729940515542694,86.12738211069518 39.272438863186835,86.07919596593274 40.84282881692343,86.24182399521305 40.99986781229018,86.17556820322352 42.960475875741395,87.46452680336006 44.32623925975349,88.69924183608964 45.672967614009394,90.53017079053097 47.39563780569006,93.07166436832267" stroke="#4dd2ff" stroke-linecap="round" stroke-linejoin="round" stroke-width="0.5"><title>2022-10-01 15.4km</title></polyline><polyline fill="none" points="94.56886272732663,95.16806737277511 88.02414912083623,86.10130739137821 85.79095917286759,84.05881664366461 84.4135536940521,83.1613412702427 82.17221341784898,82.08848327119631 79.68636329333094,81.66552548433538 77.47762433022581,82.26385532332642 75.78235604857764,82.35669918749772 74.91842125120456,82.70744165310316 71.77239453625953,83.06849838676862 70.63134857744444,83.81123828637647 70.03637461322069,83.99692212977243 68.60191683647281,83.57397493895405 67.96619123082928,82.43922697175731 66.75179231755465,82.33606722745753 65.84710587878362,83.20260473769304 65.19507961662748,85.01817517847667 64.13553694059374,85.65774082327698 63.56501396121166,85.22448726345465 62.212059467208746,85.3895365291828 60.223379367591406,83.82155406734091 58.66666666666424,84.05881664366461 60.16632706965174,83.86281717719248 62.18760848239617,85.31732751944219 63.57316428948252,85.22448726345465 64.13553694059374,85.66805635420315 64.59195532412559,85.25543402803305 65.26028224283073,84.93565018806112 65.3254848690558,84.39923557116708 65.79005358086579,83.21292060107226 66.77624330241088,82.33606722745753 67.99879254393454,82.34638320819067 68.47966191229352,83.3573425415525 69.9385706739049,83.8937644948819 70.58244660780474,83.80092250403686 72.00875405629631,82.96533949463628 77.20866349707649,82.09879928544979 77.9258923854868,82.10911529829173 79.44185344501602,81.74805401740741 82.18851407439797,82.08848327119631 84.94332503206533,83.49144838401116 86.13327296052739,84.32702562274062 88.07305109047593,86.13225379979849 94.49550977281615,95.01335355449555 94.66666666666424,95.43623724690406 94.43845747489831,96.02414482230233 93.29741151611233,97.40622546747181 92.1808165421462,98.33447451566462" stroke="#4dd2ff" stroke-linecap="round" stroke-linejoin="round" stroke-width="0.5"><title>2022-09-29 10.1km</title></polyline><polyline fill="none" points="141.33333333333212,93.49274213761964 140.76316586611938,92.80666444212329 138.2534943095743,89.21049476740518 137.64126530789144,88.57167050646967 136.90752520662863,87.95058240734215 136.0429269981505,87.3708922141268 134.86053052924035,86.77936367864095 134.09874940499867,86.6137342532129 134.0006058245781,86.67288769153674 133.29023324246373,86.507257862384 132.0143666969634,86.83260157486802 131.05629841187329,86.87400878261542 130.57025401360443,87.04555251089187 129.07473278809994,87.22892609614064 128.72422000086226,87.30582446731569 128.0886234800273,87.7198902928285 127.79886624259598,87.7731270427721 126.92959453027652,87.50694264420599 126.5837552468729,86.88583940620083 125.92011770307363,86.85034752585125 125.37331775498023,87.3708922141268 125.036825479252,88.33506655757446 124.45731100437479,88.74912262715225 124.05538967502434,88.49477436364032 123.43848716950379,88.61307606576156 122.29815223506012,87.80861817335972 122.00372149379473,87.73172068730855 111.60517547275231,89.45892390157314 111.07706954000241,89.577222992717 110.55831061490971,89.90254384157015 108.41784586092035,89.61862759893484 107.57194166775662,89.4116041754205 107.43641005668178,89.54173329901096 107.30555194945555,89.53581834725992 107.020468215851,89.41751914398628 106.52975031372989,88.95614919020227 106.38954519883191,88.23450949124526 105.76329568566143,87.71397509438975 105.62309057077073,87.4300446270936 105.33333333333212,87.18751922482625 105.61374356310262,87.40638367151769 105.79133670865485,87.70214469507482 106.35683067204445,88.08071588321036 106.4830152754439,88.37647234114047 106.5204033060727,88.84967850888643 107.0485092388335,89.38202932053173 107.33359297243805,89.51215853222675 107.5953091868978,89.40568920603982 110.54429010341846,89.89071403498019 111.15184560128182,89.52398844134586 121.91959842485812,87.7258054904596 122.27478471591894,87.70805989513246 123.22350599333367,88.53026490792399 123.46185468865224,88.59533083087445 124.06473668268154,88.48885927013544 124.42926998139228,88.725462386039 125.0461724869092,88.31732120975357 125.33125622051739,87.3708922141268 125.96217923753647,86.83260157486802 126.62581678134302,86.85034752585125 126.7052663464383,87.14611231425079 126.93894153793372,87.42412938939378 127.38292440175428,87.64299265057343 127.76615171579033,87.7198902928285 128.05123544939488,87.67256868283948 128.66813795491544,87.28807870136734 129.1915703838422,87.12245120489024 133.06590505862914,86.53091930499068 133.9445237786167,86.61964960065961 134.0566878705322,86.56641144488822 134.72032541434237,86.68471836958634 136.0242329828252,87.34131597758824 136.9589337487596,87.94466724014637 138.0385131334151,88.92657402698023 138.5292310355362,89.50032861991349 140.32385650612923,92.04960068877335 140.77251287377658,92.80666444212329 141.19780172228275,93.31530928366192" stroke="#4dd2ff" stroke-linecap="round" stroke-linejoin="round" stroke-width="0.5"><title>2022-09-24 16.0km</title></polyline><polyline fill="none" points="188.0,93.69161166299091 187.10767590618343,92.55020591108769 184.51705756929732,88.85258035264633 183.1593816631139,87.66247508777815 181.09168443497038,86.50877146545827 179.44136460554,86.30838833701273 178.3043710021302,86.60592659932809 177.2825159914828,86.65450408731704 176.84594882729652,86.81845272074497 175.03251599147916,87.04312209667478 174.31769722814352,87.47424126006808 173.84275053305828,87.57746636019874 173.0127931769821,87.2860066421963 172.72014925372787,86.66664845106789 172.01972281451526,86.63021534989457 171.45842217483732,87.18885298186069 171.10820895523284,88.18466802154217 170.7292110874332,88.36075496539343 170.50852878465594,88.57327276988508 170.38859275053983,88.56112892247256 170.12473347547348,88.3243232406312 169.34275053305464,88.4154024970303 168.30170575693046,87.64425894542364 167.92750533049912,87.55317812271824 163.48507462686757,88.24538773544919 161.79157782516995,88.59756045482209 157.25319829423825,89.32011306528148 156.71588486140172,89.45976474829877 156.5000000000109,89.67834911817772 156.2025586353957,89.76942562449403 154.85447761194882,89.61155956263974 153.23294243070995,89.27761029282556 153.00746268657167,89.39904667868541 152.77238805971137,89.35047216381645 152.10554371002945,88.76150198419055 152.0,88.0571563546946 152.1439232409466,88.75543008639579 152.66204690832092,89.24117931295041 152.95469083155695,89.37475942783203 153.20415778251845,89.23510748009721 156.26492537314698,89.74513857423881 156.88859275053983,89.36261579745405 161.710021321971,88.59148853483202 163.4179104477662,88.20288394434829 168.17697228144607,87.49852954030939 169.28997867803992,88.36075496539343 170.20149253732234,88.3243232406312 170.32142857143845,88.84650846717341 170.15831556504418,88.87686788632345 170.08155650319532,88.66435152063787 169.9664179104584,88.63399195759848 169.5682302772002,88.71899868227774 169.46268656717075,88.83436469375374 169.4243070362536,88.78578956722049 169.36673773987786,88.57934469235624 169.4434968017158,88.5307692895476 170.12953091685267,88.40325860686426 170.36940298507398,89.47190835235597 170.8827292110982,89.44154933603932" stroke="#4dd2ff" stroke-linecap="round" stroke-linejoin="round" stroke-width="0.5"><title>2022-09-22 12.2km</title></polyline><polyline fill="none" points="48.0,133.6932322288303 44.340707964605826,128.69813303710907 43.10619469026642,127.5724724669526 42.3008849557591,127.06283496918331 41.0575221238978,126.52518860371856 39.69469026549632,126.34597159528857 38.65044247787591,126.60359580067961 37.703539823021856,126.66520135115206 37.13716814160216,126.86121840123087 35.570796460178826,127.06283496918331 34.91592920354378,127.44366358254774 34.526548672565696,127.53887018795285 33.756637168138695,127.28685222526838 33.49115044247446,126.70440483548737 32.86283185840148,126.65400034880076 32.33185840707665,127.13004027340867 32.07964601770436,127.70128095017208 32.01769911503652,128.05410213246796 31.623893805310217,128.26691345386644 31.48672566372261,128.44052187869602 31.32743362832116,128.4237210952342 31.08849557522626,128.21091058071033 30.491150442485377,128.31731597484395 30.318584070788347,128.28371430101106 29.353982300886855,127.55567133087243 29.15486725663868,127.49406710683252 24.495575221233594,128.22211116140898 23.473451327434304,128.45172239720705 19.119469026540173,129.1573489487091 18.78318584070439,129.23575115578933 18.455752212394145,129.49895747825212 18.24336283185403,129.54375838759734 16.473451327434304,129.31415321422537 15.469026548667898,129.0845467662366 15.323008849558391,129.20215022809498 14.969026548671536,129.1125476208108 14.415929203536507,128.54692668211283 14.349557522127725,127.91969441792753 13.796460176989058,127.53887018795285 13.588495575222623,127.19164503970751 13.362831858401478,126.99562955573856 13.119469026551087,126.82201506554338 12.849557522127725,126.86681887470695 12.283185840708029,126.60919630905119 12.101769911500014,126.60359580067961 12.0,126.4131780644675 12.0,126.71560582419261 12.053097345131391,126.58119375956085 12.23451327433213,126.5867942709774 12.836283185835782,126.85561792696899 13.070796460167912,126.79401266014611 13.323008849554753,126.92282356793294 13.672566371667926,127.24764929304729 13.792035398219014,127.49966749462328 14.367256637160608,127.86369107461724 14.495575221237232,128.61972981091458 14.991150442478101,129.0845467662366 15.252212389368651,129.17414943416225 15.50442477875913,129.03414518020145 16.154867256645957,129.23015100305565 18.28318584070803,129.52695805227995 18.800884955755464,129.21895069534003 19.23893805309126,129.1069474514079 28.94690265486861,127.48286632896634 29.42920353982481,127.55567133087243 30.33628318583942,128.26131316995452 31.132743362828478,128.19970999697762 31.18141592920074,128.31731597484395 31.43805309734671,128.4237210952342 32.01327433628103,128.0597024444396 32.0309734513321,127.77408556758746 32.28318584070075,127.15804245128675 32.84070796460219,126.64839984647915 33.5088495575219,126.65400034880076 33.76991150442336,127.19724546844736 33.898230088499986,127.19724546844736 34.26106194690874,127.42686239412433 34.62831858408026,127.49966749462328 34.907079646021884,127.43806318716088 35.69026548673355,126.95642634746764 39.74778761062771,126.30676777116969 41.23008849557664,126.48598494948601 42.85840707964235,127.3540571654703 44.37610619469706,128.64773098020305 45.367256637167884,129.99736486176334" stroke="#4dd2ff" stroke-linecap="round" stroke-linejoin="round" stroke-width="0.5"><title>2022-09-17 16.2km</title></polyline><polyline fill="none" points="94.66666666666788,133.66812593150826 91.03660034389031,128.64872586705314 89.84279046917436,127.57426002393913 87.89290100711878,126.52774820821287 87.30926062392973,126.39903102099561 87.2208302628278,126.4549950647015 86.46475067550273,126.33187406849174 85.38147875214781,126.60050122365283 84.51928273151498,126.64527224642734 84.006386637182,126.81316314981814 82.33063129451693,127.02582398160666 81.57013018913494,127.47912368120888 81.21198722672125,127.55187502182162 80.49127978384422,127.28885033873303 80.15524441170419,126.67885048165408 79.58044706461078,126.6284831185767 79.01007123556701,127.1713281307384 78.75804470645016,127.77012827525323 78.7226725620203,128.03874608181286 78.34242200932567,128.24580444942694 78.15229673298745,128.44166951808438 78.03733726357314,128.43607338614675 77.79415377056284,128.2122274873218 77.06460329157926,128.2961698414656 76.14492753622835,127.57985627257221 75.79562760992121,127.48471994273132 65.9754360108127,129.1243919290937 65.51559813314088,129.23631255986402 65.02038811104285,129.54968871366873 62.186195038084406,129.09081568076 62.04912797838915,129.20273640245796 61.70867108818857,129.10760380834108 61.1559813313761,128.57597645723945 61.06312945222089,127.93241840881092 60.48391058708512,127.49591246348064 60.2363055760361,127.10417243325719 59.847211987234914,126.82435585244093 59.573077867862594,126.85793394217035 58.732989437496144,126.51655542525259 58.66666666666788,126.35985614530728 58.78604765414639,126.56692292475054 59.325472856795386,126.69563958905565 59.581920903958235,126.84674124863523 59.88700564972896,126.81316314981814 60.32473593711984,127.16013552206641 60.48391058708512,127.4623348921159 61.02333578973048,127.81489803091972 61.14271677720171,128.06113082022057 61.16482436748629,128.547995880901 61.66003438959524,129.05723940515236 62.004912797841826,129.19154434393567 62.203881110297516,129.05723940515236 63.28273151559915,129.29227276160964 65.02480962909249,129.52170879653931 65.50233357897741,129.20273640245796 65.96659297469523,129.10200776657803 75.87963645295531,127.47352741894429 76.08744780152483,127.52949000758235 77.06018177351143,128.28497753741976 77.78531073446356,128.2066313243049 78.13903217882034,128.44166951808438 78.33800049127603,128.25140060713602 78.70940800786411,128.0835155464847 78.73593711619469,127.79810937822913 79.00564971751737,127.14334660338864 79.55391795626929,126.64527224642734 80.23483173667773,126.6732541110141 80.50896585605005,127.23848371908389 81.29599606975535,127.51270123894574 81.59665929746552,127.45114236226436 82.30410218619727,127.02022765795482 85.08965856055875,126.52215181710926 85.60697617292317,126.50536263924369 86.41611397690212,126.33747048536316 87.87079341684876,126.48297705813093 89.48022598869284,127.30563919830456 90.6475067550964,128.22901597178497 92.01817735199074,129.868658430114 92.7433063129356,130.98783094650935" stroke="#4dd2ff" stroke-linecap="round" stroke-linejoin="round" stroke-width="0.5"><title>2022-09-11 16.4km</title></polyline><polyline fill="none" points="141.33333333333212,133.76237662763015 140.08163960968886,132.14338450780997 138.67808598576812,130.04093330265096 137.64727938983197,128.6664221189967 136.37717840554978,127.5015477488123 135.74212791341415,127.11130778036386 134.40299970172782,126.44148465495527 133.73113468830707,126.33081722145289 132.86139162299514,126.23762337236985 131.7753632451313,126.5113797294216 130.82278750691694,126.56962553803896 130.16472793897265,126.75018704345712 128.72896160892196,126.92492326248612 128.32400187480744,127.06471172660167 127.75337679491349,127.43747874317341 127.46806425496834,127.47824993962422 126.68575567769221,127.23944666787065 126.34982317098547,126.59874841274723 125.69636541820364,126.55797638261356 125.3604329114969,126.80843252869454 125.10733307767077,127.12878128749435 124.8220205377147,128.00827197654144 124.20537730622891,128.42762544375728 123.86024116919361,128.183003084745 123.06412714644102,128.26454402565287 122.22199497207475,127.58308998158464 121.86305338957754,127.41418089929721 116.35007882737773,128.2936657527971 115.54936298946996,128.51499023481665 111.55038561505717,129.11489034100669 111.07179683837239,129.21390217550652 110.58860624653244,129.55752971548281 108.72487110655857,129.3420347995052 107.61123183773088,129.07994493324804 107.41795560099126,129.21390217550652 107.06361583363832,129.0915934056393 106.54361072051688,128.57323333029854 106.52520345986704,128.09563761936442 106.42856534150269,127.8801353794297 105.89015296774232,127.48989884580078 105.5726277216636,127.03558916737893 105.42536963653038,126.91909873329496 105.33333333333212,126.94822137139636 105.39775874556653,126.8725024713167 105.73369125228055,127.16372828047315 105.86254207676757,127.42582982281601 106.38714900506238,127.74617398337432 106.53900890535078,128.07816450500104 106.57122161148072,128.5499361015609 107.08662490945062,129.07994493324804 107.35813200391567,129.20225373622452 107.6664536196622,129.07994493324804 110.53338446461203,129.54588136924576 111.18684221738295,129.15565994751523 121.82163705312632,127.39670750808364 122.04252418082979,127.45495211781599 123.0457198858021,128.21794922119443 123.25740338318064,128.26454402565287 123.85563935403843,128.15388128267296 124.0535174059296,128.39850380728603 124.21918275170901,128.43344976867593 124.77600238611922,128.05486700813708 125.1027312624974,127.04723819342689 125.65494908176333,126.55215180373125 126.34522135583029,126.53467806232948 126.59371937449032,127.12878128749435 126.69956112318323,127.10548327639845 127.05390089053617,127.30934044562309 127.48647151561454,127.42000536144405 127.80859857683754,127.35593623435125 128.56329626314982,126.8725024713167 129.17533767949135,126.8142570728669" stroke="#4dd2ff" stroke-linecap="round" stroke-linejoin="round" stroke-width="0.5"><title>2022-09-10 13.4km</title></polyline><polyline fill="none" points="188.0,133.74182776850284 184.49647390691825,128.8288169705629 183.19476856007168,127.631149273544 182.80702654185734,127.37992695305365 181.10373124760008,126.48603101982735 180.71137325298332,126.39839316672078 180.40210283369743,126.42176327829293 179.55737915117425,126.25817223149716 178.071034748049,126.58535370478785 177.24477497115367,126.64962120264317 177.04628798563863,126.7839983887643 175.28760097448685,126.98848460807494 174.4613411975879,127.46172042730177 174.11514296705354,127.52014424254958 173.35812283625637,127.24555162300385 173.0488524169632,126.63793621013974 172.38415181433083,126.58535370478785 171.80715476343175,127.14623045790722 171.53019617899554,127.78305043211003 171.48865239133374,128.08100884361556 171.1516861136006,128.2329084183657 170.90242338761163,128.4665990276153 170.52852929862274,128.2329084183657 169.73458135657347,128.28548891579703 168.7975381459146,127.56104086614141 168.51134760866626,127.45587804143724 163.07372740095525,128.32054254516333 159.57481728425773,128.9807139126424 158.25003205539542,129.15013679412004 157.75612257981993,129.2786640535378 157.34530067956803,129.57077003747327 157.156045646876,129.61750681140256 154.32645210923874,129.15597895058454 154.00794973714073,129.26113763160902 153.73560712910694,129.15013679412004 153.20938581868177,128.653550603678 153.0801384792867,127.94079337687072 152.50314142838033,127.52014424254958 152.29080651365075,127.17544258901762 152.0,126.94758744174396 152.32311834850043,127.140388029311 152.48467752275246,127.43250849002288 153.0385946916249,127.77136574659016 153.1632260546212,127.99921654339778 153.2278497243169,128.5834438576021 153.79099884599418,129.13845247881545 154.0771893832498,129.2202426194417 154.28952429797937,129.09171518600488 154.9819207590699,129.26113763160902 157.1514296704736,129.5649279371828 157.3314527503535,129.5298753187708 157.7930503910793,129.2202426194417 168.432876009756,127.42666610019296 168.78830619310247,127.48508996289092 169.76689319142315,128.26211981374217 170.6070008975512,128.19785471782598 170.71778433132204,128.39649197774634 170.88395948198013,128.46075677781118 171.0916784203073,128.25627753625304 171.48865239133374,128.0517973256101 171.7840748813869,127.0819636998167 172.25490447493576,126.63793621013974 172.4210796255902,126.57951120024518 173.06270034619592,126.61456621568868 173.34889088345517,127.15791531272771 174.17053468392987,127.47340519668069 174.55827670213694,127.36824215836168 175.32914476214864,126.92421761500736 179.50660341069306,126.2698573268317 180.44364662135922,126.32828275607608 181.1498910116643,126.4626609430743 182.2992691370673,127.03522417926433 183.03782536222934,127.4967747259434 183.91024490319978,128.22706613692935 184.63956917553878,128.9923982706605 187.75535325042438,133.35044313326944" stroke="#4dd2ff" stroke-linecap="round" stroke-linejoin="round" stroke-width="0.5"><title>2022-09-03 16.2km</title></polyline><polyline fill="none" points="46.03361344537916,174.88152299038848 46.313216195565474,174.52190181393598 46.569900687551126,174.39429357432164 47.431627196332556,173.5764317442081 47.76623376623684,173.19939798469204 47.729564553086675,173.1239908347343 48.0,172.8919680025756 44.39266615736051,167.8161541960617 42.97631779983931,166.48764192819726 42.041252864790295,165.91909570665666 40.89533995416423,165.35054193996257 39.3414820473663,165.16489009624274 38.24140565316702,165.41435957541034 35.17035905271405,165.86108036185396 34.44155844156194,166.29619353289308 34.11153552330143,166.39481857065402 33.28189457600456,166.139553300407 32.93812070281638,165.5477961423785 32.30557677616889,165.4723755251689 31.714285714289872,166.02932464534388 31.402597402597166,166.96915986790555 31.063407181045477,167.10839296229096 30.8433919022209,167.32884443634975 30.719633307875483,167.32304309629035 30.453781512598653,167.0967902217053 29.66539343009208,167.17800933979743 28.753246753236454,166.4760390195006 28.37738731857098,166.348406816458 17.697478991598473,168.1352230599514 17.39495798318967,168.42528360160577 17.216195569144475,168.48329547428875 14.851031321628398,168.15842797556616 14.273491214677051,168.00179455140096 14.135981665393047,168.1236205974492 13.78304048892096,168.01339704688144 13.237585943457816,167.50868558822185 13.200916730325844,166.96915986790555 13.045072574484948,166.69069232170295 12.59129106187902,166.4006200363874 12.2933537051249,165.98871401673023 12.0,165.77405719737726 12.380443086320156,166.05833221364082 12.586707410235249,166.4006200363874 13.10466004583941,166.74870654307597 13.191749427041941,166.90534454842782 13.251336898396403,167.4912816387623 13.773873185640696,168.01339704688144 14.135981665393047,168.1236205974492 14.328495034376829,168.00179455140096 17.18411000764172,168.4774942905642 17.665393430102995,168.17003042863507 17.94957983192944,168.08301195392414 28.423223834986857,166.3368038700719 28.721161191740975,166.41222296550768 29.656226126819092,167.15480389320874 30.49961802902544,167.0967902217053 30.696715049663908,167.32884443634975 30.8663101604252,167.32884443634975 31.012987012985832,167.14900252958614 31.43009931245615,166.92274873590213 31.466768525588122,166.60367084231984 31.732620320846763,165.9597064012778 32.18181818181256,165.53619297913974 32.424751718877815,165.4723755251689 32.9427043544747,165.501383470586 33.27272727272066,166.09894277627245 33.864018334603315,166.3368038700719 34.161955691375624,166.3658112301673 35.2574484339093,165.81466802946306 38.7639419404004,165.22290638382765 39.45607333843145,165.1184770096079 40.235294117646845,165.26931935733228 40.97784568372299,165.30412905445337 41.362872421705106,165.57680403673294 42.48586707410141,166.09894277627245 43.34759358289375,166.74870654307597 44.06264323911091,167.41006311454476 44.91520244461208,168.4542895477607 47.47746371276662,172.1204830526258" stroke="#4dd2ff" stroke-linecap="round" stroke-linejoin="round" stroke-width="0.5"><title>2022-09-01 16.9km</title></polyline><polyline fill="none" points="94.66666666666788,173.7603733067699 90.90946343961696,168.57359077254296 89.81226789600623,167.5875063718886 89.09770777307494,167.19656725642562 88.80727365859639,166.9339942175866 87.72390831091252,166.44385359727676 87.06466897170321,166.33882273895142 86.19336662824935,166.2396266932301 85.05929056215973,166.52554408785 84.76885644769209,166.49053389656183 84.02663593288526,166.6013994047098 83.60711998974512,166.76477963359503 82.02125752337088,166.9106543144735 81.16378537585115,167.41829435430554 80.81803047764333,167.49998299748404 80.05275963630629,167.24324674027594 79.71161480344017,166.61890445884274 79.00627481111951,166.57222429864123 78.47150723523737,167.0973731853628 78.19951338199462,167.73921313308165 78.15341272889054,168.04845987680528 77.77077730823657,168.23517381735655 77.55871430400657,168.4510608025994 77.21295940581695,168.19433021199075 76.7242924830316,168.29935654756991 76.25867588678739,168.17099099154075 75.42886413112501,167.52332258137903 75.14304008195177,167.42996416993628 64.844154181068,169.15706204007802 64.41080804200101,169.2504167097286 64.08349340503628,169.5304795052907 63.84838007426879,169.60049491977043 62.25329747726937,169.39628297621312 60.92098860288752,169.09288058735547 60.708925598675705,169.2329127245721 60.36317070047153,169.10454994951579 60.13727750031103,168.81864966714784 59.897554104238225,168.67278144538432 59.80535279804462,168.4627303385605 59.82379305928407,168.08930362043247 59.69932129593508,167.82090116787003 59.164553720056574,167.46497359793284 58.98476117300743,167.15572266658637 58.66666666666788,166.90481933671617 59.01242156484659,167.15572266658637 59.15072352414427,167.44163398244928 59.72698168779607,167.8267360215832 59.88372390830773,168.57359077254296 60.395441157634195,169.11038462939905 60.68126520680744,169.22707806128165 60.92559866820011,169.0578724819352 61.663209117687074,169.25625136986855 63.84838007426879,169.57132184422153 64.54911000127686,169.18040072643998 75.15687027787135,167.43579907658932 75.4426943270555,167.4766434009398 76.44307849917095,168.27601738399972 77.1852990139596,168.18849540807423 77.38353182225183,168.39271307540184 77.56332436932644,168.42188694888682 77.75694711230608,168.22933901896977 78.12575233705138,168.0659643430954 78.42079651683162,167.15572266658637 79.03393520295867,166.56055425068917 79.67473428094672,166.5547192255217 79.99282878730446,167.14405277667902 80.09425022409778,167.12071298734372 80.4861057753842,167.37161506008852 80.92406197976743,167.44163398244928 81.9013958253272,166.92232426760165 82.30247150723153,166.84063452929695 86.138045844531,166.2396266932301 87.06927903700489,166.303812395945 87.66858752721237,166.40300829390253 89.1253681649323,167.1090430879376 89.89985913689452,167.62835055244432 90.67435010884947,168.30519133649796 92.00204891790781,169.90972830637475 94.29325137661363,173.24113973121348" stroke="#4dd2ff" stroke-linecap="round" stroke-linejoin="round" stroke-width="0.5"><title>2022-08-28 16.3km</title></polyline><polyline fill="none" points="141.33333333333212,173.6357521328282 137.81236638712653,168.7694922918854 136.77783259333228,167.8253942777883 136.20506495642985,167.42639401783526 134.58444334813976,166.58342310843364 133.97615523762943,166.45978593517066 133.37230718633145,166.3642478671718 132.3555336293466,166.5778032449125 132.11133037330364,166.71267975937735 131.15671764512808,166.76887817766692 130.7038316066537,166.9037540711288 128.99884887356166,167.12292646303104 128.27067916461237,167.5612677743411 127.99095543496878,167.63432420941172 127.20950501562766,167.38143600158583 126.85430027957045,166.76887817766692 126.25933234665717,166.75201866018688 125.71320506495249,167.25218143359234 125.40240092090608,168.14009600212012 124.88735405362604,168.52785020233205 124.72307186318722,168.52785020233205 124.45222825194287,168.30868522997844 123.72405854300087,168.3705011085949 122.82716658443678,167.66804252069414 122.56076303240843,167.57250723425022 112.60171024502051,169.2246747323079 112.1710245025497,169.32020621562697 111.89130077289883,169.544985308974 111.6115770432516,169.6405160549948 109.56914981089358,169.36516213169307 108.81433974675383,169.17409915213648 108.68557802993382,169.28648924662048 108.51685578030083,169.29210874336422 108.25489228744846,169.14600158094981 107.81532642657112,168.72453573058738 107.6821246505533,168.03332247027356 107.11823713205013,167.60622559575495 106.74971221838132,167.1004472966015 106.43446801512982,166.89251443007015 106.20358493668755,166.943092790807 105.60861700379246,166.69020037072914 105.44433481335363,166.66210111781402 105.33333333333212,166.75763850011208 105.37329386613783,166.66210111781402 105.54645617497226,166.66772096991917 106.20358493668755,166.9318531603967 106.47886860713697,166.88127478597744 106.76747245519073,167.08920770884288 107.08715671764003,167.50507042906247 107.7043249465496,167.96588641386916 107.82420654497037,168.68519869950978 108.32149317545918,169.18533817526622 108.60121690511369,169.28648924662048 108.85430027955954,169.14038206443 111.65597763526239,169.6180382521925 112.10886367374405,169.30334773454524 112.33086663377617,169.2415332453529 122.51636244039037,167.5387888453588 122.8094063476492,167.61746504350594 123.72849860220595,168.35364224174555 123.89722085183894,168.3873599685976 124.41226771913716,168.26372816950607 124.8385134024029,168.51661100112324 125.02055582964022,168.32554411509045 125.40240092090608,168.15133530528692 125.67324453215042,167.25218143359234 126.02400920900982,166.86441531415767 126.27265252426878,166.71267975937735 126.89426081236525,166.74077897803363 127.17842460121392,167.28028028696644 127.97319519816665,167.5837466911289 128.49268212465176,167.3982952633778 128.967768459137,167.08920770884288 129.30965301760807,167.0049107035229 132.37329386613783,166.60590255491843 132.63081729978876,166.47664557139433 133.14142410787463,166.38672743237112 133.90955434962598,166.5159846959541 134.01167571123733,166.4654058146698 134.67768459135914,166.59466283320216 135.27709258346295,166.93747297598384 135.72109850354536,167.0835879138176 136.64907087651227,167.67928195170316 137.8567669791264,168.78073142457288 139.22430521295973,170.62952732728445 140.88044729486137,173.09071444833535 141.00920901168865,173.16376115122694" stroke="#4dd2ff" stroke-linecap="round" stroke-linejoin="round" stroke-width="0.5"><title>2022-08-26 16.9km</title></polyline><polyline fill="none" points="187.48155634158684,172.39444967650343 185.78979282466025,170.00587235933926 184.5982819605997,168.67626876755457 184.0480040424518,168.18701022549794 183.19757453259444,167.64594128039244 181.95603840323383,167.04730378372915 180.46892369883062,166.86310593471353 179.7049014653894,167.01276674784094 179.40020212228774,167.17393934191568 178.44517433046713,167.2084762468403 177.99949469430067,167.38691647527958 176.25315816068905,167.58262425158318 175.49823143001777,168.03159751010753 175.14350682162694,168.10642592549266 174.3840323395707,167.84164786409383 174.0429509853493,167.22574468877428 173.39717028803352,167.202720097961 172.8377968671084,167.75530683530815 172.51035876705646,168.67051281744716 172.1647296614501,168.84319098177002 171.9555330975345,169.04464795360036 171.6144517433022,168.80865540503146 170.86407276403406,168.9122620511007 169.92723597777876,168.1524741156354 169.608893380504,168.0373535467479 159.03991915109145,169.8159315352168 158.64426478019595,170.09796457461562 158.33501768570932,170.1612778569106 155.54724608387914,169.7008154711948 155.35624052551793,169.8389547106126 155.01970692267787,169.7008154711948 154.51490651844506,169.22883634946993 154.39666498231963,168.52661381133657 153.82364830721417,168.077645781319 153.48256695301097,167.61716082444036 153.08236483071596,167.34662358593778 152.84588175845784,167.40994096632494 152.26831733199288,167.15667087892143 152.0,167.15667087892143 152.4866093986784,167.17969549468035 152.83223850429567,167.36964809882193 153.06417382516884,167.31784292732118 153.2870136432466,167.4214532071528 153.65992925719547,167.74955076049446 153.83274381000228,168.06613371819913 154.32390096007293,168.37120233758833 154.47852450733626,168.71080445186453 154.54219302678757,169.24610397068318 155.05154118241262,169.69505965981443 155.32440626578318,169.80441994284047 155.60181910056053,169.66052477513585 156.35674583123182,169.8504662936466 158.4214249621,170.14976635805215 159.15816068720596,169.76988514700497 169.5816068721615,168.0373535467479 169.8681152097015,168.10066989822008 170.82769075290707,168.8489469085107 171.6417382516447,168.80289947283381 171.7827185447277,168.98708891620845 171.94188984335415,169.04464795360036 172.20111167256255,168.80865540503146 172.52854977262177,168.6590009148822 172.8377968671084,167.6919899693894 173.3516927741366,167.18545164667376 174.06568974229594,167.202720097961 174.32491157150434,167.7840871977205 174.45224861042152,167.76681898261086 174.8251642243522,167.98554918903392 175.22081859525497,168.06613371819913 175.4936836786328,167.99706127397803 176.32592218291757,167.52506323443595 180.50075795857265,166.8515935426476 181.19656392117759,166.96671732300456 181.36937847397712,166.9149116604276 182.03335017685822,167.0530599536578 183.4386053562448,167.7840871977205 184.12531581607254,168.256082361062 185.22587165235018,169.22883634946993 186.60838807479013,171.0936989122347 188.0,173.1484064573524" stroke="#4dd2ff" stroke-linecap="round" stroke-linejoin="round" stroke-width="0.5"><title>2022-08-21 16.1km</title></polyline><polyline fill="none" points="48.0,213.64383349535638 47.51041796631398,213.06973402261792 44.48309419838188,208.77794969296883 43.283842794764496,207.68077414900472 42.5292576419306,207.2032380134151 41.244666250786395,206.56651471611258 39.717529631936486,206.40164728834498 39.09769182783202,206.52103411106145 38.72489082969696,206.6802160131956 37.83106674984447,206.72001139442 37.24716157204966,206.9076176835115 35.78739862756993,207.08385313077815 34.63755458515516,207.62960982286677 33.83356207111865,207.41358198060698 33.635932626322756,207.21460798452972 33.424828446677566,206.75980673791491 32.80948222084044,206.72569644581017 32.26600124766628,207.2373479175294 32.00099812850749,207.89111572358524 31.992014971925528,208.12988055817914 31.403618215856113,208.5505581533398 31.012850904564402,208.30042603722904 30.289706799751002,208.39138334278687 29.310542732378963,207.64666460517037 28.97367436057175,207.5727604984604 20.466625077988283,209.0167094840799 19.415595757960546,209.11903469320896 18.485839051780204,209.34642315393648 18.274734872116824,209.56812571741102 18.02769806613651,209.65339562240842 16.04242046163563,209.39190069828328 15.162071116665174,209.15882776273065 14.986899563322368,209.3123149633284 14.699438552717766,209.22135965293273 14.120024953226675,208.6756236525398 14.115533374922961,208.220838233221 14.0301933873925,208.0104983106139 13.455271366205125,207.59550023746124 13.27560823456588,207.2885127217305 12.705177791645838,206.86782248013333 12.768059887712297,206.73706654626585 12.646787273861264,206.6347355313228 12.651278852157702,206.53240426694538 12.81746724891127,206.62905046761807 12.880349344988645,206.54377441974066 12.826450405493233,206.6347355313228 12.646787273861264,206.52103411106145 12.772551466005098,206.7768618735936 12.538989394888631,206.9246727591235 12.0,206.7029562356729 12.494073611982458,206.91330270949766 12.812975670625747,206.87919254209191 13.280099812851404,207.24303289884483 13.477729257647297,207.56707556179754 13.994260761075566,207.88543083002878 14.115533374922961,208.11282597217723 14.196381784156983,208.70404757767392 14.775795383666264,209.2270443656016 14.991391141607892,209.2952608576452 15.220461634438834,209.14177359468886 15.867248908300098,209.32368436326578 17.991765439801384,209.63634165524854 18.166936993155105,209.59086437566293 18.575670617596188,209.27820674502073 29.041048034934647,207.4988562616636 29.27011852776559,207.56707556179754 30.240299438559305,208.32885021639595 30.455895196515485,208.36864403487562 31.044291952588537,208.28337152050153 31.349719276349788,208.52213412428318 31.92014971926983,208.18104427463913 32.24354335620228,207.2032380134151 32.73761696818474,206.73706654626585 32.953212726148195,206.6802160131956 33.43830318153414,206.69727118120863 33.78415470991604,207.2885127217305 34.60162195882003,207.56139062435977 34.87560823456806,207.49317131497446 35.67061759200806,207.00994803330104 39.87473487211901,206.35616650464726 41.35695570804455,206.53808934372137 42.05764192140123,206.96446790863047 42.68646288209493,207.24303289884483 43.31079226450311,207.68645907027894" stroke="#4dd2ff" stroke-linecap="round" stroke-linejoin="round" stroke-width="0.5"><title>2022-08-19 15.6km</title></polyline><polyline fill="none" points="94.66666666666788,213.59908625888056 94.57313703657564,213.45254229847342 94.52414532558032,213.35672481473375 91.92313085075148,209.69858656007636 91.13035589096398,208.71776757894622 89.97236999463712,207.66364325575705 88.07060084952536,206.63767844278482 86.57858056002806,206.42346281836217 85.78580560022965,206.57566877014324 85.51412429378615,206.70532525307135 84.52538248999554,206.77860917346698 84.13344880200384,206.93645102539813 82.43655408469931,207.13375249868477 81.77739288218072,207.51707840200834 81.38545919418902,207.65236905456186 80.65949111303053,207.44943291083837 80.4546166852233,207.2070356648619 80.26755742504974,206.78424639278091 79.6841106849788,206.7504230655104 79.54158934388397,206.81243247784369 79.05612602581823,207.31977874553922 78.78889851128042,208.18225321028513 78.43704895047631,208.3457267480153 78.23217452265817,208.54865852251896 77.90259392140797,208.32317871202395 77.14544929688054,208.41337078276774 76.11662336592417,207.62982064300013 75.8805723947371,207.59599800275828 70.5449296878287,208.43028177427186 69.27559899377229,208.72904149161332 65.93525506206788,209.21945373784183 65.48542207925493,209.32091761923948 64.98659738546121,209.66476560058072 62.20297744236086,209.2025430668873 61.98474163882565,209.30400698951053 61.699698956654174,209.21945373784183 61.11179842468118,208.64448707216434 61.093983257040236,208.17097914953774 60.98263845931433,207.9398602313413 60.44372963833666,207.57908667234005 60.31902346487186,207.32541589156244 60.03843457462426,207.0830179234399 59.735576724811835,206.89699061853025 59.503979545548646,206.93645102539813 58.880448678301036,206.6715018616669 58.671120458580845,206.722236938469 58.70229700193886,206.91953942704276 59.03633139510566,207.24085862112042 59.10759206565126,207.18448701207672 58.94725555693367,206.9589998125266 58.804734215838835,206.9928229703437 58.66666666666788,206.85189296487079 58.73347354530051,206.6658646270953 59.503979545548646,206.93645102539813 59.780114643894194,206.88571620969742 59.97162769598799,207.00973453892948 60.31456967296981,207.31977874553922 60.44372963833666,207.5621753350315 61.044991546037636,207.97368259220093 61.129613592314854,208.66703493415844 61.69524516474121,209.21381684828884 61.989195430745895,209.29837011141717 62.189616066643794,209.1799954949638 62.786424182442715,209.33219136858315 64.96432842591821,209.64785511052105 65.55222895789848,209.2814594725205 75.87166481092208,207.57908667234005 76.16116128500289,207.62982064300013 77.08309621016087,208.3626377670189 77.86696358612608,208.3062676769914 78.21435935502814,208.54865852251896 78.77999092747268,208.17661618028433 79.0739411934519,207.24085862112042 79.67965689305856,206.7391486169763 80.32991051178033,206.76733473259083 80.58823044250312,207.3028673029039 81.17613097447611,207.55653822108798 81.47453503237557,207.59036089338406 81.71949358737038,207.52271552129605 82.42319270897133,207.05483202158211 84.41849148418623,206.8011580461207 86.6364798548384,206.40091374111944 88.09732360096677,206.60949223941134 89.34438533547655,207.24085862112042 90.09262237617804,207.72001421594905 91.33968411068417,208.88123901384824 92.68918305909392,210.7752060798448" stroke="#4dd2ff" stroke-linecap="round" stroke-linejoin="round" stroke-width="0.5"><title>2022-08-14 16.5km</title></polyline><polyline fill="none" points="141.33333333333212,213.69852219035602 138.61201783450088,209.85200082586744 137.64011944205413,208.59956771550424 136.59311981020073,207.63785222267325 134.8834621834976,206.68170589437796 134.26939910827423,206.49159228969074 133.27541211599964,206.38535195286022 133.13404507710948,206.30147780964398 132.10471632511326,206.63697336026962 131.16374197242476,206.68170589437796 130.68662821613907,206.86063554624707 129.05648954882054,207.039564422721 128.37174295414297,207.43656009874758 127.9962367570588,207.54838917762027 127.21871804310649,207.279998879505 127.0375915245204,207.05074745174352 126.93156624534822,206.71525526317055 126.23356649076959,206.66493119977167 125.71227553482822,207.19612655359379 125.42512373705904,208.06279903960603 124.8419847015939,208.47096752250218 124.47973166441807,208.22494864598048 123.73313699021674,208.28086215571966 122.92469423651346,207.63785222267325 122.50501083976633,207.492474676048 117.99451875486193,208.21935729085453 116.00212705035665,208.62193292558732 112.66674847629474,209.1139644826253 112.22939419969771,209.23138023775027 111.9554955618296,209.46061955933328 111.6860146439285,209.5388961093886 109.77314189881145,209.29288359528437 108.93377510533173,209.09719077606496 108.6863827872512,209.21460657887292 108.41690186935011,209.09719077606496 107.90002863336122,208.61634162419068 107.79842107415607,207.95656274536668 107.23295291855175,207.50924903446503 107.03857324007186,207.17935206796756 106.8044340818924,206.98364923210102 106.5084468441928,206.80472011332313 106.29639628584846,206.85504400635182 105.99599132818184,206.67052276540562 105.48795353213063,206.60342392787425 105.33333333333212,206.34621070723006 105.43494089254091,206.46363433282386 105.5144598519255,206.87741016134532 105.46144721233941,206.87741016134532 105.84137112939061,206.84386092430577 106.33615576553711,207.43096863685423 106.7337505624455,207.31913923997854 106.9590542806909,207.48688322171802 107.71890211477512,207.80000349774855 107.8293451139325,207.92301438513095 107.88235775351131,208.50451543754025 108.38156010962484,209.07482582340162 108.71288910705698,209.18665046563547 108.94702826522189,209.0468696155258 109.73338241911188,209.24256267318924 111.69926780381866,209.52212257544306 111.87155888248526,209.48857548709566 112.3089131590823,209.16428556141182 116.58084836585476,208.4653762006601 117.91941751543709,208.15785233437055 122.62428927884685,207.47570031082068 122.84959299709226,207.54279773087546 123.72871927025699,208.25290541031063 124.5150734241397,208.19699186272555 124.61226326338146,208.33677558973795 124.81106066183565,208.42064559881692 125.39861741727873,208.07957316635293 125.70785781486848,207.1290285701798 126.28657913036659,206.62579021916827 126.9006422055827,206.65933963337739 127.21430032314674,207.21849252383254 127.9874013171393,207.52043193629652 128.28780627479864,207.4477430202678 129.05648954882054,206.97805770887135 130.99145089376907,206.69848058217758 131.85732400703273,206.49159228969074 132.25491880395202,206.48600069983877 132.53323516178352,206.36857713786594 133.49629811429259,206.3182526519231 133.84971571153437,206.418901562447 134.95414570294452,206.5027754671355 135.3959176995122,206.7376214938704 136.01439849469534,207.23526699355352 136.71239824927397,207.6546265220204 137.83449912054857,208.72257622102916 138.68270135395505,209.90232100532012" stroke="#4dd2ff" stroke-linecap="round" stroke-linejoin="round" stroke-width="0.5"><title>2022-08-12 16.3km</title></polyline><polyline fill="none" points="188.0,214.05660602423086 184.66114897761145,209.3929532475595 183.52629016553328,208.45572232109043 183.33349561830255,208.21725185780815 182.53602726387544,207.69039358600276 181.47127555988482,207.19680442417302 180.63875365141575,206.98051066966946 180.23563777994423,206.91950453238314 178.9649464459617,207.1912584447382 177.90457643622722,207.29663192557564 177.54527750730995,207.49074025950176 175.95910418695712,207.5905670444081 175.20983446932587,208.08415146058178 174.91187925998383,208.15070171326443 174.12755598831427,207.9066835913618 173.9741966893962,207.74585267062866 173.78140214216182,207.3077238551632 173.17234664070202,207.26335611881223 172.65530671860324,207.77912808536348 172.39240506329224,208.4058100134389 172.3748782862749,208.63873359538775 171.9761441090559,208.87720160453318 171.82716650438306,209.054665268377 171.6913339824896,209.0324823524461 171.44595910418138,208.81619829249757 170.7185978578309,208.8993846045705 169.57059396301338,208.07860560129848 164.7244401168391,208.87165585265393 163.28724440117003,209.19330822071788 159.72492697175403,209.73123843266512 159.31304771179202,209.81442288624748 158.7872444011773,210.1471590111214 156.89873417721537,209.8865159427005 156.00486854916016,209.67578203642915 155.57984420642242,209.18776251161762 155.1241480038916,207.6182966637134 154.64654333009457,207.10806866309213 153.8709834469264,206.84740625295672 152.64849074975427,206.7253934909313 152.3330087633949,206.6144724827136 152.1577409931815,206.45363648714556 152.0,205.9433939757655 152.19279454722346,206.4924590266637 152.33739045764378,206.58674218370652 153.02531645569252,206.77530784659757 153.62122687439478,206.7919459516379 154.24342745861213,206.92505054861613 154.79113924050762,207.2134423579846 155.32132424537485,207.93995887542042 155.70253164556925,209.23767386634427 156.0486854917217,209.6924189631718 156.50000000000364,209.75896660263243 158.80915287244352,209.17667109119793 159.0632911392422,209.32640501340938 159.19036027263792,209.59814295553224 159.1947419668868,209.86433347730417 159.72930866601382,209.70905588317692 164.49221032132482,208.86611010003253 169.52677702045185,208.0730597412621 169.76338851022592,208.1285183077125 170.74050632912622,208.88829310605797 171.48977604673928,208.8217440519038 171.73953261928182,209.83660537866308 172.2828627069248,209.73678406815452 172.36173320349917,209.65359945689488 172.31353456669967,209.38186188272084 172.5019474196706,209.2764937668435 172.5019474196706,209.0491195405193 172.68159688412925,208.6609167245806 172.64654333009457,208.32262269885905 172.5326192794564,208.12297245445734 172.56767283350928,207.9011377080642 172.67283349562058,207.69039358600276 173.15920155794447,207.26335611881223 173.8164556961965,207.26890208849363 174.07059396299883,207.8124034730463 174.74537487828638,208.09524317685646 175.205452775077,208.0730597412621 175.2799415774207,208.21170601656922 175.62609542356222,208.00650936241436 175.94595910419957,207.60720481824683 176.41918208374773,207.50183213650962 179.15335929893627,207.11916064373872 179.88948393379178,206.94168859281854 181.48880233690943,207.11916064373872 183.44741966893707,208.18952264405743 184.5910418695239,209.23212816326486 187.61879259981288,213.52427773669478 187.794060370019,213.64072514070722" stroke="#4dd2ff" stroke-linecap="round" stroke-linejoin="round" stroke-width="0.5"><title>2022-08-07 17.9km</title></polyline><polyline fill="none" points="48.0,258.8057507251833 44.507276507287315,253.9644607615046 43.48440748440771,253.05928311761818 42.72349272348583,252.56458410058258 41.69230769231217,252.07514164199165 40.71517671518086,251.8646268607954 40.4906444906519,251.83831243298118 38.93139293139757,252.18566144564102 38.432432432433416,252.20671280115857 37.94594594595401,252.3698604199344 36.51559251558865,252.4961677834217 35.85446985447925,252.90140113674715 35.442827442821,253.0224440461243 34.731808731812635,252.80140888380993 34.39916839916987,252.20671280115857 33.812889812892536,252.20144996335148 33.305613305612496,252.66457696286307 33.027027027026634,253.51187457479318 32.48232848232874,253.86973385621968 32.12474012473831,253.63291558286437 31.488565488565655,253.72238043350808 30.586278586273693,253.05928311761818 30.26611226611567,252.98034220735644 26.345114345123875,253.59081440543014 24.864864864877745,253.90130951696847 21.031185031184577,254.50650472366397 20.619542619548156,254.59596756343672 20.158004158005497,254.90119217288157 18.61122661122863,254.71174269745825 17.471933471930242,254.45387942761954 17.32640332640949,254.57491750201734 17.068607068602432,254.50650472366397 16.55301455301742,254.0381370838004 16.486486486486683,253.50134925192833 16.386694386696036,253.31715564037222 15.871101871103747,252.9592912708722 15.754677754695877,252.71720468177955 15.55509355510003,252.5277445601605 15.243243243239704,252.3224950527765 15.043659043662046,252.38038604922622 14.328482328481186,252.12777015912434 14.108108108110173,251.89620415067475 13.871101871107385,251.97514726311783 13.85446985447561,252.02777591564882 13.945945945961284,251.9646215240573 14.016632016635413,252.0225130536055 13.821205821212061,252.18566144564102 13.434511434512387,251.68568840017178 13.060291060297459,248.86993060103487 12.993762993766723,247.15932389937734 12.490644490640989,241.12159607181093 12.33679833680435,240.07924292795724 12.0,239.36326698763878 12.062370062369155,239.2895628327933 12.357588357594068,239.45276470193494 12.490644490640989,239.31588576129434 12.432432432440692,239.18953554180916 12.295218295224913,239.12636027792178 12.029106029112882,239.3000920063423 12.016632016628137,239.41064815618302 12.307692307698744,239.86866313902283 12.407484407489392,240.3161438259085 13.205821205821849,249.12783092479003 13.525987525987148,251.74358034523902 13.779625779628986,252.14882154601946 13.950103950111952,252.2803924557411 14.25779625780342,252.35933478776133 14.261954261957726,252.42775134581825 14.474012474012852,252.33828351490956 14.632016632025625,252.35933478776133 15.03950103950774,252.89087564856527 15.405405405406782,252.79088336852874 15.733887733887968,253.01191859070605 15.704781704782363,252.7698323294244 15.471933471941156,252.51195617499252 15.55509355510003,252.50669337852014 15.779625779628986,252.71720468177955 15.891891891897103,252.94350306103297 16.41580041580164,253.2961048863326 16.494802494809846,253.44345992523085 16.54469854470517,253.9697233606057 17.002079002078972,254.44861689410027 17.318087318086327,254.55912994847313 17.54261954262256,254.42756675286728 18.16632016632866,254.59070504915508 20.170478170479328,254.8748798009583 20.652806652815343,254.55912994847313 30.336798336789798,252.9329775842416 30.607068607070687,253.0013931324429 31.467775467775937,253.6960672635214 32.22037422038193,253.6539661544848 32.444906444910885,254.60649258987178 33.07692307692196,254.45914196043668 33.821205821204785,254.41177913946376 34.99376299377036,254.2065395816935 35.04365904365477,253.67501671470745 34.877338877333386,253.2855795050309 34.88981288981813,253.01191859070605 35.71309771309461,252.92771484477998 36.44906444906519,252.45932817814173 37.11850311850867,252.4172257293394 40.182952182960435,251.8804155089456 41.68399168399628,252.05409021520245 43.12681912681364,252.8066716403664 43.646569646567514,253.15401199827465 44.44074844075658,253.87499646812284 45.43035343034353,255.10642806252145 47.53846153846462,258.0953817929367 47.40956340956109,258.3321728793926 47.567567567566584,258.59527239487215 47.52598752599806,258.6847258245107 47.63409563410096,258.96887064733164 47.57172557172089,259.3372034376371 47.239085239089036,259.68448544348576 47.17255717256194,259.8686488847452 46.923076923074404,260.0422879017242 46.46153846153538,260.6105556257644 46.42827442827911,260.5789854145587 46.432432432433416,260.76840629718936 46.54054054054359,260.87363972208186 46.35758835758679,260.6316024189837 46.20374220373924,260.70526610553134 46.34095634096593,260.67895766207585" stroke="#ff0000" stroke-linecap="round" stroke-linejoin="round" stroke-width="0.5"><title>2022-08-06 24.1km</title></polyline><polyline fill="none" points="94.2159624413398,254.5400366744143 92.52582159623853,251.96146667771973 86.69483568074065,244.07080960246822 84.22535211266222,241.8365790374446 82.39436619717162,240.68378889540327 80.14084507041844,239.57852227242984 78.72300469484617,239.17444282794168 77.38028169014433,239.0318261092616 74.69483568076248,239.6498302165346 72.30985915493511,239.89940756469878 71.67136150236183,240.1608687872358 68.73239436618314,240.3985601317254 66.17840375586093,241.69396664476517 64.31924882626481,241.1116303028175 63.58685446009622,239.85186907690513 62.2253521126695,239.82809982339677 61.18309859155124,240.82640292966244 60.55399061032949,242.78732239993406 59.32394366195513,243.61921439367143 58.76995305163291,243.23892188919854 58.66666666666424,242.92993301600654 58.89201877933374,242.87051195414097 58.967136150247825,242.53775326423056 59.539906103294925,241.9910755346864 60.45070422536082,241.57512280717492 60.56338028168102,240.60059726845066 60.55399061032949,241.50381642737193 60.38497652581282,241.6701978901183 60.63849765257328,241.3255502243701 60.52582159626036,240.29159910638555 60.61971830985567,240.62436631277524 60.338028168989695,240.54117462947033 60.69483568074793,240.636250832511 60.67605633801577,240.93336330322927 60.76995305164746,240.3985601317254 60.36619718309521,238.5088961576621 60.03755868544249,238.6515137262104 60.42253521125531,240.50552102676738 59.97183098591631,240.79074944281456 59.661971830959374,240.6956734071282 59.79342723004811,239.8399844509695 59.62441314553871,238.78224629378383 59.40845070419891,238.68716808212048 59.089201877912274,238.82978536096925 59.41784037558682,240.70755791721604 60.31924882628664,240.73132693257503 60.51643192487245,241.58700719816989 59.24882629107742,242.52586900196184 58.76995305163291,243.09631177522533 59.26760563379503,245.28297472646955 60.46009389671235,244.98587698011397 60.47887323941541,244.24907022949628 60.760563380295935,244.21341813304753 60.93896713614231,243.79747593787033 61.42723004693835,243.57167792071414 61.492957746486354,243.20326938244398 61.23004694835981,242.82297507569456 60.98591549295088,241.24235920570936 61.17370892017789,240.8026339400094 62.17840375586093,239.89940756469878 63.765258215978974,239.81621519418695 64.25352112673863,241.06409247167903 65.82159624413907,241.62266036153596 66.78873239436507,241.46816321573715 68.06572769950435,240.70755791721604 67.06103286384314,241.87223209944204 68.71361502346554,241.37308791391115 68.66666666665697,240.95713225739746 68.9295774647835,240.70755791721604 68.76995305162563,240.57682821767958 67.8779342722919,240.6956734071282 66.68544600938185,241.51570082800026 65.96244131454296,241.68208226825664 64.53521126760461,241.23047476806823 64.11267605633475,240.74321143786074 63.718309859134024,239.8399844509695 62.27230046946352,239.80433056337642 61.24882629105559,240.7194424256959 60.591549295750156,242.76355394138955 59.21126760562038,243.61921439367143 58.816901408434205,243.33399516980717 58.76995305163291,243.09631177522533 59.29577464788599,242.47833193682163 60.43192488262139,241.72961976467195 60.67605633801577,241.19482144537324 60.79812206569477,240.469867409578 60.488262910803314,240.56494368986023 60.75117370890803,240.70755791721604 60.43192488262139,240.30348367123224 59.99061032863392,240.30348367123224 60.488262910803314,240.32725279599254 60.591549295750156,240.54117462947033 60.23474178404285,239.0080566335746 60.35680751174368,238.84167012373655 60.394366197164345,238.94863291629736 60.31924882628664,238.7465919764727 60.30046948356903,239.51909894141136 60.67605633801577,240.70755791721604 60.55399061032949,241.4919320251065 59.32394366195513,242.46644766652025 58.7981220657166,243.16761686115933 59.21126760562038,245.2592069437669 60.394366197164345,245.02152876277978 60.57276995302527,244.84326970465918 60.43192488262139,244.34414241582272 60.67605633801577,244.2253021667857 60.79812206569477,244.34414241582272 60.90140845068527,243.55979379843484 61.276995305146556,242.76355394138955 61.15492957743845,241.9673068605407 60.89201877933374,241.58700719816989 60.95774647885992,241.36120349392877 61.15492957743845,240.79074944281456 62.24413145539438,239.75679202410538 63.73708920187346,239.75679202410538 64.31924882626481,240.945247781121 66.19718309860036,241.58700719816989 66.73239436618314,241.39685674901557 68.29107981219568,240.37479102628276 72.36619718308793,239.98259985639743 72.64788732393936,239.78056129694596 74.09389671360987,239.53098361082084 74.99530516428786,239.637945563205 76.1032863849614,239.15067339094094 77.71830985914858,239.06748031063034 78.5821596244059,239.340828706896 80.0093896713588,239.3645980924266 82.44131455398019,240.56494368986023 84.61971830986295,242.02672853391414 87.25821596242895,244.55805445862643 92.01877934272488,251.42673069822195 94.66666666666424,254.87274986656848 92.15023474177724,257.712643296436 90.82629107982939,258.7582712940057 90.7981220657166,259.00779431649426 90.4694835680857,259.25731662978797 90.43192488262866,259.8276506829061 90.59154929577198,259.8157687612402 90.40375586855953,260.0771706660671 90.35680751172913,259.3523725626146 90.53521126761188,259.411782468349 90.35680751172913,259.7563591288708 90.12206572769355,259.6731855760372 90.28169014085142,259.55436607813317 89.84037558686396,259.9464698109732 89.76525821594987,260.17222571122693 90.15023474179907,260.5999721407861 89.48356807512027,261.3485233779138 89.5868544601035,261.2415878776519 90.00000000000728,261.467340447678 90.1784037558682,261.44357704660797 90.11267605634202,261.17029747177 90.23474178404285,261.39605022512114 90.30046948359086,261.28911478274676 89.41784037560865,261.49110384233063 89.79342723003356,261.2297061473437" stroke="#4dd2ff" stroke-linecap="round" stroke-linejoin="round" stroke-width="0.5"><title>2022-07-23 16.3km</title></polyline><polyline fill="none" points="141.33333333333576,257.521782867836 139.63873873873672,255.21310758832988 139.23333333332994,254.8539740029737 138.52792792792025,253.67395167104405 134.04414414413623,247.42465758627804 131.5711711711847,245.10541242804175 130.0387387387309,244.13048730166338 127.93063063062436,243.09397420137975 125.23873873873526,242.51926775910397 124.11171171172464,242.478217132164 123.36576576576044,242.6424195064901 122.85495495495707,242.52953041235014 122.74954954956775,243.2171250148167 122.457657657651,243.34027562813571 120.35765765767428,243.76103871370287 117.56846846847475,244.08943754750362 116.45765765765827,244.81806737853913 115.86576576576044,244.97200236197386 114.43063063063892,244.38704776143277 113.87117117118032,243.42237592585298 112.71981981983845,243.39158832465182 111.65765765766264,244.30494850880496 111.13873873873672,245.90586789268855 110.40900900901761,246.29583031278162 110.22252252252656,246.53185922381817 109.35495495497162,246.20347097356716 108.10630630631931,246.35740314303985 106.24954954957502,244.9412153903031 105.33333333333576,244.9412153903031 106.29009009010042,244.92069073556195 108.02522522523941,246.29583031278162 109.50090090092272,246.2445195826731 109.84954954955901,247.40413360410457 109.92252252252365,248.0711601799194 109.77657657659438,248.17377913205564 109.9063063063295,248.40980219475023 112.65495495497453,247.87618378804473 112.82522522522049,247.62989710236434 121.26576576578373,246.32661673414987 120.65765765765536,245.5672146894285 119.6198198198108,244.79754269044497 119.68468468469655,244.63334498563927 120.0576576576641,244.62308261728322 120.0981981982186,243.80208864577435 120.41441441443021,243.53526368996245 123.03333333333285,243.0837116245384 123.68198198200116,243.1144993508642 124.04684684685344,242.88872240089404 125.12522522523068,242.7245205602303 127.9873873873803,243.0323987196025 129.98198198197497,244.04838777110126 131.74954954957502,245.15672392941633 133.9144144144011,247.16810740958317 139.5009009009009,254.95658377243672 139.3549549549498,255.2438903878865 139.1522522522646,255.2951950260467 139.3225225225251,255.54145680589136" stroke="#4dd2ff" stroke-linecap="round" stroke-linejoin="round" stroke-width="0.5"><title>2022-07-16 10.3km</title></polyline></svg>