<?xml version="1.0" encoding="utf-8" ?>
<svg baseProfile="full" height="300mm" version="1.1" viewBox="0,0,200,300" width="200mm" xmlns="http://www.w3.org/2000/svg" xmlns:ev="http://www.w3.org/2001/xml-events" xmlns:xlink="http://www.w3.org/1999/xlink"><defs /><rect fill="#222222" height="300" width="200" x="0" y="0" /><text fill="#FFFFFF" style="font-size:12px; font-family:Arial; font-weight:bold;" x="10" y="20">Over 10km Runs</text><text fill="#FFFFFF" style="font-size:4px; font-family:Arial" x="10" y="280">ATHLETE</text><text fill="#FFFFFF" style="font-size:9px; font-family:Arial" x="10" y="290">Allen</text><text fill="#FFFFFF" style="font-size:4px; font-family:Arial" x="120" y="280">STATISTICS</text><text fill="#FFFFFF" style="font-size:3px; font-family:Arial" x="120" y="285">Number: 17</text><text fill="#FFFFFF" style="font-size:3px; font-family:Arial" x="120" y="290">Weekly: 1.7</text><text fill="#FFFFFF" style="font-size:3px; font-family:Arial" x="141" y="285">Total: 273.3 km</text><text fill="#FFFFFF" style="font-size:3px; font-family:Arial" x="141" y="290">Avg: 16.1 km</text><text fill="#FFFFFF" style="font-size:3px; font-family:Arial" x="167" y="285">Min: 10.3 km</text><text fill="#FFFFFF" style="font-size:3px; font-family:Arial" x="167" y="290">Max: 24.1 km</text><polyline fill="none" points="52.75,56.42933490482028 52.10856159938703,55.65749749738461 49.28518109827564,51.611806613327644 48.59642347137924,50.89312931977838 47.770965857460396,50.194405208258104 46.79829287292159,49.542253740888555 45.468096845401305,48.87678413846879 44.611093080624414,48.690451034864964 44.50068155265399,48.75699865297793 43.70151239777624,48.57066509517972 42.26616253408429,48.936676771725615 41.188335713359265,48.98325988044235 40.64153576530953,49.17624657475244 38.95907438661379,49.38254185815458 38.56474750097186,49.46905252573197 37.84970141503436,49.93487657942751 37.52372452292184,49.99476792311907 36.54579384656245,49.69531047472992 36.15672465273383,48.99656933197548 35.410132415960106,48.95664096657856 34.79498247435549,49.542253740888555 34.416428664164414,50.62694987726718 33.76447487992118,51.09276295554446 33.31231338440557,50.806621159092174 32.61829806569585,50.93971057398085 31.33542126444445,50.034695445028774 31.004186680522253,49.94818577322076 19.305822406848165,51.8912893892666 18.711703232504078,52.02437586680753 18.128099441775703,52.39036182176642 15.72007659353767,52.07095604879942 14.768434376230289,51.8380546973458 14.615961313767912,51.98444996138278 14.468745943140675,51.977795640665136 14.14802674283419,51.84470903698093 13.595969102949311,51.3256678389771 13.438238348688174,50.51382317764728 12.73370764637366,49.92822198119029 12.575976892119797,49.608800205478474 12.25,49.33595912792589 12.56546150849681,49.582181630456034 12.765253797238984,49.914912781958265 13.401434506049554,50.34080536860711 13.54339218487803,50.673531383781665 13.5854537193336,51.20588832249632 14.1795728936886,51.80478298559683 14.500292093995085,51.95117834875418 14.794722835260472,51.83140035679389 18.11232636634668,52.37705328935044 18.795826301444322,51.96448699651228 30.909548227969935,49.94153117676615 31.309132805414265,49.92156738202175 32.376444242505386,50.84654802141449 32.64458652473695,50.91974718473284 33.32282876802128,50.79996667890009 33.73292872906677,51.06614518428978 34.42694404777649,50.60698636097004 34.74766324808661,49.542253740888555 35.45745164223263,48.936676771725615 36.20404387901726,48.95664096657856 36.29342463974535,49.289376353532134 36.55630923017816,49.60214556306528 37.055789951977204,49.848366731890565 37.48692068026503,49.93487657942751 37.80763988057515,49.881639768191235 38.50165519928487,49.449088539033255 39.09051668182292,49.262757605501974 43.44914319095915,48.59728421811451 44.437589250945166,48.697105800740246 44.56377385435189,48.637212875499245 45.31036609113653,48.7703081657819 46.777262105682894,49.50898047478768 47.828800467355904,50.18775064516376 49.04332727509609,51.29239578035413 49.59538491497733,51.937869697401766 51.61433856939766,54.80580077486957 52.119076982999104,55.65749749738461 52.597526937570365,56.229722944117384" stroke="#4dd2ff" stroke-linecap="round" stroke-linejoin="round" stroke-width="0.5"><title>2022-09-24 16.0km</title></polyline><polyline fill="none" points="97.75,56.6530631208625 96.74613539445636,55.36898164997183 93.83168976546222,51.209152896724845 92.30430437100586,49.87028447374905 89.97814498934531,48.572367898636 88.12153518123523,48.3469368791375 86.84241737740012,48.68166742424364 85.69283049041769,48.736317098231666 85.20169243070995,48.92075931083673 83.16158049041769,49.17351235875685 82.35740938166418,49.658521417575685 81.82309434969284,49.77464965522449 80.88939232410848,49.44675747246947 80.56016791044385,48.74997950745092 79.77218816633103,48.70899226862821 79.14072494669381,49.33745960459055 78.74673507464104,50.45775152423448 78.32036247336146,50.65584933606806 78.0720948827402,50.894931866121624 77.93716684436004,50.88127003777845 77.6403251599113,50.61486364571101 76.7605943496892,50.71732780915772 75.5894189765495,49.8497913136016 75.16844349681196,49.7473253880562 70.1707089552292,50.52606120238124 68.2655250533171,50.92225551167576 63.159848081020755,51.73512719844075 62.55537046907921,51.89223534183475 62.31250000001455,52.138142757950845 61.977878464822425,52.24060382755488 60.46128731344288,52.06300450796698 58.6370602345487,51.68731157942602 58.38339552239631,51.823927513520175 58.11893656717439,51.769281184289866 57.36873667378313,51.106689732212544 57.25,50.31430089903006 57.41191364606857,51.09985884719572 57.99480277186376,51.64632672706648 58.324027185506566,51.79660435631013 58.6046775053328,51.639495915107545 62.048041044792626,52.21328089601593 62.749666844360036,51.78294277213354 68.17377398722238,50.91542460168421 70.09514925374242,50.47824443738864 75.44909381663092,49.68584573284534 76.70122601279945,50.65584933606806 77.72667910448945,50.61486364571101 77.86160714286962,51.20232202556872 77.67810501067652,51.23647637211252 77.59175106609837,50.99739546071578 77.46222014926752,50.96324095229647 77.0142590618525,51.05887351756246 76.89552238806937,51.188660280473414 76.85234541578757,51.13401326312305 76.78757995736669,50.901762778899865 76.87393390193392,50.847115450738784 77.64572228146062,50.70366593272411 77.91557835821004,51.90589689639819 78.49307036248865,51.87174300304105" stroke="#4dd2ff" stroke-linecap="round" stroke-linejoin="round" stroke-width="0.5"><title>2022-09-22 12.2km</title></polyline><polyline fill="none" points="142.75,56.654886257434555 138.63329646017883,51.03539966674725 137.24446902654745,49.769031525320315 136.33849557522626,49.19568934032941 134.93971238937957,48.59083717918111 133.4065265486788,48.3892180447001 132.23174778760585,48.6790452757632 131.16648230089777,48.748351520047436 130.52931415929925,48.96887070138473 128.7671460176971,49.19568934032941 128.03042035398175,49.62412153036712 127.5923672566314,49.731228961445595 126.7262168141533,49.447708753425104 126.42754424778104,48.79245543992511 125.72068584069712,48.73575039240313 125.12334070795987,49.271295307586115 124.83960176991604,49.91394106894222 124.76991150441245,50.310864899027365 124.32688053097445,50.55027763559701 124.17256637168612,50.745587113531656 123.99336283185767,50.72668623213758 123.72455752212409,50.48727440330185 123.0525442477956,50.60698047170081 122.85840707963507,50.56917858863744 121.77323008849635,49.75013024723012 121.54922566371533,49.680825495182944 116.30752212388325,50.49987505658646 115.15763274336132,50.75818769685793 110.2594026548577,51.5520175672973 109.88108407078835,51.64022005026345 109.5127212389416,51.93632716303182 109.27378318583214,51.98672818604609 107.28263274336132,51.72842236600627 106.1526548672482,51.470115112013445 105.98838495575183,51.60241900660549 105.59015486725184,51.50161607341215 104.96792035397448,50.865292517373746 104.89325221239051,50.15965622016665 104.27101769911314,49.731228961445595 104.03705752212045,49.3406006696714 103.78318584070075,49.120083250207244 103.50940265486861,48.92476694873767 103.20575221239415,48.975171234043955 102.56858407079562,48.685345847679855 102.36449115043433,48.6790452757632 102.25,48.46482532252412 102.25,48.8050565522135 102.30973451327372,48.65384297950732 102.51382743362046,48.66014355484731 103.19081858406207,48.96257016784148 103.45464601768617,48.89326424266255 103.73838495574819,49.038176513924554 104.13163716812414,49.403605454677745 104.26603982299275,49.68712593145028 104.91316371680296,50.096652458945755 105.05752212388688,50.947196037279355 105.61504424778468,51.470115112013445 105.90873893803655,51.570918113433436 106.19247787609856,51.41341332772572 106.92422566372261,51.63391987844079 109.31858407079562,51.967827808814036 109.90099557521899,51.621319532259804 110.39380530972267,51.49531588283571 121.31526548672628,49.66822462008713 121.85785398229928,49.75013024723012 122.87831858406571,50.543977316199744 123.77433628317885,50.474673746597546 123.82909292035038,50.60698047170081 124.1178097345146,50.72668623213758 124.76493362831388,50.317165249995014 124.78484513274452,49.99584626353317 125.06858407078835,49.30279775769668 125.69579646017519,48.7294498272895 126.44745575221168,48.73575039240313 126.74115044247446,49.34690115200283 126.88550884956203,49.34690115200283 127.29369469027006,49.60522019338896 127.70685840708757,49.68712593145028 128.0204646017737,49.61782108555417 128.90154867257297,49.07597964090019 133.46626106195254,48.345113742565445 135.13384955751826,48.546733068174944 136.9657079645949,49.5233143111509 138.67311946903283,50.97869735272616 139.78816371681387,52.49703546948149" stroke="#4dd2ff" stroke-linecap="round" stroke-linejoin="round" stroke-width="0.5"><title>2022-09-17 16.2km</title></polyline><polyline fill="none" points="187.75,56.62664167294861 183.6661753868757,50.97981660043661 182.3231392778216,49.77104252693243 180.12951363300817,48.59371673424175 179.47291820191822,48.44890989862324 179.3734340456831,48.51186944778965 178.52284450994193,48.37335832705503 177.30416359616356,48.675563876611704 176.3341930729548,48.72593127723303 175.75718496683112,48.91480854354813 173.871960206332,49.1540519793125 173.01639646277545,49.66401414136271 172.61348563005959,49.74585939955068 171.80268975682338,49.44995663107693 171.4246499631663,48.763706791862205 170.7780029476853,48.70704350839878 170.13633014001243,49.31774414708343 169.8528002947569,49.9913943096617 169.81300663227375,50.29358934203992 169.3852247604882,50.52653000560895 169.17133382460815,50.74687820784675 169.04200442151705,50.740582559421455 168.76842299188138,50.488755923241115 167.9476787030253,50.58319107165153 166.91304347825644,49.777338306645106 166.52008106116045,49.67030993557637 155.47236551216338,51.51494092023131 154.9550478997844,51.64085162985066 154.3979366249223,51.99339980288278 151.20946941784132,51.47716764085999 151.0552689756878,51.60307845276475 150.67225497421168,51.496054284387355 150.05047899780038,50.89797351439847 149.94602063374623,50.17397070991501 149.29439941047167,49.68290152142072 149.01584377304243,49.242193987414794 148.578113485637,48.927400333999685 148.2697126013445,48.96517568494528 147.32461311717998,48.58112485341189 147.25,48.40483816347114 147.3843036109174,48.63778829034709 147.99115696389345,48.782594537689874 148.27966101695347,48.95258390471645 148.62288135594645,48.91480854354813 149.11532792925937,49.305152462329715 149.29439941047167,49.64512675363221 149.9012527634477,50.04176028478469 150.0355563743542,50.31877217274814 150.06042741342026,50.86649536601544 150.61753868829328,51.43939433079868 151.00552689757387,51.59048738692945 151.2293662490847,51.43939433079868 152.44307295504768,51.70380685681084 154.40291083272677,51.961922396109 154.94012527634914,51.60307845276475 155.4624170965326,51.48975873740346 166.6145910095729,49.65771834631232 166.84837877671453,49.720676258533786 167.942704495199,50.57059972959905 168.75847457627242,50.48246023984757 169.1564112011729,50.74687820784675 169.38025055268372,50.53282568303257 169.79808400884576,50.343954989799386 169.82792925571994,50.02287305051141 170.13135593220795,49.28626492881449 170.74815770080386,48.72593127723303 171.51418570376336,48.75741087489587 171.82258658805586,49.39329418397392 172.70799557847204,49.70178889381714 173.04624170964962,49.63253515755059 173.84211495946874,49.147756115202355 176.97586588062768,48.58742079425065 177.55784819453766,48.56853296915142 178.46812822401262,48.37965429603719 180.10464259395303,48.54334919040048 181.91525423727944,49.46884409809354 183.22844509948118,50.50764296825946 184.7704495209873,52.352240733882354 185.58621960204982,53.61130981482347" stroke="#4dd2ff" stroke-linecap="round" stroke-linejoin="round" stroke-width="0.5"><title>2022-09-11 16.4km</title></polyline><polyline fill="none" points="52.75,105.482673706083 51.341844560902246,103.66130757128849 49.762846733992774,101.29604996548369 48.603189313562325,99.74972488387357 47.174325706248055,98.43924121741657 46.45989390259638,98.0002212529107 44.95337466444835,97.2466702368256 44.19752652434909,97.12216937413541 43.219065575871355,97.01732629392063 41.99728365077681,97.32530219560067 40.92563594528838,97.39082873029838 40.185318931347865,97.59396042389199 38.570081810037664,97.79053867030234 38.11450210916155,97.94780069242915 37.47254889428223,98.36716358607009 37.151572286842566,98.41303118208089 36.271475137404195,98.14437750135767 35.89355106736184,97.42359196434336 35.158411095479096,97.37772343044344 34.78048702543674,97.6594865947809 34.49574971238326,98.01987894843114 34.17477310493268,99.00930597361003 33.481049469508434,99.48107862423058 33.09277131534691,99.2058784703404 32.19714303974979,99.2976120288622 31.249744343589555,98.53097622928544 30.845935063276556,98.34095351171345 24.6438386808004,99.33037397189764 23.743033363156428,99.57936401417464 19.244183816939767,100.25425163363616 18.705771443172125,100.36563994744574 18.162182027353992,100.7522209299168 16.06547999488248,100.50978914944426 14.812635817448609,100.21493804990678 14.595200051120628,100.36563994744574 14.196567812847206,100.22804258134784 13.611562060581491,99.6448874965863 13.590853892354062,99.10759232179043 13.482136009195528,98.86515230186342 12.876422088713298,98.4261362015277 12.519206186876545,97.91503781330539 12.353540841100767,97.7839860749591 12.25,97.81674904282045 12.32247858876508,97.73156528023537 12.700402658818348,98.05919431553411 12.845359836363059,98.35405855067074 13.435542630701093,98.71444573129702 13.606385018523724,99.08793506812799 13.642624312920816,99.61867811426055 14.22245302313604,100.21493804990678 14.52789850440604,100.35253545325395 14.87476032212362,100.21493804990678 18.100057522689895,100.73911654040057 18.835197494561726,100.30011744095827 30.799341684771207,98.32129594659636 31.047839703438513,98.38682113254617 32.176434871533274,99.24519287384828 32.41457880607777,99.2976120288622 33.08759427329642,99.17311644300935 33.31020708167489,99.44831678319679 33.4965805956781,99.48763098976269 34.12300268438776,99.06172538415558 34.49057267031458,97.92814296760844 35.11181771698466,97.37117077919902 35.88837402531135,97.35151282012157 36.16793429630707,98.01987894843114 36.28700626358477,97.99366868595098 36.68563850185819,98.22300800132871 37.172280455069995,98.34750603162684 37.534673398946325,98.27542826364515 38.38370829604537,97.73156528023537 39.07225488943004,97.66603920697526" stroke="#4dd2ff" stroke-linecap="round" stroke-linejoin="round" stroke-width="0.5"><title>2022-09-10 13.4km</title></polyline><polyline fill="none" points="97.75,105.45955623956615 93.80853314528213,99.93241909188146 92.34411463008291,98.58504293274018 91.9079048595886,98.30241782218582 89.99169765354964,97.29678489730577 89.55029490960442,97.19819231256406 89.20236568791006,97.22448368808182 88.25205154507057,97.04044376043385 86.57991409155511,97.40852291788542 85.6503718425447,97.48082385297676 85.427073983843,97.6319981873603 83.44855109629498,97.8620451840834 82.5190088472882,98.39443548071358 82.12953583793569,98.46016227286964 81.27788819078705,98.15124557588206 80.92995896908178,97.46767823640766 80.18217079111855,97.40852291788542 79.53304910886072,98.03950926514517 79.22147070136998,98.75593173612288 79.17473394025001,99.09113494906705 78.7956468777993,99.26202197066232 78.51522631106491,99.52492390606858 78.09459546094877,99.26202197066232 77.20140402614561,99.32117503027621 76.14723041415346,98.50617097440772 75.82526605974999,98.38786279661508 69.70794332607329,99.36061036331012 65.77166944478813,100.10330315172541 64.28128606231621,100.29390389338369 63.72563790229469,100.4384970602332 63.26346326451312,100.76711629215788 63.05055135273142,100.81969516283061 59.86725862289313,100.30047631940761 59.50894345428242,100.41877983556333 59.202558020246215,100.29390389338369 58.61055904601744,99.73524442913913 58.465155789195705,98.93339254897728 57.81603410692696,98.46016227286964 57.577157327858004,98.07237291264755 57.25,97.81603587196514 57.61350814206162,98.03293653297806 57.795262213097885,98.36157205127529 58.41841902807937,98.74278646491439 58.558629311446566,98.99911861132205 58.631330939857435,99.65637433980373 59.264873701740726,100.2807590386692 59.5868380561551,100.3727729468701 59.82571483522406,100.2281795842573 60.60466085395092,100.41877983556333 63.045358379280515,100.76054392933293 63.24788434414586,100.7211097336185 63.76718168996376,100.3727729468701 75.7369855109755,98.35499936272026 76.13684446724073,98.42072620825274 77.23775484034923,99.29488479045904 78.18287600974509,99.22258655755286 78.30750737273775,99.44605347496326 78.49445441722492,99.51835137503804 78.72813822284297,99.2883122282874 79.17473394025001,99.0582719913109 79.50708424155891,97.96720916229606 80.03676753430045,97.46767823640766 80.22371457878762,97.40195010027674 80.94553788947087,97.44138699265022 81.26750224388525,98.05265472682004 82.19185151941929,98.40758084626577 82.62806128990269,98.28927242815917 83.49528785741495,97.78974481688783 88.19492883702696,97.05358949268339 89.24910244903003,97.1193181005874 90.04362738812051,97.27049356095813 91.33667777919982,97.91462720167328 92.16755353250846,98.43387156668541 93.14902551609703,99.25544940404507 93.96951532248204,100.11644805449396 97.47477240672379,105.01924852492812" stroke="#4dd2ff" stroke-linecap="round" stroke-linejoin="round" stroke-width="0.5"><title>2022-09-03 16.2km</title></polyline><polyline fill="none" points="140.537815126052,106.74171336418658 140.8523682200139,106.33713954067935 141.14113827349502,106.1935802711123 142.11058059587594,105.2734857122341 142.4870129870178,104.84932273277809 142.44576012222387,104.76448968907789 142.75,104.50346400290073 138.69174942703103,98.7931734705744 137.09835752482104,97.2985971692251 136.04640947288863,96.6589826699892 134.75725744843658,96.01935968246107 133.00916730328754,95.81050135827536 131.77158135981153,96.09115452233891 128.3166539343074,96.5937154070889 127.49675324675627,97.08321772451018 127.12547746371638,97.1941708919876 126.19213139800559,96.90699746296013 125.8053857906707,96.241270660179 125.09377387319182,96.1564224658141 124.4285714285761,96.78299022601641 124.07792207792227,97.84030485139374 123.69633307867844,97.99694208258006 123.44881589000215,98.24494999089438 123.30958747136174,98.23842348332983 123.01050420167667,97.98388899942074 122.1235676088545,98.07526050727756 121.09740259739192,97.28554389693818 120.67456073339417,97.14195766851844 108.6596638655501,99.15212594244804 108.31932773108929,99.47844405180876 108.11822001529072,99.54370740857848 105.45741023683149,99.17823147251329 104.80767761651077,99.00201887032745 104.65297937356809,99.13907317213307 104.25592055003654,99.01507167774616 103.64228418638959,98.44727128675004 103.60103132161748,97.84030485139374 103.42570664629602,97.52702886191764 102.91520244461572,97.20069754093856 102.58002291826779,96.73730326882287 102.25,96.49581434705033 102.67799847211063,96.81562374034911 102.91004583651375,97.20069754093856 103.4927425515707,97.59229486096592 103.59071810542446,97.76851261698175 103.6577540106955,98.42769184361168 104.24560733384351,99.01507167774616 104.65297937356809,99.13907317213307 104.86955691367257,99.00201887032745 108.08212375859512,99.53718107688837 108.62356760886541,99.19128423221628 108.94327731091835,99.09338844816739 120.7261268143593,97.12890435383451 121.06130634070723,97.21375083619932 122.11325439266875,98.04915437985983 123.06207028265271,97.98388899942074 123.28380443087372,98.24494999089438 123.47459893047926,98.24494999089438 123.6396103896077,98.04262784578532 124.10886172651226,97.78809232789354 124.150114591288,97.42912969761164 124.44919786095124,96.70466970143752 124.9545454545405,96.22821710153221 125.22784568373754,96.1564224658141 125.81054239878358,96.18905640441153 126.18181818181256,96.86131062330969 126.84702062642828,97.12890435383451 127.1822001527944,97.16153763393959 128.41462948815024,96.54150153314549 132.35943468294863,95.8757696818102 133.13808250573493,95.75828663580978 134.01470588235316,95.92798427700109 134.85007639418836,95.96714518626322 135.28323147441915,96.2739045413291 136.546600458365,96.86131062330969 137.51604278075683,97.59229486096592 138.3204736439984,98.3363210038624 139.2796027501863,99.51107574123307 142.1621466768629,103.63554343420401" stroke="#4dd2ff" stroke-linecap="round" stroke-linejoin="round" stroke-width="0.5"><title>2022-09-01 16.9km</title></polyline><polyline fill="none" points="187.75,105.48041997011387 183.52314636956726,99.64528961910764 182.2888013830052,98.5359446683724 181.48492124470795,98.09613816348065 181.15818286592184,97.80074349478309 179.93939684977886,97.2493352969359 179.1977525931652,97.13117558131853 178.21753745678143,97.01958002988249 176.94170188243152,97.34123709882988 176.6149635036527,97.30185063363024 175.77996542449546,97.42657433030035 175.30800998846098,97.61037708779622 173.52391471379087,97.77448610377905 172.5592585478298,98.34558114859101 172.1702842873492,98.4374808721659 171.30935459084503,98.1486525828077 170.9255666538702,97.4462675161958 170.13205916250809,97.39375233596729 169.53044563964067,97.98454483353271 169.22445255474304,98.70661477471367 169.17258932000186,99.05451736140458 168.74212447176615,99.26457054452476 168.50355359200694,99.50744340292295 168.11457933154452,99.21862148848959 167.56482904340737,99.33677611601524 167.04101037263536,99.19236486548107 166.1074721475161,98.4637379040505 165.78592009219574,98.35870969117605 154.19967345370242,100.3016947950855 153.71215904724886,100.40671879844376 153.343930080664,100.72178944345069 153.07942758355057,100.80055678473946 151.28495966192713,100.57081834823839 149.786112178248,100.22949066077126 149.54754129851062,100.38702681514405 149.15856703803001,100.24261869320617 148.9044371878481,99.92098087554041 148.63474836726527,99.75687912605645 148.53102189779747,99.52057163087738 148.55176719169685,99.10046657298517 148.41173645792878,98.79851381385379 147.81012293506137,98.39809529767444 147.60785631963154,98.05018799990648 147.25,97.76792175380615 147.6389742604515,98.05018799990648 147.79456396466048,98.37183823025771 148.44285439877058,98.80507802427746 148.6191893968462,99.64528961910764 149.19487130233756,100.24918270807393 149.5164233576579,100.38046281894276 149.79129850172467,100.19010654217709 150.62111025739796,100.41328279110166 153.07942758355057,100.7677370747515 153.867748751436,100.32795081724544 165.8014790626039,98.36527396116071 166.12303111793517,98.41122382605681 167.24846331156368,99.31051955699877 168.08346139070272,99.21205733408351 168.30647330003194,99.44180220982525 168.50873991549452,99.47462281749904 168.72656550134343,99.25800639633962 169.1414713791819,99.07420988598096 169.47339608143375,98.05018799990648 170.16317710332805,97.38062353202258 170.88407606606415,97.37405912870963 171.24193238571388,98.03705937376435 171.3560315021059,98.01080211075896 171.7968689973095,98.29306694259867 172.28956972723972,98.37183823025771 173.3890703034922,97.78761480104731 173.84028044563456,97.69571384545634 178.15530157509784,97.01958002988249 179.20293891663096,97.09178894543948 179.87716096811346,97.20338433064171 181.51603918554974,97.99767347392844 182.38734152900724,98.58189437149849 183.25864387245383,99.34334025355929 184.75230503264538,101.14844434466795 187.3299077986885,104.89628219761653" stroke="#4dd2ff" stroke-linecap="round" stroke-linejoin="round" stroke-width="0.5"><title>2022-08-28 16.3km</title></polyline><polyline fill="none" points="52.75,154.09022114943218 48.78891218551871,148.61567882837699 47.62506166750245,147.55356856251456 46.980698075985856,147.10469327007013 45.157498766660865,146.15635099699284 44.473174642334925,146.01725917707154 43.79384558462698,145.90977885057146 42.64997533301721,146.15002865052884 42.37524666996978,146.30176472930543 41.301307350768184,146.3649879498771 40.791810557486315,146.5167233300199 38.87370498275777,146.76329227091264 38.05451406018983,147.2564262461383 37.739824864340335,147.33861473559227 36.86069314258202,147.05411550178542 36.461087814521306,146.3649879498771 35.79174888999114,146.34602099271433 35.17735569807337,146.9087041127932 34.82770103602161,147.90760800238786 34.24827331032793,148.34383147762492 34.06345584608789,148.34383147762492 33.758756783438,148.09727088372892 32.939565860880975,148.16681374717155 31.930562407495017,147.37654783578546 31.630858411459485,147.26907063853287 20.426924025650806,149.12775907385003 19.942402565371594,149.2352319925849 19.627713369511184,149.4881084726003 19.313024173661688,149.59558056187234 17.015293537257094,149.2858073981588 16.166132215101243,149.070861546159 16.021275283677824,149.19730040245122 15.831462752841617,149.2036223362884 15.536753823380423,149.03925177856945 15.042242229894327,148.56510269691353 14.892390231874742,147.78748777906003 14.258016773561394,147.3070037952275 13.843426245683077,146.73800320867667 13.488776517020597,146.50407873382937 13.22903305377622,146.56097938966195 12.559694129267882,146.2764754170712 12.374876665024203,146.2448637575435 12.25,146.35234331262836 12.294955599405512,146.2448637575435 12.489763196848799,146.2511860911618 13.22903305377622,146.54833480544767 13.538727183033188,146.49143413422644 13.863406512093206,146.72535867245097 14.223051307344576,147.19320423269528 14.917365564870124,147.71162221560735 15.052232363093935,148.52084853695123 15.611679822395672,149.0835054471754 15.926369018256082,149.19730040245122 16.211087814506755,149.03292982248968 19.362974839670642,149.5702930337211 19.872471632963425,149.21626620136522 20.122224963000917,149.14672490102384 31.580907745439617,147.23113745103183 31.910582141106715,147.31964817394692 32.94456092748442,148.1478475219701 33.134373458320624,148.18577996467502 33.71380118403249,148.04669419069614 34.19332757770462,148.331187376265 34.39812530834752,148.11623712947767 34.82770103602161,147.9202522184496 35.132400098671496,146.9087041127932 35.527010360139684,146.47246722843192 35.806734089805104,146.30176472930543 36.506043413915904,146.33337635029238 36.82572767636884,146.94031532284134 37.71984459794112,147.2817150275223 38.3042673902346,147.07308217130412 38.83873951653368,146.72535867245097 39.22335964481317,146.630524541466 42.66995559940915,146.1816403742887 42.959669462263264,146.0362262678209 43.534102121360775,145.93506836142114 44.39824864333059,146.08048278294882 44.51313517514427,146.02358154150716 45.262395165282214,146.16899568735244 45.93672915639763,146.55465709798227 46.43623581649081,146.71903640305027 47.48020473607903,147.38919219566742 48.83886285151675,148.62832285264813 50.377343364583794,150.70821824319864 52.24050320671813,153.4770537543809 52.385360138152464,153.55923129513394" stroke="#4dd2ff" stroke-linecap="round" stroke-linejoin="round" stroke-width="0.5"><title>2022-08-26 16.9km</title></polyline><polyline fill="none" points="97.16675088428383,152.69375588607 95.26351692773824,150.00660640426213 93.92306720567285,148.51080236350026 93.30400454775372,147.96038650368791 92.34727134916466,147.35168394044376 90.95054320363488,146.6782167566962 89.27753916117945,146.4709941765541 88.41801414855945,146.63936259132606 88.07522738756961,146.82068175965833 87.00082112177188,146.85953577770124 86.49943153108688,147.06028103469362 84.53480293077155,147.2804522830338 83.6855103587659,147.78554719887688 83.28644517432622,147.86972916618106 82.43203638201157,147.5718538471083 82.04831985851342,146.8789627748738 81.32181657403271,146.8530601102102 80.69252147549196,147.4747201897262 80.32415361293533,148.50432691963215 79.93532086912819,148.69858985449537 79.69997473472176,148.92522894780268 79.3162582112127,148.65973733066494 78.47208185953423,148.77629480749238 77.41814047499793,147.92153338009302 77.06000505306292,147.79202274009367 65.16990904497652,149.79292297712163 64.7247978777159,150.11021014644575 64.37689489642071,150.18143758902806 61.2406518443604,149.66341740509597 61.02577059120449,149.81882404944554 60.647170288011694,149.66341740509597 60.07926983324796,149.13244089315776 59.94624810510868,148.34244053775546 59.30160434561549,147.83735150398934 58.917887822135526,147.31930592749995 58.46766043455136,147.01495153418 58.20161697826188,147.08618358711828 57.55185699849244,146.80125473878797 57.25,146.80125473878797 57.79743557351321,146.82715743151857 58.18626831732763,147.04085411117921 58.44719555331176,146.98257329324042 58.697890348652436,147.09913485805373 59.11742041434263,147.46824460555945 59.31183678624802,147.82440043297538 59.86438858008114,148.16760262979005 60.038340070750564,148.5496550083517 60.10996715513102,149.15186696702222 60.682983830211015,149.65694211729715 60.98995704900153,149.77997243569916 61.302046488130145,149.61809037203057 62.1513390601358,149.83177458035425 64.47410308235703,150.1684871528123 65.30293077310489,149.74112079038605 77.02930773117987,147.79202274009367 77.35162961091191,147.8632536355035 78.431152097015,148.70506527207908 79.34695553309575,148.65326190694395 79.50555836281274,148.86047503073496 79.68462607376932,148.92522894780268 79.97625063162923,148.65973733066494 80.34461849419677,148.49137602924748 80.69252147549196,147.40348871556853 81.27065437089914,146.83363310250934 82.07390096008021,146.8530601102102 82.36552551793648,147.50709809743785 82.50877968672285,147.4876713554404 82.92830975239485,147.7337428376668 83.37342091965911,147.82440043297538 83.68039413846054,147.74669393322984 84.6166624557809,147.21569613874453 89.31335270339332,146.45804273548129 90.09613441132387,146.5875569883865 90.29055078322199,146.52927561798424 91.0375189489605,146.68469244787048 92.61843102577404,147.50709809743785 93.39098029307934,148.0380926561993 94.62910560889213,149.13244089315776 96.1844365841389,151.23041127626857 97.75,153.54195726452235" stroke="#4dd2ff" stroke-linecap="round" stroke-linejoin="round" stroke-width="0.5"><title>2022-08-21 16.1km</title></polyline><polyline fill="none" points="142.75,154.09931268227592 142.19922021210368,153.45345077544698 138.7934809731778,148.62519340459403 137.44432314411097,147.39087091763213 136.59541484717192,146.85364276509426 135.15024953213288,146.13732905562574 133.43222083592627,145.951853199389 132.7349033063074,146.0861633749446 132.31550218341,146.2652430148446 131.30995009357503,146.31001281872523 130.65305676855496,146.5210698939518 129.01082345601753,146.71933477212588 127.71724890830228,147.33331105072648 126.81275733000803,147.09027972818512 126.59042420461265,146.86643398259548 126.3529320025118,146.35478258015792 125.66066749844322,146.3164085015378 125.0492514036232,146.8920164072224 124.75112289456956,147.6275051890334 124.74101684341804,147.8961156279547 124.07907049283676,148.36937792250683 123.63945726763268,148.08797929188222 122.82592014972033,148.19030626063613 121.72436057392406,147.3524976808185 121.34538365564367,147.26935556076933 111.77495321273818,148.89379816959263 110.59254522770789,149.00891402986235 109.54656893325227,149.26472604818264 109.30907673113325,149.51414143208967 109.03116032440448,149.6100700752104 106.79772301933917,149.31588828557142 105.80733000624969,149.05368123307198 105.61026200873675,149.2263543337467 105.28686837180794,149.12402960954932 104.63502807237819,148.5100766091091 104.62997504678788,147.9984430123768 104.53396756081565,147.76181059944065 103.88718028697986,147.29493776714298 103.68505926388752,146.949576811945 103.04332501559838,146.47630029014908 103.1140673736736,146.32919986454726 102.97763568309529,146.2140774727377 102.98268870867832,146.09895480031264 103.16965065502518,146.2076817760717 103.24039301311132,146.11174622221006 103.17975670618034,146.2140774727377 102.97763568309529,146.0861633749446 103.11912039925664,146.3739696077937 102.85636306925153,146.54025685401575 102.25,146.2908257651361 102.80583281347936,146.5274655481844 103.1645976294567,146.48909160985568 103.69011228945601,146.89841201120362 103.91244541485503,147.26296000702496 104.49354335620956,147.6211096837833 104.62997504678788,147.87692921869893 104.72092950717706,148.54205352488134 105.372769806625,149.13042491130182 105.61531503430524,149.20716846485084 105.87301933874187,149.0344952940286 106.60065502183716,149.23914490867537 108.99073611977656,149.59088436215825 109.18780411729676,149.53972242262535 109.64762944479662,149.1879825881515 121.42117903930193,147.1862132943752 121.67888334373492,147.26296000702496 122.77033686837967,148.1199564934468 123.01288209608174,148.16472453923416 123.67482844665938,148.0687929605665 124.01843418589488,148.33740088982086 124.66016843418038,147.9536748089704 125.0239862757262,146.85364276509426 125.57981908920556,146.32919986454726 125.82236431691854,146.2652430148446 126.36809107922454,146.28443007886017 126.75717404865645,146.949576811945 127.67682470367072,147.25656445240747 127.9850592638868,147.1798177293458 128.8794447910077,146.6361915374655 133.60907673113616,145.90068731772772 135.27657517154876,146.105350511687 136.06484716157865,146.58502639720973 136.77227074235998,146.89841201120362 137.47464129756918,147.39726645406336" stroke="#4dd2ff" stroke-linecap="round" stroke-linejoin="round" stroke-width="0.5"><title>2022-08-19 15.6km</title></polyline><polyline fill="none" points="187.75,154.04897204124063 187.6447791661485,153.88411008578623 187.58966349127877,153.77631541658047 184.66352220709814,149.6609098800909 183.77165037733357,148.55748852631586 182.46891624396812,147.3715986627285 180.32942595571512,146.21738824813656 178.65090313003384,145.97639567065926 177.75903130025836,146.1476273664157 177.45338983050897,146.29349090970936 176.34105530124725,146.37593532015308 175.9001299022566,146.55350740357244 173.99112334528763,146.77547156102082 173.24956699245013,147.20671320226393 172.80864159345947,147.35891518638527 171.99192750216025,147.13061202469544 171.7614437708762,146.85791512297146 171.5510021031805,146.38227719188217 170.89462452060252,146.34422594870193 170.73428801187038,146.41398653757642 170.18814177904642,146.9847510887339 169.8875108251923,147.95503486157395 169.49168006928448,148.13894259151857 169.26119633798953,148.36724083783702 168.8904181615835,148.11357605102603 168.03863045899197,148.2150421306178 166.88120128666196,147.33354822337787 166.61564394407833,147.29549775310443 160.6130458988082,148.23406699605766 159.185048867992,148.5701716780677 155.42716194482637,149.12188545507524 154.92109983916453,149.23603232164533 154.35992205864386,149.62286130065695 151.22834962265915,149.10286095025003 150.9828343436784,149.2170078632007 150.66216132623595,149.12188545507524 150.00077322776633,148.47504795618806 149.98073116417072,147.94235154323542 149.8554682667309,147.68234276026124 149.24919584312738,147.2764725063862 149.10890139798357,146.99109287801184 148.79323889645093,146.71839516387263 148.45252381541286,146.50911444584926 148.19197698873904,146.55350740357244 147.49050476308548,146.2554395943771 147.25501051590254,146.31251655577944 147.29008412718395,146.5344818554222 147.6658728194925,146.8959659487664 147.74604107385676,146.83254788858903 147.56566250155083,146.5788747890947 147.4053259928187,146.6169258416412 147.25,146.45837958548145 147.32515773846535,146.24909770548402 148.19197698873904,146.55350740357244 148.50262897438006,146.49643073591142 148.71808115798922,146.63595135629657 149.10389088209195,146.9847510887339 149.24919584312738,147.2574472519118 149.9256154892937,147.72039291622787 150.02081529135467,148.50041430093188 150.65715081033704,149.1155439543254 150.98784485959186,149.21066637534386 151.21331807497336,149.07749493183655 151.88472720524805,149.2487152896574 154.33486947915662,149.60383699933664 154.99625757763715,149.1916419065892 166.60562291228416,147.2764725063862 166.93130644562916,147.33354822337787 167.96848323642917,148.15796748789944 168.85033403438865,148.09455113661534 169.24115427440483,148.36724083783702 169.87748979340904,147.94869320282305 170.20818384263112,146.8959659487664 170.88961400468907,146.33154219410062 171.62114932575423,146.3632515741665 171.9117592478142,146.96572571577053 172.57314734628744,147.25110549872625 172.90885191142297,147.28915600505934 173.18443028578986,147.21305496146306 173.97609179759456,146.6866860242808 176.22080291970633,146.40130280188896 178.7160398366941,145.951027958763 180.3594890510867,146.18567876933957 181.76243350241202,146.8959659487664 182.60420017320212,147.43501599294177 184.0071446245165,148.7413938905811 185.5253309414802,150.8721068398263" stroke="#4dd2ff" stroke-linecap="round" stroke-linejoin="round" stroke-width="0.5"><title>2022-08-14 16.5km</title></polyline><polyline fill="none" points="52.75,202.91083746415097 49.68852006381712,198.5835009291004 48.59513437231362,197.17451367994363 47.417259786481736,196.09258375050558 45.49389495643845,195.01691913117247 44.8030739968126,194.80304132590027 43.68483863050278,194.6835209469682 43.52580071174816,194.58916253584903 42.367805865756964,194.96659503030241 41.30920971898013,195.01691913117247 40.772456743161456,195.21821498952704 38.93855074242674,195.41950997555978 38.168210823412664,195.86613011108784 37.74576635169433,195.99193782482325 36.87105779850026,195.68999873944267 36.66729046508772,195.43209088321237 36.54801202602175,195.05466217106368 35.7627623021217,194.99804759973995 35.17630997668675,195.5956423727912 34.85326420419733,196.57064891955815 34.19723278929814,197.02983846281495 33.78969812247669,196.75306722672758 32.949779113998375,196.81596992518462 32.04028101608128,196.09258375050558 31.56813719474303,195.92903401055446 26.493833599222853,196.74677695220817 24.252392931655777,197.19967454128346 20.500092035836133,197.75321004295256 20.00806847466447,197.88530276747042 19.69993250706102,198.1431970042504 19.396766474423202,198.2312581230617 17.244784636164695,197.954494044694 16.300496993502748,197.73433962307172 16.022180635660334,197.86643240123158 15.719014603022515,197.73433962307172 15.137532212535007,197.19338432721634 15.023223708431033,196.45113308853615 14.387072033372533,195.9479051637718 14.16839489508493,195.57677107646305 13.904988342132128,195.3566053861141 13.572002699722361,195.15531012749125 13.333445821583155,195.21192450714807 12.995490244207758,195.00433811108087 12.42394772364787,194.92885191885944 12.25,194.63948704563154 12.364308504114888,194.77158862442593 12.453767333419819,195.23708643151258 12.394128113886836,195.23708643151258 12.821542520567164,195.19934353984354 13.378175236230163,195.85983971646056 13.825469382754818,195.73403164497722 14.078936065779999,195.92274362443277 14.933764879122464,196.27500393496666 15.058013253179524,196.41339118327232 15.117652472701593,197.06757986723096 15.679255123330222,197.70917905132592 16.052000245443196,197.83498177383808 16.315406798377808,197.67772831746333 17.200055221506773,197.89788300733562 19.411676279298263,198.21238789737254 19.605503742797737,198.17464742298034 20.0975273039694,197.8098212565892 24.903454411589337,197.0235482257449 26.409344704869,196.67758387616414 31.702325438705884,195.9101628496719 31.955792121731065,195.98564744723262 32.94480917904002,196.784518586599 33.82945760215807,196.72161584556306 33.93879617130733,196.87887253845474 34.16244324456784,196.9732262986654 34.82344459444357,196.58951981214705 35.17134004173204,195.52015714145455 35.8224015216656,194.95401399656475 36.513222481284174,194.99175708755138 36.866087863545545,195.6208040893107 37.7358264817849,195.9604859283354 38.07378205914938,195.87871089779946 38.93855074242674,195.35031492248163 41.11538225549157,195.03579065494705 42.08948950791455,194.80304132590027 42.53678365445012,194.79675078731452 42.84988955700828,194.66464928009736 43.93333537858052,194.6080342334135 44.330930175481626,194.7212642577506 45.57341391581576,194.8156224005288 46.070407411953056,195.0798241806042 46.76619830653726,195.63967536774726 47.551448030437314,196.1114548372716 48.813811510623054,197.31289824865598 49.76803902320535,198.64011113098604" stroke="#4dd2ff" stroke-linecap="round" stroke-linejoin="round" stroke-width="0.5"><title>2022-08-12 16.3km</title></polyline><polyline fill="none" points="97.75,203.31368177726108 93.99379259981288,198.06707240350443 92.71707643622358,197.01268761122628 92.50018257058764,196.7444083400369 91.60303067186032,196.15169278425674 90.40518500487087,195.59640497719738 89.46859785784181,195.35307450338223 89.01509250243907,195.2844425989315 87.58556475170553,195.59016575033093 86.39264849075698,195.70871091627487 85.98843719572324,195.92708279193903 84.20399221032858,196.03938792496047 83.36106377798933,196.59467039315496 83.0258641674809,196.6695394274211 82.14350048685446,196.39501904028293 81.97097127556844,196.21408425446134 81.7540774099325,195.7211893370586 81.06888997078931,195.6712756336674 80.48722005842865,196.251519096033 80.19145569620378,196.95653626512285 80.171738072062,197.21857529480985 79.72316212268561,197.48685180510074 79.55556231743321,197.68649842692685 79.40275073029989,197.66154264650322 79.12670399220224,197.41822307906114 78.30842259006022,197.51180768014456 77.01691820838823,196.58843130146124 71.56499513144445,197.48061283423885 69.94814995131674,197.8424717483067 65.94054284322556,198.44764323674826 65.47717867576648,198.5412257470307 64.88564995132401,198.91555388751294 62.76107594936548,198.6223304355408 61.75547711780746,198.38525479098462 61.27732473222568,197.83623282557164 60.76466650437942,196.07058374667758 60.22736124635412,195.49657724598 59.35485637779129,195.20333203457994 57.97955209347492,195.06606767730045 57.624634858817444,194.94128154305145 57.42745861732692,194.76034104803693 57.25,194.18631822273892 57.466893865625025,194.80401640499986 57.62956426485107,194.9100849566712 58.40348101265408,195.12222132742681 59.07388023369276,195.1409391955931 59.77385589094047,195.2906818671945 60.39003164556925,195.61512265273268 60.986489776045346,196.43245373485115 61.41534810126541,197.89238309963912 61.804771178187366,198.40397133356964 62.31250000000364,198.4788374279633 64.91029698149941,197.82375497759858 65.19620253164976,197.99220564008647 65.33915530671948,198.29791082497468 65.34408471274946,198.59737516197129 65.94547224926646,198.42268786857676 71.30373661149133,197.4743738625366 76.96762414800833,196.58219220892352 77.23381207400598,196.6445830961784 78.33306962026472,197.49932974431795 79.17599805258214,197.42446205839224 79.45697419669159,198.5661810509955 80.06822054529039,198.45388207667565 80.1569498539393,198.36029938900538 80.10272638753668,198.05459461806095 80.31469084713171,197.9360554877021 80.31469084713171,197.68025948308423 80.51679649464495,197.24353131515454 80.47736124635412,196.8629505362187 80.34919668938892,196.63834401126587 80.38863193769794,196.3887799215736 80.50693768257042,196.15169278425674 81.0541017526848,195.6712756336674 81.79351265822334,195.67751484955807 82.07941820837004,196.28895390717662 82.83854673807218,196.6071485739667 83.35613437195934,196.58219220892352 83.43993427459645,196.7381692686431 83.8293573515075,196.50732303271798 84.18920399222407,196.0581054205286 84.72157984421574,195.93956115357287 87.79752921130057,195.50905572420743 88.62566942551712,195.30939966692313 90.42490262902356,195.50905572420743 92.62834712755648,196.71321297456598 93.91492210321667,197.88614418367433 97.32114167479085,202.71481245378163 97.51831791627046,202.8458157832938" stroke="#4dd2ff" stroke-linecap="round" stroke-linejoin="round" stroke-width="0.5"><title>2022-08-07 17.9km</title></polyline><polyline fill="none" points="142.75,208.65646956582714 138.82068607069596,203.21001835669085 137.66995841995958,202.1916935073168 136.8139293139211,201.63515711315267 135.65384615384755,201.0845343472356 134.55457380457665,200.84770521839164 134.30197505198157,200.81810148710065 132.54781704782,201.2088691263416 131.98648648648668,201.23255190130294 131.43918918919735,201.41609297242394 129.83004158003314,201.55818875634577 129.08627858628824,202.01407627883964 128.6231808731718,202.1502495518871 127.8232848232874,201.9015849942807 127.44906444906519,201.23255190130294 126.78950103950046,201.22663120876678 126.21881496881542,201.74764908321595 125.90540540540314,202.70085889663824 125.29261954261892,203.10345058824532 124.89033264032696,202.83703003071787 124.17463617463363,202.93767798769477 123.15956340955745,202.1916935073168 122.79937629937922,202.10288498327282 118.38825363826254,202.789666206103 116.72297297298428,203.13897320658361 112.41008316008083,203.8198178141174 111.9469854469935,203.9204635088645 111.42775467775573,204.26384119448994 109.68762993763085,204.0507105346369 108.40592515591925,203.76061435606607 108.2422037422075,203.8967821897677 107.95218295217637,203.8198178141174 107.37214137214323,203.29290421926999 107.29729729729661,202.68901790841483 107.18503118503213,202.48180009541466 106.60498960499172,202.07920267972804 106.47401247403104,201.80685526699745 106.2494802494839,201.59371263017965 105.89864864864285,201.36280693436856 105.67411642411753,201.42793430537495 104.86954261954088,201.14374142900851 104.62162162162349,200.88322966950727 104.35498960499172,200.97204067100392 104.3362785862846,201.031247905099 104.43918918920463,200.9601992145581 104.51871101871438,201.02532718530347 104.29885654885948,201.2088691263416 103.86382536382371,200.64639945019007 103.44282744283191,197.4786719261574 103.36798336798529,195.5542393867945 102.80197505197066,188.76179558078366 102.62889812890353,187.5891482939478 102.25,186.78367536109 102.3201663201653,186.7007581868893 102.65228690229196,186.88436028967044 102.80197505197066,186.73037148145158 102.73648648649396,186.58822748453167 102.58212058212666,186.51715531265654 102.28274428275108,186.71260350713055 102.26871101870711,186.83697917569953 102.59615384615972,187.35224603139795 102.7084199584242,187.8556618041439 103.6065488565473,197.7688097903847 103.96673596673281,200.71152788839026 104.25207900208261,201.16742423926917 104.44386694387504,201.31544151270646 104.79002079002748,201.40425163622785 104.79469854470153,201.4812202640387 105.03326403325991,201.38056895427144 105.21101871103019,201.40425163622785 105.66943866944348,202.00223510463184 106.0810810810799,201.88974378959392 106.45062370062442,202.1384084145393 106.41787941788061,201.8660613705979 106.15592515593016,201.5759506968643 106.2494802494839,201.57003005083243 106.50207900208261,201.80685526699745 106.62837837838015,202.06144094365663 107.21777546777594,202.458117997121 107.30665280665926,202.62389241588244 107.3627858627915,203.2159387806787 107.87733887733702,203.75469400585644 108.23284823284484,203.87902119203136 108.48544698545084,203.73101259697432 109.18711018711838,203.91454318029355 111.44178794178879,204.23423977607672 111.98440748441499,203.87902119203136 122.87889812888898,202.04959978226907 123.18295218295316,202.12656727399371 124.1512474012452,202.90807567145748 124.9979209979283,202.86071192379313 125.25051975052338,203.93230416360166 125.96153846153538,203.76653470548627 126.79885654885584,203.71325153189537 128.11798336798893,203.48235702939928 128.17411642411025,202.88439380404088 127.98700623699915,202.44627694315568 128.00103950104312,202.1384084145393 128.9272349272287,202.04367920037475 129.7551975051938,201.5167442004058 130.50831600832316,201.46937894550138 133.95582120582912,200.86546744756197 135.64449064449218,201.06085149209684 137.26767151766398,201.90750559540902 137.85239085238936,202.29826349805444 138.74584199584933,203.1093710266323 139.8591476091351,204.49473157033208 142.2307692307695,207.8573045170524 142.08575883575395,208.1236944893135 142.26351351351332,208.41968144422935 142.21673596674373,208.52031655257088 142.33835758835994,208.83997947824537 142.26819126818373,209.25435386733807 141.89397089397244,209.64504612391465 141.8191268191331,209.85222999533653 141.53846153845734,210.04757388943472 141.01923076922685,210.68687507898358 140.98180873181263,210.65135859137445 140.98648648648305,210.8644570843353 141.10810810811017,210.98284468733982 140.90228690228105,210.71055272135345 140.72920997920664,210.79342436871957 140.88357588358485,210.76382736983214" stroke="#ff0000" stroke-linecap="round" stroke-linejoin="round" stroke-width="0.5"><title>2022-08-06 24.1km</title></polyline><polyline fill="none" points="187.24295774651546,203.85754125872336 185.34154929577198,200.95665001244197 178.78169014083687,192.0796608027813 176.0035211267459,189.566151417137 173.94366197182535,188.2692625073396 171.40845070422074,187.0258375564881 169.81338028171012,186.57124818144075 168.3028169014142,186.4108043729284 165.2816901408587,187.10605899360962 162.59859154930018,187.38683351029613 161.88028169015888,187.68097738564393 158.5739436619624,187.94838014819834 155.70070422534627,189.40571247536718 153.60915492955246,188.75058409067424 152.78521126761188,187.33335271152464 151.25352112676046,187.30661230132682 150.08098591549788,188.42970329587115 149.3732394366234,190.63573769993673 147.98943661970407,191.57161619287945 147.36619718308793,191.14378712535108 147.25,190.79617464300827 147.50352112675318,190.72932594841404 147.58802816903335,190.35497242226847 148.23239436621225,189.73995997652673 149.25704225353547,189.27201315807906 149.38380281689024,188.17567192701244 149.3732394366234,189.19179348079342 149.18309859154397,189.3789726263858 149.46830985914858,188.99124400242 149.3415492957938,187.82804899469193 149.4471830985931,188.20241210188397 149.13028169011523,188.1088214581614 149.53169014085142,188.21578218658397 149.51056338026683,188.55003371614293 149.61619718310976,187.94838014819834 149.16197183098848,185.82250817737076 148.79225352112553,185.98295294199488 149.22535211266222,188.0687111551233 148.71830985915585,188.3895931231673 148.36971830983384,188.28263258302468 148.51760563380958,187.31998250734614 148.32746478873742,186.130027080515 148.08450704222923,186.023064092391 147.72535211266222,186.18350853110314 148.09507042253972,188.29600265687623 149.10915492958156,188.32274279915146 149.33098591548332,189.28538309794385 147.90492957746756,190.3416026272098 147.36619718308793,190.98335074713395 147.92605633802305,193.4433465672846 149.2676056338023,193.10911160262913 149.28873239434324,192.28020400818787 149.60563380283565,192.24009539968392 149.8063380281601,191.7721604301114 150.35563380280655,191.51813766080886 150.42957746479806,191.1036780552604 150.1338028169048,190.67584696016274 149.8591549295743,188.89765410643304 150.07042253520922,188.40296318251785 151.20070422535355,187.38683351029613 152.98591549297998,187.2932420934667 153.53521126759006,188.69710403064528 155.299295774661,189.32549290673342 156.38732394366525,189.15168361771066 157.82394366194785,188.29600265687623 156.69366197182535,189.60626111187594 158.5528169014069,189.0447239031564 158.49999999999272,188.57677378958033 158.795774647886,188.29600265687623 158.61619718308066,188.14893174490135 157.61267605633475,188.28263258302468 156.2711267605555,189.20516343150666 155.4577464788672,189.39234255179326 153.85211267606064,188.88428411408677 153.37676056338387,188.33611286759697 152.93309859152941,187.31998250734614 151.30633802814555,187.2798718838094 150.15492957744573,188.30937272890878 149.41549295771983,190.60899818407051 147.86267605632747,191.57161619287945 147.41901408449485,191.2507445660376 147.36619718308793,190.98335074713395 147.95774647887447,190.2881234289307 149.23591549295816,189.4458222352623 149.51056338026683,188.84417412605399 149.64788732391753,188.0286008357798 149.29929577465373,188.13556165109912 149.59507042252517,188.29600265687623 149.23591549295816,187.84141913014173 148.73943661971862,187.84141913014173 149.29929577465373,187.86815939549706 149.41549295771983,188.1088214581614 149.01408450704912,186.38406371277233 149.15140845072165,186.19687888920453 149.19366197181807,186.31721203084453 149.10915492958156,186.08991597353452 149.0880281690188,186.95898630909505 149.51056338026683,188.29600265687623 149.3732394366234,189.17842352825392 147.98943661970407,190.27475362484256 147.39788732393936,191.06356896881334 147.86267605632747,193.4166078117487 149.19366197181807,193.14921985814 149.39436619716435,192.94867841774976 149.23591549295816,192.38716021781147 149.51056338026683,192.25346493763936 149.64788732391753,192.38716021781147 149.76408450702002,191.50476802324556 150.18661971828988,190.60899818407051 150.04929577462462,189.7132202181092 149.75352112675318,189.28538309794385 149.82746478872286,189.0313539306735 150.04929577462462,188.3895931231673 151.27464788731595,187.22639102712128 152.954225352114,187.22639102712128 153.60915492955246,188.5634037537675 155.72183098593086,189.28538309794385 156.3239436619624,189.0714638426507 158.07746478872286,187.9216399045763 162.6619718309812,187.48042483845347 162.97887323942996,187.25313145906694 164.60563380281383,186.97235656218254 165.61971830983384,187.09268875861017 166.86619718308066,186.54450756481674 168.68309859154397,186.4509153494655 169.65492957746028,186.75843229526072 171.26056338028866,186.78517285398266 173.99647887323226,188.13556165109912 176.44718309860036,189.78006960065977 179.41549295774166,192.62781126596383 184.77112676057004,200.35507203550515 187.75,204.23184359989682 184.91901408450212,207.42672370849323 183.4295774648126,208.6030552057564 183.39788732393936,208.88376860605786 183.02816901409824,209.16448120852147 182.98591549295816,209.8061070182739 183.16549295774166,209.79273985639884 182.95422535212856,210.08681699933368 182.90140845069982,209.27141913295054 183.10211267606792,209.3382552769035 182.90140845069982,209.72590401998605 182.63732394365798,209.63233377305005 182.8169014084633,209.49866183791164 182.32042253522377,209.93977853734395 182.2359154929436,210.19375392513757 182.66901408452395,210.67496865839348 181.91901408451668,211.5170888001594 182.03521126761916,211.39678636236204 182.50000000000728,211.65075800364139 182.70070422535355,211.62402417744306 182.62676056338387,211.31658465574583 182.7640845070564,211.57055650326947 182.83802816904063,211.45025413059193 181.84507042256882,211.67749182262196 182.26760563379503,211.383419415768" stroke="#4dd2ff" stroke-linecap="round" stroke-linejoin="round" stroke-width="0.5"><title>2022-07-23 16.3km</title></polyline><polyline fill="none" points="52.75,255.96200572631642 50.84358108107699,253.36474603687384 50.38749999999709,252.96072075334814 49.59391891890846,251.63319562992547 44.54966216215689,244.60273978456098 41.767567567578226,241.99358898155333 40.04358108107408,240.89679821437312 37.67195945945423,239.73072097655677 34.6435810810799,239.08417622899287 33.37567567569204,239.03799427368358 32.53648648648232,239.2227219448032 31.961824324331246,239.09572171390028 31.843243243260076,239.86926564166788 31.514864864853735,240.00781008166086 29.152364864887204,240.481168552913 26.01452702703682,240.85061724093975 24.764864864868287,241.67032580085652 24.098986486482318,241.84350265721878 22.48445945946878,241.18542873160914 21.85506756757968,240.10017291658733 20.559797297319164,240.06553686523694 19.364864864874107,241.09306707240466 18.78108108107699,242.8941013792719 17.96013513514481,243.3328091018775 17.750337837838742,243.59834162679908 16.7743243243458,243.2289048452658 15.369594594609225,243.40207853592437 13.280743243274628,241.80886731408827 12.25,241.80886731408827 13.326351351366611,241.7857770775081 15.278378378396155,243.3328091018775 16.938513513538055,243.2750845305127 17.33074324325571,244.57965030461492 17.412837837844563,245.3300552024084 17.248648648666858,245.44550152356533 17.394594594617956,245.7110274690931 20.486824324347253,245.11070676155214 20.678378378368507,244.83363424016716 30.17398648650851,243.3674438259186 29.48986486486683,242.5131165256098 28.32229729728715,241.64723552675423 28.39527027028089,241.4625131088469 28.814864864871197,241.45096794444544 28.860472972992284,240.5273497264934 29.216216216234898,240.2271716512114 32.16250000000582,239.71917557760753 32.892229729754035,239.7538117697186 33.30270270271285,239.49981270100398 34.515878378384514,239.31508563025272 37.73581081080192,239.66144855955645 39.97972972972639,240.80443624248437 41.96824324327463,242.05131442059064 44.40371621619852,244.31412083577743 50.68851351351623,253.0761567439913 50.524324324316694,253.3993766863714 50.29628378379857,253.457094404308 50.48783783784165,253.73413890662778" stroke="#4dd2ff" stroke-linecap="round" stroke-linejoin="round" stroke-width="0.5"><title>2022-07-16 10.3km</title></polyline></svg>