<?xml version="1.0" encoding="utf-8" ?>
<svg baseProfile="full" height="300mm" version="1.1" viewBox="0,0,200,300" width="200mm" xmlns="http://www.w3.org/2000/svg" xmlns:ev="http://www.w3.org/2001/xml-events" xmlns:xlink="http://www.w3.org/1999/xlink"><defs /><rect fill="#222222" height="300" width="200" x="0" y="0" /><text fill="#FFFFFF" style="font-size:12px; font-family:Arial; font-weight:bold;" x="10" y="20">Over 10km Runs</text><text fill="#FFFFFF" style="font-size:4px; font-family:Arial" x="10" y="280">ATHLETE</text><text fill="#FFFFFF" style="font-size:9px; font-family:Arial" x="10" y="290">Allen</text><text fill="#FFFFFF" style="font-size:4px; font-family:Arial" x="120" y="280">STATISTICS</text><text fill="#FFFFFF" style="font-size:3px; font-family:Arial" x="120" y="285">Number: 28</text><text fill="#FFFFFF" style="font-size:3px; font-family:Arial" x="120" y="290">Weekly: 1.6</text><text fill="#FFFFFF" style="font-size:3px; font-family:Arial" x="141" y="285">Total: 431.3 km</text><text fill="#FFFFFF" style="font-size:3px; font-family:Arial" x="141" y="290">Avg: 15.4 km</text><text fill="#FFFFFF" style="font-size:3px; font-family:Arial" x="167" y="285">Min: 10.1 km</text><text fill="#FFFFFF" style="font-size:3px; font-family:Arial" x="167" y="290">Max: 24.1 km</text><polyline fill="none" points="34.297696501867904,49.84602892431576 32.48004496756039,49.74243591101549 32.41013529316842,49.328061485332 31.355664371039893,47.40289717844644 30.353625704672595,46.78130196543498 29.526361224314314,46.9108016726168 28.087387092979043,45.21000930877926 27.580541953619104,43.465983210564445 27.1261290700495,42.809797563902976 26.66006457406911,42.386725454318366 26.246432333886332,41.67008407561298 26.13574201609299,41.229732535583025 26.18234846568521,40.60805247366443 26.380425876472145,40.34038203736782 26.35712265168695,39.97772924154924 25.541509783739457,38.363025541049865 23.770464699009608,36.77416990208803 22.37809701729566,36.00562730576348 20.875039017773815,34.891649119654176 20.577922901582497,34.47713860307704 20.583748707795166,33.45811743102968 20.781826118582103,33.15586097259438 23.8811550168175,31.80000000000291 20.711916444190138,33.173132824653294 20.63618096359278,34.58076658844584 22.27323250570771,35.94517958120923 23.892806629221013,36.817346064908634 25.5065549465362,38.250771268820245 26.374600070281303,40.029536961843405 26.14739362848195,40.867086871367064 26.199825884286838,41.411054277214134 26.39790329508105,41.868672583023 27.66210324041458,43.51778693509914 28.06408386818657,45.12367296534285 29.38654187553766,46.7295019787598 31.979025634384016,51.65023585679228 32.113019176991656,52.82422659972144 32.86454817675258,53.84281152867334 32.83541914575471,55.52601601720744 33.085928812331986,56.25106942002094 33.07427719993575,57.701141364028445 32.51499980476365,59.50503503665095 32.85289656434179,60.791020580396435 33.755896525290154,62.14601277831025 33.82580619970395,64.20000000000073 34.50742552505835,63.224799205974705 35.10165775743371,61.947513273615186 35.00261905203661,59.87616213394358 35.32303839301312,58.37437325287101 35.4220770984175,51.589809038167004 34.42003843206476,51.28767373417577" stroke="#4dd2ff" stroke-linecap="round" stroke-linejoin="round" stroke-width="0.5"><title>2023-01-31 10.4km</title></polyline><polyline fill="none" points="58.971644020377425,35.39591748167004 58.39065103237226,37.03972529456951 57.49149521757499,38.190375764308556 56.35717557433236,39.07390256287181 53.203213639353635,40.32726529543288 51.98589499780792,41.99154397848906 51.64006583823357,42.93667839327827 51.017573351127794,48.0320421058932 49.661923045743606,51.237066160552786 49.64808987938159,53.127163633667806 50.367414531181566,54.44199439517979 52.649886984116165,57.15378191188938 53.894871958415024,61.34459133689961 54.46203178007272,62.16629946530884 55.817682085427805,63.04962867910217 58.487483197051915,64.11783102933259 59.06847618504253,60.81047767606651 61.76594362940523,59.37246613215393 62.74809844249103,58.53019327032962 66.62138502929884,53.74349256099231 68.17069966401323,52.30538621839514 68.80702531755378,51.216521439739154 69.52634996941197,48.17585934134695 70.42550578415103,47.004770527571964 71.53215909466962,46.57331352899928 76.12477033327741,46.614404746535 77.5772528033267,45.71039432213729 78.26891112243175,44.23108809166297 78.10291312582558,42.69012239284348 77.35592214121425,41.33405425310775 74.22962653901777,38.51913077266363 72.70797823708563,37.92326157756179 69.58168263488915,38.046545131044695 67.85253683726478,37.40957857830654 66.64905136206653,36.23837213493971 64.44957790742046,32.95070671960275 63.19075976673048,31.923290596540028 61.724444130275515,31.80000000000291 59.98146516623092,32.88906202995713 58.100154538376955,37.51231537509011 56.49550723811262,38.97116726280365 53.203213639353635,40.32726529543288 52.193392493529245,41.64225306402659 51.54323367362667,43.18323382666131 50.962240685592405,48.052587437137845 49.606590380193666,51.19597671498923 49.55125771465828,52.695731276093284 49.84175420871179,53.68185982778232 52.843551313417265,57.64682681784325 54.04703678865917,61.71436077405815 55.582518256953335,63.07017113239999 58.556649028963875,64.11783102933259 59.05464301868051,61.01590632209263 62.33310345107748,58.96160214818519 66.46922019909834,53.92839054829528 68.21219916314294,52.30538621839514 68.83469165027782,51.237066160552786 69.48485047022405,48.360766931888065 69.96901129357866,47.43622578952636 71.39382743087481,46.614404746535 75.0734496882651,46.77876945915341 76.7195964877028,46.367857205012115 77.84008296453976,45.42275304278155 78.32424378790893,43.82016607130208 77.53575330415333,41.53952022552403 74.6861210296338,38.868431864262675 72.58347973963828,37.92326157756179 70.01051079273748,38.10818685466802 68.01853483381274,37.55341006623348 66.82888252499106,36.505490520481544 64.40807840824709,32.88906202995713 63.38442409603158,32.02603265201469 61.54461296732188,31.90274217359547 59.81546716966841,33.07399599257769 58.515149529790506,36.66987073448399 57.781991711613955,37.882167028219556 56.13584491220536,39.15609073204541 53.27237947125104,40.286171667721646 51.847563333954895,42.279194465168985 51.072906016677734,47.621134655906644 49.661923045743606,50.96998448255181 49.55125771465828,52.28484170226875 50.14608386909822,54.15437654402922 52.871217646228615,57.74954422123119 54.130035786904045,61.89924501438509 55.13985693278664,62.9263738769223 58.570482195325894,64.19999999999709 58.91631135484204,61.44730519736913 59.34513951270492,60.728306107492244 62.429935615713475,58.899972414728836 66.41388753357751,54.03111151452322 68.21219916314294,52.32593073053431 68.84852481669805,51.31924500452442 69.54018313577399,48.21694994458812 70.06584345824376,47.354043968749465 71.47682642911968,46.59385913976439 74.9766175236,46.71713272146735 76.65043065577629,46.38840285515471 77.66025180160068,45.6282111782275 78.44874228534172,44.4365485110975 78.26891112243175,42.95722470108012 77.28675630930229,41.190227838102146 74.60312203131616,38.78624347452569 72.76331090263557,37.9027143048952 69.67851479952515,38.08763961744262 67.74187150617945,37.38903120715986 66.95338102242386,36.64932322158711 64.3804120755376,32.827417304848495" stroke="#4dd2ff" stroke-linecap="round" stroke-linejoin="round" stroke-width="0.5"><title>2022-12-04 15.0km</title></polyline><polyline fill="none" points="116.12390605685505,51.406158179041086 114.98249690976081,49.50045646014041 114.8343139678509,49.439634595251846 113.10417799752395,46.9053023893066 111.92672435105123,45.86110761445525 111.52622991346288,45.622864919903805 111.52222496909235,45.4150349480733 110.26467243510342,44.75605423687011 108.86694684795293,44.609049264825444 107.98185414091495,44.82702194778176 106.91253399257766,44.943611466478615 106.74032138441544,45.044993361472734 105.18640296662124,45.21734195281533 104.60568603214779,45.5671057724212 104.25725587143825,45.67355498190591 103.60044499382639,45.47586335194137 103.45626699628701,45.32379215691981 103.24800988874631,44.89292041601584 102.79545117428643,44.862505752782454 102.55515451174142,44.96895696597858 102.22274412854676,45.318723106451216 101.97443757725705,45.850969658360555 101.91436341161898,46.14496927095024 101.43777503090314,46.39841535963933 101.21750309022536,46.378139735687 101.0533003708224,46.2767614512195 100.55668726823569,46.378139735687 100.40850432632578,46.34772627917482 99.54744128553648,45.66848597878925 99.28711990110969,45.61779590993683 90.21191594561606,47.13846811826079 89.50704573547773,47.49328274544678 86.98393077874425,47.07257360294534 86.79169344870388,47.18408733013348 86.52736711990656,47.10298647058153 86.25903584672778,46.78365012812719 86.03475896167947,46.64172199043969 85.93864029667384,46.03345244832599 85.42200247219807,45.63807194570472 85.15367119901202,45.24775632772071 84.83327564895808,45.004440636432264 84.59297898640943,45.050062449023244 84.2845982694671,44.89292041601584 83.87208899876714,44.806745472676994 83.79999999999927,44.63946413398662 83.88410383190421,44.806745472676994 84.13641532757174,44.82702194778176 84.58897404203162,45.03485518434172 84.79322620519815,44.98416425744654 85.21374536465737,45.2933778437764 85.39396786156067,45.59751986317133 85.96266996292252,46.00303871177675 86.06679851669469,46.61637762351165 86.51935723115457,47.06243597490902 86.75564894931449,47.15874333040483 86.98393077874425,47.047229527703166 89.50304079109992,47.4679389550256 90.09577255871045,47.12833050806512 99.3031396786173,45.592450849766465 99.56346106303681,45.653278965342906 100.40049443757744,46.32238171320569 100.55268232385788,46.35786410075525 101.08934487021179,46.26155468487559 101.29359703337832,46.46937995696862 101.44578491964421,46.47951774561079 101.56593325092763,46.31224388201008 101.91436341161898,46.13483139171149 102.15866501853816,45.298446897671965 102.27080346105504,45.21734195281533 102.27881334982158,45.2629635059202 102.5030902348517,44.9790951609757 102.70333745365133,44.857436639853404 103.28805933251351,44.88785130720498 103.45226205191648,45.318723106451216 103.97290482076278,45.57217478926759 104.2812855376942,45.63807194570472 104.5776514215031,45.546829698214424 105.15836835599112,45.16665127302622 105.5188133498159,45.095684206011356 106.94056860321507,44.943611466478615 107.26096415326901,44.83716018121777 108.88296662546782,44.593841820958914 110.23263288009548,44.71550119879976 111.24588380716523,45.19199662149549 112.07490729294295,45.73438296569293 113.1282076637799,46.7430992865593 114.15747836834998,48.08125386686879 115.37498145858262,49.9312751745274 116.20000000000073,50.93481013341443" stroke="#4dd2ff" stroke-linecap="round" stroke-linejoin="round" stroke-width="0.5"><title>2022-11-05 16.8km</title></polyline><polyline fill="none" points="152.1999999999971,51.308750406315085 152.14312225705362,51.103095635964564 151.03400626959046,49.704613665653596 149.78269592476136,47.79190053529601 149.1895423197493,47.01033411332173 148.03167398120058,45.8945173334032 147.18663322884095,45.37002069874143 146.13439498432126,44.87122796271433 145.56968025078095,44.840374588613486 144.92371159874892,44.701534094900126 144.50931661442155,44.7529565591758 143.80647021943878,44.917507976872 142.98580564263466,45.01006783595949 142.56734796238743,45.17976032496517 141.09258934169338,45.29803039915714 140.41411912225522,45.72997014947032 140.01597492162546,45.82767012592012 139.39031974921818,45.5911329084156 139.25625078369922,45.447153011133196 139.10999373040977,45.04606327578222 138.4762131661555,44.99978341831229 137.98462695925264,45.503716607316164 137.7327398119196,46.28531403763918 137.23709090908596,46.54755693952757 136.9770783699023,46.50642091780901 136.899887147345,46.42929075698339 136.21735423198697,46.52184693118397 135.29918495298625,45.80710173071566 135.0472978056423,45.75053858644242 125.9956112852633,47.262288203612115 125.60152978056067,47.354842347562226 125.31307836991255,47.601652295332315 125.11806896552298,47.6582126824469 123.19641379310997,47.38055179196817 122.55044514106339,47.2160110470395 122.38387460816011,47.33427477951773 122.07104702195284,47.226294864496595 121.60789968651443,46.78923016719273 121.53070846395349,46.25960385174767 121.38038871473691,46.04877967078937 120.98630721003428,45.77624911702151 120.57191222570691,45.282603888634185 120.32815047022086,45.14376501188235 120.12095297805354,45.19004469387073 119.79999999999927,45.00492562749059 120.12907836991872,45.1694759532802 120.38502821317161,45.123196246240695 120.80754858934597,45.45743730761387 120.99849529781204,45.771107012293214 121.45757993730513,46.04877967078937 121.54289655173852,46.18761523861758 121.64040125392057,46.79437213403435 121.88822570533011,46.98462441830634 122.07917241379255,47.24686249101069 122.43668965517645,47.323990991309984 122.54638244514354,47.205727226813906 123.29391849530293,47.38569367875607 125.11400626960312,47.62736157263862 125.30901567398541,47.56051741542251 125.54058934169007,47.34970045659793 125.73966144200676,47.298281508621585 135.09198746081893,45.72997014947032 135.3032476489061,45.78653332436079 136.16453918495245,46.47042686225541 136.86738557993522,46.393296628324606 137.05833228840856,46.614402879760746 137.20865203763242,46.6503967988574 137.3427210031332,46.48071088161305 137.7246144200617,46.254461812466616 137.98462695925264,45.406015797354485 138.5087147335471,44.97921457467601 139.08561755485061,44.99978341831229 139.32937931033666,45.503716607316164 139.85346708464203,45.72997014947032 140.1906708464012,45.77624911702151 141.0844639498464,45.24660867303828 142.8029843260265,45.07177428333307 143.63989968652095,44.845516819375916 143.98116614419996,44.86094350746862 144.71245141066174,44.69124959368855 146.11408150470743,44.8198056586225 147.17038244514333,45.31345690341914 147.80822570533564,45.69911747309743 148.24293416927685,46.15162088087891 149.15297805642695,46.91263717959009 149.84363636364287,47.95129697557422 150.29053291535456,48.460332740502054 151.20057680250466,49.848577422540984" stroke="#4dd2ff" stroke-linecap="round" stroke-linejoin="round" stroke-width="0.5"><title>2022-11-04 16.4km</title></polyline><polyline fill="none" points="188.1999999999971,51.49205063666159 184.96171111696822,46.94981648091925 184.41843147609688,46.408395397163986 183.38748349615707,45.574592589531676 181.96297861101993,44.805746020705556 181.7533667810858,44.70828554064792 180.38875099021607,44.50794936334205 178.472299973575,44.81657494826868 177.98890942697471,44.98442295044515 176.34623712699977,45.18475674034926 175.65323475044715,45.62332180343583 175.33240031686364,45.6828796508853 174.6094533931755,45.45006210641077 174.31000792181658,44.87071954208295 173.66406126220318,44.83281833411456 173.13361499866733,45.33094562921178 172.86411407445848,46.19723918736781 172.3251122260226,46.47336631429789 172.0727224716029,46.44088086894044 171.95294428306806,46.34342437444866 171.2385529442654,46.4138096442839 170.38299445469966,45.73702307157873 170.0707156060198,45.639564861547115 165.8057565355084,46.30552456245641 164.43686295219595,46.603307831865095 160.50984948507903,47.220524273696356 160.07779244783887,47.31797863044267 159.80401373118002,47.5507852990595 159.5815685238922,47.631996608764894 157.63089516766559,47.355877482823416 156.86089252705642,47.15555457056689 156.75822550830344,47.285493871251674 156.64272511221134,47.29632212725119 156.3732241880025,47.18262529304411 155.93688935833052,46.77656253174064 155.84277792447756,46.5708224920636 155.87272247160217,46.37590989900491 155.79999999999927,46.083539227915026 155.85133350936303,46.00232477321333 155.9026670187377,46.64662157720886 156.36466860310975,47.16096871652917 156.59566939528304,47.285493871251674 156.75822550830344,47.285493871251674 156.8908370741883,47.17721115000313 159.57729073144947,47.61575436000567 159.73984684445168,47.583269842740265 160.16334829678817,47.26925148176815 170.0707156060198,45.628736156857485 170.29316081330762,45.655807913044555 171.2385529442654,46.402981149316474 171.96149986796445,46.33259586041822 172.30800105623712,46.57623671719921 172.51761288618582,46.36508139375292 172.84700290466208,46.208067738072714 173.12078162133184,45.30387365306888 173.65122788486406,44.838232794587384 174.26722999735648,44.838232794587384 174.57950884603633,45.379675140047766 175.31528914706723,45.666636610370915 175.60617903352613,45.617907449272025 176.3804594665853,45.13602699194962 178.2370213889517,44.91403516434366 180.45719566938715,44.52960737685498 181.01330868760124,44.637897268414235 181.67636651703287,44.64872624144118 182.97681542116698,45.29304485749162 183.79815157115445,45.83448104409035 184.81198838129058,46.8090477043952 185.1798785318133,47.285493871251674" stroke="#4dd2ff" stroke-linecap="round" stroke-linejoin="round" stroke-width="0.5"><title>2022-10-29 14.6km</title></polyline><polyline fill="none" points="44.20000000000073,92.1049679231146 43.530726669127034,91.2932846053518 41.79380302470963,88.72703898101463 40.92135743268227,87.58250699469136 39.81785319069968,86.60937503642344 39.088823312435125,86.13036291876051 38.15263740317096,85.69168325780993 36.80612320176442,85.4950320768803 36.097012172635004,85.61100597589757 35.8779048321594,85.7471487877192 34.858059756548755,85.81269885291476 34.61504979712845,85.99926379144745 34.148948727408424,85.98413693935436 33.20877904832378,86.09506704527303 32.14909627443558,86.59929063428717 31.459904094430385,86.37239086419504 31.284618222052814,86.13540518366426 31.181040206556645,85.82782577463877 30.61932866101779,85.78748730302323 30.10940612320337,86.24633483892103 29.87436370342766,86.76064074071837 29.84249354480926,87.0329174599392 29.37639247511106,87.27493953898738 29.10151235707235,87.27493953898738 28.970047952785535,87.18922356588882 28.336628550347086,87.24972897914631 27.48011803762347,86.60433283570455 27.28092954629028,86.53374195384822 18.345333825149282,87.99595432581191 17.94695684249018,88.09679444193534 17.65614164514409,88.33376763994966 17.441018074507156,88.38922923448627 14.979048321652954,88.00603834971844 14.79579490962351,88.08671044261791 14.497012172632822,87.98082828485349 14.014976023609051,87.50687588865185 13.935300627061224,86.93711661909038 13.405459240122582,86.54382637372328 13.214238288448541,86.23120808721796 12.84773146439693,85.94884092726716 12.588786425672879,85.96396779368297 11.823902618947614,85.64630230823605 11.799999999999272,85.55554024317462 11.891626706008537,85.67655628076682 12.417484323115787,85.81269885291476 12.588786425672879,85.93875634624055 12.839763924745057,85.898417994802 12.995130947983853,86.00430607411181 13.285946145329945,86.27658832391171 13.445296938396496,86.53374195384822 13.923349317588873,86.83627336244172 14.038878642557393,87.49174964901613 14.516931021757046,87.96066022065497 14.759940981188265,88.05141642348462 14.967097012162412,87.9304081038863 15.592548874948989,88.09679444193534 17.44500184433491,88.36906139147322 17.636222796016227,88.32872567271625 17.99077831058821,88.06150043235539 27.241091848023643,86.5186153188879 27.539874585025245,86.5942484322004 28.352563629658107,87.25477109247367 29.013869420879928,87.1791393208041 29.177203983766958,87.36065531475833 29.328587237181637,87.3959499886223 29.583548506092484,87.16401294802199 29.8345260051683,87.06317030584978 30.081519734409085,86.2412925890385 30.571523423092003,85.7723603649174 31.1651051272529,85.78244499100765 31.42803393581562,86.26146158448319 31.87023238657639,86.47827759564098 32.208852821837354,86.53374195384822 32.48771670970018,86.45810871761933 33.13308742161826,86.06481341280232 36.0253043157536,85.63621764527124 36.21652526743492,85.54041321082696 36.96149022500322,85.50511677810209 38.124751014383946,85.64125997709925 39.49118406492926,86.34213745705347 40.45924013279364,87.09342312718218 41.136481003319204,87.7942732743395 42.905274806344096,90.25974918788415" stroke="#4dd2ff" stroke-linecap="round" stroke-linejoin="round" stroke-width="0.5"><title>2022-10-22 16.5km</title></polyline><polyline fill="none" points="80.0885747038592,92.36729691384971 80.19999999999709,92.13228372596859 78.96606801682356,90.52893333533575 76.76232327092657,87.38471077226131 75.68108521208342,86.4288581011715 74.86809323653506,85.89607747941409 73.84050439434577,85.4103004987519 73.25036301108412,85.38418328347689 72.51578142911967,85.23792655112993 71.88849828047387,85.32672534762605 71.42628964463802,85.47298174326716 70.62155139472816,85.5356628859081 70.25013374093032,85.70281210164467 68.82636606801316,85.81772676730179 68.46732900267307,85.94831119908122 67.93496369889544,86.28260532993227 67.6254489873827,86.34006184191458 66.96927779899852,86.14157534678452 66.77531524647566,85.89607747941409 66.64325563621969,85.55133315564672 66.0654948414267,85.51476918301341 65.52074894916586,86.02143828776752 65.24837600305545,86.85716659844547 64.92235384027299,86.99819396532621 64.74489873901985,87.20189925167506 64.39411539930734,86.97207782516125 63.70492930837645,87.06087262954316 62.8713030187173,86.38184834232379 62.619564386699494,86.29827529624527 57.90256018340369,87.0452029730368 56.68513565150715,87.31680945145854 53.57348108519727,87.78689306794695 52.97508597630804,87.91747083367227 52.686205578902445,88.14728662783455 52.43859380970025,88.22040954794647 51.46052732134922,88.11072511580642 49.84692395872116,87.79733930547081 49.657088269006636,87.90180152512767 49.39709591133942,87.8130086564488 48.89361864728562,87.3272558162862 48.85647688190875,86.83627361135586 48.71616354603975,86.6012267267979 48.270462361462705,86.3191685747297 48.14252961405509,86.08934188884814 47.79999999999927,85.7759396557667 48.12189529994794,86.05277842619762 48.28696981275061,86.31394525617361 48.794573939616384,86.6691293072181 48.864730607565434,87.25935439435852 49.38884218570092,87.78689306794695 49.58693160106486,87.8861322102166 49.88819258692456,87.78689306794695 51.625601834151894,88.10550203981984 52.5087504776493,88.19429423523252 52.843026366066624,87.94358633377851 53.09063813526154,87.86001667120217 62.61131066105372,86.26693535727463 62.82178066487904,86.3243918925873 63.713183033996756,87.01908686470779 64.36935422238457,86.96163136416726 64.68712265953218,87.18100645129743 64.82743599541209,87.12877440085867 64.90997325180433,86.99819396532621 65.2194879633098,86.88850605787593 65.53312953763452,85.96920466712618 66.07374856705064,85.4938754687937 66.66801681314973,85.5356628859081 66.870233091322,85.97965139693042 67.65433702712107,86.30872193690448 67.92258311042679,86.26171203164267 68.59938861292903,85.84906707125265 70.74123041650819,85.48865203847527 72.45387848682003,85.23270308615247 73.6589224302661,85.36851294583175 73.84875811999154,85.39985361477375 75.2890332441857,86.14679868870007 75.85028658769806,86.53854731570027 76.74168895681942,87.35337171597348 77.95498662590035,88.95163112580485 78.9124188001515,90.38269610765929" stroke="#4dd2ff" stroke-linecap="round" stroke-linejoin="round" stroke-width="0.5"><title>2022-10-15 16.0km</title></polyline><polyline fill="none" points="116.19999999999709,92.25195839904336 115.71149318872995,91.68797526399794 115.46295463562637,91.21617558069556 112.81901864832253,87.58801304207009 111.68345456949828,86.55753326500053 111.02782700700845,86.14533393068268 109.77227879909697,85.54872211740803 109.38233037956888,85.46194147694405 109.1680730062144,85.49448423915237 108.44388308424459,85.34804160095882 107.58685359079391,85.4673652724814 106.8326676365541,85.6734689586774 106.33987567781514,85.66262142268897 106.02277476523886,85.81991040698995 104.38584843275385,86.01516483847809 103.73450601772493,86.41109451363809 103.34884274566866,86.51414406116601 102.65036370849703,86.2971973368767 102.50038354714343,86.13991022694245 102.33326279592075,85.70601154900942 101.68192038090274,85.64092634190092 101.16341753735833,86.13448652249645 100.88916809944567,87.02396423780374 100.38352069830944,87.28971899093449 100.12212670281224,87.27344834242831 99.99357227879227,87.15955361787564 99.26509720936883,87.24090702560716 98.33093506149817,86.52499136653205 98.00954900145007,86.46533115065904 88.47081073931622,88.05985545952353 88.08086231979541,88.14663047142676 87.60521095093281,88.46118831374406 84.9227086364117,88.03816167717014 84.65274434597086,88.11951330040392 84.39135035047002,88.01646788308062 83.88141780186561,87.54462495451298 83.79999999999927,86.93718679367521 83.8428514746629,87.39818981201097 83.94569501388105,87.59343654970507 84.15995238723917,87.72902400203384 84.3484988758064,87.97850371511959 84.6098928713036,88.09781955036306 84.91842348894716,88.0110444327147 87.54950403384646,88.43949474874171 87.77233170214458,88.37441398328883 87.9951593704427,88.16832419503407 88.38082264250625,88.05985545952353 92.41743155667064,87.41446040983283 92.93593440021141,87.2354834702237 98.06954106598641,86.45990749026896 98.33093506149817,86.50329675285684 99.25652691441792,87.21921279970411 99.41507737071515,87.26260123977045 100.010712868665,87.17040074845863 100.28924745403128,87.41446040983283 100.52921571220213,87.1812478760985 100.8420314773175,87.04565856946283 101.15056209494287,86.1236391113489 101.59193228407821,85.7005877857955 101.85761142706542,85.64635011319479 102.34611823832529,85.71143531150301" stroke="#4dd2ff" stroke-linecap="round" stroke-linejoin="round" stroke-width="0.5"><title>2022-10-05 12.1km</title></polyline><polyline fill="none" points="152.20000000000073,91.88949987725937 149.49260273972322,88.0290203403274 148.23372353673403,86.92084674129728 147.34201743462472,86.34887343344599 146.42206724781863,85.88924573901022 145.058281444577,85.76157038527163 144.21902864258664,85.95563675211815 143.37574097135075,86.03224162203333 142.92787048568061,86.17012999572398 141.55198007472063,86.34887343344599 141.21708592777577,86.44590523059742 140.73693648817425,86.74721290413072 140.47870485678504,86.80849552617292 139.7685678704911,86.62464736128095 139.40946450810225,86.05777654407211 138.86879202988712,86.00159969273955 138.3482938978741,86.51740218452323 138.11830635118167,87.05362501856507 138.10216687421416,87.273218835835 137.5857036114685,87.65112148137632 137.25484433375095,87.45195704553771 136.60119551682146,87.51834530767883 135.8022914072244,86.90041927252969 135.44722291407015,86.76764045588425 130.84343711084148,87.5132385224315 130.2220672478179,87.71750939292178 130.10909090909263,87.68176207045326 126.42122042340998,88.27924858211918 126.04597758406089,88.371168743819 125.78774595267168,88.59075488988674 125.52951432130067,88.64692788470347 123.01982565379512,88.23839510502876 122.89877957659337,88.34563538803195 122.59212951433074,88.2537151641227 122.07163138231772,87.75325668150617 122.05549190535021,87.38556866654835 121.97479452055268,87.18640282834531 121.45429638854694,86.7727473420855 121.21220423411432,86.39994283148553 120.82485678704325,86.1445951497335 120.63118306351316,86.20077178806605 119.88876712328783,85.91988775957725 119.79999999999927,85.74624931377184 119.9008717310171,85.91988775957725 120.43347447073029,86.06799050806876 120.61907845579844,86.1956648243904 120.86117061020559,86.13948817847267 121.20413449563785,86.39483589480005 121.47043586551081,86.7625335689736 121.97882938978728,87.1353344952804 122.12408468244394,87.78900393622462 122.60019925279994,88.23839510502876 122.85036114570175,88.33031536627459 123.02386052304064,88.21796834987617 125.54968866750278,88.61628807972374 126.13474470735673,88.29967530407521 130.13330012452934,87.64601471410788 130.83536737235409,87.45195704553771 135.2858281444569,86.75742668137173 135.52388542965127,86.74210601445884 135.7336986301416,86.82381616612474 136.56084682440996,87.47238421556904 137.24677459526356,87.42131626976334 137.52518057285488,87.65112148137632 137.76727272727658,87.44174345637293 138.05778331258261,87.31918017067437 138.34022415940126,86.44079830012925 138.84458281445768,85.99649270211012 139.46998754670494,86.03224162203333 139.70400996263197,86.54293677808528 139.7927770859278,86.51229526374664 140.10346201744323,86.69614397634723 140.4383561643881,86.7727473420855 140.72079701120674,86.70635776743438 141.39865504359113,86.31312481367422 143.15785803237304,86.07309748901389 143.33942714819204,85.98117172605271 143.81150684932072,85.95563675211815 144.8363636363647,85.73603526264924 145.32054794520081,85.71050012274281 146.45838107098461,85.8739247193771" stroke="#4dd2ff" stroke-linecap="round" stroke-linejoin="round" stroke-width="0.5"><title>2022-10-02 14.7km</title></polyline><polyline fill="none" points="188.20000000000073,92.32872363066053 187.18923992068812,90.90324122951642 186.97081295439784,90.75147585543527 186.40975545274705,89.81376989345154 184.9321612690037,87.77025365204827 184.56383344348797,87.3691268112998 183.63873099803095,86.53975721868483 182.62797091870743,85.82962972990208 182.46093853273123,85.84047146563171 181.72000000000844,85.48811355083672 181.11611368143713,85.38511603609004 180.28523463317833,85.30922296088829 179.30873760741088,85.52605993683756 176.35783212161186,85.9814137631256 175.6254593522899,86.37171292019775 175.34707204230654,86.42592083549607 174.5247587574304,86.2090887338818 174.25493721084786,85.64531977296429 173.68103106410854,85.59653170112506 173.141387970918,86.07898890914657 172.81160608064238,86.9679959512323 172.464692663576,87.14145843801816 172.37475214804726,87.27155480986039 171.946463978853,87.119775668285 171.2226569728955,87.19024462701782 170.21617977528513,86.43134162298156 170.04486450760305,86.3988168870128 160.74244547257695,87.95455382591535 160.05290152015368,88.12801203805793 159.56893588896128,88.40445951026413 156.82360872439313,87.95455382591535 156.60518175809557,88.07922699185656 156.3010971579679,87.94371266271992 155.8556774619974,87.51006372686606 155.79999999999927,87.36370615079431 155.8256972901545,86.95173380456617 155.8856576338403,87.48296051240322 156.47241242565724,87.9762361435387 156.63087904825807,88.01960074355156 156.84502313285338,87.91660974183833 157.46604097819727,88.07380642748831 159.5646530072736,88.37735690130648 160.04005287508699,88.04670359469674 160.34842035690963,87.98165672111645 170.0662789160633,86.36087132832472 170.28898876404855,86.3988168870128 171.18411103768085,87.12519636181605 171.3597091870579,87.16856188369275 171.9764441506959,87.07641009355575 172.0535360211543,87.22276871996655 172.25483146067927,87.30407883676526 172.4604097818883,87.119775668285 172.83302048909536,86.95715452084914 173.07286186385318,86.10067224263548 173.62107072042636,85.57484809456582 174.30204890945606,85.59653170112506 174.54189028420296,86.09525141036283 175.2785459352308,86.3988168870128 175.55265036351557,86.36087132832472 176.19508261731244,85.97599291469669 176.69617977527741,85.84047146563171 178.26799735625173,85.65616155861426 179.00037012559187,85.48269263562906 179.38154659617066,85.4718508029764 179.85694646399133,85.31464389962639 180.34519497687143,85.27127636933801 181.758545935234,85.41764159568993 181.89988103106225,85.35801138290117 183.66442828816798,86.51807412302514 184.89361533378178,87.6293176524814 186.10567085260845,89.2771537114786 187.6560740251225,91.56449793148931" stroke="#4dd2ff" stroke-linecap="round" stroke-linejoin="round" stroke-width="0.5"><title>2022-10-01 15.4km</title></polyline><polyline fill="none" points="44.111976454594696,134.25126063549396 38.22173420876061,126.09117665224039 36.21186325558665,124.2529349792967 34.97219832465635,123.44520714321698 32.954992076069175,122.47963494407304 30.717726964001486,122.09897293589893 28.729861897212686,122.63746979099233 27.204120443726424,122.72102926874504 26.426579126091383,123.03669748779066 23.595155082643032,123.36164854809613 22.568213719707273,124.03011445773882 22.032737151908805,124.19722991679009 20.74172515283135,123.81657744506083 20.169572107755812,122.7953042745794 19.076613085810095,122.70246050471178 18.262395290912536,123.48234426392446 17.675571654974192,125.11635766062682 16.72198324654164,125.69196674094565 16.208512565099227,125.30203853710555 14.990853520495875,125.45058287626307 13.201041430838814,124.03939866060682 11.80000000000291,124.2529349792967 13.149694362691662,124.0765354594696 14.968847634161648,125.38559476748924 16.215847860534268,125.30203853710555 16.72198324654164,125.70125071877555 17.132759791718854,125.32989062522392 17.734254018556385,125.04208516925428 17.79293638215313,124.55931201404746 18.211048222787213,123.49162854096357 19.098618972173426,122.70246050471178 20.19891328954691,122.7117448873687 20.6316957210729,123.62160828739434 21.944713606520963,124.10438804539444 22.524201947031543,124.02083025362663 23.807878650673956,123.26880554517265 28.487797147376114,122.48891935690335 29.133303146947583,122.49820376846037 30.49766810052097,122.17324861566885 32.96966266696836,122.47963494407304 35.44899252886535,123.74230354560859 36.519945664476836,124.4943230604622 38.26574598143634,126.11902841981646 44.04595879554108,134.11201819904818 44.200000000004366,134.4926135222122 43.99461172741576,135.02173034007137 42.967670364509104,136.265602920721 41.962734887936676,137.10102706409816" stroke="#4dd2ff" stroke-linecap="round" stroke-linejoin="round" stroke-width="0.5"><title>2022-09-29 10.1km</title></polyline><polyline fill="none" points="80.19999999999709,132.74346792385768 79.68684927950744,132.1259979979077 77.42814487862051,128.88944529066066 76.87713877710121,128.31450345582198 76.21677268596613,127.75552416660503 75.43863429833436,127.2338029927123 74.37447747631813,126.7014273107743 73.68887446449662,126.5523608278927 73.60054524212319,126.60559892238234 72.96120991821954,126.45653207614305 71.8129300272667,126.74934141738049 70.95066857068741,126.78660790435242 70.51322861224617,126.9409972598005 69.16725950928958,127.10603348652512 68.85179800077458,127.17524202058485 68.27976113202385,127.54790126354419 68.01897961833674,127.59581433849235 67.23663507724996,127.35624837978321 66.92537972218634,126.79725546557893 66.32810593276736,126.76531277326285 65.83598597948367,127.2338029927123 65.53314293133008,128.10155990181374 65.01157990393767,128.47421036443484 64.649850707523,128.24529692727447 64.09463845255596,128.3517684591825 63.06833701155483,127.62775635602156 62.80334934441635,127.55854861857733 53.44465792547635,129.11303151141328 52.96936258600181,129.2195006934453 52.50247955341911,129.5122894574124 50.576061274827225,129.25676483903953 49.814747500982776,129.07044375787518 49.692769051012874,129.1875599691084 49.57499675451254,129.18223651252993 49.3184213942659,129.07576722958402 48.87677528235872,128.66053427118095 48.750590678948356,128.0110585421171 48.186966117096745,127.54257758495078 48.060781513693655,127.28704016438132 47.79999999999927,127.06876730234217 48.05236920679454,127.26574530436483 48.21220303779046,127.53193022556661 48.72114760483964,127.87264429488641 48.834713747899514,128.13882510702388 48.86836297546688,128.56471065799633 49.3436583149487,129.04382638847892 49.60023367519534,129.1609426790019 49.83577826820692,129.0651202854351 52.48986109307589,129.50164263147963 53.03666104115109,129.171589597212 62.72763858237158,127.55322494141365 63.047306244327046,127.53725390561885 63.90115539399994,128.2772384171294 64.11566921978738,128.33579774778627 64.65826301441484,128.23997334311935 64.98634298325123,128.4529161474311 65.54155523822192,128.08558908877603 65.79813059846492,127.2338029927123 66.36596131378246,126.74934141738049 66.96323510321236,126.76531277326285 67.03473971179483,127.03150108282352 67.2450473841418,127.28171645045222 67.64463196157885,127.4786933855139 67.98953654420984,127.54790126354419 68.24611190445648,127.50531181455153 68.80132415942353,127.15927083122733 69.27241334545761,127.01020608440012 72.75931455276441,126.47782737449234 73.55007140075395,126.55768464058929 73.65101908348151,126.5097703003994 74.24829287290777,126.61624653262697 75.4218096845434,127.20718437982941 76.263040373884,127.75020051612955 77.23466182007542,128.6339166242833 77.67630793198259,129.1502957579214 79.29147085551813,131.44464061989493 79.69526158639928,132.1259979979077 80.07802155005629,132.58377835529245" stroke="#4dd2ff" stroke-linecap="round" stroke-linejoin="round" stroke-width="0.5"><title>2022-09-24 16.0km</title></polyline><polyline fill="none" points="116.20000000000073,132.92245049669145 115.39690831556436,131.895185319976 113.06535181236904,128.56732231737988 111.84344349680396,127.49622757899851 109.98251599147261,126.45789431890807 108.49722814498455,126.27754950330927 107.47393390191792,126.54533393939346 106.5542643923327,126.5890536785846 106.16135394456796,126.7366074486672 104.52926439233124,126.93880988700403 103.88592750532916,127.32681713406055 103.45847547975427,127.41971972417741 102.71151385928533,127.15740597797412 102.44813432835508,126.59998360596 101.8177505330641,126.56719381490257 101.31257995735359,127.06996768367026 100.99738805970992,127.96620121938759 100.65628997868771,128.12467946885226 100.45767590618925,128.31594549289366 100.34973347548657,128.30501603022276 100.11226012792758,128.09189091656663 99.40847547975136,128.173862247324 98.47153518123741,127.47983305088201 98.13475479744739,127.39786031044423 94.13656716418336,128.02084896190354 92.61242004265296,128.3378044093406 88.52787846481442,128.98810175875042 88.04429637526118,129.11378827346925 87.85000000000946,129.31051420635413 87.58230277185794,129.39248306204172 86.36902985075358,129.25040360637286 84.90964818764041,128.94984926353936 84.70671641791705,129.05914201081396 84.49514925374024,129.01542494743262 83.89498933902723,128.48535178577004 83.79999999999927,127.85144071922332 83.92953091685558,128.47988707775585 84.39584221749101,128.91706138165318 84.65922174840307,129.03728348504592 84.88374200426551,128.91159673208313 87.63843283583265,129.37062471681202 88.19973347548876,129.02635421770538 92.53901918977499,128.33233968134664 94.07611940299103,127.98259554991091 98.35927505330255,127.34867658627627 99.36098081023738,128.12467946885226 100.18134328359156,128.09189091656663 100.28928571429424,128.56185762045425 100.14248400854194,128.58918109769002 100.07340085287797,128.39791636857262 99.96977611941475,128.37059276183936 99.611407249482,128.44709881404924 99.51641791045404,128.55092822437655 99.48187633262933,128.50721061049626 99.43006396589044,128.3214102231177 99.49914712154714,128.27769236058884 100.11657782516704,128.16293274617783 100.33246268656876,129.12471751711928 100.7944562899902,129.09739440243357" stroke="#4dd2ff" stroke-linecap="round" stroke-linejoin="round" stroke-width="0.5"><title>2022-09-22 12.2km</title></polyline><polyline fill="none" points="152.20000000000073,132.9239090059491 148.9066371681438,128.4283197334007 147.7955752212365,127.41522522025844 147.07079646017883,126.95655147226353 145.95176991150583,126.47266974334707 144.72522123894305,126.31137443576154 143.78539823008396,126.54323622061202 142.93318584071676,126.59868121604086 142.42345132743867,126.77509656110851 141.01371681415912,126.95655147226353 140.42433628318759,127.2992972242937 140.0738938053073,127.38498316915866 139.38097345132337,127.15816700274081 139.14203539822483,126.63396435194227 138.5765486725577,126.58860031392396 138.0986725663679,127.01703624607035 137.8716814159343,127.53115285515742 137.8159292035307,127.84869191922189 137.4615044247803,128.04022210848052 137.33805309734817,128.19646969082896 137.1946902654854,128.18134898571225 136.97964601770218,127.98981952264148 136.44203539823502,128.08558437736065 136.28672566370733,128.0553428709136 135.4185840707978,127.40010419778628 135.239380530973,127.34466039614927 131.04601769910732,127.9999000452699 130.12610619468978,128.2065501574907 126.2075221238847,128.8416140538393 125.9048672566314,128.91217604021222 125.61017699115473,129.14906173042618 125.41902654866499,129.18938254883687 123.82610619469051,128.98273789280574 122.92212389380074,128.7760920896144 122.79070796460292,128.88193520528512 122.47212389380365,128.8012928587341 121.97433628317958,128.29223401390118 121.91460176991313,127.7277249761355 121.41681415928906,127.38498316915866 121.22964601769854,127.07248053573858 121.02654867255842,126.8960666001658 120.80752212389416,126.73981355899014 120.56460176991459,126.78013698723589 120.0548672566365,126.54827667814607 119.89159292034674,126.54323622061202 119.79999999999927,126.37186025802293 119.79999999999927,126.64404524177371 119.84778761061898,126.52307438360731 120.01106194689783,126.52811484388076 120.55265486724966,126.77005613427536 120.76371681414821,126.71461139413077 120.9907079646,126.83054121114401 121.30530973450004,127.12288436374365 121.41283185839347,127.34970074516241 121.93053097344091,127.67732196715588 122.04601769911096,128.3577568298242 122.49203539822702,128.7760920896144 122.72699115042997,128.85673449074602 122.95398230088176,128.73073066218421 123.53938053097954,128.90713590275482 125.45486725663432,129.17426224705196 125.92079646017737,128.8970556258064 126.31504424777813,128.79625270627002 135.05221238937884,127.33457969607116 135.48628318584088,127.40010419778628 136.3026548672533,128.03518185296343 137.01946902654163,127.97973899728095 137.0632743362803,128.08558437736065 137.2942477876095,128.18134898571225 137.81194690264965,127.85373219999747 137.82787610619562,127.59667701082799 138.05486725662922,127.0422382061588 138.5566371681416,126.58355986183233 139.15796460176716,126.58860031392396 139.39292035398103,127.07752092160445 139.50840707964744,127.07752092160445 139.83495575221605,127.28417615471335 140.16548672566933,127.34970074516241 140.41637168141824,127.29425686844479 141.12123893805983,126.86078371272015 144.77300884956276,126.27609099405163 146.10707964601534,126.43738645454141 147.57256637167666,127.21865144892217 148.9384955752248,128.38295788218238 149.83053097344964,129.5976283755881" stroke="#4dd2ff" stroke-linecap="round" stroke-linejoin="round" stroke-width="0.5"><title>2022-09-17 16.2km</title></polyline><polyline fill="none" points="188.1999999999971,132.90131333835598 184.9329403094962,128.38385328034929 183.8585114222551,127.4168340215474 182.10361090640436,126.47497338739413 181.57833456153094,126.35912791889496 181.49874723654284,126.40949555823317 180.81827560795136,126.29868666164111 179.8433308769272,126.54045110128936 179.0673544583624,126.58074502178715 178.6057479734627,126.7318468348385 177.09756816506342,126.92324158344854 176.41311717021745,127.33121131308872 176.09078850404694,127.396687519642 175.44215180545507,127.15996530486154 175.13971997052795,126.61096543349049 174.62240235814534,126.56563480671684 174.1090641120063,127.05419531766529 173.88224023580187,127.59311544772936 173.85040530581682,127.83487147363121 173.50817980838838,128.0212240044857 173.33706705968507,128.19750256627594 173.23360353721364,128.19246604753425 173.01473839350365,127.99100473858925 172.35814296241733,128.06655285732268 171.53043478260224,127.4218706453139 171.21606484892618,127.33624794846037 162.3778924097278,128.81195273618505 161.96403831982389,128.91268130387834 161.51834929993493,129.19471984230404 158.96757553427233,128.78173411268654 158.8442151805466,128.88246276221253 158.53780397936498,128.79684342750988 158.04038319823667,128.3183788115166 157.95681650699407,127.73917656793128 157.43551952837515,127.34632121713366 157.21267501842885,126.99375518993111 156.86249078850597,126.74192026719902 156.6157700810727,126.77214054795695 155.85969049374398,126.46489988272879 155.79999999999927,126.323870530774 155.90744288872884,126.51023063227694 156.39292557111185,126.62607563014899 156.62372881355986,126.76206712377098 156.8983050847528,126.7318468348385 157.2922623434024,127.04412196986232 157.43551952837515,127.31610140290286 157.92100221075452,127.6334082278263 158.02844509948045,127.85501773819851 158.04834193073475,128.29319629281235 158.494030950631,128.75151546463894 158.8044215180562,128.8723899095421 158.98349299926485,128.75151546463894 159.9544583640345,128.96304548544867 161.5223286661785,129.16953791688502 161.95210022107494,128.88246276221253 162.36993367722243,128.7918069899206 171.29167280765614,127.32617467705131 171.47870302137017,127.37654100682266 172.35416359615556,128.0564797836778 173.00677966101648,127.98596819187514 173.32512896093613,128.19750256627594 173.5042004421448,128.02626054642315 173.83846720707515,127.87516399183733 173.86234340457304,127.61829844040767 174.10508474576272,127.02901194305014 174.59852616064018,126.58074502178715 175.21134856300705,126.60592869991524 175.45806927044032,127.11463534717768 176.1663964627769,127.36143111505226 176.43699336771533,127.30602812603684 177.0736919675728,126.91820489216116 179.58069270450142,126.46993663539979 180.0462785556265,126.45482637532041 180.77450257920646,126.30372343682757 182.08371407516097,126.4346793523182 183.53220338982283,127.17507527847192 184.58275607958058,128.0061143746061 185.81635961678694,129.48179258710297 186.46897568163695,130.48904785185732" stroke="#4dd2ff" stroke-linecap="round" stroke-linejoin="round" stroke-width="0.5"><title>2022-09-11 16.4km</title></polyline><polyline fill="none" points="44.20000000000073,173.78613896486422 43.0734756487218,172.32904605702788 41.81027738719422,170.43683997238622 40.88255145084986,169.19977990709594 39.73946056499699,168.15139297393034 39.16791512207419,167.80017700232565 37.96269973155722,167.19733618945975 37.35802121947563,167.09773549930833 36.57525246069417,167.01386103513505 35.59782692062072,167.26024175647763 34.74050875622925,167.3126629842336 34.14825514507538,167.4751683391114 32.85606544802795,167.63243093623896 32.49160168732851,167.7582405539397 31.9780391154236,168.09373086885535 31.721257829471142,168.13042494566253 31.017180109924084,167.91550200108395 30.714840853888745,167.3388735714725 30.126728876384732,167.30217874435039 29.824389620349393,167.5275892758218 29.59659976990588,167.815903158742 29.339818483946146,168.6074447788851 28.784839575604565,168.98486289938228 28.47421705227316,168.76470277626868 27.757714431798377,168.8380896230883 26.999795474868733,168.22478098342617 26.676748050620517,168.0727628093664 21.715070944639592,168.86429917751593 20.99442669052587,169.06349121133462 17.39534705355254,169.60340130690747 16.964617154535517,169.69251195795368 16.529745621883194,170.00177674393126 14.852383995905257,169.80783131955468 13.85010865395816,169.57195043992397 13.676160040893592,169.69251195795368 13.357254250277037,169.5824340650761 12.88924964846592,169.11590999726832 12.872683113881067,168.6860738574287 12.78570880735424,168.49212184148564 12.301137670969183,168.1409089612207 12.015364949500508,167.7320302506414 11.882832672879886,167.62718885996583 11.799999999999272,167.65339923425563 11.857982871009881,167.58525222418393 12.160322127052495,167.84735545242438 12.276287869091902,168.08324684053514 12.748434104556509,168.37155658503616 12.885108014816069,168.6703480545002 12.914099450335925,169.09494249140334 13.377962418508105,169.57195043992397 13.622318803525559,169.6820283626039 13.899808257698169,169.57195043992397 16.48004601815046,169.99129323232046 17.068157995647198,169.64009395276298 26.63947334781551,168.05703675727273 26.838271762750082,168.1094569060333 27.741147897224437,168.79615429907426 27.931663044862944,168.8380896230883 28.470075418634224,168.73849315440748 28.64816566533773,168.9586534265618 28.797264476539567,168.99010479180652 29.298402147509478,168.64938030732446 29.59245813624875,167.74251437408384 30.089454173587,167.29693662335558 30.710699220249808,167.28121025609653 30.93434743704347,167.815903158742 31.029605010866362,167.79493494875715 31.348510801482917,167.97840640106006 31.737824364055996,168.0780048253 32.02773871915633,168.02034261091467 32.70696663683702,167.58525222418393 33.257803911543306,167.5328313655773" stroke="#4dd2ff" stroke-linecap="round" stroke-linejoin="round" stroke-width="0.5"><title>2022-09-10 13.4km</title></polyline><polyline fill="none" points="80.19999999999709,173.76764499165438 77.04682651622352,169.34593527350808 75.87529170406196,168.2680343461907 75.5263238876687,168.04193425775156 73.99335812283607,167.23742791784753 73.64023592768353,167.15855385005125 73.36189255032514,167.17958695046764 72.601641236055,167.03235500834853 71.26393127324263,167.3268183343098 70.52029747403503,167.3846590823814 70.34165918707004,167.50559854989115 68.75884087703525,167.68963614726817 68.01520707782765,168.11554838457232 67.70362867034419,168.1681298182957 67.02231055262746,167.9209964607071 66.74396717526542,167.3741425891276 66.14573663289411,167.3268183343098 65.62643928708712,167.8316074121176 65.37717656109453,168.40474538889976 65.33978715219928,168.6729079592551 65.03651750223798,168.8096175765313 64.81218104884829,169.0199391248534 64.47567636875829,168.8096175765313 63.76112322091285,168.8569400242195 62.917784331322764,168.20493677952982 62.660212847797084,168.11029023729498 57.76635466086009,168.88848829064955 54.61733555583123,169.4826425213796 53.425028849851515,169.63512311470913 52.98051032183503,169.75079764818656 52.61077061160904,170.0136930337285 52.44044108218441,170.05575613026303 49.893806898311595,169.64038105552754 49.60715476342375,169.73502386845212 49.36204641619406,169.63512311470913 48.88844723681177,169.18819554331276 48.77212463135584,168.54671403918474 48.25282728553793,168.1681298182957 48.06172586228422,167.8578983301195 47.79999999999927,167.65282869757357 48.090806513646385,167.82634922638317 48.2362097704754,168.0892576410224 48.734735222460586,168.39422917193224 48.84690344915725,168.59929488905982 48.90506475188522,169.125099471843 49.41189896139258,169.62460723093682 49.6694704449219,169.69821835749826 49.86057186817925,169.58254366740584 50.483728683160734,169.73502386845212 52.43628670342514,170.00843514346707 52.59830747531669,169.97688778689553 53.01374535196737,169.69821835749826 62.58958840877676,168.0839994901762 62.90947557378968,168.13658096660583 63.79020387227865,168.83590783237014 64.54630080779316,168.77806924604374 64.64600589818656,168.95684277997134 64.79556353377848,169.01468110003043 64.98251057827292,168.83064978263064 65.33978715219928,168.6466175930509 65.6056673932435,167.77376732983976 66.02941402743818,167.3741425891276 66.1789716630301,167.32156008022503 66.75643031157233,167.35310959412163 67.01400179510529,167.8421237814582 67.75348121553543,168.12606467701335 68.10244903192142,168.03141794252952 68.7962302859305,167.631795853511 72.55594306961939,167.0428715941489 73.39928195922039,167.09545448047356 74.03490191049423,167.2163948487687 75.06934222335985,167.73170176133863 75.73404282600313,168.14709725334978 76.51922041287617,168.8043595232375 77.17561225798272,169.49315844359808 79.97981792537757,173.41539881994322" stroke="#4dd2ff" stroke-linecap="round" stroke-linejoin="round" stroke-width="0.5"><title>2022-09-03 16.2km</title></polyline><polyline fill="none" points="114.43025210083943,174.79337069135 114.68189457600602,174.4697116325442 114.91291061879383,174.35486421688984 115.68846447669785,173.61878856978728 115.98961038961352,173.27945818622175 115.95660809777473,173.21159175126013 116.19999999999709,173.0027712023184 112.95339954162046,168.4345387764588 111.67868601985174,167.2388777353808 110.83712757831017,166.72718613599136 109.80580595874562,166.21548774596522 108.40733384262785,166.0484010866203 107.41726508784632,166.27292361787113 104.65332314744228,166.67497232566893 103.99740259740429,167.06657417960741 103.70038197097165,167.15533671358935 102.95370511840156,166.92559797036665 102.64430863253438,166.39301652814174 102.07501909854909,166.32513797264983 101.54285714285652,166.82639218081022 101.26233766233418,167.67224388111572 100.95706646293911,167.79755366606332 100.75905271199736,167.99595999271696 100.64766997708648,167.99073878666604 100.40840336133624,167.78711119953732 99.69885408708069,167.8602084058184 98.87792207791063,167.22843511755127 98.53964858671316,167.11356613481257 88.92773109243717,168.72170075395843 88.65546218486998,168.98275524144628 88.49457601222821,169.03496592686133 86.36592818946156,168.7425851780099 85.84614209320716,168.6016150962605 85.72238349885083,168.71125853770718 85.4047364400285,168.61205734219402 84.91382734911167,168.15781702939785 84.88082505729108,167.67224388111572 84.74056531703172,167.42162308953266 84.3321619556882,167.16055803274867 84.06401833461132,166.78984261505684 83.79999999999927,166.596651477641 84.14239877768705,166.85249899228074 84.32803666920881,167.16055803274867 84.79419404125292,167.47383588876983 84.87257448433593,167.61481009358613 84.92620320855349,168.1421534748879 85.39648586707335,168.61205734219402 85.72238349885083,168.71125853770718 85.89564553093805,168.6016150962605 88.46569900687246,169.02974486150924 88.89885408709233,168.7530273857701 89.15462184873104,168.67471075853246 98.58090145148526,167.10312348306616 98.84904507256579,167.17100066895728 99.69060351413282,167.83932350388932 100.44965622611926,167.78711119953732 100.62704354469679,167.99595999271696 100.77967914437977,167.99595999271696 100.91168831168397,167.83410227662898 101.2870893812069,167.63047386231483 101.32009167302749,167.34330375809077 101.55935828875954,166.7637357611493 101.96363636363094,166.38257368122504 102.18227654698785,166.32513797264983 102.64843391902468,166.3512451235256 102.94545454544641,166.88904849864775 103.47761650113898,167.10312348306616 103.74576012223406,167.12923010715167 104.73170359051801,166.63320122651567 107.88754774635527,166.1006157454467 108.51046600458358,166.00662930864928 109.21176470588034,166.1423874216016 109.8800611153456,166.17371614900912 110.2265851795346,166.41912363306255 111.23728036668763,166.88904849864775 112.01283422460256,167.47383588876983 112.65637891519873,168.06905680309137 113.4236822001476,169.008860592985 115.72971734148814,172.3084347473632" stroke="#4dd2ff" stroke-linecap="round" stroke-linejoin="round" stroke-width="0.5"><title>2022-09-01 16.9km</title></polyline><polyline fill="none" points="152.1999999999971,173.78433597609182 148.81851709564944,169.11623169529048 147.83104110640124,168.22875573470083 147.18793699576054,167.8769105307838 146.92654629273238,167.6405947958301 145.951517479818,167.19946823755163 145.35820207452707,167.10494046505482 144.57402996542078,167.01566402390745 143.5533615059394,167.2729896790661 143.2919708029185,167.24148050690565 142.623972339592,167.3412594642432 142.24640799076587,167.48830167023698 140.8191317710298,167.61958888302615 140.04740683826094,168.076464918875 139.73622742987573,168.1499846977349 139.04748367267166,167.91892206624834 138.7404533230947,167.35701401295955 138.10564733000137,167.31500186877747 137.62435651171108,167.78763586682908 137.3795620437886,168.36529181977312 137.33807145599712,168.64361388912585 136.99369957740782,168.81165643562053 136.80284287359973,169.00595472233908 136.4916634652327,168.77489719079313 136.051863234723,168.86942089281365 135.63280829810537,168.75389189238922 134.88597771800778,168.17099032324404 134.6287360737515,168.08696775294447 125.35973876295975,169.64135583606912 124.96972723779618,169.7253750387572 124.67514406452756,169.977431554762 124.46354206683827,170.0404454277923 123.02796772953661,169.85665467859144 121.82888974259549,169.5835925286192 121.63803303880559,169.70962145211888 121.32685363042037,169.59409495456566 121.12354975027483,169.33678470043378 120.90779869381004,169.20550330084734 120.82481751823434,169.0164573047041 120.84141375335093,168.68037325839032 120.72938916633939,168.43881105108449 120.24809834804546,168.11847623814174 120.08628505570232,167.84015039992664 119.79999999999927,167.6143374030471 120.11117940835902,167.84015039992664 120.2356511717262,168.09747058420544 120.75428351901064,168.44406241942488 120.89535151747259,169.11623169529048 121.35589704186714,169.59934616646206 121.61313868612342,169.7043702551564 121.83303880137828,169.55208523374313 122.49688820591473,169.7306262328857 124.46354206683827,170.01418965980338 125.09419900114517,169.6623606537978 134.64118325008167,168.09221916893148 134.89842489434523,168.12897906084618 135.7987706492495,168.84841564560338 136.4667691125578,168.769645867269 136.6451786400212,168.9534417678624 136.8069919323898,168.97969825399923 136.98125240107038,168.80640511707315 137.31317710334042,168.6593679087855 137.5787168651441,167.84015039992664 138.13054168265808,167.30449882562243 138.70726085284696,167.2992473029699 138.9935459085682,167.82964749901294 139.084825201684,167.80864168860717 139.4374951978425,168.03445355407894 139.83165578178523,168.09747058420544 140.7112562427901,167.6300918408415 141.07222435650328,167.55657107636944 144.52424126007463,167.01566402390745 145.36235113329894,167.07343115635376 145.9017287744864,167.16270746451482 147.21283134843543,167.7981387791442 147.90987322320143,168.26551549719807 148.60691509796015,168.87467220284816 149.8018440261112,170.31875547573873 151.8639262389479,173.31702575809322" stroke="#4dd2ff" stroke-linecap="round" stroke-linejoin="round" stroke-width="0.5"><title>2022-08-28 16.3km</title></polyline><polyline fill="none" points="188.1999999999971,173.67217691954647 185.03112974841133,169.29254306270013 184.10004933399614,168.44285485001092 183.58455846078505,168.08375461605465 182.12599901332578,167.32508079759282 181.5785397138643,167.21380734165723 181.03507646769867,167.12782308045644 180.1199802664123,167.32002292042307 179.90019733597,167.44141178344216 179.0410458806109,167.49199035990023 178.6334484459876,167.61337866401664 177.09896398620185,167.8106338167272 176.44361124814895,168.2051409969099 176.19185989146717,168.27089178847382 175.48855451406416,168.0432924014276 175.16887025161122,167.49199035990023 174.63339911199,167.47681679416928 174.14188455845579,167.92696329023602 173.8621608288122,168.72608640191174 173.39861864826162,169.07506518209993 173.25076467686813,169.07506518209993 173.0070054267453,168.87781670698314 172.3516526886997,168.93345099773433 171.54444992599383,168.30123826862837 171.30468672916322,168.2152565108263 162.341539220517,169.70220725908075 161.9539220522929,169.78818559406864 161.7021706956075,169.99048677807878 161.4504193389257,170.0764644494957 159.6122348298013,169.82864591852558 158.9329057720788,169.65668923692647 158.81702022693935,169.75784032195952 158.6651702022682,169.76289786902998 158.4294030587007,169.63140142285556 158.03379378391037,169.25208215753082 157.91391218549688,168.62999022324584 157.40641341884475,168.24560303618273 157.07474099654064,167.79040256694134 156.79102121361575,167.60326298706423 156.58322644301734,167.64878351172592 156.04775530341067,167.4211803336584 155.89990133201718,167.39589100603553 155.79999999999927,167.48187465010415 155.83596447952004,167.39589100603553 155.99181055747613,167.40094887292798 156.58322644301734,167.6386678443596 156.83098174642146,167.5931473073797 157.09072520966947,167.78028693795932 157.37844104587202,168.15456338615695 157.93389245189246,168.56929777248297 158.04178589046933,169.21667882956172 158.4893438579129,169.66680435774106 158.74109521460196,169.75784032195952 158.96887025159958,169.62634385799174 161.49037987173506,170.0562344269747 161.89797730636565,169.77301296109363 162.09777997039419,169.71737992081762 171.26472619635024,168.1849099608262 171.52846571287955,168.25571853915608 172.35564874198462,168.91827801757245 172.50749876665577,168.94862397174074 172.97104094722454,168.8373553525562 173.35466206216006,169.06494990101783 173.5185002466751,168.8929897035814 173.8621608288122,168.73620177475823 174.10592007893138,167.92696329023602 174.42160828810665,167.57797378274336 174.64538727184117,167.44141178344216 175.20483473112836,167.46670108023318 175.46058214109144,167.9522522582738 176.17587567834926,168.22537202201784 176.64341391218477,168.05846573704184 177.07099161322185,167.78028693795932 177.37868771584544,167.7044196331699 180.13596447952295,167.34531229942877 180.36773556980916,167.2289810142538 180.8272816970857,167.1480546891362 181.51859891466302,167.2643862263576 181.61050814011105,167.21886523320427 182.20991613222213,167.33519654988413 182.74938332511374,167.64372567838655 183.148988653189,167.77522912243876 183.98416378886031,168.3113537565332 185.07109028120976,169.3026582821185 186.30187469166412,170.96657459455673 187.79240256537378,173.18164300350327 187.90828811051688,173.2473850361057" stroke="#4dd2ff" stroke-linecap="round" stroke-linejoin="round" stroke-width="0.5"><title>2022-08-26 16.9km</title></polyline><polyline fill="none" points="43.73340070742779,213.35500470885017 42.21081354219132,211.20528512340388 41.13845376453901,210.00864189079948 40.643203638206614,209.5683092029467 39.87781707933391,209.08134715235428 38.76043456291154,208.54257340535332 37.422031328947924,208.37679534124254 36.734411318851926,208.51149007305867 36.460181910057145,208.65654540772448 35.60065689741896,208.6876286221559 35.199545224870235,208.84822482775053 33.62784234462015,209.02436182642487 32.9484082870149,209.4284377590957 32.629156139460974,209.49578333294266 31.94562910561217,209.257483077683 31.63865588681074,208.7031702198983 31.057453259229078,208.68244808816598 30.55401718039502,209.17977615177733 30.259322890349722,210.00346153570354 29.948256695304735,210.15887188359193 29.75997978778105,210.34018315824142 29.45300656897234,210.12778986452759 28.777665487628838,210.2210358459888 27.934512379997614,209.53722670407296 27.648004042453977,209.43361819207348 18.13592723598049,211.0343383816944 17.77983830217636,211.28816811715296 17.501515917138022,211.3451500712181 14.99252147549123,210.93073392407314 14.820616472963593,211.05505923955207 14.517736230409355,210.93073392407314 14.063415866599826,210.50595271452403 13.956998484089127,209.87395243020364 13.441283476491662,209.4698812031893 13.134310257708421,209.05544474199633 12.774128347642545,208.811961227344 12.561293582610233,208.8689468696939 12.04148559879468,208.6410037910282 11.799999999999272,208.6410037910282 12.237948458809115,208.66172594521413 12.549014653865015,208.83268328893973 12.757756442650134,208.7860586345887 12.958312278922676,208.87930788644007 13.29393633147265,209.17459568444247 13.449469429000601,209.45952034637594 13.891510864064912,209.7340821038306 14.030672056600451,210.03972400667772 14.087973724108451,210.52149357361486 14.54638706417245,210.92555369383263 14.791965639204136,211.02397794855642 15.041637190504844,210.894472297623 15.721071248110093,211.06541966428267 17.579282465889264,211.3347897222484 18.242344618483912,210.99289663230593 27.62344618494535,209.43361819207348 27.88130368872953,209.4906029083977 28.74492167761491,210.16405221766036 29.47756442647733,210.12260952555152 29.6044466902531,210.28838002458724 29.74770085901764,210.34018315824142 29.98100050530411,210.12778986452759 30.275694795356685,209.99310082339434 30.55401718039502,209.12279097245118 31.016523496720765,208.6669064820053 31.659120768064895,208.68244808816598 31.892420414351363,209.20567847794882 32.00702374937828,209.19013708434795 32.34264780191734,209.38699427013125 32.698736735728744,209.45952034637594 32.944315310767706,209.39735514657878 33.69332996462617,208.97255691099053 37.450682162714656,208.3664341883814 38.0769075290591,208.4700455907041 38.23244062657977,208.42342049438594 38.8300151591684,208.54775395829347 40.09474482062069,209.20567847794882 40.71278423446347,209.6304741249587 41.703284487113706,210.50595271452403 42.94754926731184,212.18432902100903 44.20000000000073,214.03356581161643" stroke="#4dd2ff" stroke-linecap="round" stroke-linejoin="round" stroke-width="0.5"><title>2022-08-21 16.1km</title></polyline><polyline fill="none" points="80.19999999999709,214.47945014582 79.75937616968076,213.96276062035395 77.0347847785415,210.10015472367377 75.95545851528732,209.11269673410425 75.27633187773245,208.68291421207323 74.12019962570412,208.10986324449914 72.74577666874029,207.96148255950902 72.18792264504373,208.06893069995203 71.85240174672435,208.2121944118735 71.04796007485857,208.248010254978 70.52244541484106,208.41685591515852 69.20865876481184,208.57546781769634 68.17379912663819,209.06664884058046 67.45020586400278,208.87222378254592 67.2723393636843,208.69314718607347 67.08234560200435,208.28382606412197 66.52853399875312,208.25312680122806 66.03940112289638,208.71361312577574 65.8008983156542,209.30200415122454 65.79281347473079,209.51689250236086 65.26325639426796,209.895502338004 64.91156581410542,209.67038343350214 64.26073611977336,209.7522450085089 63.379488459137065,209.08199814465115 63.0763069245113,209.01548444861328 55.419962570187636,210.3150385356712 54.47403618216049,210.40713122388843 53.63725514660109,210.61178083854247 53.44726138490296,210.81131314566665 53.22492825951849,210.8880560601683 51.43817841546843,210.65271062845204 50.64586400499684,210.44294498645831 50.48820960698504,210.58108346699373 50.22949469744344,210.49922368763873 49.70802245790037,210.00806128728436 49.703980037425936,209.59875440989708 49.627174048651796,209.4094484795496 49.10974422957952,209.03595021371075 48.9480474111042,208.759661449556 48.43466001247725,208.3810402321178 48.49125389893743,208.26335989163636 48.38210854647332,208.17126197818652 48.38615096693684,208.07916384024793 48.53572052401796,208.16614542085517 48.592314410485415,208.0893969777644 48.54380536494136,208.17126197818652 48.38210854647332,208.06893069995203 48.49529631940095,208.29917568623205 48.28509045539613,208.43220548320824 47.79999999999927,208.23266061210597 48.24466625077912,208.42197243854753 48.53167810356172,208.39127328788163 48.95208983156408,208.7187296089578 49.12995633187893,209.01036800561633 49.594834684961825,209.296887747023 49.703980037425936,209.5015433749577 49.776743605736556,210.03364281990434 50.29821584529782,210.50433992904073 50.49225202744128,210.56573477187703 50.69841547098986,210.42759623521852 51.28052401746754,210.59131592693666 53.19258889581761,210.87270748972514 53.350243293836684,210.8317779380959 53.718103555831476,210.55038607051756 63.136943231438636,208.94897063549797 63.34310667498721,209.01036800561633 64.2162694947001,209.69596519475454 64.41030567686175,209.73177963138733 64.93986275732459,209.6550343684503 65.21474734871299,209.8699207118516 65.72813474733994,209.56293984717195 66.01918902057878,208.68291421207323 66.46385527136226,208.26335989163636 66.65789145353119,208.2121944118735 67.09447286337672,208.2275440630874 67.40573923892225,208.759661449556 68.14145976293366,209.00525156192452 68.38804741110653,208.9438541834752 69.10355583280398,208.50895322996803 72.88726138490529,207.92054985418144 74.22126013723755,208.08428040934814 74.85187772925929,208.4680211177656 75.41781659388289,208.7187296089578 75.97971303805025,209.11781316324777" stroke="#4dd2ff" stroke-linecap="round" stroke-linejoin="round" stroke-width="0.5"><title>2022-08-19 15.6km</title></polyline><polyline fill="none" points="116.20000000000073,214.43917763299032 116.11582333291517,214.3072880686268 116.07173079302083,214.22105233326147 113.73081776567778,210.9287279040691 113.01732030186395,210.0459908210505 111.97513299517232,209.09727893018135 110.2635407645721,208.17391059850706 108.92072250402634,207.9811165365245 108.20722504020523,208.1181018931311 107.96271186440936,208.23479272776603 107.07284424099635,208.30074825611882 106.72010392180528,208.44280592285577 105.19289867622865,208.6203772488152 104.59965359395937,208.9653705618075 104.2469132747683,209.08713214910676 103.59354200172675,208.90448961975562 103.40915501669951,208.68633209837571 103.24080168254295,208.30582175350355 102.71569961648129,208.2753807589579 102.58743040949412,208.33118923005895 102.15051342323568,208.78780087098494 101.9100086601502,209.56402788925698 101.5933440554254,209.71115407321486 101.4089570703909,209.89379267026743 101.11233452926535,209.69086084081937 100.43090436719285,209.77203370449206 99.50496102932811,209.0668385786994 99.29251515526266,209.03639820248281 94.49043671904292,209.7872535968454 93.34803909439142,210.05613734245344 90.34172955585746,210.49750836405656 89.93687987132944,210.58882585731408 89.48793764691436,210.8982890405241 86.98267969812514,210.48228876019857 86.78626747494127,210.57360629055984 86.52972906098876,210.49750836405656 86.00061858221306,209.980038364949 85.98458493133512,209.55388123458397 85.88437461338253,209.34587420820753 85.39935667450118,209.02117800510678 85.28712111838468,208.79287430240947 85.03459111716074,208.57471613109374 84.76201905233029,208.4072915566794 84.55358159098978,208.44280592285577 83.99240381046911,208.20435167550022 83.80400841272058,208.2500132446221 83.83206730174425,208.4275854843363 84.13269825559473,208.71677275900947 84.19683285908468,208.66603831087195 84.0525300012414,208.46309983127503 83.92426079425422,208.49354067330933 83.79999999999927,208.3667036683837 83.86012619077155,208.19927816438576 84.55358159098978,208.44280592285577 84.80210317950332,208.39714458872913 84.97446492638846,208.50876108503508 85.28311270567065,208.78780087098494 85.39935667450118,209.00595780152798 85.94049239143351,209.37631433298156 86.0166522330801,210.00033144074405 86.52572064826745,210.49243516345814 86.79027588767349,210.5685331002751 86.97065445997578,210.46199594546852 87.50778176419772,210.59897223172447 89.46789558332603,210.8830695994693 89.997006062109,210.5533135252699 99.28449832982733,209.02117800510678 99.54504515650115,209.0668385786994 100.37478658914188,209.72637399031737 101.0802672275131,209.67564090929227 101.39292341952387,209.89379267026743 101.90199183472578,209.558954562257 102.16654707410635,208.71677275900947 102.71169120375271,208.26523375527904 103.2969194606012,208.2906012593303 103.52940739825135,208.77258057261497 104.05851787702704,209.0008843989781 104.3270815291362,209.03132480404747 104.54754422863334,208.9704439691668 105.18087343807201,208.54934881942245 106.97664233576506,208.32104224151044 108.97283186935238,207.9608223670075 110.28759124086719,208.14854301547166 111.40994680193035,208.71677275900947 112.08336013856024,209.14801279435414 113.20571569961248,210.1931151124627 114.42026475318562,211.8976854718603" stroke="#4dd2ff" stroke-linecap="round" stroke-linejoin="round" stroke-width="0.5"><title>2022-08-14 16.5km</title></polyline><polyline fill="none" points="152.20000000000073,214.5286699713215 149.75081605105515,211.0668007432796 148.87610749785017,209.9396109439549 147.93380782918393,209.0740670004052 146.3951159651515,208.21353530493798 145.8424591974508,208.0424330607202 144.9478709044015,207.94681675757238 144.82064056939998,207.87133002867995 143.89424469260484,208.1732760242412 143.04736777518337,208.21353530493798 142.61796539452916,208.37457199162236 141.15084059394212,208.53560798044782 140.5345686587316,208.89290408887246 140.1966130813562,208.99355025986006 139.49684623879875,208.75199899155268 139.3338323720709,208.54567270656844 139.23840962081522,208.2437297368524 138.6102098416959,208.19843807979487 138.1410479813494,208.67651389823368 137.8826113633586,209.45651913564507 137.35778623143779,209.8238707702476 137.03175849798208,209.6024537813828 136.35982329119724,209.6527759401506 135.6322248128672,209.0740670004052 135.25450975579224,208.94322720844502 131.1950668793761,209.597421561768 129.40191434532608,209.95973963302822 126.4000736286689,210.40256803436205 126.00645477973012,210.50824221397488 125.75994600564809,210.7145576033945 125.51741317953929,210.78500649845228 123.79582770893103,210.5635952357552 123.04039759480293,210.38747169845738 122.81774450852754,210.4931459209838 122.57521168241874,210.38747169845738 122.11002577002728,209.95470746177307 122.01857896674483,209.36090647082892 121.50965762669875,208.95832413101743 121.3347159160694,208.66141686117044 121.12399067370279,208.485284308892 120.85760215977643,208.32424810199154 120.66675665726507,208.36953960571918 120.39639219536548,208.2034704888647 119.93915817891684,208.14308153508682 119.79999999999927,207.91158963650741 119.89144680329264,208.01727089954147 119.96301386673804,208.38966914521006 119.9153024911102,208.38966914521006 120.25723401645519,208.35947483187556 120.70254018898413,208.88787177317136 121.06037550620385,208.78722531598032 121.263148852624,208.93819489954694 121.94701190329943,209.22000314797333 122.04641060254289,209.33071294661931 122.09412197816346,209.85406389378477 122.54340409866563,210.36734324106146 122.84160019635601,210.46798541907265 123.05232543870443,210.34218265397067 123.76004417720469,210.51830640586923 125.5293410234408,210.76991031789657 125.68440299424037,210.73971793838427 126.07802184317552,210.44785700527427 129.92276352927365,209.81883858059518 131.12747576389665,209.54206710093422 135.36186035096398,208.92813027973898 135.56463369738412,208.98851795778683 136.3558473432313,209.6276148692814 137.0635660817279,209.57729267645118 137.1510369370444,209.70309803076452 137.32995459565427,209.77858103893232 137.85875567555559,209.47161584971764 138.13707203338345,208.61612571316437 138.65792121733102,208.16321119725035 139.21057798502443,208.1934056700411 139.49287029083644,208.69664327145074 140.18866118542792,208.96838874266905 140.45902564732023,208.90296871824103 141.15084059394212,208.48025193798458 142.8923058043947,208.22863252395837 143.6715916063331,208.0424330607202 144.0294269235601,208.03740062985526 144.27991164560808,207.93171942407935 145.14666830286296,207.88642738672934 145.46474414038312,207.9770114062012 146.45873113265043,208.05249792042378 146.85632592956244,208.26385934448626 147.41295864522908,208.71174029419853 148.0411584243484,209.08916386981582 149.05104920849772,210.05031859892551 149.81443121856137,211.11208890478883" stroke="#4dd2ff" stroke-linecap="round" stroke-linejoin="round" stroke-width="0.5"><title>2022-08-12 16.3km</title></polyline><polyline fill="none" points="188.20000000000073,214.8509454218074 185.1950340798503,210.65365792280136 184.1736611489796,209.81015008897884 184.00014605647084,209.5955266720266 183.2824245374868,209.12135422740175 182.32414800389597,208.67712398175354 181.574878286272,208.48245960270287 181.21207400194908,208.42755407914228 180.06845180136588,208.67213260026256 179.11411879260413,208.7669687330199 178.79074975657568,208.94166623354977 177.36319376826214,209.0315103399662 176.68885102239074,209.47573631452178 176.420691333984,209.53563154193398 175.71480038948357,209.31601523222344 175.57677702045476,209.17126740356616 175.403261927946,208.7769514696447 174.85511197663072,208.737020506931 174.38977604674074,209.20121527682568 174.15316455696302,209.7652290120932 174.13739045765033,209.97486023584497 173.7785296981492,210.1894814440784 173.64444985394584,210.34919874154002 173.52220058424064,210.3292341171982 173.30136319376106,210.13457846324673 172.64673807204963,210.20944614411565 171.61353456670986,209.47074504116608 167.25199610515483,210.18449026738745 165.95851996105193,210.4739773986439 162.75243427457826,210.95811458939716 162.38174294061173,211.03298059762164 161.9085199610563,211.33244311000817 160.20886075949238,211.09786434843045 159.40438169424306,210.90820383278333 159.021859785782,210.46898626045368 158.6117332035028,209.05646699733916 158.18188899708548,208.59726179678182 157.4838851022323,208.36266562766104 156.38364167477994,208.252854141836 156.09970788705323,208.15302523443825 155.9419668938608,208.00827283842955 155.79999999999927,207.54905457818677 155.97351509250075,208.0432131239977 156.10365141187867,208.1280679653355 156.72278481012108,208.29777706193636 157.25910418695275,208.3127513564723 157.81908471275165,208.43254549375342 158.31202531645613,208.6920981221847 158.789191820837,209.345962987878 159.13227848101087,210.51390647970766 159.44381694254844,210.92317706685208 159.85000000000218,210.98306994236918 161.92823758519808,210.45900398207596 162.15696202531763,210.5937645120648 162.27132424537558,210.8383286599783 162.2752677701974,211.07790012957412 162.75637779941098,210.9381502948563 167.0429892891916,210.1794990900271 171.57409931840812,209.46575376713736 171.78704965920406,209.51566647693835 172.66645569621323,210.19946379545217 173.34079844206644,210.1395696467116 173.56557935735327,211.05294484079423 174.0545764362323,210.96310566133616 174.12555988314853,210.8882395112014 174.0821811100286,210.64367569444585 174.25175267770464,210.5488443901595 174.25175267770464,210.34420758646593 174.41343719571523,209.9948250521229 174.38188899708257,209.69036042897278 174.27935735151186,209.51067520901051 174.31090555015544,209.31102393725814 174.40555014605707,209.12135422740175 174.8432814021471,208.737020506931 175.43481012657867,208.74201187964354 175.66353456669822,209.23116312573984 176.27083739045702,209.48571885917045 176.68490749756893,209.46575376713736 176.7519474196779,209.59053541491085 177.06348588120818,209.40585842617293 177.35136319377852,209.0464843364207 177.77726387537405,208.95164892285902 180.2380233690419,208.60724457936522 180.9005355404115,208.44751973353777 182.33992210321958,208.60724457936522 184.10267770204518,209.57057037964842 185.13193768257042,210.508915346938 187.8569133398305,214.37184996302312 188.01465433301564,214.47665262663213" stroke="#4dd2ff" stroke-linecap="round" stroke-linejoin="round" stroke-width="0.5"><title>2022-08-07 17.9km</title></polyline><polyline fill="none" points="44.20000000000073,259.9251756526646 41.05654885655895,255.56801468535195 40.135966735968395,254.75335480585272 39.451143451140524,254.30812569052068 38.523076923080225,253.86762747778994 37.64365904366423,253.67816417471477 37.44158004158817,253.65448118968197 36.03825363825672,253.96709530107546 35.58918918919153,253.98604152104235 35.15135135136006,254.13287437794133 33.86403326402797,254.2465510050788 33.269022869033506,254.61126102307026 32.8985446985389,254.72019964150968 32.25862785863137,254.52126799542748 31.959251559252152,253.98604152104235 31.431600831601827,253.9813049670156 30.975051975052338,254.3981192665742 30.724324324324698,255.1606871173135 30.234095634095866,255.482760470597 29.91226611226375,255.26962402457502 29.339708939707634,255.350142390158 28.527650727646687,254.75335480585272 28.23950103950483,254.68230798661898 24.71060291061076,255.23173296488312 23.378378378391062,255.5111785652698 19.928066528063937,256.0558542512954 19.557588357594796,256.13637080709304 19.14220374220531,256.41107295559414 17.75010395010395,256.24056842771097 16.724740124736854,256.00849148485577 16.593762993768905,256.11742575181415 16.361746361744736,256.0558542512954 15.897713097718224,255.63432337541963 15.837837837840198,255.15121432673186 15.748024948028615,254.98544007633245 15.283991683994827,254.66336214378316 15.179209979225561,254.44548421360014 14.999584199591482,254.274970104143 14.718918918915733,254.09024554749703 14.539293139296205,254.14234744429996 13.895634095631976,253.91499314321118 13.697297297301702,253.70658373560582 13.483991683995555,253.77763253680314 13.469022869030596,253.82499832408212 13.551351351365156,253.76815937164793 13.614968814974418,253.82026174824205 13.439085239089763,253.96709530107546 13.091060291062604,253.51711956015424 12.754261954269168,250.9829375409281 12.694386694391142,249.4433915094378 12.241580041576526,244.00943646462838 12.103118503124279,243.07131863516042 11.799999999999272,242.42694028887126 11.85613305613515,242.36060654951143 12.121829521835025,242.50748823173853 12.241580041576526,242.38429718516272 12.18918918919735,242.27058198762825 12.065696465702786,242.2137242501267 11.826195426201593,242.37008280570808 11.81496881496787,242.469583340564 12.076923076929234,242.88179682512055 12.166735966740816,243.2845294433173 12.885239085240755,251.2150478323092 13.173388773389888,253.5692223107144 13.40166320166827,253.93393939141606 13.555093555103667,254.05235321016517 13.832016632022714,254.12340130898156 13.835758835761226,254.18497621123242 14.02661122661084,254.1044551634186 14.168814968823426,254.12340130898156 14.535550935557694,254.60178808370983 14.864864864866831,254.5117950316744 15.160498960500263,254.71072673163508 15.134303534305218,254.49284909647758 14.924740124744858,254.26076055749218 14.999584199591482,254.2560240406674 15.201663201667543,254.44548421360014 15.302702702705574,254.64915275492604 15.77422037422366,254.9664943976968 15.845322245328134,255.09911393270522 15.890228690233926,255.57275102454514 16.301871101870347,256.0037552046888 16.58627858627733,256.10321695362654 16.788357588360668,255.98481007758164 17.349688149693975,256.13163454423557 19.15343035343176,256.38739182086283 19.587525987535628,256.10321695362654 28.303118503114092,254.63967982581744 28.54636174636471,254.7012538191957 29.320997920996888,255.32646053716599 29.9983367983441,255.28856953903596 30.20041580042016,256.1458433308835 30.76923076923049,256.01322776438974 31.439085239086126,255.97060122551557 32.49438669439405,255.7858856235216 32.53929313928893,255.30751504323416 32.38960498960296,254.95702155452454 32.40083160083668,254.71072673163508 33.14178794178588,254.63494336029908 33.804158004157216,254.2133953603261 34.4066528066578,254.17550315640256 37.16465696466548,253.69237395805249 38.51559251559593,253.84868119368184 39.81413721413264,254.52600447633085 40.28191268191222,254.83861079844428 40.99667359668092,255.487496821308 41.88731808730881,256.59578525626785 43.78461538461852,259.2858436136412 43.668607068604615,259.49895559145443 43.810810810809926,259.7357451553835 43.77338877339571,259.8162532420574 43.87068607069159,260.0719835825985 43.81455301454844,260.40348309387264 43.51517671518013,260.71603689913536 43.455301455305744,260.88178399627213 43.23076923076587,261.03805911154996 42.815384615383664,261.54950006318904 42.78544698545011,261.521086873101 42.78918918918862,261.69156566746824 42.886486486491776,261.7862757498733 42.721829521826294,261.56844217708567 42.58336798336677,261.6347394949771 42.70686070686861,261.61106189586644" stroke="#ff0000" stroke-linecap="round" stroke-linejoin="round" stroke-width="0.5"><title>2022-08-06 24.1km</title></polyline><polyline fill="none" points="79.79436619721673,256.0860330069845 78.27323943662486,253.76532000995212 73.02535211267241,246.6637286422265 70.80281690139964,244.65292113371106 69.15492957746028,243.61541000587022 67.12676056338387,242.62067004519486 65.85070422536955,242.2569985451555 64.64225352113135,242.12864349834126 62.225352112691326,242.68484719488333 60.078873239443055,242.9094668082398 59.50422535213147,243.14478190851514 56.85915492957429,243.35870411856013 54.56056338028429,244.52456998029083 52.8873239436507,244.00046727254085 52.22816901409533,242.86668216922408 51.00281690141128,242.84528984106146 50.06478873240121,243.74376263670274 49.498591549301636,245.50859015994502 48.39154929576762,246.25729295430938 47.89295774647326,245.91502970028523 47.80000000000291,245.63693971440807 48.00281690141128,245.58346075873123 48.070422535231046,245.28397793781187 48.58591549297125,244.79196798122575 49.40563380283129,244.41761052646325 49.50704225352092,243.5405375416085 49.498591549301636,244.3534347846362 49.34647887324536,244.503178101113 49.57464788732614,244.19299520193454 49.473239436636504,243.26243919575063 49.55774647888029,243.56192968150572 49.304225352098,243.48705716653058 49.625352112685505,243.57262574926426 49.60845070421783,243.84002697291726 49.69295774649072,243.35870411856013 49.32957746479224,241.6580065418966 49.033802816906245,241.7863623535959 49.38028169013705,243.45496892409574 48.97464788732759,243.71167449853965 48.695774647872895,243.6261060664183 48.81408450705203,242.855986005874 48.66197183099575,241.90402166441345 48.46760563379212,241.81845127391716 48.18028169013269,241.94680682488251 48.47605633804051,243.6368021255039 49.287323943666706,243.65819423932408 49.464788732388115,244.42830647835945 48.323943661976955,245.27328210177075 47.89295774647326,245.78668059771007 48.3408450704228,247.75467725382623 49.414084507050575,247.48728928210767 49.43098591548187,246.82416320654738 49.68450704227871,246.79207631974714 49.845070422532444,246.41772834408766 50.28450704225543,246.21451012865145 50.34366197184136,245.8829424442083 50.10704225352674,245.5406775681331 49.887323943657975,244.11812328514497 50.056338028167374,243.72237054601283 50.96056338028575,242.9094668082398 52.38873239439272,242.8345936747719 52.828169014072046,243.95768322451477 54.23943661973317,244.46039432538964 55.10985915493802,244.32134689416853 56.25915492956119,243.6368021255039 55.354929577464645,244.68500888950075 56.84225352112844,244.23577912252222 56.80000000000291,243.86141903166572 57.036619718317525,243.6368021255039 56.89295774647326,243.51914539591962 56.09014084507362,243.6261060664183 55.01690140844585,244.36413074520533 54.36619718309521,244.51387404143316 53.081690140854334,244.10742729127378 52.701408450710005,243.66889029408048 52.34647887323081,242.855986005874 51.04507042252226,242.82389750704897 50.12394366195804,243.6474981831343 49.53239436617878,245.4871985472564 48.29014084506343,246.25729295430938 47.93521126759879,246.000595652833 47.89295774647326,245.78668059771007 48.366197183102486,245.23049874314893 49.38873239437089,244.55665778821276 49.60845070421783,244.07533930084173 49.718309859134024,243.42288066862238 49.43943661973026,243.50844932087784 49.676056338023045,243.6368021255039 49.38873239437089,243.2731353041163 48.991549295780715,243.2731353041163 49.43943661973026,243.294527516402 49.53239436617878,243.48705716653058 49.211267605642206,242.10725097022078 49.32112676058023,241.95750311136362 49.35492957745737,242.05376962467562 49.287323943666706,241.8719327788276 49.27042253522086,242.5671890472804 49.60845070421783,243.6368021255039 49.498591549301636,244.3427388226046 48.39154929576762,245.2198028998755 47.91830985915294,245.85085517504922 48.29014084506343,247.7332862494004 49.35492957745737,247.51937588651344 49.51549295773293,247.35894273420126 49.38873239437089,246.90972817425063 49.60845070421783,246.8027719501115 49.718309859134024,246.90972817425063 49.8112676056262,246.2038144186081 50.14929577463772,245.4871985472564 50.039436619706976,244.77057617449464 49.80281690140691,244.42830647835945 49.86197183097829,244.2250831445417 50.039436619706976,243.71167449853965 51.019718309857126,242.78111282169994 52.36338028169121,242.78111282169994 52.8873239436507,243.85072300301545 54.57746478874469,244.42830647835945 55.05915492957865,244.25717107411765 56.46197183098411,243.33731192366395 60.12957746478787,242.98433987075987 60.38309859154833,242.80250516725937 61.68450704225688,242.57788524974603 62.49577464786853,242.6741510068896 63.4929577464718,242.23560605185048 64.94647887323663,242.1607322795753 65.72394366197113,242.40674583621148 67.00845070423384,242.4281382831905 69.19718309859309,243.50844932087784 71.15774647888611,244.82405568053218 73.53239436619333,247.10224901277252 77.81690140845603,253.28405762840703 80.20000000000437,256.38547487992037 77.93521126760606,258.94137896679604 76.74366197185009,259.88244416460657 76.71830985915585,260.10701488484483 76.42253521128441,260.33158496681426 76.38873239437089,260.8448856146206 76.5323943662006,260.834191885122 76.36338028170576,261.0694535994626 76.32112676056568,260.4171353063575 76.48169014085579,260.4706042215257 76.32112676056568,260.7807232159903 76.10985915493075,260.7058670184415 76.25352112677501,260.59892947032495 75.85633802818484,260.9518228298766 75.7887323943578,261.1550031401057 76.13521126762498,261.53997492671624 75.53521126761188,262.2136710401319 75.62816901410406,262.11742908989254 76.00000000001455,262.32060640291456 76.16056338029011,262.2992193419559 76.10140845071146,262.053267724601 76.21126760564948,262.25644520261994 76.27042253524269,262.16020330447645 75.47605633805506,262.3419934581034 75.81408450703748,262.10673553261586" stroke="#4dd2ff" stroke-linecap="round" stroke-linejoin="round" stroke-width="0.5"><title>2022-07-23 16.3km</title></polyline><polyline fill="none" points="116.20000000000437,258.7696045810517 114.6748648648645,256.6917968294947 114.30999999999767,256.3685766026756 113.67513513512677,255.306556503936 109.6397297297226,249.68219182764733 107.4140540540684,247.59487118523975 106.03486486485781,246.71743857149704 104.1375675675663,245.7845767812396 101.71486486486538,245.2673409831914 100.70054054055072,245.23039541894832 100.02918918918294,245.37817755584547 99.56945945946791,245.2765773711144 99.47459459461243,245.8954125133314 99.2118918918859,246.00624806532142 97.32189189190831,246.38493484233186 94.81162162162946,246.6804937927518 93.811891891899,247.33626064068085 93.27918918919022,247.47480212577648 91.98756756757211,246.9483429852844 91.48405405406083,246.0801383332655 90.44783783785533,246.05242949218518 89.49189189189929,246.8744536579179 89.02486486486305,248.31528110341605 88.36810810811585,248.66624728150055 88.2002702702739,248.8786733014349 87.41945945947373,248.58312387621118 86.29567567569029,248.72166282873513 84.62459459462116,247.4470938512677 83.80000000000291,247.4470938512677 84.66108108108892,247.42862166200212 86.22270270271838,248.66624728150055 87.55081081083335,248.62006762440433 87.86459459460457,249.66372024369048 87.9302702702771,250.26404416192963 87.79891891893203,250.3564012188508 87.91567567570019,250.5688219752774 90.38945945947489,250.08856540923443 90.54270270269626,249.86690739212645 98.13918918920535,248.69395506073488 97.59189189189055,248.01049322048493 96.65783783783263,247.31778842140193 96.71621621622762,247.17001048707607 97.05189189189696,247.16077435555053 97.08837837839383,246.42187978119182 97.37297297298937,246.18173732097057 99.7300000000032,245.77534046208166 100.3137837838076,245.80304941577197 100.64216216217028,245.59985016080464 101.61270270270325,245.45206850420072 104.18864864864008,245.7291588476437 105.98378378377674,246.6435489939904 107.57459459461825,247.6410515364696 109.52297297296172,249.4512966686234 114.55081081081153,256.46092539519304 114.41945945945918,256.71950134909275 114.23702702704031,256.76567552344204 114.39027027027623,256.9873111252964" stroke="#4dd2ff" stroke-linecap="round" stroke-linejoin="round" stroke-width="0.5"><title>2022-07-16 10.3km</title></polyline></svg>