<?xml version="1.0" encoding="utf-8" ?>
<svg baseProfile="full" height="300mm" version="1.1" viewBox="0,0,200,300" width="200mm" xmlns="http://www.w3.org/2000/svg" xmlns:ev="http://www.w3.org/2001/xml-events" xmlns:xlink="http://www.w3.org/1999/xlink"><defs /><rect fill="#222222" height="300" width="200" x="0" y="0" /><text fill="#FFFFFF" style="font-size:12px; font-family:Arial; font-weight:bold;" x="10" y="20">Over 10km Runs</text><text fill="#FFFFFF" style="font-size:4px; font-family:Arial" x="10" y="280">ATHLETE</text><text fill="#FFFFFF" style="font-size:9px; font-family:Arial" x="10" y="290">Allen</text><text fill="#FFFFFF" style="font-size:4px; font-family:Arial" x="120" y="280">STATISTICS</text><text fill="#FFFFFF" style="font-size:3px; font-family:Arial" x="120" y="285">Number: 12</text><text fill="#FFFFFF" style="font-size:3px; font-family:Arial" x="120" y="290">Weekly: 1.7</text><text fill="#FFFFFF" style="font-size:3px; font-family:Arial" x="141" y="285">Total: 199.2 km</text><text fill="#FFFFFF" style="font-size:3px; font-family:Arial" x="141" y="290">Avg: 16.6 km</text><text fill="#FFFFFF" style="font-size:3px; font-family:Arial" x="167" y="285">Min: 10.3 km</text><text fill="#FFFFFF" style="font-size:3px; font-family:Arial" x="167" y="290">Max: 24.1 km</text><polyline fill="none" points="67.0,65.61274165275245 61.74471086038102,58.24322545584437 59.792152840112976,56.446723910317814 59.21053981278965,56.06989042957866 56.65559687140194,54.72904652974103 56.06705987947498,54.59758975008299 55.60315425054432,54.63264491744485 54.33606872676319,54.38725834724028 52.10655212207348,54.878030557178135 50.86716245672869,54.97443180396658 50.56943197845976,55.175997583144635 47.93140146172664,55.482726912108774 46.69201179638185,56.19258064094902 46.172714450578496,56.280216363826185 45.03718425438274,55.86832743450941 44.5732786254448,54.956904315207794 43.57622772149625,54.878030557178135 42.71073214514763,55.71934568685538 42.29529426849331,56.67457564816141 42.232978587002435,57.121513265425165 41.727529170399066,57.34936262755218 41.35363508141745,57.69989854142477 40.792793947934115,57.34936262755218 39.60187203485839,57.428233373699186 38.1963072188737,56.3415612992103 37.767021412997565,56.18381706215587 29.610591101431055,57.48081381774682 24.3622259263866,58.47107086896722 22.375048083093134,58.72520519117825 21.634183869726257,58.91799608030851 21.017951019348402,59.35615505620808 20.734068470308557,59.42626021710748 16.489678163859935,58.73396842587681 16.01192460571474,58.891706447415345 15.603410693664046,58.72520519117825 14.814078728028107,57.98032590551884 14.620207718930033,56.911190065300616 13.75471214256686,56.280216363826185 13.436209770472487,55.76316388353007 13.0,55.42138116261776 13.484677522748825,55.710582043968316 13.727016284130514,56.14876273502887 14.55789203743916,56.657048619883426 14.74483908192633,56.99882481509849 14.841774586479005,57.87516578640498 15.686498268987634,58.70767871822318 16.11578407487832,58.83036392916256 16.434286446965416,58.637572779007314 17.472881138601224,58.891706447415345 20.727144505712204,59.34739190577238 20.997179125530238,59.294812978158006 21.689575586620776,58.83036392916256 37.649314014634,56.13999915029126 38.18245928965189,56.22763494433457 39.650339787134726,57.39317972060962 40.91050134632678,57.296782076737145 41.076676496981236,57.594737966617686 41.325939222966554,57.69113516671496 41.637517630457296,57.384416304383194 42.232978587002435,57.07769598841696 42.67611232207855,55.6229455497305 43.38235671239818,54.956904315207794 43.631619438383495,54.869266800371406 44.59405051929207,54.921849323531205 45.023336325182754,55.73687296909338 46.25580202589481,56.21010779502103 46.837415053203586,56.0523632375407 47.99371714321751,55.386326422514685 54.25990511603595,54.40478599024209 55.665469932035194,54.49242413411412 56.72483651749644,54.693991414613265 58.44890370560461,55.55283626889286 59.55673804334219,56.24516208891146 60.865367354796035,57.34059920538857 61.95935376331181,58.48859740599437 66.63302987563657,65.02566469990415" stroke="#4dd2ff" stroke-linecap="round" stroke-linejoin="round" stroke-width="0.5"><title>2022-09-03 16.2km</title></polyline><polyline fill="none" points="124.05042016806692,67.32228448558453 124.46982429335185,66.7828527209058 124.85485103132669,66.59144036148064 126.14744079449883,65.36464761631214 126.64935064935707,64.79909697703988 126.59434682963183,64.68598625210143 127.0,64.33795200386521 121.58899923603894,56.72423129409435 119.46447669975896,54.73146289229771 118.06187929718726,53.878643559983175 116.34300993124634,53.02581290994567 114.0122230710549,52.747335144362296 112.36210847974871,53.1215393631137 107.75553857907653,53.791620542782766 106.66233766234654,54.4442902993469 106.1673032849576,54.59222785598104 104.9228418640123,54.20932995060866 104.40718105423002,53.32169421356957 103.45836516425334,53.20856328774971 102.57142857143481,54.04398696801945 102.10389610389393,55.45373980185832 101.59511077157367,55.66258944344008 101.26508785333135,55.99326665452827 101.07944996181322,55.98456464443734 100.6806722688998,55.645185332563415 99.49809014514176,55.767014009703416 98.12987012985832,54.714058529250906 97.56608097785647,54.52261022468883 81.54621848739771,57.20283458993072 81.09243697478814,57.637925402406836 80.82429335371853,57.72494321143313 77.27654698244442,57.23764196335105 76.41023682201921,57.00269182710326 76.20397249809321,57.18543089617742 75.6745607333869,57.02009557032579 74.85637891518854,56.26302838233096 74.8013750954924,55.45373980185832 74.5676088617256,55.03603848255443 73.88693659281853,54.60093005458475 73.44003055769281,53.98307102509716 73.0,53.66108579606225 73.57066462948569,54.087498320463055 73.88006111534924,54.60093005458475 74.65699006876093,55.12305981462123 74.78762414056837,55.35801682263991 74.87700534759642,56.23692245814891 75.66080977846286,57.02009557032579 76.20397249809321,57.18543089617742 76.49274255156342,57.00269182710326 80.77616501146258,57.716241435846314 81.49809014515631,57.25504564295261 81.92436974789598,57.12451793088985 97.63483575248392,54.505205805107835 98.08174178760964,54.61833444826334 99.484339190225,55.732205839813105 100.7494270435418,55.645185332563415 101.04507257449586,55.99326665452827 101.29946524064144,55.99326665452827 101.51948051947693,55.72350379438285 102.14514896868786,55.3841231038532 102.200152788384,54.905506263479765 102.59893048126833,53.9395596019167 103.27272727272066,53.30428946870961 103.63712757831672,53.20856328774971 104.41405653171387,53.25207520587719 104.90909090908826,54.1484141644105 105.79602750190679,54.505205805107835 106.24293353706162,54.548716845252784 107.88617265086941,53.722002044196415 113.1459129106006,52.83435957574693 114.184110007649,52.67771551441547 115.35294117646845,52.903979036003875 116.46676852558448,52.95619358168187 117.0443086325613,53.365206055103044 118.72880061115575,54.1484141644105 120.02139037434245,55.12305981462123 121.09396485866455,56.11509467181895 122.37280366691994,57.68143432164652 126.21619556915539,63.18072457893868" stroke="#4dd2ff" stroke-linecap="round" stroke-linejoin="round" stroke-width="0.5"><title>2022-09-01 16.9km</title></polyline><polyline fill="none" points="187.0,65.64055996015668 181.36419515942544,57.86038615881262 179.71840184400935,56.38125955783471 178.6465616596106,55.79485088464571 178.21091048789094,55.40099132637988 176.58586246636696,54.665780395916954 175.59700345755118,54.50823410842713 174.29004994237766,54.35944003984332 172.5889358432396,54.78831613177317 172.15328467154177,54.73580084484274 171.0399538993297,54.90209910707199 170.4106799846195,55.147169450399815 168.0318862850545,55.365981471710256 166.74567806377308,56.127441531461955 166.22704571646318,56.24997449622606 165.07913945445762,55.86487011041754 164.56742220516026,54.92835668826592 163.50941221667745,54.858336447963666 162.70726085285423,55.64605977804604 162.2992700729883,56.60881969962065 162.23011909333582,57.07268981521338 161.65616596235486,57.35276072604029 161.33807145601168,57.676591203904536 160.81943910873088,57.29149531798612 160.0864387245456,57.44903482135851 159.3880138301829,57.25648648731294 158.1432961966857,56.28498387207219 157.71456012292765,56.144946254906245 142.26623127160565,58.735593060118845 141.61621206300333,58.875625064596534 141.12524010755442,59.29571925793425 140.77257011140318,59.40074237965746 138.3799462159077,59.094424464317854 136.3814829043331,58.6393208810332 136.06338839801174,58.84936908686359 135.5447560507091,58.656824924277316 135.20591625046654,58.227974500725395 134.8463311563537,58.00917216808011 134.7080291970633,57.69409550783894 134.73568958893156,57.13395543065417 134.54898194390262,56.731351751812326 133.74683058008668,56.197460396906536 133.47714175951114,55.73358399987774 133.0,55.357229005079716 133.51863234727352,55.73358399987774 133.7260852862164,56.16245097367937 134.5904725316941,56.7401040323748 134.8255858624616,57.86038615881262 135.59316173644766,58.665576944098575 136.02189781021298,58.840617091926106 136.38839800230198,58.586808722910064 137.4948136765306,58.884377054804645 140.77257011140318,59.35698276633775 141.8236650019171,58.77060108965816 157.7353054168052,56.1536986148858 158.16404149058508,56.21496510141151 159.66461774875643,57.41402607600321 160.7779485209394,57.282743112118624 161.07529773337592,57.589069613102765 161.3449865539951,57.63283042333205 161.63542066846276,57.34400852845283 162.18862850557343,57.098946514641284 162.63119477524742,55.73358399987774 163.55090280443983,54.840831376037386 164.51210142142372,54.83207883828436 164.9892431809567,55.716079165023984 165.1413753361412,55.681069481011946 165.72915866308176,56.05742259013641 166.38609296965296,56.16245097367937 167.85209373798716,55.38348640139884 168.45370726085093,55.26095179394906 174.2070687667947,54.35944003984332 175.60391855550552,54.4557185939193 176.50288129082037,54.604512440855615 178.68805224740208,55.66356463191187 179.84978870534542,56.44252582866466 181.0115251632742,57.45778700475057 183.00307337685808,59.86459245956212 186.43987706492044,64.86170959682204" stroke="#4dd2ff" stroke-linecap="round" stroke-linejoin="round" stroke-width="0.5"><title>2022-08-28 16.3km</title></polyline><polyline fill="none" points="67.0,125.45362819924048 61.718549580691615,118.15423843782992 60.166748889998416,116.73809141668244 59.30759743465023,116.13959102675653 56.876665022209636,114.87513466265227 55.96423285644414,114.68967890275962 55.05846077950264,114.54637180075588 53.53330044402537,114.86670486737057 53.166995559957286,115.06901963906785 51.735076467688486,115.15331726650038 51.05574740998418,115.35563110669318 48.498273310338845,115.68438969454655 47.4060187469222,116.3419016615153 46.986433152451355,116.45148631412303 45.81425752344512,116.07215400237692 45.28145041935932,115.15331726650038 44.38899851998576,115.12802799028213 43.569807597428735,115.87827215038851 43.103601381357294,117.21014400318381 42.33103108043724,117.79177530349989 42.084607794779004,117.79177530349989 41.678342377912486,117.46302784496947 40.58608781450312,117.55575166289054 39.24074987666245,116.50206378104485 38.84114454861265,116.35876085137352 23.902565367534407,118.8370120984655 23.256536753826367,118.98030932344409 22.836951159348246,119.31747796346463 22.4173655648774,119.46077408249403 19.353724716340366,119.04774319754142 18.221509620132565,118.76114872820835 18.028367044898914,118.92973386993253 17.775283670453064,118.93816311504997 17.382338431169046,118.71900237142472 16.722989639856678,118.0868035958847 16.523186975835415,117.04998370540852 15.677355698077008,116.40933839363424 15.124568327577435,115.65067094490223 14.651702022696554,115.33877164510704 14.30537740503496,115.4146391862123 13.41292550569051,115.03530055609372 13.166502220032271,114.99315167672466 13.0,115.13645775016994 13.059940799204924,114.99315167672466 13.319684262460214,115.00158145487876 14.30537740503496,115.39777974059689 14.718302910703642,115.32191217896616 15.151208682786091,115.63381156326432 15.63073507646186,116.2576056435937 16.556487419824407,116.94882962080737 16.73630981745373,118.02779804926831 17.48223976319423,118.77800726289934 17.90182535767235,118.92973386993253 18.28145041933749,118.71057309665048 22.483966452891764,119.42705737829237 23.1632955106179,118.9550216018215 23.496299950660614,118.86229986802937 38.77454366058373,116.30818326804001 39.21410952147562,116.42619756526256 40.592747903312556,117.53046336262196 40.84583127775841,117.58103995290003 41.61840157870756,117.3955922542591 42.25777010360616,117.77491650168668 42.530833744458505,117.48831617263568 43.103601381357294,117.22700295793038 43.50986679822381,115.87827215038851 44.03601381351473,115.29662297124014 44.408978786406806,115.06901963906785 45.34139121854969,115.11116846705045 45.7676369018227,115.92042043045149 46.959792797249975,116.37562003669518 47.739023186979466,116.09744289506853 48.451652688709146,115.63381156326432 48.96447952641756,115.50736605528436 53.5599407992122,114.90885383238128 53.94622594968678,114.71496835708967 54.71213616181194,114.58009114855668 55.864331524440786,114.77397704392934 56.01751356686145,114.69810872200833 57.01652688704053,114.89199424980325 57.91563887519442,115.40620946397758 58.581647755316226,115.62538187073005 59.97360631477204,116.51892292755656 61.78515046869143,118.17109713686295 63.83645781944506,120.94429099092667 66.32067094228842,124.63607167250302 66.51381351753662,124.74564172684404" stroke="#4dd2ff" stroke-linecap="round" stroke-linejoin="round" stroke-width="0.5"><title>2022-08-26 16.9km</title></polyline><polyline fill="none" points="126.22233451238571,123.59167451476242 123.68468923699402,120.00880853901617 121.89742294089956,118.01440315133368 121.07200606368133,117.28051533825783 119.79636179889349,116.46891192059411 117.9340576048562,115.57095567559736 115.70338554824411,115.29465890207211 114.55735219808412,115.51915012177051 114.10030318343343,115.76090901288262 112.66776149570069,115.8127143702659 111.99924204144918,116.08037471292482 109.37973724103358,116.37393637737841 108.24734714502847,117.04739626516675 107.71526023244223,117.15963888824626 106.57604850935604,116.76247179614438 106.06442647802032,115.83861703317234 105.09575543204846,115.80408014694694 104.2566953006608,116.63296025296586 103.76553815058287,118.0057692261762 103.24709449218062,118.26478647266049 102.93329964629811,118.566971930406 102.42167761495512,118.2129831075581 101.29610914605291,118.3683930766565 99.89085396666633,117.22871117346222 99.41334007075784,117.05603032012732 83.55987872663536,119.72389730282885 82.96639717029757,120.14694686192524 82.5025265285658,120.24191678537318 78.32086912581872,119.55122320679948 78.03436078827508,119.75843206592981 77.52956038402044,119.55122320679948 76.77235977767123,118.84325452421763 76.59499747348309,117.78992071701214 75.73547246082308,117.11646867198579 75.22385042951646,116.42574123666418 74.62354724607576,116.01993537891394 74.26882263768493,116.11491144949832 73.40247599799477,115.73500631839124 73.0,115.73500631839124 73.72991409801762,115.76954324202961 74.24835775644169,116.05447214823653 74.59626073775144,115.97676439098723 74.93052046486991,116.13217981073831 75.48989388579503,116.62432614075078 75.74911571500706,117.09920057730051 76.48585144011304,117.55680350639159 76.71778676100803,118.06620667780226 76.81328954017954,118.86915595603205 77.57731177362439,119.5425894897271 77.98660939867113,119.70662991426798 78.40272865084262,119.4907871627147 79.53511874684773,119.77569944047718 82.63213744314999,120.2246495370855 83.73724103080895,119.65482772051473 99.37241030824225,117.05603032012732 99.80217281455407,117.15100484734285 101.24153612936061,118.27342036276968 102.4626073774707,118.20434920925618 102.67407781709335,118.48063337431813 102.91283476503304,118.566971930406 103.30166750884382,118.2129831075581 103.79282465892902,117.9885013723324 104.2566953006608,116.53798495409137 105.02753916120855,115.77817747001245 106.09853461344755,115.80408014694694 106.48736735725834,116.67613079658622 106.67837291563774,116.65022847392538 107.23774633652647,116.97832378355815 107.83122789288609,117.09920057730051 108.24052551795467,116.99559191097069 109.48888327437453,116.28759485165938 115.75113693786261,115.27739031397505 116.79484588177002,115.45007598451775 117.0540677109675,115.3723674906505 118.05002526528551,115.57958993049397 120.15790803437267,116.67613079658622 121.18797372411063,117.38412354160391 122.83880747852527,118.84325452421763 124.91258211218519,121.64054836835567 127.0,124.72260968603223" stroke="#4dd2ff" stroke-linecap="round" stroke-linejoin="round" stroke-width="0.5"><title>2022-08-21 16.1km</title></polyline><polyline fill="none" points="187.0,125.46575024303456 186.26562694946915,124.60460103392688 181.72464129756554,118.16692453945143 179.9257641921431,116.52116122350708 178.79388646288862,115.80485702012083 176.86699937617232,114.84977207416523 174.57629444789927,114.60247093251382 173.64653774174076,114.78155116659036 173.0873362445418,115.02032401978795 171.7466001247667,115.08001709162636 170.87074235807086,115.36142652526905 168.68109794134944,115.62577969616541 166.9563318777291,116.4444147342947 165.75034310667252,116.12037297090865 165.45389893947868,115.82191197678912 165.1372426700109,115.13971010687237 164.2142233312552,115.08854466871708 163.3990018714976,115.85602187629411 163.00149719275942,116.83667358537059 162.9880224578883,117.19482083726325 162.10542732378235,117.82583723000425 161.51927635684115,117.45063905583811 160.43456019962468,117.58707501417666 158.965814098563,116.46999690775556 158.4605115408558,116.35914074769244 145.69993761698424,118.52506422611623 144.123393636939,118.67855203981162 142.72875857767212,119.01963473090291 142.41210230817524,119.35218857611471 142.04154709920113,119.480093433609 139.0636306924498,119.08785104742128 137.7431066749923,118.73824164409598 137.4803493449799,118.96847244499077 137.04915782907483,118.83203947939182 136.18003742983274,118.0134354788097 136.17330006237898,117.33125734982605 136.0452900810851,117.01574746591359 135.18290704930405,116.39325035618822 134.91341235184518,115.93276908258849 134.05776668746694,115.30173372019635 134.1520898315648,115.1055998193915 133.97018091079372,114.95210329697875 133.97691827823292,114.79860640041443 134.2262008733669,114.94357570142893 134.32052401747933,114.81566162961099 134.23967560823803,114.95210329697875 133.97018091079372,114.78155116659036 134.158827199004,115.16529281038675 133.80848409233295,115.38700913868524 133.0,115.05443435350753 133.74111041797005,115.36995406424103 134.21946350593498,115.31878881313605 134.9201497192771,115.86454934826179 135.21659388647095,116.35061334269267 135.9913911416079,116.82814624503953 136.17330006237898,117.1692389582604 136.29457267623366,118.0560713665036 137.16369307549758,118.84056654839515 137.48708671240456,118.94289128646051 137.83069245165098,118.71266039203329 138.8008733624447,118.98552654489322 141.9876481596948,119.45451248287281 142.25040548972902,119.38629656349076 142.86350592639064,118.91731011752563 158.56157205240015,116.2482843924954 158.90517779164657,116.35061334269267 160.36044915783714,117.49327532459574 160.68384279477323,117.55296605230978 161.56643792887917,117.42505728075048 162.02457891451922,117.78320118642296 162.88022457890474,117.27156641195324 163.3653150343016,115.80485702012083 164.10642545227165,115.1055998193915 164.4298190892223,115.02032401978795 165.1574547722994,115.04590677181113 165.67623206487042,115.93276908258849 166.90243293823005,116.34208593653602 167.31341235184664,116.23975697245623 168.50592638801027,115.51492204994429 174.8121023081767,114.53424975696544 177.035433562065,114.80713401558023 178.08646288210002,115.44670186294388 179.0296943231442,115.86454934826179 179.96618839675648,116.52968860541296" stroke="#4dd2ff" stroke-linecap="round" stroke-linejoin="round" stroke-width="0.5"><title>2022-08-19 15.6km</title></polyline><polyline fill="none" points="67.0,185.39862938832084 66.8597055548671,185.17881344771013 66.78621798837412,185.03508722210245 62.88469627613085,179.54787984011637 61.69553383644234,178.07665136841388 59.9585549919575,176.49546488363558 57.10590127429168,174.95651766417723 54.867870840047544,174.63519422754325 53.678708400344476,174.8635031552185 53.27118644068105,175.0579878796052 51.78807373499876,175.16791376019683 51.20017320301122,175.40467653809173 48.6548311270526,175.70062874802534 47.66608932326926,176.27561760300887 47.07818879128172,176.47855358183733 45.98923666954943,176.17414936625573 45.681925027842226,175.81055349728558 45.401336137576436,175.17636958917137 44.526166027470026,175.12563459826197 44.31238401582959,175.2186487167637 43.58418903873098,175.97966811830702 43.18334776692063,177.27337981542223 42.655573425712646,177.51859012202476 42.34826178399089,177.82298778378026 41.853890882113774,177.48476806803228 40.71817394532263,177.6200561741498 39.17493504888262,176.44473096449656 38.82085859210929,176.39399700413196 30.817394531746686,177.6454226614078 28.913398490658437,178.0935622374236 23.902882593101822,178.82918060676457 23.228133118886035,178.98137642885558 22.479896078191814,179.49714840087108 18.30446616354311,178.80381460033095 17.9771124582403,178.9560104842676 17.54954843498126,178.82918060676457 16.667697637021774,177.96673060824833 16.640974885558535,177.25646872430661 16.473957688976952,176.90979034701013 15.665594457503175,176.36863000851008 15.47853519731143,175.98812383734185 15.057651861934573,175.62452688515623 14.603365087219572,175.34548592779902 14.25596931832115,175.40467653809173 13.320673017449735,175.00725279250037 13.006680687867629,175.0833554077035 13.053445502911927,175.3793091405605 13.554497092656675,175.86128793167882 13.66138809848053,175.7767305181187 13.42088333540596,175.43849971878808 13.207101323758252,175.4892344555119 13.0,175.27783944730618 13.100210317956225,174.99879694064293 14.25596931832115,175.40467653809173 14.670171965837653,175.32857431454613 14.957441543985624,175.51460180839058 15.471854509458353,175.97966811830702 15.665594457503175,176.3432630025418 16.567487319058273,176.9605238883014 16.694420388470462,178.00055240123766 17.542867747113633,178.82072527243145 17.98379314612248,178.9475551671203 18.284424099962052,178.7699932424439 19.179636273664073,178.99828705287655 22.446492638875498,179.47178266577976 23.328343436849536,178.92218920878076 38.80749721638131,176.36863000851008 39.241741927507974,176.44473096449656 40.62464431524131,177.5439566505229 41.800445379187295,177.45940151547984 42.321539032542205,177.82298778378026 43.16998639121448,177.2649242704283 43.61091179017967,175.86128793167882 44.519485339587845,175.10872292546264 45.49486576767231,175.15100209888624 45.88234566375468,175.95430095435586 46.764196461714164,176.33480733163015 47.21180254856881,176.38554134007427 47.57924038105557,176.2840732819459 48.63478906345699,175.58224803236953 51.62773722627753,175.20173706918285 54.954719782261236,174.60137061167916 57.145985401446524,174.914238359117 59.016578003218456,175.86128793167882 60.13893356426706,176.58002132391994 62.00952616602444,178.32185852077237 64.0337745886427,181.16280911976355" stroke="#4dd2ff" stroke-linecap="round" stroke-linejoin="round" stroke-width="0.5"><title>2022-08-14 16.5km</title></polyline><polyline fill="none" points="127.0,185.54778328553584 122.91802675175859,179.77800123879933 121.46017916308483,177.8993515732618 119.88967971530656,176.45677833400987 117.3251932752537,175.02255884156693 116.4040986624168,174.73738843453611 114.91311817400128,174.57802792929215 114.70106761566421,174.4522167144678 113.15707448767353,174.95546004040443 111.7456129586426,175.02255884156693 111.02994232421042,175.2909533193706 108.5847343232308,175.55934663408334 107.55761443121446,176.15484014811955 106.99435513559001,176.32258376643222 105.82807706466701,175.91999831925932 105.55638728678605,175.57612117761528 105.39734936802415,175.072882894754 104.35034973615984,174.9973967996557 103.56841330224415,175.79418983039068 103.13768560559402,177.09419855941087 102.26297705239267,177.70645128375327 101.71959749663074,177.33742296897617 100.59970548532874,177.42129323358313 99.38704135477747,176.45677833400987 98.75751625965495,176.23871201407383 91.99177813229471,177.32903593628362 89.00319057553861,177.9328993883828 84.00012271444575,178.67094672393796 83.3440912995502,178.84707035662723 82.93324334274803,179.19092933900174 82.52902196589275,179.30834416408834 79.65971284821717,178.93932539292655 78.40066265800124,178.64578616409926 78.02957418088045,178.8219098683112 77.62535280403245,178.64578616409926 76.85004295004182,177.92451243628966 76.69763161124138,176.9348441180482 75.84942937782762,176.26387355169936 75.55785986011324,175.76902810195315 75.20665112284041,175.47547384815334 74.7626702662892,175.20708016998833 74.44459442877269,175.28256600953318 73.99398699227459,175.00578414811025 73.23193029819959,174.905135891815 73.0,174.5193160608469 73.152411338815,174.6954514992358 73.27168977789552,175.316115242018 73.19217081851093,175.316115242018 73.76205669408955,175.26579138646048 74.50423364830931,176.1464529552868 75.10062584366824,175.97870885996963 75.43858142104,176.23032483258066 76.57835317216086,176.70000524662464 76.74401767090603,176.88452157770007 76.82353663026879,177.75677315631037 77.57234016444272,178.61223873510244 78.06933366059093,178.7799756984532 78.42054239783465,178.57030442328687 79.60007362867327,178.86384400978568 82.54890170573344,179.2831838631646 82.80733832372789,179.23286323064167 83.46336973862344,178.74642834212136 89.87127254878578,177.69806430099197 91.87912627316109,177.23677850155582 98.93643391827209,176.2135504662292 99.27438949564385,176.314196596315 100.59307890538912,177.37935811546777 101.77261013621319,177.29548779409015 101.91839489507402,177.5051633846124 102.21659099275712,177.63096839822538 103.09792612592719,177.11935974953303 103.56178672230453,175.69354285527152 104.4298686955517,174.93868532875422 105.35096330837405,174.98900945006972 105.8214504847274,175.82773878575244 106.98110197571077,176.28064790444841 107.4317094122016,176.1716145304017 108.5847343232308,175.46708656330884 111.48717634065542,175.04772087326637 112.78598601055273,174.73738843453611 113.38237820593349,174.72900104975633 113.79985274267528,174.5528657067989 115.2444471714407,174.47737897788465 115.77457356730883,174.6283523436723 117.43121855441859,174.75416320070508 118.09387654926832,175.10643224080923 119.02159774204483,175.8529004903321 120.06859737390914,176.4819397830288 121.75174868082831,178.08386433154374 123.02405203093804,179.85348150798382" stroke="#4dd2ff" stroke-linecap="round" stroke-linejoin="round" stroke-width="0.5"><title>2022-08-12 16.3km</title></polyline><polyline fill="none" points="187.0,186.0849090363481 181.99172346641717,179.08942987133923 180.2894352482981,177.68358348163747 180.0002434274502,177.32587778671223 178.80404089581862,176.53559037900777 177.2069133398254,175.79520663626317 175.95813047712727,175.470766004506 175.35345666991634,175.37925679857653 173.447419668948,175.7868876671091 171.85686465434264,175.94494788836892 171.31791626096674,176.23611038925446 168.93865628043568,176.3858505666176 167.81475170399062,177.1262271908745 167.3678188899721,177.22605256989482 166.19133398247504,176.8600253870427 165.9612950340961,176.61877900594482 165.6721032132482,175.9615857827448 164.75851996105484,175.89503417822198 163.98296007790486,176.66869212804522 163.58860759494564,177.60871502016016 163.562317429416,177.9581003930798 162.96421616358566,178.3158024068034 162.74074975658004,178.58199790256913 162.53700097373803,178.54872352867096 162.16893865627208,178.22429743874818 161.0778967867518,178.3490769068594 159.35589094452007,177.1179084019459 152.08666017526411,178.30748377898271 149.93086660175322,178.78996233107682 144.5873904576365,179.59685764899768 143.9695715676935,179.72163432937668 143.18086660176778,180.22073851668392 140.34810126582306,179.82977391405439 139.0073028237457,179.51367305464373 138.3697663096391,178.78164376742643 137.68622200583923,176.4274449955701 136.96981499514368,175.66210299463637 135.80647517039324,175.2711093794387 133.97273612463323,175.0880902364006 133.49951314509235,174.9217087240686 133.23661148977408,174.68045473071834 133.0,173.9150909636519 133.28919182083337,174.73868853999738 133.50608568646567,174.8801132755616 134.53797468353878,175.1629617699 135.43184031159035,175.18791892745503 136.36514118792547,175.387575822926 137.18670886076143,175.8201635369769 137.98198636806046,176.90993831313244 138.55379746835388,178.8565107995164 139.07302823758073,179.53862844475952 139.75000000000728,179.63844990395228 143.21372930866346,178.7650066367969 143.59493670886877,178.98960752011408 143.78554040895688,179.397214433302 143.79211295033747,179.79650021596171 144.59396299902437,179.56358382476537 151.73831548199087,178.2991651500488 159.29016553067777,177.1095896118968 159.64508276533888,177.19277746156877 161.11075949369115,178.3324396590906 162.23466407011438,178.23261607785753 162.60929892892455,179.75490806799644 163.42429406038718,179.60517610223178 163.5425998052524,179.4803991853405 163.47030185005133,179.07279282408126 163.75292112951138,178.91474065026705 163.75292112951138,178.57367931077897 164.0223953261957,177.99137508687272 163.96981499514368,177.4839340482904 163.79892891919008,177.1844586816842 163.85150925026392,176.85170656210175 164.00925024342723,176.53559037900777 164.73880233692034,175.89503417822198 165.7246835443002,175.9033531327441 166.10589094449824,176.71860520957125 167.11806231742958,177.1428647652865 167.8081791626173,177.1095896118968 167.91991236613103,177.31755902485747 168.4391431353506,177.00976404362518 168.91893865630118,176.41080722737024 169.6287731256234,176.25274820476625 173.73003894840076,175.6787409656099 174.8342259006895,175.41253288922962 177.2332035053696,175.6787409656099 180.17112950341107,177.28428396608797 181.88656280429132,178.8481922448991 186.42818889972114,185.28641660504218 186.69109055503213,185.46108771106083" stroke="#4dd2ff" stroke-linecap="round" stroke-linejoin="round" stroke-width="0.5"><title>2022-08-07 17.9km</title></polyline><polyline fill="none" points="67.0,253.20862608777315 61.76091476093279,245.94669114225326 60.226611226615205,244.58892467642363 59.08523908523057,243.84687615087023 57.538461538468255,243.11271246298202 56.07276507277129,242.79694029118764 55.735966735977854,242.75746864946996 53.39708939709817,243.2784921684579 52.64864864865376,243.31006920173604 51.91891891893465,243.55479062989616 49.77338877337752,243.7442516751289 48.78170478172251,244.3521017051171 48.1642411642315,244.5336660691828 47.09771309771895,244.20211332571125 46.59875259875116,243.31006920173604 45.7193347193388,243.30217494502358 44.95841995842056,243.99686544429278 44.54054054053995,245.26781186218795 43.72349272349675,245.80460078432588 43.187110187107464,245.44937337428928 42.232848232844844,245.58357065025848 40.87941787941236,244.58892467642363 40.39916839916987,244.4705133110292 34.51767151768581,245.38622160813975 32.2972972973148,245.85196427544724 26.546777546776866,246.7597570854923 25.929313929322234,246.89395134515144 25.237006237010064,247.3517882593187 22.916839916841127,247.06761404618373 21.207900207897183,246.68081914142385 20.989604989612417,246.86237625302238 20.60291060290183,246.7597570854923 19.829521829531586,246.05720562569695 19.729729729733663,245.25202387788522 19.58004158004769,244.97573346055287 18.80665280665562,244.43893690630648 18.632016632043815,244.07580702266205 18.332640332650044,243.7916168402371 17.864864864859555,243.4837425791593 17.565488565487613,243.5705790738357 16.4927234927236,243.19165523868287 16.16216216216708,242.84430622601212 15.80665280665562,242.9627208946731 15.781704781715234,243.04166387346777 15.918918918941927,242.94693228607866 16.024948024954938,243.03376958040462 15.73180873181991,243.2784921684579 15.15176715177222,242.52853260025586 14.590436590449826,238.30489590154684 14.490644490651903,235.73898584906055 13.735966735963302,226.68239410770911 13.505197505204706,225.1188643919304 13.0,224.04490048145453 13.093555093553732,223.9343442491845 13.536382536389283,224.17914705289877 13.735966735963302,223.97382864193787 13.648648648661037,223.7843033127101 13.44282744283555,223.68954041687903 13.04365904367296,223.95013800950983 13.024948024940386,224.11597223427088 13.461538461546297,224.80299470853424 13.611226611232269,225.4742157388573 14.808731808734592,238.69174638718323 15.28898128898436,242.6153705178549 15.66943866944348,243.22323231902556 15.925155925171566,243.42058868360982 16.38669438670331,243.53900218163471 16.39293139293295,243.64162701872192 16.71101871101564,243.5074252723607 16.948024948040256,243.53900218163471 17.559251559257973,244.3363134728461 18.10810810811381,244.1863250527931 18.600831600830134,244.5178778860536 18.557172557179,244.1547484941293 18.207900207911734,243.76793426248696 18.332640332650044,243.76004006777657 18.66943866944348,244.07580702266205 18.837837837840198,244.41525459154218 19.6237006237061,244.94415732949346 19.74220374221477,245.16518988784446 19.817047817057755,245.95458504090493 20.503118503118458,246.67292534114677 20.97713097713131,246.8386949227097 21.31392931393202,246.6413501292991 22.24948024949117,246.88605757372716 25.25571725572081,247.31231970143563 25.979209979224834,246.8386949227097 40.505197505190154,244.39946637635876 40.91060291061149,244.5020896986607 42.20166320166027,245.54410089527664 43.33056133057107,245.4809492317254 43.66735966736451,246.9097388848022 44.615384615382936,246.68871294064957 45.731808731812635,246.61766870919382 47.4906444906519,246.3098093725348 47.56548856548034,245.51252507205936 47.31600831600372,244.9283692575409 47.334719334729016,244.5178778860536 48.56964656963828,244.39157226716634 49.67359667359415,243.68899226720896 50.67775467776664,243.62583859400547 55.27442827443883,242.82062326341838 57.525987525994424,243.08113532279822 59.690228690218646,244.21000746054779 60.46985446985491,244.73101799740834 61.66112266113487,245.8124947021788 63.145530145513476,247.65964209377853 66.3076923076951,252.1430726894032 66.11434511434345,252.49825931908708 66.35135135135351,252.8929085923046 66.28898128899164,253.02708873676238 66.45114345115144,253.45330597099382 66.35758835758315,254.00580515645197 65.85862785862992,254.52672816522318 65.75883575884654,254.8029733271178 65.38461538460979,255.06343185258447 64.6923076923049,255.91583343864477 64.64241164241685,255.86847812183623 64.64864864864649,256.1526094457804 64.81081081081356,256.310459583121 64.536382536382,255.9474036284737 64.30561330560886,256.0578991582952 64.5114345114489,256.0184364931083" stroke="#ff0000" stroke-linecap="round" stroke-linejoin="round" stroke-width="0.5"><title>2022-08-06 24.1km</title></polyline><polyline fill="none" points="126.32394366202061,246.810055011636 123.78873239437235,242.9422000165796 115.04225352111098,231.1062144036987 111.3380281689897,227.75486855617783 108.59154929577198,226.02568334311945 105.21126760562765,224.36778340865567 103.08450704228017,223.76166424191615 101.07042253522377,223.54773916389968 97.04225352115463,224.47474532481283 93.46478873240994,224.84911134706635 92.50704225355003,225.24130318085372 88.09859154927835,225.59784019760264 84.26760563379503,227.5409499671514 81.47887323940813,226.66744545423717 80.38028169015888,224.7778036153759 78.3380281690188,224.74214973510243 76.7746478873305,226.23960439450457 75.83098591549788,229.18098359991563 73.9859154929436,230.42882159051078 73.15492957744573,229.85838283380144 73.0,229.39489952400618 73.33802816900425,229.30576793121872 73.45070422538265,228.80662989635312 74.30985915494966,227.9866133020405 75.67605633805215,227.36268421077693 75.84507042252517,225.90089590268326 75.83098591549788,227.2557246410579 75.57746478873014,227.50529683518107 75.95774647885992,226.98832533655514 75.7887323943869,225.43739865958923 75.92957746479078,225.93654946917377 75.50704225349182,225.81176194422005 76.04225352112553,225.95437624877377 76.01408450702729,226.4000449548621 76.15492957747483,225.59784019760264 75.54929577464645,222.76334423650405 75.05633802816737,222.9772705893265 75.63380281688296,225.75828154016926 74.95774647887447,226.1861241642182 74.49295774644997,226.04351011069957 74.69014084507944,224.75997667646152 74.4366197183117,223.17336944068666 74.11267605630565,223.030752123188 73.63380281688296,223.24467804146116 74.12676056339114,226.06133687583497 75.47887323943723,226.09699039887346 75.77464788731595,227.38051079725847 73.87323943662341,228.7888035029464 73.15492957744573,229.64446766284527 73.9014084507071,232.92446208970796 75.69014084507944,232.47881547018187 75.71830985911947,231.37360534425534 76.14084507044754,231.32012719957856 76.40845070421346,230.69621390682005 77.14084507041844,230.35751688107848 77.2394366197259,229.80490407368052 76.84507042253972,229.23446261354547 76.47887323942268,226.86353880858223 76.7605633802741,226.20395091002865 78.26760563379503,224.84911134706635 80.64788732396846,224.72432279128407 81.38028169011523,226.5961387075222 83.73239436620497,227.43399054231122 85.18309859154397,227.20224482360936 87.0985915492638,226.06133687583497 85.59154929577198,227.80834814917762 88.07042253520922,227.05963187087036 88.0,226.4356983861071 88.39436619718617,226.06133687583497 88.15492957744573,225.86524232653028 86.81690140844148,226.04351011069957 85.02816901406914,227.27355124200403 83.94366197181807,227.52312340239587 81.80281690141419,226.84571215212054 81.16901408450212,226.11481715680566 80.57746478870104,224.75997667646152 78.40845070419891,224.7064958450792 76.8732394365943,226.07916363855475 75.8873239436216,229.14533091209887 73.81690140844148,230.42882159051078 73.22535211265495,230.00099275472166 73.15492957744573,229.64446766284527 73.94366197183263,228.7174979052361 75.64788732393936,227.59442964702612 76.01408450702729,226.79223216806713 76.1971830985567,225.70480111437791 75.73239436620497,225.84741553479398 76.12676056336204,226.06133687583497 75.64788732393936,225.45522550685564 74.98591549295816,225.45522550685564 75.73239436620497,225.49087919399608 75.8873239436216,225.81176194422005 75.3521126760752,223.51208495035826 75.53521126761916,223.26250518560119 75.59154929575743,223.42294937446422 75.47887323943723,223.1198879647127 75.45070422535355,224.2786484121316 76.01408450702729,226.06133687583497 75.83098591549788,227.23789803766704 73.9859154929436,228.69967149979493 73.19718309858581,229.75142529174627 73.81690140844148,232.88881041566492 75.59154929575743,232.53229314417695 75.85915492955246,232.26490455699968 75.64788732393936,231.51621362374863 76.01408450702729,231.33795325018582 76.1971830985567,231.51621362374863 76.35211267603154,230.3396906976559 76.91549295771983,229.14533091209887 76.73239436616132,227.95096029082197 76.33802816900425,227.38051079725847 76.43661971829715,227.04180524089315 76.73239436616132,226.1861241642182 78.36619718308793,224.6351880361617 80.60563380281383,224.6351880361617 81.47887323940813,226.41787167168513 84.29577464790782,227.38051079725847 85.09859154927835,227.09528512353427 87.43661971829715,225.56218653943506 93.54929577464645,224.97389978459978 93.97183098591631,224.67084194542258 96.14084507041844,224.29647541623854 97.49295774643542,224.4569183448184 99.15492957744573,223.72601008642232 101.57746478873014,223.60122046594915 102.87323943660886,224.01124306034762 105.01408450704184,224.04689713864354 108.6619718309812,225.84741553479398 111.92957746479078,228.04009280087485 115.8873239436507,231.83708168794692 123.02816901409824,242.1400960473402 127.0,247.30912479986728 123.2253521126695,251.56896494465764 121.23943661974045,253.13740694100852 121.19718309858581,253.51169147474866 120.70422535213584,253.88597494470014 120.64788732393936,254.7414760243555 120.88732394366525,254.72365314187482 120.60563380284293,255.11575599911157 120.53521126760461,254.0285588439292 120.80281690142874,254.117673702538 120.53521126760461,254.63453869330988 120.18309859154397,254.50977836406673 120.42253521128441,254.33154911721067 119.76056338030321,254.91970471646346 119.6478873239248,255.2583385668404 120.2253521126986,255.89995821118646 119.22535211268405,257.0227850668889 119.38028169015888,256.86238181647786 120.00000000001455,257.201010671517 120.26760563380958,257.16536556991923 120.16901408451668,256.75544620766595 120.3521126760752,257.09407533769263 120.4507042253972,256.9336721741274 119.12676056342025,257.23665576349595 119.69014084506489,256.84455922101915" stroke="#4dd2ff" stroke-linecap="round" stroke-linejoin="round" stroke-width="0.5"><title>2022-07-23 16.3km</title></polyline><polyline fill="none" points="187.0,251.28267430175765 184.4581081080978,247.81966138249845 183.84999999999127,247.2809610044642 182.79189189188764,245.51092750656244 176.06621621620434,236.13698637941707 172.35675675678067,232.65811864207353 170.05810810810362,231.19573095249507 166.89594594594382,229.64096130207326 162.85810810810653,228.7789016386596 161.16756756759423,228.71732569824962 160.04864864864794,228.96362925974245 159.2824324324465,228.79429561852885 159.12432432435162,229.8256875222287 158.6864864864765,230.01041344221449 155.53648648651142,230.64155807055795 151.35270270271576,231.13415632125543 149.68648648649105,232.2271010678087 148.79864864864794,232.4580035429608 146.64594594595837,231.5805716421528 145.80675675677776,230.1335638887831 144.0797297297686,230.087382486985 142.48648648649396,231.4574227632038 141.7081081080978,233.85880183903646 140.6135135135264,234.44374546917243 140.33378378378984,234.79778883573454 139.03243243246106,234.30520646035438 137.15945945947897,234.5361047145634 134.37432432436617,232.41182308545103 133.0,232.41182308545103 134.43513513515063,232.38103610334656 137.0378378378664,234.44374546917243 139.25135135138407,234.36677937401691 139.7743243243458,236.1062004061605 139.88378378379275,237.10674026988272 139.6648648648843,237.2606686980871 139.8594594594906,237.61470329212898 143.98243243245815,236.8142756820671 144.23783783783438,236.44484565355378 156.89864864868287,234.4899251012248 155.98648648649396,233.3508220341464 154.4297297297162,232.19631403567473 154.52702702704119,231.95001747846254 155.08648648648523,231.93462392592483 155.1472972973279,230.70313296865788 155.62162162164168,230.30289553495095 159.5500000000029,229.6255674368149 160.52297297300538,229.6717490262963 161.0702702702838,229.33308360134106 162.68783783784602,229.08678084034182 166.98108108107408,229.54859807941102 169.97297297295881,231.07258165664825 172.62432432436617,232.73508589412086 175.87162162159802,235.75216111437476 184.25135135135497,247.43487565865507 184.03243243243196,247.86583558183338 183.72837837839324,247.94279253907735 183.98378378378402,248.31218520883704" stroke="#4dd2ff" stroke-linecap="round" stroke-linejoin="round" stroke-width="0.5"><title>2022-07-16 10.3km</title></polyline></svg>