<?xml version="1.0" encoding="utf-8" ?>
<svg baseProfile="full" height="300mm" version="1.1" viewBox="0,0,200,300" width="200mm" xmlns="http://www.w3.org/2000/svg" xmlns:ev="http://www.w3.org/2001/xml-events" xmlns:xlink="http://www.w3.org/1999/xlink"><defs /><rect fill="#222222" height="300" width="200" x="0" y="0" /><text fill="#FFFFFF" style="font-size:12px; font-family:Arial; font-weight:bold;" x="10" y="20">Over 10km Runs</text><text fill="#FFFFFF" style="font-size:4px; font-family:Arial" x="10" y="280">ATHLETE</text><text fill="#FFFFFF" style="font-size:9px; font-family:Arial" x="10" y="290">Allen</text><text fill="#FFFFFF" style="font-size:4px; font-family:Arial" x="120" y="280">STATISTICS</text><text fill="#FFFFFF" style="font-size:3px; font-family:Arial" x="120" y="285">Number: 15</text><text fill="#FFFFFF" style="font-size:3px; font-family:Arial" x="120" y="290">Weekly: 1.7</text><text fill="#FFFFFF" style="font-size:3px; font-family:Arial" x="141" y="285">Total: 245.1 km</text><text fill="#FFFFFF" style="font-size:3px; font-family:Arial" x="141" y="290">Avg: 16.3 km</text><text fill="#FFFFFF" style="font-size:3px; font-family:Arial" x="167" y="285">Min: 10.3 km</text><text fill="#FFFFFF" style="font-size:3px; font-family:Arial" x="167" y="290">Max: 24.1 km</text><polyline fill="none" points="55.60000000000218,58.4318786745971 51.208849557526264,52.43775964453016 49.72743362831898,51.08696696033803 48.76106194690874,50.47540196301634 47.26902654867445,49.830226324458636 45.63362831859558,49.61516591434702 44.38053097344891,49.9243149608119 43.24424778762477,49.998241621382476 42.56460176991823,50.23346208147632 40.68495575221095,50.47540196301634 39.89911504425254,50.932396299052925 39.431858407078835,51.04664422554197 38.50796460176571,50.744222670320596 38.189380530966446,50.04528580258557 37.435398230078135,49.98480041856237 36.798230088494165,50.55604832808967 36.495575221248146,51.24153714020213 36.42123893804455,51.664922558960825 35.948672566373716,51.92029614463536 35.78407079646786,52.128626254434494 35.59292035398539,52.108465314275236 35.306194690270786,51.8530926968524 34.58938053098245,51.980779169811285 34.382300884946744,51.940457161214 33.224778761064954,51.06680559704182 32.98584070796642,50.99288052819611 27.394690265478857,51.86653339368786 26.168141592923348,52.14206687664773 20.94336283185112,52.98881873844584 20.539823008843086,53.082901386944286 20.146902654872974,53.39874897390109 19.892035398221196,53.45251006511535 17.768141592918255,53.17698385706899 16.562831858402205,52.901456119481736 16.387610619469342,53.042580273708154 15.96283185840366,52.935057144972234 15.299115044239443,52.25631201852957 15.21946902655327,51.50363330150867 14.555752212389052,51.04664422554197 14.30619469026351,50.6299740476461 14.035398230080318,50.39475546688482 13.743362831861305,50.186418078650604 13.419469026553998,50.24018264964616 12.739823008847452,49.93103557085851 12.52212389379929,49.9243149608119 12.400000000001455,49.695813677357364 12.400000000001455,50.05872698902749 12.463716814159852,49.89743251147229 12.681415929197101,49.904153125167795 13.403539823000756,50.22674151236424 13.68495575220004,50.15281519217024 13.987610619467887,50.3073882815188 14.407079646003695,50.69717915165529 14.550442477859178,50.99960099354212 15.240707964589092,51.43642928954068 15.394690265482495,52.34367577309604 15.989380530972994,52.901456119481736 16.30265486724238,53.008979320991784 16.60530973451023,52.840974216240284 17.38584070797515,53.07618120366533 19.93982300884818,53.43234966273303 20.561061946904374,53.06274083440803 21.086725663706602,52.92833694168803 32.736283185840875,50.97943959476106 33.31504424778905,51.06680559704182 34.40353982300803,51.913575803944696 35.35929203539126,51.839651996371686 35.417699115041614,51.980779169811285 35.72566371681751,52.108465314275236 36.41592920353651,51.67164293332462 36.43716814159416,51.32890268109986 36.739823008840176,50.58965094154337 37.408849557523354,49.978079815773526 38.21061946902773,49.98480041856237 38.523893805308035,50.636694562133926 38.67787610620144,50.636694562133926 39.11327433629049,50.91223487294701 39.55398230089486,50.99960099354212 39.888495575225534,50.925675824590144 40.82831858408099,50.347711616959714 45.69734513275034,49.56812132539926 47.47610619468833,49.78318193938321 49.43008849557009,50.82486859855999 51.251327433637925,52.37727717623784 52.44070796460437,53.99683783411092" stroke="#4dd2ff" stroke-linecap="round" stroke-linejoin="round" stroke-width="0.5"><title>2022-09-17 16.2km</title></polyline><polyline fill="none" points="121.60000000000218,58.40175111780991 117.24392041266765,52.37847104046159 115.81134856300923,51.08911202872696 113.47148120854399,49.833297849854716 112.77111274871277,49.678837225194 112.66499631539409,49.745994077642536 111.75770081060546,49.59824888219009 110.45777450257447,49.92060146838412 109.42313927782016,49.97432669571208 108.80766396462059,50.175795779781765 106.79675755342032,50.43098877793091 105.88415622696266,50.97494841744992 105.45438467206623,51.06225002618521 104.58953574061161,50.74662040648036 104.18629329404212,50.014620577985625 103.49653647753075,49.95417974228985 102.81208548268114,50.605593756885355 102.50965364773947,51.32415393030533 102.46720707442364,51.64649529817325 102.01090641118935,51.894965339313785 101.7827560795813,52.13000342169835 101.64480471628849,52.123288063376094 101.35298452467396,51.85467298478761 100.4775239498922,51.955403809759446 99.3739130434733,51.09582752708593 98.95475313190764,50.98166393127758 87.17052321297524,52.9492703149117 86.61871775977124,53.08357507183973 86.02446573325142,53.459626456402475 82.62343404570129,52.90897881691126 82.45895357406698,53.04328368294591 82.05040530582846,52.92912457000784 81.38717759765495,52.29117174868588 81.27575534266362,51.51890209057092 80.58069270450505,50.995094956178946 80.28356669124332,50.525006919906446 79.8166543846819,50.18922702292912 79.48769344143511,50.229520730605145 78.47958732499319,49.819866510300926 78.40000000000146,49.631827374367276 78.54325718497785,49.88030750969847 79.19056742815155,50.03476750686605 79.49830508475134,50.216089498360816 79.86440677967767,50.175795779781765 80.38968312454381,50.592162626482605 80.58069270450505,50.95480187053545 81.22800294767876,51.377877637103666 81.37126013264424,51.67335698426177 81.39778924098209,52.257595057079016 81.99204126751283,52.86868728618356 82.40589535740946,53.0298532127199 82.64465733235556,52.86868728618356 83.93927781871753,53.150727313928655 86.02977155490953,53.426050555844995 86.60280029477144,53.04328368294591 87.15991156963355,52.92240931989363 99.05556374354637,50.96823290273096 99.30493736183053,51.035388009098824 100.47221812821226,51.941973044904444 101.34237288135773,51.8479575891688 101.76683861458514,52.13000342169835 102.00560058953124,51.901680728562496 102.45128960943475,51.70021865578383 102.48312453943436,51.35773125387641 102.80677966101939,50.57201592406636 103.46470154752387,49.97432669571208 104.28179808401183,50.007904933219834 104.61075902725861,50.686180462900666 105.55519528370496,51.01524148673707 105.91599115695863,50.94137083471651 106.76492262343527,50.42427318954651 110.10759027266977,49.82658218053257 110.72837140750926,49.80643516709097 111.69933677228255,49.60496458243506 113.44495210021705,49.77957246975711 115.37627118643286,50.76676703796329 116.7770081061135,51.87481916613979 118.42181282238744,53.84239011613681 119.291967575522,55.18539713581049" stroke="#4dd2ff" stroke-linecap="round" stroke-linejoin="round" stroke-width="0.5"><title>2022-09-11 16.4km</title></polyline><polyline fill="none" points="187.60000000000218,58.51485195315399 186.09796753163027,56.57206140937342 184.41370318292684,54.04911996317969 183.1767352677998,52.399706542793865 181.6526140866663,51.00185729857185 180.89055349610135,50.5335693364359 179.2835996420763,49.7297815859456 178.47736162597357,49.59698066574492 177.43366994759708,49.48514804684601 176.13043589416338,49.8136556753052 174.98734500830687,49.88355064564894 174.1976735267708,50.10022445214781 172.47475393071,50.30990791498334 171.98880224977256,50.47765407192128 171.30405215390056,50.924974491808825 170.96167710596637,50.97389992755052 170.0229068132321,50.68733600144333 169.6197878051862,49.91849809529958 168.8356385018451,49.869571659135545 168.4325194937992,50.17011903443199 168.12879969320784,50.554537544991035 167.78642464526274,51.609926371849724 167.0464527674776,52.11315053251019 166.63228940303452,51.81960370169327 165.6769525757336,51.91745283078126 164.66639396649407,51.099707977900835 164.23566406749524,50.897017079158104 157.62009459285764,51.95239890335506 156.65923558736904,52.21798828178362 151.86046273807005,52.93786840920802 151.28615620604978,53.05668261060782 150.70632749584547,53.46903565857792 148.4698453278761,53.21044175940551 147.13347820527997,52.89593391989911 146.90154672119388,53.05668261060782 146.4763390003718,52.9099120867686 145.85233286462244,52.28787999635824 145.83024415184627,51.714765143238765 145.7142784098105,51.4561624553171 145.06818356129588,50.98787861496021 144.68715326600068,50.4427070008569 144.51044356384227,50.30291847995613 144.40000000000146,50.337865645673446 144.47731049468348,50.24700296558149 144.8804295027403,50.596473936566326 145.03505049212254,50.91099578738067 145.6645788060814,51.29540878004991 145.84681068642385,51.69379740599834 145.88546593378123,52.25992332187525 146.50394989134656,52.89593391989911 146.82975840469953,53.0427044834687 147.1997443436012,52.89593391989911 150.64006135753516,53.455057643092005 151.42421066086536,52.98679193701901 164.18596446375886,50.876049009697454 164.4510290170001,50.945942541380646 165.65486386296834,51.861539065434044 165.90888405981968,51.91745283078126 166.62676722485048,51.78465753921046 166.8642208871206,52.07820456874106 167.06301930205518,52.120139722410386 167.7312028633496,51.665840409765224 168.12327751500197,50.45668583211227 168.78593889811964,49.86258216447459 169.61426562699853,49.841613674794644 169.91246324939493,50.554537544991035 170.03947334782424,50.52657993167668 170.46468106864995,50.77120853474844 170.98376581874254,50.90400643373141 171.37031829221087,50.82712348122004 172.2759555157827,50.24700296558149 173.0104052153947,50.17710848743809" stroke="#4dd2ff" stroke-linecap="round" stroke-linejoin="round" stroke-width="0.5"><title>2022-09-10 13.4km</title></polyline><polyline fill="none" points="55.599999999998545,106.49019332220269 51.39576868830409,100.59458036467186 49.83372227208747,99.15737912825352 49.36843185022735,98.85591234366439 47.324477497117186,97.78323722379355 46.85364790357926,97.67807180006639 46.48252340043473,97.7061159339537 45.468854981409095,97.50980667779368 43.68524169765806,97.90242444574324 42.693729965380044,97.97954544316963 42.4555455827649,98.14079806651716 40.345121169382764,98.38618152968775 39.35360943710475,98.95406451275994 38.93817156046498,99.02417309105658 38.02974740350692,98.69466194760389 37.65862290035511,97.96552345216696 36.860982177193364,97.90242444574324 36.16858571611738,98.57547654948576 35.83623541479392,99.33966051852985 35.78638286959904,99.69721061233577 35.38202333632216,99.87949010203738 35.08290806513469,100.15991883313472 34.63423515834438,99.87949010203738 33.68149762788744,99.94258669895862 32.55704577509823,99.07324903936751 32.21361713040096,98.94705364972106 25.68847288114557,99.98465105419746 21.489780741110735,100.77685669517086 19.900038466472324,100.98016415294114 19.30734709578246,101.13439686424681 18.81436081547872,101.48492404496574 18.5872547762483,101.5410081736809 15.191742531085765,100.98717474069781 14.809539684567426,101.11336515792937 14.482728554929054,100.98016415294114 13.85126298241812,100.38426072441143 13.696166175144754,99.52895205224195 13.003769714054215,99.02417309105658 12.748967816380173,98.61053110682042 12.400000000001455,98.3371049300913 12.787742018197605,98.5684656351732 12.981613027302956,98.9190101880231 13.646313629949873,99.32563889590892 13.795871265541791,99.5990598520766 13.873419669180294,100.30013262911962 14.549198615190107,100.96614297457563 14.89262725989829,101.06429114332786 15.14742915757597,100.91005822320221 15.97830491088098,101.11336515792937 18.581715604566853,101.47791352461718 18.797743300423463,101.43585038252058 19.351660469292256,101.06429114332786 32.1194512117072,98.91199932022937 32.54596743172442,98.98210795546765 33.72027182970487,99.91454377648915 34.72840107705997,99.83742566138608 34.861341197585716,100.07579037329197 35.060751378372515,100.15290813337197 35.31001410436511,99.90753304350437 35.78638286959904,99.66215679073139 36.14088985766284,98.49835643978076 36.70588536992,97.96552345216696 36.905295550706796,97.89541344029567 37.67524041543584,97.93747945882569 38.01866906014402,98.58949837527325 39.00464162071512,98.96808623601464 39.469932042560686,98.84189059003256 40.39497371457401,98.30906113801029 45.40792409282949,97.52382879219658 46.53237594562961,97.5939393072913 47.379869213993516,97.75519313168843 48.75912296448223,98.44226901511502 49.64539043467448,98.99612967112989 50.69229388383974,99.87247936431231 51.567483010647265,100.79087792479186 55.30642390050707,106.02053175992114" stroke="#4dd2ff" stroke-linecap="round" stroke-linejoin="round" stroke-width="0.5"><title>2022-09-03 16.2km</title></polyline><polyline fill="none" points="119.24033613445499,107.85782758846835 119.57585943468075,107.42628217672609 119.88388082506208,107.27315228918815 120.91795263560198,106.29171809305262 121.31948051948712,105.83927758163554 121.27547746370692,105.74878900168551 121.60000000000218,105.47036160309653 117.27119938883334,99.3793850352813 115.57158135980717,97.78517031384035 114.4495034377469,97.10291484799018 113.0744079449978,96.42065032796017 111.2097784568432,96.1978681154942 109.88968678380115,96.49723149049532 106.20443086325758,97.03329643423058 105.3298701298736,97.55543223947825 104.93384262796462,97.67378228478992 103.93827349120693,97.36746396049057 103.52574484338038,96.65735537085857 102.76669213140121,96.56685063020632 102.05714285714566,97.23518957441775 101.68311688311587,98.36299184148811 101.27608861725457,98.5300715547528 101.01207028266799,98.79461332362553 100.86355996945349,98.78765171555642 100.54453781511984,98.51614826605146 99.59847211611122,98.613611207762 98.50389610388447,97.77124682340582 98.05286478228663,97.61808817975543 85.23697478992108,99.76226767194748 84.87394957982906,100.11034032193129 84.65943468297337,100.17995456915014 81.8212375859548,99.79011357068521 81.12818945761319,99.6021534616848 80.96317799847384,99.7483447169434 80.53964858670588,99.61607645626282 79.8851031321501,99.01042270586913 79.84110007639174,98.36299184148811 79.65408708938048,98.02883078604646 79.109549274257,97.68074404367144 78.75202444615206,97.18645682007991 78.40000000000146,96.92886863685635 78.85653170358637,97.26999865637481 79.10404889228084,97.68074404367144 79.72559205500511,98.09844785169844 79.83009931245033,98.28641345811775 79.9016042780786,98.98953796652131 80.52864782276811,99.61607645626282 80.96317799847384,99.7483447169434 81.19419404125074,99.6021534616848 84.62093200916934,100.17299314868069 85.19847211612432,99.80403651436427 85.53949579831533,99.69961434471406 98.10786860198641,97.6041646440899 98.46539343008772,97.69466755861504 99.58747135218073,98.58576467185412 100.59954163483053,98.51614826605146 100.83605805959814,98.79461332362553 101.03957219251242,98.79461332362553 101.21558441558227,98.57880303550701 101.71611917494738,98.30729848308692 101.76012223070575,97.92440501078818 102.07914438501757,97.15164768153772 102.6181818181758,96.64343157496842 102.9097020626541,96.56685063020632 103.53124522536746,96.60166016470612 103.92727272726916,97.31873133153204 104.63682200152107,97.6041646440899 104.99434682964784,97.63897347620514 106.30893812069189,96.97760163536077 110.51673032847975,96.26748766059973 111.34728800611629,96.14217241153528 112.28235294117621,96.32318322880383 113.17341482046686,96.36495486534841 113.63544690604976,96.69216484408389 114.98304048892169,97.31873133153204 116.0171122994725,98.09844785169844 116.87517188693528,98.89207573745807 117.89824293353377,100.14514745731867 120.97295645532358,104.54457966315385" stroke="#4dd2ff" stroke-linecap="round" stroke-linejoin="round" stroke-width="0.5"><title>2022-09-01 16.9km</title></polyline><polyline fill="none" points="187.60000000000218,106.5124479681217 183.09135612754108,100.28830892705082 181.7747214752053,99.10500764626704 180.9172493276892,98.6358807077122 180.56872839031348,98.32079306110609 179.2686899730943,97.73262431673356 178.47760276604095,97.60658728674025 177.43203995389922,97.48755203187466 176.07114867459313,97.83065290542072 175.72262773722832,97.78864067587347 174.83196311946085,97.92167928565323 174.32854398769268,98.11773556031767 172.42550902804578,98.29278517736748 171.396542451017,98.90195322516593 170.98163657317127,98.99997959698158 170.06331156356828,98.6918960883304 169.65393776412748,97.94268535061201 168.80752977334123,97.88666915836802 168.16580868228266,98.51684782243683 167.8394160583921,99.28705575969798 167.7840952746701,99.6581518521707 167.32493276988316,99.88220858082786 167.0704571648057,100.14127296311926 166.6555512869818,99.8331962543889 166.0691509796343,99.95922785708535 165.51041106414414,99.80518918985035 164.51463695734856,99.0279870976592 164.1716480983414,98.91595700392645 151.81298501728088,100.98847444809508 151.29296965039975,101.10050005167795 150.9001920860428,101.4365754063474 150.61805608912255,101.52059390372597 148.70395697272397,101.27553957145574 147.1051863234643,100.91145670482729 146.85071071840866,101.07949526948869 146.43580484056292,100.92545993942258 146.16473300036887,100.58237960057886 145.8770649250837,100.40733773446482 145.76642335765064,100.1552764062726 145.78855167114307,99.7071643445197 145.63918555512282,99.38508140144768 144.99746446406425,98.95796831752159 144.78171340760673,98.58686719990146 144.40000000000146,98.28578320406086 144.81490587781445,98.58686719990146 144.98086822897312,98.9299607789435 145.67237802535237,99.39208322589911 145.8604686899671,100.28830892705082 146.4745293891574,100.93246155527959 146.8175182481682,101.0724936735387 147.11071840184013,100.86944697832587 147.9958509412245,101.10750164384444 150.61805608912255,101.48558621306802 151.45893200153296,101.01648087172725 164.18824433344707,98.92295889190791 164.53123319246515,98.97197208112993 165.73169419900296,99.93122086080257 166.6223588167486,99.82619448969126 166.86023818669855,100.07125569048367 167.07598924319245,100.10626433866491 167.30833653476657,99.8752068227659 167.75090280445875,99.67915721171448 168.10495582019576,98.58686719990146 168.84072224354895,97.87266510082918 169.60968113713534,97.86566307062458 169.99139454476244,98.57286333201773 170.11310026891442,98.54485558481247 170.58332693046032,98.84593807210695 171.10887437572092,98.9299607789435 172.28167499039046,98.30678912112126 172.7629658086771,98.20876143515488 177.36565501343648,97.48755203187466 178.48313484440587,97.56457487513762 179.20230503265338,97.68360995268449 180.95044179791876,98.53085170552731 181.87983096427342,99.15402066293245 182.80922013061718,99.96622960379682 184.40245870148647,101.8916739676497 187.15190165193417,105.88936767746054" stroke="#4dd2ff" stroke-linecap="round" stroke-linejoin="round" stroke-width="0.5"><title>2022-08-28 16.3km</title></polyline><polyline fill="none" points="55.599999999998545,154.36290255939457 51.374839664549654,148.52339075026612 50.133399112000916,147.39047313334595 49.44607794771582,146.91167282140668 47.50133201776771,145.90010773012546 46.77138628515604,145.7517431222077 46.046768623600656,145.63709744060907 44.82664035521884,145.8933638938979 44.533596447963646,146.05521571125792 43.38806117415152,146.12265381320321 42.84459792798589,146.284504885356 40.79861864827399,146.54751175563797 39.92481499753558,147.0735213292137 39.589146521961084,147.1611890512977 38.65140601875464,146.85772320190517 38.22516033548527,146.12265381320321 37.51119881598788,146.10242239222862 36.8558460779459,146.70261772031154 36.48288110508656,147.76811520254705 35.86482486435125,148.23342024280282 35.667686235825386,148.23342024280282 35.342673902330716,147.97042227597558 34.46887025160322,148.04460133031534 33.39259990132632,147.20165102483588 33.072915638887935,147.087008681101 21.122052294023888,149.06960967877603 20.605229403063277,149.18424745875745 20.26956092747787,149.45398237077097 19.933892451903375,149.56861926599595 17.482979773074476,149.2381945580346 16.577207696107507,149.00891898256668 16.42269363592277,149.14378709594894 16.22022693636245,149.1505304920429 15.905870744936692,148.97520189714123 15.378391711885342,148.46944287670703 15.21854958066615,147.63998696432827 14.541884558464517,147.12747071490958 14.099654662059038,146.5205367559247 13.721361618154333,146.2710173160849 13.444301924027968,146.33171134897202 12.73034040454877,146.02824044487716 12.533201776026544,145.9945213413812 12.400000000001455,146.10916620013813 12.447952639366122,145.9945213413812 12.655747409968171,146.00126516390446 13.444301924027968,146.3182237924775 13.774642328564369,146.25752974317584 14.1209669462296,146.5070492506129 14.50458806116876,147.00608451487642 15.245189935860253,147.55906369664808 15.389047853965167,148.4222384394161 15.985791810551746,149.02240581031947 16.321460286137153,149.14378709594894 16.625160335472174,148.96845847732038 19.98717316231341,149.54164590263463 20.530636408493592,149.16401728145865 20.79703996052922,149.0898398944264 33.01963492847062,147.0465466144342 33.371287617177586,147.14095805221223 34.47419832264859,148.0243706900983 34.67666502220891,148.06483196232148 35.29472126296605,147.91647380340873 35.80621608288493,148.21993320135152 36.02466699557044,147.99065293811145 36.48288110508656,147.78160236634722 36.80789343858123,146.70261772031154 37.22881105081251,146.23729837699284 37.52718302912399,146.05521571125792 38.27311297483902,146.08893477364472 38.614109521458886,146.73633634436192 39.567834237801435,147.1004960293576 40.191218549585756,146.87795431605628 40.76132215096732,146.5070492506129 41.171583621129685,146.40589284422822 44.84795263936758,145.92708306590794 45.15698075974797,145.77197468567465 45.769708929448825,145.66407291884752 46.6914652195519,145.81918163514638 46.81401085348625,145.7584869776074 47.61322150963315,145.91359539984478 48.33251110015772,146.32496757118133 48.865318204254436,146.5003054965855 49.97888505181618,147.21513834204598 51.428120374948776,148.53687770949182 53.06916625555459,150.7554327927428 55.056536753832916,153.70885733800606 55.21105081402857,153.79651338147596" stroke="#4dd2ff" stroke-linecap="round" stroke-linejoin="round" stroke-width="0.5"><title>2022-08-26 16.9km</title></polyline><polyline fill="none" points="120.97786760990493,152.8733396118041 118.94775138959085,150.00704683120784 117.5179383527211,148.41152252106622 116.85760485094215,147.82441227059826 115.83708943911188,147.17512953647383 114.34724608388206,146.45676454047498 112.56270843859602,146.23572712165696 111.64588175846802,146.41532009741059 111.28024254674528,146.60872721029955 110.13420919655982,146.65017149621053 109.59939363316153,146.8642997703355 107.50378979282686,147.09914910189764 106.5978777160235,147.63791701213268 106.1722081859516,147.72771111059046 105.2608388074841,147.40997743691332 104.85154118241917,146.67089362653132 104.07660434563877,146.6432641175561 103.40535624052791,147.30636820237123 103.01243052046993,148.4046153809395 102.59767559374086,148.61182917812766 102.3466397170414,148.8535775443197 101.93734209196555,148.57038648604066 101.03688731684088,148.6947144613223 99.91268317333379,147.7829689387654 99.53067205660409,147.64482425609822 86.84790298130974,149.77911784226308 86.37311773623514,150.11755748953874 86.00202122285191,150.19353342829345 82.65669530065497,149.6409785654323 82.42748863061934,149.80674565273875 82.0236483072149,149.6409785654323 81.41788782213553,149.07460361936683 81.27599797878429,148.2319365736039 80.58837796865919,147.69317493758354 80.17908034361608,147.1405929893299 79.69883779685915,146.81594830312315 79.4150581101494,146.8919291595921 78.7219807983929,146.58800505470572 78.40000000000146,146.58800505470572 78.983931278417,146.61563459361787 79.39868620515335,146.84357771858777 79.6770085902026,146.7814115127876 79.94441637189811,146.905743848587 80.39191510863384,147.29946091259262 80.59929257200201,147.67936046183968 81.18868115208898,148.0454428051089 81.37422940880424,148.45296534223962 81.45063163214581,149.09532476482127 82.0618494188966,149.6340715917795 82.38928751893764,149.76530393141002 82.72218292067555,149.59262973016666 83.62809499747891,149.82055955237593 86.1057099545178,150.17971962966476 86.98979282465007,149.72386217640815 99.4979282465938,147.64482425609822 99.8417382516418,147.72080387786627 100.99322890348776,148.61873629021284 101.9700859019722,148.5634793674035 102.13926225367322,148.78450669944868 102.33026781202716,148.8535775443197 102.64133400707215,148.57038648604066 103.03425972714467,148.39080109785937 103.40535624052791,147.2303879632709 104.02203132896466,146.6225419760085 104.8788276907544,146.6432641175561 105.18989388580303,147.34090463726534 105.34269833250801,147.32018277913448 105.7901970692219,147.58265902684434 106.26498231430742,147.67936046183968 106.59242041435937,147.59647352877437 107.59110661950035,147.0300758813246 112.60090955028863,146.22191225117786 113.43587670541456,146.36006078760693 113.64325416877182,146.2978939925124 114.44002021222695,146.46367194439154 116.12632642749668,147.34090463726534 116.95037897928705,147.9072988332773 118.27104598281949,149.07460361936683 119.93006568975034,151.3124386946838 121.60000000000218,153.77808774882214" stroke="#4dd2ff" stroke-linecap="round" stroke-linejoin="round" stroke-width="0.5"><title>2022-08-21 16.1km</title></polyline><polyline fill="none" points="187.60000000000218,154.37260019442692 187.01250155957678,153.6836808271437 183.37971303805898,148.53353963156405 181.94061135371885,147.21692897880712 181.035109170316,146.6438856161003 179.49359950094367,145.87981765933364 177.6610355583216,145.6819767460147 176.9172301933977,145.82524093327447 176.46986899563854,146.016259215834 175.39728009981263,146.06401367330545 174.6965938864596,146.28914122021524 172.9448783530861,146.50062375693233 171.5650655021891,147.15553178744085 170.6002744853431,146.89629837673056 170.36311915158512,146.6575295814364 170.10979413601308,146.11176808550226 169.3713786650078,146.07083573497584 168.7192014971988,146.6848175010382 168.4011977542068,147.46933886830448 168.39041796631136,147.75585666981715 167.68434185902515,148.26066978400922 167.2154210854751,147.9605112446734 166.34764815970266,148.06966001134788 165.17265127885548,147.17599752620663 164.768409232689,147.08731259815613 154.55995009358594,148.8200513808988 153.29871490955338,148.94284163185148 152.18300686213843,149.21570778472596 151.92968184654092,149.48175086089395 151.63323767936527,149.5840747468901 149.25090455396276,149.27028083793994 148.1944853399982,148.99059331527678 147.9842794759861,149.17477795599552 147.63932626326277,149.06563158351855 146.944029943872,148.41074838304849 146.9386400499061,147.86500587986666 146.83623206487027,147.6125979727367 146.14632563944542,147.11460028495276 145.93072988147833,146.74621526607734 145.2462133499721,146.24138697615854 145.32167186525476,146.08447985551902 145.17614472863715,145.9616826375859 145.18153462258852,145.83888512033445 145.38096069869425,145.95486056114532 145.4564192139842,145.85252930369097 145.3917404865897,145.9616826375859 145.17614472863715,145.82524093327447 145.32706175920612,146.1322342483145 145.04678727386636,146.3096073109482 144.40000000000146,146.0435474828082 144.99288833437822,146.29596325139937 145.3755708047538,146.2550310505103 145.9361197754224,146.6916394786167 146.17327510917676,147.08049067415777 146.7931129132885,147.46251699603454 146.9386400499061,147.73539116661414 147.03565814098692,148.44485709320725 147.73095446039952,149.0724532387212 147.98966936992656,149.15431302917568 148.26455396132587,148.970128313631 149.04069868995794,149.1884212359182 151.59011852776166,149.56360998630043 151.80032439178467,149.50903725079843 152.2908047411147,149.13384809402487 164.84925764192303,146.99862751399996 165.1241422333187,147.08049067415777 166.28835932627044,147.9946202596766 166.5470742358193,148.04237284185 167.25315034310552,147.94004582460184 167.61966313161975,148.22656094914055 168.30417966312598,147.8172531295677 168.692252027442,146.6438856161003 169.28514036181878,146.08447985551902 169.54385527137856,146.016259215834 170.12596381783806,146.03672541745254 170.54098565189997,146.74621526607734 171.5219463505855,147.07366874923537 171.85072988148022,146.9918055779708 172.80474111040894,146.41193763996125 177.8496818465428,145.62739980557672 179.62834684965492,145.84570721246564 180.46917030568147,146.35736149035802 181.22375545851537,146.6916394786167 181.97295071740518,147.22375088433546" stroke="#4dd2ff" stroke-linecap="round" stroke-linejoin="round" stroke-width="0.5"><title>2022-08-19 15.6km</title></polyline><polyline fill="none" points="55.60000000000218,202.31890351065522 55.48776444389296,202.1430507581681 55.428974390699295,202.0280697776834 52.30775702090614,197.63830387209237 51.35642706915678,196.46132109473547 49.96684399356673,195.19637190690992 47.68472101943189,193.96521413134542 45.894296672035125,193.70815538203533 44.94296672027849,193.89080252417625 44.61694915254702,194.04639030368708 43.430458987997554,194.1343310081611 42.96013856240825,194.32374123047703 40.92386490164063,194.56050299842173 40.13287145861614,195.02049408241146 39.66255103302683,195.1828428654735 38.791389335641725,194.9393194930053 38.54554002227087,194.6484427978321 38.321068910059694,194.14109567134074 37.620932821977476,194.1005076786132 37.449907212663675,194.17491897341097 36.86735123098333,194.78373449464925 36.546678213537234,195.81870385234288 36.124458740570844,196.01487209762126 35.878609427192714,196.25839022702348 35.483112705689564,195.98781445442728 34.57453915625956,196.0960449393242 33.339948039109004,195.15578477159943 33.056686873685976,195.11519760331066 26.65391562539662,196.11633812912987 25.13071879252675,196.47484978993816 21.122306074481457,197.0633444854102 20.582506495109556,197.1851011430881 19.983916862554906,197.59771872069905 16.643572930835944,197.04305168026622 16.381689966594422,197.16480838741336 16.039638747988647,197.0633444854102 15.33415810961742,196.37338448660012 15.312779908450466,195.80517497944675 15.179166151181562,195.5278322776103 14.532475566003995,195.0949040068117 14.382828157849872,194.79049906987711 14.046121489551297,194.49962150812644 13.68269206977493,194.27638874224067 13.404775454659102,194.32374123047703 12.656538413961243,194.00580223400175 12.405344550297741,194.06668432616425 12.442756402331725,194.30344731244986 12.843597674127523,194.68903034534742 12.929110478784423,194.62138441449497 12.736706668321858,194.35079977503483 12.565681059008057,194.3913875644139 12.400000000001455,194.2222715578464 12.48016825436207,193.9990375525158 13.404775454659102,194.32374123047703 13.736137572672305,194.2628594516391 13.965953235187044,194.4116814467161 14.3774836075645,194.78373449464925 14.532475566003995,195.07461040203998 15.25398985524589,195.56841911064475 15.355536310777097,196.4004419209923 16.03429419769236,197.05658021794807 16.387034516897984,197.15804413369915 16.627539279972552,197.01599459395948 17.343709018932714,197.19862964230197 19.95719411110258,197.577426132626 20.662674749481084,197.1377513670268 33.04599777310432,195.0949040068117 33.39339354200638,195.15578477159943 34.499715452191595,196.0351653204234 35.44035630335202,195.9675212123875 35.857231226033036,196.25839022702348 36.53598911297013,195.8119394163441 36.88872943214301,194.68903034534742 37.615588271670276,194.0869783403723 38.395892614138575,194.12080167910972 38.705876531003014,194.76344076348687 39.41135716937424,195.06784586530557 39.76944203885432,195.10843307206233 40.063392304844456,195.027258625556 40.90783125076632,194.46579842589927 43.302189781024936,194.16138965534628 45.963775825806806,193.68109648934478 47.716788321158674,193.9313906872958 49.21326240257622,194.68903034534742 50.11114685141729,195.26401705913668 51.60762093282028,196.6574868166208 53.22701967091416,198.9302472958152" stroke="#4dd2ff" stroke-linecap="round" stroke-linejoin="round" stroke-width="0.5"><title>2022-08-14 16.5km</title></polyline><polyline fill="none" points="121.60000000000218,202.4382266284265 118.33442140140687,197.82240099103728 117.16814333046932,196.31948125860436 115.91174377224888,195.16542266720353 113.86015462020441,194.01804707324845 113.12327892993562,193.78991074762598 111.93049453920321,193.66242234343008 111.76085409253574,193.56177337156987 110.525659590141,193.96436803232064 109.3964903669148,194.01804707324845 108.82395385937343,194.2327626554943 106.86778745859192,194.44747730726158 106.04609154497666,194.923872118492 105.59548410847856,195.05806701314214 104.66246165173652,194.73599865540382 104.4451098294303,194.46089694208786 104.31787949442514,194.05830631580102 103.48027978893151,193.9979174397231 102.85473064180042,194.63535186430818 102.51014848447812,195.67535884752579 101.81038164191705,196.16516102699825 101.37567799730823,195.8699383751773 100.47976438826663,195.93703458686286 99.50963308382416,195.16542266720353 99.00601300772541,194.99096961125542 93.59342250583722,195.8632287490218 91.20255246043598,196.34631951070332 87.20009817156097,196.936757379146 86.6752730396438,197.07765628529887 86.34659467419988,197.35274347119775 86.02321757272148,197.4466753312663 83.72777027857592,197.15146031433687 82.7205301264039,196.91662893127432 82.42365934470945,197.05752789464168 82.10028224322741,196.91662893127432 81.48003436004001,196.33960994902736 81.3581052889931,195.54787529443638 80.679543502265,195.0110988413544 80.44628788809496,194.6152224815596 80.16532089827524,194.3803790785205 79.81013621303646,194.16566413598775 79.55567554302252,194.22605280762218 79.19518959382185,194.0046273184853 78.58554423856185,193.9241087134469 78.40000000000146,193.61545284867316 78.52192907105564,193.75636119938645 78.6173518223186,194.25289219361002 78.55373665481238,194.25289219361002 79.009645355276,194.21263310916402 79.60338691864672,194.91716236422508 80.08050067493969,194.7829670879728 80.350865136832,194.98425986606162 81.26268253773378,195.36000419729316 81.39521413672628,195.5076172621557 81.45882930421794,196.2054185250454 82.05787213155418,196.88979098807977 82.45546692847711,197.02398055875892 82.73643391827136,196.8562435386266 83.6800589029408,197.09107520782345 86.03912136458894,197.42654709052658 86.24587065898595,197.38629058450897 86.77069579090312,196.997142673692 91.89701803903154,196.1584514407914 93.50330101852887,195.78942280124102 99.14914713462349,194.9708403729819 99.4195115965158,195.05135727704692 100.47446312431202,195.90348649237058 101.41808810897055,195.83639023526848 101.53471591606285,196.00413070768627 101.77327279420933,196.10477471857666 102.4783409007432,195.69548779962133 102.84942937784945,194.55483428421576 103.543894956445,193.95094826299828 104.28077064670288,193.9912075600514 104.65716038778191,194.6621910285976 105.58488158057298,195.02451832355655 105.94536752976273,194.93729162431555 106.86778745859192,194.3736692506427 109.18974107252507,194.0381766986102 110.22878880844655,193.78991074762598 110.7059025647468,193.7832008398036 111.03988219414532,193.64229256543695 112.19555773715547,193.5819031823048 112.6196588538478,193.70268187493275 113.94497484353997,193.80333056056043 114.47510123941902,194.08514579264374 115.21727819363878,194.68232039226132 116.0548778991324,195.18555182642012 117.40139894466483,196.46709146523062 118.41924162475334,197.88278520638414" stroke="#4dd2ff" stroke-linecap="round" stroke-linejoin="round" stroke-width="0.5"><title>2022-08-12 16.3km</title></polyline><polyline fill="none" points="187.60000000000218,202.8679272290792 183.59337877313374,197.27154389707357 182.23154819864067,196.14686678531143 182.00019474196233,195.8607022293727 181.0432327166527,195.22847230320986 179.7655306718625,194.63616530901345 178.76650438169963,194.3766128036077 178.28276533593453,194.30340543886268 176.75793573515693,194.6295101336873 175.4854917234734,194.75595831069586 175.0543330087712,194.98888831140357 173.15092502435073,195.10868045329335 172.2518013631925,195.70098175270323 171.89425511197987,195.7808420559195 170.9530671859793,195.48802030963634 170.76903602727543,195.29502320475876 170.5376825705971,194.76926862619803 169.8068159688446,194.71602734257976 169.18636806232462,195.3349537024369 168.87088607595433,196.08697201613177 168.84985394353134,196.36648031446748 168.37137293086562,196.6526419254442 168.19259980526112,196.86559832205967 168.02960077898751,196.83897882293604 167.73515092501475,196.57943795100073 166.86231742939708,196.67926152548898 165.48471275561678,195.69432672156108 159.66932814020765,196.64598702318835 157.94469328140258,197.03196986486364 153.66991236610556,197.6774861192025 153.1756572541526,197.77730746350062 152.54469328141204,198.17659081334932 150.27848101265772,197.8638191312457 149.20584225899438,197.61093844371862 148.6958130477069,197.02531501394333 148.1489776046692,195.14195599645973 147.57585199611276,194.5296823957142 146.64518013631096,194.21688750355315 145.17818889970658,194.0704721891234 144.7996105160746,193.9373669792585 144.58928919181562,193.7443637845754 144.40000000000146,193.13207277092442 144.63135345666888,193.79095083200082 144.804868549174,193.90409062045364 145.63037974683175,194.13036941592145 146.3454722492752,194.15033514196693 147.09211295033674,194.310060658343 147.74936708860696,194.6561308295859 148.3855890944469,195.52795065051032 148.84303797468237,197.0852086396153 149.25842259006822,197.63090275580907 149.8000000000029,197.710759923164 152.57098344693077,197.0120053094397 152.87594936709138,197.19168601609272 153.02843232716623,197.5177715466416 153.0336903602656,197.83720017276937 153.67517039921586,197.65086705981594 159.39065238559124,196.63933212004122 165.43213242454294,195.68767168952036 165.7160662122733,195.75422196925865 166.88860759494855,196.66595172727466 167.7877312560886,196.58609286228602 168.0874391431389,197.8039264543986 168.73943524830975,197.68414088178906 168.83407984420046,197.58431934827604 168.7762414800418,197.25823425926865 169.0023369036062,197.13179252021655 169.0023369036062,196.8589434486239 169.21791626095364,196.3931000695011 169.1758519961113,195.98714723863668 169.03914313534915,195.74756694535245 169.08120740020968,195.4813652496814 169.20740019474397,195.22847230320986 169.7910418695319,194.71602734257976 170.5797468354358,194.72268250619527 170.8847127555964,195.374884167657 171.69444985394148,195.71429181223357 172.24654333008948,195.68767168952036 172.33592989290264,195.85404721988743 172.75131450827757,195.60781123490233 173.13515092504167,195.12864578189692 173.70301850049873,195.0021985638159 176.98403115872134,194.54299277249083 177.86738072055232,194.3300263113888 179.78656280429277,194.54299277249083 182.13690360272813,195.82742717286965 183.50925024343087,197.07855379592002 187.14255111977764,202.22913328403592 187.3528724440257,202.36887016885157" stroke="#4dd2ff" stroke-linecap="round" stroke-linejoin="round" stroke-width="0.5"><title>2022-08-07 17.9km</title></polyline><polyline fill="none" points="55.60000000000218,256.56690087021707 51.40873180874405,250.7573529138026 50.18128898128998,249.67113974113818 49.26819126818373,249.07750092069546 48.03076923077242,248.49016997038416 46.85821205821776,248.23755223294938 46.58877338878301,248.20597491957233 44.717671517679264,248.62279373476485 44.118918918920826,248.64805536138738 43.53513513514554,248.84383250391693 41.81871101870638,248.99540134010022 41.02536382537801,249.48168136409367 40.5313929313852,249.6269328553426 39.67817047817516,249.36169066056755 39.279002079005295,248.64805536138738 38.575467775470315,248.6417399560196 37.96673596673645,249.1974923554335 37.63243243243414,250.2142494897489 36.978794178798125,250.64368062746144 36.54968814968379,250.35949869943215 35.78627858627806,250.46685652020824 34.703534303527704,249.67113974113818 34.31933471933735,249.5764106488241 29.614137214150105,250.30897728650962 27.83783783785475,250.68157142035852 23.23742203742222,251.40780566839385 22.743451143462153,251.51516107612042 22.18960498960587,251.88143060745642 20.333471933474357,251.65409123694553 18.96632016631702,251.3446553131398 18.79168399169066,251.48990100241645 18.4823284823251,251.40780566839385 17.863617463623086,250.84576450055465 17.78378378378693,250.20161910230672 17.664033264038153,249.98058676844084 17.045322245325224,249.551149525043 16.905613305636507,249.26064561812746 16.666112266120763,249.03329347218823 16.291891891887644,248.78699406332817 16.052390852393728,248.85646325906782 15.194178794175969,248.55332419094339 14.92972972973439,248.27544498080533 14.645322245327407,248.3701767157363 14.625363825372915,248.4333310987713 14.735135135153541,248.35754582886148 14.819958419964678,248.42701566432152 14.585446985453018,248.62279373476485 14.121413721415593,248.02282608020323 13.672349272357678,244.64391672123384 13.592515592521522,242.59118867924917 12.988773388769914,235.34591528616875 12.804158004164492,234.0950915135436 12.400000000001455,233.2359203851629 12.474844074844441,233.14747539934615 12.829106029112154,233.34331764231683 12.988773388769914,233.1790629135503 12.918918918927375,233.02744265016736 12.754261954269168,232.95163233350104 12.434927234935458,233.16011040760714 12.419958419955947,233.2927777874138 12.769230769241403,233.84239576682376 12.888981288986542,234.37937259108367 13.846985446984036,244.9533971097444 14.231185031185305,248.09229641428465 14.535550935557694,248.578585855219 14.740124740135798,248.73647094688567 15.109355509364832,248.83120174530632 15.114345114350726,248.91330161497535 15.36881496881324,248.80594021788784 15.55841995843366,248.83120174530632 16.047401247407834,249.46905077827614 16.48648648649032,249.34906004223376 16.880665280667017,249.61430230884434 16.84573804574029,249.32379879530345 16.566320166326477,249.01434740998593 16.666112266120763,249.00803205421835 16.93555093555551,249.26064561812746 17.070270270276524,249.5322036732323 17.69896049896488,249.95532586359332 17.79376299377327,250.13215191027484 17.85363825364766,250.76366803272322 18.40249480249622,251.33834027291596 18.78170478170432,251.4709559381663 19.051143451149983,251.31308010343855 19.799584199594392,251.50884605897954 22.204573804578104,251.8498557611456 22.78336798337841,251.4709559381663 34.40415800415212,249.51957310108628 34.72848232848628,249.6016717589264 35.7613305613304,250.4352807162213 36.664449064457585,250.38475938537886 36.93388773389597,251.52779110784104 37.69230769230853,251.35097035251965 38.58544698544938,251.29413496735287 39.99251559252298,251.04784749802639 40.05239085238645,250.41002005764676 39.85280665280152,249.94269540603273 39.86777546778467,249.61430230884434 40.85571725571208,249.5132578137309 41.7388773388775,248.9511938137657 42.54220374221404,248.9006708752022 46.21954261955398,248.2564986107318 48.020790020796994,248.4649082582364 49.75218295217928,249.3680059684375 50.375883575881744,249.7848143979245 51.328898128907895,250.6499957617416 52.51642411641296,252.12771367502137 55.04615384615681,255.71445815152038 54.89147609147403,255.99860745526894 55.08108108108354,256.3143268738422 55.03118503119549,256.42167098940627 55.160914760919695,256.76264477679433 55.086070686065796,257.2046441251623 54.68690228690684,257.62138253217563 54.60706860707796,257.8423786616913 54.30769230768783,258.0507454820654 53.7538461538461,258.7326667509151 53.713929313937115,258.6947824974668 53.71891891891937,258.9220875566243 53.84864864865449,259.0483676664953 53.62910602910415,258.75792290277604 53.44449064449145,258.8463193266325 53.60914760916057,258.8147491944874" stroke="#ff0000" stroke-linecap="round" stroke-linejoin="round" stroke-width="0.5"><title>2022-08-06 24.1km</title></polyline><polyline fill="none" points="121.05915492961503,251.44804400930298 119.03098591549497,248.35376001326222 112.0338028168917,238.88497152295895 109.07042253520194,236.2038948449408 106.87323943661613,234.8205466744912 104.1690140845094,233.49422672692162 102.4676056338285,233.00933139353583 100.85633802817756,232.83819133111683 97.63380281691934,233.57979625984444 94.7718309859265,233.8792890776458 94.00563380283711,234.19304254468443 90.47887323942996,234.47827215807774 87.4140845070433,236.0327599737211 85.18309859152941,235.33395636338537 84.3042253521271,233.82224289229634 82.67042253521504,233.79371978807467 81.41971830986586,234.99168351559638 80.66478873239976,237.3447868799267 79.18873239435197,238.3430572724028 78.52394366196677,237.8867062670397 78.40000000000146,237.51591961921076 78.67042253520776,237.4446143449677 78.76056338030321,237.0453039170825 79.44788732395682,236.3892906416295 80.54084507044172,235.89014736861282 80.67605633802305,234.72071672214224 80.66478873239976,235.8045797128434 80.46197183098411,236.0042374681434 80.76619718309666,235.59066026924847 80.63098591551534,234.34991892766993 80.74366197183554,234.7492395753361 80.40563380279491,234.6494095553644 80.83380281690916,234.76350099901902 80.8112676056262,235.1200359638824 80.92394366198278,234.47827215807774 80.43943661972298,232.21067538919306 80.04507042253681,232.3818164714612 80.50704225351365,234.60662523212523 79.96619718310103,234.94889933137893 79.59436619716143,234.8348080885553 79.75211267606937,233.80798134116048 79.54929577465373,232.53869555254641 79.29014084504888,232.42460169854894 78.90704225350783,232.59574243317184 79.30140845071583,234.84906950066215 80.38309859155561,234.8775923190915 80.6197183098484,235.90440863780532 79.09859154930018,237.03104280235857 78.52394366196677,237.7155741302704 79.12112676056131,240.33956967176346 80.55211267606501,239.98305237613386 80.57464788730431,239.09888427539408 80.91267605636676,239.05610175965558 81.12676056337659,238.55697112545022 81.7126760563333,238.28601350486133 81.7915492957909,237.84392325893714 81.47605633803323,237.3875700908393 81.18309859154397,235.49083104685997 81.40845070422074,234.9631607280171 82.61408450704766,233.8792890776458 84.51830985918059,233.77945823303162 85.10422535209364,235.27691096602211 86.98591549297271,235.94719243385043 88.146478873241,235.76179585888895 89.6788732394125,234.84906950066215 88.47323943661468,236.2466785193319 90.45633802816883,235.6477054966963 90.39999999999418,235.14855870888277 90.71549295775185,234.84906950066215 90.52394366195949,234.6921938612213 89.45352112675755,234.8348080885553 88.02253521126113,235.8188409935974 87.15492957746028,236.01849872191087 85.44225352113426,235.47656972168625 84.93521126761334,234.8918537254358 84.46197183096956,233.80798134116048 82.72676056336059,233.76519667606044 81.49859154927981,234.8633309108336 80.70985915490746,237.31626472967037 79.05352112674882,238.3430572724028 78.58028169013414,238.00079420377006 78.52394366196677,237.7155741302704 79.15492957746756,236.97399832418887 80.51830985915876,236.07554371761216 80.8112676056262,235.4337857344508 80.95774647884537,234.5638408914965 80.58591549297125,234.67793242783955 80.90140845069982,234.84906950066215 80.51830985915876,234.3641804054787 79.98873239436944,234.3641804054787 80.58591549297125,234.3927033551954 80.70985915490746,234.6494095553644 80.2816901408587,232.80966796028952 80.4281690140997,232.6100041484824 80.4732394366074,232.73835949956265 80.38309859155561,232.49591037177015 80.3605633802872,233.42291872970236 80.8112676056262,234.84906950066215 80.66478873239976,235.79031843013217 79.18873239435197,236.95973719983158 78.55774647886574,237.80114023340138 79.05352112674882,240.31104833252903 80.4732394366074,240.02583451534156 80.68732394363906,239.81192364558956 80.51830985915876,239.212970898996 80.8112676056262,239.07036260014138 80.95774647884537,239.212970898996 81.08169014082523,238.27175255812472 81.53239436618605,237.31626472967037 81.38591549293778,236.3607682326474 81.07042253520922,235.90440863780532 81.14929577463772,235.63344419271743 81.38591549293778,234.94889933137893 82.69295774647617,233.70815042893082 84.48450704225252,233.70815042893082 85.18309859152941,235.13429733735393 87.43661971832626,235.90440863780532 88.0788732394285,235.67622809882596 89.94929577464063,234.44974923154223 94.83943661971716,233.97911982767982 95.17746478872868,233.73667355634097 96.91267605633766,233.43718033299228 97.99436619715561,233.56553467585036 99.3239436619624,232.9808080691364 101.26197183097975,232.88097637276223 102.29859154929727,233.20899444827955 104.01126760563784,233.23751771091338 106.9295774647835,234.67793242783955 109.54366197183845,236.43207424069988 112.70985915492201,239.46966535035608 118.42253521127714,247.71207683786633 121.60000000000582,251.84729983988655 118.58028169014142,255.2551719557232 116.99154929580254,256.5099255528039 116.95774647887447,256.8093531797931 116.56338028171012,257.1087799557499 116.51830985915876,257.7931808194844 116.70985915492929,257.7789225134911 116.48450704227434,258.09260479928344 116.42816901408514,257.22284707514336 116.64225352113863,257.2941389620246 116.42816901408514,257.70763095464645 116.14647887323372,257.6078226912505 116.33802816903335,257.46523929376417 115.80845070424402,257.9357637731664 115.7183098591413,258.2066708534767 116.18028169016907,258.7199665689477 115.3802816901516,259.6182280534995 115.50422535213147,259.4899054531852 116.00000000001455,259.76080853721214 116.21408450704621,259.73229245593393 116.1352112676177,259.40435696612985 116.2816901408587,259.67526027015265 116.36056338031631,259.54693773930194 115.30140845073765,259.78932461079967 115.75211267604755,259.47564737681387" stroke="#4dd2ff" stroke-linecap="round" stroke-linejoin="round" stroke-width="0.5"><title>2022-07-23 16.3km</title></polyline><polyline fill="none" points="187.59999999999854,255.02613944140467 185.56648648648115,252.25572910600022 185.07999999999447,251.8247688035699 184.2335135135072,250.40874200525286 178.85297297296347,242.9095891035322 175.88540540541726,240.126494913653 174.04648648647708,238.95658476199606 171.51675675674778,237.71276904166007 168.28648648648232,237.02312131092913 166.9340540540652,236.9738605586026 166.03891891891544,237.17090340779396 165.42594594594993,237.03543649482162 165.29945945947838,237.86055001778004 164.9491891891812,238.0083307537716 162.4291891892135,238.5132464564449 159.0821621621726,238.90732505700726 157.74918918919138,239.7816808542484 157.03891891891544,239.96640283436864 155.31675675676524,239.26445731371496 154.6454054054193,238.10685111102794 153.26378378381196,238.0699059895851 151.98918918919662,239.1659382105645 151.36648648648406,241.08704147122626 150.49081081082113,241.5549963753365 150.26702702703187,241.83823106858472 149.2259459459674,241.44416516828642 147.72756756758463,241.62888377164927 145.49945945949003,239.92945846835937 144.40000000000146,239.92945846835937 145.54810810812342,239.90482888267434 147.63027027028875,241.5549963753365 149.4010810811087,241.49342349921062 149.8194594594679,242.8849603249255 149.9070270270313,243.68539221590618 149.7318918919118,243.8085349584726 149.8875675675954,244.09176263370318 153.18594594596652,243.45142054565076 153.39027027026168,243.15587652284012 163.51891891894047,241.59194008097984 162.78918918919226,240.68065762731567 161.54378378377442,239.75705122853833 161.6216216216344,239.56001398276567 162.0691891891911,239.54769914074132 162.11783783786086,238.56250637492485 162.4972972973119,238.24231642796076 165.63999999999942,237.7004539494519 166.41837837840285,237.73739922103414 166.85621621622704,237.46646688107285 168.150270270271,237.2694246722749 171.58486486485344,237.63887846352736 173.97837837837142,238.85806532532297 176.09945945948857,240.18806871529523 178.69729729727987,242.60172889149544 185.4010810810796,251.94790052692406 185.2259459459383,252.2926684654667 184.98270270271314,252.35423403126333 185.18702702703013,252.64974816706672" stroke="#4dd2ff" stroke-linecap="round" stroke-linejoin="round" stroke-width="0.5"><title>2022-07-16 10.3km</title></polyline></svg>