<?xml version="1.0" encoding="utf-8" ?>
<svg baseProfile="full" height="300mm" version="1.1" viewBox="0,0,200,300" width="200mm" xmlns="http://www.w3.org/2000/svg" xmlns:ev="http://www.w3.org/2001/xml-events" xmlns:xlink="http://www.w3.org/1999/xlink"><defs /><rect fill="#222222" height="300" width="200" x="0" y="0" /><text fill="#FFFFFF" style="font-size:12px; font-family:Arial; font-weight:bold;" x="10" y="20">Over 10km Runs</text><text fill="#FFFFFF" style="font-size:4px; font-family:Arial" x="10" y="280">ATHLETE</text><text fill="#FFFFFF" style="font-size:9px; font-family:Arial" x="10" y="290">Allen</text><text fill="#FFFFFF" style="font-size:4px; font-family:Arial" x="120" y="280">STATISTICS</text><text fill="#FFFFFF" style="font-size:3px; font-family:Arial" x="120" y="285">Number: 27</text><text fill="#FFFFFF" style="font-size:3px; font-family:Arial" x="120" y="290">Weekly: 1.6</text><text fill="#FFFFFF" style="font-size:3px; font-family:Arial" x="141" y="285">Total: 420.9 km</text><text fill="#FFFFFF" style="font-size:3px; font-family:Arial" x="141" y="290">Avg: 15.6 km</text><text fill="#FFFFFF" style="font-size:3px; font-family:Arial" x="167" y="285">Min: 10.1 km</text><text fill="#FFFFFF" style="font-size:3px; font-family:Arial" x="167" y="290">Max: 24.1 km</text><polyline fill="none" points="22.971644020377425,35.39591748167004 22.39065103237226,37.03972529456951 21.491495217574993,38.190375764308556 20.35717557433236,39.07390256287181 17.203213639353635,40.32726529543288 15.985894997807918,41.99154397848906 15.640065838233568,42.93667839327827 15.017573351127794,48.0320421058932 13.661923045743606,51.237066160552786 13.648089879381587,53.127163633667806 14.367414531181566,54.44199439517979 16.649886984116165,57.15378191188938 17.894871958415024,61.34459133689961 18.46203178007272,62.16629946530884 19.817682085427805,63.04962867910217 22.487483197051915,64.11783102933259 23.068476185042528,60.81047767606651 25.76594362940523,59.37246613215393 26.748098442491028,58.53019327032962 30.621385029298835,53.74349256099231 32.17069966401323,52.30538621839514 32.80702531755378,51.216521439739154 33.52634996941197,48.17585934134695 34.42550578415103,47.004770527571964 35.53215909466962,46.57331352899928 40.12477033327741,46.614404746535 41.5772528033267,45.71039432213729 42.268911122431746,44.23108809166297 42.10291312582558,42.69012239284348 41.35592214121425,41.33405425310775 38.22962653901777,38.51913077266363 36.70797823708563,37.92326157756179 33.58168263488915,38.046545131044695 31.85253683726478,37.40957857830654 30.64905136206653,36.23837213493971 28.449577907420462,32.95070671960275 27.19075976673048,31.923290596540028 25.724444130275515,31.80000000000291 23.98146516623092,32.88906202995713 22.100154538376955,37.51231537509011 20.495507238112623,38.97116726280365 17.203213639353635,40.32726529543288 16.193392493529245,41.64225306402659 15.543233673626673,43.18323382666131 14.962240685592405,48.052587437137845 13.606590380193666,51.19597671498923 13.551257714658277,52.695731276093284 13.84175420871179,53.68185982778232 16.843551313417265,57.64682681784325 18.04703678865917,61.71436077405815 19.582518256953335,63.07017113239999 22.556649028963875,64.11783102933259 23.05464301868051,61.01590632209263 26.333103451077477,58.96160214818519 30.469220199098345,53.92839054829528 32.21219916314294,52.30538621839514 32.83469165027782,51.237066160552786 33.484850470224046,48.360766931888065 33.96901129357866,47.43622578952636 35.39382743087481,46.614404746535 39.0734496882651,46.77876945915341 40.7195964877028,46.367857205012115 41.84008296453976,45.42275304278155 42.32424378790893,43.82016607130208 41.53575330415333,41.53952022552403 38.686121029633796,38.868431864262675 36.58347973963828,37.92326157756179 34.01051079273748,38.10818685466802 32.01853483381274,37.55341006623348 30.82888252499106,36.505490520481544 28.408078408247093,32.88906202995713 27.38442409603158,32.02603265201469 25.544612967321882,31.90274217359547 23.81546716966841,33.07399599257769 22.515149529790506,36.66987073448399 21.781991711613955,37.882167028219556 20.135844912205357,39.15609073204541 17.272379471251043,40.286171667721646 15.847563333954895,42.279194465168985 15.072906016677734,47.621134655906644 13.661923045743606,50.96998448255181 13.551257714658277,52.28484170226875 14.14608386909822,54.15437654402922 16.871217646228615,57.74954422123119 18.130035786904045,61.89924501438509 19.139856932786643,62.9263738769223 22.570482195325894,64.19999999999709 22.916311354842037,61.44730519736913 23.345139512704918,60.728306107492244 26.429935615713475,58.899972414728836 30.41388753357751,54.03111151452322 32.21219916314294,52.32593073053431 32.848524816698045,51.31924500452442 33.54018313577399,48.21694994458812 34.06584345824376,47.354043968749465 35.47682642911968,46.59385913976439 38.9766175236,46.71713272146735 40.65043065577629,46.38840285515471 41.66025180160068,45.6282111782275 42.44874228534172,44.4365485110975 42.268911122431746,42.95722470108012 41.28675630930229,41.190227838102146 38.60312203131616,38.78624347452569 36.76331090263557,37.9027143048952 33.678514799525146,38.08763961744262 31.74187150617945,37.38903120715986 30.953381022423855,36.64932322158711 28.380412075537606,32.827417304848495" stroke="#4dd2ff" stroke-linecap="round" stroke-linejoin="round" stroke-width="0.5"><title>2022-12-04 15.0km</title></polyline><polyline fill="none" points="80.12390605685505,51.406158179041086 78.98249690976081,49.50045646014041 78.8343139678509,49.439634595251846 77.10417799752395,46.9053023893066 75.92672435105123,45.86110761445525 75.52622991346288,45.622864919903805 75.52222496909235,45.4150349480733 74.26467243510342,44.75605423687011 72.86694684795293,44.609049264825444 71.98185414091495,44.82702194778176 70.91253399257766,44.943611466478615 70.74032138441544,45.044993361472734 69.18640296662124,45.21734195281533 68.60568603214779,45.5671057724212 68.25725587143825,45.67355498190591 67.60044499382639,45.47586335194137 67.45626699628701,45.32379215691981 67.24800988874631,44.89292041601584 66.79545117428643,44.862505752782454 66.55515451174142,44.96895696597858 66.22274412854676,45.318723106451216 65.97443757725705,45.850969658360555 65.91436341161898,46.14496927095024 65.43777503090314,46.39841535963933 65.21750309022536,46.378139735687 65.0533003708224,46.2767614512195 64.55668726823569,46.378139735687 64.40850432632578,46.34772627917482 63.54744128553648,45.66848597878925 63.28711990110969,45.61779590993683 54.211915945616056,47.13846811826079 53.50704573547773,47.49328274544678 50.98393077874425,47.07257360294534 50.79169344870388,47.18408733013348 50.52736711990656,47.10298647058153 50.259035846727784,46.78365012812719 50.03475896167947,46.64172199043969 49.93864029667384,46.03345244832599 49.42200247219807,45.63807194570472 49.153671199012024,45.24775632772071 48.83327564895808,45.004440636432264 48.592978986409435,45.050062449023244 48.2845982694671,44.89292041601584 47.87208899876714,44.806745472676994 47.79999999999927,44.63946413398662 47.88410383190421,44.806745472676994 48.13641532757174,44.82702194778176 48.58897404203162,45.03485518434172 48.79322620519815,44.98416425744654 49.21374536465737,45.2933778437764 49.39396786156067,45.59751986317133 49.96266996292252,46.00303871177675 50.06679851669469,46.61637762351165 50.51935723115457,47.06243597490902 50.75564894931449,47.15874333040483 50.98393077874425,47.047229527703166 53.50304079109992,47.4679389550256 54.09577255871045,47.12833050806512 63.3031396786173,45.592450849766465 63.56346106303681,45.653278965342906 64.40049443757744,46.32238171320569 64.55268232385788,46.35786410075525 65.08934487021179,46.26155468487559 65.29359703337832,46.46937995696862 65.44578491964421,46.47951774561079 65.56593325092763,46.31224388201008 65.91436341161898,46.13483139171149 66.15866501853816,45.298446897671965 66.27080346105504,45.21734195281533 66.27881334982158,45.2629635059202 66.5030902348517,44.9790951609757 66.70333745365133,44.857436639853404 67.28805933251351,44.88785130720498 67.45226205191648,45.318723106451216 67.97290482076278,45.57217478926759 68.2812855376942,45.63807194570472 68.5776514215031,45.546829698214424 69.15836835599112,45.16665127302622 69.5188133498159,45.095684206011356 70.94056860321507,44.943611466478615 71.26096415326901,44.83716018121777 72.88296662546782,44.593841820958914 74.23263288009548,44.71550119879976 75.24588380716523,45.19199662149549 76.07490729294295,45.73438296569293 77.1282076637799,46.7430992865593 78.15747836834998,48.08125386686879 79.37498145858262,49.9312751745274 80.20000000000073,50.93481013341443" stroke="#4dd2ff" stroke-linecap="round" stroke-linejoin="round" stroke-width="0.5"><title>2022-11-05 16.8km</title></polyline><polyline fill="none" points="116.19999999999709,51.308750406315085 116.14312225705362,51.103095635964564 115.03400626959046,49.704613665653596 113.78269592476136,47.79190053529601 113.18954231974931,47.01033411332173 112.03167398120058,45.8945173334032 111.18663322884095,45.37002069874143 110.13439498432126,44.87122796271433 109.56968025078095,44.840374588613486 108.92371159874892,44.701534094900126 108.50931661442155,44.7529565591758 107.80647021943878,44.917507976872 106.98580564263466,45.01006783595949 106.56734796238743,45.17976032496517 105.09258934169338,45.29803039915714 104.41411912225522,45.72997014947032 104.01597492162546,45.82767012592012 103.39031974921818,45.5911329084156 103.25625078369922,45.447153011133196 103.10999373040977,45.04606327578222 102.4762131661555,44.99978341831229 101.98462695925264,45.503716607316164 101.7327398119196,46.28531403763918 101.23709090908596,46.54755693952757 100.9770783699023,46.50642091780901 100.899887147345,46.42929075698339 100.21735423198697,46.52184693118397 99.29918495298625,45.80710173071566 99.0472978056423,45.75053858644242 89.9956112852633,47.262288203612115 89.60152978056067,47.354842347562226 89.31307836991255,47.601652295332315 89.11806896552298,47.6582126824469 87.19641379310997,47.38055179196817 86.55044514106339,47.2160110470395 86.38387460816011,47.33427477951773 86.07104702195284,47.226294864496595 85.60789968651443,46.78923016719273 85.53070846395349,46.25960385174767 85.38038871473691,46.04877967078937 84.98630721003428,45.77624911702151 84.57191222570691,45.282603888634185 84.32815047022086,45.14376501188235 84.12095297805354,45.19004469387073 83.79999999999927,45.00492562749059 84.12907836991872,45.1694759532802 84.38502821317161,45.123196246240695 84.80754858934597,45.45743730761387 84.99849529781204,45.771107012293214 85.45757993730513,46.04877967078937 85.54289655173852,46.18761523861758 85.64040125392057,46.79437213403435 85.88822570533011,46.98462441830634 86.07917241379255,47.24686249101069 86.43668965517645,47.323990991309984 86.54638244514354,47.205727226813906 87.29391849530293,47.38569367875607 89.11400626960312,47.62736157263862 89.30901567398541,47.56051741542251 89.54058934169007,47.34970045659793 89.73966144200676,47.298281508621585 99.09198746081893,45.72997014947032 99.30324764890611,45.78653332436079 100.16453918495245,46.47042686225541 100.86738557993522,46.393296628324606 101.05833228840856,46.614402879760746 101.20865203763242,46.6503967988574 101.34272100313319,46.48071088161305 101.7246144200617,46.254461812466616 101.98462695925264,45.406015797354485 102.5087147335471,44.97921457467601 103.08561755485061,44.99978341831229 103.32937931033666,45.503716607316164 103.85346708464203,45.72997014947032 104.19067084640119,45.77624911702151 105.0844639498464,45.24660867303828 106.80298432602649,45.07177428333307 107.63989968652095,44.845516819375916 107.98116614419996,44.86094350746862 108.71245141066174,44.69124959368855 110.11408150470743,44.8198056586225 111.17038244514333,45.31345690341914 111.80822570533564,45.69911747309743 112.24293416927685,46.15162088087891 113.15297805642695,46.91263717959009 113.84363636364287,47.95129697557422 114.29053291535456,48.460332740502054 115.20057680250466,49.848577422540984" stroke="#4dd2ff" stroke-linecap="round" stroke-linejoin="round" stroke-width="0.5"><title>2022-11-04 16.4km</title></polyline><polyline fill="none" points="152.1999999999971,51.49205063666159 148.96171111696822,46.94981648091925 148.41843147609688,46.408395397163986 147.38748349615707,45.574592589531676 145.96297861101993,44.805746020705556 145.7533667810858,44.70828554064792 144.38875099021607,44.50794936334205 142.472299973575,44.81657494826868 141.98890942697471,44.98442295044515 140.34623712699977,45.18475674034926 139.65323475044715,45.62332180343583 139.33240031686364,45.6828796508853 138.6094533931755,45.45006210641077 138.31000792181658,44.87071954208295 137.66406126220318,44.83281833411456 137.13361499866733,45.33094562921178 136.86411407445848,46.19723918736781 136.3251122260226,46.47336631429789 136.0727224716029,46.44088086894044 135.95294428306806,46.34342437444866 135.2385529442654,46.4138096442839 134.38299445469966,45.73702307157873 134.0707156060198,45.639564861547115 129.8057565355084,46.30552456245641 128.43686295219595,46.603307831865095 124.50984948507903,47.220524273696356 124.07779244783887,47.31797863044267 123.80401373118002,47.5507852990595 123.5815685238922,47.631996608764894 121.63089516766559,47.355877482823416 120.86089252705642,47.15555457056689 120.75822550830344,47.285493871251674 120.64272511221134,47.29632212725119 120.3732241880025,47.18262529304411 119.93688935833052,46.77656253174064 119.84277792447756,46.5708224920636 119.87272247160217,46.37590989900491 119.79999999999927,46.083539227915026 119.85133350936303,46.00232477321333 119.9026670187377,46.64662157720886 120.36466860310975,47.16096871652917 120.59566939528304,47.285493871251674 120.75822550830344,47.285493871251674 120.89083707418831,47.17721115000313 123.57729073144947,47.61575436000567 123.73984684445168,47.583269842740265 124.16334829678817,47.26925148176815 134.0707156060198,45.628736156857485 134.29316081330762,45.655807913044555 135.2385529442654,46.402981149316474 135.96149986796445,46.33259586041822 136.30800105623712,46.57623671719921 136.51761288618582,46.36508139375292 136.84700290466208,46.208067738072714 137.12078162133184,45.30387365306888 137.65122788486406,44.838232794587384 138.26722999735648,44.838232794587384 138.57950884603633,45.379675140047766 139.31528914706723,45.666636610370915 139.60617903352613,45.617907449272025 140.3804594665853,45.13602699194962 142.2370213889517,44.91403516434366 144.45719566938715,44.52960737685498 145.01330868760124,44.637897268414235 145.67636651703287,44.64872624144118 146.97681542116698,45.29304485749162 147.79815157115445,45.83448104409035 148.81198838129058,46.8090477043952 149.1798785318133,47.285493871251674" stroke="#4dd2ff" stroke-linecap="round" stroke-linejoin="round" stroke-width="0.5"><title>2022-10-29 14.6km</title></polyline><polyline fill="none" points="188.20000000000073,51.30496792311533 187.53072666912703,50.49328460535253 185.79380302470963,47.92703898101536 184.92135743268227,46.782506994692085 183.81785319069968,45.80937503642417 183.08882331243512,45.33036291876124 182.15263740317096,44.891683257810655 180.80612320176442,44.695032076881034 180.097012172635,44.8110059758983 179.8779048321594,44.947148787719925 178.85805975654876,45.01269885291549 178.61504979712845,45.199263791448175 178.14894872740842,45.184136939355085 177.20877904832378,45.295067045273754 176.14909627443558,45.7992906342879 175.45990409443039,45.57239086419577 175.2846182220528,45.33540518366499 175.18104020655664,45.027825774639496 174.6193286610178,44.987487303023954 174.10940612320337,45.44633483892176 173.87436370342766,45.9606407407191 173.84249354480926,46.23291745993993 173.37639247511106,46.47493953898811 173.10151235707235,46.47493953898811 172.97004795278554,46.38922356588955 172.3366285503471,46.44972897914704 171.48011803762347,45.80433283570528 171.28092954629028,45.73374195384895 162.34533382514928,47.195954325812636 161.94695684249018,47.29679444193607 161.6561416451441,47.53376763995038 161.44101807450716,47.58922923448699 158.97904832165295,47.206038349719165 158.7957949096235,47.28671044261864 158.49701217263282,47.180828284854215 158.01497602360905,46.706875888652576 157.93530062706122,46.1371166190911 157.40545924012258,45.743826373724005 157.21423828844854,45.43120808721869 156.84773146439693,45.148840927267884 156.58878642567288,45.163967793683696 155.8239026189476,44.84630230823677 155.79999999999927,44.755540243175346 155.89162670600854,44.876556280767545 156.4174843231158,45.01269885291549 156.58878642567288,45.13875634624128 156.83976392474506,45.09841799480273 156.99513094798385,45.20430607411254 157.28594614532994,45.47658832391244 157.4452969383965,45.73374195384895 157.92334931758887,46.036273362442444 158.0388786425574,46.691749649016856 158.51693102175705,47.1606602206557 158.75994098118827,47.25141642348535 158.9670970121624,47.13040810388702 159.592548874949,47.29679444193607 161.4450018443349,47.56906139147395 161.63622279601623,47.52872567271697 161.9907783105882,47.261500432356115 171.24109184802364,45.718615318888624 171.53987458502525,45.79424843220113 172.3525636296581,46.4547710924744 173.01386942087993,46.379139320804825 173.17720398376696,46.56065531475906 173.32858723718164,46.59594998862303 173.58354850609248,46.36401294802272 173.8345260051683,46.26317030585051 174.08151973440908,45.44129258903922 174.571523423092,44.97236036491813 175.1651051272529,44.98244499100838 175.42803393581562,45.461461584483914 175.8702323865764,45.6782775956417 176.20885282183735,45.73374195384895 176.48771670970018,45.65810871762005 177.13308742161826,45.26481341280305 180.0253043157536,44.83621764527197 180.21652526743492,44.74041321082768 180.96149022500322,44.70511677810282 182.12475101438395,44.84125997709998 183.49118406492926,45.542137457054196 184.45924013279364,46.293423127182905 185.1364810033192,46.99427327434023 186.9052748063441,49.45974918788488" stroke="#4dd2ff" stroke-linecap="round" stroke-linejoin="round" stroke-width="0.5"><title>2022-10-22 16.5km</title></polyline><polyline fill="none" points="44.088574703859194,92.36729691384971 44.19999999999709,92.13228372596859 42.966068016823556,90.52893333533575 40.76232327092657,87.38471077226131 39.68108521208342,86.4288581011715 38.86809323653506,85.89607747941409 37.84050439434577,85.4103004987519 37.25036301108412,85.38418328347689 36.51578142911967,85.23792655112993 35.88849828047387,85.32672534762605 35.42628964463802,85.47298174326716 34.62155139472816,85.5356628859081 34.25013374093032,85.70281210164467 32.82636606801316,85.81772676730179 32.46732900267307,85.94831119908122 31.934963698895444,86.28260532993227 31.625448987382697,86.34006184191458 30.96927779899852,86.14157534678452 30.775315246475657,85.89607747941409 30.643255636219692,85.55133315564672 30.0654948414267,85.51476918301341 29.520748949165863,86.02143828776752 29.248376003055455,86.85716659844547 28.92235384027299,86.99819396532621 28.744898739019845,87.20189925167506 28.39411539930734,86.97207782516125 27.70492930837645,87.06087262954316 26.8713030187173,86.38184834232379 26.619564386699494,86.29827529624527 21.902560183403693,87.0452029730368 20.685135651507153,87.31680945145854 17.573481085197272,87.78689306794695 16.975085976308037,87.91747083367227 16.686205578902445,88.14728662783455 16.43859380970025,88.22040954794647 15.460527321349218,88.11072511580642 13.846923958721163,87.79733930547081 13.657088269006636,87.90180152512767 13.39709591133942,87.8130086564488 12.89361864728562,87.3272558162862 12.856476881908748,86.83627361135586 12.716163546039752,86.6012267267979 12.270462361462705,86.3191685747297 12.142529614055093,86.08934188884814 11.799999999999272,85.7759396557667 12.121895299947937,86.05277842619762 12.286969812750613,86.31394525617361 12.794573939616384,86.6691293072181 12.864730607565434,87.25935439435852 13.388842185700923,87.78689306794695 13.586931601064862,87.8861322102166 13.88819258692456,87.78689306794695 15.625601834151894,88.10550203981984 16.5087504776493,88.19429423523252 16.843026366066624,87.94358633377851 17.090638135261543,87.86001667120217 26.61131066105372,86.26693535727463 26.821780664879043,86.3243918925873 27.713183033996756,87.01908686470779 28.369354222384572,86.96163136416726 28.68712265953218,87.18100645129743 28.82743599541209,87.12877440085867 28.90997325180433,86.99819396532621 29.219487963309803,86.88850605787593 29.533129537634522,85.96920466712618 30.073748567050643,85.4938754687937 30.668016813149734,85.5356628859081 30.870233091322007,85.97965139693042 31.654337027121073,86.30872193690448 31.922583110426785,86.26171203164267 32.59938861292903,85.84906707125265 34.74123041650819,85.48865203847527 36.45387848682003,85.23270308615247 37.6589224302661,85.36851294583175 37.848758119991544,85.39985361477375 39.2890332441857,86.14679868870007 39.850286587698065,86.53854731570027 40.74168895681942,87.35337171597348 41.95498662590035,88.95163112580485 42.9124188001515,90.38269610765929" stroke="#4dd2ff" stroke-linecap="round" stroke-linejoin="round" stroke-width="0.5"><title>2022-10-15 16.0km</title></polyline><polyline fill="none" points="80.19999999999709,92.25195839904336 79.71149318872995,91.68797526399794 79.46295463562637,91.21617558069556 76.81901864832253,87.58801304207009 75.68345456949828,86.55753326500053 75.02782700700845,86.14533393068268 73.77227879909697,85.54872211740803 73.38233037956888,85.46194147694405 73.1680730062144,85.49448423915237 72.44388308424459,85.34804160095882 71.58685359079391,85.4673652724814 70.8326676365541,85.6734689586774 70.33987567781514,85.66262142268897 70.02277476523886,85.81991040698995 68.38584843275385,86.01516483847809 67.73450601772493,86.41109451363809 67.34884274566866,86.51414406116601 66.65036370849703,86.2971973368767 66.50038354714343,86.13991022694245 66.33326279592075,85.70601154900942 65.68192038090274,85.64092634190092 65.16341753735833,86.13448652249645 64.88916809944567,87.02396423780374 64.38352069830944,87.28971899093449 64.12212670281224,87.27344834242831 63.99357227879227,87.15955361787564 63.26509720936883,87.24090702560716 62.33093506149817,86.52499136653205 62.00954900145007,86.46533115065904 52.47081073931622,88.05985545952353 52.080862319795415,88.14663047142676 51.605210950932815,88.46118831374406 48.9227086364117,88.03816167717014 48.65274434597086,88.11951330040392 48.39135035047002,88.01646788308062 47.88141780186561,87.54462495451298 47.79999999999927,86.93718679367521 47.84285147466289,87.39818981201097 47.94569501388105,87.59343654970507 48.15995238723917,87.72902400203384 48.3484988758064,87.97850371511959 48.6098928713036,88.09781955036306 48.918423488947155,88.0110444327147 51.54950403384646,88.43949474874171 51.772331702144584,88.37441398328883 51.99515937044271,88.16832419503407 52.380822642506246,88.05985545952353 56.417431556670635,87.41446040983283 56.93593440021141,87.2354834702237 62.069541065986414,86.45990749026896 62.33093506149817,86.50329675285684 63.25652691441792,87.21921279970411 63.41507737071515,87.26260123977045 64.010712868665,87.17040074845863 64.28924745403128,87.41446040983283 64.52921571220213,87.1812478760985 64.8420314773175,87.04565856946283 65.15056209494287,86.1236391113489 65.59193228407821,85.7005877857955 65.85761142706542,85.64635011319479 66.34611823832529,85.71143531150301" stroke="#4dd2ff" stroke-linecap="round" stroke-linejoin="round" stroke-width="0.5"><title>2022-10-05 12.1km</title></polyline><polyline fill="none" points="116.20000000000073,91.88949987725937 113.49260273972322,88.0290203403274 112.23372353673403,86.92084674129728 111.34201743462472,86.34887343344599 110.42206724781863,85.88924573901022 109.058281444577,85.76157038527163 108.21902864258664,85.95563675211815 107.37574097135075,86.03224162203333 106.92787048568061,86.17012999572398 105.55198007472063,86.34887343344599 105.21708592777577,86.44590523059742 104.73693648817425,86.74721290413072 104.47870485678504,86.80849552617292 103.7685678704911,86.62464736128095 103.40946450810225,86.05777654407211 102.86879202988712,86.00159969273955 102.3482938978741,86.51740218452323 102.11830635118167,87.05362501856507 102.10216687421416,87.273218835835 101.58570361146849,87.65112148137632 101.25484433375095,87.45195704553771 100.60119551682146,87.51834530767883 99.8022914072244,86.90041927252969 99.44722291407015,86.76764045588425 94.84343711084148,87.5132385224315 94.2220672478179,87.71750939292178 94.10909090909263,87.68176207045326 90.42122042340998,88.27924858211918 90.04597758406089,88.371168743819 89.78774595267168,88.59075488988674 89.52951432130067,88.64692788470347 87.01982565379512,88.23839510502876 86.89877957659337,88.34563538803195 86.59212951433074,88.2537151641227 86.07163138231772,87.75325668150617 86.05549190535021,87.38556866654835 85.97479452055268,87.18640282834531 85.45429638854694,86.7727473420855 85.21220423411432,86.39994283148553 84.82485678704325,86.1445951497335 84.63118306351316,86.20077178806605 83.88876712328783,85.91988775957725 83.79999999999927,85.74624931377184 83.9008717310171,85.91988775957725 84.43347447073029,86.06799050806876 84.61907845579844,86.1956648243904 84.86117061020559,86.13948817847267 85.20413449563785,86.39483589480005 85.47043586551081,86.7625335689736 85.97882938978728,87.1353344952804 86.12408468244394,87.78900393622462 86.60019925279994,88.23839510502876 86.85036114570175,88.33031536627459 87.02386052304064,88.21796834987617 89.54968866750278,88.61628807972374 90.13474470735673,88.29967530407521 94.13330012452934,87.64601471410788 94.83536737235409,87.45195704553771 99.2858281444569,86.75742668137173 99.52388542965127,86.74210601445884 99.73369863014159,86.82381616612474 100.56084682440996,87.47238421556904 101.24677459526356,87.42131626976334 101.52518057285488,87.65112148137632 101.76727272727658,87.44174345637293 102.05778331258261,87.31918017067437 102.34022415940126,86.44079830012925 102.84458281445768,85.99649270211012 103.46998754670494,86.03224162203333 103.70400996263197,86.54293677808528 103.79277708592781,86.51229526374664 104.10346201744323,86.69614397634723 104.4383561643881,86.7727473420855 104.72079701120674,86.70635776743438 105.39865504359113,86.31312481367422 107.15785803237304,86.07309748901389 107.33942714819204,85.98117172605271 107.81150684932072,85.95563675211815 108.8363636363647,85.73603526264924 109.32054794520081,85.71050012274281 110.45838107098461,85.8739247193771" stroke="#4dd2ff" stroke-linecap="round" stroke-linejoin="round" stroke-width="0.5"><title>2022-10-02 14.7km</title></polyline><polyline fill="none" points="152.20000000000073,92.32872363066053 151.18923992068812,90.90324122951642 150.97081295439784,90.75147585543527 150.40975545274705,89.81376989345154 148.9321612690037,87.77025365204827 148.56383344348797,87.3691268112998 147.63873099803095,86.53975721868483 146.62797091870743,85.82962972990208 146.46093853273123,85.84047146563171 145.72000000000844,85.48811355083672 145.11611368143713,85.38511603609004 144.28523463317833,85.30922296088829 143.30873760741088,85.52605993683756 140.35783212161186,85.9814137631256 139.6254593522899,86.37171292019775 139.34707204230654,86.42592083549607 138.5247587574304,86.2090887338818 138.25493721084786,85.64531977296429 137.68103106410854,85.59653170112506 137.141387970918,86.07898890914657 136.81160608064238,86.9679959512323 136.464692663576,87.14145843801816 136.37475214804726,87.27155480986039 135.946463978853,87.119775668285 135.2226569728955,87.19024462701782 134.21617977528513,86.43134162298156 134.04486450760305,86.3988168870128 124.74244547257695,87.95455382591535 124.05290152015368,88.12801203805793 123.56893588896128,88.40445951026413 120.82360872439313,87.95455382591535 120.60518175809557,88.07922699185656 120.30109715796789,87.94371266271992 119.8556774619974,87.51006372686606 119.79999999999927,87.36370615079431 119.8256972901545,86.95173380456617 119.88565763384031,87.48296051240322 120.47241242565724,87.9762361435387 120.63087904825807,88.01960074355156 120.84502313285338,87.91660974183833 121.46604097819727,88.07380642748831 123.56465300727359,88.37735690130648 124.04005287508699,88.04670359469674 124.34842035690963,87.98165672111645 134.0662789160633,86.36087132832472 134.28898876404855,86.3988168870128 135.18411103768085,87.12519636181605 135.3597091870579,87.16856188369275 135.9764441506959,87.07641009355575 136.0535360211543,87.22276871996655 136.25483146067927,87.30407883676526 136.4604097818883,87.119775668285 136.83302048909536,86.95715452084914 137.07286186385318,86.10067224263548 137.62107072042636,85.57484809456582 138.30204890945606,85.59653170112506 138.54189028420296,86.09525141036283 139.2785459352308,86.3988168870128 139.55265036351557,86.36087132832472 140.19508261731244,85.97599291469669 140.69617977527741,85.84047146563171 142.26799735625173,85.65616155861426 143.00037012559187,85.48269263562906 143.38154659617066,85.4718508029764 143.85694646399133,85.31464389962639 144.34519497687143,85.27127636933801 145.758545935234,85.41764159568993 145.89988103106225,85.35801138290117 147.66442828816798,86.51807412302514 148.89361533378178,87.6293176524814 150.10567085260845,89.2771537114786 151.6560740251225,91.56449793148931" stroke="#4dd2ff" stroke-linecap="round" stroke-linejoin="round" stroke-width="0.5"><title>2022-10-01 15.4km</title></polyline><polyline fill="none" points="188.1119764545947,93.45126063549833 182.2217342087606,85.29117665224476 180.21186325558665,83.45293497930106 178.97219832465635,82.64520714322134 176.95499207606917,81.6796349440774 174.71772696400149,81.2989729359033 172.7298618972127,81.83746979099669 171.20412044372642,81.92102926874941 170.42657912609138,82.23669748779503 167.59515508264303,82.5616485481005 166.56821371970727,83.23011445774318 166.0327371519088,83.39722991679446 164.74172515283135,83.0165774450652 164.1695721077558,81.99530427458376 163.0766130858101,81.90246050471615 162.26239529091254,82.68234426392883 161.6755716549742,84.31635766063118 160.72198324654164,84.89196674095001 160.20851256509923,84.50203853710991 158.99085352049588,84.65058287626744 157.2010414308388,83.23939866061119 155.8000000000029,83.45293497930106 157.14969436269166,83.27653545947396 158.96884763416165,84.5855947674936 160.21584786053427,84.50203853710991 160.72198324654164,84.90125071877992 161.13275979171885,84.52989062522829 161.73425401855638,84.24208516925864 161.79293638215313,83.75931201405183 162.2110482227872,82.69162854096794 163.09861897217343,81.90246050471615 164.1989132895469,81.91174488737306 164.6316957210729,82.8216082873987 165.94471360652096,83.30438804539881 166.52420194703154,83.220830253631 167.80787865067396,82.46880554517702 172.4877971473761,81.68891935690772 173.13330314694758,81.69820376846474 174.49766810052097,81.37324861567322 176.96966266696836,81.6796349440774 179.44899252886535,82.94230354561296 180.51994566447684,83.69432306046656 182.26574598143634,85.31902841982082 188.04595879554108,93.31201819905255 188.20000000000437,93.69261352221656 187.99461172741576,94.22173034007574 186.9676703645091,95.46560292072536 185.96273488793668,96.30102706410253" stroke="#4dd2ff" stroke-linecap="round" stroke-linejoin="round" stroke-width="0.5"><title>2022-09-29 10.1km</title></polyline><polyline fill="none" points="44.19999999999709,132.74346792385768 43.68684927950744,132.1259979979077 41.428144878620515,128.88944529066066 40.87713877710121,128.31450345582198 40.216772685966134,127.75552416660503 39.438634298334364,127.2338029927123 38.374477476318134,126.7014273107743 37.68887446449662,126.5523608278927 37.60054524212319,126.60559892238234 36.96120991821954,126.45653207614305 35.8129300272667,126.74934141738049 34.95066857068741,126.78660790435242 34.51322861224617,126.9409972598005 33.16725950928958,127.10603348652512 32.85179800077458,127.17524202058485 32.27976113202385,127.54790126354419 32.01897961833674,127.59581433849235 31.236635077249957,127.35624837978321 30.925379722186335,126.79725546557893 30.328105932767357,126.76531277326285 29.835985979483667,127.2338029927123 29.533142931330076,128.10155990181374 29.011579903937672,128.47421036443484 28.649850707523,128.24529692727447 28.094638452555955,128.3517684591825 27.06833701155483,127.62775635602156 26.803349344416347,127.55854861857733 17.44465792547635,129.11303151141328 16.969362586001807,129.2195006934453 16.502479553419107,129.5122894574124 14.576061274827225,129.25676483903953 13.814747500982776,129.07044375787518 13.692769051012874,129.1875599691084 13.57499675451254,129.18223651252993 13.318421394265897,129.07576722958402 12.876775282358722,128.66053427118095 12.750590678948356,128.0110585421171 12.186966117096745,127.54257758495078 12.060781513693655,127.28704016438132 11.799999999999272,127.06876730234217 12.052369206794538,127.26574530436483 12.21220303779046,127.53193022556661 12.721147604839643,127.87264429488641 12.834713747899514,128.13882510702388 12.86836297546688,128.56471065799633 13.343658314948698,129.04382638847892 13.60023367519534,129.1609426790019 13.835778268206923,129.0651202854351 16.489861093075888,129.50164263147963 17.036661041151092,129.171589597212 26.727638582371583,127.55322494141365 27.047306244327046,127.53725390561885 27.901155393999943,128.2772384171294 28.115669219787378,128.33579774778627 28.658263014414842,128.23997334311935 28.986342983251234,128.4529161474311 29.541555238221918,128.08558908877603 29.798130598464923,127.2338029927123 30.365961313782464,126.74934141738049 30.963235103212355,126.76531277326285 31.034739711794828,127.03150108282352 31.2450473841418,127.28171645045222 31.644631961578852,127.4786933855139 31.98953654420984,127.54790126354419 32.246111904456484,127.50531181455153 32.80132415942353,127.15927083122733 33.27241334545761,127.01020608440012 36.75931455276441,126.47782737449234 37.55007140075395,126.55768464058929 37.651019083481515,126.5097703003994 38.24829287290777,126.61624653262697 39.421809684543405,127.20718437982941 40.263040373883996,127.75020051612955 41.23466182007542,128.6339166242833 41.67630793198259,129.1502957579214 43.29147085551813,131.44464061989493 43.69526158639928,132.1259979979077 44.07802155005629,132.58377835529245" stroke="#4dd2ff" stroke-linecap="round" stroke-linejoin="round" stroke-width="0.5"><title>2022-09-24 16.0km</title></polyline><polyline fill="none" points="80.20000000000073,132.92245049669145 79.39690831556436,131.895185319976 77.06535181236904,128.56732231737988 75.84344349680396,127.49622757899851 73.98251599147261,126.45789431890807 72.49722814498455,126.27754950330927 71.47393390191792,126.54533393939346 70.5542643923327,126.5890536785846 70.16135394456796,126.7366074486672 68.52926439233124,126.93880988700403 67.88592750532916,127.32681713406055 67.45847547975427,127.41971972417741 66.71151385928533,127.15740597797412 66.44813432835508,126.59998360596 65.8177505330641,126.56719381490257 65.31257995735359,127.06996768367026 64.99738805970992,127.96620121938759 64.65628997868771,128.12467946885226 64.45767590618925,128.31594549289366 64.34973347548657,128.30501603022276 64.11226012792758,128.09189091656663 63.40847547975136,128.173862247324 62.471535181237414,127.47983305088201 62.134754797447385,127.39786031044423 58.13656716418336,128.02084896190354 56.61242004265296,128.3378044093406 52.52787846481442,128.98810175875042 52.04429637526118,129.11378827346925 51.85000000000946,129.31051420635413 51.58230277185794,129.39248306204172 50.36902985075358,129.25040360637286 48.909648187640414,128.94984926353936 48.70671641791705,129.05914201081396 48.49514925374024,129.01542494743262 47.894989339027234,128.48535178577004 47.79999999999927,127.85144071922332 47.92953091685558,128.47988707775585 48.39584221749101,128.91706138165318 48.65922174840307,129.03728348504592 48.883742004265514,128.91159673208313 51.638432835832646,129.37062471681202 52.199733475488756,129.02635421770538 56.53901918977499,128.33233968134664 58.076119402991026,127.98259554991091 62.359275053302554,127.34867658627627 63.36098081023738,128.12467946885226 64.18134328359156,128.09189091656663 64.28928571429424,128.56185762045425 64.14248400854194,128.58918109769002 64.07340085287797,128.39791636857262 63.969776119414746,128.37059276183936 63.611407249482,128.44709881404924 63.51641791045404,128.55092822437655 63.48187633262933,128.50721061049626 63.43006396589044,128.3214102231177 63.49914712154714,128.27769236058884 64.11657782516704,128.16293274617783 64.33246268656876,129.12471751711928 64.7944562899902,129.09739440243357" stroke="#4dd2ff" stroke-linecap="round" stroke-linejoin="round" stroke-width="0.5"><title>2022-09-22 12.2km</title></polyline><polyline fill="none" points="116.20000000000073,132.9239090059491 112.90663716814379,128.4283197334007 111.7955752212365,127.41522522025844 111.07079646017883,126.95655147226353 109.95176991150583,126.47266974334707 108.72522123894305,126.31137443576154 107.78539823008396,126.54323622061202 106.93318584071676,126.59868121604086 106.42345132743867,126.77509656110851 105.01371681415912,126.95655147226353 104.42433628318759,127.2992972242937 104.0738938053073,127.38498316915866 103.38097345132337,127.15816700274081 103.14203539822483,126.63396435194227 102.57654867255769,126.58860031392396 102.0986725663679,127.01703624607035 101.87168141593429,127.53115285515742 101.81592920353069,127.84869191922189 101.46150442478029,128.04022210848052 101.33805309734817,128.19646969082896 101.1946902654854,128.18134898571225 100.97964601770218,127.98981952264148 100.44203539823502,128.08558437736065 100.28672566370733,128.0553428709136 99.4185840707978,127.40010419778628 99.239380530973,127.34466039614927 95.04601769910732,127.9999000452699 94.12610619468978,128.2065501574907 90.2075221238847,128.8416140538393 89.9048672566314,128.91217604021222 89.61017699115473,129.14906173042618 89.41902654866499,129.18938254883687 87.82610619469051,128.98273789280574 86.92212389380074,128.7760920896144 86.79070796460292,128.88193520528512 86.47212389380365,128.8012928587341 85.97433628317958,128.29223401390118 85.91460176991313,127.7277249761355 85.41681415928906,127.38498316915866 85.22964601769854,127.07248053573858 85.02654867255842,126.8960666001658 84.80752212389416,126.73981355899014 84.56460176991459,126.78013698723589 84.0548672566365,126.54827667814607 83.89159292034674,126.54323622061202 83.79999999999927,126.37186025802293 83.79999999999927,126.64404524177371 83.84778761061898,126.52307438360731 84.01106194689783,126.52811484388076 84.55265486724966,126.77005613427536 84.76371681414821,126.71461139413077 84.9907079646,126.83054121114401 85.30530973450004,127.12288436374365 85.41283185839347,127.34970074516241 85.93053097344091,127.67732196715588 86.04601769911096,128.3577568298242 86.49203539822702,128.7760920896144 86.72699115042997,128.85673449074602 86.95398230088176,128.73073066218421 87.53938053097954,128.90713590275482 89.45486725663432,129.17426224705196 89.92079646017737,128.8970556258064 90.31504424777813,128.79625270627002 99.05221238937884,127.33457969607116 99.48628318584088,127.40010419778628 100.3026548672533,128.03518185296343 101.01946902654163,127.97973899728095 101.0632743362803,128.08558437736065 101.29424778760949,128.18134898571225 101.81194690264965,127.85373219999747 101.82787610619562,127.59667701082799 102.05486725662922,127.0422382061588 102.5566371681416,126.58355986183233 103.15796460176716,126.58860031392396 103.39292035398103,127.07752092160445 103.50840707964744,127.07752092160445 103.83495575221605,127.28417615471335 104.16548672566933,127.34970074516241 104.41637168141824,127.29425686844479 105.12123893805983,126.86078371272015 108.77300884956276,126.27609099405163 110.10707964601534,126.43738645454141 111.57256637167666,127.21865144892217 112.9384955752248,128.38295788218238 113.83053097344964,129.5976283755881" stroke="#4dd2ff" stroke-linecap="round" stroke-linejoin="round" stroke-width="0.5"><title>2022-09-17 16.2km</title></polyline><polyline fill="none" points="152.1999999999971,132.90131333835598 148.9329403094962,128.38385328034929 147.8585114222551,127.4168340215474 146.10361090640436,126.47497338739413 145.57833456153094,126.35912791889496 145.49874723654284,126.40949555823317 144.81827560795136,126.29868666164111 143.8433308769272,126.54045110128936 143.0673544583624,126.58074502178715 142.6057479734627,126.7318468348385 141.09756816506342,126.92324158344854 140.41311717021745,127.33121131308872 140.09078850404694,127.396687519642 139.44215180545507,127.15996530486154 139.13971997052795,126.61096543349049 138.62240235814534,126.56563480671684 138.1090641120063,127.05419531766529 137.88224023580187,127.59311544772936 137.85040530581682,127.83487147363121 137.50817980838838,128.0212240044857 137.33706705968507,128.19750256627594 137.23360353721364,128.19246604753425 137.01473839350365,127.99100473858925 136.35814296241733,128.06655285732268 135.53043478260224,127.4218706453139 135.21606484892618,127.33624794846037 126.37789240972779,128.81195273618505 125.96403831982389,128.91268130387834 125.51834929993493,129.19471984230404 122.96757553427233,128.78173411268654 122.8442151805466,128.88246276221253 122.53780397936498,128.79684342750988 122.04038319823667,128.3183788115166 121.95681650699407,127.73917656793128 121.43551952837515,127.34632121713366 121.21267501842885,126.99375518993111 120.86249078850597,126.74192026719902 120.6157700810727,126.77214054795695 119.85969049374398,126.46489988272879 119.79999999999927,126.323870530774 119.90744288872884,126.51023063227694 120.39292557111185,126.62607563014899 120.62372881355986,126.76206712377098 120.89830508475279,126.7318468348385 121.2922623434024,127.04412196986232 121.43551952837515,127.31610140290286 121.92100221075452,127.6334082278263 122.02844509948045,127.85501773819851 122.04834193073475,128.29319629281235 122.49403095063099,128.75151546463894 122.80442151805619,128.8723899095421 122.98349299926485,128.75151546463894 123.95445836403451,128.96304548544867 125.52232866617851,129.16953791688502 125.95210022107494,128.88246276221253 126.36993367722243,128.7918069899206 135.29167280765614,127.32617467705131 135.47870302137017,127.37654100682266 136.35416359615556,128.0564797836778 137.00677966101648,127.98596819187514 137.32512896093613,128.19750256627594 137.5042004421448,128.02626054642315 137.83846720707515,127.87516399183733 137.86234340457304,127.61829844040767 138.10508474576272,127.02901194305014 138.59852616064018,126.58074502178715 139.21134856300705,126.60592869991524 139.45806927044032,127.11463534717768 140.1663964627769,127.36143111505226 140.43699336771533,127.30602812603684 141.0736919675728,126.91820489216116 143.58069270450142,126.46993663539979 144.0462785556265,126.45482637532041 144.77450257920646,126.30372343682757 146.08371407516097,126.4346793523182 147.53220338982283,127.17507527847192 148.58275607958058,128.0061143746061 149.81635961678694,129.48179258710297 150.46897568163695,130.48904785185732" stroke="#4dd2ff" stroke-linecap="round" stroke-linejoin="round" stroke-width="0.5"><title>2022-09-11 16.4km</title></polyline><polyline fill="none" points="188.20000000000073,132.98613896486495 187.0734756487218,131.5290460570286 185.81027738719422,129.63683997238695 184.88255145084986,128.39977990709667 183.739460564997,127.35139297393107 183.1679151220742,127.00017700232638 181.96269973155722,126.39733618946047 181.35802121947563,126.29773549930906 180.57525246069417,126.21386103513578 179.59782692062072,126.46024175647835 178.74050875622925,126.51266298423434 178.14825514507538,126.67516833911213 176.85606544802795,126.83243093623969 176.4916016873285,126.95824055394041 175.9780391154236,127.29373086885607 175.72125782947114,127.33042494566325 175.01718010992408,127.11550200108468 174.71484085388875,126.53887357147323 174.12672887638473,126.50217874435111 173.8243896203494,126.72758927582254 173.59659976990588,127.01590315874273 173.33981848394615,127.80744477888584 172.78483957560456,128.184862899383 172.47421705227316,127.9647027762694 171.75771443179838,128.03808962308904 170.99979547486873,127.4247809834269 170.67674805062052,127.27276280936712 165.7150709446396,128.06429917751666 164.99442669052587,128.26349121133535 161.39534705355254,128.8034013069082 160.96461715453552,128.8925119579544 160.5297456218832,129.201776743932 158.85238399590526,129.0078313195554 157.85010865395816,128.7719504399247 157.6761600408936,128.8925119579544 157.35725425027704,128.7824340650768 156.88924964846592,128.31590999726905 156.87268311388107,127.88607385742944 156.78570880735424,127.69212184148637 156.30113767096918,127.34090896122143 156.0153649495005,126.93203025064213 155.88283267287989,126.82718885996655 155.79999999999927,126.85339923425636 155.85798287100988,126.78525222418466 156.1603221270525,127.04735545242511 156.2762878690919,127.28324684053587 156.7484341045565,127.57155658503689 156.88510801481607,127.87034805450094 156.91409945033593,128.29494249140407 157.3779624185081,128.7719504399247 157.62231880352556,128.88202836260461 157.89980825769817,128.7719504399247 160.48004601815046,129.1912932323212 161.0681579956472,128.8400939527637 170.6394733478155,127.25703675727345 170.83827176275008,127.30945690603403 171.74114789722444,127.99615429907499 171.93166304486294,128.03808962308904 172.47007541863422,127.9384931544082 172.64816566533773,128.15865342656252 172.79726447653957,128.19010479180724 173.29840214750948,127.84938030732519 173.59245813624875,126.94251437408457 174.089454173587,126.4969366233563 174.7106992202498,126.48121025609726 174.93434743704347,127.01590315874273 175.02960501086636,126.99493494875787 175.34851080148292,127.17840640106078 175.737824364056,127.27800482530074 176.02773871915633,127.2203426109154 176.70696663683702,126.78525222418466 177.2578039115433,126.73283136557802" stroke="#4dd2ff" stroke-linecap="round" stroke-linejoin="round" stroke-width="0.5"><title>2022-09-10 13.4km</title></polyline><polyline fill="none" points="44.19999999999709,173.76764499165438 41.04682651622352,169.34593527350808 39.875291704061965,168.2680343461907 39.526323887668696,168.04193425775156 37.99335812283607,167.23742791784753 37.640235927683534,167.15855385005125 37.36189255032514,167.17958695046764 36.601641236055,167.03235500834853 35.26393127324263,167.3268183343098 34.52029747403503,167.3846590823814 34.341659187070036,167.50559854989115 32.758840877035254,167.68963614726817 32.015207077827654,168.11554838457232 31.703628670344187,168.1681298182957 31.02231055262746,167.9209964607071 30.743967175265425,167.3741425891276 30.145736632894113,167.3268183343098 29.626439287087123,167.8316074121176 29.37717656109453,168.40474538889976 29.33978715219928,168.6729079592551 29.036517502237984,168.8096175765313 28.812181048848288,169.0199391248534 28.475676368758286,168.8096175765313 27.76112322091285,168.8569400242195 26.917784331322764,168.20493677952982 26.660212847797084,168.11029023729498 21.766354660860088,168.88848829064955 18.617335555831232,169.4826425213796 17.425028849851515,169.63512311470913 16.980510321835027,169.75079764818656 16.61077061160904,170.0136930337285 16.440441082184407,170.05575613026303 13.893806898311595,169.64038105552754 13.60715476342375,169.73502386845212 13.362046416194062,169.63512311470913 12.888447236811771,169.18819554331276 12.772124631355837,168.54671403918474 12.252827285537933,168.1681298182957 12.06172586228422,167.8578983301195 11.799999999999272,167.65282869757357 12.090806513646385,167.82634922638317 12.236209770475398,168.0892576410224 12.734735222460586,168.39422917193224 12.846903449157253,168.59929488905982 12.90506475188522,169.125099471843 13.41189896139258,169.62460723093682 13.669470444921899,169.69821835749826 13.86057186817925,169.58254366740584 14.483728683160734,169.73502386845212 16.43628670342514,170.00843514346707 16.598307475316687,169.97688778689553 17.013745351967373,169.69821835749826 26.589588408776763,168.0839994901762 26.909475573789678,168.13658096660583 27.790203872278653,168.83590783237014 28.54630080779316,168.77806924604374 28.64600589818656,168.95684277997134 28.795563533778477,169.01468110003043 28.982510578272922,168.83064978263064 29.33978715219928,168.6466175930509 29.605667393243493,167.77376732983976 30.02941402743818,167.3741425891276 30.178971663030097,167.32156008022503 30.75643031157233,167.35310959412163 31.014001795105287,167.8421237814582 31.75348121553543,168.12606467701335 32.102449031921424,168.03141794252952 32.796230285930505,167.631795853511 36.55594306961939,167.0428715941489 37.39928195922039,167.09545448047356 38.03490191049423,167.2163948487687 39.069342223359854,167.73170176133863 39.73404282600313,168.14709725334978 40.519220412876166,168.8043595232375 41.17561225798272,169.49315844359808 43.979817925377574,173.41539881994322" stroke="#4dd2ff" stroke-linecap="round" stroke-linejoin="round" stroke-width="0.5"><title>2022-09-03 16.2km</title></polyline><polyline fill="none" points="78.43025210083943,174.79337069135 78.68189457600602,174.4697116325442 78.91291061879383,174.35486421688984 79.68846447669785,173.61878856978728 79.98961038961352,173.27945818622175 79.95660809777473,173.21159175126013 80.19999999999709,173.0027712023184 76.95339954162046,168.4345387764588 75.67868601985174,167.2388777353808 74.83712757831017,166.72718613599136 73.80580595874562,166.21548774596522 72.40733384262785,166.0484010866203 71.41726508784632,166.27292361787113 68.65332314744228,166.67497232566893 67.99740259740429,167.06657417960741 67.70038197097165,167.15533671358935 66.95370511840156,166.92559797036665 66.64430863253438,166.39301652814174 66.07501909854909,166.32513797264983 65.54285714285652,166.82639218081022 65.26233766233418,167.67224388111572 64.95706646293911,167.79755366606332 64.75905271199736,167.99595999271696 64.64766997708648,167.99073878666604 64.40840336133624,167.78711119953732 63.69885408708069,167.8602084058184 62.877922077910625,167.22843511755127 62.539648586713156,167.11356613481257 52.92773109243717,168.72170075395843 52.655462184869975,168.98275524144628 52.49457601222821,169.03496592686133 50.365928189461556,168.7425851780099 49.84614209320716,168.6016150962605 49.72238349885083,168.71125853770718 49.4047364400285,168.61205734219402 48.91382734911167,168.15781702939785 48.88082505729108,167.67224388111572 48.740565317031724,167.42162308953266 48.33216195568821,167.16055803274867 48.06401833461132,166.78984261505684 47.79999999999927,166.596651477641 48.14239877768705,166.85249899228074 48.328036669208814,167.16055803274867 48.79419404125292,167.47383588876983 48.87257448433593,167.61481009358613 48.92620320855349,168.1421534748879 49.39648586707335,168.61205734219402 49.72238349885083,168.71125853770718 49.895645530938054,168.6016150962605 52.465699006872455,169.02974486150924 52.89885408709233,168.7530273857701 53.15462184873104,168.67471075853246 62.58090145148526,167.10312348306616 62.84904507256579,167.17100066895728 63.69060351413282,167.83932350388932 64.44965622611926,167.78711119953732 64.62704354469679,167.99595999271696 64.77967914437977,167.99595999271696 64.91168831168397,167.83410227662898 65.2870893812069,167.63047386231483 65.32009167302749,167.34330375809077 65.55935828875954,166.7637357611493 65.96363636363094,166.38257368122504 66.18227654698785,166.32513797264983 66.64843391902468,166.3512451235256 66.94545454544641,166.88904849864775 67.47761650113898,167.10312348306616 67.74576012223406,167.12923010715167 68.73170359051801,166.63320122651567 71.88754774635527,166.1006157454467 72.51046600458358,166.00662930864928 73.21176470588034,166.1423874216016 73.8800611153456,166.17371614900912 74.2265851795346,166.41912363306255 75.23728036668763,166.88904849864775 76.01283422460256,167.47383588876983 76.65637891519873,168.06905680309137 77.4236822001476,169.008860592985 79.72971734148814,172.3084347473632" stroke="#4dd2ff" stroke-linecap="round" stroke-linejoin="round" stroke-width="0.5"><title>2022-09-01 16.9km</title></polyline><polyline fill="none" points="116.19999999999709,173.78433597609182 112.81851709564944,169.11623169529048 111.83104110640124,168.22875573470083 111.18793699576054,167.8769105307838 110.92654629273238,167.6405947958301 109.951517479818,167.19946823755163 109.35820207452707,167.10494046505482 108.57402996542078,167.01566402390745 107.55336150593939,167.2729896790661 107.29197080291851,167.24148050690565 106.623972339592,167.3412594642432 106.24640799076587,167.48830167023698 104.81913177102979,167.61958888302615 104.04740683826094,168.076464918875 103.73622742987573,168.1499846977349 103.04748367267166,167.91892206624834 102.7404533230947,167.35701401295955 102.10564733000137,167.31500186877747 101.62435651171108,167.78763586682908 101.37956204378861,168.36529181977312 101.33807145599712,168.64361388912585 100.99369957740782,168.81165643562053 100.80284287359973,169.00595472233908 100.4916634652327,168.77489719079313 100.05186323472299,168.86942089281365 99.63280829810537,168.75389189238922 98.88597771800778,168.17099032324404 98.6287360737515,168.08696775294447 89.35973876295975,169.64135583606912 88.96972723779618,169.7253750387572 88.67514406452756,169.977431554762 88.46354206683827,170.0404454277923 87.02796772953661,169.85665467859144 85.82888974259549,169.5835925286192 85.63803303880559,169.70962145211888 85.32685363042037,169.59409495456566 85.12354975027483,169.33678470043378 84.90779869381004,169.20550330084734 84.82481751823434,169.0164573047041 84.84141375335093,168.68037325839032 84.72938916633939,168.43881105108449 84.24809834804546,168.11847623814174 84.08628505570232,167.84015039992664 83.79999999999927,167.6143374030471 84.11117940835902,167.84015039992664 84.2356511717262,168.09747058420544 84.75428351901064,168.44406241942488 84.89535151747259,169.11623169529048 85.35589704186714,169.59934616646206 85.61313868612342,169.7043702551564 85.83303880137828,169.55208523374313 86.49688820591473,169.7306262328857 88.46354206683827,170.01418965980338 89.09419900114517,169.6623606537978 98.64118325008167,168.09221916893148 98.89842489434523,168.12897906084618 99.79877064924949,168.84841564560338 100.46676911255781,168.769645867269 100.64517864002119,168.9534417678624 100.80699193238979,168.97969825399923 100.98125240107038,168.80640511707315 101.31317710334042,168.6593679087855 101.57871686514409,167.84015039992664 102.13054168265808,167.30449882562243 102.70726085284696,167.2992473029699 102.9935459085682,167.82964749901294 103.084825201684,167.80864168860717 103.43749519784251,168.03445355407894 103.83165578178523,168.09747058420544 104.71125624279011,167.6300918408415 105.07222435650328,167.55657107636944 108.52424126007463,167.01566402390745 109.36235113329894,167.07343115635376 109.9017287744864,167.16270746451482 111.21283134843543,167.7981387791442 111.90987322320143,168.26551549719807 112.60691509796015,168.87467220284816 113.80184402611121,170.31875547573873 115.8639262389479,173.31702575809322" stroke="#4dd2ff" stroke-linecap="round" stroke-linejoin="round" stroke-width="0.5"><title>2022-08-28 16.3km</title></polyline><polyline fill="none" points="152.1999999999971,173.67217691954647 149.03112974841133,169.29254306270013 148.10004933399614,168.44285485001092 147.58455846078505,168.08375461605465 146.12599901332578,167.32508079759282 145.5785397138643,167.21380734165723 145.03507646769867,167.12782308045644 144.1199802664123,167.32002292042307 143.90019733597,167.44141178344216 143.0410458806109,167.49199035990023 142.6334484459876,167.61337866401664 141.09896398620185,167.8106338167272 140.44361124814895,168.2051409969099 140.19185989146717,168.27089178847382 139.48855451406416,168.0432924014276 139.16887025161122,167.49199035990023 138.63339911199,167.47681679416928 138.14188455845579,167.92696329023602 137.8621608288122,168.72608640191174 137.39861864826162,169.07506518209993 137.25076467686813,169.07506518209993 137.0070054267453,168.87781670698314 136.3516526886997,168.93345099773433 135.54444992599383,168.30123826862837 135.30468672916322,168.2152565108263 126.341539220517,169.70220725908075 125.95392205229291,169.78818559406864 125.70217069560749,169.99048677807878 125.45041933892571,170.0764644494957 123.61223482980131,169.82864591852558 122.93290577207881,169.65668923692647 122.81702022693935,169.75784032195952 122.6651702022682,169.76289786902998 122.4294030587007,169.63140142285556 122.03379378391037,169.25208215753082 121.91391218549688,168.62999022324584 121.40641341884475,168.24560303618273 121.07474099654064,167.79040256694134 120.79102121361575,167.60326298706423 120.58322644301734,167.64878351172592 120.04775530341067,167.4211803336584 119.89990133201718,167.39589100603553 119.79999999999927,167.48187465010415 119.83596447952004,167.39589100603553 119.99181055747613,167.40094887292798 120.58322644301734,167.6386678443596 120.83098174642146,167.5931473073797 121.09072520966947,167.78028693795932 121.37844104587202,168.15456338615695 121.93389245189246,168.56929777248297 122.04178589046933,169.21667882956172 122.4893438579129,169.66680435774106 122.74109521460196,169.75784032195952 122.96887025159958,169.62634385799174 125.49037987173506,170.0562344269747 125.89797730636565,169.77301296109363 126.09777997039419,169.71737992081762 135.26472619635024,168.1849099608262 135.52846571287955,168.25571853915608 136.35564874198462,168.91827801757245 136.50749876665577,168.94862397174074 136.97104094722454,168.8373553525562 137.35466206216006,169.06494990101783 137.5185002466751,168.8929897035814 137.8621608288122,168.73620177475823 138.10592007893138,167.92696329023602 138.42160828810665,167.57797378274336 138.64538727184117,167.44141178344216 139.20483473112836,167.46670108023318 139.46058214109144,167.9522522582738 140.17587567834926,168.22537202201784 140.64341391218477,168.05846573704184 141.07099161322185,167.78028693795932 141.37868771584544,167.7044196331699 144.13596447952295,167.34531229942877 144.36773556980916,167.2289810142538 144.8272816970857,167.1480546891362 145.51859891466302,167.2643862263576 145.61050814011105,167.21886523320427 146.20991613222213,167.33519654988413 146.74938332511374,167.64372567838655 147.148988653189,167.77522912243876 147.98416378886031,168.3113537565332 149.07109028120976,169.3026582821185 150.30187469166412,170.96657459455673 151.79240256537378,173.18164300350327 151.90828811051688,173.2473850361057" stroke="#4dd2ff" stroke-linecap="round" stroke-linejoin="round" stroke-width="0.5"><title>2022-08-26 16.9km</title></polyline><polyline fill="none" points="187.7334007074278,172.5550047088509 186.21081354219132,170.4052851234046 185.138453764539,169.2086418908002 184.64320363820661,168.76830920294742 183.8778170793339,168.281347152355 182.76043456291154,167.74257340535405 181.42203132894792,167.57679534124327 180.73441131885193,167.7114900730594 180.46018191005714,167.8565454077252 179.60065689741896,167.88762862215663 179.19954522487023,168.04822482775126 177.62784234462015,168.2243618264256 176.9484082870149,168.6284377590964 176.62915613946097,168.6957833329434 175.94562910561217,168.45748307768372 175.63865588681074,167.90317021989904 175.05745325922908,167.8824480881667 174.55401718039502,168.37977615177806 174.25932289034972,169.20346153570426 173.94825669530474,169.35887188359266 173.75997978778105,169.54018315824214 173.45300656897234,169.3277898645283 172.77766548762884,169.42103584598954 171.9345123799976,168.7372267040737 171.64800404245398,168.6336181920742 162.1359272359805,170.23433838169512 161.77983830217636,170.4881681171537 161.50151591713802,170.5451500712188 158.99252147549123,170.13073392407387 158.8206164729636,170.2550592395528 158.51773623040935,170.13073392407387 158.06341586659983,169.70595271452476 157.95699848408913,169.07395243020437 157.44128347649166,168.66988120319002 157.13431025770842,168.25544474199705 156.77412834764255,168.01196122734473 156.56129358261023,168.06894686969463 156.04148559879468,167.84100379102892 155.79999999999927,167.84100379102892 156.23794845880911,167.86172594521486 156.54901465386502,168.03268328894046 156.75775644265013,167.98605863458943 156.95831227892268,168.0793078864408 157.29393633147265,168.3745956844432 157.4494694290006,168.65952034637667 157.8915108640649,168.93408210383132 158.03067205660045,169.23972400667844 158.08797372410845,169.7214935736156 158.54638706417245,170.12555369383335 158.79196563920414,170.22397794855715 159.04163719050484,170.09447229762372 159.7210712481101,170.2654196642834 161.57928246588926,170.53478972224912 162.2423446184839,170.19289663230666 171.62344618494535,168.6336181920742 171.88130368872953,168.69060290839843 172.7449216776149,169.36405221766108 173.47756442647733,169.32260952555225 173.6044466902531,169.48838002458797 173.74770085901764,169.54018315824214 173.9810005053041,169.3277898645283 174.27569479535669,169.19310082339507 174.55401718039502,168.3227909724519 175.01652349672077,167.86690648200602 175.6591207680649,167.8824480881667 175.89242041435136,168.40567847794955 176.00702374937828,168.39013708434868 176.34264780191734,168.58699427013198 176.69873673572874,168.65952034637667 176.9443153107677,168.5973551465795 177.69332996462617,168.17255691099126 181.45068216271466,167.56643418838212 182.0769075290591,167.67004559070483 182.23244062657977,167.62342049438666 182.8300151591684,167.7477539582942 184.0947448206207,168.40567847794955 184.71278423446347,168.83047412495944 185.7032844871137,169.70595271452476 186.94754926731184,171.38432902100976 188.20000000000073,173.23356581161715" stroke="#4dd2ff" stroke-linecap="round" stroke-linejoin="round" stroke-width="0.5"><title>2022-08-21 16.1km</title></polyline><polyline fill="none" points="44.19999999999709,214.47945014582 43.75937616968076,213.96276062035395 41.03478477854151,210.10015472367377 39.95545851528732,209.11269673410425 39.276331877732446,208.68291421207323 38.12019962570412,208.10986324449914 36.74577666874029,207.96148255950902 36.18792264504373,208.06893069995203 35.852401746724354,208.2121944118735 35.047960074858565,208.248010254978 34.52244541484106,208.41685591515852 33.208658764811844,208.57546781769634 32.17379912663819,209.06664884058046 31.450205864002783,208.87222378254592 31.272339363684296,208.69314718607347 31.082345602004352,208.28382606412197 30.52853399875312,208.25312680122806 30.03940112289638,208.71361312577574 29.800898315654194,209.30200415122454 29.792813474730792,209.51689250236086 29.263256394267955,209.895502338004 28.911565814105415,209.67038343350214 28.260736119773355,209.7522450085089 27.379488459137065,209.08199814465115 27.0763069245113,209.01548444861328 19.419962570187636,210.3150385356712 18.47403618216049,210.40713122388843 17.637255146601092,210.61178083854247 17.44726138490296,210.81131314566665 17.224928259518492,210.8880560601683 15.438178415468428,210.65271062845204 14.645864004996838,210.44294498645831 14.488209606985038,210.58108346699373 14.229494697443442,210.49922368763873 13.70802245790037,210.00806128728436 13.703980037425936,209.59875440989708 13.627174048651796,209.4094484795496 13.109744229579519,209.03595021371075 12.948047411104199,208.759661449556 12.434660012477252,208.3810402321178 12.49125389893743,208.26335989163636 12.382108546473319,208.17126197818652 12.386150966936839,208.07916384024793 12.535720524017961,208.16614542085517 12.592314410485415,208.0893969777644 12.543805364941363,208.17126197818652 12.382108546473319,208.06893069995203 12.49529631940095,208.29917568623205 12.28509045539613,208.43220548320824 11.799999999999272,208.23266061210597 12.244666250779119,208.42197243854753 12.531678103561717,208.39127328788163 12.95208983156408,208.7187296089578 13.12995633187893,209.01036800561633 13.594834684961825,209.296887747023 13.703980037425936,209.5015433749577 13.776743605736556,210.03364281990434 14.298215845297818,210.50433992904073 14.492252027441282,210.56573477187703 14.698415470989858,210.42759623521852 15.280524017467542,210.59131592693666 17.192588895817607,210.87270748972514 17.350243293836684,210.8317779380959 17.718103555831476,210.55038607051756 27.136943231438636,208.94897063549797 27.34310667498721,209.01036800561633 28.2162694947001,209.69596519475454 28.410305676861753,209.73177963138733 28.93986275732459,209.6550343684503 29.21474734871299,209.8699207118516 29.728134747339936,209.56293984717195 30.01918902057878,208.68291421207323 30.463855271362263,208.26335989163636 30.657891453531192,208.2121944118735 31.094472863376723,208.2275440630874 31.40573923892225,208.759661449556 32.141459762933664,209.00525156192452 32.38804741110653,208.9438541834752 33.10355583280398,208.50895322996803 36.88726138490529,207.92054985418144 38.22126013723755,208.08428040934814 38.851877729259286,208.4680211177656 39.41781659388289,208.7187296089578 39.97971303805025,209.11781316324777" stroke="#4dd2ff" stroke-linecap="round" stroke-linejoin="round" stroke-width="0.5"><title>2022-08-19 15.6km</title></polyline><polyline fill="none" points="80.20000000000073,214.43917763299032 80.11582333291517,214.3072880686268 80.07173079302083,214.22105233326147 77.73081776567778,210.9287279040691 77.01732030186395,210.0459908210505 75.97513299517232,209.09727893018135 74.2635407645721,208.17391059850706 72.92072250402634,207.9811165365245 72.20722504020523,208.1181018931311 71.96271186440936,208.23479272776603 71.07284424099635,208.30074825611882 70.72010392180528,208.44280592285577 69.19289867622865,208.6203772488152 68.59965359395937,208.9653705618075 68.2469132747683,209.08713214910676 67.59354200172675,208.90448961975562 67.40915501669951,208.68633209837571 67.24080168254295,208.30582175350355 66.71569961648129,208.2753807589579 66.58743040949412,208.33118923005895 66.15051342323568,208.78780087098494 65.9100086601502,209.56402788925698 65.5933440554254,209.71115407321486 65.4089570703909,209.89379267026743 65.11233452926535,209.69086084081937 64.43090436719285,209.77203370449206 63.504961029328115,209.0668385786994 63.29251515526266,209.03639820248281 58.49043671904292,209.7872535968454 57.348039094391424,210.05613734245344 54.341729555857455,210.49750836405656 53.93687987132944,210.58882585731408 53.48793764691436,210.8982890405241 50.98267969812514,210.48228876019857 50.78626747494127,210.57360629055984 50.52972906098876,210.49750836405656 50.000618582213065,209.980038364949 49.98458493133512,209.55388123458397 49.88437461338253,209.34587420820753 49.39935667450118,209.02117800510678 49.287121118384675,208.79287430240947 49.034591117160744,208.57471613109374 48.76201905233029,208.4072915566794 48.55358159098978,208.44280592285577 47.99240381046911,208.20435167550022 47.80400841272058,208.2500132446221 47.832067301744246,208.4275854843363 48.13269825559473,208.71677275900947 48.19683285908468,208.66603831087195 48.052530001241394,208.46309983127503 47.924260794254224,208.49354067330933 47.79999999999927,208.3667036683837 47.86012619077155,208.19927816438576 48.55358159098978,208.44280592285577 48.80210317950332,208.39714458872913 48.974464926388464,208.50876108503508 49.283112705670646,208.78780087098494 49.39935667450118,209.00595780152798 49.94049239143351,209.37631433298156 50.016652233080094,210.00033144074405 50.52572064826745,210.49243516345814 50.79027588767349,210.5685331002751 50.970654459975776,210.46199594546852 51.507781764197716,210.59897223172447 53.467895583326026,210.8830695994693 53.997006062108994,210.5533135252699 63.28449832982733,209.02117800510678 63.545045156501146,209.0668385786994 64.37478658914188,209.72637399031737 65.0802672275131,209.67564090929227 65.39292341952387,209.89379267026743 65.90199183472578,209.558954562257 66.16654707410635,208.71677275900947 66.71169120375271,208.26523375527904 67.2969194606012,208.2906012593303 67.52940739825135,208.77258057261497 68.05851787702704,209.0008843989781 68.3270815291362,209.03132480404747 68.54754422863334,208.9704439691668 69.18087343807201,208.54934881942245 70.97664233576506,208.32104224151044 72.97283186935238,207.9608223670075 74.28759124086719,208.14854301547166 75.40994680193035,208.71677275900947 76.08336013856024,209.14801279435414 77.20571569961248,210.1931151124627 78.42026475318562,211.8976854718603" stroke="#4dd2ff" stroke-linecap="round" stroke-linejoin="round" stroke-width="0.5"><title>2022-08-14 16.5km</title></polyline><polyline fill="none" points="116.20000000000073,214.5286699713215 113.75081605105515,211.0668007432796 112.87610749785017,209.9396109439549 111.93380782918393,209.0740670004052 110.39511596515149,208.21353530493798 109.84245919745081,208.0424330607202 108.9478709044015,207.94681675757238 108.82064056939998,207.87133002867995 107.89424469260484,208.1732760242412 107.04736777518337,208.21353530493798 106.61796539452916,208.37457199162236 105.15084059394212,208.53560798044782 104.53456865873159,208.89290408887246 104.19661308135619,208.99355025986006 103.49684623879875,208.75199899155268 103.3338323720709,208.54567270656844 103.23840962081522,208.2437297368524 102.6102098416959,208.19843807979487 102.1410479813494,208.67651389823368 101.88261136335859,209.45651913564507 101.35778623143779,209.8238707702476 101.03175849798208,209.6024537813828 100.35982329119724,209.6527759401506 99.63222481286721,209.0740670004052 99.25450975579224,208.94322720844502 95.1950668793761,209.597421561768 93.40191434532608,209.95973963302822 90.4000736286689,210.40256803436205 90.00645477973012,210.50824221397488 89.75994600564809,210.7145576033945 89.51741317953929,210.78500649845228 87.79582770893103,210.5635952357552 87.04039759480293,210.38747169845738 86.81774450852754,210.4931459209838 86.57521168241874,210.38747169845738 86.11002577002728,209.95470746177307 86.01857896674483,209.36090647082892 85.50965762669875,208.95832413101743 85.3347159160694,208.66141686117044 85.12399067370279,208.485284308892 84.85760215977643,208.32424810199154 84.66675665726507,208.36953960571918 84.39639219536548,208.2034704888647 83.93915817891684,208.14308153508682 83.79999999999927,207.91158963650741 83.89144680329264,208.01727089954147 83.96301386673804,208.38966914521006 83.9153024911102,208.38966914521006 84.25723401645519,208.35947483187556 84.70254018898413,208.88787177317136 85.06037550620385,208.78722531598032 85.263148852624,208.93819489954694 85.94701190329943,209.22000314797333 86.04641060254289,209.33071294661931 86.09412197816346,209.85406389378477 86.54340409866563,210.36734324106146 86.84160019635601,210.46798541907265 87.05232543870443,210.34218265397067 87.76004417720469,210.51830640586923 89.5293410234408,210.76991031789657 89.68440299424037,210.73971793838427 90.07802184317552,210.44785700527427 93.92276352927365,209.81883858059518 95.12747576389665,209.54206710093422 99.36186035096398,208.92813027973898 99.56463369738412,208.98851795778683 100.35584734323129,209.6276148692814 101.06356608172791,209.57729267645118 101.15103693704441,209.70309803076452 101.32995459565427,209.77858103893232 101.85875567555559,209.47161584971764 102.13707203338345,208.61612571316437 102.65792121733102,208.16321119725035 103.21057798502443,208.1934056700411 103.49287029083644,208.69664327145074 104.18866118542792,208.96838874266905 104.45902564732023,208.90296871824103 105.15084059394212,208.48025193798458 106.89230580439471,208.22863252395837 107.6715916063331,208.0424330607202 108.0294269235601,208.03740062985526 108.27991164560808,207.93171942407935 109.14666830286296,207.88642738672934 109.46474414038312,207.9770114062012 110.45873113265043,208.05249792042378 110.85632592956244,208.26385934448626 111.41295864522908,208.71174029419853 112.0411584243484,209.08916386981582 113.05104920849772,210.05031859892551 113.81443121856137,211.11208890478883" stroke="#4dd2ff" stroke-linecap="round" stroke-linejoin="round" stroke-width="0.5"><title>2022-08-12 16.3km</title></polyline><polyline fill="none" points="152.20000000000073,214.8509454218074 149.1950340798503,210.65365792280136 148.1736611489796,209.81015008897884 148.00014605647084,209.5955266720266 147.2824245374868,209.12135422740175 146.32414800389597,208.67712398175354 145.574878286272,208.48245960270287 145.21207400194908,208.42755407914228 144.06845180136588,208.67213260026256 143.11411879260413,208.7669687330199 142.79074975657568,208.94166623354977 141.36319376826214,209.0315103399662 140.68885102239074,209.47573631452178 140.420691333984,209.53563154193398 139.71480038948357,209.31601523222344 139.57677702045476,209.17126740356616 139.403261927946,208.7769514696447 138.85511197663072,208.737020506931 138.38977604674074,209.20121527682568 138.15316455696302,209.7652290120932 138.13739045765033,209.97486023584497 137.7785296981492,210.1894814440784 137.64444985394584,210.34919874154002 137.52220058424064,210.3292341171982 137.30136319376106,210.13457846324673 136.64673807204963,210.20944614411565 135.61353456670986,209.47074504116608 131.25199610515483,210.18449026738745 129.95851996105193,210.4739773986439 126.75243427457826,210.95811458939716 126.38174294061173,211.03298059762164 125.9085199610563,211.33244311000817 124.20886075949238,211.09786434843045 123.40438169424306,210.90820383278333 123.021859785782,210.46898626045368 122.61173320350281,209.05646699733916 122.18188899708548,208.59726179678182 121.4838851022323,208.36266562766104 120.38364167477994,208.252854141836 120.09970788705323,208.15302523443825 119.94196689386081,208.00827283842955 119.79999999999927,207.54905457818677 119.97351509250075,208.0432131239977 120.10365141187867,208.1280679653355 120.72278481012108,208.29777706193636 121.25910418695275,208.3127513564723 121.81908471275165,208.43254549375342 122.31202531645613,208.6920981221847 122.789191820837,209.345962987878 123.13227848101087,210.51390647970766 123.44381694254844,210.92317706685208 123.85000000000218,210.98306994236918 125.92823758519808,210.45900398207596 126.15696202531763,210.5937645120648 126.27132424537558,210.8383286599783 126.27526777019739,211.07790012957412 126.75637779941098,210.9381502948563 131.0429892891916,210.1794990900271 135.57409931840812,209.46575376713736 135.78704965920406,209.51566647693835 136.66645569621323,210.19946379545217 137.34079844206644,210.1395696467116 137.56557935735327,211.05294484079423 138.0545764362323,210.96310566133616 138.12555988314853,210.8882395112014 138.0821811100286,210.64367569444585 138.25175267770464,210.5488443901595 138.25175267770464,210.34420758646593 138.41343719571523,209.9948250521229 138.38188899708257,209.69036042897278 138.27935735151186,209.51067520901051 138.31090555015544,209.31102393725814 138.40555014605707,209.12135422740175 138.8432814021471,208.737020506931 139.43481012657867,208.74201187964354 139.66353456669822,209.23116312573984 140.27083739045702,209.48571885917045 140.68490749756893,209.46575376713736 140.7519474196779,209.59053541491085 141.06348588120818,209.40585842617293 141.35136319377852,209.0464843364207 141.77726387537405,208.95164892285902 144.2380233690419,208.60724457936522 144.9005355404115,208.44751973353777 146.33992210321958,208.60724457936522 148.10267770204518,209.57057037964842 149.13193768257042,210.508915346938 151.8569133398305,214.37184996302312 152.01465433301564,214.47665262663213" stroke="#4dd2ff" stroke-linecap="round" stroke-linejoin="round" stroke-width="0.5"><title>2022-08-07 17.9km</title></polyline><polyline fill="none" points="188.20000000000073,219.12517565266535 185.05654885655895,214.76801468535268 184.1359667359684,213.95335480585345 183.45114345114052,213.5081256905214 182.52307692308023,213.06762747779067 181.64365904366423,212.8781641747155 181.44158004158817,212.8544811896827 180.03825363825672,213.1670953010762 179.58918918919153,213.18604152104308 179.15135135136006,213.33287437794206 177.86403326402797,213.44655100507953 177.2690228690335,213.81126102307098 176.8985446985389,213.9201996415104 176.25862785863137,213.7212679954282 175.95925155925215,213.18604152104308 175.43160083160183,213.18130496701633 174.97505197505234,213.59811926657494 174.7243243243247,214.36068711731423 174.23409563409587,214.6827604705977 173.91226611226375,214.46962402457575 173.33970893970763,214.55014239015873 172.5276507276467,213.95335480585345 172.23950103950483,213.8823079866197 168.71060291061076,214.43173296488385 167.37837837839106,214.71117856527053 163.92806652806394,215.2558542512961 163.5575883575948,215.33637080709377 163.1422037422053,215.61107295559486 161.75010395010395,215.4405684277117 160.72474012473685,215.2084914848565 160.5937629937689,215.31742575181488 160.36174636174474,215.2558542512961 159.89771309771822,214.83432337542035 159.8378378378402,214.3512143267326 159.74802494802861,214.18544007633318 159.28399168399483,213.8633621437839 159.17920997922556,213.64548421360087 158.99958419959148,213.47497010414372 158.71891891891573,213.29024554749776 158.5392931392962,213.34234744430069 157.89563409563198,213.1149931432119 157.6972972973017,212.90658373560655 157.48399168399555,212.97763253680387 157.4690228690306,213.02499832408284 157.55135135136516,212.96815937164865 157.61496881497442,213.02026174824277 157.43908523908976,213.1670953010762 157.0910602910626,212.71711956015497 156.75426195426917,210.18293754092883 156.69438669439114,208.64339150943852 156.24158004157653,203.2094364646291 156.10311850312428,202.27131863516115 155.79999999999927,201.626940288872 155.85613305613515,201.56060654951216 156.12182952183502,201.70748823173926 156.24158004157653,201.58429718516345 156.18918918919735,201.47058198762898 156.06569646570279,201.41372425012742 155.8261954262016,201.5700828057088 155.81496881496787,201.6695833405647 156.07692307692923,202.08179682512127 156.16673596674082,202.48452944331802 156.88523908524076,210.41504783230994 157.1733887733899,212.76922231071512 157.40166320166827,213.1339393914168 157.55509355510367,213.2523532101659 157.83201663202271,213.32340130898228 157.83575883576123,213.38497621123315 158.02661122661084,213.30445516341933 158.16881496882343,213.32340130898228 158.5355509355577,213.80178808371056 158.86486486486683,213.71179503167514 159.16049896050026,213.9107267316358 159.13430353430522,213.6928490964783 158.92474012474486,213.4607605574929 158.99958419959148,213.45602404066813 159.20166320166754,213.64548421360087 159.30270270270557,213.84915275492676 159.77422037422366,214.16649439769753 159.84532224532813,214.29911393270595 159.89022869023393,214.77275102454587 160.30187110187035,215.20375520468951 160.58627858627733,215.30321695362727 160.78835758836067,215.18481007758237 161.34968814969397,215.3316345442363 163.15343035343176,215.58739182086356 163.58752598753563,215.30321695362727 172.3031185031141,213.83967982581817 172.5463617463647,213.90125381919643 173.3209979209969,214.5264605371667 173.9983367983441,214.4885695390367 174.20041580042016,215.34584333088424 174.7692307692305,215.21322776439047 175.43908523908613,215.1706012255163 176.49438669439405,214.98588562352234 176.53929313928893,214.5075150432349 176.38960498960296,214.15702155452527 176.40083160083668,213.9107267316358 177.14178794178588,213.8349433602998 177.80415800415722,213.41339536032683 178.4066528066578,213.37550315640328 181.16465696466548,212.8923739580532 182.51559251559593,213.04868119368257 183.81413721413264,213.72600447633158 184.28191268191222,214.038610798445 184.99667359668092,214.68749682130874 185.8873180873088,215.79578525626857 187.78461538461852,218.48584361364192 187.66860706860462,218.69895559145516 187.81081081080993,218.9357451553842 187.7733887733957,219.01625324205816 187.8706860706916,219.2719835825992 187.81455301454844,219.60348309387336 187.51517671518013,219.9160368991361 187.45530145530574,220.08178399627286 187.23076923076587,220.23805911155068 186.81538461538366,220.74950006318977 186.7854469854501,220.72108687310174 186.78918918918862,220.89156566746897 186.88648648649178,220.98627574987404 186.7218295218263,220.7684421770864 186.58336798336677,220.83473949497784 186.7068607068686,220.81106189586717" stroke="#ff0000" stroke-linecap="round" stroke-linejoin="round" stroke-width="0.5"><title>2022-08-06 24.1km</title></polyline><polyline fill="none" points="43.79436619721673,256.0860330069845 42.27323943662486,253.76532000995212 37.02535211267241,246.6637286422265 34.80281690139964,244.65292113371106 33.15492957746028,243.61541000587022 31.12676056338387,242.62067004519486 29.850704225369554,242.2569985451555 28.64225352113135,242.12864349834126 26.225352112691326,242.68484719488333 24.078873239443055,242.9094668082398 23.50422535213147,243.14478190851514 20.859154929574288,243.35870411856013 18.560563380284293,244.52456998029083 16.8873239436507,244.00046727254085 16.22816901409533,242.86668216922408 15.002816901411279,242.84528984106146 14.064788732401212,243.74376263670274 13.498591549301636,245.50859015994502 12.391549295767618,246.25729295430938 11.892957746473257,245.91502970028523 11.80000000000291,245.63693971440807 12.002816901411279,245.58346075873123 12.070422535231046,245.28397793781187 12.585915492971253,244.79196798122575 13.40563380283129,244.41761052646325 13.507042253520922,243.5405375416085 13.498591549301636,244.3534347846362 13.34647887324536,244.503178101113 13.574647887326137,244.19299520193454 13.473239436636504,243.26243919575063 13.55774647888029,243.56192968150572 13.304225352098001,243.48705716653058 13.625352112685505,243.57262574926426 13.60845070421783,243.84002697291726 13.69295774649072,243.35870411856013 13.329577464792237,241.6580065418966 13.033802816906245,241.7863623535959 13.380281690137053,243.45496892409574 12.974647887327592,243.71167449853965 12.695774647872895,243.6261060664183 12.81408450705203,242.855986005874 12.661971830995753,241.90402166441345 12.467605633792118,241.81845127391716 12.180281690132688,241.94680682488251 12.476056338040507,243.6368021255039 13.287323943666706,243.65819423932408 13.464788732388115,244.42830647835945 12.323943661976955,245.27328210177075 11.892957746473257,245.78668059771007 12.340845070422802,247.75467725382623 13.414084507050575,247.48728928210767 13.43098591548187,246.82416320654738 13.68450704227871,246.79207631974714 13.845070422532444,246.41772834408766 14.284507042255427,246.21451012865145 14.343661971841357,245.8829424442083 14.107042253526743,245.5406775681331 13.887323943657975,244.11812328514497 14.056338028167374,243.72237054601283 14.960563380285748,242.9094668082398 16.38873239439272,242.8345936747719 16.828169014072046,243.95768322451477 18.23943661973317,244.46039432538964 19.10985915493802,244.32134689416853 20.25915492956119,243.6368021255039 19.354929577464645,244.68500888950075 20.84225352112844,244.23577912252222 20.80000000000291,243.86141903166572 21.036619718317525,243.6368021255039 20.892957746473257,243.51914539591962 20.09014084507362,243.6261060664183 19.016901408445847,244.36413074520533 18.36619718309521,244.51387404143316 17.081690140854334,244.10742729127378 16.701408450710005,243.66889029408048 16.346478873230808,242.855986005874 15.045070422522258,242.82389750704897 14.123943661958037,243.6474981831343 13.532394366178778,245.4871985472564 12.290140845063434,246.25729295430938 11.935211267598788,246.000595652833 11.892957746473257,245.78668059771007 12.366197183102486,245.23049874314893 13.38873239437089,244.55665778821276 13.60845070421783,244.07533930084173 13.718309859134024,243.42288066862238 13.439436619730259,243.50844932087784 13.676056338023045,243.6368021255039 13.38873239437089,243.2731353041163 12.991549295780715,243.2731353041163 13.439436619730259,243.294527516402 13.532394366178778,243.48705716653058 13.211267605642206,242.10725097022078 13.321126760580228,241.95750311136362 13.35492957745737,242.05376962467562 13.287323943666706,241.8719327788276 13.27042253522086,242.5671890472804 13.60845070421783,243.6368021255039 13.498591549301636,244.3427388226046 12.391549295767618,245.2198028998755 11.918309859152941,245.85085517504922 12.290140845063434,247.7332862494004 13.35492957745737,247.51937588651344 13.515492957732931,247.35894273420126 13.38873239437089,246.90972817425063 13.60845070421783,246.8027719501115 13.718309859134024,246.90972817425063 13.811267605626199,246.2038144186081 14.149295774637721,245.4871985472564 14.039436619706976,244.77057617449464 13.802816901406914,244.42830647835945 13.861971830978291,244.2250831445417 14.039436619706976,243.71167449853965 15.019718309857126,242.78111282169994 16.363380281691207,242.78111282169994 16.8873239436507,243.85072300301545 18.57746478874469,244.42830647835945 19.059154929578654,244.25717107411765 20.461971830984112,243.33731192366395 24.12957746478787,242.98433987075987 24.383098591548332,242.80250516725937 25.684507042256882,242.57788524974603 26.49577464786853,242.6741510068896 27.492957746471802,242.23560605185048 28.94647887323663,242.1607322795753 29.723943661971134,242.40674583621148 31.008450704233837,242.4281382831905 33.19718309859309,243.50844932087784 35.15774647888611,244.82405568053218 37.53239436619333,247.10224901277252 41.81690140845603,253.28405762840703 44.200000000004366,256.38547487992037 41.935211267606064,258.94137896679604 40.74366197185009,259.88244416460657 40.71830985915585,260.10701488484483 40.42253521128441,260.33158496681426 40.38873239437089,260.8448856146206 40.532394366200606,260.834191885122 40.36338028170576,261.0694535994626 40.321126760565676,260.4171353063575 40.48169014085579,260.4706042215257 40.321126760565676,260.7807232159903 40.109859154930746,260.7058670184415 40.25352112677501,260.59892947032495 39.85633802818484,260.9518228298766 39.788732394357794,261.1550031401057 40.13521126762498,261.53997492671624 39.535211267611885,262.2136710401319 39.62816901410406,262.11742908989254 40.00000000001455,262.32060640291456 40.160563380290114,262.2992193419559 40.10140845071146,262.053267724601 40.21126760564948,262.25644520261994 40.27042253524269,262.16020330447645 39.47605633805506,262.3419934581034 39.81408450703748,262.10673553261586" stroke="#4dd2ff" stroke-linecap="round" stroke-linejoin="round" stroke-width="0.5"><title>2022-07-23 16.3km</title></polyline><polyline fill="none" points="80.20000000000437,258.7696045810517 78.6748648648645,256.6917968294947 78.30999999999767,256.3685766026756 77.67513513512677,255.306556503936 73.6397297297226,249.68219182764733 71.4140540540684,247.59487118523975 70.03486486485781,246.71743857149704 68.1375675675663,245.7845767812396 65.71486486486538,245.2673409831914 64.70054054055072,245.23039541894832 64.02918918918294,245.37817755584547 63.56945945946791,245.2765773711144 63.47459459461243,245.8954125133314 63.2118918918859,246.00624806532142 61.32189189190831,246.38493484233186 58.811621621629456,246.6804937927518 57.811891891898995,247.33626064068085 57.27918918919022,247.47480212577648 55.987567567572114,246.9483429852844 55.484054054060834,246.0801383332655 54.44783783785533,246.05242949218518 53.491891891899286,246.8744536579179 53.02486486486305,248.31528110341605 52.36810810811585,248.66624728150055 52.200270270273904,248.8786733014349 51.41945945947373,248.58312387621118 50.29567567569029,248.72166282873513 48.62459459462116,247.4470938512677 47.80000000000291,247.4470938512677 48.66108108108892,247.42862166200212 50.22270270271838,248.66624728150055 51.550810810833354,248.62006762440433 51.86459459460457,249.66372024369048 51.930270270277106,250.26404416192963 51.79891891893203,250.3564012188508 51.915675675700186,250.5688219752774 54.38945945947489,250.08856540923443 54.54270270269626,249.86690739212645 62.139189189205354,248.69395506073488 61.591891891890555,248.01049322048493 60.65783783783263,247.31778842140193 60.71621621622762,247.17001048707607 61.05189189189696,247.16077435555053 61.08837837839383,246.42187978119182 61.37297297298937,246.18173732097057 63.7300000000032,245.77534046208166 64.3137837838076,245.80304941577197 64.64216216217028,245.59985016080464 65.61270270270325,245.45206850420072 68.18864864864008,245.7291588476437 69.98378378377674,246.6435489939904 71.57459459461825,247.6410515364696 73.52297297296172,249.4512966686234 78.55081081081153,256.46092539519304 78.41945945945918,256.71950134909275 78.23702702704031,256.76567552344204 78.39027027027623,256.9873111252964" stroke="#4dd2ff" stroke-linecap="round" stroke-linejoin="round" stroke-width="0.5"><title>2022-07-16 10.3km</title></polyline></svg>