<?xml version="1.0" encoding="utf-8" ?>
<svg baseProfile="full" height="300mm" version="1.1" viewBox="0,0,200,300" width="200mm" xmlns="http://www.w3.org/2000/svg" xmlns:ev="http://www.w3.org/2001/xml-events" xmlns:xlink="http://www.w3.org/1999/xlink"><defs /><rect fill="#222222" height="300" width="200" x="0" y="0" /><text fill="#FFFFFF" style="font-size:12px; font-family:Arial; font-weight:bold;" x="10" y="20">Over 10km Runs</text><text fill="#FFFFFF" style="font-size:4px; font-family:Arial" x="10" y="280">ATHLETE</text><text fill="#FFFFFF" style="font-size:9px; font-family:Arial" x="10" y="290">Allen</text><text fill="#FFFFFF" style="font-size:4px; font-family:Arial" x="120" y="280">STATISTICS</text><text fill="#FFFFFF" style="font-size:3px; font-family:Arial" x="120" y="285">Number: 29</text><text fill="#FFFFFF" style="font-size:3px; font-family:Arial" x="120" y="290">Weekly: 1.6</text><text fill="#FFFFFF" style="font-size:3px; font-family:Arial" x="141" y="285">Total: 452.5 km</text><text fill="#FFFFFF" style="font-size:3px; font-family:Arial" x="141" y="290">Avg: 15.6 km</text><text fill="#FFFFFF" style="font-size:3px; font-family:Arial" x="167" y="285">Min: 10.1 km</text><text fill="#FFFFFF" style="font-size:3px; font-family:Arial" x="167" y="290">Max: 24.1 km</text><polyline fill="none" points="26.254019816147775,60.64369576788886 25.965598310856876,60.54448102931201 25.563868357046886,59.46073477794198 25.012777266580088,58.491443881932355 24.059956222296023,57.911384549104696 23.328601691016956,57.99534102597681 22.102810293512448,56.51462820849338 21.711381107747002,54.98806274339586 21.335403074055648,54.40031949983677 20.8049135196743,53.90416588086737 20.4701385581684,53.163740568874346 20.434085870008857,52.56070363696563 20.64525161495476,52.34696684501978 20.63495084692113,52.02635951467164 20.006603996094782,50.64466517641995 18.379082644780283,49.1178755660585 17.05543395083805,48.40026430618309 15.597875272280362,47.186403171705024 15.541221048042644,46.010678632683266 20.54224393450204,43.77365269271468 24.312325039427378,41.26925670235141 29.076430260836787,35.25195664786588 30.353725498564017,32.97614261068156 31.6722238084767,31.983297229151503 32.192412594831694,31.80763740133989 32.59929293266032,31.799999999999272 33.21733901542757,31.998571960302797 33.69117434556756,32.4568111800254 34.51523578926572,35.16031563371871 35.05087572765842,36.32108628747301 37.45610506646699,38.83342837502278 39.2278371704233,41.84192206177249 39.58836405205511,43.16283886993915 39.572912899973744,44.30047211836063 40.10855283837736,45.613672927014704 40.27851551114509,46.3160649541569 40.33516973539372,47.60629641300693 40.463929335983266,48.140699614439654 40.38667357563463,48.86594967613564 40.48453087208327,49.629356580288004 40.29911704724509,48.621656387997064 40.257913975056,46.430584223246115 39.578063283999654,44.369187183761824 39.567762515944196,43.13993317002678 39.217536402378755,41.887734936106426 37.47670660255608,38.94033304611003 35.03542457559888,36.336359360844654 34.58219078155889,35.32068727058504 33.73237741774574,32.50263481301954 33.44910629646256,32.174230948898185 32.81045867760258,31.861099169800582 32.01214915401215,31.899286103482154 31.697975728602614,32.021484046090336 30.369176650645386,33.037239982397296 28.592294162663165,35.91634771651661 25.053980338758265,40.406425401059096 24.10630967850011,41.460146067092865 20.578296622661583,43.77365269271468 15.865695241493086,45.81217627268779 15.561822584120819,46.07175608360558 15.515469127916731,47.01081014484225 15.61332642436173,47.209306553126225 17.034832414738048,48.39263007460977 18.38423302879528,49.125509659137606 19.924197851720237,50.59122852470682 20.58344700667658,51.98055825760093 20.367130877704767,52.652304769468174 20.43923625402749,53.23244040174177 20.91822196818248,54.07972863449686 21.618674195327912,54.911732940185175 22.01010338109336,56.36197428467494 23.266797082742414,57.96481141840559 25.450559908538708,62.063202763773006 25.702928725670063,63.436871236666775 26.320974808451865,64.20000000000073 25.754432565914612,63.55134147952049 25.404206452345534,61.74267333039825 23.426458987443766,58.056400171190035 24.018753150117846,57.92664937616428 24.87371689795691,58.34642983760932 25.738981413833244,59.827074825167074 25.95014715878642,60.53684911614255 26.465185561111866,60.689487102667044 26.537290937423677,61.963991547028854 27.16048740423139,61.94872826106075 27.23774316456911,60.72001463003835 27.90729308758091,60.62080008084013 27.876390783447277,61.91820167165861 27.768232718954096,61.97925482716164" stroke="#ff3600" stroke-linecap="round" stroke-linejoin="round" stroke-width="0.5"><title>2023-02-05 21.1km</title></polyline><polyline fill="none" points="70.2976965018679,49.84602892431576 68.48004496756039,49.74243591101549 68.41013529316842,49.328061485332 67.3556643710399,47.40289717844644 66.3536257046726,46.78130196543498 65.52636122431431,46.9108016726168 64.08738709297904,45.21000930877926 63.580541953619104,43.465983210564445 63.1261290700495,42.809797563902976 62.66006457406911,42.386725454318366 62.24643233388633,41.67008407561298 62.13574201609299,41.229732535583025 62.18234846568521,40.60805247366443 62.380425876472145,40.34038203736782 62.35712265168695,39.97772924154924 61.54150978373946,38.363025541049865 59.77046469900961,36.77416990208803 58.37809701729566,36.00562730576348 56.875039017773815,34.891649119654176 56.5779229015825,34.47713860307704 56.583748707795166,33.45811743102968 56.7818261185821,33.15586097259438 59.8811550168175,31.80000000000291 56.71191644419014,33.173132824653294 56.63618096359278,34.58076658844584 58.27323250570771,35.94517958120923 59.89280662922101,36.817346064908634 61.5065549465362,38.250771268820245 62.3746000702813,40.029536961843405 62.14739362848195,40.867086871367064 62.19982588428684,41.411054277214134 62.39790329508105,41.868672583023 63.66210324041458,43.51778693509914 64.06408386818657,45.12367296534285 65.38654187553766,46.7295019787598 67.97902563438402,51.65023585679228 68.11301917699166,52.82422659972144 68.86454817675258,53.84281152867334 68.83541914575471,55.52601601720744 69.08592881233199,56.25106942002094 69.07427719993575,57.701141364028445 68.51499980476365,59.50503503665095 68.85289656434179,60.791020580396435 69.75589652529015,62.14601277831025 69.82580619970395,64.20000000000073 70.50742552505835,63.224799205974705 71.10165775743371,61.947513273615186 71.00261905203661,59.87616213394358 71.32303839301312,58.37437325287101 71.4220770984175,51.589809038167004 70.42003843206476,51.28767373417577" stroke="#4dd2ff" stroke-linecap="round" stroke-linejoin="round" stroke-width="0.5"><title>2023-01-31 10.4km</title></polyline><polyline fill="none" points="94.97164402037743,35.39591748167004 94.39065103237226,37.03972529456951 93.491495217575,38.190375764308556 92.35717557433236,39.07390256287181 89.20321363935363,40.32726529543288 87.98589499780792,41.99154397848906 87.64006583823357,42.93667839327827 87.0175733511278,48.0320421058932 85.6619230457436,51.237066160552786 85.64808987938159,53.127163633667806 86.36741453118157,54.44199439517979 88.64988698411616,57.15378191188938 89.89487195841502,61.34459133689961 90.46203178007272,62.16629946530884 91.8176820854278,63.04962867910217 94.48748319705192,64.11783102933259 95.06847618504253,60.81047767606651 97.76594362940523,59.37246613215393 98.74809844249103,58.53019327032962 102.62138502929884,53.74349256099231 104.17069966401323,52.30538621839514 104.80702531755378,51.216521439739154 105.52634996941197,48.17585934134695 106.42550578415103,47.004770527571964 107.53215909466962,46.57331352899928 112.12477033327741,46.614404746535 113.5772528033267,45.71039432213729 114.26891112243175,44.23108809166297 114.10291312582558,42.69012239284348 113.35592214121425,41.33405425310775 110.22962653901777,38.51913077266363 108.70797823708563,37.92326157756179 105.58168263488915,38.046545131044695 103.85253683726478,37.40957857830654 102.64905136206653,36.23837213493971 100.44957790742046,32.95070671960275 99.19075976673048,31.923290596540028 97.72444413027551,31.80000000000291 95.98146516623092,32.88906202995713 94.10015453837696,37.51231537509011 92.49550723811262,38.97116726280365 89.20321363935363,40.32726529543288 88.19339249352925,41.64225306402659 87.54323367362667,43.18323382666131 86.9622406855924,48.052587437137845 85.60659038019367,51.19597671498923 85.55125771465828,52.695731276093284 85.84175420871179,53.68185982778232 88.84355131341727,57.64682681784325 90.04703678865917,61.71436077405815 91.58251825695334,63.07017113239999 94.55664902896388,64.11783102933259 95.05464301868051,61.01590632209263 98.33310345107748,58.96160214818519 102.46922019909834,53.92839054829528 104.21219916314294,52.30538621839514 104.83469165027782,51.237066160552786 105.48485047022405,48.360766931888065 105.96901129357866,47.43622578952636 107.39382743087481,46.614404746535 111.0734496882651,46.77876945915341 112.7195964877028,46.367857205012115 113.84008296453976,45.42275304278155 114.32424378790893,43.82016607130208 113.53575330415333,41.53952022552403 110.6861210296338,38.868431864262675 108.58347973963828,37.92326157756179 106.01051079273748,38.10818685466802 104.01853483381274,37.55341006623348 102.82888252499106,36.505490520481544 100.40807840824709,32.88906202995713 99.38442409603158,32.02603265201469 97.54461296732188,31.90274217359547 95.81546716966841,33.07399599257769 94.5151495297905,36.66987073448399 93.78199171161395,37.882167028219556 92.13584491220536,39.15609073204541 89.27237947125104,40.286171667721646 87.8475633339549,42.279194465168985 87.07290601667773,47.621134655906644 85.6619230457436,50.96998448255181 85.55125771465828,52.28484170226875 86.14608386909822,54.15437654402922 88.87121764622862,57.74954422123119 90.13003578690405,61.89924501438509 91.13985693278664,62.9263738769223 94.5704821953259,64.19999999999709 94.91631135484204,61.44730519736913 95.34513951270492,60.728306107492244 98.42993561571348,58.899972414728836 102.41388753357751,54.03111151452322 104.21219916314294,52.32593073053431 104.84852481669805,51.31924500452442 105.54018313577399,48.21694994458812 106.06584345824376,47.354043968749465 107.47682642911968,46.59385913976439 110.9766175236,46.71713272146735 112.65043065577629,46.38840285515471 113.66025180160068,45.6282111782275 114.44874228534172,44.4365485110975 114.26891112243175,42.95722470108012 113.28675630930229,41.190227838102146 110.60312203131616,38.78624347452569 108.76331090263557,37.9027143048952 105.67851479952515,38.08763961744262 103.74187150617945,37.38903120715986 102.95338102242386,36.64932322158711 100.3804120755376,32.827417304848495" stroke="#4dd2ff" stroke-linecap="round" stroke-linejoin="round" stroke-width="0.5"><title>2022-12-04 15.0km</title></polyline><polyline fill="none" points="152.12390605685505,51.406158179041086 150.9824969097608,49.50045646014041 150.8343139678509,49.439634595251846 149.10417799752395,46.9053023893066 147.92672435105123,45.86110761445525 147.52622991346288,45.622864919903805 147.52222496909235,45.4150349480733 146.26467243510342,44.75605423687011 144.86694684795293,44.609049264825444 143.98185414091495,44.82702194778176 142.91253399257766,44.943611466478615 142.74032138441544,45.044993361472734 141.18640296662124,45.21734195281533 140.6056860321478,45.5671057724212 140.25725587143825,45.67355498190591 139.6004449938264,45.47586335194137 139.456266996287,45.32379215691981 139.2480098887463,44.89292041601584 138.79545117428643,44.862505752782454 138.55515451174142,44.96895696597858 138.22274412854676,45.318723106451216 137.97443757725705,45.850969658360555 137.91436341161898,46.14496927095024 137.43777503090314,46.39841535963933 137.21750309022536,46.378139735687 137.0533003708224,46.2767614512195 136.5566872682357,46.378139735687 136.40850432632578,46.34772627917482 135.54744128553648,45.66848597878925 135.2871199011097,45.61779590993683 126.21191594561606,47.13846811826079 125.50704573547773,47.49328274544678 122.98393077874425,47.07257360294534 122.79169344870388,47.18408733013348 122.52736711990656,47.10298647058153 122.25903584672778,46.78365012812719 122.03475896167947,46.64172199043969 121.93864029667384,46.03345244832599 121.42200247219807,45.63807194570472 121.15367119901202,45.24775632772071 120.83327564895808,45.004440636432264 120.59297898640943,45.050062449023244 120.2845982694671,44.89292041601584 119.87208899876714,44.806745472676994 119.79999999999927,44.63946413398662 119.88410383190421,44.806745472676994 120.13641532757174,44.82702194778176 120.58897404203162,45.03485518434172 120.79322620519815,44.98416425744654 121.21374536465737,45.2933778437764 121.39396786156067,45.59751986317133 121.96266996292252,46.00303871177675 122.06679851669469,46.61637762351165 122.51935723115457,47.06243597490902 122.75564894931449,47.15874333040483 122.98393077874425,47.047229527703166 125.50304079109992,47.4679389550256 126.09577255871045,47.12833050806512 135.3031396786173,45.592450849766465 135.5634610630368,45.653278965342906 136.40049443757744,46.32238171320569 136.55268232385788,46.35786410075525 137.0893448702118,46.26155468487559 137.29359703337832,46.46937995696862 137.4457849196442,46.47951774561079 137.56593325092763,46.31224388201008 137.91436341161898,46.13483139171149 138.15866501853816,45.298446897671965 138.27080346105504,45.21734195281533 138.27881334982158,45.2629635059202 138.5030902348517,44.9790951609757 138.70333745365133,44.857436639853404 139.2880593325135,44.88785130720498 139.45226205191648,45.318723106451216 139.97290482076278,45.57217478926759 140.2812855376942,45.63807194570472 140.5776514215031,45.546829698214424 141.15836835599112,45.16665127302622 141.5188133498159,45.095684206011356 142.94056860321507,44.943611466478615 143.26096415326901,44.83716018121777 144.88296662546782,44.593841820958914 146.23263288009548,44.71550119879976 147.24588380716523,45.19199662149549 148.07490729294295,45.73438296569293 149.1282076637799,46.7430992865593 150.15747836834998,48.08125386686879 151.37498145858262,49.9312751745274 152.20000000000073,50.93481013341443" stroke="#4dd2ff" stroke-linecap="round" stroke-linejoin="round" stroke-width="0.5"><title>2022-11-05 16.8km</title></polyline><polyline fill="none" points="188.1999999999971,51.308750406315085 188.14312225705362,51.103095635964564 187.03400626959046,49.704613665653596 185.78269592476136,47.79190053529601 185.1895423197493,47.01033411332173 184.03167398120058,45.8945173334032 183.18663322884095,45.37002069874143 182.13439498432126,44.87122796271433 181.56968025078095,44.840374588613486 180.92371159874892,44.701534094900126 180.50931661442155,44.7529565591758 179.80647021943878,44.917507976872 178.98580564263466,45.01006783595949 178.56734796238743,45.17976032496517 177.09258934169338,45.29803039915714 176.41411912225522,45.72997014947032 176.01597492162546,45.82767012592012 175.39031974921818,45.5911329084156 175.25625078369922,45.447153011133196 175.10999373040977,45.04606327578222 174.4762131661555,44.99978341831229 173.98462695925264,45.503716607316164 173.7327398119196,46.28531403763918 173.23709090908596,46.54755693952757 172.9770783699023,46.50642091780901 172.899887147345,46.42929075698339 172.21735423198697,46.52184693118397 171.29918495298625,45.80710173071566 171.0472978056423,45.75053858644242 161.9956112852633,47.262288203612115 161.60152978056067,47.354842347562226 161.31307836991255,47.601652295332315 161.11806896552298,47.6582126824469 159.19641379310997,47.38055179196817 158.5504451410634,47.2160110470395 158.3838746081601,47.33427477951773 158.07104702195284,47.226294864496595 157.60789968651443,46.78923016719273 157.5307084639535,46.25960385174767 157.3803887147369,46.04877967078937 156.98630721003428,45.77624911702151 156.5719122257069,45.282603888634185 156.32815047022086,45.14376501188235 156.12095297805354,45.19004469387073 155.79999999999927,45.00492562749059 156.12907836991872,45.1694759532802 156.3850282131716,45.123196246240695 156.80754858934597,45.45743730761387 156.99849529781204,45.771107012293214 157.45757993730513,46.04877967078937 157.54289655173852,46.18761523861758 157.64040125392057,46.79437213403435 157.88822570533011,46.98462441830634 158.07917241379255,47.24686249101069 158.43668965517645,47.323990991309984 158.54638244514354,47.205727226813906 159.29391849530293,47.38569367875607 161.11400626960312,47.62736157263862 161.3090156739854,47.56051741542251 161.54058934169007,47.34970045659793 161.73966144200676,47.298281508621585 171.09198746081893,45.72997014947032 171.3032476489061,45.78653332436079 172.16453918495245,46.47042686225541 172.86738557993522,46.393296628324606 173.05833228840856,46.614402879760746 173.20865203763242,46.6503967988574 173.3427210031332,46.48071088161305 173.7246144200617,46.254461812466616 173.98462695925264,45.406015797354485 174.5087147335471,44.97921457467601 175.08561755485061,44.99978341831229 175.32937931033666,45.503716607316164 175.85346708464203,45.72997014947032 176.1906708464012,45.77624911702151 177.0844639498464,45.24660867303828 178.8029843260265,45.07177428333307 179.63989968652095,44.845516819375916 179.98116614419996,44.86094350746862 180.71245141066174,44.69124959368855 182.11408150470743,44.8198056586225 183.17038244514333,45.31345690341914 183.80822570533564,45.69911747309743 184.24293416927685,46.15162088087891 185.15297805642695,46.91263717959009 185.84363636364287,47.95129697557422 186.29053291535456,48.460332740502054 187.20057680250466,49.848577422540984" stroke="#4dd2ff" stroke-linecap="round" stroke-linejoin="round" stroke-width="0.5"><title>2022-11-04 16.4km</title></polyline><polyline fill="none" points="44.19999999999709,92.29205063666086 40.96171111696822,87.74981648091853 40.418431476096885,87.20839539716326 39.387483496157074,86.37459258953095 37.962978611019935,85.60574602070483 37.75336678108579,85.5082855406472 36.38875099021607,85.30794936334132 34.47229997357499,85.61657494826795 33.988909426974715,85.78442295044442 32.34623712699977,85.98475674034853 31.653234750447155,86.4233218034351 31.33240031686364,86.48287965088457 30.6094533931755,86.25006210641004 30.310007921816577,85.67071954208222 29.664061262203177,85.63281833411384 29.133614998667326,86.13094562921106 28.864114074458485,86.99723918736709 28.32511222602261,87.27336631429716 28.0727224716029,87.24088086893971 27.952944283068064,87.14342437444793 27.238552944265393,87.21380964428317 26.382994454699656,86.537023071578 26.070715606019803,86.43956486154639 21.805756535508408,87.10552456245568 20.436862952195952,87.40330783186437 16.50984948507903,88.02052427369563 16.077792447838874,88.11797863044194 15.80401373118002,88.35078529905877 15.581568523892201,88.43199660876417 13.630895167665585,88.15587748282269 12.860892527056421,87.95555457056616 12.75822550830344,88.08549387125095 12.642725112211338,88.09632212725046 12.373224188002496,87.98262529304338 11.936889358330518,87.57656253173991 11.84277792447756,87.37082249206287 11.872722471602174,87.17590989900418 11.799999999999272,86.8835392279143 11.85133350936303,86.8023247732126 11.902667018737702,87.44662157720813 12.364668603109749,87.96096871652844 12.59566939528304,88.08549387125095 12.75822550830344,88.08549387125095 12.890837074188312,87.9772111500024 15.577290731449466,88.41575436000494 15.739846844451677,88.38326984273954 16.163348296788172,88.06925148176742 26.070715606019803,86.42873615685676 26.293160813307622,86.45580791304383 27.238552944265393,87.20298114931575 27.96149986796445,87.1325958604175 28.308001056237117,87.37623671719848 28.517612886185816,87.16508139375219 28.847002904662077,87.00806773807199 29.120781621331844,86.10387365306815 29.651227884864056,85.63823279458666 30.26722999735648,85.63823279458666 30.579508846036333,86.17967514004704 31.315289147067233,86.46663661037019 31.606179033526132,86.4179074492713 32.38045946658531,85.93602699194889 34.23702138895169,85.71403516434293 36.45719566938715,85.32960737685426 37.01330868760124,85.43789726841351 37.676366517032875,85.44872624144045 38.976815421166975,86.0930448574909 39.79815157115445,86.63448104408963 40.811988381290575,87.60904770439447 41.1798785318133,88.08549387125095" stroke="#4dd2ff" stroke-linecap="round" stroke-linejoin="round" stroke-width="0.5"><title>2022-10-29 14.6km</title></polyline><polyline fill="none" points="80.20000000000073,92.1049679231146 79.53072666912703,91.2932846053518 77.79380302470963,88.72703898101463 76.92135743268227,87.58250699469136 75.81785319069968,86.60937503642344 75.08882331243512,86.13036291876051 74.15263740317096,85.69168325780993 72.80612320176442,85.4950320768803 72.097012172635,85.61100597589757 71.8779048321594,85.7471487877192 70.85805975654876,85.81269885291476 70.61504979712845,85.99926379144745 70.14894872740842,85.98413693935436 69.20877904832378,86.09506704527303 68.14909627443558,86.59929063428717 67.45990409443039,86.37239086419504 67.28461822205281,86.13540518366426 67.18104020655664,85.82782577463877 66.61932866101779,85.78748730302323 66.10940612320337,86.24633483892103 65.87436370342766,86.76064074071837 65.84249354480926,87.0329174599392 65.37639247511106,87.27493953898738 65.10151235707235,87.27493953898738 64.97004795278554,87.18922356588882 64.33662855034709,87.24972897914631 63.48011803762347,86.60433283570455 63.28092954629028,86.53374195384822 54.34533382514928,87.99595432581191 53.94695684249018,88.09679444193534 53.65614164514409,88.33376763994966 53.441018074507156,88.38922923448627 50.979048321652954,88.00603834971844 50.79579490962351,88.08671044261791 50.49701217263282,87.98082828485349 50.01497602360905,87.50687588865185 49.935300627061224,86.93711661909038 49.40545924012258,86.54382637372328 49.21423828844854,86.23120808721796 48.84773146439693,85.94884092726716 48.58878642567288,85.96396779368297 47.82390261894761,85.64630230823605 47.79999999999927,85.55554024317462 47.89162670600854,85.67655628076682 48.41748432311579,85.81269885291476 48.58878642567288,85.93875634624055 48.83976392474506,85.898417994802 48.99513094798385,86.00430607411181 49.285946145329945,86.27658832391171 49.445296938396496,86.53374195384822 49.92334931758887,86.83627336244172 50.03887864255739,87.49174964901613 50.516931021757046,87.96066022065497 50.759940981188265,88.05141642348462 50.96709701216241,87.9304081038863 51.59254887494899,88.09679444193534 53.44500184433491,88.36906139147322 53.63622279601623,88.32872567271625 53.99077831058821,88.06150043235539 63.24109184802364,86.5186153188879 63.539874585025245,86.5942484322004 64.3525636296581,87.25477109247367 65.01386942087993,87.1791393208041 65.17720398376696,87.36065531475833 65.32858723718164,87.3959499886223 65.58354850609248,87.16401294802199 65.8345260051683,87.06317030584978 66.08151973440908,86.2412925890385 66.571523423092,85.7723603649174 67.1651051272529,85.78244499100765 67.42803393581562,86.26146158448319 67.87023238657639,86.47827759564098 68.20885282183735,86.53374195384822 68.48771670970018,86.45810871761933 69.13308742161826,86.06481341280232 72.0253043157536,85.63621764527124 72.21652526743492,85.54041321082696 72.96149022500322,85.50511677810209 74.12475101438395,85.64125997709925 75.49118406492926,86.34213745705347 76.45924013279364,87.09342312718218 77.1364810033192,87.7942732743395 78.9052748063441,90.25974918788415" stroke="#4dd2ff" stroke-linecap="round" stroke-linejoin="round" stroke-width="0.5"><title>2022-10-22 16.5km</title></polyline><polyline fill="none" points="116.0885747038592,92.36729691384971 116.19999999999709,92.13228372596859 114.96606801682356,90.52893333533575 112.76232327092657,87.38471077226131 111.68108521208342,86.4288581011715 110.86809323653506,85.89607747941409 109.84050439434577,85.4103004987519 109.25036301108412,85.38418328347689 108.51578142911967,85.23792655112993 107.88849828047387,85.32672534762605 107.42628964463802,85.47298174326716 106.62155139472816,85.5356628859081 106.25013374093032,85.70281210164467 104.82636606801316,85.81772676730179 104.46732900267307,85.94831119908122 103.93496369889544,86.28260532993227 103.6254489873827,86.34006184191458 102.96927779899852,86.14157534678452 102.77531524647566,85.89607747941409 102.64325563621969,85.55133315564672 102.0654948414267,85.51476918301341 101.52074894916586,86.02143828776752 101.24837600305545,86.85716659844547 100.92235384027299,86.99819396532621 100.74489873901985,87.20189925167506 100.39411539930734,86.97207782516125 99.70492930837645,87.06087262954316 98.8713030187173,86.38184834232379 98.6195643866995,86.29827529624527 93.9025601834037,87.0452029730368 92.68513565150715,87.31680945145854 89.57348108519727,87.78689306794695 88.97508597630804,87.91747083367227 88.68620557890245,88.14728662783455 88.43859380970025,88.22040954794647 87.46052732134922,88.11072511580642 85.84692395872116,87.79733930547081 85.65708826900664,87.90180152512767 85.39709591133942,87.8130086564488 84.89361864728562,87.3272558162862 84.85647688190875,86.83627361135586 84.71616354603975,86.6012267267979 84.2704623614627,86.3191685747297 84.14252961405509,86.08934188884814 83.79999999999927,85.7759396557667 84.12189529994794,86.05277842619762 84.28696981275061,86.31394525617361 84.79457393961638,86.6691293072181 84.86473060756543,87.25935439435852 85.38884218570092,87.78689306794695 85.58693160106486,87.8861322102166 85.88819258692456,87.78689306794695 87.6256018341519,88.10550203981984 88.5087504776493,88.19429423523252 88.84302636606662,87.94358633377851 89.09063813526154,87.86001667120217 98.61131066105372,86.26693535727463 98.82178066487904,86.3243918925873 99.71318303399676,87.01908686470779 100.36935422238457,86.96163136416726 100.68712265953218,87.18100645129743 100.82743599541209,87.12877440085867 100.90997325180433,86.99819396532621 101.2194879633098,86.88850605787593 101.53312953763452,85.96920466712618 102.07374856705064,85.4938754687937 102.66801681314973,85.5356628859081 102.870233091322,85.97965139693042 103.65433702712107,86.30872193690448 103.92258311042679,86.26171203164267 104.59938861292903,85.84906707125265 106.74123041650819,85.48865203847527 108.45387848682003,85.23270308615247 109.6589224302661,85.36851294583175 109.84875811999154,85.39985361477375 111.2890332441857,86.14679868870007 111.85028658769806,86.53854731570027 112.74168895681942,87.35337171597348 113.95498662590035,88.95163112580485 114.9124188001515,90.38269610765929" stroke="#4dd2ff" stroke-linecap="round" stroke-linejoin="round" stroke-width="0.5"><title>2022-10-15 16.0km</title></polyline><polyline fill="none" points="152.1999999999971,92.25195839904336 151.71149318872995,91.68797526399794 151.46295463562637,91.21617558069556 148.81901864832253,87.58801304207009 147.68345456949828,86.55753326500053 147.02782700700845,86.14533393068268 145.77227879909697,85.54872211740803 145.38233037956888,85.46194147694405 145.1680730062144,85.49448423915237 144.4438830842446,85.34804160095882 143.5868535907939,85.4673652724814 142.8326676365541,85.6734689586774 142.33987567781514,85.66262142268897 142.02277476523886,85.81991040698995 140.38584843275385,86.01516483847809 139.73450601772493,86.41109451363809 139.34884274566866,86.51414406116601 138.65036370849703,86.2971973368767 138.50038354714343,86.13991022694245 138.33326279592075,85.70601154900942 137.68192038090274,85.64092634190092 137.16341753735833,86.13448652249645 136.88916809944567,87.02396423780374 136.38352069830944,87.28971899093449 136.12212670281224,87.27344834242831 135.99357227879227,87.15955361787564 135.26509720936883,87.24090702560716 134.33093506149817,86.52499136653205 134.00954900145007,86.46533115065904 124.47081073931622,88.05985545952353 124.08086231979541,88.14663047142676 123.60521095093281,88.46118831374406 120.9227086364117,88.03816167717014 120.65274434597086,88.11951330040392 120.39135035047002,88.01646788308062 119.88141780186561,87.54462495451298 119.79999999999927,86.93718679367521 119.8428514746629,87.39818981201097 119.94569501388105,87.59343654970507 120.15995238723917,87.72902400203384 120.3484988758064,87.97850371511959 120.6098928713036,88.09781955036306 120.91842348894716,88.0110444327147 123.54950403384646,88.43949474874171 123.77233170214458,88.37441398328883 123.9951593704427,88.16832419503407 124.38082264250625,88.05985545952353 128.41743155667064,87.41446040983283 128.9359344002114,87.2354834702237 134.0695410659864,86.45990749026896 134.33093506149817,86.50329675285684 135.25652691441792,87.21921279970411 135.41507737071515,87.26260123977045 136.010712868665,87.17040074845863 136.28924745403128,87.41446040983283 136.52921571220213,87.1812478760985 136.8420314773175,87.04565856946283 137.15056209494287,86.1236391113489 137.5919322840782,85.7005877857955 137.85761142706542,85.64635011319479 138.3461182383253,85.71143531150301" stroke="#4dd2ff" stroke-linecap="round" stroke-linejoin="round" stroke-width="0.5"><title>2022-10-05 12.1km</title></polyline><polyline fill="none" points="188.20000000000073,91.88949987725937 185.49260273972322,88.0290203403274 184.23372353673403,86.92084674129728 183.34201743462472,86.34887343344599 182.42206724781863,85.88924573901022 181.058281444577,85.76157038527163 180.21902864258664,85.95563675211815 179.37574097135075,86.03224162203333 178.92787048568061,86.17012999572398 177.55198007472063,86.34887343344599 177.21708592777577,86.44590523059742 176.73693648817425,86.74721290413072 176.47870485678504,86.80849552617292 175.7685678704911,86.62464736128095 175.40946450810225,86.05777654407211 174.86879202988712,86.00159969273955 174.3482938978741,86.51740218452323 174.11830635118167,87.05362501856507 174.10216687421416,87.273218835835 173.5857036114685,87.65112148137632 173.25484433375095,87.45195704553771 172.60119551682146,87.51834530767883 171.8022914072244,86.90041927252969 171.44722291407015,86.76764045588425 166.84343711084148,87.5132385224315 166.2220672478179,87.71750939292178 166.10909090909263,87.68176207045326 162.42122042340998,88.27924858211918 162.0459775840609,88.371168743819 161.78774595267168,88.59075488988674 161.52951432130067,88.64692788470347 159.01982565379512,88.23839510502876 158.89877957659337,88.34563538803195 158.59212951433074,88.2537151641227 158.07163138231772,87.75325668150617 158.0554919053502,87.38556866654835 157.97479452055268,87.18640282834531 157.45429638854694,86.7727473420855 157.21220423411432,86.39994283148553 156.82485678704325,86.1445951497335 156.63118306351316,86.20077178806605 155.88876712328783,85.91988775957725 155.79999999999927,85.74624931377184 155.9008717310171,85.91988775957725 156.4334744707303,86.06799050806876 156.61907845579844,86.1956648243904 156.8611706102056,86.13948817847267 157.20413449563785,86.39483589480005 157.4704358655108,86.7625335689736 157.97882938978728,87.1353344952804 158.12408468244394,87.78900393622462 158.60019925279994,88.23839510502876 158.85036114570175,88.33031536627459 159.02386052304064,88.21796834987617 161.54968866750278,88.61628807972374 162.13474470735673,88.29967530407521 166.13330012452934,87.64601471410788 166.83536737235409,87.45195704553771 171.2858281444569,86.75742668137173 171.52388542965127,86.74210601445884 171.7336986301416,86.82381616612474 172.56084682440996,87.47238421556904 173.24677459526356,87.42131626976334 173.52518057285488,87.65112148137632 173.76727272727658,87.44174345637293 174.05778331258261,87.31918017067437 174.34022415940126,86.44079830012925 174.84458281445768,85.99649270211012 175.46998754670494,86.03224162203333 175.70400996263197,86.54293677808528 175.7927770859278,86.51229526374664 176.10346201744323,86.69614397634723 176.4383561643881,86.7727473420855 176.72079701120674,86.70635776743438 177.39865504359113,86.31312481367422 179.15785803237304,86.07309748901389 179.33942714819204,85.98117172605271 179.81150684932072,85.95563675211815 180.8363636363647,85.73603526264924 181.32054794520081,85.71050012274281 182.45838107098461,85.8739247193771" stroke="#4dd2ff" stroke-linecap="round" stroke-linejoin="round" stroke-width="0.5"><title>2022-10-02 14.7km</title></polyline><polyline fill="none" points="44.20000000000073,133.1287236306598 43.189239920688124,131.7032412295157 42.97081295439784,131.55147585543455 42.40975545274705,130.6137698934508 40.9321612690037,128.57025365204754 40.563833443487965,128.16912681129907 39.63873099803095,127.3397572186841 38.62797091870743,126.62962972990135 38.460938532731234,126.64047146563098 37.72000000000844,126.28811355083599 37.11611368143713,126.18511603608931 36.285234633178334,126.10922296088756 35.308737607410876,126.32605993683683 32.357832121611864,126.78141376312487 31.62545935228991,127.17171292019702 31.347072042306536,127.22592083549534 30.52475875743039,127.00908873388107 30.254937210847856,126.44531977296356 29.681031064108538,126.39653170112433 29.141387970918004,126.87898890914585 28.811606080642377,127.76799595123157 28.46469266357599,127.94145843801743 28.374752148047264,128.07155480985966 27.94646397885299,127.91977566828427 27.222656972895493,127.99024462701709 26.216179775285127,127.23134162298084 26.04486450760305,127.19881688701207 16.742445472576946,128.75455382591463 16.052901520153682,128.9280120380572 15.568935888961278,129.2044595102634 12.823608724393125,128.75455382591463 12.605181758095569,128.87922699185583 12.301097157967888,128.7437126627192 11.855677461997402,128.31006372686534 11.799999999999272,128.1637061507936 11.825697290154494,127.75173380456545 11.88565763384031,128.2829605124025 12.47241242565724,128.77623614353797 12.630879048258066,128.81960074355084 12.845023132853385,128.7166097418376 13.46604097819727,128.87380642748758 15.564653007273591,129.17735690130576 16.040052875086985,128.846703594696 16.348420356909628,128.78165672111572 26.06627891606331,127.16087132832399 26.288988764048554,127.19881688701207 27.18411103768085,127.92519636181532 27.359709187057888,127.96856188369202 27.976444150695897,127.87641009355502 28.053536021154287,128.02276871996582 28.25483146067927,128.10407883676453 28.460409781888302,127.91977566828427 28.83302048909536,127.75715452084842 29.072861863853177,126.90067224263476 29.62107072042636,126.3748480945651 30.30204890945606,126.39653170112433 30.541890284202964,126.8952514103621 31.278545935230795,127.19881688701207 31.552650363515568,127.16087132832399 32.19508261731244,126.77599291469596 32.696179775277415,126.64047146563098 34.267997356251726,126.45616155861353 35.00037012559187,126.28269263562834 35.381546596170665,126.27185080297568 35.856946463991335,126.11464389962566 36.345194976871426,126.07127636933728 37.758545935234,126.2176415956892 37.89988103106225,126.15801138290044 39.66442828816798,127.31807412302442 40.89361533378178,128.42931765248068 42.105670852608455,130.07715371147788 43.65607402512251,132.3644979314886" stroke="#4dd2ff" stroke-linecap="round" stroke-linejoin="round" stroke-width="0.5"><title>2022-10-01 15.4km</title></polyline><polyline fill="none" points="80.1119764545947,134.25126063549396 74.22173420876061,126.09117665224039 72.21186325558665,124.2529349792967 70.97219832465635,123.44520714321698 68.95499207606917,122.47963494407304 66.71772696400149,122.09897293589893 64.72986189721269,122.63746979099233 63.204120443726424,122.72102926874504 62.42657912609138,123.03669748779066 59.59515508264303,123.36164854809613 58.56821371970727,124.03011445773882 58.032737151908805,124.19722991679009 56.74172515283135,123.81657744506083 56.16957210775581,122.7953042745794 55.076613085810095,122.70246050471178 54.262395290912536,123.48234426392446 53.67557165497419,125.11635766062682 52.72198324654164,125.69196674094565 52.20851256509923,125.30203853710555 50.990853520495875,125.45058287626307 49.20104143083881,124.03939866060682 47.80000000000291,124.2529349792967 49.14969436269166,124.0765354594696 50.96884763416165,125.38559476748924 52.21584786053427,125.30203853710555 52.72198324654164,125.70125071877555 53.132759791718854,125.32989062522392 53.734254018556385,125.04208516925428 53.79293638215313,124.55931201404746 54.21104822278721,123.49162854096357 55.098618972173426,122.70246050471178 56.19891328954691,122.7117448873687 56.6316957210729,123.62160828739434 57.94471360652096,124.10438804539444 58.52420194703154,124.02083025362663 59.807878650673956,123.26880554517265 64.48779714737611,122.48891935690335 65.13330314694758,122.49820376846037 66.49766810052097,122.17324861566885 68.96966266696836,122.47963494407304 71.44899252886535,123.74230354560859 72.51994566447684,124.4943230604622 74.26574598143634,126.11902841981646 80.04595879554108,134.11201819904818 80.20000000000437,134.4926135222122 79.99461172741576,135.02173034007137 78.9676703645091,136.265602920721 77.96273488793668,137.10102706409816" stroke="#4dd2ff" stroke-linecap="round" stroke-linejoin="round" stroke-width="0.5"><title>2022-09-29 10.1km</title></polyline><polyline fill="none" points="116.19999999999709,132.74346792385768 115.68684927950744,132.1259979979077 113.42814487862051,128.88944529066066 112.87713877710121,128.31450345582198 112.21677268596613,127.75552416660503 111.43863429833436,127.2338029927123 110.37447747631813,126.7014273107743 109.68887446449662,126.5523608278927 109.60054524212319,126.60559892238234 108.96120991821954,126.45653207614305 107.8129300272667,126.74934141738049 106.95066857068741,126.78660790435242 106.51322861224617,126.9409972598005 105.16725950928958,127.10603348652512 104.85179800077458,127.17524202058485 104.27976113202385,127.54790126354419 104.01897961833674,127.59581433849235 103.23663507724996,127.35624837978321 102.92537972218634,126.79725546557893 102.32810593276736,126.76531277326285 101.83598597948367,127.2338029927123 101.53314293133008,128.10155990181374 101.01157990393767,128.47421036443484 100.649850707523,128.24529692727447 100.09463845255596,128.3517684591825 99.06833701155483,127.62775635602156 98.80334934441635,127.55854861857733 89.44465792547635,129.11303151141328 88.96936258600181,129.2195006934453 88.50247955341911,129.5122894574124 86.57606127482723,129.25676483903953 85.81474750098278,129.07044375787518 85.69276905101287,129.1875599691084 85.57499675451254,129.18223651252993 85.3184213942659,129.07576722958402 84.87677528235872,128.66053427118095 84.75059067894836,128.0110585421171 84.18696611709674,127.54257758495078 84.06078151369366,127.28704016438132 83.79999999999927,127.06876730234217 84.05236920679454,127.26574530436483 84.21220303779046,127.53193022556661 84.72114760483964,127.87264429488641 84.83471374789951,128.13882510702388 84.86836297546688,128.56471065799633 85.3436583149487,129.04382638847892 85.60023367519534,129.1609426790019 85.83577826820692,129.0651202854351 88.48986109307589,129.50164263147963 89.03666104115109,129.171589597212 98.72763858237158,127.55322494141365 99.04730624432705,127.53725390561885 99.90115539399994,128.2772384171294 100.11566921978738,128.33579774778627 100.65826301441484,128.23997334311935 100.98634298325123,128.4529161474311 101.54155523822192,128.08558908877603 101.79813059846492,127.2338029927123 102.36596131378246,126.74934141738049 102.96323510321236,126.76531277326285 103.03473971179483,127.03150108282352 103.2450473841418,127.28171645045222 103.64463196157885,127.4786933855139 103.98953654420984,127.54790126354419 104.24611190445648,127.50531181455153 104.80132415942353,127.15927083122733 105.27241334545761,127.01020608440012 108.75931455276441,126.47782737449234 109.55007140075395,126.55768464058929 109.65101908348151,126.5097703003994 110.24829287290777,126.61624653262697 111.4218096845434,127.20718437982941 112.263040373884,127.75020051612955 113.23466182007542,128.6339166242833 113.67630793198259,129.1502957579214 115.29147085551813,131.44464061989493 115.69526158639928,132.1259979979077 116.07802155005629,132.58377835529245" stroke="#4dd2ff" stroke-linecap="round" stroke-linejoin="round" stroke-width="0.5"><title>2022-09-24 16.0km</title></polyline><polyline fill="none" points="152.20000000000073,132.92245049669145 151.39690831556436,131.895185319976 149.06535181236904,128.56732231737988 147.84344349680396,127.49622757899851 145.9825159914726,126.45789431890807 144.49722814498455,126.27754950330927 143.47393390191792,126.54533393939346 142.5542643923327,126.5890536785846 142.16135394456796,126.7366074486672 140.52926439233124,126.93880988700403 139.88592750532916,127.32681713406055 139.45847547975427,127.41971972417741 138.71151385928533,127.15740597797412 138.44813432835508,126.59998360596 137.8177505330641,126.56719381490257 137.3125799573536,127.06996768367026 136.99738805970992,127.96620121938759 136.6562899786877,128.12467946885226 136.45767590618925,128.31594549289366 136.34973347548657,128.30501603022276 136.11226012792758,128.09189091656663 135.40847547975136,128.173862247324 134.4715351812374,127.47983305088201 134.13475479744739,127.39786031044423 130.13656716418336,128.02084896190354 128.61242004265296,128.3378044093406 124.52787846481442,128.98810175875042 124.04429637526118,129.11378827346925 123.85000000000946,129.31051420635413 123.58230277185794,129.39248306204172 122.36902985075358,129.25040360637286 120.90964818764041,128.94984926353936 120.70671641791705,129.05914201081396 120.49514925374024,129.01542494743262 119.89498933902723,128.48535178577004 119.79999999999927,127.85144071922332 119.92953091685558,128.47988707775585 120.39584221749101,128.91706138165318 120.65922174840307,129.03728348504592 120.88374200426551,128.91159673208313 123.63843283583265,129.37062471681202 124.19973347548876,129.02635421770538 128.539019189775,128.33233968134664 130.07611940299103,127.98259554991091 134.35927505330255,127.34867658627627 135.36098081023738,128.12467946885226 136.18134328359156,128.09189091656663 136.28928571429424,128.56185762045425 136.14248400854194,128.58918109769002 136.07340085287797,128.39791636857262 135.96977611941475,128.37059276183936 135.611407249482,128.44709881404924 135.51641791045404,128.55092822437655 135.48187633262933,128.50721061049626 135.43006396589044,128.3214102231177 135.49914712154714,128.27769236058884 136.11657782516704,128.16293274617783 136.33246268656876,129.12471751711928 136.7944562899902,129.09739440243357" stroke="#4dd2ff" stroke-linecap="round" stroke-linejoin="round" stroke-width="0.5"><title>2022-09-22 12.2km</title></polyline><polyline fill="none" points="188.20000000000073,132.9239090059491 184.9066371681438,128.4283197334007 183.7955752212365,127.41522522025844 183.07079646017883,126.95655147226353 181.95176991150583,126.47266974334707 180.72522123894305,126.31137443576154 179.78539823008396,126.54323622061202 178.93318584071676,126.59868121604086 178.42345132743867,126.77509656110851 177.01371681415912,126.95655147226353 176.42433628318759,127.2992972242937 176.0738938053073,127.38498316915866 175.38097345132337,127.15816700274081 175.14203539822483,126.63396435194227 174.5765486725577,126.58860031392396 174.0986725663679,127.01703624607035 173.8716814159343,127.53115285515742 173.8159292035307,127.84869191922189 173.4615044247803,128.04022210848052 173.33805309734817,128.19646969082896 173.1946902654854,128.18134898571225 172.97964601770218,127.98981952264148 172.44203539823502,128.08558437736065 172.28672566370733,128.0553428709136 171.4185840707978,127.40010419778628 171.239380530973,127.34466039614927 167.04601769910732,127.9999000452699 166.12610619468978,128.2065501574907 162.2075221238847,128.8416140538393 161.9048672566314,128.91217604021222 161.61017699115473,129.14906173042618 161.419026548665,129.18938254883687 159.8261061946905,128.98273789280574 158.92212389380074,128.7760920896144 158.79070796460292,128.88193520528512 158.47212389380365,128.8012928587341 157.97433628317958,128.29223401390118 157.91460176991313,127.7277249761355 157.41681415928906,127.38498316915866 157.22964601769854,127.07248053573858 157.02654867255842,126.8960666001658 156.80752212389416,126.73981355899014 156.5646017699146,126.78013698723589 156.0548672566365,126.54827667814607 155.89159292034674,126.54323622061202 155.79999999999927,126.37186025802293 155.79999999999927,126.64404524177371 155.84778761061898,126.52307438360731 156.01106194689783,126.52811484388076 156.55265486724966,126.77005613427536 156.7637168141482,126.71461139413077 156.9907079646,126.83054121114401 157.30530973450004,127.12288436374365 157.41283185839347,127.34970074516241 157.9305309734409,127.67732196715588 158.04601769911096,128.3577568298242 158.49203539822702,128.7760920896144 158.72699115042997,128.85673449074602 158.95398230088176,128.73073066218421 159.53938053097954,128.90713590275482 161.45486725663432,129.17426224705196 161.92079646017737,128.8970556258064 162.31504424777813,128.79625270627002 171.05221238937884,127.33457969607116 171.48628318584088,127.40010419778628 172.3026548672533,128.03518185296343 173.01946902654163,127.97973899728095 173.0632743362803,128.08558437736065 173.2942477876095,128.18134898571225 173.81194690264965,127.85373219999747 173.82787610619562,127.59667701082799 174.05486725662922,127.0422382061588 174.5566371681416,126.58355986183233 175.15796460176716,126.58860031392396 175.39292035398103,127.07752092160445 175.50840707964744,127.07752092160445 175.83495575221605,127.28417615471335 176.16548672566933,127.34970074516241 176.41637168141824,127.29425686844479 177.12123893805983,126.86078371272015 180.77300884956276,126.27609099405163 182.10707964601534,126.43738645454141 183.57256637167666,127.21865144892217 184.9384955752248,128.38295788218238 185.83053097344964,129.5976283755881" stroke="#4dd2ff" stroke-linecap="round" stroke-linejoin="round" stroke-width="0.5"><title>2022-09-17 16.2km</title></polyline><polyline fill="none" points="44.19999999999709,173.7013133383589 40.93294030949619,169.1838532803522 39.858511422255106,168.2168340215503 38.103610906404356,167.27497338739704 37.57833456153094,167.15912791889787 37.49874723654284,167.20949555823609 36.818275607951364,167.09868666164402 35.84333087692721,167.34045110129227 35.06735445836239,167.38074502179006 34.60574797346271,167.53184683484142 33.09756816506342,167.72324158345145 32.41311717021745,168.13121131309163 32.09078850404694,168.1966875196449 31.44215180545507,167.95996530486445 31.13971997052795,167.4109654334934 30.622402358145337,167.36563480671975 30.10906411200631,167.8541953176682 29.882240235801873,168.39311544773227 29.85040530581682,168.63487147363412 29.508179808388377,168.8212240044886 29.33706705968507,168.99750256627885 29.23360353721364,168.99246604753716 29.01473839350365,168.79100473859216 28.358142962417332,168.8665528573256 27.530434782602242,168.2218706453168 27.21606484892618,168.13624794846328 18.377892409727792,169.61195273618796 17.964038319823885,169.71268130388125 17.518349299934926,169.99471984230695 14.967575534272328,169.58173411268945 14.844215180546598,169.68246276221544 14.53780397936498,169.5968434275128 14.040383198236668,169.1183788115195 13.956816506994073,168.5391765679342 13.435519528375153,168.14632121713657 13.212675018428854,167.79375518993402 12.862490788505966,167.54192026720193 12.615770081072696,167.57214054795986 11.859690493743983,167.2648998827317 11.799999999999272,167.1238705307769 11.907442888728838,167.31023063227985 12.392925571111846,167.4260756301519 12.623728813559865,167.5620671237739 12.898305084752792,167.53184683484142 13.292262343402399,167.84412196986523 13.435519528375153,168.11610140290577 13.921002210754523,168.4334082278292 14.02844509948045,168.65501773820142 14.04834193073475,169.09319629281526 14.494030950630986,169.55151546464185 14.804421518056188,169.67238990954502 14.983492999264854,169.55151546464185 15.954458364034508,169.76304548545158 17.52232866617851,169.96953791688793 17.952100221074943,169.68246276221544 18.369933677222434,169.5918069899235 27.29167280765614,168.12617467705422 27.478703021370166,168.17654100682557 28.35416359615556,168.8564797836807 29.00677966101648,168.78596819187806 29.325128960936127,168.99750256627885 29.504200442144793,168.82626054642606 29.838467207075155,168.67516399184024 29.86234340457304,168.41829844041058 30.105084745762724,167.82901194305305 30.598526160640176,167.38074502179006 31.21134856300705,167.40592869991815 31.45806927044032,167.9146353471806 32.1663964627769,168.16143111505517 32.43699336771533,168.10602812603975 33.07369196757281,167.71820489216407 35.580692704501416,167.2699366354027 36.046278555626486,167.25482637532332 36.774502579206455,167.10372343683048 38.08371407516097,167.2346793523211 39.532203389822826,167.97507527847483 40.58275607958058,168.80611437460902 41.81635961678694,170.28179258710588 42.46897568163695,171.28904785186023" stroke="#4dd2ff" stroke-linecap="round" stroke-linejoin="round" stroke-width="0.5"><title>2022-09-11 16.4km</title></polyline><polyline fill="none" points="80.20000000000073,173.78613896486422 79.0734756487218,172.32904605702788 77.81027738719422,170.43683997238622 76.88255145084986,169.19977990709594 75.73946056499699,168.15139297393034 75.16791512207419,167.80017700232565 73.96269973155722,167.19733618945975 73.35802121947563,167.09773549930833 72.57525246069417,167.01386103513505 71.59782692062072,167.26024175647763 70.74050875622925,167.3126629842336 70.14825514507538,167.4751683391114 68.85606544802795,167.63243093623896 68.49160168732851,167.7582405539397 67.9780391154236,168.09373086885535 67.72125782947114,168.13042494566253 67.01718010992408,167.91550200108395 66.71484085388875,167.3388735714725 66.12672887638473,167.30217874435039 65.8243896203494,167.5275892758218 65.59659976990588,167.815903158742 65.33981848394615,168.6074447788851 64.78483957560456,168.98486289938228 64.47421705227316,168.76470277626868 63.75771443179838,168.8380896230883 62.99979547486873,168.22478098342617 62.67674805062052,168.0727628093664 57.71507094463959,168.86429917751593 56.99442669052587,169.06349121133462 53.39534705355254,169.60340130690747 52.96461715453552,169.69251195795368 52.529745621883194,170.00177674393126 50.85238399590526,169.80783131955468 49.85010865395816,169.57195043992397 49.67616004089359,169.69251195795368 49.35725425027704,169.5824340650761 48.88924964846592,169.11590999726832 48.87268311388107,168.6860738574287 48.78570880735424,168.49212184148564 48.30113767096918,168.1409089612207 48.01536494950051,167.7320302506414 47.882832672879886,167.62718885996583 47.79999999999927,167.65339923425563 47.85798287100988,167.58525222418393 48.160322127052495,167.84735545242438 48.2762878690919,168.08324684053514 48.74843410455651,168.37155658503616 48.88510801481607,168.6703480545002 48.914099450335925,169.09494249140334 49.377962418508105,169.57195043992397 49.62231880352556,169.6820283626039 49.89980825769817,169.57195043992397 52.48004601815046,169.99129323232046 53.0681579956472,169.64009395276298 62.63947334781551,168.05703675727273 62.83827176275008,168.1094569060333 63.74114789722444,168.79615429907426 63.931663044862944,168.8380896230883 64.47007541863422,168.73849315440748 64.64816566533773,168.9586534265618 64.79726447653957,168.99010479180652 65.29840214750948,168.64938030732446 65.59245813624875,167.74251437408384 66.089454173587,167.29693662335558 66.71069922024981,167.28121025609653 66.93434743704347,167.815903158742 67.02960501086636,167.79493494875715 67.34851080148292,167.97840640106006 67.737824364056,168.0780048253 68.02773871915633,168.02034261091467 68.70696663683702,167.58525222418393 69.2578039115433,167.5328313655773" stroke="#4dd2ff" stroke-linecap="round" stroke-linejoin="round" stroke-width="0.5"><title>2022-09-10 13.4km</title></polyline><polyline fill="none" points="116.19999999999709,173.76764499165438 113.04682651622352,169.34593527350808 111.87529170406196,168.2680343461907 111.5263238876687,168.04193425775156 109.99335812283607,167.23742791784753 109.64023592768353,167.15855385005125 109.36189255032514,167.17958695046764 108.601641236055,167.03235500834853 107.26393127324263,167.3268183343098 106.52029747403503,167.3846590823814 106.34165918707004,167.50559854989115 104.75884087703525,167.68963614726817 104.01520707782765,168.11554838457232 103.70362867034419,168.1681298182957 103.02231055262746,167.9209964607071 102.74396717526542,167.3741425891276 102.14573663289411,167.3268183343098 101.62643928708712,167.8316074121176 101.37717656109453,168.40474538889976 101.33978715219928,168.6729079592551 101.03651750223798,168.8096175765313 100.81218104884829,169.0199391248534 100.47567636875829,168.8096175765313 99.76112322091285,168.8569400242195 98.91778433132276,168.20493677952982 98.66021284779708,168.11029023729498 93.76635466086009,168.88848829064955 90.61733555583123,169.4826425213796 89.42502884985151,169.63512311470913 88.98051032183503,169.75079764818656 88.61077061160904,170.0136930337285 88.4404410821844,170.05575613026303 85.8938068983116,169.64038105552754 85.60715476342375,169.73502386845212 85.36204641619406,169.63512311470913 84.88844723681177,169.18819554331276 84.77212463135584,168.54671403918474 84.25282728553793,168.1681298182957 84.06172586228422,167.8578983301195 83.79999999999927,167.65282869757357 84.09080651364638,167.82634922638317 84.2362097704754,168.0892576410224 84.73473522246059,168.39422917193224 84.84690344915725,168.59929488905982 84.90506475188522,169.125099471843 85.41189896139258,169.62460723093682 85.6694704449219,169.69821835749826 85.86057186817925,169.58254366740584 86.48372868316073,169.73502386845212 88.43628670342514,170.00843514346707 88.59830747531669,169.97688778689553 89.01374535196737,169.69821835749826 98.58958840877676,168.0839994901762 98.90947557378968,168.13658096660583 99.79020387227865,168.83590783237014 100.54630080779316,168.77806924604374 100.64600589818656,168.95684277997134 100.79556353377848,169.01468110003043 100.98251057827292,168.83064978263064 101.33978715219928,168.6466175930509 101.6056673932435,167.77376732983976 102.02941402743818,167.3741425891276 102.1789716630301,167.32156008022503 102.75643031157233,167.35310959412163 103.01400179510529,167.8421237814582 103.75348121553543,168.12606467701335 104.10244903192142,168.03141794252952 104.7962302859305,167.631795853511 108.55594306961939,167.0428715941489 109.39928195922039,167.09545448047356 110.03490191049423,167.2163948487687 111.06934222335985,167.73170176133863 111.73404282600313,168.14709725334978 112.51922041287617,168.8043595232375 113.17561225798272,169.49315844359808 115.97981792537757,173.41539881994322" stroke="#4dd2ff" stroke-linecap="round" stroke-linejoin="round" stroke-width="0.5"><title>2022-09-03 16.2km</title></polyline><polyline fill="none" points="150.43025210083943,174.79337069135 150.68189457600602,174.4697116325442 150.91291061879383,174.35486421688984 151.68846447669785,173.61878856978728 151.98961038961352,173.27945818622175 151.95660809777473,173.21159175126013 152.1999999999971,173.0027712023184 148.95339954162046,168.4345387764588 147.67868601985174,167.2388777353808 146.83712757831017,166.72718613599136 145.80580595874562,166.21548774596522 144.40733384262785,166.0484010866203 143.41726508784632,166.27292361787113 140.65332314744228,166.67497232566893 139.9974025974043,167.06657417960741 139.70038197097165,167.15533671358935 138.95370511840156,166.92559797036665 138.64430863253438,166.39301652814174 138.0750190985491,166.32513797264983 137.54285714285652,166.82639218081022 137.26233766233418,167.67224388111572 136.9570664629391,167.79755366606332 136.75905271199736,167.99595999271696 136.64766997708648,167.99073878666604 136.40840336133624,167.78711119953732 135.6988540870807,167.8602084058184 134.87792207791063,167.22843511755127 134.53964858671316,167.11356613481257 124.92773109243717,168.72170075395843 124.65546218486998,168.98275524144628 124.49457601222821,169.03496592686133 122.36592818946156,168.7425851780099 121.84614209320716,168.6016150962605 121.72238349885083,168.71125853770718 121.4047364400285,168.61205734219402 120.91382734911167,168.15781702939785 120.88082505729108,167.67224388111572 120.74056531703172,167.42162308953266 120.3321619556882,167.16055803274867 120.06401833461132,166.78984261505684 119.79999999999927,166.596651477641 120.14239877768705,166.85249899228074 120.32803666920881,167.16055803274867 120.79419404125292,167.47383588876983 120.87257448433593,167.61481009358613 120.92620320855349,168.1421534748879 121.39648586707335,168.61205734219402 121.72238349885083,168.71125853770718 121.89564553093805,168.6016150962605 124.46569900687246,169.02974486150924 124.89885408709233,168.7530273857701 125.15462184873104,168.67471075853246 134.58090145148526,167.10312348306616 134.8490450725658,167.17100066895728 135.69060351413282,167.83932350388932 136.44965622611926,167.78711119953732 136.6270435446968,167.99595999271696 136.77967914437977,167.99595999271696 136.91168831168397,167.83410227662898 137.2870893812069,167.63047386231483 137.3200916730275,167.34330375809077 137.55935828875954,166.7637357611493 137.96363636363094,166.38257368122504 138.18227654698785,166.32513797264983 138.64843391902468,166.3512451235256 138.9454545454464,166.88904849864775 139.47761650113898,167.10312348306616 139.74576012223406,167.12923010715167 140.731703590518,166.63320122651567 143.88754774635527,166.1006157454467 144.51046600458358,166.00662930864928 145.21176470588034,166.1423874216016 145.8800611153456,166.17371614900912 146.2265851795346,166.41912363306255 147.23728036668763,166.88904849864775 148.01283422460256,167.47383588876983 148.65637891519873,168.06905680309137 149.4236822001476,169.008860592985 151.72971734148814,172.3084347473632" stroke="#4dd2ff" stroke-linecap="round" stroke-linejoin="round" stroke-width="0.5"><title>2022-09-01 16.9km</title></polyline><polyline fill="none" points="188.1999999999971,173.78433597609182 184.81851709564944,169.11623169529048 183.83104110640124,168.22875573470083 183.18793699576054,167.8769105307838 182.92654629273238,167.6405947958301 181.951517479818,167.19946823755163 181.35820207452707,167.10494046505482 180.57402996542078,167.01566402390745 179.5533615059394,167.2729896790661 179.2919708029185,167.24148050690565 178.623972339592,167.3412594642432 178.24640799076587,167.48830167023698 176.8191317710298,167.61958888302615 176.04740683826094,168.076464918875 175.73622742987573,168.1499846977349 175.04748367267166,167.91892206624834 174.7404533230947,167.35701401295955 174.10564733000137,167.31500186877747 173.62435651171108,167.78763586682908 173.3795620437886,168.36529181977312 173.33807145599712,168.64361388912585 172.99369957740782,168.81165643562053 172.80284287359973,169.00595472233908 172.4916634652327,168.77489719079313 172.051863234723,168.86942089281365 171.63280829810537,168.75389189238922 170.88597771800778,168.17099032324404 170.6287360737515,168.08696775294447 161.35973876295975,169.64135583606912 160.96972723779618,169.7253750387572 160.67514406452756,169.977431554762 160.46354206683827,170.0404454277923 159.0279677295366,169.85665467859144 157.8288897425955,169.5835925286192 157.6380330388056,169.70962145211888 157.32685363042037,169.59409495456566 157.12354975027483,169.33678470043378 156.90779869381004,169.20550330084734 156.82481751823434,169.0164573047041 156.84141375335093,168.68037325839032 156.7293891663394,168.43881105108449 156.24809834804546,168.11847623814174 156.08628505570232,167.84015039992664 155.79999999999927,167.6143374030471 156.11117940835902,167.84015039992664 156.2356511717262,168.09747058420544 156.75428351901064,168.44406241942488 156.8953515174726,169.11623169529048 157.35589704186714,169.59934616646206 157.61313868612342,169.7043702551564 157.83303880137828,169.55208523374313 158.49688820591473,169.7306262328857 160.46354206683827,170.01418965980338 161.09419900114517,169.6623606537978 170.64118325008167,168.09221916893148 170.89842489434523,168.12897906084618 171.7987706492495,168.84841564560338 172.4667691125578,168.769645867269 172.6451786400212,168.9534417678624 172.8069919323898,168.97969825399923 172.98125240107038,168.80640511707315 173.31317710334042,168.6593679087855 173.5787168651441,167.84015039992664 174.13054168265808,167.30449882562243 174.70726085284696,167.2992473029699 174.9935459085682,167.82964749901294 175.084825201684,167.80864168860717 175.4374951978425,168.03445355407894 175.83165578178523,168.09747058420544 176.7112562427901,167.6300918408415 177.07222435650328,167.55657107636944 180.52424126007463,167.01566402390745 181.36235113329894,167.07343115635376 181.9017287744864,167.16270746451482 183.21283134843543,167.7981387791442 183.90987322320143,168.26551549719807 184.60691509796015,168.87467220284816 185.8018440261112,170.31875547573873 187.8639262389479,173.31702575809322" stroke="#4dd2ff" stroke-linecap="round" stroke-linejoin="round" stroke-width="0.5"><title>2022-08-28 16.3km</title></polyline><polyline fill="none" points="44.19999999999709,214.47217691954575 41.03112974841133,210.0925430626994 40.10004933399614,209.2428548500102 39.58455846078505,208.88375461605392 38.12599901332578,208.1250807975921 37.5785397138643,208.0138073416565 37.03507646769867,207.9278230804557 36.11998026641231,208.12002292042234 35.900197335970006,208.24141178344144 35.04104588061091,208.2919903598995 34.6334484459876,208.4133786640159 33.09896398620185,208.61063381672648 32.443611248148954,209.00514099690918 32.191859891467175,209.0708917884731 31.488554514064163,208.84329240142688 31.168870251611224,208.2919903598995 30.633399111990002,208.27681679416855 30.141884558455786,208.7269632902353 29.862160828812193,209.52608640191102 29.398618648261618,209.8750651820992 29.25076467686813,209.8750651820992 29.00700542674531,209.6778167069824 28.351652688699687,209.7334509977336 27.54444992599383,209.10123826862764 27.304686729163222,209.01525651082557 18.341539220517006,210.50220725908002 17.95392205229291,210.5881855940679 17.702170695607492,210.79048677807805 17.450419338925713,210.87646444949496 15.61223482980131,210.62864591852485 14.932905772078811,210.45668923692574 14.817020226939349,210.5578403219588 14.6651702022682,210.56289786902926 14.4294030587007,210.43140142285483 14.033793783910369,210.0520821575301 13.913912185496883,209.4299902232451 13.40641341884475,209.045603036182 13.07474099654064,208.5904025669406 12.79102121361575,208.4032629870635 12.583226443017338,208.4487835117252 12.047755303410668,208.22118033365768 11.89990133201718,208.1958910060348 11.799999999999272,208.28187465010342 11.835964479520044,208.1958910060348 11.991810557476128,208.20094887292726 12.583226443017338,208.43866784435886 12.830981746421458,208.39314730737897 13.090725209669472,208.5802869379586 13.378441045872023,208.95456338615622 13.933892451892461,209.36929777248224 14.041785890469328,210.016678829561 14.4893438579129,210.46680435774033 14.741095214601955,210.5578403219588 14.968870251599583,210.42634385799101 17.49037987173506,210.85623442697397 17.897977306365647,210.5730129610929 18.097779970394186,210.5173799208169 27.26472619635024,208.98490996082546 27.52846571287955,209.05571853915535 28.355648741984623,209.71827801757172 28.50749876665577,209.74862397174002 28.971040947224537,209.63735535255546 29.35466206216006,209.8649499010171 29.518500246675103,209.69298970358068 29.862160828812193,209.5362017747575 30.105920078931376,208.7269632902353 30.421608288106654,208.37797378274263 30.645387271841173,208.24141178344144 31.204834731128358,208.26670108023245 31.460582141091436,208.75225225827307 32.17587567834926,209.0253720220171 32.64341391218477,208.85846573704112 33.07099161322185,208.5802869379586 33.378687715845444,208.50441963316916 36.135964479522954,208.14531229942804 36.367735569809156,208.02898101425308 36.82728169708571,207.94805468913546 37.518598914663016,208.06438622635687 37.61050814011105,208.01886523320354 38.20991613222213,208.1351965498834 38.74938332511374,208.44372567838582 39.14898865318901,208.57522912243803 39.984163788860315,209.11135375653248 41.07109028120976,210.10265828211777 42.301874691664125,211.766574594556 43.79240256537378,213.98164300350254 43.90828811051688,214.04738503610497" stroke="#4dd2ff" stroke-linecap="round" stroke-linejoin="round" stroke-width="0.5"><title>2022-08-26 16.9km</title></polyline><polyline fill="none" points="79.73340070742779,213.35500470885017 78.21081354219132,211.20528512340388 77.13845376453901,210.00864189079948 76.64320363820661,209.5683092029467 75.87781707933391,209.08134715235428 74.76043456291154,208.54257340535332 73.42203132894792,208.37679534124254 72.73441131885193,208.51149007305867 72.46018191005714,208.65654540772448 71.60065689741896,208.6876286221559 71.19954522487023,208.84822482775053 69.62784234462015,209.02436182642487 68.9484082870149,209.4284377590957 68.62915613946097,209.49578333294266 67.94562910561217,209.257483077683 67.63865588681074,208.7031702198983 67.05745325922908,208.68244808816598 66.55401718039502,209.17977615177733 66.25932289034972,210.00346153570354 65.94825669530474,210.15887188359193 65.75997978778105,210.34018315824142 65.45300656897234,210.12778986452759 64.77766548762884,210.2210358459888 63.934512379997614,209.53722670407296 63.64800404245398,209.43361819207348 54.13592723598049,211.0343383816944 53.77983830217636,211.28816811715296 53.50151591713802,211.3451500712181 50.99252147549123,210.93073392407314 50.82061647296359,211.05505923955207 50.517736230409355,210.93073392407314 50.063415866599826,210.50595271452403 49.95699848408913,209.87395243020364 49.44128347649166,209.4698812031893 49.13431025770842,209.05544474199633 48.774128347642545,208.811961227344 48.56129358261023,208.8689468696939 48.04148559879468,208.6410037910282 47.79999999999927,208.6410037910282 48.237948458809115,208.66172594521413 48.549014653865015,208.83268328893973 48.757756442650134,208.7860586345887 48.958312278922676,208.87930788644007 49.29393633147265,209.17459568444247 49.4494694290006,209.45952034637594 49.89151086406491,209.7340821038306 50.03067205660045,210.03972400667772 50.08797372410845,210.52149357361486 50.54638706417245,210.92555369383263 50.791965639204136,211.02397794855642 51.041637190504844,210.894472297623 51.72107124811009,211.06541966428267 53.579282465889264,211.3347897222484 54.24234461848391,210.99289663230593 63.62344618494535,209.43361819207348 63.88130368872953,209.4906029083977 64.74492167761491,210.16405221766036 65.47756442647733,210.12260952555152 65.6044466902531,210.28838002458724 65.74770085901764,210.34018315824142 65.98100050530411,210.12778986452759 66.27569479535669,209.99310082339434 66.55401718039502,209.12279097245118 67.01652349672077,208.6669064820053 67.6591207680649,208.68244808816598 67.89242041435136,209.20567847794882 68.00702374937828,209.19013708434795 68.34264780191734,209.38699427013125 68.69873673572874,209.45952034637594 68.9443153107677,209.39735514657878 69.69332996462617,208.97255691099053 73.45068216271466,208.3664341883814 74.0769075290591,208.4700455907041 74.23244062657977,208.42342049438594 74.8300151591684,208.54775395829347 76.09474482062069,209.20567847794882 76.71278423446347,209.6304741249587 77.7032844871137,210.50595271452403 78.94754926731184,212.18432902100903 80.20000000000073,214.03356581161643" stroke="#4dd2ff" stroke-linecap="round" stroke-linejoin="round" stroke-width="0.5"><title>2022-08-21 16.1km</title></polyline><polyline fill="none" points="116.19999999999709,214.47945014582 115.75937616968076,213.96276062035395 113.0347847785415,210.10015472367377 111.95545851528732,209.11269673410425 111.27633187773245,208.68291421207323 110.12019962570412,208.10986324449914 108.74577666874029,207.96148255950902 108.18792264504373,208.06893069995203 107.85240174672435,208.2121944118735 107.04796007485857,208.248010254978 106.52244541484106,208.41685591515852 105.20865876481184,208.57546781769634 104.17379912663819,209.06664884058046 103.45020586400278,208.87222378254592 103.2723393636843,208.69314718607347 103.08234560200435,208.28382606412197 102.52853399875312,208.25312680122806 102.03940112289638,208.71361312577574 101.8008983156542,209.30200415122454 101.79281347473079,209.51689250236086 101.26325639426796,209.895502338004 100.91156581410542,209.67038343350214 100.26073611977336,209.7522450085089 99.37948845913706,209.08199814465115 99.0763069245113,209.01548444861328 91.41996257018764,210.3150385356712 90.47403618216049,210.40713122388843 89.63725514660109,210.61178083854247 89.44726138490296,210.81131314566665 89.22492825951849,210.8880560601683 87.43817841546843,210.65271062845204 86.64586400499684,210.44294498645831 86.48820960698504,210.58108346699373 86.22949469744344,210.49922368763873 85.70802245790037,210.00806128728436 85.70398003742594,209.59875440989708 85.6271740486518,209.4094484795496 85.10974422957952,209.03595021371075 84.9480474111042,208.759661449556 84.43466001247725,208.3810402321178 84.49125389893743,208.26335989163636 84.38210854647332,208.17126197818652 84.38615096693684,208.07916384024793 84.53572052401796,208.16614542085517 84.59231441048541,208.0893969777644 84.54380536494136,208.17126197818652 84.38210854647332,208.06893069995203 84.49529631940095,208.29917568623205 84.28509045539613,208.43220548320824 83.79999999999927,208.23266061210597 84.24466625077912,208.42197243854753 84.53167810356172,208.39127328788163 84.95208983156408,208.7187296089578 85.12995633187893,209.01036800561633 85.59483468496182,209.296887747023 85.70398003742594,209.5015433749577 85.77674360573656,210.03364281990434 86.29821584529782,210.50433992904073 86.49225202744128,210.56573477187703 86.69841547098986,210.42759623521852 87.28052401746754,210.59131592693666 89.19258889581761,210.87270748972514 89.35024329383668,210.8317779380959 89.71810355583148,210.55038607051756 99.13694323143864,208.94897063549797 99.34310667498721,209.01036800561633 100.2162694947001,209.69596519475454 100.41030567686175,209.73177963138733 100.93986275732459,209.6550343684503 101.21474734871299,209.8699207118516 101.72813474733994,209.56293984717195 102.01918902057878,208.68291421207323 102.46385527136226,208.26335989163636 102.65789145353119,208.2121944118735 103.09447286337672,208.2275440630874 103.40573923892225,208.759661449556 104.14145976293366,209.00525156192452 104.38804741110653,208.9438541834752 105.10355583280398,208.50895322996803 108.88726138490529,207.92054985418144 110.22126013723755,208.08428040934814 110.85187772925929,208.4680211177656 111.41781659388289,208.7187296089578 111.97971303805025,209.11781316324777" stroke="#4dd2ff" stroke-linecap="round" stroke-linejoin="round" stroke-width="0.5"><title>2022-08-19 15.6km</title></polyline><polyline fill="none" points="152.20000000000073,214.43917763299032 152.11582333291517,214.3072880686268 152.07173079302083,214.22105233326147 149.73081776567778,210.9287279040691 149.01732030186395,210.0459908210505 147.97513299517232,209.09727893018135 146.2635407645721,208.17391059850706 144.92072250402634,207.9811165365245 144.20722504020523,208.1181018931311 143.96271186440936,208.23479272776603 143.07284424099635,208.30074825611882 142.72010392180528,208.44280592285577 141.19289867622865,208.6203772488152 140.59965359395937,208.9653705618075 140.2469132747683,209.08713214910676 139.59354200172675,208.90448961975562 139.40915501669951,208.68633209837571 139.24080168254295,208.30582175350355 138.7156996164813,208.2753807589579 138.58743040949412,208.33118923005895 138.15051342323568,208.78780087098494 137.9100086601502,209.56402788925698 137.5933440554254,209.71115407321486 137.4089570703909,209.89379267026743 137.11233452926535,209.69086084081937 136.43090436719285,209.77203370449206 135.50496102932811,209.0668385786994 135.29251515526266,209.03639820248281 130.49043671904292,209.7872535968454 129.34803909439142,210.05613734245344 126.34172955585746,210.49750836405656 125.93687987132944,210.58882585731408 125.48793764691436,210.8982890405241 122.98267969812514,210.48228876019857 122.78626747494127,210.57360629055984 122.52972906098876,210.49750836405656 122.00061858221306,209.980038364949 121.98458493133512,209.55388123458397 121.88437461338253,209.34587420820753 121.39935667450118,209.02117800510678 121.28712111838468,208.79287430240947 121.03459111716074,208.57471613109374 120.76201905233029,208.4072915566794 120.55358159098978,208.44280592285577 119.99240381046911,208.20435167550022 119.80400841272058,208.2500132446221 119.83206730174425,208.4275854843363 120.13269825559473,208.71677275900947 120.19683285908468,208.66603831087195 120.0525300012414,208.46309983127503 119.92426079425422,208.49354067330933 119.79999999999927,208.3667036683837 119.86012619077155,208.19927816438576 120.55358159098978,208.44280592285577 120.80210317950332,208.39714458872913 120.97446492638846,208.50876108503508 121.28311270567065,208.78780087098494 121.39935667450118,209.00595780152798 121.94049239143351,209.37631433298156 122.0166522330801,210.00033144074405 122.52572064826745,210.49243516345814 122.79027588767349,210.5685331002751 122.97065445997578,210.46199594546852 123.50778176419772,210.59897223172447 125.46789558332603,210.8830695994693 125.997006062109,210.5533135252699 135.28449832982733,209.02117800510678 135.54504515650115,209.0668385786994 136.37478658914188,209.72637399031737 137.0802672275131,209.67564090929227 137.39292341952387,209.89379267026743 137.90199183472578,209.558954562257 138.16654707410635,208.71677275900947 138.7116912037527,208.26523375527904 139.2969194606012,208.2906012593303 139.52940739825135,208.77258057261497 140.05851787702704,209.0008843989781 140.3270815291362,209.03132480404747 140.54754422863334,208.9704439691668 141.180873438072,208.54934881942245 142.97664233576506,208.32104224151044 144.97283186935238,207.9608223670075 146.2875912408672,208.14854301547166 147.40994680193035,208.71677275900947 148.08336013856024,209.14801279435414 149.20571569961248,210.1931151124627 150.42026475318562,211.8976854718603" stroke="#4dd2ff" stroke-linecap="round" stroke-linejoin="round" stroke-width="0.5"><title>2022-08-14 16.5km</title></polyline><polyline fill="none" points="188.20000000000073,214.5286699713215 185.75081605105515,211.0668007432796 184.87610749785017,209.9396109439549 183.93380782918393,209.0740670004052 182.3951159651515,208.21353530493798 181.8424591974508,208.0424330607202 180.9478709044015,207.94681675757238 180.82064056939998,207.87133002867995 179.89424469260484,208.1732760242412 179.04736777518337,208.21353530493798 178.61796539452916,208.37457199162236 177.15084059394212,208.53560798044782 176.5345686587316,208.89290408887246 176.1966130813562,208.99355025986006 175.49684623879875,208.75199899155268 175.3338323720709,208.54567270656844 175.23840962081522,208.2437297368524 174.6102098416959,208.19843807979487 174.1410479813494,208.67651389823368 173.8826113633586,209.45651913564507 173.35778623143779,209.8238707702476 173.03175849798208,209.6024537813828 172.35982329119724,209.6527759401506 171.6322248128672,209.0740670004052 171.25450975579224,208.94322720844502 167.1950668793761,209.597421561768 165.40191434532608,209.95973963302822 162.4000736286689,210.40256803436205 162.00645477973012,210.50824221397488 161.7599460056481,210.7145576033945 161.5174131795393,210.78500649845228 159.79582770893103,210.5635952357552 159.04039759480293,210.38747169845738 158.81774450852754,210.4931459209838 158.57521168241874,210.38747169845738 158.11002577002728,209.95470746177307 158.01857896674483,209.36090647082892 157.50965762669875,208.95832413101743 157.3347159160694,208.66141686117044 157.1239906737028,208.485284308892 156.85760215977643,208.32424810199154 156.66675665726507,208.36953960571918 156.39639219536548,208.2034704888647 155.93915817891684,208.14308153508682 155.79999999999927,207.91158963650741 155.89144680329264,208.01727089954147 155.96301386673804,208.38966914521006 155.9153024911102,208.38966914521006 156.2572340164552,208.35947483187556 156.70254018898413,208.88787177317136 157.06037550620385,208.78722531598032 157.263148852624,208.93819489954694 157.94701190329943,209.22000314797333 158.0464106025429,209.33071294661931 158.09412197816346,209.85406389378477 158.54340409866563,210.36734324106146 158.841600196356,210.46798541907265 159.05232543870443,210.34218265397067 159.7600441772047,210.51830640586923 161.5293410234408,210.76991031789657 161.68440299424037,210.73971793838427 162.07802184317552,210.44785700527427 165.92276352927365,209.81883858059518 167.12747576389665,209.54206710093422 171.36186035096398,208.92813027973898 171.56463369738412,208.98851795778683 172.3558473432313,209.6276148692814 173.0635660817279,209.57729267645118 173.1510369370444,209.70309803076452 173.32995459565427,209.77858103893232 173.85875567555559,209.47161584971764 174.13707203338345,208.61612571316437 174.65792121733102,208.16321119725035 175.21057798502443,208.1934056700411 175.49287029083644,208.69664327145074 176.18866118542792,208.96838874266905 176.45902564732023,208.90296871824103 177.15084059394212,208.48025193798458 178.8923058043947,208.22863252395837 179.6715916063331,208.0424330607202 180.0294269235601,208.03740062985526 180.27991164560808,207.93171942407935 181.14666830286296,207.88642738672934 181.46474414038312,207.9770114062012 182.45873113265043,208.05249792042378 182.85632592956244,208.26385934448626 183.41295864522908,208.71174029419853 184.0411584243484,209.08916386981582 185.05104920849772,210.05031859892551 185.81443121856137,211.11208890478883" stroke="#4dd2ff" stroke-linecap="round" stroke-linejoin="round" stroke-width="0.5"><title>2022-08-12 16.3km</title></polyline><polyline fill="none" points="44.20000000000073,255.65094542181032 41.1950340798503,251.45365792280427 40.17366114897959,250.61015008898175 40.00014605647084,250.39552667202952 39.282424537486804,249.92135422740466 38.32414800389597,249.47712398175645 37.574878286271996,249.28245960270579 37.21207400194908,249.2275540791452 36.06845180136588,249.47213260026547 35.11411879260413,249.5669687330228 34.79074975657568,249.74166623355268 33.363193768262136,249.8315103399691 32.688851022390736,250.2757363145247 32.420691333983996,250.3356315419369 31.71480038948357,250.11601523222635 31.576777020454756,249.97126740356907 31.403261927946005,249.5769514696476 30.855111976630724,249.5370205069339 30.389776046740735,250.0012152768286 30.15316455696302,250.5652290120961 30.137390457650326,250.77486023584788 29.778529698149214,250.98948144408132 29.644449853945844,251.14919874154293 29.522200584240636,251.12923411720112 29.301363193761063,250.93457846324964 28.64673807204963,251.00944614411856 27.61353456670986,250.270745041169 23.25199610515483,250.98449026739036 21.958519961051934,251.27397739864682 18.752434274578263,251.75811458940007 18.38174294061173,251.83298059762456 17.9085199610563,252.13244311001108 16.20886075949238,251.89786434843336 15.404381694243057,251.70820383278624 15.021859785781999,251.2689862604566 14.611733203502808,249.85646699734207 14.18188899708548,249.39726179678473 13.483885102232307,249.16266562766396 12.383641674779938,249.0528541418389 12.099707887053228,248.95302523444116 11.941966893860808,248.80827283843246 11.799999999999272,248.34905457818968 11.973515092500747,248.8432131240006 12.103651411878673,248.9280679653384 12.722784810121084,249.09777706193927 13.259104186952754,249.1127513564752 13.819084712751646,249.23254549375633 14.312025316456129,249.4920981221876 14.789191820837004,250.14596298788092 15.132278481010871,251.31390647971057 15.443816942548438,251.723177066855 15.850000000002183,251.7830699423721 17.928237585198076,251.25900398207887 18.156962025317625,251.39376451206772 18.27132424537558,251.6383286599812 18.275267770197388,251.87790012957703 18.756377799410984,251.73815029485922 23.04298928919161,250.97949909003 27.574099318408116,250.26575376714027 27.787049659204058,250.31566647694126 28.666455696213234,250.99946379545509 29.340798442066443,250.93956964671452 29.565579357353272,251.85294484079714 30.05457643623231,251.76310566133907 30.125559883148526,251.6882395112043 30.082181110028614,251.44367569444876 30.251752677704644,251.3488443901624 30.251752677704644,251.14420758646884 30.413437195715233,250.79482505212582 30.38188899708257,250.4903604289757 30.279357351511862,250.31067520901343 30.31090555015544,250.11102393726105 30.405550146057067,249.92135422740466 30.843281402147113,249.5370205069339 31.434810126578668,249.54201187964645 31.663534566698218,250.03116312574275 32.27083739045702,250.28571885917336 32.68490749756893,250.26575376714027 32.75194741967789,250.39053541491376 33.06348588120818,250.20585842617584 33.351363193778525,249.8464843364236 33.77726387537405,249.75164892286193 36.23802336904191,249.40724457936813 36.90053554041151,249.24751973354068 38.33992210321958,249.40724457936813 40.102677702045185,250.37057037965133 41.131937682570424,251.30891534694092 43.8569133398305,255.17184996302603 44.01465433301564,255.27665262663504" stroke="#4dd2ff" stroke-linecap="round" stroke-linejoin="round" stroke-width="0.5"><title>2022-08-07 17.9km</title></polyline><polyline fill="none" points="80.20000000000073,259.9251756526646 77.05654885655895,255.56801468535195 76.1359667359684,254.75335480585272 75.45114345114052,254.30812569052068 74.52307692308023,253.86762747778994 73.64365904366423,253.67816417471477 73.44158004158817,253.65448118968197 72.03825363825672,253.96709530107546 71.58918918919153,253.98604152104235 71.15135135136006,254.13287437794133 69.86403326402797,254.2465510050788 69.2690228690335,254.61126102307026 68.8985446985389,254.72019964150968 68.25862785863137,254.52126799542748 67.95925155925215,253.98604152104235 67.43160083160183,253.9813049670156 66.97505197505234,254.3981192665742 66.7243243243247,255.1606871173135 66.23409563409587,255.482760470597 65.91226611226375,255.26962402457502 65.33970893970763,255.350142390158 64.52765072764669,254.75335480585272 64.23950103950483,254.68230798661898 60.71060291061076,255.23173296488312 59.37837837839106,255.5111785652698 55.92806652806394,256.0558542512954 55.557588357594796,256.13637080709304 55.14220374220531,256.41107295559414 53.75010395010395,256.24056842771097 52.724740124736854,256.00849148485577 52.593762993768905,256.11742575181415 52.361746361744736,256.0558542512954 51.897713097718224,255.63432337541963 51.8378378378402,255.15121432673186 51.748024948028615,254.98544007633245 51.28399168399483,254.66336214378316 51.17920997922556,254.44548421360014 50.99958419959148,254.274970104143 50.71891891891573,254.09024554749703 50.539293139296205,254.14234744429996 49.895634095631976,253.91499314321118 49.6972972973017,253.70658373560582 49.483991683995555,253.77763253680314 49.469022869030596,253.82499832408212 49.551351351365156,253.76815937164793 49.61496881497442,253.82026174824205 49.43908523908976,253.96709530107546 49.091060291062604,253.51711956015424 48.75426195426917,250.9829375409281 48.69438669439114,249.4433915094378 48.241580041576526,244.00943646462838 48.10311850312428,243.07131863516042 47.79999999999927,242.42694028887126 47.85613305613515,242.36060654951143 48.121829521835025,242.50748823173853 48.241580041576526,242.38429718516272 48.18918918919735,242.27058198762825 48.065696465702786,242.2137242501267 47.82619542620159,242.37008280570808 47.81496881496787,242.469583340564 48.07692307692923,242.88179682512055 48.166735966740816,243.2845294433173 48.885239085240755,251.2150478323092 49.17338877338989,253.5692223107144 49.40166320166827,253.93393939141606 49.55509355510367,254.05235321016517 49.832016632022714,254.12340130898156 49.835758835761226,254.18497621123242 50.02661122661084,254.1044551634186 50.168814968823426,254.12340130898156 50.535550935557694,254.60178808370983 50.86486486486683,254.5117950316744 51.16049896050026,254.71072673163508 51.13430353430522,254.49284909647758 50.92474012474486,254.26076055749218 50.99958419959148,254.2560240406674 51.20166320166754,254.44548421360014 51.302702702705574,254.64915275492604 51.77422037422366,254.9664943976968 51.845322245328134,255.09911393270522 51.890228690233926,255.57275102454514 52.30187110187035,256.0037552046888 52.58627858627733,256.10321695362654 52.78835758836067,255.98481007758164 53.349688149693975,256.13163454423557 55.15343035343176,256.38739182086283 55.58752598753563,256.10321695362654 64.30311850311409,254.63967982581744 64.54636174636471,254.7012538191957 65.32099792099689,255.32646053716599 65.9983367983441,255.28856953903596 66.20041580042016,256.1458433308835 66.76923076923049,256.01322776438974 67.43908523908613,255.97060122551557 68.49438669439405,255.7858856235216 68.53929313928893,255.30751504323416 68.38960498960296,254.95702155452454 68.40083160083668,254.71072673163508 69.14178794178588,254.63494336029908 69.80415800415722,254.2133953603261 70.4066528066578,254.17550315640256 73.16465696466548,253.69237395805249 74.51559251559593,253.84868119368184 75.81413721413264,254.52600447633085 76.28191268191222,254.83861079844428 76.99667359668092,255.487496821308 77.88731808730881,256.59578525626785 79.78461538461852,259.2858436136412 79.66860706860462,259.49895559145443 79.81081081080993,259.7357451553835 79.77338877339571,259.8162532420574 79.87068607069159,260.0719835825985 79.81455301454844,260.40348309387264 79.51517671518013,260.71603689913536 79.45530145530574,260.88178399627213 79.23076923076587,261.03805911154996 78.81538461538366,261.54950006318904 78.78544698545011,261.521086873101 78.78918918918862,261.69156566746824 78.88648648649178,261.7862757498733 78.7218295218263,261.56844217708567 78.58336798336677,261.6347394949771 78.70686070686861,261.61106189586644" stroke="#ff0000" stroke-linecap="round" stroke-linejoin="round" stroke-width="0.5"><title>2022-08-06 24.1km</title></polyline><polyline fill="none" points="115.79436619721673,256.0860330069845 114.27323943662486,253.76532000995212 109.02535211267241,246.6637286422265 106.80281690139964,244.65292113371106 105.15492957746028,243.61541000587022 103.12676056338387,242.62067004519486 101.85070422536955,242.2569985451555 100.64225352113135,242.12864349834126 98.22535211269133,242.68484719488333 96.07887323944306,242.9094668082398 95.50422535213147,243.14478190851514 92.85915492957429,243.35870411856013 90.5605633802843,244.52456998029083 88.8873239436507,244.00046727254085 88.22816901409533,242.86668216922408 87.00281690141128,242.84528984106146 86.06478873240121,243.74376263670274 85.49859154930164,245.50859015994502 84.39154929576762,246.25729295430938 83.89295774647326,245.91502970028523 83.80000000000291,245.63693971440807 84.00281690141128,245.58346075873123 84.07042253523105,245.28397793781187 84.58591549297125,244.79196798122575 85.40563380283129,244.41761052646325 85.50704225352092,243.5405375416085 85.49859154930164,244.3534347846362 85.34647887324536,244.503178101113 85.57464788732614,244.19299520193454 85.4732394366365,243.26243919575063 85.55774647888029,243.56192968150572 85.304225352098,243.48705716653058 85.6253521126855,243.57262574926426 85.60845070421783,243.84002697291726 85.69295774649072,243.35870411856013 85.32957746479224,241.6580065418966 85.03380281690625,241.7863623535959 85.38028169013705,243.45496892409574 84.97464788732759,243.71167449853965 84.6957746478729,243.6261060664183 84.81408450705203,242.855986005874 84.66197183099575,241.90402166441345 84.46760563379212,241.81845127391716 84.18028169013269,241.94680682488251 84.47605633804051,243.6368021255039 85.2873239436667,243.65819423932408 85.46478873238812,244.42830647835945 84.32394366197695,245.27328210177075 83.89295774647326,245.78668059771007 84.3408450704228,247.75467725382623 85.41408450705057,247.48728928210767 85.43098591548187,246.82416320654738 85.68450704227871,246.79207631974714 85.84507042253244,246.41772834408766 86.28450704225543,246.21451012865145 86.34366197184136,245.8829424442083 86.10704225352674,245.5406775681331 85.88732394365798,244.11812328514497 86.05633802816737,243.72237054601283 86.96056338028575,242.9094668082398 88.38873239439272,242.8345936747719 88.82816901407205,243.95768322451477 90.23943661973317,244.46039432538964 91.10985915493802,244.32134689416853 92.25915492956119,243.6368021255039 91.35492957746465,244.68500888950075 92.84225352112844,244.23577912252222 92.80000000000291,243.86141903166572 93.03661971831752,243.6368021255039 92.89295774647326,243.51914539591962 92.09014084507362,243.6261060664183 91.01690140844585,244.36413074520533 90.36619718309521,244.51387404143316 89.08169014085433,244.10742729127378 88.70140845071,243.66889029408048 88.34647887323081,242.855986005874 87.04507042252226,242.82389750704897 86.12394366195804,243.6474981831343 85.53239436617878,245.4871985472564 84.29014084506343,246.25729295430938 83.93521126759879,246.000595652833 83.89295774647326,245.78668059771007 84.36619718310249,245.23049874314893 85.38873239437089,244.55665778821276 85.60845070421783,244.07533930084173 85.71830985913402,243.42288066862238 85.43943661973026,243.50844932087784 85.67605633802305,243.6368021255039 85.38873239437089,243.2731353041163 84.99154929578071,243.2731353041163 85.43943661973026,243.294527516402 85.53239436617878,243.48705716653058 85.2112676056422,242.10725097022078 85.32112676058023,241.95750311136362 85.35492957745737,242.05376962467562 85.2873239436667,241.8719327788276 85.27042253522086,242.5671890472804 85.60845070421783,243.6368021255039 85.49859154930164,244.3427388226046 84.39154929576762,245.2198028998755 83.91830985915294,245.85085517504922 84.29014084506343,247.7332862494004 85.35492957745737,247.51937588651344 85.51549295773293,247.35894273420126 85.38873239437089,246.90972817425063 85.60845070421783,246.8027719501115 85.71830985913402,246.90972817425063 85.8112676056262,246.2038144186081 86.14929577463772,245.4871985472564 86.03943661970698,244.77057617449464 85.80281690140691,244.42830647835945 85.86197183097829,244.2250831445417 86.03943661970698,243.71167449853965 87.01971830985713,242.78111282169994 88.3633802816912,242.78111282169994 88.8873239436507,243.85072300301545 90.57746478874469,244.42830647835945 91.05915492957865,244.25717107411765 92.46197183098411,243.33731192366395 96.12957746478787,242.98433987075987 96.38309859154833,242.80250516725937 97.68450704225688,242.57788524974603 98.49577464786853,242.6741510068896 99.4929577464718,242.23560605185048 100.94647887323663,242.1607322795753 101.72394366197113,242.40674583621148 103.00845070423384,242.4281382831905 105.19718309859309,243.50844932087784 107.15774647888611,244.82405568053218 109.53239436619333,247.10224901277252 113.81690140845603,253.28405762840703 116.20000000000437,256.38547487992037 113.93521126760606,258.94137896679604 112.74366197185009,259.88244416460657 112.71830985915585,260.10701488484483 112.42253521128441,260.33158496681426 112.38873239437089,260.8448856146206 112.5323943662006,260.834191885122 112.36338028170576,261.0694535994626 112.32112676056568,260.4171353063575 112.48169014085579,260.4706042215257 112.32112676056568,260.7807232159903 112.10985915493075,260.7058670184415 112.25352112677501,260.59892947032495 111.85633802818484,260.9518228298766 111.7887323943578,261.1550031401057 112.13521126762498,261.53997492671624 111.53521126761188,262.2136710401319 111.62816901410406,262.11742908989254 112.00000000001455,262.32060640291456 112.16056338029011,262.2992193419559 112.10140845071146,262.053267724601 112.21126760564948,262.25644520261994 112.27042253524269,262.16020330447645 111.47605633805506,262.3419934581034 111.81408450703748,262.10673553261586" stroke="#4dd2ff" stroke-linecap="round" stroke-linejoin="round" stroke-width="0.5"><title>2022-07-23 16.3km</title></polyline><polyline fill="none" points="152.20000000000437,258.7696045810517 150.6748648648645,256.6917968294947 150.30999999999767,256.3685766026756 149.67513513512677,255.306556503936 145.6397297297226,249.68219182764733 143.4140540540684,247.59487118523975 142.0348648648578,246.71743857149704 140.1375675675663,245.7845767812396 137.71486486486538,245.2673409831914 136.70054054055072,245.23039541894832 136.02918918918294,245.37817755584547 135.5694594594679,245.2765773711144 135.47459459461243,245.8954125133314 135.2118918918859,246.00624806532142 133.3218918919083,246.38493484233186 130.81162162162946,246.6804937927518 129.811891891899,247.33626064068085 129.27918918919022,247.47480212577648 127.98756756757211,246.9483429852844 127.48405405406083,246.0801383332655 126.44783783785533,246.05242949218518 125.49189189189929,246.8744536579179 125.02486486486305,248.31528110341605 124.36810810811585,248.66624728150055 124.2002702702739,248.8786733014349 123.41945945947373,248.58312387621118 122.29567567569029,248.72166282873513 120.62459459462116,247.4470938512677 119.80000000000291,247.4470938512677 120.66108108108892,247.42862166200212 122.22270270271838,248.66624728150055 123.55081081083335,248.62006762440433 123.86459459460457,249.66372024369048 123.9302702702771,250.26404416192963 123.79891891893203,250.3564012188508 123.91567567570019,250.5688219752774 126.38945945947489,250.08856540923443 126.54270270269626,249.86690739212645 134.13918918920535,248.69395506073488 133.59189189189055,248.01049322048493 132.65783783783263,247.31778842140193 132.71621621622762,247.17001048707607 133.05189189189696,247.16077435555053 133.08837837839383,246.42187978119182 133.37297297298937,246.18173732097057 135.7300000000032,245.77534046208166 136.3137837838076,245.80304941577197 136.64216216217028,245.59985016080464 137.61270270270325,245.45206850420072 140.18864864864008,245.7291588476437 141.98378378377674,246.6435489939904 143.57459459461825,247.6410515364696 145.52297297296172,249.4512966686234 150.55081081081153,256.46092539519304 150.41945945945918,256.71950134909275 150.2370270270403,256.76567552344204 150.39027027027623,256.9873111252964" stroke="#4dd2ff" stroke-linecap="round" stroke-linejoin="round" stroke-width="0.5"><title>2022-07-16 10.3km</title></polyline></svg>