<?xml version="1.0" encoding="utf-8" ?>
<svg baseProfile="full" height="300mm" version="1.1" viewBox="0,0,200,300" width="200mm" xmlns="http://www.w3.org/2000/svg" xmlns:ev="http://www.w3.org/2001/xml-events" xmlns:xlink="http://www.w3.org/1999/xlink"><defs /><rect fill="#222222" height="300" width="200" x="0" y="0" /><text fill="#FFFFFF" style="font-size:12px; font-family:Arial; font-weight:bold;" x="10" y="20">Over 10km Runs</text><text fill="#FFFFFF" style="font-size:4px; font-family:Arial" x="10" y="280">ATHLETE</text><text fill="#FFFFFF" style="font-size:9px; font-family:Arial" x="10" y="290">Allen</text><text fill="#FFFFFF" style="font-size:4px; font-family:Arial" x="120" y="280">STATISTICS</text><text fill="#FFFFFF" style="font-size:3px; font-family:Arial" x="120" y="285">Number: 25</text><text fill="#FFFFFF" style="font-size:3px; font-family:Arial" x="120" y="290">Weekly: 1.6</text><text fill="#FFFFFF" style="font-size:3px; font-family:Arial" x="141" y="285">Total: 389.0 km</text><text fill="#FFFFFF" style="font-size:3px; font-family:Arial" x="141" y="290">Avg: 15.6 km</text><text fill="#FFFFFF" style="font-size:3px; font-family:Arial" x="167" y="285">Min: 10.1 km</text><text fill="#FFFFFF" style="font-size:3px; font-family:Arial" x="167" y="290">Max: 24.1 km</text><polyline fill="none" points="44.19999999999709,51.308750406315085 44.14312225705362,51.103095635964564 43.03400626959046,49.704613665653596 41.782695924761356,47.79190053529601 41.18954231974931,47.01033411332173 40.03167398120058,45.8945173334032 39.18663322884095,45.37002069874143 38.13439498432126,44.87122796271433 37.56968025078095,44.840374588613486 36.92371159874892,44.701534094900126 36.50931661442155,44.7529565591758 35.80647021943878,44.917507976872 34.98580564263466,45.01006783595949 34.56734796238743,45.17976032496517 33.09258934169338,45.29803039915714 32.414119122255215,45.72997014947032 32.01597492162546,45.82767012592012 31.39031974921818,45.5911329084156 31.256250783699215,45.447153011133196 31.10999373040977,45.04606327578222 30.476213166155503,44.99978341831229 29.984626959252637,45.503716607316164 29.7327398119196,46.28531403763918 29.237090909085964,46.54755693952757 28.9770783699023,46.50642091780901 28.899887147344998,46.42929075698339 28.217354231986974,46.52184693118397 27.299184952986252,45.80710173071566 27.0472978056423,45.75053858644242 17.995611285263294,47.262288203612115 17.601529780560668,47.354842347562226 17.313078369912546,47.601652295332315 17.11806896552298,47.6582126824469 15.196413793109969,47.38055179196817 14.550445141063392,47.2160110470395 14.383874608160113,47.33427477951773 14.071047021952836,47.226294864496595 13.607899686514429,46.78923016719273 13.530708463953488,46.25960385174767 13.38038871473691,46.04877967078937 12.986307210034283,45.77624911702151 12.57191222570691,45.282603888634185 12.328150470220862,45.14376501188235 12.120952978053538,45.19004469387073 11.799999999999272,45.00492562749059 12.129078369918716,45.1694759532802 12.385028213171609,45.123196246240695 12.80754858934597,45.45743730761387 12.998495297812042,45.771107012293214 13.457579937305127,46.04877967078937 13.542896551738522,46.18761523861758 13.640401253920572,46.79437213403435 13.888225705330115,46.98462441830634 14.079172413792548,47.24686249101069 14.436689655176451,47.323990991309984 14.546382445143536,47.205727226813906 15.293918495302933,47.38569367875607 17.114006269603124,47.62736157263862 17.309015673985414,47.56051741542251 17.540589341690065,47.34970045659793 17.739661442006764,47.298281508621585 27.091987460818928,45.72997014947032 27.30324764890611,45.78653332436079 28.164539184952446,46.47042686225541 28.867385579935217,46.393296628324606 29.058332288408565,46.614402879760746 29.20865203763242,46.6503967988574 29.342721003133192,46.48071088161305 29.724614420061698,46.254461812466616 29.984626959252637,45.406015797354485 30.508714733547095,44.97921457467601 31.085617554850614,44.99978341831229 31.329379310336662,45.503716607316164 31.853467084642034,45.72997014947032 32.19067084640119,45.77624911702151 33.084463949846395,45.24660867303828 34.80298432602649,45.07177428333307 35.63989968652095,44.845516819375916 35.98116614419996,44.86094350746862 36.71245141066174,44.69124959368855 38.11408150470743,44.8198056586225 39.17038244514333,45.31345690341914 39.808225705335644,45.69911747309743 40.24293416927685,46.15162088087891 41.152978056426946,46.91263717959009 41.84363636364287,47.95129697557422 42.29053291535456,48.460332740502054 43.200576802504656,49.848577422540984" stroke="#4dd2ff" stroke-linecap="round" stroke-linejoin="round" stroke-width="0.5"><title>2022-11-04 16.4km</title></polyline><polyline fill="none" points="80.19999999999709,51.49205063666159 76.96171111696822,46.94981648091925 76.41843147609688,46.408395397163986 75.38748349615707,45.574592589531676 73.96297861101993,44.805746020705556 73.75336678108579,44.70828554064792 72.38875099021607,44.50794936334205 70.47229997357499,44.81657494826868 69.98890942697471,44.98442295044515 68.34623712699977,45.18475674034926 67.65323475044715,45.62332180343583 67.33240031686364,45.6828796508853 66.6094533931755,45.45006210641077 66.31000792181658,44.87071954208295 65.66406126220318,44.83281833411456 65.13361499866733,45.33094562921178 64.86411407445848,46.19723918736781 64.32511222602261,46.47336631429789 64.0727224716029,46.44088086894044 63.952944283068064,46.34342437444866 63.23855294426539,46.4138096442839 62.382994454699656,45.73702307157873 62.0707156060198,45.639564861547115 57.80575653550841,46.30552456245641 56.43686295219595,46.60330783186873 52.50984948507903,47.220524273696356 52.077792447838874,47.31797863044267 51.80401373118002,47.5507852990595 51.5815685238922,47.631996608764894 49.630895167665585,47.355877482823416 48.86089252705642,47.15555457056689 48.75822550830344,47.285493871251674 48.64272511221134,47.29632212725119 48.373224188002496,47.18262529304411 47.93688935833052,46.77656253174064 47.84277792447756,46.5708224920636 47.872722471602174,46.37590989900491 47.79999999999927,46.083539227915026 47.85133350936303,46.00232477321333 47.9026670187377,46.64662157720886 48.36466860310975,47.16096871652917 48.59566939528304,47.285493871251674 48.75822550830344,47.285493871251674 48.89083707418831,47.17721115000313 51.577290731449466,47.61575436000567 51.73984684445168,47.583269842740265 52.16334829678817,47.26925148176815 62.0707156060198,45.628736156857485 62.29316081330762,45.655807913044555 63.23855294426539,46.402981149316474 63.96149986796445,46.33259586041822 64.30800105623712,46.57623671719921 64.51761288618582,46.36508139375292 64.84700290466208,46.208067738072714 65.12078162133184,45.30387365306888 65.65122788486406,44.838232794587384 66.26722999735648,44.838232794587384 66.57950884603633,45.379675140047766 67.31528914706723,45.666636610370915 67.60617903352613,45.617907449272025 68.38045946658531,45.13602699194962 70.23702138895169,44.91403516434366 72.45719566938715,44.52960737685498 73.01330868760124,44.637897268414235 73.67636651703287,44.64872624144118 74.97681542116698,45.29304485749162 75.79815157115445,45.83448104409035 76.81198838129058,46.8090477043952 77.1798785318133,47.285493871251674" stroke="#4dd2ff" stroke-linecap="round" stroke-linejoin="round" stroke-width="0.5"><title>2022-10-29 14.6km</title></polyline><polyline fill="none" points="116.20000000000073,51.30496792311533 115.53072666912703,50.49328460535253 113.79380302470963,47.92703898101536 112.92135743268227,46.782506994692085 111.81785319069968,45.80937503642417 111.08882331243512,45.33036291876124 110.15263740317096,44.891683257810655 108.80612320176442,44.695032076881034 108.097012172635,44.8110059758983 107.8779048321594,44.947148787719925 106.85805975654876,45.01269885291549 106.61504979712845,45.199263791448175 106.14894872740842,45.184136939355085 105.20877904832378,45.295067045273754 104.14909627443558,45.7992906342879 103.45990409443039,45.57239086419577 103.28461822205281,45.33540518366499 103.18104020655664,45.027825774639496 102.61932866101779,44.987487303023954 102.10940612320337,45.44633483892176 101.87436370342766,45.9606407407191 101.84249354480926,46.23291745993993 101.37639247511106,46.47493953898811 101.10151235707235,46.47493953898811 100.97004795278554,46.38922356588955 100.33662855034709,46.44972897914704 99.48011803762347,45.80433283570528 99.28092954629028,45.73374195384895 90.34533382514928,47.195954325812636 89.94695684249018,47.29679444193607 89.65614164514409,47.53376763995038 89.44101807450716,47.58922923448699 86.97904832165295,47.206038349719165 86.79579490962351,47.28671044261864 86.49701217263282,47.180828284854215 86.01497602360905,46.706875888652576 85.93530062706122,46.1371166190911 85.40545924012258,45.743826373724005 85.21423828844854,45.43120808721869 84.84773146439693,45.148840927267884 84.58878642567288,45.163967793683696 83.82390261894761,44.84630230823677 83.79999999999927,44.755540243175346 83.89162670600854,44.876556280767545 84.41748432311579,45.01269885291549 84.58878642567288,45.13875634624128 84.83976392474506,45.09841799480273 84.99513094798385,45.20430607411254 85.28594614532994,45.47658832391244 85.4452969383965,45.73374195384895 85.92334931758887,46.036273362442444 86.03887864255739,46.691749649016856 86.51693102175705,47.1606602206557 86.75994098118827,47.25141642348535 86.96709701216241,47.13040810388702 87.59254887494899,47.29679444193607 89.44500184433491,47.56906139147395 89.63622279601623,47.52872567271697 89.99077831058821,47.261500432356115 99.24109184802364,45.718615318888624 99.53987458502525,45.79424843220113 100.3525636296581,46.4547710924744 101.01386942087993,46.379139320804825 101.17720398376696,46.56065531475906 101.32858723718164,46.59594998862303 101.58354850609248,46.36401294802272 101.8345260051683,46.26317030585051 102.08151973440908,45.44129258903922 102.571523423092,44.97236036491813 103.1651051272529,44.98244499100838 103.42803393581562,45.461461584483914 103.87023238657639,45.6782775956417 104.20885282183735,45.73374195384895 104.48771670970018,45.65810871762005 105.13308742161826,45.26481341280305 108.0253043157536,44.83621764527197 108.21652526743492,44.74041321082768 108.96149022500322,44.70511677810282 110.12475101438395,44.84125997709998 111.49118406492926,45.542137457054196 112.45924013279364,46.293423127182905 113.1364810033192,46.99427327434023 114.9052748063441,49.45974918788488" stroke="#4dd2ff" stroke-linecap="round" stroke-linejoin="round" stroke-width="0.5"><title>2022-10-22 16.5km</title></polyline><polyline fill="none" points="152.0885747038592,51.56729691385044 152.1999999999971,51.33228372596932 150.96606801682356,49.72893333533648 148.76232327092657,46.58471077226204 147.68108521208342,45.62885810117223 146.86809323653506,45.09607747941482 145.84050439434577,44.61030049875262 145.25036301108412,44.584183283477614 144.51578142911967,44.43792655113066 143.88849828047387,44.52672534762678 143.42628964463802,44.67298174326788 142.62155139472816,44.73566288590882 142.25013374093032,44.902812101645395 140.82636606801316,45.01772676730252 140.46732900267307,45.148311199081945 139.93496369889544,45.482605329932994 139.6254489873827,45.5400618419153 138.96927779899852,45.34157534678525 138.77531524647566,45.09607747941482 138.6432556362197,44.751333155647444 138.0654948414267,44.71476918301414 137.52074894916586,45.22143828776825 137.24837600305545,46.0571665984462 136.922353840273,46.19819396532694 136.74489873901985,46.401899251675786 136.39411539930734,46.17207782516198 135.70492930837645,46.26087262954388 134.8713030187173,45.58184834232452 134.6195643866995,45.49827529624599 129.9025601834037,46.24520297303752 128.68513565150715,46.51680945145927 125.57348108519727,46.986893067947676 124.97508597630804,47.117470833672996 124.68620557890245,47.34728662783891 124.43859380970025,47.4204095479472 123.46052732134922,47.310725115807145 121.84692395872116,46.99733930547154 121.65708826900664,47.101801525128394 121.39709591133942,47.01300865644953 120.89361864728562,46.527255816286925 120.85647688190875,46.03627361135659 120.71616354603975,45.80122672679863 120.2704623614627,45.51916857473043 120.14252961405509,45.28934188884887 119.79999999999927,44.975939655767434 120.12189529994794,45.25277842619835 120.28696981275061,45.51394525617434 120.79457393961638,45.86912930721883 120.86473060756543,46.45935439435925 121.38884218570092,46.986893067947676 121.58693160106486,47.08613221021733 121.88819258692456,46.986893067947676 123.6256018341519,47.30550203982057 124.5087504776493,47.39429423523325 124.84302636606662,47.14358633377924 125.09063813526154,47.0600166712029 134.61131066105372,45.46693535727536 134.82178066487904,45.52439189258803 135.71318303399676,46.219086864708515 136.36935422238457,46.16163136416799 136.68712265953218,46.38100645129089 136.8274359954121,46.3287744008594 136.90997325180433,46.19819396532694 137.2194879633098,46.08850605787666 137.53312953763452,45.169204667126905 138.07374856705064,44.69387546879443 138.66801681314973,44.73566288590882 138.870233091322,45.17965139693115 139.65433702712107,45.508721936905204 139.92258311042679,45.4617120316434 140.59938861292903,45.049067071253376 142.7412304165082,44.68865203847599 144.45387848682003,44.4327030861532 145.6589224302661,44.56851294583248 145.84875811999154,44.599853614774474 147.2890332441857,45.3467986887008 147.85028658769806,45.738547315701 148.74168895681942,46.55337171597421 149.95498662590035,48.15163112580558 150.9124188001515,49.58269610766001" stroke="#4dd2ff" stroke-linecap="round" stroke-linejoin="round" stroke-width="0.5"><title>2022-10-15 16.0km</title></polyline><polyline fill="none" points="188.1999999999971,51.45195839904409 187.71149318872995,50.88797526399867 187.46295463562637,50.41617558069629 184.81901864832253,46.788013042070816 183.68345456949828,45.75753326500126 183.02782700700845,45.34533393068341 181.77227879909697,44.74872211740876 181.38233037956888,44.661941476944776 181.1680730062144,44.6944842391531 180.4438830842446,44.54804160095955 179.5868535907939,44.66736527248213 178.8326676365541,44.87346895867813 178.33987567781514,44.8626214226897 178.02277476523886,45.019910406990675 176.38584843275385,45.21516483847881 175.73450601772493,45.61109451363882 175.34884274566866,45.714144061166735 174.65036370849703,45.497197336877434 174.50038354714343,45.339910226943175 174.33326279592075,44.906011549010145 173.68192038090274,44.84092634190165 173.16341753735833,45.33448652249717 172.88916809944567,46.223964237804466 172.38352069830944,46.489718990935216 172.12212670281224,46.47344834242904 171.99357227879227,46.35955361787637 171.26509720936883,46.440907025607885 170.33093506149817,45.72499136653278 170.00954900145007,45.66533115065977 160.47081073931622,47.25985545952426 160.08086231979541,47.34663047142749 159.60521095093281,47.66118831374479 156.9227086364117,47.238161677170865 156.65274434597086,47.31951330040465 156.39135035047002,47.21646788308135 155.8814178018656,46.74462495451371 155.79999999999927,46.13718679367594 155.8428514746629,46.5981898120117 155.94569501388105,46.7934365497058 156.15995238723917,46.929024002034566 156.3484988758064,47.178503715120314 156.6098928713036,47.29781955036378 156.91842348894716,47.211044432715426 159.54950403384646,47.639494748742436 159.77233170214458,47.57441398328956 159.9951593704427,47.3683241950348 160.38082264250625,47.25985545952426 164.41743155667064,46.614460409833555 164.9359344002114,46.435483470224426 170.0695410659864,45.65990749026969 170.33093506149817,45.70329675285757 171.25652691441792,46.41921279970484 171.41507737071515,46.462601239771175 172.010712868665,46.37040074845936 172.28924745403128,46.614460409833555 172.52921571220213,46.38124787609922 172.8420314773175,46.24565856946356 173.15056209494287,45.32363911134962 173.5919322840782,44.90058778579623 173.85761142706542,44.84635011319551 174.3461182383253,44.91143531150374" stroke="#4dd2ff" stroke-linecap="round" stroke-linejoin="round" stroke-width="0.5"><title>2022-10-05 12.1km</title></polyline><polyline fill="none" points="44.20000000000073,102.0894998772601 41.492602739723225,98.22902034032813 40.23372353673403,97.12084674129801 39.34201743462472,96.54887343344672 38.42206724781863,96.08924573901095 37.058281444577005,95.96157038527235 36.219028642586636,96.15563675211888 35.37574097135075,96.23224162203405 34.927870485680614,96.37012999572471 33.55198007472063,96.54887343344672 33.21708592777577,96.64590523059815 32.73693648817425,96.94721290413145 32.47870485678504,97.00849552617365 31.768567870491097,96.82464736128168 31.409464508102246,96.25777654407284 30.868792029887118,96.20159969274027 30.3482938978741,96.71740218452396 30.118306351181673,97.2536250185658 30.102166874214163,97.47321883583572 29.58570361146849,97.85112148137705 29.254844333750953,97.65195704553844 28.601195516821463,97.71834530767956 27.802291407224402,97.10041927253042 27.447222914070153,96.96764045588498 22.843437110841478,97.71323852243222 22.222067247817904,97.91750939292251 22.10909090909263,97.88176207045399 18.421220423409977,98.47924858211991 18.045977584060893,98.57116874381973 17.787745952671685,98.79075488988747 17.529514321300667,98.8469278847042 15.019825653795124,98.43839510502949 14.89877957659337,98.54563538803268 14.592129514330736,98.45371516412342 14.071631382317719,97.9532566815069 14.055491905350209,97.58556866654908 13.974794520552678,97.38640282834604 13.454296388546936,96.97274734208622 13.212204234114324,96.59994283148626 12.824856787043245,96.34459514973423 12.631183063513163,96.40077178806678 11.888767123287835,96.11988775957798 11.799999999999272,95.94624931377257 11.900871731017105,96.11988775957798 12.433474470730289,96.26799050806949 12.619078455798444,96.39566482439113 12.86117061020559,96.3394881784734 13.204134495637845,96.59483589480078 13.470435865510808,96.96253356897432 13.978829389787279,97.33533449528113 14.124084682443936,97.98900393622534 14.60019925279994,98.43839510502949 14.850361145701754,98.53031536627532 15.02386052304064,98.4179683498769 17.549688667502778,98.81628807972447 18.13474470735673,98.49967530407594 22.13330012452934,97.8460147141086 22.835367372354085,97.65195704553844 27.2858281444569,96.95742668137245 27.523885429651273,96.94210601445957 27.73369863014159,97.02381616612547 28.560846824409964,97.67238421556976 29.24677459526356,97.62131626976407 29.52518057285488,97.85112148137705 29.767272727276577,97.64174345637366 30.057783312582615,97.5191801706751 30.34022415940126,96.64079830012997 30.84458281445768,96.19649270211085 31.469987546704942,96.23224162203405 31.70400996263197,96.742936778086 31.79277708592781,96.71229526374736 32.103462017443235,96.89614397634796 32.4383561643881,96.97274734208622 32.72079701120674,96.90635776743511 33.398655043591134,96.51312481367495 35.15785803237304,96.27309748901462 35.339427148192044,96.18117172605344 35.81150684932072,96.15563675211888 36.836363636364695,95.93603526264997 37.320547945200815,95.91050012274354 38.458381070984615,96.07392471937783" stroke="#4dd2ff" stroke-linecap="round" stroke-linejoin="round" stroke-width="0.5"><title>2022-10-02 14.7km</title></polyline><polyline fill="none" points="80.20000000000073,102.52872363066126 79.18923992068812,101.10324122951715 78.97081295439784,100.951475855436 78.40975545274705,100.01376989345226 76.9321612690037,97.970253652049 76.56383344348797,97.56912681130052 75.63873099803095,96.73975721868555 74.62797091870743,96.02962972990281 74.46093853273123,96.04047146563244 73.72000000000844,95.68811355083744 73.11611368143713,95.58511603609077 72.28523463317833,95.50922296088902 71.30873760741088,95.72605993683828 68.35783212161186,96.18141376312633 67.62545935228991,96.57171292019848 67.34707204230654,96.6259208354968 66.52475875743039,96.40908873388253 66.25493721084786,95.84531977296501 65.68103106410854,95.79653170112579 65.141387970918,96.2789889091473 64.81160608064238,97.16799595123302 64.46469266357599,97.34145843801889 64.37475214804726,97.47155480986112 63.94646397885299,97.31977566828573 63.22265697289549,97.39024462701855 62.21617977528513,96.63134162298229 62.04486450760305,96.59881688701353 52.74244547257695,98.15455382591608 52.05290152015368,98.32801203805866 51.56893588896128,98.60445951026486 48.823608724393125,98.15455382591608 48.60518175809557,98.27922699185729 48.30109715796789,98.14371266272065 47.8556774619974,97.71006372686679 47.79999999999927,97.56370615079504 47.825697290154494,97.1517338045669 47.88565763384031,97.68296051240395 48.47241242565724,98.17623614353943 48.630879048258066,98.21960074355229 48.845023132853385,98.11660974183906 49.46604097819727,98.27380642748903 51.56465300727359,98.57735690130721 52.040052875086985,98.24670359469746 52.34842035690963,98.18165672111718 62.06627891606331,96.56087132832545 62.288988764048554,96.59881688701353 63.18411103768085,97.32519636181678 63.35970918705789,97.36856188369347 63.9764441506959,97.27641009355648 64.05353602115429,97.42276871996728 64.25483146067927,97.50407883676598 64.4604097818883,97.31977566828573 64.83302048909536,97.15715452084987 65.07286186385318,96.30067224263621 65.62107072042636,95.77484809456655 66.30204890945606,95.79653170112579 66.54189028420296,96.29525141036356 67.2785459352308,96.59881688701353 67.55265036351557,96.56087132832545 68.19508261731244,96.17599291469742 68.69617977527741,96.04047146563244 70.26799735625173,95.85616155861499 71.00037012559187,95.68269263562979 71.38154659617066,95.67185080297713 71.85694646399133,95.51464389962712 72.34519497687143,95.47127636933874 73.758545935234,95.61764159569066 73.89988103106225,95.5580113829019 75.66442828816798,96.71807412302587 76.89361533378178,97.82931765248213 78.10567085260845,99.47715371147933 79.6560740251225,101.76449793149004" stroke="#4dd2ff" stroke-linecap="round" stroke-linejoin="round" stroke-width="0.5"><title>2022-10-01 15.4km</title></polyline><polyline fill="none" points="116.1119764545947,103.65126063549542 110.22173420876061,95.49117665224185 108.21186325558665,93.65293497929815 106.97219832465635,92.84520714321843 104.95499207606917,91.8796349440745 102.71772696400149,91.49897293590038 100.72986189721269,92.03746979099378 99.20412044372642,92.1210292687465 98.42657912609138,92.43669748779212 95.59515508264303,92.76164854809758 94.56821371970727,93.43011445774027 94.0327371519088,93.59722991679155 92.74172515283135,93.21657744506228 92.16957210775581,92.19530427458085 91.0766130858101,92.10246050471324 90.26239529091254,92.88234426392592 89.67557165497419,94.51635766062827 88.72198324654164,95.0919667409471 88.20851256509923,94.702038537107 86.99085352049588,94.85058287626453 85.20104143083881,93.43939866060828 83.80000000000291,93.65293497929815 85.14969436269166,93.47653545947105 86.96884763416165,94.7855947674907 88.21584786053427,94.702038537107 88.72198324654164,95.10125071877701 89.13275979171885,94.72989062522538 89.73425401855638,94.44208516925573 89.79293638215313,93.95931201404892 90.21104822278721,92.89162854096503 91.09861897217343,92.10246050471324 92.19891328954691,92.11174488737015 92.6316957210729,93.0216082873958 93.94471360652096,93.5043880453959 94.52420194703154,93.42083025362808 95.80787865067396,92.66880554517411 100.48779714737611,91.88891935690481 101.13330314694758,91.89820376846183 102.49766810052097,91.57324861567031 104.96966266696836,91.8796349440745 107.44899252886535,93.14230354561005 108.51994566447684,93.89432306046365 110.26574598143634,95.51902841981791 116.04595879554108,103.51201819904963 116.20000000000437,103.89261352221365 115.99461172741576,104.42173034007283 114.9676703645091,105.66560292072245 113.96273488793668,106.50102706409962" stroke="#4dd2ff" stroke-linecap="round" stroke-linejoin="round" stroke-width="0.5"><title>2022-09-29 10.1km</title></polyline><polyline fill="none" points="152.1999999999971,102.14346792385913 151.68684927950744,101.52599799790914 149.42814487862051,98.28944529066212 148.8771387771012,97.71450345582343 148.21677268596613,97.15552416660648 147.43863429833436,96.63380299271375 146.37447747631813,96.10142731077576 145.68887446449662,95.95236082789415 145.6005452421232,96.0055989223838 144.96120991821954,95.8565320761445 143.8129300272667,96.14934141738195 142.9506685706874,96.18660790435388 142.51322861224617,96.34099725980195 141.16725950928958,96.50603348652658 140.85179800077458,96.5752420205863 140.27976113202385,96.94790126354565 140.01897961833674,96.9958143384938 139.23663507724996,96.75624837978467 138.92537972218634,96.19725546558038 138.32810593276736,96.1653127732643 137.83598597948367,96.63380299271375 137.53314293133008,97.5015599018152 137.01157990393767,97.8742103644363 136.649850707523,97.64529692727592 136.09463845255596,97.75176845918395 135.06833701155483,97.02775635602302 134.80334934441635,96.95854861857879 125.44465792547635,98.51303151141474 124.96936258600181,98.61950069344675 124.50247955341911,98.91228945741386 122.57606127482723,98.65676483904099 121.81474750098278,98.47044375787664 121.69276905101287,98.58755996910986 121.57499675451254,98.58223651253138 121.3184213942659,98.47576722958547 120.87677528235872,98.0605342711824 120.75059067894836,97.41105854211855 120.18696611709674,96.94257758495223 120.06078151369366,96.68704016438278 119.79999999999927,96.46876730234362 120.05236920679454,96.66574530436628 120.21220303779046,96.93193022556807 120.72114760483964,97.27264429488787 120.83471374789951,97.53882510702533 120.86836297546688,97.96471065799778 121.3436583149487,98.44382638848037 121.60023367519534,98.56094267900335 121.83577826820692,98.46512028543657 124.48986109307589,98.90164263148108 125.03666104115109,98.57158959721346 134.72763858237158,96.9532249414151 135.04730624432705,96.93725390562031 135.90115539399994,97.67723841713087 136.11566921978738,97.73579774778773 136.65826301441484,97.6399733431208 136.98634298325123,97.85291614743255 137.54155523822192,97.48558908877749 137.79813059846492,96.63380299271375 138.36596131378246,96.14934141738195 138.96323510321236,96.1653127732643 139.03473971179483,96.43150108282498 139.2450473841418,96.68171645045368 139.64463196157885,96.87869338551536 139.98953654420984,96.94790126354565 140.24611190445648,96.90531181455299 140.80132415942353,96.55927083122879 141.2724133454576,96.41020608440158 144.7593145527644,95.87782737449379 145.55007140075395,95.95768464059074 145.65101908348151,95.90977030040085 146.24829287290777,96.01624653262843 147.4218096845434,96.60718437983087 148.263040373884,97.15020051613101 149.23466182007542,98.03391662428476 149.6763079319826,98.55029575792287 151.29147085551813,100.84464061989638 151.69526158639928,101.52599799790914 152.0780215500563,101.98377835529391" stroke="#4dd2ff" stroke-linecap="round" stroke-linejoin="round" stroke-width="0.5"><title>2022-09-24 16.0km</title></polyline><polyline fill="none" points="188.20000000000073,102.32245049668927 187.39690831556436,101.29518531997383 185.06535181236904,97.9673223173777 183.84344349680396,96.89622757899633 181.9825159914726,95.85789431890589 180.49722814498455,95.67754950330709 179.47393390191792,95.94533393939128 178.5542643923327,95.98905367858242 178.16135394456796,96.13660744866502 176.52926439233124,96.33880988700184 175.88592750532916,96.72681713405836 175.45847547975427,96.81971972417523 174.71151385928533,96.55740597797194 174.44813432835508,95.99998360595782 173.8177505330641,95.96719381490038 173.3125799573536,96.46996768366807 172.99738805970992,97.3662012193854 172.6562899786877,97.52467946885008 172.45767590618925,97.71594549289148 172.34973347548657,97.70501603022058 172.11226012792758,97.49189091656444 171.40847547975136,97.57386224732181 170.4715351812374,96.87983305087982 170.13475479744739,96.79786031044205 166.13656716418336,97.42084896190136 164.61242004265296,97.73780440933842 160.52787846481442,98.38810175874823 160.04429637526118,98.51378827346707 159.85000000000946,98.71051420635922 159.58230277185794,98.79248306203954 158.36902985075358,98.65040360637067 156.9096481876404,98.34984926353718 156.70671641791705,98.45914201081177 156.49514925374024,98.41542494743044 155.89498933902723,97.88535178576785 155.79999999999927,97.25144071922114 155.92953091685558,97.87988707775366 156.395842217491,98.317061381651 156.65922174840307,98.43728348504374 156.8837420042655,98.31159673208094 159.63843283583265,98.77062471680983 160.19973347548876,98.42635421770319 164.539019189775,97.73233968134446 166.07611940299103,97.38259554990873 170.35927505330255,96.74867658627409 171.36098081023738,97.52467946885008 172.18134328359156,97.49189091656444 172.28928571429424,97.96185762045207 172.14248400854194,97.98918109768783 172.07340085287797,97.79791636857044 171.96977611941475,97.77059276183718 171.611407249482,97.84709881404706 171.51641791045404,97.95092822437437 171.48187633262933,97.90721061049408 171.43006396589044,97.72141022311553 171.49914712154714,97.67769236058666 172.11657782516704,97.56293274617565 172.33246268656876,98.5247175171171 172.7944562899902,98.49739440243138" stroke="#4dd2ff" stroke-linecap="round" stroke-linejoin="round" stroke-width="0.5"><title>2022-09-22 12.2km</title></polyline><polyline fill="none" points="44.20000000000073,153.32390900594692 40.90663716814379,148.82831973339853 39.795575221236504,147.81522522025625 39.070796460178826,147.35655147226134 37.951769911505835,146.8726697433449 36.72522123894305,146.71137443575935 35.785398230083956,146.94323622060983 34.93318584071676,146.99868121603868 34.42345132743867,147.17509656110633 33.013716814159125,147.35655147226134 32.424336283187586,147.6992972242915 32.07389380530731,147.78498316915648 31.38097345132337,147.55816700273863 31.142035398224834,147.03396435194009 30.576548672557692,146.98860031392178 30.098672566367895,147.41703624606816 29.87168141593429,147.93115285515523 29.815929203530686,148.2486919192197 29.461504424780287,148.44022210847834 29.338053097348165,148.59646969082678 29.194690265485406,148.58134898571006 28.97964601770218,148.3898195226393 28.44203539823502,148.48558437735846 28.28672566370733,148.4553428709114 27.418584070797806,147.8001041977841 27.239380530972994,147.74466039614708 23.046017699107324,148.3999000452677 22.126106194689783,148.60655015748853 18.2075221238847,149.2416140538371 17.904867256631405,149.31217604021003 17.61017699115473,149.549061730424 17.419026548664988,149.5893825488347 15.82610619469051,149.38273789280356 14.922123893800745,149.1760920896122 14.790707964602916,149.28193520528293 14.472123893803655,149.2012928587319 13.974336283179582,148.692234013899 13.914601769913133,148.12772497613332 13.41681415928906,147.78498316915648 13.229646017698542,147.4724805357364 13.02654867255842,147.2960666001636 12.80752212389416,147.13981355898795 12.564601769914589,147.1801369872337 12.054867256636498,146.94827667814388 11.891592920346739,146.94323622060983 11.799999999999272,146.77186025802075 11.799999999999272,147.04404524177153 11.84778761061898,146.92307438360513 12.011061946897826,146.92811484387857 12.552654867249657,147.17005613427318 12.76371681414821,147.1146113941286 12.990707964600006,147.23054121114183 13.305309734500042,147.52288436374147 13.412831858393474,147.74970074516023 13.93053097344091,148.0773219671537 14.046017699110962,148.75775682982203 14.492035398227017,149.1760920896122 14.726991150429967,149.25673449074384 14.953982300881762,149.13073066218203 15.539380530979543,149.30713590275263 17.454867256634316,149.57426224704977 17.92079646017737,149.2970556258042 18.315044247778133,149.19625270626784 27.052212389378838,147.73457969606898 27.486283185840875,147.8001041977841 28.302654867253295,148.43518185296125 29.01946902654163,148.37973899727876 29.0632743362803,148.48558437735846 29.294247787609493,148.58134898571006 29.81194690264965,148.25373219999528 29.827876106195617,147.9966770108258 30.054867256629223,147.44223820615662 30.556637168141606,146.98355986183014 31.157964601767162,146.98860031392178 31.392920353981026,147.47752092160226 31.50840707964744,147.47752092160226 31.834955752216047,147.68417615471117 32.165486725669325,147.74970074516023 32.41637168141824,147.6942568684426 33.12123893805983,147.26078371271797 36.77300884956276,146.67609099404945 38.107079646015336,146.83738645453923 39.57256637167666,147.61865144892 40.938495575224806,148.7829578821802 41.83053097344964,149.99762837558592" stroke="#4dd2ff" stroke-linecap="round" stroke-linejoin="round" stroke-width="0.5"><title>2022-09-17 16.2km</title></polyline><polyline fill="none" points="80.19999999999709,153.30131333835743 76.93294030949619,148.78385328035074 75.8585114222551,147.81683402154886 74.10361090640436,146.87497338739558 73.57833456153094,146.7591279188964 73.49874723654284,146.80949555823463 72.81827560795136,146.69868666164257 71.84333087692721,146.94045110129082 71.06735445836239,146.9807450217886 70.60574797346271,147.13184683483996 69.09756816506342,147.32324158345 68.41311717021745,147.73121131309017 68.09078850404694,147.79668751964346 67.44215180545507,147.559965304863 67.13971997052795,147.01096543349195 66.62240235814534,146.9656348067183 66.10906411200631,147.45419531766674 65.88224023580187,147.99311544773082 65.85040530581682,148.23487147363267 65.50817980838838,148.42122400448716 65.33706705968507,148.5975025662774 65.23360353721364,148.5924660475357 65.01473839350365,148.3910047385907 64.35814296241733,148.46655285732413 63.53043478260224,147.82187064531536 63.21606484892618,147.73624794846182 54.37789240972779,149.2119527361865 53.964038319823885,149.3126813038798 53.518349299934926,149.5947198423055 50.96757553427233,149.181734112688 50.8442151805466,149.28246276221398 50.53780397936498,149.19684342751134 50.04038319823667,148.71837881151805 49.95681650699407,148.13917656793274 49.43551952837515,147.74632121713512 49.212675018428854,147.39375518993256 48.862490788505966,147.14192026720048 48.6157700810727,147.1721405479584 47.85969049374398,146.86489988273024 47.79999999999927,146.72387053077546 47.90744288872884,146.9102306322784 48.392925571111846,147.02607563015044 48.623728813559865,147.16206712377243 48.89830508475279,147.13184683483996 49.2922623434024,147.44412196986377 49.43551952837515,147.71610140290431 49.92100221075452,148.03340822782775 50.02844509948045,148.25501773819997 50.04834193073475,148.6931962928138 50.494030950630986,149.1515154646404 50.80442151805619,149.27238990954356 50.983492999264854,149.1515154646404 51.95445836403451,149.36304548545013 53.52232866617851,149.56953791688647 53.95210022107494,149.28246276221398 54.369933677222434,149.19180698992204 63.29167280765614,147.72617467705277 63.478703021370166,147.77654100682412 64.35416359615556,148.45647978367924 65.00677966101648,148.3859681918766 65.32512896093613,148.5975025662774 65.50420044214479,148.4262605464246 65.83846720707515,148.27516399183878 65.86234340457304,148.01829844040913 66.10508474576272,147.4290119430516 66.59852616064018,146.9807450217886 67.21134856300705,147.0059286999167 67.45806927044032,147.51463534717914 68.1663964627769,147.7614311150537 68.43699336771533,147.7060281260383 69.07369196757281,147.3182048921626 71.58069270450142,146.86993663540125 72.04627855562649,146.85482637532186 72.77450257920646,146.70372343682902 74.08371407516097,146.83467935231965 75.53220338982283,147.57507527847338 76.58275607958058,148.40611437460757 77.81635961678694,149.88179258710443 78.46897568163695,150.88904785185878" stroke="#4dd2ff" stroke-linecap="round" stroke-linejoin="round" stroke-width="0.5"><title>2022-09-11 16.4km</title></polyline><polyline fill="none" points="116.20000000000073,153.3861389648664 115.0734756487218,151.92904605703006 113.81027738719422,150.0368399723884 112.88255145084986,148.79977990709813 111.73946056499699,147.75139297393252 111.16791512207419,147.40017700232784 109.96269973155722,146.79733618946193 109.35802121947563,146.6977354993105 108.57525246069417,146.61386103513723 107.59782692062072,146.8602417564798 106.74050875622925,146.9126629842358 106.14825514507538,147.0751683391136 104.85606544802795,147.23243093624114 104.49160168732851,147.35824055394187 103.9780391154236,147.69373086885753 103.72125782947114,147.7304249456647 103.01718010992408,147.51550200108613 102.71484085388875,146.9388735714747 102.12672887638473,146.90217874435257 101.8243896203494,147.127589275824 101.59659976990588,147.4159031587442 101.33981848394615,148.2074447788873 100.78483957560456,148.58486289938446 100.47421705227316,148.36470277627086 99.75771443179838,148.4380896230905 98.99979547486873,147.82478098342835 98.67674805062052,147.67276280936858 93.71507094463959,148.46429917751811 92.99442669052587,148.6634912113368 89.39534705355254,149.20340130690965 88.96461715453552,149.29251195795587 88.5297456218832,149.60177674393344 86.85238399590526,149.40783131955686 85.85010865395816,149.17195043992615 85.67616004089359,149.29251195795587 85.35725425027704,149.18243406507827 84.88924964846592,148.7159099972705 84.87268311388107,148.2860738574309 84.78570880735424,148.09212184148782 84.30113767096918,147.74090896122289 84.01536494950051,147.33203025064358 83.88283267287989,147.227188859968 83.79999999999927,147.2533992342578 83.85798287100988,147.18525222418612 84.1603221270525,147.44735545242656 84.2762878690919,147.68324684053732 84.74843410455651,147.97155658503834 84.88510801481607,148.2703480545024 84.91409945033593,148.69494249140553 85.3779624185081,149.17195043992615 85.62231880352556,149.28202836260607 85.89980825769817,149.17195043992615 88.48004601815046,149.59129323232264 89.0681579956472,149.24009395276516 98.63947334781551,147.6570367572749 98.83827176275008,147.70945690603548 99.74114789722444,148.39615429907644 99.93166304486294,148.4380896230905 100.47007541863422,148.33849315440966 100.64816566533773,148.5586534265567 100.79726447653957,148.5901047918087 101.29840214750948,148.24938030732665 101.59245813624875,147.34251437408602 102.089454173587,146.89693662335776 102.71069922024981,146.8812102560987 102.93434743704347,147.4159031587442 103.02960501086636,147.39493494875933 103.34851080148292,147.57840640106224 103.737824364056,147.6780048253022 104.02773871915633,147.62034261091685 104.70696663683702,147.18525222418612 105.2578039115433,147.13283136557948" stroke="#4dd2ff" stroke-linecap="round" stroke-linejoin="round" stroke-width="0.5"><title>2022-09-10 13.4km</title></polyline><polyline fill="none" points="152.1999999999971,153.36764499165292 149.04682651622352,148.94593527350662 147.87529170406196,147.86803434618923 147.5263238876687,147.6419342577501 145.99335812283607,146.83742791784607 145.64023592768353,146.7585538500498 145.36189255032514,146.77958695046618 144.601641236055,146.63235500834708 143.26393127324263,146.92681833430834 142.52029747403503,146.98465908237995 142.34165918707004,147.1055985498897 140.75884087703525,147.28963614726672 140.01520707782765,147.71554838457087 139.7036286703442,147.76812981829426 139.02231055262746,147.52099646070565 138.74396717526542,146.97414258912613 138.1457366328941,146.92681833430834 137.62643928708712,147.43160741211614 137.37717656109453,148.0047453888983 137.33978715219928,148.27290795925364 137.03651750223798,148.40961757652985 136.8121810488483,148.61993912485195 136.4756763687583,148.40961757652985 135.76112322091285,148.45694002421806 134.91778433132276,147.80493677952836 134.66021284779708,147.71029023729352 129.7663546608601,148.4884882906481 126.61733555583123,149.08264252137815 125.42502884985151,149.23512311470768 124.98051032183503,149.3507976481851 124.61077061160904,149.61369303372703 124.4404410821844,149.65575613026158 121.8938068983116,149.2403810555261 121.60715476342375,149.33502386845066 121.36204641619406,149.23512311470768 120.88844723681177,148.7881955433113 120.77212463135584,148.14671403918328 120.25282728553793,147.76812981829426 120.06172586228422,147.45789833011804 119.79999999999927,147.2528286975721 120.09080651364638,147.42634922638172 120.2362097704754,147.68925764102096 120.73473522246059,147.99422917193078 120.84690344915725,148.19929488905836 120.90506475188522,148.72509947184153 121.41189896139258,149.22460723093536 121.6694704449219,149.2982183574968 121.86057186817925,149.1825436674044 122.48372868316073,149.33502386845066 124.43628670342514,149.6084351434656 124.59830747531669,149.57688778689408 125.01374535196737,149.2982183574968 134.58958840877676,147.68399949017476 134.90947557378968,147.73658096660438 135.79020387227865,148.43590783236868 136.54630080779316,148.3780692460423 136.64600589818656,148.55684277996988 136.79556353377848,148.61468110002897 136.98251057827292,148.4306497826292 137.33978715219928,148.24661759304945 137.6056673932435,147.3737673298383 138.02941402743818,146.97414258912613 138.1789716630301,146.92156008022357 138.75643031157233,146.95310959412018 139.0140017951053,147.44212378145676 139.75348121553543,147.7260646770119 140.10244903192142,147.63141794252806 140.7962302859305,147.23179585350954 144.5559430696194,146.64287159414744 145.3992819592204,146.6954544804721 146.03490191049423,146.81639484876723 147.06934222335985,147.33170176133717 147.73404282600313,147.74709725334833 148.51922041287617,148.40435952323605 149.17561225798272,149.09315844359662 151.97981792537757,153.01539881994177" stroke="#4dd2ff" stroke-linecap="round" stroke-linejoin="round" stroke-width="0.5"><title>2022-09-03 16.2km</title></polyline><polyline fill="none" points="186.43025210083943,154.39337069135217 186.68189457600602,154.0697116325464 186.91291061879383,153.95486421689202 187.68846447669785,153.21878856978947 187.98961038961352,152.87945818622393 187.95660809777473,152.8115917512623 188.1999999999971,152.60277120232058 184.95339954162046,148.03453877646098 183.67868601985174,146.838877735383 182.83712757831017,146.32718613599354 181.80580595874562,145.8154877459674 180.40733384262785,145.64840108662247 179.41726508784632,145.8729236178733 176.65332314744228,146.27497232567111 175.9974025974043,146.6665741796096 175.70038197097165,146.75533671359153 174.95370511840156,146.52559797036884 174.64430863253438,145.99301652814393 174.0750190985491,145.925137972652 173.54285714285652,146.4263921808124 173.26233766233418,147.2722438811179 172.9570664629391,147.3975536660655 172.75905271199736,147.59595999271914 172.64766997708648,147.5907387866646 172.40840336133624,147.3871111995395 171.6988540870807,147.4602084058206 170.87792207791063,146.82843511755345 170.53964858671316,146.71356613481476 160.92773109243717,148.3217007539606 160.65546218486998,148.58275524144847 160.4945760122282,148.63496592686352 158.36592818946156,148.3425851780121 157.84614209320716,148.20161509626269 157.72238349885083,148.31125853770936 157.4047364400285,148.2120573421962 156.91382734911167,147.75781702940003 156.88082505729108,147.2722438811179 156.74056531703172,147.02162308953484 156.3321619556882,146.76055803275085 156.06401833461132,146.38984261505902 155.79999999999927,146.19665147764317 156.14239877768705,146.45249899228293 156.3280366692088,146.76055803275085 156.79419404125292,147.073835888772 156.87257448433593,147.2148100935883 156.9262032085535,147.74215347489007 157.39648586707335,148.2120573421962 157.72238349885083,148.31125853770936 157.89564553093805,148.20161509626269 160.46569900687246,148.62974486151143 160.89885408709233,148.3530273857723 161.15462184873104,148.27471075853464 170.58090145148526,146.70312348306834 170.8490450725658,146.77100066895946 171.69060351413282,147.4393235038915 172.44965622611926,147.3871111995395 172.6270435446968,147.59595999271914 172.77967914437977,147.59595999271914 172.91168831168397,147.43410227663117 173.2870893812069,147.230473862317 173.3200916730275,146.94330375809295 173.55935828875954,146.36373576115147 173.96363636363094,145.98257368122722 174.18227654698785,145.925137972652 174.64843391902468,145.95124512352777 174.9454545454464,146.48904849864994 175.47761650113898,146.70312348306834 175.74576012223406,146.72923010715385 176.731703590518,146.23320122651785 179.88754774635527,145.70061574544889 180.51046600458358,145.60662930865146 181.21176470588034,145.74238742160378 181.8800611153456,145.7737161490113 182.2265851795346,146.01912363306474 183.23728036668763,146.48904849864994 184.01283422460256,147.073835888772 184.65637891519873,147.66905680309355 185.4236822001476,148.60886059298718 187.72971734148814,151.9084347473654" stroke="#4dd2ff" stroke-linecap="round" stroke-linejoin="round" stroke-width="0.5"><title>2022-09-01 16.9km</title></polyline><polyline fill="none" points="44.19999999999709,204.384335976094 40.81851709564944,199.71623169529266 39.831041106401244,198.828755734703 39.18793699576054,198.47691053078597 38.92654629273238,198.2405947958323 37.951517479817994,197.7994682375538 37.35820207452707,197.704940465057 36.57402996542078,197.61566402390963 35.55336150593939,197.87298967906827 35.29197080291851,197.84148050690783 34.623972339592,197.94125946424538 34.246407990765874,198.08830167023916 32.81913177102979,198.21958888302834 32.04740683826094,198.67646491887717 31.736227429875726,198.7499846977371 31.04748367267166,198.51892206625052 30.740453323094698,197.95701401296174 30.105647330001375,197.91500186877965 29.624356511711085,198.38763586683126 29.37956204378861,198.9652918197753 29.338071455997124,199.24361388912803 28.993699577407824,199.41165643562272 28.80284287359973,199.60595472234127 28.491663465232705,199.3748971907953 28.051863234722987,199.46942089281583 27.632808298105374,199.3538918923914 26.88597771800778,198.77099032324622 26.628736073751497,198.68696775294666 17.35973876295975,200.2413558360713 16.969727237796178,200.32537503875938 16.675144064527558,200.5774315547642 16.463542066838272,200.64044542779448 15.027967729536613,200.45665467859362 13.828889742595493,200.18359252862138 13.638033038805588,200.30962145212106 13.326853630420374,200.19409495456784 13.123549750274833,199.93678470043596 12.907798693810037,199.80550330084952 12.82481751823434,199.61645730470627 12.841413753350935,199.2803732583925 12.729389166339388,199.03881105108667 12.24809834804546,198.71847623814392 12.08628505570232,198.44015039992883 11.799999999999272,198.21433740304929 12.111179408359021,198.44015039992883 12.235651171726204,198.69747058420762 12.754283519010642,199.04406241942706 12.89535151747259,199.71623169529266 13.355897041867138,200.19934616646424 13.61313868612342,200.30437025515857 13.83303880137828,200.1520852337453 14.496888205914729,200.33062623288788 16.463542066838272,200.61418965980556 17.09419900114517,200.2623606538 26.641183250081667,198.69221916893366 26.898424894345226,198.72897906084836 27.79877064924949,199.44841564560556 28.466769112557813,199.36964586727117 28.645178640021186,199.55344176786457 28.806991932389792,199.5796982540014 28.98125240107038,199.40640511707534 29.313177103340422,199.25936790878768 29.578716865144088,198.44015039992883 30.130541682658077,197.90449882562461 30.707260852846957,197.89924730297207 30.993545908568194,198.42964749901512 31.084825201683998,198.40864168860935 31.43749519784251,198.63445355408112 31.83165578178523,198.69747058420762 32.711256242790114,198.23009184084367 33.072224356503284,198.15657107637162 36.52424126007463,197.61566402390963 37.362351133298944,197.67343115635595 37.9017287744864,197.762707464517 39.21283134843543,198.3981387791464 39.90987322320143,198.86551549720025 40.606915097960155,199.47467220285034 41.80184402611121,200.9187554757409 43.8639262389479,203.9170257580954" stroke="#4dd2ff" stroke-linecap="round" stroke-linejoin="round" stroke-width="0.5"><title>2022-08-28 16.3km</title></polyline><polyline fill="none" points="80.19999999999709,204.27217691954502 77.03112974841133,199.89254306269868 76.10004933399614,199.04285485000946 75.58455846078505,198.6837546160532 74.12599901332578,197.92508079759136 73.5785397138643,197.81380734165577 73.03507646769867,197.72782308045498 72.11998026641231,197.92002292042162 71.90019733597,198.0414117834407 71.04104588061091,198.09199035989877 70.6334484459876,198.21337866401518 69.09896398620185,198.41063381672575 68.44361124814895,198.80514099690845 68.19185989146717,198.87089178847236 67.48855451406416,198.64329240142615 67.16887025161122,198.09199035989877 66.63339911199,198.07681679416783 66.14188455845579,198.52696329023456 65.8621608288122,199.3260864019103 65.39861864826162,199.67506518209848 65.25076467686813,199.67506518209848 65.00700542674531,199.47781670698168 64.35165268869969,199.53345099773287 63.54444992599383,198.9012382686269 63.30468672916322,198.81525651082484 54.34153922051701,200.3022072590793 53.95392205229291,200.38818559406718 53.70217069560749,200.59048677807732 53.45041933892571,200.67646444949423 51.61223482980131,200.42864591852413 50.93290577207881,200.256689236925 50.81702022693935,200.35784032195807 50.6651702022682,200.36289786902853 50.4294030587007,200.2314014228541 50.03379378391037,199.85208215752937 49.91391218549688,199.22999022324439 49.40641341884475,198.84560303618127 49.07474099654064,198.39040256693988 48.79102121361575,198.20326298706277 48.58322644301734,198.24878351172447 48.04775530341067,198.02118033365696 47.89990133201718,197.99589100603407 47.79999999999927,198.0818746501027 47.835964479520044,197.99589100603407 47.99181055747613,198.00094887292653 48.58322644301734,198.23866784435813 48.83098174642146,198.19314730737824 49.09072520966947,198.38028693795786 49.37844104587202,198.7545633861555 49.93389245189246,199.1692977724815 50.04178589046933,199.81667882956026 50.4893438579129,200.2668043577396 50.741095214601955,200.35784032195807 50.96887025159958,200.2263438579903 53.49037987173506,200.65623442697324 53.89797730636565,200.37301296109217 54.097779970394186,200.31737992081617 63.26472619635024,198.78490996082473 63.52846571287955,198.85571853915462 64.35564874198462,199.518278017571 64.50749876665577,199.5486239717393 64.97104094722454,199.43735535255473 65.35466206216006,199.66494990101273 65.5185002466751,199.49298970357995 65.8621608288122,199.33620177475677 66.10592007893138,198.52696329023456 66.42160828810665,198.1779737827419 66.64538727184117,198.0414117834407 67.20483473112836,198.06670108023172 67.46058214109144,198.55225225827235 68.17587567834926,198.82537202201638 68.64341391218477,198.6584657370404 69.07099161322185,198.38028693795786 69.37868771584544,198.30441963316844 72.13596447952295,197.94531229942731 72.36773556980916,197.82898101425235 72.82728169708571,197.74805468913473 73.51859891466302,197.86438622635615 73.61050814011105,197.8188652332028 74.20991613222213,197.93519654988268 74.74938332511374,198.2437256783851 75.14898865318901,198.3752291224373 75.98416378886031,198.91135375653175 77.07109028120976,199.90265828211705 78.30187469166412,201.56657459455528 79.79240256537378,203.7816430035018 79.90828811051688,203.84738503610424" stroke="#4dd2ff" stroke-linecap="round" stroke-linejoin="round" stroke-width="0.5"><title>2022-08-26 16.9km</title></polyline><polyline fill="none" points="115.73340070742779,203.15500470885308 114.21081354219132,201.0052851234068 113.13845376453901,199.8086418908024 112.64320363820661,199.3683092029496 111.87781707933391,198.8813471523572 110.76043456291154,198.34257340535623 109.42203132894792,198.17679534124545 108.73441131885193,198.31149007306158 108.46018191005714,198.4565454077274 107.60065689741896,198.4876286221588 107.19954522487023,198.64822482775344 105.62784234462015,198.82436182642778 104.9484082870149,199.2284377590986 104.62915613946097,199.29578333294558 103.94562910561217,199.0574830776859 103.63865588681074,198.50317021990122 103.05745325922908,198.4824480881689 102.55401718039502,198.97977615178024 102.25932289034972,199.80346153570645 101.94825669530474,199.95887188359484 101.75997978778105,200.14018315824433 101.45300656897234,199.9277898645305 100.77766548762884,200.02103584599172 99.93451237999761,199.33722670407587 99.64800404245398,199.2336181920764 90.13592723598049,200.8343383816973 89.77983830217636,201.08816811715587 89.50151591713802,201.145150071221 86.99252147549123,200.73073392407605 86.8206164729636,200.85505923955498 86.51773623040935,200.73073392407605 86.06341586659983,200.30595271452694 85.95699848408913,199.67395243020655 85.44128347649166,199.2698812031922 85.13431025770842,198.85544474199924 84.77412834764255,198.6119612273469 84.56129358261023,198.6689468696968 84.04148559879468,198.4410037910311 83.79999999999927,198.4410037910311 84.23794845880911,198.46172594521704 84.54901465386502,198.63268328894264 84.75775644265013,198.5860586345916 84.95831227892268,198.67930788644298 85.29393633147265,198.97459568444538 85.4494694290006,199.25952034637885 85.89151086406491,199.5340821038335 86.03067205660045,199.83972400668063 86.08797372410845,200.32149357361777 86.54638706417245,200.72555369383554 86.79196563920414,200.82397794855933 87.04163719050484,200.6944722976259 87.72107124811009,200.86541966428558 89.57928246588926,201.1347897222513 90.24234461848391,200.79289663230884 99.62344618494535,199.2336181920764 99.88130368872953,199.29060290840061 100.74492167761491,199.96405221766327 101.47756442647733,199.92260952555444 101.6044466902531,200.08838002459015 101.74770085901764,200.14018315824433 101.98100050530411,199.9277898645305 102.27569479535669,199.79310082339725 102.55401718039502,198.9227909724541 103.01652349672077,198.4669064820082 103.6591207680649,198.4824480881689 103.89242041435136,199.00567847795173 104.00702374937828,198.99013708435086 104.34264780191734,199.18699427013416 104.69873673572874,199.25952034637885 104.9443153107677,199.19735514658169 105.69332996462617,198.77255691099344 109.45068216271466,198.1664341883843 110.0769075290591,198.270045590707 110.23244062657977,198.22342049438885 110.8300151591684,198.34775395829638 112.09474482062069,199.00567847795173 112.71278423446347,199.43047412496162 113.7032844871137,200.30595271452694 114.94754926731184,201.98432902101194 116.20000000000073,203.83356581161934" stroke="#4dd2ff" stroke-linecap="round" stroke-linejoin="round" stroke-width="0.5"><title>2022-08-21 16.1km</title></polyline><polyline fill="none" points="152.1999999999971,204.27945014581928 151.75937616968076,203.76276062035322 149.0347847785415,199.90015472367304 147.95545851528732,198.91269673410352 147.27633187773245,198.4829142120725 146.12019962570412,197.9098632444984 144.7457766687403,197.7614825595083 144.18792264504373,197.8689306999513 143.85240174672435,198.01219441187277 143.04796007485857,198.04801025497727 142.52244541484106,198.2168559151578 141.20865876481184,198.3754678176956 140.1737991266382,198.86664884057973 139.45020586400278,198.6722237825452 139.2723393636843,198.49314718607275 139.08234560200435,198.08382606412124 138.52853399875312,198.05312680122734 138.03940112289638,198.513613125775 137.8008983156542,199.1020041512238 137.7928134747308,199.31689250236013 137.26325639426796,199.69550233800328 136.91156581410542,199.4703834335014 136.26073611977336,199.55224500850818 135.37948845913706,198.88199814465042 135.0763069245113,198.81548444861255 127.41996257018764,200.11503853567046 126.47403618216049,200.2071312238877 125.63725514660109,200.41178083854174 125.44726138490296,200.61131314566592 125.22492825951849,200.68805606016758 123.43817841546843,200.4527106284513 122.64586400499684,200.2429449864576 122.48820960698504,200.381083466993 122.22949469744344,200.299223687638 121.70802245790037,199.80806128728364 121.70398003742594,199.39875440989636 121.6271740486518,199.20944847954888 121.10974422957952,198.83595021371002 120.9480474111042,198.55966144955528 120.43466001247725,198.18104023211708 120.49125389893743,198.06335989163563 120.38210854647332,197.9712619781858 120.38615096693684,197.8791638402472 120.53572052401796,197.96614542085445 120.59231441048541,197.88939697776368 120.54380536494136,197.9712619781858 120.38210854647332,197.8689306999513 120.49529631940095,198.09917568623132 120.28509045539613,198.2322054832075 119.79999999999927,198.03266061210525 120.24466625077912,198.2219724385468 120.53167810356172,198.1912732878809 120.95208983156408,198.51872960895707 121.12995633187893,198.8103680056156 121.59483468496182,199.09688774702227 121.70398003742594,199.30154337495696 121.77674360573656,199.83364281990362 122.29821584529782,200.30433992904 122.49225202744128,200.3657347718763 122.69841547098986,200.2275962352178 123.28052401746754,200.39131592693593 125.19258889581761,200.67270748972442 125.35024329383668,200.63177793809518 125.71810355583148,200.35038607051683 135.13694323143864,198.74897063549724 135.3431066749872,198.8103680056156 136.2162694947001,199.4959651947538 136.41030567686175,199.5317796313866 136.9398627573246,199.45503436844956 137.214747348713,199.66992071185086 137.72813474733994,199.36293984717122 138.01918902057878,198.4829142120725 138.46385527136226,198.06335989163563 138.6578914535312,198.01219441187277 139.09447286337672,198.02754406308668 139.40573923892225,198.55966144955528 140.14145976293366,198.8052515619238 140.38804741110653,198.74385418347447 141.10355583280398,198.3089532299673 144.8872613849053,197.72054985418072 146.22126013723755,197.8842804093474 146.8518777292593,198.26802111776487 147.4178165938829,198.51872960895707 147.97971303805025,198.91781316324705" stroke="#4dd2ff" stroke-linecap="round" stroke-linejoin="round" stroke-width="0.5"><title>2022-08-19 15.6km</title></polyline><polyline fill="none" points="188.20000000000073,204.23917763299323 188.11582333291517,204.1072880686297 188.07173079302083,204.02105233326438 185.73081776567778,200.728727904072 185.01732030186395,199.84599082105342 183.97513299517232,198.89727893018426 182.2635407645721,197.97391059850997 180.92072250402634,197.7811165365274 180.20722504020523,197.918101893134 179.96271186440936,198.03479272776895 179.07284424099635,198.10074825612173 178.72010392180528,198.24280592285868 177.19289867622865,198.4203772488181 176.59965359395937,198.7653705618104 176.2469132747683,198.88713214910968 175.59354200172675,198.70448961975853 175.40915501669951,198.48633209837863 175.24080168254295,198.10582175350646 174.7156996164813,198.07538075896082 174.58743040949412,198.13118923006186 174.15051342323568,198.58780087098785 173.9100086601502,199.3640278892599 173.5933440554254,199.51115407321777 173.4089570703909,199.69379267027034 173.11233452926535,199.49086084082228 172.43090436719285,199.57203370449497 171.50496102932811,198.8668385787023 171.29251515526266,198.83639820248573 166.49043671904292,199.5872535968483 165.34803909439142,199.85613734245635 162.34172955585746,200.29750836405947 161.93687987132944,200.388825857317 161.48793764691436,200.69828904052702 158.98267969812514,200.28228876020148 158.78626747494127,200.37360629056275 158.52972906098876,200.29750836405947 158.00061858221306,199.7800383649519 157.98458493133512,199.35388123458688 157.88437461338253,199.14587420821044 157.39935667450118,198.8211780051097 157.28712111838468,198.59287430241238 157.03459111716074,198.37471613109665 156.7620190523303,198.20729155668232 156.55358159098978,198.24280592285868 155.9924038104691,198.00435167550313 155.80400841272058,198.050013244625 155.83206730174425,198.22758548433922 156.13269825559473,198.51677275901238 156.19683285908468,198.46603831087486 156.0525300012414,198.26309983127794 155.92426079425422,198.29354067331224 155.79999999999927,198.16670366838662 155.86012619077155,197.99927816438867 156.55358159098978,198.24280592285868 156.80210317950332,198.19714458873204 156.97446492638846,198.308761085038 157.28311270567065,198.58780087098785 157.39935667450118,198.8059578015309 157.9404923914335,199.17631433298448 158.0166522330801,199.80033144074696 158.52572064826745,200.29243516346105 158.7902758876735,200.368533100278 158.97065445997578,200.26199594547143 159.50778176419772,200.39897223172738 161.46789558332603,200.68306959947222 161.997006062109,200.35331352527282 171.28449832982733,198.8211780051097 171.54504515650115,198.8668385787023 172.37478658914188,199.52637399032028 173.0802672275131,199.47564090929518 173.39292341952387,199.69379267027034 173.90199183472578,199.3589545622599 174.16654707410635,198.51677275901238 174.7116912037527,198.06523375528195 175.2969194606012,198.0906012593332 175.52940739825135,198.57258057261788 176.05851787702704,198.800884398981 176.3270815291362,198.83132480405038 176.54754422863334,198.77044396916972 177.180873438072,198.34934881942536 178.97664233576506,198.12104224151335 180.97283186935238,197.7608223670104 182.2875912408672,197.94854301547457 183.40994680193035,198.51677275901238 184.08336013856024,198.94801279435706 185.20571569961248,199.9931151124656 186.42026475318562,201.69768547186322" stroke="#4dd2ff" stroke-linecap="round" stroke-linejoin="round" stroke-width="0.5"><title>2022-08-14 16.5km</title></polyline><polyline fill="none" points="44.20000000000073,255.32866997132078 41.75081605105515,251.86680074327887 40.87610749785017,250.73961094395418 39.933807829183934,249.87406700040447 38.39511596515149,249.01353530493725 37.84245919745081,248.8424330607195 36.9478709044015,248.74681675757165 36.820640569399984,248.67133002867922 35.89424469260484,248.97327602424048 35.047367775183375,249.01353530493725 34.617965394529165,249.17457199162163 33.15084059394212,249.3356079804471 32.53456865873159,249.69290408887173 32.19661308135619,249.79355025985933 31.496846238798753,249.55199899155195 31.3338323720709,249.3456727065677 31.23840962081522,249.04372973685167 30.610209841695905,248.99843807979414 30.141047981349402,249.47651389823295 29.882611363358592,250.25651913564434 29.357786231437785,250.6238707702505 29.031758497982082,250.40245378138206 28.359823291197245,250.45277594014988 27.632224812867207,249.87406700040447 27.254509755792242,249.7432272084443 23.1950668793761,250.39742156176726 21.401914345326077,250.7597396330275 18.400073628668906,251.20256803436132 18.00645477973012,251.30824221397415 17.75994600564809,251.51455760340104 17.51741317953929,251.58500649845155 15.795827708931029,251.36359523575447 15.040397594802926,251.18747169845665 14.81774450852754,251.29314592098308 14.57521168241874,251.18747169845665 14.110025770027278,250.75470746177234 14.018578966744826,250.1609064708282 13.509657626698754,249.7583241310167 13.334715916069399,249.4614168611697 13.123990673702792,249.28528430889128 12.857602159776434,249.12424810199082 12.666756657265068,249.16953960571846 12.396392195365479,249.00347048886397 11.939158178916841,248.9430815350861 11.799999999999272,248.7115896365067 11.891446803292638,248.81727089954074 11.963013866738038,249.18966914520934 11.915302491110197,249.18966914520934 12.257234016455186,249.15947483187483 12.70254018898413,249.68787177317063 13.060375506203854,249.5872253159796 13.263148852624,249.73819489954622 13.947011903299426,250.0200031479726 14.046410602542892,250.1307129466186 14.094121978163457,250.65406389378404 14.543404098665633,251.16734324106073 14.841600196356012,251.26798541907192 15.052325438704429,251.14218265396994 15.76004417720469,251.3183064058685 17.529341023440793,251.56991031789585 17.684402994240372,251.53971793838355 18.07802184317552,251.24785700527354 21.922763529273652,250.61883858059446 23.127475763896655,250.3420671009335 27.36186035096398,249.72813027973825 27.564633697384124,249.7885179577861 28.35584734323129,250.42761486928066 29.063566081727913,250.37729267645045 29.15103693704441,250.5030980307638 29.32995459565427,250.5785810389316 29.858755675555585,250.2716158497169 30.137072033383447,249.41612571316364 30.657921217331022,248.96321119724962 31.21057798502443,248.99340567004037 31.492870290836436,249.49664327145 32.18866118542792,249.76838874266832 32.45902564732023,249.7029687182403 33.15084059394212,249.28025193798385 34.89230580439471,249.02863252395764 35.671591606333095,248.8424330607195 36.029426923560095,248.83740062985453 36.27991164560808,248.73171942407862 37.14666830286296,248.6864273867286 37.46474414038312,248.77701140620047 38.45873113265043,248.85249792042305 38.856325929562445,249.06385934448554 39.41295864522908,249.5117402941978 40.041158424348396,249.8891638698151 41.051049208497716,250.8503185989248 41.81443121856137,251.9120889047881" stroke="#4dd2ff" stroke-linecap="round" stroke-linejoin="round" stroke-width="0.5"><title>2022-08-12 16.3km</title></polyline><polyline fill="none" points="80.20000000000073,255.65094542181032 77.1950340798503,251.45365792280427 76.17366114897959,250.61015008898175 76.00014605647084,250.39552667202952 75.2824245374868,249.92135422740466 74.32414800389597,249.47712398175645 73.574878286272,249.28245960270579 73.21207400194908,249.2275540791452 72.06845180136588,249.47213260026547 71.11411879260413,249.5669687330228 70.79074975657568,249.74166623355268 69.36319376826214,249.8315103399691 68.68885102239074,250.2757363145247 68.420691333984,250.3356315419369 67.71480038948357,250.11601523222635 67.57677702045476,249.97126740356907 67.403261927946,249.5769514696476 66.85511197663072,249.5370205069339 66.38977604674074,250.0012152768286 66.15316455696302,250.5652290120961 66.13739045765033,250.77486023584788 65.77852969814921,250.98948144408132 65.64444985394584,251.14919874154293 65.52220058424064,251.12923411720112 65.30136319376106,250.93457846324964 64.64673807204963,251.00944614411856 63.61353456670986,250.270745041169 59.25199610515483,250.98449026739036 57.958519961051934,251.27397739864682 54.75243427457826,251.75811458940007 54.38174294061173,251.83298059762456 53.9085199610563,252.13244311001108 52.20886075949238,251.89786434843336 51.40438169424306,251.70820383278624 51.021859785782,251.2689862604566 50.61173320350281,249.85646699734207 50.18188899708548,249.39726179678473 49.48388510223231,249.16266562766396 48.38364167477994,249.0528541418389 48.09970788705323,248.95302523444116 47.94196689386081,248.80827283843246 47.79999999999927,248.34905457818968 47.97351509250075,248.8432131240006 48.10365141187867,248.9280679653384 48.722784810121084,249.09777706193927 49.259104186952754,249.1127513564752 49.819084712751646,249.23254549375633 50.31202531645613,249.4920981221876 50.789191820837004,250.14596298788092 51.13227848101087,251.31390647971057 51.44381694254844,251.723177066855 51.85000000000218,251.7830699423721 53.928237585198076,251.25900398207887 54.156962025317625,251.39376451206772 54.27132424537558,251.6383286599812 54.27526777019739,251.87790012957703 54.756377799410984,251.73815029485922 59.04298928919161,250.97949909003 63.574099318408116,250.26575376714027 63.78704965920406,250.31566647694126 64.66645569621323,250.99946379545509 65.34079844206644,250.93956964671452 65.56557935735327,251.85294484079714 66.05457643623231,251.76310566133907 66.12555988314853,251.6882395112043 66.08218111002861,251.44367569444876 66.25175267770464,251.3488443901624 66.25175267770464,251.14420758646884 66.41343719571523,250.79482505212582 66.38188899708257,250.4903604289757 66.27935735151186,250.31067520901343 66.31090555015544,250.11102393726105 66.40555014605707,249.92135422740466 66.84328140214711,249.5370205069339 67.43481012657867,249.54201187964645 67.66353456669822,250.03116312574275 68.27083739045702,250.28571885917336 68.68490749756893,250.26575376714027 68.75194741967789,250.39053541491376 69.06348588120818,250.20585842617584 69.35136319377852,249.8464843364236 69.77726387537405,249.75164892286193 72.23802336904191,249.40724457936813 72.90053554041151,249.24751973354068 74.33992210321958,249.40724457936813 76.10267770204518,250.37057037965133 77.13193768257042,251.30891534694092 79.8569133398305,255.17184996302603 80.01465433301564,255.27665262663504" stroke="#4dd2ff" stroke-linecap="round" stroke-linejoin="round" stroke-width="0.5"><title>2022-08-07 17.9km</title></polyline><polyline fill="none" points="116.20000000000073,259.9251756526646 113.05654885655895,255.56801468535195 112.1359667359684,254.75335480585272 111.45114345114052,254.30812569052068 110.52307692308023,253.86762747778994 109.64365904366423,253.67816417471477 109.44158004158817,253.65448118968197 108.03825363825672,253.96709530107546 107.58918918919153,253.98604152104235 107.15135135136006,254.13287437794133 105.86403326402797,254.2465510050788 105.2690228690335,254.61126102307026 104.8985446985389,254.72019964150968 104.25862785863137,254.52126799542748 103.95925155925215,253.98604152104235 103.43160083160183,253.9813049670156 102.97505197505234,254.3981192665742 102.7243243243247,255.1606871173135 102.23409563409587,255.482760470597 101.91226611226375,255.26962402457502 101.33970893970763,255.350142390158 100.52765072764669,254.75335480585272 100.23950103950483,254.68230798661898 96.71060291061076,255.23173296488312 95.37837837839106,255.5111785652698 91.92806652806394,256.0558542512954 91.5575883575948,256.13637080709304 91.14220374220531,256.41107295559414 89.75010395010395,256.24056842771097 88.72474012473685,256.00849148485577 88.5937629937689,256.11742575181415 88.36174636174474,256.0558542512954 87.89771309771822,255.63432337541963 87.8378378378402,255.15121432673186 87.74802494802861,254.98544007633245 87.28399168399483,254.66336214378316 87.17920997922556,254.44548421360014 86.99958419959148,254.274970104143 86.71891891891573,254.09024554749703 86.5392931392962,254.14234744429996 85.89563409563198,253.91499314321118 85.6972972973017,253.70658373560582 85.48399168399555,253.77763253680314 85.4690228690306,253.82499832408212 85.55135135136516,253.76815937164793 85.61496881497442,253.82026174824205 85.43908523908976,253.96709530107546 85.0910602910626,253.51711956015424 84.75426195426917,250.9829375409281 84.69438669439114,249.4433915094378 84.24158004157653,244.00943646462838 84.10311850312428,243.07131863516042 83.79999999999927,242.42694028887126 83.85613305613515,242.36060654951143 84.12182952183502,242.50748823173853 84.24158004157653,242.38429718516272 84.18918918919735,242.27058198762825 84.06569646570279,242.2137242501267 83.8261954262016,242.37008280570808 83.81496881496787,242.469583340564 84.07692307692923,242.88179682512055 84.16673596674082,243.2845294433173 84.88523908524076,251.2150478323092 85.17338877338989,253.5692223107144 85.40166320166827,253.93393939141606 85.55509355510367,254.05235321016517 85.83201663202271,254.12340130898156 85.83575883576123,254.18497621123242 86.02661122661084,254.1044551634186 86.16881496882343,254.12340130898156 86.5355509355577,254.60178808370983 86.86486486486683,254.5117950316744 87.16049896050026,254.71072673163508 87.13430353430522,254.49284909647758 86.92474012474486,254.26076055749218 86.99958419959148,254.2560240406674 87.20166320166754,254.44548421360014 87.30270270270557,254.64915275492604 87.77422037422366,254.9664943976968 87.84532224532813,255.09911393270522 87.89022869023393,255.57275102454514 88.30187110187035,256.0037552046888 88.58627858627733,256.10321695362654 88.78835758836067,255.98481007758164 89.34968814969397,256.13163454423557 91.15343035343176,256.38739182086283 91.58752598753563,256.10321695362654 100.30311850311409,254.63967982581744 100.54636174636471,254.7012538191957 101.32099792099689,255.32646053716599 101.9983367983441,255.28856953903596 102.20041580042016,256.1458433308835 102.76923076923049,256.01322776438974 103.43908523908613,255.97060122551557 104.49438669439405,255.7858856235216 104.53929313928893,255.30751504323416 104.38960498960296,254.95702155452454 104.40083160083668,254.71072673163508 105.14178794178588,254.63494336029908 105.80415800415722,254.2133953603261 106.4066528066578,254.17550315640256 109.16465696466548,253.69237395805249 110.51559251559593,253.84868119368184 111.81413721413264,254.52600447633085 112.28191268191222,254.83861079844428 112.99667359668092,255.487496821308 113.88731808730881,256.59578525626785 115.78461538461852,259.2858436136412 115.66860706860462,259.49895559145443 115.81081081080993,259.7357451553835 115.77338877339571,259.8162532420574 115.87068607069159,260.0719835825985 115.81455301454844,260.40348309387264 115.51517671518013,260.71603689913536 115.45530145530574,260.88178399627213 115.23076923076587,261.03805911154996 114.81538461538366,261.54950006318904 114.78544698545011,261.521086873101 114.78918918918862,261.69156566746824 114.88648648649178,261.7862757498733 114.7218295218263,261.56844217708567 114.58336798336677,261.6347394949771 114.70686070686861,261.61106189586644" stroke="#ff0000" stroke-linecap="round" stroke-linejoin="round" stroke-width="0.5"><title>2022-08-06 24.1km</title></polyline><polyline fill="none" points="151.79436619721673,256.0860330069845 150.27323943662486,253.76532000995212 145.0253521126724,246.6637286422265 142.80281690139964,244.65292113371106 141.15492957746028,243.61541000587022 139.12676056338387,242.62067004519486 137.85070422536955,242.2569985451555 136.64225352113135,242.12864349834126 134.22535211269133,242.68484719488333 132.07887323944306,242.9094668082398 131.50422535213147,243.14478190851514 128.8591549295743,243.35870411856013 126.5605633802843,244.52456998029083 124.8873239436507,244.00046727254085 124.22816901409533,242.86668216922408 123.00281690141128,242.84528984106146 122.06478873240121,243.74376263670274 121.49859154930164,245.50859015994502 120.39154929576762,246.25729295430938 119.89295774647326,245.91502970028523 119.80000000000291,245.63693971440807 120.00281690141128,245.58346075873123 120.07042253523105,245.28397793781187 120.58591549297125,244.79196798122575 121.40563380283129,244.41761052646325 121.50704225352092,243.5405375416085 121.49859154930164,244.3534347846362 121.34647887324536,244.503178101113 121.57464788732614,244.19299520193454 121.4732394366365,243.26243919575063 121.55774647888029,243.56192968150572 121.304225352098,243.48705716653058 121.6253521126855,243.57262574926426 121.60845070421783,243.84002697291726 121.69295774649072,243.35870411856013 121.32957746479224,241.6580065418966 121.03380281690625,241.7863623535959 121.38028169013705,243.45496892409574 120.97464788732759,243.71167449853965 120.6957746478729,243.6261060664183 120.81408450705203,242.855986005874 120.66197183099575,241.90402166441345 120.46760563379212,241.81845127391716 120.18028169013269,241.94680682488251 120.47605633804051,243.6368021255039 121.2873239436667,243.65819423932408 121.46478873238812,244.42830647835945 120.32394366197695,245.27328210177075 119.89295774647326,245.78668059771007 120.3408450704228,247.75467725382623 121.41408450705057,247.48728928210767 121.43098591548187,246.82416320654738 121.68450704227871,246.79207631974714 121.84507042253244,246.41772834408766 122.28450704225543,246.21451012865145 122.34366197184136,245.8829424442083 122.10704225352674,245.5406775681331 121.88732394365798,244.11812328514497 122.05633802816737,243.72237054601283 122.96056338028575,242.9094668082398 124.38873239439272,242.8345936747719 124.82816901407205,243.95768322451477 126.23943661973317,244.46039432538964 127.10985915493802,244.32134689416853 128.2591549295612,243.6368021255039 127.35492957746465,244.68500888950075 128.84225352112844,244.23577912252222 128.8000000000029,243.86141903166572 129.03661971831752,243.6368021255039 128.89295774647326,243.51914539591962 128.09014084507362,243.6261060664183 127.01690140844585,244.36413074520533 126.36619718309521,244.51387404143316 125.08169014085433,244.10742729127378 124.70140845071,243.66889029408048 124.34647887323081,242.855986005874 123.04507042252226,242.82389750704897 122.12394366195804,243.6474981831343 121.53239436617878,245.4871985472564 120.29014084506343,246.25729295430938 119.93521126759879,246.000595652833 119.89295774647326,245.78668059771007 120.36619718310249,245.23049874314893 121.38873239437089,244.55665778821276 121.60845070421783,244.07533930084173 121.71830985913402,243.42288066862238 121.43943661973026,243.50844932087784 121.67605633802305,243.6368021255039 121.38873239437089,243.2731353041163 120.99154929578071,243.2731353041163 121.43943661973026,243.294527516402 121.53239436617878,243.48705716653058 121.2112676056422,242.10725097022078 121.32112676058023,241.95750311136362 121.35492957745737,242.05376962467562 121.2873239436667,241.8719327788276 121.27042253522086,242.5671890472804 121.60845070421783,243.6368021255039 121.49859154930164,244.3427388226046 120.39154929576762,245.2198028998755 119.91830985915294,245.85085517504922 120.29014084506343,247.7332862494004 121.35492957745737,247.51937588651344 121.51549295773293,247.35894273420126 121.38873239437089,246.90972817425063 121.60845070421783,246.8027719501115 121.71830985913402,246.90972817425063 121.8112676056262,246.2038144186008 122.14929577463772,245.4871985472564 122.03943661970698,244.77057617449464 121.80281690140691,244.42830647835945 121.86197183097829,244.2250831445417 122.03943661970698,243.71167449853965 123.01971830985713,242.78111282169994 124.3633802816912,242.78111282169994 124.8873239436507,243.85072300301545 126.57746478874469,244.42830647835945 127.05915492957865,244.25717107411765 128.4619718309841,243.33731192366395 132.12957746478787,242.98433987075987 132.38309859154833,242.80250516725937 133.68450704225688,242.57788524974603 134.49577464786853,242.6741510068896 135.4929577464718,242.23560605185048 136.94647887323663,242.1607322795753 137.72394366197113,242.40674583621148 139.00845070423384,242.4281382831905 141.1971830985931,243.50844932087784 143.1577464788861,244.82405568053218 145.53239436619333,247.10224901277252 149.81690140845603,253.28405762840703 152.20000000000437,256.38547487992037 149.93521126760606,258.94137896679604 148.7436619718501,259.88244416460657 148.71830985915585,260.10701488484483 148.4225352112844,260.33158496681426 148.3887323943709,260.8448856146206 148.5323943662006,260.834191885122 148.36338028170576,261.0694535994626 148.32112676056568,260.4171353063575 148.4816901408558,260.4706042215257 148.32112676056568,260.7807232159903 148.10985915493075,260.7058670184415 148.253521126775,260.59892947032495 147.85633802818484,260.9518228298766 147.7887323943578,261.1550031401057 148.13521126762498,261.53997492671624 147.53521126761188,262.2136710401319 147.62816901410406,262.11742908989254 148.00000000001455,262.32060640291456 148.1605633802901,262.2992193419559 148.10140845071146,262.053267724601 148.21126760564948,262.25644520261994 148.2704225352427,262.16020330447645 147.47605633805506,262.3419934581034 147.81408450703748,262.10673553261586" stroke="#4dd2ff" stroke-linecap="round" stroke-linejoin="round" stroke-width="0.5"><title>2022-07-23 16.3km</title></polyline><polyline fill="none" points="188.20000000000437,258.7696045810517 186.6748648648645,256.6917968294947 186.30999999999767,256.3685766026756 185.67513513512677,255.306556503936 181.6397297297226,249.68219182764733 179.4140540540684,247.59487118523975 178.0348648648578,246.71743857149704 176.1375675675663,245.7845767812396 173.71486486486538,245.2673409831914 172.70054054055072,245.23039541894832 172.02918918918294,245.37817755584547 171.5694594594679,245.2765773711144 171.47459459461243,245.8954125133314 171.2118918918859,246.00624806532142 169.3218918919083,246.38493484233186 166.81162162162946,246.6804937927518 165.811891891899,247.33626064068085 165.27918918919022,247.47480212577648 163.9875675675721,246.9483429852844 163.48405405406083,246.0801383332655 162.44783783785533,246.05242949218518 161.4918918918993,246.8744536579179 161.02486486486305,248.31528110341605 160.36810810811585,248.66624728150055 160.2002702702739,248.8786733014349 159.41945945947373,248.58312387621118 158.2956756756903,248.72166282873513 156.62459459462116,247.4470938512677 155.8000000000029,247.4470938512677 156.66108108108892,247.42862166200212 158.22270270271838,248.66624728150055 159.55081081083335,248.62006762440433 159.86459459460457,249.66372024369048 159.9302702702771,250.26404416192963 159.79891891893203,250.3564012188508 159.9156756757002,250.5688219752774 162.3894594594749,250.08856540923443 162.54270270269626,249.86690739212645 170.13918918920535,248.69395506073488 169.59189189189055,248.01049322048493 168.65783783783263,247.31778842140193 168.71621621622762,247.17001048707607 169.05189189189696,247.16077435555053 169.08837837839383,246.42187978119182 169.37297297298937,246.18173732097057 171.7300000000032,245.77534046208166 172.3137837838076,245.80304941577197 172.64216216217028,245.59985016080464 173.61270270270325,245.45206850420072 176.18864864864008,245.7291588476437 177.98378378377674,246.6435489939904 179.57459459461825,247.6410515364696 181.52297297296172,249.4512966686234 186.55081081081153,256.46092539519304 186.41945945945918,256.71950134909275 186.2370270270403,256.76567552344204 186.39027027027623,256.9873111252964" stroke="#4dd2ff" stroke-linecap="round" stroke-linejoin="round" stroke-width="0.5"><title>2022-07-16 10.3km</title></polyline></svg>