<?xml version="1.0" encoding="utf-8" ?>
<svg baseProfile="full" height="300mm" version="1.1" viewBox="0,0,200,300" width="200mm" xmlns="http://www.w3.org/2000/svg" xmlns:ev="http://www.w3.org/2001/xml-events" xmlns:xlink="http://www.w3.org/1999/xlink"><defs /><rect fill="#222222" height="300" width="200" x="0" y="0" /><text fill="#FFFFFF" style="font-size:12px; font-family:Arial; font-weight:bold;" x="10" y="20">Over 10km Runs</text><text fill="#FFFFFF" style="font-size:4px; font-family:Arial" x="10" y="280">ATHLETE</text><text fill="#FFFFFF" style="font-size:9px; font-family:Arial" x="10" y="290">Allen</text><text fill="#FFFFFF" style="font-size:4px; font-family:Arial" x="120" y="280">STATISTICS</text><text fill="#FFFFFF" style="font-size:3px; font-family:Arial" x="120" y="285">Number: 20</text><text fill="#FFFFFF" style="font-size:3px; font-family:Arial" x="120" y="290">Weekly: 1.8</text><text fill="#FFFFFF" style="font-size:3px; font-family:Arial" x="141" y="285">Total: 313.5 km</text><text fill="#FFFFFF" style="font-size:3px; font-family:Arial" x="141" y="290">Avg: 15.7 km</text><text fill="#FFFFFF" style="font-size:3px; font-family:Arial" x="167" y="285">Min: 10.1 km</text><text fill="#FFFFFF" style="font-size:3px; font-family:Arial" x="167" y="290">Max: 24.1 km</text><polyline fill="none" points="52.75,56.36187484657421 49.36575342465221,51.53627542540562 47.79215442091663,50.151058426617965 46.6775217932809,49.436091791805666 45.52758405977147,48.86155717376096 43.822851805722166,48.70196298158771 42.77378580323057,48.94454594014678 41.71967621418662,49.04030202754075 41.15983810710168,49.21266249465043 39.43997509339897,49.436091791805666 39.02135740971789,49.557381538244954 38.421170610217814,49.93401613016249 38.098381070980395,50.01061940771615 37.21070983811296,49.780809201602096 36.76183063512508,49.07222068008923 36.08599003735799,49.00199961592443 35.435367372341716,49.646752730652224 35.14788293897436,50.31703127320361 35.12770859276861,50.591523544793745 34.48212951433743,51.063901851714036 34.06855541719051,50.81494630692032 33.25149439602683,50.897931634597626 32.25286425903323,50.1255240906612 31.80902864258678,49.95955056985258 26.05429638854912,50.89154815303482 25.27758405977147,51.1468867411495 25.136363636367605,51.10220258806294 20.526525529261562,51.84906072764716 20.057471980078844,51.96396092977011 19.734682440841425,52.238443612353876 19.411892901625833,52.30865985587661 16.274782067244814,51.79799388128231 16.12347447074353,51.93204423503994 15.740161892910692,51.81714395515155 15.08953922789442,51.19157085187908 15.06936488168867,50.73196083318544 14.968493150689028,50.483003535428 14.31787048568367,49.96593417760596 14.015255292644724,49.49992853935328 13.531070983804966,49.18074393716597 13.288978829390544,49.250964735078014 12.360958904107974,48.899859699467925 12.25,48.68281164221116 12.37608966377229,48.899859699467925 13.041843088412861,49.08498813508413 13.273848069748055,49.244581030488916 13.57646326275426,49.174360223089025 14.005168119543669,49.49354486849552 14.33804483188942,49.953166961215175 14.973536737234099,50.419168119100505 15.1551058530531,51.23625492028077 15.750249066000833,51.79799388128231 16.06295143212992,51.91289420784233 16.2798256538008,51.7724604373434 19.437110834376654,52.27036009965377 20.168430884194095,51.87459413009128 25.166625155663496,51.0575183926303 26.044209215440787,50.81494630692032 31.607285180569306,49.94678335171193 31.90485678706318,49.92763251807264 32.16712328767608,50.0297702076532 33.201058530510636,50.840480269460386 34.05846824408218,50.776645337198715 34.40647571607042,51.063901851714036 34.70909090909845,50.80217932046435 35.07222914072918,50.648975213342055 35.425280199251574,49.55099787515792 36.05572851806937,48.99561587763674 36.837484433384816,49.04030202754075 37.1300124532936,49.67867097260387 37.24097135740885,49.64036907967966 37.62932752180495,49.87017997043222 38.04794520548603,49.96593417760596 38.40099626400843,49.88294720928752 39.24831880448983,49.39140601709005 41.44732254046539,49.09137186126463 41.67428393523733,48.97646465756043 42.2643835616509,48.94454594014678 43.54545454545587,48.67004407830609 44.15068493150102,48.63812515342579 45.57297633873168,48.84240589921683" stroke="#4dd2ff" stroke-linecap="round" stroke-linejoin="round" stroke-width="0.5"><title>2022-10-02 14.7km</title></polyline><polyline fill="none" points="97.75,56.91090453832658 96.48654990085925,55.12905153689644 96.21351619299821,54.93934481929682 95.51219431593563,53.76721236681624 93.66520158625644,51.212817065061245 93.20479180436087,50.71140851412929 92.0484137475396,49.67469652335785 90.78496364838429,48.78703716238306 90.57617316591495,48.80058933204418 89.65000000000873,48.36014193854862 88.8951421017955,48.2313950451171 87.85654329147292,48.136528701114 86.6359220092636,48.40757492105331 82.94729015201665,48.97676720390882 82.03182419036239,49.46464115025083 81.68384005288317,49.532401044376456 80.65594844678708,49.2613609173568 80.31867151355982,48.556649716207176 79.60128883013749,48.49566462641087 78.92673496365023,49.098736136438674 78.51450760080479,50.2099949390431 78.08086582946999,50.42682304752816 77.9684401850609,50.589443512330035 77.43307997356897,50.39971958536262 76.52832121611937,50.48780578377773 75.27022471910823,49.5391770287315 75.05608063450563,49.49852110876964 63.428056840719364,51.44319228239692 62.56612690019392,51.66001504757514 61.96116986120251,52.005574387832894 58.529510905493225,51.44319228239692 58.25647719762128,51.59903373982161 57.87637144745895,51.429640828402626 57.31959682749948,50.88757965858531 57.25,50.70463268849926 57.282121612697665,50.189667255712266 57.3570720423013,50.85370064050949 58.09051553207246,51.47029517942792 58.28859881032622,51.524500929441274 58.55627891606855,51.39576217730064 59.33255122274568,51.59225803436493 61.95581625909472,51.971696126634924 62.550066093856,51.55837949337365 62.935525446137035,51.47707090139738 75.08284864508096,49.45108916041136 75.36123595506069,49.49852110876964 76.48013879710197,50.40649545227279 76.69963648382327,50.46070235461957 77.47055518837078,50.34551261694651 77.56692002644559,50.52846089996456 77.81853932585,50.63009854596021 78.0755122273622,50.39971958536262 78.5412756113692,50.1964431510678 78.84107732981647,49.12584030329526 79.52633840053022,48.46856011821001 80.37756113681826,48.49566462641087 80.67736285525461,49.11906426295536 81.5981824190385,49.49852110876964 81.94081295439901,49.45108916041136 82.74385327164418,48.9699911433745 83.3702247190995,48.80058933204418 85.33499669531739,48.57020194827055 86.25046265699348,48.35336579453724 86.72693324521606,48.339813503724145 87.32118307998826,48.143304874534806 87.93149372108746,48.08909546167706 89.69818241904068,48.27205199461969 89.87485128883054,48.19751422862828 92.0805353602118,49.64759265378598 93.6170191672245,51.036647065604484 95.13208856576239,53.096442139350984 97.07009253140495,55.95562241436346" stroke="#4dd2ff" stroke-linecap="round" stroke-linejoin="round" stroke-width="0.5"><title>2022-10-01 15.4km</title></polyline><polyline fill="none" points="142.63997056824155,58.31407579437655 135.27716776094894,48.11397081530595 132.76482906948513,45.816168724129966 131.21524790581316,44.806508929032134 128.69374009508465,43.599543680102215 125.89715870500368,43.123716169880936 123.41232737150858,43.79683723875496 121.50515055465075,43.9012865859404 120.53322390760877,44.29587185975106 116.99394385330379,44.70206068512198 115.71026714963227,45.5376430721808 115.04092143988237,45.74653739600035 113.42715644103009,45.270721806329675 112.71196513468749,43.994130343235156 111.34576635725534,43.878075630891544 110.32799411363521,44.85293032991467 109.59446456871228,46.895447075796255 108.40247905817523,47.61495842618751 107.76064070636494,47.12754817138921 106.23856690061803,47.313228595332475 104.00130178854306,45.54924832576944 102.25,45.816168724129966 103.93711795336276,45.59566932434245 106.21105954270024,47.2319934593761 107.76980982566602,47.12754817138921 108.40247905817523,47.62656339848036 108.91594973964675,47.16236328154628 109.66781752319366,46.80260646157694 109.7411704776896,46.199140017568425 110.26381027847674,44.86453567620629 111.3732737152095,43.878075630891544 112.74864161192818,43.889681109219964 113.28961965133931,45.027010359255655 114.93089200814575,45.63048505674669 115.65525243378943,45.52603781704238 117.25984831333335,44.586006931473094 123.1097464342165,43.61114919613465 123.91662893367902,43.6227547105882 125.62208512564393,43.21656076959334 128.71207833370136,43.599543680102215 131.81124066108168,45.177879432019836 133.14993208059605,46.11790382559411 135.3321824767918,48.14878552477603 142.55744849442272,58.14002274881932 142.75,58.61576690277434 142.49326465926424,59.27716292510013 141.2095879556291,60.83200365091761 139.95341860991903,61.87628383012634" stroke="#4dd2ff" stroke-linecap="round" stroke-linejoin="round" stroke-width="0.5"><title>2022-09-29 10.1km</title></polyline><polyline fill="none" points="187.75,56.42933490482028 187.10856159938703,55.65749749738461 184.28518109827564,51.611806613327644 183.59642347137924,50.89312931977838 182.7709658574604,50.194405208258104 181.7982928729216,49.542253740888555 180.4680968454013,48.87678413846879 179.6110930806244,48.690451034864964 179.500681552654,48.75699865297793 178.70151239777624,48.57066509517972 177.2661625340843,48.936676771725615 176.18833571335927,48.98325988044235 175.64153576530953,49.17624657475244 173.9590743866138,49.38254185815458 173.56474750097186,49.46905252573197 172.84970141503436,49.93487657942751 172.52372452292184,49.99476792311907 171.54579384656245,49.69531047472992 171.15672465273383,48.99656933197548 170.4101324159601,48.95664096657856 169.7949824743555,49.542253740888555 169.4164286641644,50.62694987726718 168.76447487992118,51.09276295554446 168.31231338440557,50.806621159092174 167.61829806569585,50.93971057398085 166.33542126444445,50.034695445028774 166.00418668052225,49.94818577322076 154.30582240684816,51.8912893892666 153.71170323250408,52.02437586680753 153.1280994417757,52.39036182176642 150.72007659353767,52.07095604879942 149.7684343762303,51.8380546973458 149.6159613137679,51.98444996138278 149.46874594314068,51.977795640665136 149.1480267428342,51.84470903698093 148.5959691029493,51.3256678389771 148.43823834868817,50.51382317764728 147.73370764637366,49.92822198119029 147.5759768921198,49.608800205478474 147.25,49.33595912792589 147.5654615084968,49.582181630456034 147.76525379723898,49.914912781958265 148.40143450604955,50.34080536860711 148.54339218487803,50.673531383781665 148.5854537193336,51.20588832249632 149.1795728936886,51.80478298559683 149.50029209399509,51.95117834875418 149.79472283526047,51.83140035679389 153.11232636634668,52.37705328935044 153.79582630144432,51.96448699651228 165.90954822796994,49.94153117676615 166.30913280541427,49.92156738202175 167.37644424250539,50.84654802141449 167.64458652473695,50.91974718473284 168.32282876802128,50.79996667890009 168.73292872906677,51.06614518428978 169.4269440477765,50.60698636097004 169.7476632480866,49.542253740888555 170.45745164223263,48.936676771725615 171.20404387901726,48.95664096657856 171.29342463974535,49.289376353532134 171.55630923017816,49.60214556306528 172.0557899519772,49.848366731890565 172.48692068026503,49.93487657942751 172.80763988057515,49.881639768191235 173.50165519928487,49.449088539033255 174.09051668182292,49.262757605501974 178.44914319095915,48.59728421811451 179.43758925094517,48.697105800740246 179.5637738543519,48.637212875499245 180.31036609113653,48.7703081657819 181.7772621056829,49.50898047478768 182.8288004673559,50.18775064516376 184.0433272750961,51.29239578035413 184.59538491497733,51.937869697401766 186.61433856939766,54.80580077486957 187.1190769829991,55.65749749738461 187.59752693757036,56.229722944117384" stroke="#4dd2ff" stroke-linecap="round" stroke-linejoin="round" stroke-width="0.5"><title>2022-09-24 16.0km</title></polyline><polyline fill="none" points="52.75,105.4030631208625 51.74613539445636,104.11898164997183 48.831689765462215,99.95915289672485 47.304304371005856,98.62028447374905 44.97814498934531,97.322367898636 43.12153518123523,97.0969368791375 41.842417377400125,97.43166742424364 40.69283049041769,97.48631709823167 40.201692430709954,97.67075931083673 38.16158049041769,97.92351235875685 37.35740938166418,98.40852141757568 36.82309434969284,98.5246496552245 35.889392324108485,98.19675747246947 35.56016791044385,97.49997950745092 34.772188166331034,97.45899226862821 34.14072494669381,98.08745960459055 33.74673507464104,99.20775152423448 33.320362473361456,99.40584933606806 33.0720948827402,99.64493186612162 32.937166844360036,99.63127003777845 32.6403251599113,99.36486364571101 31.7605943496892,99.46732780915772 30.589418976549496,98.5997913136016 30.16844349681196,98.4973253880562 25.170708955229202,99.27606120238124 23.265525053317106,99.67225551167576 18.159848081020755,100.48512719844075 17.555370469079207,100.64223534183475 17.312500000014552,100.88814275795085 16.977878464822425,100.99060382755488 15.461287313442881,100.81300450796698 13.637060234548699,100.43731157942602 13.383395522396313,100.57392751352018 13.118936567174387,100.51928118428987 12.368736673783133,99.85668973221254 12.25,99.06430089903006 12.41191364606857,99.84985884719572 12.99480277186376,100.39632672706648 13.324027185506566,100.54660435631013 13.604677505332802,100.38949591510755 17.048041044792626,100.96328089601593 17.749666844360036,100.53294277213354 23.173773987222376,99.66542460168421 25.09514925374242,99.22824443738864 30.44909381663092,98.43584573284534 31.701226012799452,99.40584933606806 32.72667910448945,99.36486364571101 32.861607142869616,99.95232202556872 32.67810501067652,99.98647637211252 32.59175106609837,99.74739546071578 32.46222014926752,99.71324095229647 32.0142590618525,99.80887351756246 31.895522388069367,99.93866028047341 31.852345415787568,99.88401326312305 31.787579957366688,99.65176277889987 31.873933901933924,99.59711545073878 32.64572228146062,99.4536659327241 32.91557835821004,100.65589689639819 33.49307036248865,100.62174300304105" stroke="#4dd2ff" stroke-linecap="round" stroke-linejoin="round" stroke-width="0.5"><title>2022-09-22 12.2km</title></polyline><polyline fill="none" points="97.75,105.40488625743455 93.63329646017883,99.78539966674725 92.24446902654745,98.51903152532032 91.33849557522626,97.94568934032941 89.93971238937957,97.34083717918111 88.40652654867881,97.1392180447001 87.23174778760585,97.4290452757632 86.16648230089777,97.49835152004744 85.52931415929925,97.71887070138473 83.76714601769709,97.94568934032941 83.03042035398175,98.37412153036712 82.5923672566314,98.4812289614456 81.7262168141533,98.1977087534251 81.42754424778104,97.5424554399251 80.72068584069712,97.48575039240313 80.12334070795987,98.02129530758612 79.83960176991604,98.66394106894222 79.76991150441245,99.06086489902737 79.32688053097445,99.30027763559701 79.17256637168612,99.49558711353166 78.99336283185767,99.47668623213758 78.72455752212409,99.23727440330185 78.0525442477956,99.35698047170081 77.85840707963507,99.31917858863744 76.77323008849635,98.50013024723012 76.54922566371533,98.43082549518294 71.30752212388325,99.24987505658646 70.15763274336132,99.50818769685793 65.2594026548577,100.3020175672973 64.88108407078835,100.39022005026345 64.5127212389416,100.68632716303182 64.27378318583214,100.7367281860461 62.28263274336132,100.47842236600627 61.1526548672482,100.22011511201345 60.988384955751826,100.35241900660549 60.59015486725184,100.25161607341215 59.96792035397448,99.61529251737375 59.89325221239051,98.90965622016665 59.271017699113145,98.4812289614456 59.03705752212045,98.0906006696714 58.78318584070075,97.87008325020724 58.50940265486861,97.67476694873767 58.205752212394145,97.72517123404396 57.56858407079562,97.43534584767986 57.36449115043433,97.4290452757632 57.25,97.21482532252412 57.25,97.5550565522135 57.309734513273725,97.40384297950732 57.51382743362046,97.41014355484731 58.19081858406207,97.71257016784148 58.45464601768617,97.64326424266255 58.73838495574819,97.78817651392455 59.13163716812414,98.15360545467775 59.26603982299275,98.43712593145028 59.913163716802956,98.84665245894575 60.05752212388688,99.69719603727935 60.61504424778468,100.22011511201345 60.90873893803655,100.32091811343344 61.192477876098565,100.16341332772572 61.92422566372261,100.38391987844079 64.31858407079562,100.71782780881404 64.90099557521899,100.3713195322598 65.39380530972267,100.24531588283571 76.31526548672628,98.41822462008713 76.85785398229928,98.50013024723012 77.87831858406571,99.29397731619974 78.77433628317885,99.22467374659755 78.82909292035038,99.35698047170081 79.1178097345146,99.47668623213758 79.76493362831388,99.06716524999501 79.78484513274452,98.74584626353317 80.06858407078835,98.05279775769668 80.69579646017519,97.4794498272895 81.44745575221168,97.48575039240313 81.74115044247446,98.09690115200283 81.88550884956203,98.09690115200283 82.29369469027006,98.35522019338896 82.70685840708757,98.43712593145028 83.02046460177371,98.36782108555417 83.90154867257297,97.82597964090019 88.46626106195254,97.09511374256545 90.13384955751826,97.29673306817494 91.96570796459491,98.2733143111509 93.67311946903283,99.72869735272616 94.78816371681387,101.24703546948149" stroke="#4dd2ff" stroke-linecap="round" stroke-linejoin="round" stroke-width="0.5"><title>2022-09-17 16.2km</title></polyline><polyline fill="none" points="142.75,105.37664167294861 138.6661753868757,99.7298166004366 137.3231392778216,98.52104252693243 135.12951363300817,97.34371673424175 134.47291820191822,97.19890989862324 134.3734340456831,97.26186944778965 133.52284450994193,97.12335832705503 132.30416359616356,97.4255638766117 131.3341930729548,97.47593127723303 130.75718496683112,97.66480854354813 128.871960206332,97.9040519793125 128.01639646277545,98.41401414136271 127.61348563005959,98.49585939955068 126.80268975682338,98.19995663107693 126.4246499631663,97.5137067918622 125.77800294768531,97.45704350839878 125.13633014001243,98.06774414708343 124.85280029475689,98.7413943096617 124.81300663227375,99.04358934203992 124.3852247604882,99.27653000560895 124.17133382460815,99.49687820784675 124.04200442151705,99.49058255942145 123.76842299188138,99.23875592324111 122.9476787030253,99.33319107165153 121.91304347825644,98.5273383066451 121.52008106116045,98.42030993557637 110.47236551216338,100.26494092023131 109.9550478997844,100.39085162985066 109.3979366249223,100.74339980288278 106.20946941784132,100.22716764085999 106.0552689756878,100.35307845276475 105.67225497421168,100.24605428438736 105.05047899780038,99.64797351439847 104.94602063374623,98.92397070991501 104.29439941047167,98.43290152142072 104.01584377304243,97.9921939874148 103.578113485637,97.67740033399969 103.26971260134451,97.71517568494528 102.32461311717998,97.3311248534119 102.25,97.15483816347114 102.38430361091741,97.38778829034709 102.99115696389345,97.53259453768987 103.27966101695347,97.70258390471645 103.62288135594645,97.66480854354813 104.11532792925937,98.05515246232972 104.29439941047167,98.39512675363221 104.9012527634477,98.79176028478469 105.0355563743542,99.06877217274814 105.06042741342026,99.61649536601544 105.61753868829328,100.18939433079868 106.00552689757387,100.34048738692945 106.2293662490847,100.18939433079868 107.44307295504768,100.45380685681084 109.40291083272677,100.711922396109 109.94012527634914,100.35307845276475 110.46241709653259,100.23975873740346 121.6145910095729,98.40771834631232 121.84837877671453,98.47067625853379 122.942704495199,99.32059972959905 123.75847457627242,99.23246023984757 124.15641120117289,99.49687820784675 124.38025055268372,99.28282568303257 124.79808400884576,99.09395498979939 124.82792925571994,98.77287305051141 125.13135593220795,98.03626492881449 125.74815770080386,97.47593127723303 126.51418570376336,97.50741087489587 126.82258658805586,98.14329418397392 127.70799557847204,98.45178889381714 128.04624170964962,98.38253515755059 128.84211495946874,97.89775611520236 131.97586588062768,97.33742079425065 132.55784819453766,97.31853296915142 133.46812822401262,97.12965429603719 135.10464259395303,97.29334919040048 136.91525423727944,98.21884409809354 138.22844509948118,99.25764296825946 139.7704495209873,101.10224073388235 140.58621960204982,102.36130981482347" stroke="#4dd2ff" stroke-linecap="round" stroke-linejoin="round" stroke-width="0.5"><title>2022-09-11 16.4km</title></polyline><polyline fill="none" points="187.75,105.482673706083 186.34184456090225,103.66130757128849 184.76284673399277,101.29604996548369 183.60318931356232,99.74972488387357 182.17432570624806,98.43924121741657 181.45989390259638,98.0002212529107 179.95337466444835,97.2466702368256 179.1975265243491,97.12216937413541 178.21906557587135,97.01732629392063 176.9972836507768,97.32530219560067 175.92563594528838,97.39082873029838 175.18531893134787,97.59396042389199 173.57008181003766,97.79053867030234 173.11450210916155,97.94780069242915 172.47254889428223,98.36716358607009 172.15157228684257,98.41303118208089 171.2714751374042,98.14437750135767 170.89355106736184,97.42359196434336 170.1584110954791,97.37772343044344 169.78048702543674,97.6594865947809 169.49574971238326,98.01987894843114 169.17477310493268,99.00930597361003 168.48104946950843,99.48107862423058 168.0927713153469,99.2058784703404 167.1971430397498,99.2976120288622 166.24974434358955,98.53097622928544 165.84593506327656,98.34095351171345 159.6438386808004,99.33037397189764 158.74303336315643,99.57936401417464 154.24418381693977,100.25425163363616 153.70577144317213,100.36563994744574 153.162182027354,100.7522209299168 151.06547999488248,100.50978914944426 149.8126358174486,100.21493804990678 149.59520005112063,100.36563994744574 149.1965678128472,100.22804258134784 148.6115620605815,99.6448874965863 148.59085389235406,99.10759232179043 148.48213600919553,98.86515230186342 147.8764220887133,98.4261362015277 147.51920618687654,97.91503781330539 147.35354084110077,97.7839860749591 147.25,97.81674904282045 147.32247858876508,97.73156528023537 147.70040265881835,98.05919431553411 147.84535983636306,98.35405855067074 148.4355426307011,98.71444573129702 148.60638501852372,99.08793506812799 148.64262431292082,99.61867811426055 149.22245302313604,100.21493804990678 149.52789850440604,100.35253545325395 149.87476032212362,100.21493804990678 153.1000575226899,100.73911654040057 153.83519749456173,100.30011744095827 165.7993416847712,98.32129594659636 166.0478397034385,98.38682113254617 167.17643487153327,99.24519287384828 167.41457880607777,99.2976120288622 168.08759427329642,99.17311644300935 168.3102070816749,99.44831678319679 168.4965805956781,99.48763098976269 169.12300268438776,99.06172538415558 169.49057267031458,97.92814296760844 170.11181771698466,97.37117077919902 170.88837402531135,97.35151282012157 171.16793429630707,98.01987894843114 171.28700626358477,97.99366868595098 171.6856385018582,98.22300800132871 172.17228045507,98.34750603162684 172.53467339894632,98.27542826364515 173.38370829604537,97.73156528023537 174.07225488943004,97.66603920697526" stroke="#4dd2ff" stroke-linecap="round" stroke-linejoin="round" stroke-width="0.5"><title>2022-09-10 13.4km</title></polyline><polyline fill="none" points="52.75,154.20955623956615 48.80853314528213,148.68241909188146 47.34411463008291,147.33504293274018 46.9079048595886,147.05241782218582 44.991697653549636,146.04678489730577 44.55029490960442,145.94819231256406 44.20236568791006,145.97448368808182 43.25205154507057,145.79044376043385 41.57991409155511,146.15852291788542 40.6503718425447,146.23082385297676 40.427073983843,146.3819981873603 38.44855109629498,146.6120451840834 37.519008847288205,147.14443548071358 37.12953583793569,147.21016227286964 36.27788819078705,146.90124557588206 35.92995896908178,146.21767823640766 35.18217079111855,146.15852291788542 34.53304910886072,146.78950926514517 34.22147070136998,147.50593173612288 34.17473394025001,147.84113494906705 33.7956468777993,148.01202197066232 33.51522631106491,148.27492390606858 33.09459546094877,148.01202197066232 32.20140402614561,148.0711750302762 31.147230414153455,147.25617097440772 30.825266059749993,147.13786279661508 24.70794332607329,148.11061036331012 20.77166944478813,148.8533031517254 19.281286062316212,149.04390389338369 18.725637902294693,149.1884970602332 18.26346326451312,149.51711629215788 18.050551352731418,149.5696951628306 14.867258622893132,149.0504763194076 14.508943454282416,149.16877983556333 14.202558020246215,149.04390389338369 13.610559046017443,148.48524442913913 13.465155789195705,147.68339254897728 12.816034106926963,147.21016227286964 12.577157327858004,146.82237291264755 12.25,146.56603587196514 12.613508142061619,146.78293653297806 12.795262213097885,147.1115720512753 13.41841902807937,147.4927864649144 13.558629311446566,147.74911861132205 13.631330939857435,148.40637433980373 14.264873701740726,149.0307590386692 14.586838056155102,149.1227729468701 14.825714835224062,148.9781795842573 15.604660853950918,149.16877983556333 18.045358379280515,149.51054392933293 18.24788434414586,149.4711097336185 18.767181689963763,149.1227729468701 30.7369855109755,147.10499936272026 31.136844467240735,147.17072620825274 32.237754840349226,148.04488479045904 33.18287600974509,147.97258655755286 33.307507372737746,148.19605347496326 33.494454417224915,148.26835137503804 33.72813822284297,148.0383122282874 34.17473394025001,147.8082719913109 34.507084241558914,146.71720916229606 35.03676753430045,146.21767823640766 35.22371457878762,146.15195010027674 35.94553788947087,146.19138699265022 36.26750224388525,146.80265472682004 37.19185151941929,147.15758084626577 37.62806128990269,147.03927242815917 38.49528785741495,146.53974481688783 43.194928837026964,145.8035894926834 44.24910244903003,145.8693181005874 45.04362738812051,146.02049356095813 46.33667777919982,146.66462720167328 47.167553532508464,147.1838715666854 48.149025516097026,148.00544940404507 48.96951532248204,148.86644805449396 52.47477240672379,153.76924852492812" stroke="#4dd2ff" stroke-linecap="round" stroke-linejoin="round" stroke-width="0.5"><title>2022-09-03 16.2km</title></polyline><polyline fill="none" points="95.53781512605201,155.49171336418658 95.85236822001389,155.08713954067935 96.14113827349502,154.9435802711123 97.11058059587594,154.0234857122341 97.4870129870178,153.5993227327781 97.44576012222387,153.5144896890779 97.75,153.25346400290073 93.69174942703103,147.5431734705744 92.09835752482104,146.0485971692251 91.04640947288863,145.4089826699892 89.75725744843658,144.76935968246107 88.00916730328754,144.56050135827536 86.77158135981153,144.8411545223389 83.3166539343074,145.3437154070889 82.49675324675627,145.83321772451018 82.12547746371638,145.9441708919876 81.19213139800559,145.65699746296013 80.8053857906707,144.991270660179 80.09377387319182,144.9064224658141 79.4285714285761,145.5329902260164 79.07792207792227,146.59030485139374 78.69633307867844,146.74694208258006 78.44881589000215,146.99494999089438 78.30958747136174,146.98842348332983 78.01050420167667,146.73388899942074 77.1235676088545,146.82526050727756 76.09740259739192,146.03554389693818 75.67456073339417,145.89195766851844 63.6596638655501,147.90212594244804 63.31932773108929,148.22844405180876 63.11822001529072,148.29370740857848 60.45741023683149,147.9282314725133 59.80767761651077,147.75201887032745 59.65297937356809,147.88907317213307 59.255920550036535,147.76507167774616 58.64228418638959,147.19727128675004 58.601031321617484,146.59030485139374 58.42570664629602,146.27702886191764 57.915202444615716,145.95069754093856 57.58002291826779,145.48730326882287 57.25,145.24581434705033 57.67799847211063,145.5656237403491 57.910045836513746,145.95069754093856 58.4927425515707,146.34229486096592 58.59071810542446,146.51851261698175 58.6577540106955,147.17769184361168 59.24560733384351,147.76507167774616 59.65297937356809,147.88907317213307 59.86955691367257,147.75201887032745 63.08212375859512,148.28718107688837 63.623567608865415,147.94128423221628 63.94327731091835,147.8433884481674 75.7261268143593,145.8789043538345 76.06130634070723,145.96375083619932 77.11325439266875,146.79915437985983 78.06207028265271,146.73388899942074 78.28380443087372,146.99494999089438 78.47459893047926,146.99494999089438 78.6396103896077,146.79262784578532 79.10886172651226,146.53809232789354 79.150114591288,146.17912969761164 79.44919786095124,145.45466970143752 79.9545454545405,144.9782171015322 80.22784568373754,144.9064224658141 80.81054239878358,144.93905640441153 81.18181818181256,145.6113106233097 81.84702062642828,145.8789043538345 82.1822001527944,145.9115376339396 83.41462948815024,145.2915015331455 87.35943468294863,144.6257696818102 88.13808250573493,144.50828663580978 89.01470588235316,144.6779842770011 89.85007639418836,144.71714518626322 90.28323147441915,145.0239045413291 91.54660045836499,145.6113106233097 92.51604278075683,146.34229486096592 93.32047364399841,147.0863210038624 94.27960275018631,148.26107574123307 97.1621466768629,152.385543434204" stroke="#4dd2ff" stroke-linecap="round" stroke-linejoin="round" stroke-width="0.5"><title>2022-09-01 16.9km</title></polyline><polyline fill="none" points="142.75,154.23041997011387 138.52314636956726,148.39528961910764 137.2888013830052,147.2859446683724 136.48492124470795,146.84613816348065 136.15818286592184,146.5507434947831 134.93939684977886,145.9993352969359 134.1977525931652,145.88117558131853 133.21753745678143,145.7695800298825 131.94170188243152,146.09123709882988 131.6149635036527,146.05185063363024 130.77996542449546,146.17657433030035 130.30800998846098,146.36037708779622 128.52391471379087,146.52448610377905 127.55925854782981,147.095581148591 127.1702842873492,147.1874808721659 126.30935459084503,146.8986525828077 125.92556665387019,146.1962675161958 125.13205916250809,146.1437523359673 124.53044563964067,146.7345448335327 124.22445255474304,147.45661477471367 124.17258932000186,147.80451736140458 123.74212447176615,148.01457054452476 123.50355359200694,148.25744340292295 123.11457933154452,147.9686214884896 122.56482904340737,148.08677611601524 122.04101037263536,147.94236486548107 121.10747214751609,147.2137379040505 120.78592009219574,147.10870969117605 109.19967345370242,149.0516947950855 108.71215904724886,149.15671879844376 108.343930080664,149.4717894434507 108.07942758355057,149.55055678473946 106.28495966192713,149.3208183482384 104.786112178248,148.97949066077126 104.54754129851062,149.13702681514405 104.15856703803001,148.99261869320617 103.90443718784809,148.6709808755404 103.63474836726527,148.50687912605645 103.53102189779747,148.27057163087738 103.55176719169685,147.85046657298517 103.41173645792878,147.5485138138538 102.81012293506137,147.14809529767444 102.60785631963154,146.80018799990648 102.25,146.51792175380615 102.6389742604515,146.80018799990648 102.79456396466048,147.1218382302577 103.44285439877058,147.55507802427746 103.6191893968462,148.39528961910764 104.19487130233756,148.99918270807393 104.51642335765791,149.13046281894276 104.79129850172467,148.9401065421771 105.62111025739796,149.16328279110166 108.07942758355057,149.5177370747515 108.86774875143601,149.07795081724544 120.8014790626039,147.1152739611607 121.12303111793517,147.1612238260568 122.24846331156368,148.06051955699877 123.08346139070272,147.9620573340835 123.30647330003194,148.19180220982525 123.50873991549452,148.22462281749904 123.72656550134343,148.00800639633962 124.1414713791819,147.82420988598096 124.47339608143375,146.80018799990648 125.16317710332805,146.13062353202258 125.88407606606415,146.12405912870963 126.24193238571388,146.78705937376435 126.3560315021059,146.76080211075896 126.7968689973095,147.04306694259867 127.28956972723972,147.1218382302577 128.3890703034922,146.5376148010473 128.84028044563456,146.44571384545634 133.15530157509784,145.7695800298825 134.20293891663096,145.84178894543948 134.87716096811346,145.9533843306417 136.51603918554974,146.74767347392844 137.38734152900724,147.3318943714985 138.25864387245383,148.0933402535593 139.75230503264538,149.89844434466795 142.3299077986885,153.64628219761653" stroke="#4dd2ff" stroke-linecap="round" stroke-linejoin="round" stroke-width="0.5"><title>2022-08-28 16.3km</title></polyline><polyline fill="none" points="187.75,154.09022114943218 183.7889121855187,148.61567882837699 182.62506166750245,147.55356856251456 181.98069807598586,147.10469327007013 180.15749876666086,146.15635099699284 179.47317464233493,146.01725917707154 178.79384558462698,145.90977885057146 177.6499753330172,146.15002865052884 177.37524666996978,146.30176472930543 176.30130735076818,146.3649879498771 175.79181055748631,146.5167233300199 173.87370498275777,146.76329227091264 173.05451406018983,147.2564262461383 172.73982486434033,147.33861473559227 171.86069314258202,147.05411550178542 171.4610878145213,146.3649879498771 170.79174888999114,146.34602099271433 170.17735569807337,146.9087041127932 169.8277010360216,147.90760800238786 169.24827331032793,148.34383147762492 169.0634558460879,148.34383147762492 168.758756783438,148.09727088372892 167.93956586088098,148.16681374717155 166.93056240749502,147.37654783578546 166.63085841145949,147.26907063853287 155.4269240256508,149.12775907385003 154.9424025653716,149.2352319925849 154.62771336951118,149.4881084726003 154.3130241736617,149.59558056187234 152.0152935372571,149.2858073981588 151.16613221510124,149.070861546159 151.02127528367782,149.19730040245122 150.83146275284162,149.2036223362884 150.53675382338042,149.03925177856945 150.04224222989433,148.56510269691353 149.89239023187474,147.78748777906003 149.2580167735614,147.3070037952275 148.84342624568308,146.73800320867667 148.4887765170206,146.50407873382937 148.22903305377622,146.56097938966195 147.55969412926788,146.2764754170712 147.3748766650242,146.2448637575435 147.25,146.35234331262836 147.2949555994055,146.2448637575435 147.4897631968488,146.2511860911618 148.22903305377622,146.54833480544767 148.5387271830332,146.49143413422644 148.8634065120932,146.72535867245097 149.22305130734458,147.19320423269528 149.91736556487012,147.71162221560735 150.05223236309394,148.52084853695123 150.61167982239567,149.0835054471754 150.92636901825608,149.19730040245122 151.21108781450675,149.03292982248968 154.36297483967064,149.5702930337211 154.87247163296342,149.21626620136522 155.12222496300092,149.14672490102384 166.58090774543962,147.23113745103183 166.91058214110672,147.31964817394692 167.94456092748442,148.1478475219701 168.13437345832062,148.18577996467502 168.7138011840325,148.04669419069614 169.19332757770462,148.331187376265 169.39812530834752,148.11623712947767 169.8277010360216,147.9202522184496 170.1324000986715,146.9087041127932 170.52701036013968,146.47246722843192 170.8067340898051,146.30176472930543 171.5060434139159,146.33337635029238 171.82572767636884,146.94031532284134 172.71984459794112,147.2817150275223 173.3042673902346,147.07308217130412 173.83873951653368,146.72535867245097 174.22335964481317,146.630524541466 177.66995559940915,146.1816403742887 177.95966946226326,146.0362262678209 178.53410212136077,145.93506836142114 179.3982486433306,146.08048278294882 179.51313517514427,146.02358154150716 180.26239516528221,146.16899568735244 180.93672915639763,146.55465709798227 181.4362358164908,146.71903640305027 182.48020473607903,147.38919219566742 183.83886285151675,148.62832285264813 185.3773433645838,150.70821824319864 187.24050320671813,153.4770537543809 187.38536013815246,153.55923129513394" stroke="#4dd2ff" stroke-linecap="round" stroke-linejoin="round" stroke-width="0.5"><title>2022-08-26 16.9km</title></polyline><polyline fill="none" points="52.16675088428383,201.44375588607 50.26351692773824,198.75660640426213 48.92306720567285,197.26080236350026 48.30400454775372,196.71038650368791 47.34727134916466,196.10168394044376 45.95054320363488,195.4282167566962 44.27753916117945,195.2209941765541 43.41801414855945,195.38936259132606 43.07522738756961,195.57068175965833 42.00082112177188,195.60953577770124 41.499431531086884,195.81028103469362 39.53480293077155,196.0304522830338 38.685510358765896,196.53554719887688 38.28644517432622,196.61972916618106 37.432036382011574,196.3218538471083 37.04831985851342,195.6289627748738 36.32181657403271,195.6030601102102 35.69252147549196,196.2247201897262 35.32415361293533,197.25432691963215 34.93532086912819,197.44858985449537 34.69997473472176,197.67522894780268 34.3162582112127,197.40973733066494 33.47208185953423,197.52629480749238 32.41814047499793,196.67153338009302 32.06000505306292,196.54202274009367 20.16990904497652,198.54292297712163 19.7247978777159,198.86021014644575 19.37689489642071,198.93143758902806 16.2406518443604,198.41341740509597 16.02577059120449,198.56882404944554 15.647170288011694,198.41341740509597 15.079269833247963,197.88244089315776 14.94624810510868,197.09244053775546 14.301604345615488,196.58735150398934 13.917887822135526,196.06930592749995 13.467660434551362,195.76495153418 13.201616978261882,195.83618358711828 12.55185699849244,195.55125473878797 12.25,195.55125473878797 12.797435573513212,195.57715743151857 13.186268317327631,195.79085411117921 13.447195553311758,195.73257329324042 13.697890348652436,195.84913485805373 14.117420414342632,196.21824460555945 14.311836786248023,196.57440043297538 14.86438858008114,196.91760262979005 15.038340070750564,197.2996550083517 15.109967155131017,197.90186696702222 15.682983830211015,198.40694211729715 15.989957049001532,198.52997243569916 16.302046488130145,198.36809037203057 17.151339060135797,198.58177458035425 19.474103082357033,198.9184871528123 20.30293077310489,198.49112079038605 32.02930773117987,196.54202274009367 32.351629610911914,196.6132536355035 33.431152097015,197.45506527207908 34.34695553309575,197.40326190694395 34.505558362812735,197.61047503073496 34.68462607376932,197.67522894780268 34.97625063162923,197.40973733066494 35.344618494196766,197.24137602924748 35.69252147549196,196.15348871556853 36.27065437089914,195.58363310250934 37.07390096008021,195.6030601102102 37.365525517936476,196.25709809743785 37.508779686722846,196.2376713554404 37.92830975239485,196.4837428376668 38.37342091965911,196.57440043297538 38.68039413846054,196.49669393322984 39.6166624557809,195.96569613874453 44.31335270339332,195.20804273548129 45.096134411323874,195.3375569883865 45.29055078322199,195.27927561798424 46.037518948960496,195.43469244787048 47.61843102577404,196.25709809743785 48.39098029307934,196.7880926561993 49.62910560889213,197.88244089315776 51.18443658413889,199.98041127626857 52.75,202.29195726452235" stroke="#4dd2ff" stroke-linecap="round" stroke-linejoin="round" stroke-width="0.5"><title>2022-08-21 16.1km</title></polyline><polyline fill="none" points="97.75,202.84931268227592 97.19922021210368,202.20345077544698 93.7934809731778,197.37519340459403 92.44432314411097,196.14087091763213 91.59541484717192,195.60364276509426 90.15024953213288,194.88732905562574 88.43222083592627,194.701853199389 87.73490330630739,194.8361633749446 87.31550218340999,195.0152430148446 86.30995009357503,195.06001281872523 85.65305676855496,195.2710698939518 84.01082345601753,195.46933477212588 82.71724890830228,196.08331105072648 81.81275733000803,195.84027972818512 81.59042420461265,195.61643398259548 81.3529320025118,195.10478258015792 80.66066749844322,195.0664085015378 80.0492514036232,195.6420164072224 79.75112289456956,196.3775051890334 79.74101684341804,196.6461156279547 79.07907049283676,197.11937792250683 78.63945726763268,196.83797929188222 77.82592014972033,196.94030626063613 76.72436057392406,196.1024976808185 76.34538365564367,196.01935556076933 66.77495321273818,197.64379816959263 65.59254522770789,197.75891402986235 64.54656893325227,198.01472604818264 64.30907673113325,198.26414143208967 64.03116032440448,198.3600700752104 61.79772301933917,198.06588828557142 60.807330006249686,197.80368123307198 60.610262008736754,197.9763543337467 60.28686837180794,197.87402960954932 59.63502807237819,197.2600766091091 59.62997504678788,196.7484430123768 59.533967560815654,196.51181059944065 58.887180286979856,196.04493776714298 58.685059263887524,195.699576811945 58.043325015598384,195.22630029014908 58.114067373673606,195.07919986454726 57.977635683095286,194.9640774727377 57.982688708678324,194.84895480031264 58.16965065502518,194.9576817760717 58.240393013111316,194.86174622221006 58.17975670618034,194.9640774727377 57.977635683095286,194.8361633749446 58.119120399256644,195.1239696077937 57.85636306925153,195.29025685401575 57.25,195.0408257651361 57.805832813479356,195.2774655481844 58.16459762945669,195.23909160985568 58.69011228945601,195.64841201120362 58.91244541485503,196.01296000702496 59.49354335620956,196.3711096837833 59.62997504678788,196.62692921869893 59.72092950717706,197.29205352488134 60.372769806625,197.88042491130182 60.61531503430524,197.95716846485084 60.87301933874187,197.7844952940286 61.600655021837156,197.98914490867537 63.99073611977656,198.34088436215825 64.18780411729676,198.28972242262535 64.64762944479662,197.9379825881515 76.42117903930193,195.9362132943752 76.67888334373492,196.01296000702496 77.77033686837967,196.8699564934468 78.01288209608174,196.91472453923416 78.67482844665938,196.8187929605665 79.01843418589488,197.08740088982086 79.66016843418038,196.7036748089704 80.0239862757262,195.60364276509426 80.57981908920556,195.07919986454726 80.82236431691854,195.0152430148446 81.36809107922454,195.03443007886017 81.75717404865645,195.699576811945 82.67682470367072,196.00656445240747 82.9850592638868,195.9298177293458 83.8794447910077,195.3861915374655 88.60907673113616,194.65068731772772 90.27657517154876,194.855350511687 91.06484716157865,195.33502639720973 91.77227074235998,195.64841201120362 92.47464129756918,196.14726645406336" stroke="#4dd2ff" stroke-linecap="round" stroke-linejoin="round" stroke-width="0.5"><title>2022-08-19 15.6km</title></polyline><polyline fill="none" points="142.75,202.79897204124063 142.6447791661485,202.63411008578623 142.58966349127877,202.52631541658047 139.66352220709814,198.4109098800909 138.77165037733357,197.30748852631586 137.46891624396812,196.1215986627285 135.32942595571512,194.96738824813656 133.65090313003384,194.72639567065926 132.75903130025836,194.8976273664157 132.45338983050897,195.04349090970936 131.34105530124725,195.12593532015308 130.9001299022566,195.30350740357244 128.99112334528763,195.52547156102082 128.24956699245013,195.95671320226393 127.80864159345947,196.10891518638527 126.99192750216025,195.88061202469544 126.76144377087621,195.60791512297146 126.55100210318051,195.13227719188217 125.89462452060252,195.09422594870193 125.73428801187038,195.16398653757642 125.18814177904642,195.7347510887339 124.8875108251923,196.70503486157395 124.49168006928448,196.88894259151857 124.26119633798953,197.11724083783702 123.89041816158351,196.86357605102603 123.03863045899197,196.9650421306178 121.88120128666196,196.08354822337787 121.61564394407833,196.04549775310443 115.6130458988082,196.98406699605766 114.18504886799201,197.3201716780677 110.42716194482637,197.87188545507524 109.92109983916453,197.98603232164533 109.35992205864386,198.37286130065695 106.22834962265915,197.85286095025003 105.9828343436784,197.9670078632007 105.66216132623595,197.87188545507524 105.00077322776633,197.22504795618806 104.98073116417072,196.69235154323542 104.8554682667309,196.43234276026124 104.24919584312738,196.0264725063862 104.10890139798357,195.74109287801184 103.79323889645093,195.46839516387263 103.45252381541286,195.25911444584926 103.19197698873904,195.30350740357244 102.49050476308548,195.0054395943771 102.25501051590254,195.06251655577944 102.29008412718395,195.2844818554222 102.6658728194925,195.6459659487664 102.74604107385676,195.58254788858903 102.56566250155083,195.3288747890947 102.40532599281869,195.3669258416412 102.25,195.20837958548145 102.32515773846535,194.99909770548402 103.19197698873904,195.30350740357244 103.50262897438006,195.24643073591142 103.71808115798922,195.38595135629657 104.10389088209195,195.7347510887339 104.24919584312738,196.0074472519118 104.9256154892937,196.47039291622787 105.02081529135467,197.25041430093188 105.65715081033704,197.8655439543254 105.98784485959186,197.96066637534386 106.21331807497336,197.82749493183655 106.88472720524805,197.9987152896574 109.33486947915662,198.35383699933664 109.99625757763715,197.9416419065892 121.60562291228416,196.0264725063862 121.93130644562916,196.08354822337787 122.96848323642917,196.90796748789944 123.85033403438865,196.84455113661534 124.24115427440483,197.11724083783702 124.87748979340904,196.69869320282305 125.20818384263112,195.6459659487664 125.88961400468907,195.08154219410062 126.62114932575423,195.1132515741665 126.91175924781419,195.71572571577053 127.57314734628744,196.00110549872625 127.90885191142297,196.03915600505934 128.18443028578986,195.96305496146306 128.97609179759456,195.4366860242808 131.22080291970633,195.15130280188896 133.7160398366941,194.701027958763 135.3594890510867,194.93567876933957 136.76243350241202,195.6459659487664 137.60420017320212,196.18501599294177 139.0071446245165,197.4913938905811 140.5253309414802,199.6221068398263" stroke="#4dd2ff" stroke-linecap="round" stroke-linejoin="round" stroke-width="0.5"><title>2022-08-14 16.5km</title></polyline><polyline fill="none" points="187.75,202.91083746415097 184.68852006381712,198.5835009291004 183.59513437231362,197.17451367994363 182.41725978648174,196.09258375050558 180.49389495643845,195.01691913117247 179.8030739968126,194.80304132590027 178.68483863050278,194.6835209469682 178.52580071174816,194.58916253584903 177.36780586575696,194.96659503030241 176.30920971898013,195.01691913117247 175.77245674316146,195.21821498952704 173.93855074242674,195.41950997555978 173.16821082341266,195.86613011108784 172.74576635169433,195.99193782482325 171.87105779850026,195.68999873944267 171.66729046508772,195.43209088321237 171.54801202602175,195.05466217106368 170.7627623021217,194.99804759973995 170.17630997668675,195.5956423727912 169.85326420419733,196.57064891955815 169.19723278929814,197.02983846281495 168.7896981224767,196.75306722672758 167.94977911399837,196.81596992518462 167.04028101608128,196.09258375050558 166.56813719474303,195.92903401055446 161.49383359922285,196.74677695220817 159.25239293165578,197.19967454128346 155.50009203583613,197.75321004295256 155.00806847466447,197.88530276747042 154.69993250706102,198.1431970042504 154.3967664744232,198.2312581230617 152.2447846361647,197.954494044694 151.30049699350275,197.73433962307172 151.02218063566033,197.86643240123158 150.71901460302252,197.73433962307172 150.137532212535,197.19338432721634 150.02322370843103,196.45113308853615 149.38707203337253,195.9479051637718 149.16839489508493,195.57677107646305 148.90498834213213,195.3566053861141 148.57200269972236,195.15531012749125 148.33344582158315,195.21192450714807 147.99549024420776,195.00433811108087 147.42394772364787,194.92885191885944 147.25,194.63948704563154 147.3643085041149,194.77158862442593 147.45376733341982,195.23708643151258 147.39412811388684,195.23708643151258 147.82154252056716,195.19934353984354 148.37817523623016,195.85983971646056 148.82546938275482,195.73403164497722 149.07893606578,195.92274362443277 149.93376487912246,196.27500393496666 150.05801325317952,196.41339118327232 150.1176524727016,197.06757986723096 150.67925512333022,197.70917905132592 151.0520002454432,197.83498177383808 151.3154067983778,197.67772831746333 152.20005522150677,197.89788300733562 154.41167627929826,198.21238789737254 154.60550374279774,198.17464742298034 155.0975273039694,197.8098212565892 159.90345441158934,197.0235482257449 161.409344704869,196.67758387616414 166.70232543870588,195.9101628496719 166.95579212173106,195.98564744723262 167.94480917904002,196.784518586599 168.82945760215807,196.72161584556306 168.93879617130733,196.87887253845474 169.16244324456784,196.9732262986654 169.82344459444357,196.58951981214705 170.17134004173204,195.52015714145455 170.8224015216656,194.95401399656475 171.51322248128417,194.99175708755138 171.86608786354554,195.6208040893107 172.7358264817849,195.9604859283354 173.07378205914938,195.87871089779946 173.93855074242674,195.35031492248163 176.11538225549157,195.03579065494705 177.08948950791455,194.80304132590027 177.53678365445012,194.79675078731452 177.84988955700828,194.66464928009736 178.93333537858052,194.6080342334135 179.33093017548163,194.7212642577506 180.57341391581576,194.8156224005288 181.07040741195306,195.0798241806042 181.76619830653726,195.63967536774726 182.5514480304373,196.1114548372716 183.81381151062305,197.31289824865598 184.76803902320535,198.64011113098604" stroke="#4dd2ff" stroke-linecap="round" stroke-linejoin="round" stroke-width="0.5"><title>2022-08-12 16.3km</title></polyline><polyline fill="none" points="52.75,252.06368177726108 48.99379259981288,246.81707240350443 47.71707643622358,245.76268761122628 47.50018257058764,245.4944083400369 46.603030671860324,244.90169278425674 45.40518500487087,244.34640497719738 44.468597857841814,244.10307450338223 44.015092502439074,244.0344425989315 42.58556475170553,244.34016575033093 41.39264849075698,244.45871091627487 40.988437195723236,244.67708279193903 39.20399221032858,244.78938792496047 38.36106377798933,245.34467039315496 38.025864167480904,245.4195394274211 37.143500486854464,245.14501904028293 36.970971275568445,244.96408425446134 36.754077409932506,244.4711893370586 36.068889970789314,244.4212756336674 35.48722005842865,245.001519096033 35.191455696203775,245.70653626512285 35.171738072062,245.96857529480985 34.72316212268561,246.23685180510074 34.555562317433214,246.43649842692685 34.402750730299886,246.41154264650322 34.12670399220224,246.16822307906114 33.30842259006022,246.26180768014456 32.01691820838823,245.33843130146124 26.564995131444448,246.23061283423885 24.948149951316736,246.5924717483067 20.940542843225558,247.19764323674826 20.47717867576648,247.2912257470307 19.885649951324012,247.66555388751294 17.761075949365477,247.3723304355408 16.75547711780746,247.13525479098462 16.27732473222568,246.58623282557164 15.76466650437942,244.82058374667758 15.227361246354121,244.24657724598 14.354856377791293,243.95333203457994 12.979552093474922,243.81606767730045 12.624634858817444,243.69128154305145 12.42745861732692,243.51034104803693 12.25,242.93631822273892 12.466893865625025,243.55401640499986 12.62956426485107,243.6600849566712 13.403481012654083,243.87222132742681 14.073880233692762,243.8909391955931 14.773855890940467,244.0406818671945 15.390031645569252,244.36512265273268 15.986489776045346,245.18245373485115 16.41534810126541,246.64238309963912 16.804771178187366,247.15397133356964 17.312500000003638,247.2288374279633 19.910296981499414,246.57375497759858 20.19620253164976,246.74220564008647 20.339155306719476,247.04791082497468 20.344084712749464,247.34737516197129 20.94547224926646,247.17268786857676 26.30373661149133,246.2243738625366 31.967624148008326,245.33219220892352 32.23381207400598,245.3945830961784 33.33306962026472,246.24932974431795 34.175998052582145,246.17446205839224 34.45697419669159,247.3161810509955 35.06822054529039,247.20388207667565 35.156949853939295,247.11029938900538 35.10272638753668,246.80459461806095 35.314690847131715,246.6860554877021 35.314690847131715,246.43025948308423 35.51679649464495,245.99353131515454 35.47736124635412,245.6129505362187 35.34919668938892,245.38834401126587 35.38863193769794,245.1387799215736 35.506937682570424,244.90169278425674 36.0541017526848,244.4212756336674 36.793512658223335,244.42751484955807 37.07941820837004,245.03895390717662 37.83854673807218,245.3571485739667 38.35613437195934,245.33219220892352 38.43993427459645,245.4881692686431 38.8293573515075,245.25732303271798 39.189203992224066,244.8081054205286 39.72157984421574,244.68956115357287 42.79752921130057,244.25905572420743 43.62566942551712,244.05939966692313 45.42490262902356,244.25905572420743 47.62834712755648,245.46321297456598 48.91492210321667,246.63614418367433 52.32114167479085,251.46481245378163 52.51831791627046,251.5958157832938" stroke="#4dd2ff" stroke-linecap="round" stroke-linejoin="round" stroke-width="0.5"><title>2022-08-07 17.9km</title></polyline><polyline fill="none" points="97.75,257.40646956582714 93.82068607069596,251.96001835669085 92.66995841995958,250.9416935073168 91.81392931392111,250.38515711315267 90.65384615384755,249.8345343472356 89.55457380457665,249.59770521839164 89.30197505198157,249.56810148710065 87.54781704781999,249.9588691263416 86.98648648648668,249.98255190130294 86.43918918919735,250.16609297242394 84.83004158003314,250.30818875634577 84.08627858628824,250.76407627883964 83.6231808731718,250.9002495518871 82.8232848232874,250.6515849942807 82.44906444906519,249.98255190130294 81.78950103950046,249.97663120876678 81.21881496881542,250.49764908321595 80.90540540540314,251.45085889663824 80.29261954261892,251.85345058824532 79.89033264032696,251.58703003071787 79.17463617463363,251.68767798769477 78.15956340955745,250.9416935073168 77.79937629937922,250.85288498327282 73.38825363826254,251.539666206103 71.72297297298428,251.88897320658361 67.41008316008083,252.5698178141174 66.9469854469935,252.6704635088645 66.42775467775573,253.01384119448994 64.68762993763085,252.8007105346369 63.40592515591925,252.51061435606607 63.242203742207494,252.6467821897677 62.95218295217637,252.5698178141174 62.37214137214323,252.04290421926999 62.29729729729661,251.43901790841483 62.18503118503213,251.23180009541466 61.604989604991715,250.82920267972804 61.47401247403104,250.55685526699745 61.249480249483895,250.34371263017965 60.89864864864285,250.11280693436856 60.67411642411753,250.17793430537495 59.86954261954088,249.89374142900851 59.62162162162349,249.63322966950727 59.354989604991715,249.72204067100392 59.33627858628461,249.781247905099 59.439189189204626,249.7101992145581 59.518711018714384,249.77532718530347 59.298856548859476,249.9588691263416 58.86382536382371,249.39639945019007 58.44282744283191,246.2286719261574 58.36798336798529,244.3042393867945 57.80197505197066,237.51179558078366 57.62889812890353,236.3391482939478 57.25,235.53367536109 57.3201663201653,235.4507581868893 57.65228690229196,235.63436028967044 57.80197505197066,235.48037148145158 57.73648648649396,235.33822748453167 57.58212058212666,235.26715531265654 57.28274428275108,235.46260350713055 57.26871101870711,235.58697917569953 57.59615384615972,236.10224603139795 57.7084199584242,236.6056618041439 58.606548856547306,246.5188097903847 58.96673596673281,249.46152788839026 59.25207900208261,249.91742423926917 59.44386694387504,250.06544151270646 59.790020790027484,250.15425163622785 59.79469854470153,250.2312202640387 60.03326403325991,250.13056895427144 60.21101871103019,250.15425163622785 60.66943866944348,250.75223510463184 61.0810810810799,250.63974378959392 61.45062370062442,250.8884084145393 61.41787941788061,250.6160613705979 61.15592515593016,250.3259506968643 61.249480249483895,250.32003005083243 61.50207900208261,250.55685526699745 61.62837837838015,250.81144094365663 62.21777546777594,251.208117997121 62.30665280665926,251.37389241588244 62.3627858627915,251.9659387806787 62.877338877337024,252.50469400585644 63.232848232844844,252.62902119203136 63.485446985450835,252.48101259697432 64.18711018711838,252.66454318029355 66.44178794178879,252.98423977607672 66.98440748441499,252.62902119203136 77.87889812888898,250.79959978226907 78.18295218295316,250.87656727399371 79.1512474012452,251.65807567145748 79.9979209979283,251.61071192379313 80.25051975052338,252.68230416360166 80.96153846153538,252.51653470548627 81.79885654885584,252.46325153189537 83.11798336798893,252.23235702939928 83.17411642411025,251.63439380404088 82.98700623699915,251.19627694315568 83.00103950104312,250.8884084145393 83.92723492722871,250.79367920037475 84.75519750519379,250.2667442004058 85.50831600832316,250.21937894550138 88.95582120582912,249.61546744756197 90.64449064449218,249.81085149209684 92.26767151766398,250.65750559540902 92.85239085238936,251.04826349805444 93.74584199584933,251.8593710266323 94.8591476091351,253.24473157033208 97.23076923076951,256.6073045170524 97.08575883575395,256.8736944893135 97.26351351351332,257.16968144422935 97.21673596674373,257.2703165525709 97.33835758835994,257.58997947824537 97.26819126818373,258.00435386733807 96.89397089397244,258.39504612391465 96.81912681913309,258.60222999533653 96.53846153845734,258.7975738894347 96.01923076922685,259.4368750789836 95.98180873181263,259.40135859137445 95.98648648648305,259.6144570843353 96.10810810811017,259.7328446873398 95.90228690228105,259.46055272135345 95.72920997920664,259.54342436871957 95.88357588358485,259.51382736983214" stroke="#ff0000" stroke-linecap="round" stroke-linejoin="round" stroke-width="0.5"><title>2022-08-06 24.1km</title></polyline><polyline fill="none" points="142.24295774651546,252.60754125872336 140.34154929577198,249.70665001244197 133.78169014083687,240.8296608027813 131.0035211267459,238.316151417137 128.94366197182535,237.0192625073396 126.40845070422074,235.7758375564881 124.81338028171012,235.32124818144075 123.30281690141419,235.1608043729284 120.2816901408587,235.85605899360962 117.59859154930018,236.13683351029613 116.88028169015888,236.43097738564393 113.5739436619624,236.69838014819834 110.70070422534627,238.15571247536718 108.60915492955246,237.50058409067424 107.78521126761188,236.08335271152464 106.25352112676046,236.05661230132682 105.08098591549788,237.17970329587115 104.37323943662341,239.38573769993673 102.98943661970407,240.32161619287945 102.36619718308793,239.89378712535108 102.25,239.54617464300827 102.50352112675318,239.47932594841404 102.58802816903335,239.10497242226847 103.23239436621225,238.48995997652673 104.25704225353547,238.02201315807906 104.38380281689024,236.92567192701244 104.37323943662341,237.94179348079342 104.18309859154397,238.1289726263858 104.46830985914858,237.74124400242 104.34154929579381,236.57804899469193 104.44718309859309,236.95241210188397 104.13028169011523,236.8588214581614 104.53169014085142,236.96578218658397 104.51056338026683,237.30003371614293 104.61619718310976,236.69838014819834 104.16197183098848,234.57250817737076 103.79225352112553,234.73295294199488 104.22535211266222,236.8187111551233 103.71830985915585,237.1395931231673 103.36971830983384,237.03263258302468 103.51760563380958,236.06998250734614 103.32746478873742,234.880027080515 103.08450704222923,234.773064092391 102.72535211266222,234.93350853110314 103.09507042253972,237.04600265687623 104.10915492958156,237.07274279915146 104.33098591548332,238.03538309794385 102.90492957746756,239.0916026272098 102.36619718308793,239.73335074713395 102.92605633802305,242.1933465672846 104.2676056338023,241.85911160262913 104.28873239434324,241.03020400818787 104.60563380283565,240.99009539968392 104.8063380281601,240.5221604301114 105.35563380280655,240.26813766080886 105.42957746479806,239.8536780552604 105.13380281690479,239.42584696016274 104.85915492957429,237.64765410643304 105.07042253520922,237.15296318251785 106.20070422535355,236.13683351029613 107.98591549297998,236.0432420934667 108.53521126759006,237.44710403064528 110.299295774661,238.07549290673342 111.38732394366525,237.90168361771066 112.82394366194785,237.04600265687623 111.69366197182535,238.35626111187594 113.55281690140691,237.7947239031564 113.49999999999272,237.32677378958033 113.79577464788599,237.04600265687623 113.61619718308066,236.89893174490135 112.61267605633475,237.03263258302468 111.27112676055549,237.95516343150666 110.4577464788672,238.14234255179326 108.85211267606064,237.63428411408677 108.37676056338387,237.08611286759697 107.93309859152941,236.06998250734614 106.30633802814555,236.0298718838094 105.15492957744573,237.05937272890878 104.41549295771983,239.35899818407051 102.86267605632747,240.32161619287945 102.41901408449485,240.0007445660376 102.36619718308793,239.73335074713395 102.95774647887447,239.0381234289307 104.23591549295816,238.1958222352623 104.51056338026683,237.59417412605399 104.64788732391753,236.7786008357798 104.29929577465373,236.88556165109912 104.59507042252517,237.04600265687623 104.23591549295816,236.59141913014173 103.73943661971862,236.59141913014173 104.29929577465373,236.61815939549706 104.41549295771983,236.8588214581614 104.01408450704912,235.13406371277233 104.15140845072165,234.94687888920453 104.19366197181807,235.06721203084453 104.10915492958156,234.83991597353452 104.0880281690188,235.70898630909505 104.51056338026683,237.04600265687623 104.37323943662341,237.92842352825392 102.98943661970407,239.02475362484256 102.39788732393936,239.81356896881334 102.86267605632747,242.1666078117487 104.19366197181807,241.89921985814 104.39436619716435,241.69867841774976 104.23591549295816,241.13716021781147 104.51056338026683,241.00346493763936 104.64788732391753,241.13716021781147 104.76408450702002,240.25476802324556 105.18661971828988,239.35899818407051 105.04929577462462,238.4632202181092 104.75352112675318,238.03538309794385 104.82746478872286,237.7813539306735 105.04929577462462,237.1395931231673 106.27464788731595,235.97639102712128 107.95422535211401,235.97639102712128 108.60915492955246,237.3134037537675 110.72183098593086,238.03538309794385 111.3239436619624,237.8214638426507 113.07746478872286,236.6716399045763 117.6619718309812,236.23042483845347 117.97887323942996,236.00313145906694 119.60563380281383,235.72235656218254 120.61971830983384,235.84268875861017 121.86619718308066,235.29450756481674 123.68309859154397,235.2009153494655 124.65492957746028,235.50843229526072 126.26056338028866,235.53517285398266 128.99647887323226,236.88556165109912 131.44718309860036,238.53006960065977 134.41549295774166,241.37781126596383 139.77112676057004,249.10507203550515 142.75,252.98184359989682 139.91901408450212,256.1767237084932 138.4295774648126,257.3530552057564 138.39788732393936,257.63376860605786 138.02816901409824,257.91448120852147 137.98591549295816,258.5561070182739 138.16549295774166,258.54273985639884 137.95422535212856,258.8368169993337 137.90140845069982,258.02141913295054 138.10211267606792,258.0882552769035 137.90140845069982,258.47590401998605 137.63732394365798,258.38233377305005 137.8169014084633,258.24866183791164 137.32042253522377,258.68977853734395 137.2359154929436,258.94375392513757 137.66901408452395,259.4249686583935 136.91901408451668,260.2670888001594 137.03521126761916,260.14678636236204 137.50000000000728,260.4007580036414 137.70070422535355,260.37402417744306 137.62676056338387,260.0665846557458 137.7640845070564,260.3205565032695 137.83802816904063,260.20025413059193 136.84507042256882,260.42749182262196 137.26760563379503,260.133419415768" stroke="#4dd2ff" stroke-linecap="round" stroke-linejoin="round" stroke-width="0.5"><title>2022-07-23 16.3km</title></polyline><polyline fill="none" points="187.75,255.96200572631642 185.843581081077,253.36474603687384 185.3874999999971,252.96072075334814 184.59391891890846,251.63319562992547 179.5496621621569,244.60273978456098 176.76756756757823,241.99358898155333 175.04358108107408,240.89679821437312 172.67195945945423,239.73072097655677 169.6435810810799,239.08417622899287 168.37567567569204,239.03799427368358 167.53648648648232,239.2227219448032 166.96182432433125,239.09572171390028 166.84324324326008,239.86926564166788 166.51486486485373,240.00781008166086 164.1523648648872,240.481168552913 161.01452702703682,240.85061724093975 159.7648648648683,241.67032580085652 159.09898648648232,241.84350265721878 157.48445945946878,241.18542873160914 156.85506756757968,240.10017291658733 155.55979729731916,240.06553686523694 154.3648648648741,241.09306707240466 153.781081081077,242.8941013792719 152.9601351351448,243.3328091018775 152.75033783783874,243.59834162679908 151.7743243243458,243.2289048452658 150.36959459460923,243.40207853592437 148.28074324327463,241.80886731408827 147.25,241.80886731408827 148.3263513513666,241.7857770775081 150.27837837839616,243.3328091018775 151.93851351353806,243.2750845305127 152.3307432432557,244.57965030461492 152.41283783784456,245.3300552024084 152.24864864866686,245.44550152356533 152.39459459461796,245.7110274690931 155.48682432434725,245.11070676155214 155.6783783783685,244.83363424016716 165.1739864865085,243.3674438259186 164.48986486486683,242.5131165256098 163.32229729728715,241.64723552675423 163.3952702702809,241.4625131088469 163.8148648648712,241.45096794444544 163.86047297299228,240.5273497264934 164.2162162162349,240.2271716512114 167.16250000000582,239.71917557760753 167.89222972975404,239.7538117697186 168.30270270271285,239.49981270100398 169.5158783783845,239.31508563025272 172.73581081080192,239.66144855955645 174.9797297297264,240.80443624248437 176.96824324327463,242.05131442059064 179.40371621619852,244.31412083577743 185.68851351351623,253.0761567439913 185.5243243243167,253.3993766863714 185.29628378379857,253.457094404308 185.48783783784165,253.73413890662778" stroke="#4dd2ff" stroke-linecap="round" stroke-linejoin="round" stroke-width="0.5"><title>2022-07-16 10.3km</title></polyline></svg>