<?xml version="1.0" encoding="utf-8" ?>
<svg baseProfile="full" height="300mm" version="1.1" viewBox="0,0,200,300" width="200mm" xmlns="http://www.w3.org/2000/svg" xmlns:ev="http://www.w3.org/2001/xml-events" xmlns:xlink="http://www.w3.org/1999/xlink"><defs /><rect fill="#222222" height="300" width="200" x="0" y="0" /><text fill="#FFFFFF" style="font-size:12px; font-family:Arial; font-weight:bold;" x="10" y="20">Over 10km Runs</text><text fill="#FFFFFF" style="font-size:4px; font-family:Arial" x="10" y="280">ATHLETE</text><text fill="#FFFFFF" style="font-size:9px; font-family:Arial" x="10" y="290">Allen</text><text fill="#FFFFFF" style="font-size:4px; font-family:Arial" x="120" y="280">STATISTICS</text><text fill="#FFFFFF" style="font-size:3px; font-family:Arial" x="120" y="285">Number: 22</text><text fill="#FFFFFF" style="font-size:3px; font-family:Arial" x="120" y="290">Weekly: 1.7</text><text fill="#FFFFFF" style="font-size:3px; font-family:Arial" x="141" y="285">Total: 341.5 km</text><text fill="#FFFFFF" style="font-size:3px; font-family:Arial" x="141" y="290">Avg: 15.5 km</text><text fill="#FFFFFF" style="font-size:3px; font-family:Arial" x="167" y="285">Min: 10.1 km</text><text fill="#FFFFFF" style="font-size:3px; font-family:Arial" x="167" y="290">Max: 24.1 km</text><polyline fill="none" points="47.876194115397084,53.96366323760958 48.0,53.702537473298435 46.62896446313607,51.921037039264775 44.18035918991882,48.42745641362126 42.978983568980766,47.36539789018934 42.07565915170562,46.77341942157 40.933893771492876,46.23366722083665 40.2781811234272,46.20464809274927 39.46197936568933,46.0421406123678 38.76499808941662,46.14080594180632 38.25143293848669,46.303313048072596 37.357279327476135,46.372958762120106 36.94459304548218,46.55868011293569 35.36262896445987,46.686363074779365 34.96369889185735,46.831456887870445 34.37218188766201,47.20289481103464 34.028276652650675,47.266735379904276 33.2991975544428,47.04619482975977 33.08368360719396,46.77341942157 32.936950706909556,46.39037017293958 32.294994268253504,46.34974353668076 31.689721054630354,46.912709208630986 31.387084447840607,47.84129622049659 31.024837600307364,47.99799329480811 30.827665265576798,48.22433250186077 30.43790599922795,47.968975361291086 29.67214367597262,48.067636255047546 28.745892243019625,47.313164824805426 28.46618265188954,47.220305884715344 23.225066870450974,48.05022552559603 21.87237294611623,48.35201050162141 18.414978983553738,48.87432563105176 17.750095529230748,49.0194120374108 17.429117309893627,49.274762919820205 17.15399312189038,49.35601060882982 16.0672525792761,49.234139017560665 14.274359954135434,48.88593256163222 14.06343141000616,49.00200169458549 13.774551012600568,48.903342951609375 13.215131830318569,48.36361757365012 13.173863202122448,47.81808179039581 13.017959495598916,47.556918585331005 12.522735957183613,47.24352063858532 12.380588460062427,46.98815765427571 12.0,46.63993295085311 12.357661444384576,46.94753158466483 12.541077569720073,47.23771695130199 13.10508215513255,47.632365896908595 13.18303400840523,48.288171549287654 13.765380206335976,48.87432563105176 13.985479556740756,48.98459134468794 14.320213985469309,48.87432563105176 16.2506687046116,49.22833559980063 17.23194497516306,49.3269935947028 17.603362628964533,49.048429259750264 17.878486816956865,48.95557407911474 28.457011845614034,47.18548373030717 28.69086740542116,47.249324325097405 29.681314482219022,48.021207627451076 30.4103935804269,47.957368182404025 30.763469621702825,48.201118279212096 30.91937332823727,48.14308266761873 31.011081390894105,47.99799329480811 31.354986625898164,47.87611784208275 31.703477264039975,46.85467185236121 32.304165074499906,46.32652829865765 32.96446312572152,46.372958762120106 33.189147879245866,46.86627932992269 34.060374474582204,47.23191326322922 34.35842567825239,47.179680035158526 35.11043179214175,46.72118563472395 37.490256018340006,46.32072448719191 39.39319831868852,46.03633676239042 40.732136033628194,46.18723660647811 40.94306457776838,46.22205957197002 42.543370271316235,47.051998542996444 43.1669850974431,47.48727479522131 44.15743217424097,48.39263523996851 45.505540695445234,50.168479028670845 46.569354222392576,51.75855123073052" stroke="#4dd2ff" stroke-linecap="round" stroke-linejoin="round" stroke-width="0.5"><title>2022-10-15 16.0km</title></polyline><polyline fill="none" points="94.66666666666788,53.83550933227161 94.12388132081469,53.20886140444418 93.8477273729186,52.68463953410537 90.91002072036281,48.653347824521916 89.6482828549997,47.50837029444665 88.91980778556899,47.05037103409268 87.5247542212237,46.38746901934428 87.09147819952705,46.2910460854946 86.85341445135418,46.32720471017092 86.04875898249884,46.164490667732025 85.09650398977465,46.29707252497974 84.25851959617648,46.526076620753884 83.7109729753538,46.51402380298896 83.35863862804763,46.68878934109671 81.53983159195195,46.90573870942171 80.81611779747618,47.345660570710606 80.38760305074538,47.460160067959805 79.611515231667,47.21910815208321 79.44487060793836,47.04434469660191 79.25918088436083,46.56223505445814 78.53546708989597,46.48991815766931 77.95935281928905,47.03831835832898 77.65463122160872,48.02662693089587 77.09280077590302,48.32190998992519 76.80236300312754,48.30383149158661 76.65952475421727,48.17728179763799 75.85010801041426,48.26767447289603 74.81215006833372,47.472212629480055 74.45505444605806,47.40592350072984 63.85645637701964,49.177617177250795 63.4231803553339,49.27403385713842 62.89467883437101,49.62354257082552 59.91412070712613,49.153512974633486 59.61416038441166,49.24390366711668 59.323722611636185,49.12940875897766 58.75713089096462,48.60513883834574 58.66666666666788,47.930207548528415 58.71427941629372,48.44243312445542 58.82855001542703,48.65937394411594 59.06661376360353,48.81002666892891 59.276109862010344,49.08722635013328 59.56654763478582,49.219799500406225 59.90935943216755,49.12338270301552 62.83278225983304,49.599438609715435 63.080368557941256,49.52712664809951 63.32795485604947,49.29813799448311 63.75646960278755,49.177617177250795 68.24159061852697,48.46051156648173 68.81770488912662,48.26164830024936 74.52171229554733,47.39989721140955 74.81215006833372,47.44810750317265 75.84058546046799,48.24356977744901 76.01675263413199,48.29177915529726 76.67856985407707,48.189334164952015 76.98805272670506,48.46051156648173 77.25468412467308,48.20138652899914 77.6022571970243,48.05073174384597 77.9450689943842,47.02626567927655 78.43548031564569,46.55620865088713 78.73067936340885,46.49594457021885 79.27346470925477,46.56826145722516" stroke="#4dd2ff" stroke-linecap="round" stroke-linejoin="round" stroke-width="0.5"><title>2022-10-05 12.1km</title></polyline><polyline fill="none" points="141.33333333333212,53.4327776413993 138.3251141552464,49.14335593369833 136.92635948526004,47.912051934774354 135.93557492736,47.27652603715978 134.9134080531294,46.765828598898224 133.39809049397445,46.62396709474706 132.46558738064778,46.839596391240775 131.528601079277,46.92471291337279 131.0309672063122,47.07792221746786 129.5022000830213,47.27652603715978 129.13009547530237,47.38433914510824 128.59659609797018,47.719125449035346 128.30967206309288,47.78721725130163 127.52063096721031,47.58294151253358 127.1216272312231,46.953085048968205 126.52088003320387,46.890666325267375 125.94254877541243,47.463780205023795 125.6870070568657,48.05958335395917 125.669074304682,48.3035764842607 125.09522623496377,48.723468312637124 124.72760481527803,48.50217449503907 124.00132835202385,48.575939230755466 123.11365711913822,47.8893547472544 122.71913657118785,47.74182272875987 117.60381901204164,48.570265024922264 116.91340805312939,48.797232658802386 116.78787878787989,48.75751341161231 112.69024491489836,49.42138731346495 112.27330842673473,49.52352082646394 111.98638439185743,49.76750543320668 111.69946035699832,49.82991987189234 108.9109173931065,49.37599456114185 108.7764217517688,49.49515043114661 108.43569946036587,49.393016849026026 107.85736820257443,48.836951868335746 107.8394354503871,48.428409629497764 107.74977168950136,48.20711425371701 107.1714404317172,47.747497046762874 106.90244914901632,47.33326981275968 106.4720630967131,47.049550166368135 106.25687007056695,47.11196865340389 105.43196347031699,46.79987528841957 105.33333333333212,46.606943681967095 105.44541303446385,46.79987528841957 106.03719385636577,46.96443389785054 106.24342050644191,47.10629424932267 106.51241178911368,47.04387575385772 106.89348277292811,47.32759543866632 107.1893731839009,47.736148409971065 107.75425487753819,48.15037166142065 107.91564964715872,48.876671040248766 108.44466583644316,49.37599456114185 108.72262349522498,49.47812818474995 108.91540058115424,49.353298166526656 111.72187629722248,49.795875644136686 112.37193856372687,49.444083671194676 116.81477791614452,48.7177941267837 117.59485263594615,48.50217449503907 122.53980904939453,47.730474090414646 122.80431714405495,47.713451127176086 123.03744292237752,47.80424018458143 123.9564964715646,48.524871350633475 124.71863843918254,48.4681291886227 125.02797841428401,48.723468312637124 125.29696969697397,48.49082606263619 125.61975923620412,48.35464463408425 125.93358239933514,47.37866477791977 126.49398090495015,46.88499189123468 127.1888750518956,46.92471291337279 127.44889995847916,47.492151975649904 127.54753009547494,47.458105848603736 127.89273557493652,47.662382195940154 128.26484018265182,47.747497046762874 128.57866334578284,47.67373085270083 129.33183893732348,47.236805348526104 131.28650892485894,46.970108321125736 131.4882523868764,46.867968584501796 132.0127853881313,46.839596391240775 133.15151515151592,46.595594736274506 133.68949771688858,46.56722235860434 134.95375674553725,46.74880524375112" stroke="#4dd2ff" stroke-linecap="round" stroke-linejoin="round" stroke-width="0.5"><title>2022-10-02 14.7km</title></polyline><polyline fill="none" points="188.0,53.92080403406726 186.8769332452066,52.33693469946229 186.63423661599518,52.16830650603879 186.01083939193995,51.1264109927215 184.36906807667037,48.85583739116191 183.95981493720683,48.41014090144381 182.93192333114348,47.48861913187284 181.80885657633917,46.6995885887809 181.62326503636723,46.711634961815435 180.80000000000655,46.320126167596754 180.12901520159357,46.20568448454651 179.2058162590838,46.12135884543022 178.12081956378825,46.3622888187092 174.84203569067904,46.8682375145836 174.02828816920737,47.30190324466457 173.71896893589656,47.36213426166432 172.80528750825397,47.121209704313515 172.50548578982853,46.49479974773567 171.86781229345434,46.44059077902784 171.26820885657435,46.97665434349619 170.90178453404587,47.964439945815684 170.5163251817503,48.15717604224483 170.41639127560848,48.301727566511545 169.9405155320601,48.13308407587465 169.13628552543742,48.21138291891111 168.0179775280958,47.36815735886921 167.82762723067208,47.33201876334715 157.49160608063903,49.060615362126555 156.72544613350328,49.25334670895245 156.1877065432891,49.56051056696015 153.13734302710145,49.060615362126555 152.89464639788275,49.19914110206082 152.5567746199631,49.048569625243545 152.06186384666216,48.56673747429522 152.0,48.404117945327016 152.0285525446161,47.94637089396565 152.09517514871186,48.53662279156197 152.7471249173941,49.084706826153706 152.92319894250977,49.13288971505608 153.16113681428033,49.01845526870602 153.85115664243858,49.193118252766 156.18294778585914,49.53039655700559 156.71116986120614,49.163003994104656 157.05380039656666,49.09072969012777 167.85142101784731,47.28985703147191 168.09887640449597,47.33201876334715 169.09345670853145,48.1391070686841 169.28856576339604,48.187290981877595 169.97382683410615,48.08490010394962 170.0594844679472,48.24752079996324 170.2831460674206,48.337865374182 170.51156642432034,48.13308407587465 170.92557832121383,47.95239391205541 171.1920687376114,47.00074693626084 171.80118968935858,46.41649788285213 172.55783212161623,46.44059077902784 172.8243225380029,46.99472378929204 173.6428288169227,47.33201876334715 173.9473892927963,47.28985703147191 174.66120290812614,46.86221434966137 175.2179775280856,46.711634961815435 176.96444150694515,46.50684617623847 177.778189028435,46.31410292847431 178.20171844018842,46.302056447751966 178.7299405155427,46.12738211069518 179.27243886318684,46.07919596593274 180.84282881692343,46.24182399521305 180.99986781229018,46.17556820322352 182.9604758757414,47.46452680336006 184.3262392597535,48.69924183608964 185.6729676140094,50.530170790530974 187.39563780569006,53.07166436832267" stroke="#4dd2ff" stroke-linecap="round" stroke-linejoin="round" stroke-width="0.5"><title>2022-10-01 15.4km</title></polyline><polyline fill="none" points="47.90219606066239,95.16806737277511 41.357482454171986,86.10130739137821 39.124292506203346,84.05881664366461 37.74688702738786,83.1613412702427 35.50554675118474,82.08848327119631 33.0196966266667,81.66552548433538 30.810957663561567,82.26385532332642 29.1156893819134,82.35669918749772 28.251754584540322,82.70744165310316 25.105727869595285,83.06849838676862 23.9646819107802,83.81123828637647 23.369707946556446,83.99692212977243 21.93525016980857,83.57397493895405 21.29952456416504,82.43922697175731 20.085125650890404,82.33606722745753 19.18043921211938,83.20260473769304 18.52841294996324,85.01817517847667 17.468870273929497,85.65774082327698 16.89834729454742,85.22448726345465 15.545392800544505,85.3895365291828 13.556712700927164,83.82155406734091 12.0,84.05881664366461 13.499660402987502,83.86281717719248 15.52094181573193,85.31732751944219 16.90649762281828,85.22448726345465 17.468870273929497,85.66805635420315 17.92528865746135,85.25543402803305 18.593615576166485,84.93565018806112 18.658818202391558,84.39923557116708 19.123386914201546,83.21292060107226 20.109576635746635,82.33606722745753 21.3321258772703,82.34638320819067 21.81299524562928,83.3573425415525 23.271904007240664,83.8937644948819 23.9157799411405,83.80092250403686 25.34208738963207,82.96533949463628 30.541996830412245,82.09879928544979 31.259225718822563,82.10911529829173 32.77518677835178,81.74805401740741 35.52184740773373,82.08848327119631 38.27665836540109,83.49144838401116 39.46660629386315,84.32702562274062 41.40638442381169,86.13225379979849 47.82884310615191,95.01335355449555 48.0,95.43623724690406 47.77179080823407,96.02414482230233 46.63074484944809,97.40622546747181 45.51414987548196,98.33447451566462" stroke="#4dd2ff" stroke-linecap="round" stroke-linejoin="round" stroke-width="0.5"><title>2022-09-29 10.1km</title></polyline><polyline fill="none" points="94.66666666666788,93.49274213761964 94.09649919945514,92.80666444212329 91.58682764291007,89.21049476740518 90.9745986412272,88.57167050646967 90.24085853996439,87.95058240734215 89.37626033148626,87.3708922141268 88.19386386257611,86.77936367864095 87.43208273833443,86.6137342532129 87.33393915791385,86.67288769153674 86.62356657579949,86.507257862384 85.34770003029917,86.83260157486802 84.38963174520904,86.87400878261542 83.90358734694018,87.04555251089187 82.4080661214357,87.22892609614064 82.05755333419802,87.30582446731569 81.42195681336307,87.7198902928285 81.13219957593174,87.7731270427721 80.26292786361228,87.50694264420599 79.91708858020866,86.88583940620083 79.25345103640939,86.85034752585125 78.706651088316,87.3708922141268 78.37015881258776,88.33506655757446 77.79064433771055,88.74912262715225 77.3887230083601,88.49477436364032 76.77182050283955,88.61307606576156 75.63148556839587,87.80861817335972 75.33705482713049,87.73172068730855 64.93850880608807,89.45892390157314 64.41040287333817,89.577222992717 63.89164394824547,89.90254384157015 61.75117919425611,89.61862759893484 60.90527500109238,89.4116041754205 60.76974339001754,89.54173329901096 60.63888528279131,89.53581834725992 60.353801549186755,89.41751914398628 59.86308364706565,88.95614919020227 59.72287853216767,88.23450949124526 59.09662901899719,87.71397509438975 58.95642390410649,87.4300446270936 58.66666666666788,87.18751922482625 58.947076896438375,87.40638367151769 59.12467004199061,87.70214469507482 59.69016400538021,88.08071588321036 59.81634860877966,88.37647234114047 59.85373663940845,88.84967850888643 60.38184257216926,89.38202932053173 60.66692630577381,89.51215853222675 60.92864252023355,89.40568920603982 63.87762343675422,89.89071403498019 64.48517893461758,89.52398844134586 75.25293175819388,87.7258054904596 75.6081180492547,87.70805989513246 76.55683932666943,88.53026490792399 76.795188021988,88.59533083087445 77.3980700160173,88.48885927013544 77.76260331472804,88.725462386039 78.37950582024496,88.31732120975357 78.66458955385315,87.3708922141268 79.29551257087223,86.83260157486802 79.95915011467878,86.85034752585125 80.03859967977405,87.14611231425079 80.27227487126947,87.42412938939378 80.71625773509004,87.64299265057343 81.09948504912609,87.7198902928285 81.38456878273064,87.67256868283948 82.0014712882512,87.28807870136734 82.52490371717795,87.12245120489024 86.3992383919649,86.53091930499068 87.27785711195247,86.61964960065961 87.39002120386795,86.56641144488822 88.05365874767813,86.68471836958634 89.35756631616096,87.34131597758824 90.29226708209535,87.94466724014637 91.37184646675087,88.92657402698023 91.86256436887197,89.50032861991349 93.65718983946499,92.04960068877335 94.10584620711234,92.80666444212329 94.5311350556185,93.31530928366192" stroke="#4dd2ff" stroke-linecap="round" stroke-linejoin="round" stroke-width="0.5"><title>2022-09-24 16.0km</title></polyline><polyline fill="none" points="141.33333333333212,93.69161166299091 140.44100923951555,92.55020591108769 137.85039090262944,88.85258035264633 136.492714996446,87.66247508777815 134.4250177683025,86.50877146545827 132.77469793887212,86.30838833701273 131.63770433546233,86.60592659932809 130.61584932481492,86.65450408731704 130.17928216062865,86.81845272074497 128.36584932481128,87.04312209667478 127.65103056147564,87.47424126006808 127.1760838663904,87.57746636019874 126.3461265103142,87.2860066421963 126.05348258705999,86.66664845106789 125.35305614784738,86.63021534989457 124.79175550816944,87.18885298186069 124.44154228856496,88.18466802154217 124.06254442076533,88.36075496539343 123.84186211798806,88.57327276988508 123.72192608387195,88.56112892247256 123.4580668088056,88.3243232406312 122.67608386638676,88.4154024970303 121.63503909026258,87.64425894542364 121.26083866383124,87.55317812271824 116.81840796019969,88.24538773544919 115.12491115850207,88.59756045482209 110.58653162757037,89.32011306528148 110.04921819473384,89.45976474829877 109.83333333334303,89.67834911817772 109.53589196872781,89.76942562449403 108.18781094528094,89.61155956263974 106.56627576404208,89.27761029282556 106.34079601990379,89.39904667868541 106.1057213930435,89.35047216381645 105.43887704336157,88.76150198419055 105.33333333333212,88.0571563546946 105.47725657427873,88.75543008639579 105.99538024165304,89.24117931295041 106.28802416488907,89.37475942783203 106.53749111585057,89.23510748009721 109.5982587064791,89.74513857423881 110.22192608387195,89.36261579745405 115.04335465530312,88.59148853483202 116.75124378109831,88.20288394434829 121.51030561477819,87.49852954030939 122.62331201137204,88.36075496539343 123.53482587065446,88.3243232406312 123.65476190477057,88.84650846717341 123.4916488983763,88.87686788632345 123.41488983652744,88.66435152063787 123.29975124379052,88.63399195759848 122.90156361053232,88.71899868227774 122.79601990050287,88.83436469375374 122.75764036958572,88.78578956722049 122.70007107320998,88.57934469235624 122.77683013504793,88.5307692895476 123.4628642501848,88.40325860686426 123.7027363184061,89.47190835235597 124.21606254443032,89.44154933603932" stroke="#4dd2ff" stroke-linecap="round" stroke-linejoin="round" stroke-width="0.5"><title>2022-09-22 12.2km</title></polyline><polyline fill="none" points="188.0,93.69323222883031 184.34070796460583,88.69813303710907 183.10619469026642,87.5724724669526 182.3008849557591,87.06283496918331 181.0575221238978,86.52518860371856 179.69469026549632,86.34597159528857 178.6504424778759,86.60359580067961 177.70353982302186,86.66520135115206 177.13716814160216,86.86121840123087 175.57079646017883,87.06283496918331 174.91592920354378,87.44366358254774 174.5265486725657,87.53887018795285 173.7566371681387,87.28685222526838 173.49115044247446,86.70440483548737 172.86283185840148,86.65400034880076 172.33185840707665,87.13004027340867 172.07964601770436,87.70128095017208 172.01769911503652,88.05410213246796 171.62389380531022,88.26691345386644 171.4867256637226,88.44052187869602 171.32743362832116,88.42372109523421 171.08849557522626,88.21091058071033 170.49115044248538,88.31731597484395 170.31858407078835,88.28371430101106 169.35398230088686,87.55567133087243 169.15486725663868,87.49406710683252 164.4955752212336,88.22211116140898 163.4734513274343,88.45172239720705 159.11946902654017,89.15734894870911 158.7831858407044,89.23575115578933 158.45575221239415,89.49895747825212 158.24336283185403,89.54375838759734 156.4734513274343,89.31415321422537 155.4690265486679,89.0845467662366 155.3230088495584,89.20215022809498 154.96902654867154,89.1125476208108 154.4159292035365,88.54692668211283 154.34955752212772,87.91969441792753 153.79646017698906,87.53887018795285 153.58849557522262,87.19164503970751 153.36283185840148,86.99562955573856 153.1194690265511,86.82201506554338 152.84955752212772,86.86681887470695 152.28318584070803,86.60919630905119 152.1017699115,86.60359580067961 152.0,86.4131780644675 152.0,86.71560582419261 152.0530973451314,86.58119375956085 152.23451327433213,86.5867942709774 152.83628318583578,86.85561792696899 153.0707964601679,86.79401266014611 153.32300884955475,86.92282356793294 153.67256637166793,87.24764929304729 153.792035398219,87.49966749462328 154.3672566371606,87.86369107461724 154.49557522123723,88.61972981091458 154.9911504424781,89.0845467662366 155.25221238936865,89.17414943416225 155.50442477875913,89.03414518020145 156.15486725664596,89.23015100305565 158.28318584070803,89.52695805227995 158.80088495575546,89.21895069534003 159.23893805309126,89.1069474514079 168.9469026548686,87.48286632896634 169.4292035398248,87.55567133087243 170.33628318583942,88.26131316995452 171.13274336282848,88.19970999697762 171.18141592920074,88.31731597484395 171.4380530973467,88.42372109523421 172.01327433628103,88.05970244443961 172.0309734513321,87.77408556758746 172.28318584070075,87.15804245128675 172.8407079646022,86.64839984647915 173.5088495575219,86.65400034880076 173.76991150442336,87.19724546844736 173.8982300885,87.19724546844736 174.26106194690874,87.42686239412433 174.62831858408026,87.49966749462328 174.90707964602188,87.43806318716088 175.69026548673355,86.95642634746764 179.7477876106277,86.30676777116969 181.23008849557664,86.48598494948601 182.85840707964235,87.3540571654703 184.37610619469706,88.64773098020305 185.36725663716788,89.99736486176334" stroke="#4dd2ff" stroke-linecap="round" stroke-linejoin="round" stroke-width="0.5"><title>2022-09-17 16.2km</title></polyline><polyline fill="none" points="48.0,133.66812593150826 44.369933677222434,128.64872586705314 43.17612380250648,127.57426002393913 41.2262343404509,126.52774820821287 40.64259395726185,126.39903102099561 40.554163596159924,126.4549950647015 39.79808400883485,126.33187406849174 38.714812085479934,126.60050122365283 37.8526160648471,126.64527224642734 37.339719970514125,126.81316314981814 35.663964627849055,127.02582398160666 34.903463522467064,127.47912368120888 34.54532056005337,127.55187502182162 33.82461311717634,127.28885033873303 33.48857774503631,126.67885048165408 32.9137803979429,126.6284831185767 32.34340456889913,127.1713281307384 32.091378039782285,127.77012827525323 32.05600589535243,128.03874608181286 31.675755342657794,128.24580444942694 31.485630066319573,128.44166951808438 31.370670596905256,128.43607338614675 31.127487103894964,128.2122274873218 30.39793662491138,128.2961698414656 29.478260869560472,127.57985627257221 29.128960943253333,127.48471994273132 19.30876934414482,129.1243919290937 18.848931466473005,129.23631255986402 18.35372144437497,129.54968871366873 15.519528371416527,129.09081568076 15.382461311721272,129.20273640245796 15.042004421520687,129.10760380834108 14.489314664708218,128.57597645723945 14.396462785553013,127.93241840881092 13.81724392041724,127.49591246348064 13.569638909368223,127.10417243325719 13.180545320567035,126.82435585244093 12.906411201194715,126.85793394217035 12.066322770828265,126.51655542525259 12.0,126.35985614530728 12.119380987478507,126.56692292475054 12.658806190127507,126.69563958905565 12.915254237290355,126.84674124863523 13.220338983061083,126.81316314981814 13.65806927045196,127.16013552206641 13.81724392041724,127.4623348921159 14.356669123062602,127.81489803091972 14.476050110533834,128.06113082022057 14.49815770081841,128.547995880901 14.99336772292736,129.05723940515236 15.338246131173946,129.19154434393567 15.537214443629637,129.05723940515236 16.616064848931273,129.29227276160964 18.35814296242461,129.52170879653931 18.835666912309534,129.20273640245796 19.299926308027352,129.10200776657803 29.21296978628743,127.47352741894429 29.420781134856952,127.52949000758235 30.39351510684355,128.28497753741976 31.118644067795685,128.2066313243049 31.472365512152464,128.44166951808438 31.671333824608155,128.25140060713602 32.04274134119623,128.0835155464847 32.06927044952681,127.79810937822913 32.33898305084949,127.14334660338864 32.88725128960141,126.64527224642734 33.568165070009854,126.6732541110141 33.842299189382175,127.23848371908389 34.62932940308747,127.51270123894574 34.92999263079764,127.45114236226436 35.63743551952939,127.02022765795482 38.42299189389087,126.52215181710926 38.94030950625529,126.50536263924369 39.749447310234245,126.33747048536316 41.204126750180876,126.48297705813093 42.81355932202496,127.30563919830456 43.98084008842852,128.22901597178497 45.351510685322864,129.868658430114 46.07663964626772,130.98783094650935" stroke="#4dd2ff" stroke-linecap="round" stroke-linejoin="round" stroke-width="0.5"><title>2022-09-11 16.4km</title></polyline><polyline fill="none" points="94.66666666666788,133.76237662763015 93.41497294302462,132.14338450780997 92.01141931910388,130.04093330265096 90.98061272316772,128.6664221189967 89.71051173888554,127.5015477488123 89.07546124674991,127.11130778036386 87.73633303506358,126.44148465495527 87.06446802164282,126.33081722145289 86.1947249563309,126.23762337236985 85.10869657846706,126.5113797294216 84.1561208402527,126.56962553803896 83.4980612723084,126.75018704345712 82.06229494225772,126.92492326248612 81.6573352081432,127.06471172660167 81.08671012824925,127.43747874317341 80.8013975883041,127.47824993962422 80.01908901102797,127.23944666787065 79.68315650432123,126.59874841274723 79.0296987515394,126.55797638261356 78.69376624483266,126.80843252869454 78.44066641100653,127.12878128749435 78.15535387105047,128.00827197654144 77.53871063956467,128.42762544375728 77.19357450252937,128.183003084745 76.39746047977678,128.26454402565287 75.55532830541051,127.58308998158464 75.1963867229133,127.41418089929721 69.68341216071349,128.2936657527971 68.88269632280571,128.51499023481665 64.88371894839293,129.11489034100669 64.40513017170815,129.21390217550652 63.921939579868194,129.55752971548281 62.058204439894325,129.3420347995052 60.94456517106664,129.07994493324804 60.75128893432702,129.21390217550652 60.39694916697408,129.0915934056393 59.87694405385264,128.57323333029854 59.8585367932028,128.09563761936442 59.76189867483845,127.8801353794297 59.22348630107808,127.48989884580078 58.90596105499935,127.03558916737893 58.758702969866135,126.91909873329496 58.66666666666788,126.94822137139636 58.73109207890229,126.8725024713167 59.06702458561631,127.16372828047315 59.195875410103326,127.42582982281601 59.72048233839814,127.74617398337432 59.87234223868654,128.07816450500104 59.90455494481648,128.5499361015609 60.41995824278638,129.07994493324804 60.69146533725143,129.20225373622452 60.999786952997965,129.07994493324804 63.866717797947786,129.54588136924576 64.5201755507187,129.15565994751523 75.15497038646208,127.39670750808364 75.37585751416555,127.45495211781599 76.37905321913786,128.21794922119443 76.5907367165164,128.26454402565287 77.18897268737419,128.15388128267296 77.38685073926536,128.39850380728603 77.55251608504477,128.43344976867593 78.10933571945498,128.05486700813708 78.43606459583316,127.04723819342689 78.98828241509909,126.55215180373125 79.67855468916605,126.53467806232948 79.92705270782608,127.12878128749435 80.03289445651899,127.10548327639845 80.38723422387193,127.30934044562309 80.8198048489503,127.42000536144405 81.1419319101733,127.35593623435125 81.89662959648558,126.8725024713167 82.50867101282711,126.8142570728669" stroke="#4dd2ff" stroke-linecap="round" stroke-linejoin="round" stroke-width="0.5"><title>2022-09-10 13.4km</title></polyline><polyline fill="none" points="141.33333333333212,133.74182776850284 137.82980724025037,128.8288169705629 136.5281018934038,127.631149273544 136.14035987518946,127.37992695305365 134.4370645809322,126.48603101982735 134.04470658631544,126.39839316672078 133.73543616702955,126.42176327829293 132.89071248450637,126.25817223149716 131.4043680813811,126.58535370478785 130.5781083044858,126.64962120264317 130.37962131897075,126.7839983887643 128.62093430781897,126.98848460807494 127.79467453092002,127.46172042730177 127.44847630038566,127.52014424254958 126.69145616958849,127.24555162300385 126.38218575029532,126.63793621013974 125.71748514766296,126.58535370478785 125.14048809676387,127.14623045790722 124.86352951232766,127.78305043211003 124.82198572466586,128.08100884361556 124.48501944693271,128.2329084183657 124.23575672094375,128.4665990276153 123.86186263195486,128.2329084183657 123.06791468990559,128.28548891579703 122.13087147924671,127.56104086614141 121.84468094199838,127.45587804143724 116.40706073428737,128.32054254516333 112.90815061758985,128.9807139126424 111.58336538872754,129.15013679412004 111.08945591315205,129.2786640535378 110.67863401290015,129.57077003747327 110.48937898020813,129.61750681140256 107.65978544257086,129.15597895058454 107.34128307047285,129.26113763160902 107.06894046243906,129.15013679412004 106.54271915201389,128.653550603678 106.41347181261881,127.94079337687072 105.83647476171245,127.52014424254958 105.62413984698287,127.17544258901762 105.33333333333212,126.94758744174396 105.65645168183255,127.140388029311 105.81801085608458,127.43250849002288 106.37192802495701,127.77136574659016 106.49655938795331,127.99921654339778 106.56118305764903,128.5834438576021 107.1243321793263,129.13845247881545 107.41052271658191,129.2202426194417 107.62285763131149,129.09171518600488 108.31525409240203,129.26113763160902 110.48476300380571,129.5649279371828 110.66478608368561,129.5298753187708 111.12638372441143,129.2202426194417 121.76620934308812,127.42666610019296 122.12163952643459,127.48508996289092 123.10022652475527,128.26211981374217 123.94033423088331,128.19785471782598 124.05111766465416,128.39649197774634 124.21729281531225,128.46075677781118 124.42501175363941,128.25627753625304 124.82198572466586,128.0517973256101 125.11740821471903,127.0819636998167 125.58823780826788,126.63793621013974 125.75441295892233,126.57951120024518 126.39603367952805,126.61456621568868 126.68222421678729,127.15791531272771 127.503868017262,127.47340519668069 127.89161003546906,127.36824215836168 128.66247809548076,126.92421761500736 132.83993674402518,126.2698573268317 133.77697995469134,126.32828275607608 134.48322434499642,126.4626609430743 135.63260247039943,127.03522417926433 136.37115869556146,127.4967747259434 137.2435782365319,128.22706613692935 137.9729025088709,128.9923982706605 141.0886865837565,133.35044313326944" stroke="#4dd2ff" stroke-linecap="round" stroke-linejoin="round" stroke-width="0.5"><title>2022-09-03 16.2km</title></polyline><polyline fill="none" points="186.03361344537916,134.88152299038848 186.31321619556547,134.52190181393598 186.56990068755113,134.39429357432164 187.43162719633256,133.5764317442081 187.76623376623684,133.19939798469204 187.72956455308668,133.1239908347343 188.0,132.8919680025756 184.3926661573605,127.81615419606169 182.9763177998393,126.48764192819726 182.0412528647903,125.91909570665666 180.89533995416423,125.35054193996257 179.3414820473663,125.16489009624274 178.24140565316702,125.41435957541034 175.17035905271405,125.86108036185396 174.44155844156194,126.29619353289308 174.11153552330143,126.39481857065402 173.28189457600456,126.13955330040699 172.93812070281638,125.5477961423785 172.3055767761689,125.4723755251689 171.71428571428987,126.02932464534388 171.40259740259717,126.96915986790555 171.06340718104548,127.10839296229096 170.8433919022209,127.32884443634975 170.71963330787548,127.32304309629035 170.45378151259865,127.0967902217053 169.66539343009208,127.17800933979743 168.75324675323645,126.4760390195006 168.37738731857098,126.34840681645801 157.69747899159847,128.1352230599514 157.39495798318967,128.42528360160577 157.21619556914447,128.48329547428875 154.8510313216284,128.15842797556616 154.27349121467705,128.00179455140096 154.13598166539305,128.1236205974492 153.78304048892096,128.01339704688144 153.23758594345782,127.50868558822185 153.20091673032584,126.96915986790555 153.04507257448495,126.69069232170295 152.59129106187902,126.40062003638741 152.2933537051249,125.98871401673023 152.0,125.77405719737726 152.38044308632016,126.05833221364082 152.58670741023525,126.40062003638741 153.1046600458394,126.74870654307597 153.19174942704194,126.90534454842782 153.2513368983964,127.4912816387623 153.7738731856407,128.01339704688144 154.13598166539305,128.1236205974492 154.32849503437683,128.00179455140096 157.18411000764172,128.4774942905642 157.665393430103,128.17003042863507 157.94957983192944,128.08301195392414 168.42322383498686,126.33680387007189 168.72116119174098,126.41222296550768 169.6562261268191,127.15480389320874 170.49961802902544,127.0967902217053 170.6967150496639,127.32884443634975 170.8663101604252,127.32884443634975 171.01298701298583,127.14900252958614 171.43009931245615,126.92274873590213 171.46676852558812,126.60367084231984 171.73262032084676,125.9597064012778 172.18181818181256,125.53619297913974 172.42475171887781,125.4723755251689 172.9427043544747,125.501383470586 173.27272727272066,126.09894277627245 173.86401833460332,126.33680387007189 174.16195569137562,126.36581123016731 175.2574484339093,125.81466802946306 178.7639419404004,125.22290638382765 179.45607333843145,125.11847700960789 180.23529411764684,125.26931935733228 180.977845683723,125.30412905445337 181.3628724217051,125.57680403673294 182.4858670741014,126.09894277627245 183.34759358289375,126.74870654307597 184.0626432391109,127.41006311454476 184.91520244461208,128.4542895477607 187.47746371276662,132.1204830526258" stroke="#4dd2ff" stroke-linecap="round" stroke-linejoin="round" stroke-width="0.5"><title>2022-09-01 16.9km</title></polyline><polyline fill="none" points="48.0,173.7603733067699 44.24279677294908,168.57359077254296 43.145601229338354,167.5875063718886 42.431041106407065,167.19656725642562 42.14060699192851,166.9339942175866 41.05724164424464,166.44385359727676 40.398002305035334,166.33882273895142 39.52669996158147,166.2396266932301 38.39262389549185,166.52554408785 38.10218978102421,166.49053389656183 37.35996926621738,166.6013994047098 36.940453323077236,166.76477963359503 35.354590856703,166.9106543144735 34.49711870918327,167.41829435430554 34.151363810975454,167.49998299748404 33.38609296963841,167.24324674027594 33.04494813677229,166.61890445884274 32.33960814445163,166.57222429864123 31.80484056856949,167.0973731853628 31.53284671532674,167.73921313308165 31.486746062222664,168.04845987680528 31.104110641568695,168.23517381735655 30.892047637338692,168.4510608025994 30.546292739149067,168.19433021199075 30.057625816363725,168.29935654756991 29.592009220119508,168.17099099154075 28.76219746445713,167.52332258137903 28.476373415283888,167.42996416993628 18.177487514400127,169.15706204007802 17.74414137533313,169.2504167097286 17.4168267383684,169.5304795052907 17.18171340760091,169.60049491977043 15.586630810601491,169.39628297621312 14.25432193621964,169.09288058735547 14.042258932007826,169.2329127245721 13.696504033803649,169.10454994951579 13.47061083364315,168.81864966714784 13.230887437570345,168.67278144538432 13.138686131376744,168.4627303385605 13.157126392616192,168.08930362043247 13.0326546292672,167.82090116787003 12.497887053388695,167.46497359793284 12.318094506339548,167.15572266658637 12.0,166.90481933671617 12.345754898178711,167.15572266658637 12.48405685747639,167.44163398244928 13.06031502112819,167.8267360215832 13.21705724163985,168.57359077254296 13.728774490966316,169.11038462939905 14.01459854013956,169.22707806128165 14.25893200153223,169.0578724819352 14.996542451019195,169.25625136986855 17.18171340760091,169.57132184422153 17.88244333460898,169.18040072643998 28.49020361120347,167.43579907658932 28.776027660387626,167.4766434009398 29.776411832503072,168.27601738399972 30.518632347291714,168.18849540807423 30.716865155583946,168.39271307540184 30.89665770265856,168.42188694888682 31.0902804456382,168.22933901896977 31.4590856703835,168.0659643430954 31.754129850163736,167.15572266658637 32.367268536290794,166.56055425068917 33.00806761427884,166.5547192255217 33.32616212063658,167.14405277667902 33.4275835574299,167.12071298734372 33.819439108716324,167.37161506008852 34.25739531309955,167.44163398244928 35.23472915865932,166.92232426760165 35.63580484056365,166.84063452929695 39.47137917786313,166.2396266932301 40.40261237033701,166.303812395945 41.00192086054449,166.40300829390253 42.45870149826442,167.1090430879376 43.23319247022664,167.62835055244432 44.00768344218159,168.30519133649796 45.335382251239935,169.90972830637475 47.626584709945746,173.24113973121348" stroke="#4dd2ff" stroke-linecap="round" stroke-linejoin="round" stroke-width="0.5"><title>2022-08-28 16.3km</title></polyline><polyline fill="none" points="94.66666666666788,173.6357521328282 91.14569972046229,168.7694922918854 90.11116592666804,167.8253942777883 89.53839828976561,167.42639401783526 87.91777668147552,166.58342310843364 87.30948857096519,166.45978593517066 86.70564051966721,166.3642478671718 85.68886696268237,166.5778032449125 85.4446637066394,166.71267975937735 84.49005097846384,166.76887817766692 84.03716493998945,166.9037540711288 82.33218220689741,167.12292646303104 81.60401249794813,167.5612677743411 81.32428876830454,167.63432420941172 80.54283834896341,167.38143600158583 80.18763361290621,166.76887817766692 79.59266567999293,166.75201866018688 79.04653839828825,167.25218143359234 78.73573425424183,168.14009600212012 78.2206873869618,168.52785020233205 78.05640519652297,168.52785020233205 77.78556158527863,168.30868522997844 77.05739187633662,168.3705011085949 76.16049991777254,167.66804252069414 75.89409636574419,167.57250723425022 65.93504357835627,169.2246747323079 65.50435783588546,169.32020621562697 65.22463410623459,169.544985308974 64.94491037658736,169.6405160549948 62.902483144229336,169.36516213169307 62.14767308008959,169.17409915213648 62.01891136326958,169.28648924662048 61.85018911363659,169.29210874336422 61.588225620784215,169.14600158094981 61.14865975990688,168.72453573058738 61.015457983889064,168.03332247027356 60.451570465385885,167.60622559575495 60.08304555171708,167.1004472966015 59.76780134846558,166.89251443007015 59.53691827002331,166.943092790807 58.94195033712822,166.69020037072914 58.77766814668939,166.66210111781402 58.66666666666788,166.75763850011208 58.70662719947359,166.66210111781402 58.87978950830802,166.66772096991917 59.53691827002331,166.9318531603967 59.81220194047273,166.88127478597744 60.100805788526486,167.08920770884288 60.420490050975786,167.50507042906247 61.03765827988536,167.96588641386916 61.157539878306125,168.68519869950978 61.65482650879494,169.18533817526622 61.93455023844945,169.28648924662048 62.1876336128953,169.14038206443 64.98931096859815,169.6180382521925 65.44219700707981,169.30334773454524 65.66419996711193,169.2415332453529 75.84969577372613,167.5387888453588 76.14273968098496,167.61746504350594 77.0618319355417,168.35364224174555 77.2305541851747,168.3873599685976 77.74560105247292,168.26372816950607 78.17184673573865,168.51661100112324 78.35388916297597,168.32554411509045 78.73573425424183,168.15133530528692 79.00657786548618,167.25218143359234 79.35734254234558,166.86441531415767 79.60598585760454,166.71267975937735 80.227594145701,166.74077897803363 80.51175793454968,167.28028028696644 81.30652853150241,167.5837466911289 81.82601545798752,167.3982952633778 82.30110179247276,167.08920770884288 82.64298635094383,167.0049107035229 85.70662719947359,166.60590255491843 85.96415063312452,166.47664557139433 86.47475744121039,166.38672743237112 87.24288768296174,166.5159846959541 87.34500904457309,166.4654058146698 88.0110179246949,166.59466283320216 88.6104259167987,166.93747297598384 89.05443183688112,167.0835879138176 89.98240420984803,167.67928195170316 91.19010031246216,168.78073142457288 92.5576385462955,170.62952732728445 94.21378062819713,173.09071444833535 94.34254234502441,173.16376115122694" stroke="#4dd2ff" stroke-linecap="round" stroke-linejoin="round" stroke-width="0.5"><title>2022-08-26 16.9km</title></polyline><polyline fill="none" points="140.81488967491896,172.39444967650343 139.12312615799237,170.00587235933926 137.93161529393183,168.67626876755457 137.38133737578391,168.18701022549794 136.53090786592657,167.64594128039244 135.28937173656595,167.04730378372915 133.80225703216274,166.86310593471353 133.03823479872153,167.01276674784094 132.73353545561986,167.17393934191568 131.77850766379925,167.2084762468403 131.3328280276328,167.38691647527958 129.58649149402117,167.58262425158318 128.8315647633499,168.03159751010753 128.47684015495906,168.10642592549266 127.71736567290282,167.84164786409383 127.37628431868143,167.22574468877428 126.73050362136564,167.202720097961 126.17113020044053,167.75530683530815 125.84369210038858,168.67051281744716 125.49806299478223,168.84319098177002 125.28886643086662,169.04464795360036 124.94778507663432,168.80865540503146 124.19740609736618,168.9122620511007 123.26056931111088,168.1524741156354 122.94222671383613,168.0373535467479 112.37325248442357,169.8159315352168 111.97759811352807,170.09796457461562 111.66835101904144,170.1612778569106 108.88057941721127,169.7008154711948 108.68957385885005,169.8389547106126 108.35304025600999,169.7008154711948 107.84823985177718,169.22883634946993 107.72999831565176,168.52661381133657 107.15698164054629,168.077645781319 106.8159002863431,167.61716082444036 106.41569816404808,167.34662358593778 106.17921509178996,167.40994096632494 105.601650665325,167.15667087892143 105.33333333333212,167.15667087892143 105.81994273201053,167.17969549468035 106.1655718376278,167.36964809882193 106.39750715850096,167.31784292732118 106.62034697657873,167.4214532071528 106.99326259052759,167.74955076049446 107.1660771433344,168.06613371819913 107.65723429340505,168.37120233758833 107.81185784066838,168.71080445186453 107.8755263601197,169.24610397068318 108.38487451574474,169.69505965981443 108.6577395991153,169.80441994284047 108.93515243389265,169.66052477513585 109.69007916456394,169.8504662936466 111.75475829543211,170.14976635805215 112.49149402053808,169.76988514700497 122.91494020549362,168.0373535467479 123.20144854303362,168.10066989822008 124.1610240862392,168.8489469085107 124.97507158497683,168.80289947283381 125.1160518780598,168.98708891620845 125.27522317668627,169.04464795360036 125.53444500589467,168.80865540503146 125.8618831059539,168.6590009148822 126.17113020044053,167.6919899693894 126.68502610746873,167.18545164667376 127.39902307562807,167.202720097961 127.65824490483647,167.7840871977205 127.78558194375364,167.76681898261086 128.1584975576843,167.98554918903392 128.5541519285871,168.06613371819913 128.82701701196493,167.99706127397803 129.6592555162497,167.52506323443595 133.83409129190477,166.8515935426476 134.5298972545097,166.96671732300456 134.70271180730924,166.9149116604276 135.36668351019034,167.0530599536578 136.77193868957693,167.7840871977205 137.45864914940466,168.256082361062 138.5592049856823,169.22883634946993 139.94172140812225,171.0936989122347 141.33333333333212,173.1484064573524" stroke="#4dd2ff" stroke-linecap="round" stroke-linejoin="round" stroke-width="0.5"><title>2022-08-21 16.1km</title></polyline><polyline fill="none" points="188.0,173.64383349535638 187.51041796631398,173.06973402261792 184.48309419838188,168.77794969296883 183.2838427947645,167.68077414900472 182.5292576419306,167.2032380134151 181.2446662507864,166.56651471611258 179.7175296319365,166.40164728834498 179.09769182783202,166.52103411106145 178.72489082969696,166.6802160131956 177.83106674984447,166.72001139442 177.24716157204966,166.9076176835115 175.78739862756993,167.08385313077815 174.63755458515516,167.62960982286677 173.83356207111865,167.41358198060698 173.63593262632276,167.21460798452972 173.42482844667757,166.75980673791491 172.80948222084044,166.72569644581017 172.26600124766628,167.2373479175294 172.0009981285075,167.89111572358524 171.99201497192553,168.12988055817914 171.4036182158561,168.5505581533398 171.0128509045644,168.30042603722904 170.289706799751,168.39138334278687 169.31054273237896,167.64666460517037 168.97367436057175,167.5727604984604 160.46662507798828,169.0167094840799 159.41559575796055,169.11903469320896 158.4858390517802,169.34642315393648 158.27473487211682,169.56812571741102 158.0276980661365,169.65339562240842 156.04242046163563,169.39190069828328 155.16207111666517,169.15882776273065 154.98689956332237,169.3123149633284 154.69943855271777,169.22135965293273 154.12002495322668,168.6756236525398 154.11553337492296,168.220838233221 154.0301933873925,168.0104983106139 153.45527136620512,167.59550023746124 153.27560823456588,167.2885127217305 152.70517779164584,166.86782248013333 152.7680598877123,166.73706654626585 152.64678727386126,166.6347355313228 152.6512788521577,166.53240426694538 152.81746724891127,166.62905046761807 152.88034934498864,166.54377441974066 152.82645040549323,166.6347355313228 152.64678727386126,166.52103411106145 152.7725514660051,166.7768618735936 152.53898939488863,166.9246727591235 152.0,166.7029562356729 152.49407361198246,166.91330270949766 152.81297567062575,166.87919254209191 153.2800998128514,167.24303289884483 153.4777292576473,167.56707556179754 153.99426076107557,167.88543083002878 154.11553337492296,168.11282597217723 154.19638178415698,168.70404757767392 154.77579538366626,169.2270443656016 154.9913911416079,169.2952608576452 155.22046163443883,169.14177359468886 155.8672489083001,169.32368436326578 157.99176543980138,169.63634165524854 158.1669369931551,169.59086437566293 158.5756706175962,169.27820674502073 169.04104803493465,167.4988562616636 169.2701185277656,167.56707556179754 170.2402994385593,168.32885021639595 170.45589519651548,168.36864403487562 171.04429195258854,168.28337152050153 171.3497192763498,168.52213412428318 171.92014971926983,168.18104427463913 172.24354335620228,167.2032380134151 172.73761696818474,166.73706654626585 172.9532127261482,166.6802160131956 173.43830318153414,166.69727118120863 173.78415470991604,167.2885127217305 174.60162195882003,167.56139062435977 174.87560823456806,167.49317131497446 175.67061759200806,167.00994803330104 179.874734872119,166.35616650464726 181.35695570804455,166.53808934372137 182.05764192140123,166.96446790863047 182.68646288209493,167.24303289884483 183.3107922645031,167.68645907027894" stroke="#4dd2ff" stroke-linecap="round" stroke-linejoin="round" stroke-width="0.5"><title>2022-08-19 15.6km</title></polyline><polyline fill="none" points="48.0,213.59908625888056 47.906470369907765,213.45254229847342 47.85747865891244,213.35672481473375 45.2564641840836,209.69858656007636 44.463689224296104,208.71776757894622 43.30570332796924,207.66364325575705 41.40393418285748,206.63767844278482 39.91191389336018,206.42346281836217 39.11913893356177,206.57566877014324 38.847457627118274,206.70532525307135 37.85871582332766,206.77860917346698 37.46678213533596,206.93645102539813 35.76988741803143,207.13375249868477 35.11072621551284,207.51707840200834 34.718792527521146,207.65236905456186 33.99282444636265,207.44943291083837 33.78795001855542,207.2070356648619 33.600890758381865,206.78424639278091 33.017444018310925,206.7504230655104 32.87492267721609,206.81243247784369 32.38945935915035,207.31977874553922 32.12223184461254,208.18225321028513 31.77038228380843,208.3457267480153 31.56550785599029,208.54865852251896 31.23592725474009,208.32317871202395 30.478782630212663,208.41337078276774 29.44995669925629,207.62982064300013 29.21390572806922,207.59599800275828 23.87826302116082,208.43028177427186 22.608932327104412,208.72904149161332 19.268588395400002,209.21945373784183 18.818755412587052,209.32091761923948 18.31993071879333,209.66476560058072 15.536310775692982,209.2025430668873 15.318074972157774,209.30400698951053 15.033032289986295,209.21945373784183 14.445131758013304,208.64448707216434 14.427316590372357,208.17097914953774 14.315971792646451,207.9398602313413 13.777062971668784,207.57908667234005 13.652356798203982,207.32541589156244 13.371767907956382,207.0830179234399 13.068910058143956,206.89699061853025 12.837312878880766,206.93645102539813 12.213782011633157,206.6715018616669 12.004453791912965,206.722236938469 12.03563033527098,206.91953942704276 12.369664728437783,207.24085862112042 12.440925398983381,207.18448701207672 12.28058889026579,206.9589998125266 12.138067549170955,206.9928229703437 12.0,206.85189296487079 12.066806878632633,206.6658646270953 12.837312878880766,206.93645102539813 13.113447977226315,206.88571620969742 13.304961029320111,207.00973453892948 13.64790300630193,207.31977874553922 13.777062971668784,207.5621753350315 14.378324879369757,207.97368259220093 14.462946925646975,208.66703493415844 15.02857849807333,209.21381684828884 15.322528764078015,209.29837011141717 15.522949399975914,209.1799954949638 16.119757515774836,209.33219136858315 18.29766175925033,209.64785511052105 18.8855622912306,209.2814594725205 29.204998144254205,207.57908667234005 29.49449461833501,207.62982064300013 30.416429543492995,208.3626377670189 31.200296919458196,208.3062676769914 31.547692688360257,208.54865852251896 32.1133242608048,208.17661618028433 32.40727452678402,207.24085862112042 33.012990226390684,206.7391486169763 33.66324384511245,206.76733473259083 33.92156377583524,207.3028673029039 34.50946430780823,207.55653822108798 34.80786836570769,207.59036089338406 35.0528269207025,207.52271552129605 35.75652604230345,207.05483202158211 37.751824817518354,206.8011580461207 39.96981318817052,206.40091374111944 41.430656934298895,206.60949223941134 42.677718668808666,207.24085862112042 43.42595570951016,207.72001421594905 44.673017444016295,208.88123901384824 46.02251639242604,210.7752060798448" stroke="#4dd2ff" stroke-linecap="round" stroke-linejoin="round" stroke-width="0.5"><title>2022-08-14 16.5km</title></polyline><polyline fill="none" points="94.66666666666788,213.69852219035602 91.94535116783663,209.85200082586744 90.97345277538989,208.59956771550424 89.92645314353649,207.63785222267325 88.21679551683337,206.68170589437796 87.60273244160999,206.49159228969074 86.6087454493354,206.38535195286022 86.46737841044524,206.30147780964398 85.43804965844902,206.63697336026962 84.49707530576052,206.68170589437796 84.01996154947483,206.86063554624707 82.3898228821563,207.039564422721 81.70507628747873,207.43656009874758 81.32957009039455,207.54838917762027 80.55205137644225,207.279998879505 80.37092485785615,207.05074745174352 80.26489957868398,206.71525526317055 79.56689982410535,206.66493119977167 79.04560886816398,207.19612655359379 78.7584570703948,208.06279903960603 78.17531803492966,208.47096752250218 77.81306499775383,208.22494864598048 77.0664703235525,208.28086215571966 76.25802756984922,207.63785222267325 75.83834417310209,207.492474676048 71.32785208819769,208.21935729085453 69.3354603836924,208.62193292558732 66.0000818096305,209.1139644826253 65.56272753303347,209.23138023775027 65.28882889516535,209.46061955933328 65.01934797726426,209.5388961093886 63.106475232147204,209.29288359528437 62.26710843866749,209.09719077606496 62.01971612058696,209.21460657887292 61.75023520268587,209.09719077606496 61.233361966696975,208.61634162419068 61.131754407491826,207.95656274536668 60.566286251887504,207.50924903446503 60.371906573407614,207.17935206796756 60.137767415228154,206.98364923210102 59.84178017752856,206.80472011332313 59.62972961918422,206.85504400635182 59.3293246615176,206.67052276540562 58.82128686546639,206.60342392787425 58.66666666666788,206.34621070723006 58.76827422587667,206.46363433282386 58.84779318526125,206.87741016134532 58.79478054567517,206.87741016134532 59.17470446272637,206.84386092430577 59.66948909887287,207.43096863685423 60.06708389578125,207.31913923997854 60.292387614026666,207.48688322171802 61.05223544811088,207.80000349774855 61.16267844726826,207.92301438513095 61.21569108684707,208.50451543754025 61.7148934429606,209.07482582340162 62.04622244039274,209.18665046563547 62.28036159855765,209.0468696155258 63.066715752447635,209.24256267318924 65.03260113715442,209.52212257544306 65.20489221582102,209.48857548709566 65.64224649241805,209.16428556141182 69.91418169919052,208.4653762006601 71.25275084877285,208.15785233437055 75.9576226121826,207.47570031082068 76.18292633042802,207.54279773087546 77.06205260359275,208.25290541031063 77.84840675747546,208.19699186272555 77.94559659671722,208.33677558973795 78.14439399517141,208.42064559881692 78.73195075061449,208.07957316635293 79.04119114820423,207.1290285701798 79.61991246370235,206.62579021916827 80.23397553891846,206.65933963337739 80.5476336564825,207.21849252383254 81.32073465047506,207.52043193629652 81.6211396081344,207.4477430202678 82.3898228821563,206.97805770887135 84.32478422710483,206.69848058217758 85.19065734036849,206.49159228969074 85.58825213728778,206.48600069983877 85.86656849511928,206.36857713786594 86.82963144762834,206.3182526519231 87.18304904487013,206.418901562447 88.28747903628027,206.5027754671355 88.72925103284797,206.7376214938704 89.3477318280311,207.23526699355352 90.04573158260973,207.6546265220204 91.16783245388433,208.72257622102916 92.01603468729081,209.90232100532012" stroke="#4dd2ff" stroke-linecap="round" stroke-linejoin="round" stroke-width="0.5"><title>2022-08-12 16.3km</title></polyline><polyline fill="none" points="141.33333333333212,214.05660602423086 137.99448231094357,209.3929532475595 136.8596234988654,208.45572232109043 136.66682895163467,208.21725185780815 135.86936059720756,207.69039358600276 134.80460889321694,207.19680442417302 133.97208698474788,206.98051066966946 133.56897111327635,206.91950453238314 132.2982797792938,207.1912584447382 131.23790976955934,207.29663192557564 130.87861084064207,207.49074025950176 129.29243752028924,207.5905670444081 128.543167802658,208.08415146058178 128.24521259331596,208.15070171326443 127.46088932164639,207.9066835913618 127.30753002272832,207.74585267062866 127.11473547549394,207.3077238551632 126.50567997403414,207.26335611881223 125.98864005193536,207.77912808536348 125.72573839662437,208.4058100134389 125.70821161960703,208.63873359538775 125.30947744238802,208.87720160453318 125.16049983771518,209.054665268377 125.02466731582172,209.0324823524461 124.7792924375135,208.81619829249757 124.05193119116302,208.8993846045705 122.9039272963455,208.07860560129848 118.05777345017123,208.87165585265393 116.62057773450215,209.19330822071788 113.05826030508615,209.73123843266512 112.64638104512414,209.81442288624748 112.12057773450942,210.1471590111214 110.2320675105475,209.8865159427005 109.33820188249229,209.67578203642915 108.91317753975454,209.18776251161762 108.45748133722373,207.6182966637134 107.9798766634267,207.10806866309213 107.20431678025852,206.84740625295672 105.9818240830864,206.7253934909313 105.66634209672702,206.6144724827136 105.49107432651363,206.45363648714556 105.33333333333212,205.9433939757655 105.52612788055558,206.4924590266637 105.6707237909759,206.58674218370652 106.35864978902464,206.77530784659757 106.9545602077269,206.7919459516379 107.57676079194425,206.92505054861613 108.12447257383974,207.2134423579846 108.65465757870697,207.93995887542042 109.03586497890137,209.23767386634427 109.38201882505382,209.6924189631718 109.83333333333576,209.75896660263243 112.14248620577564,209.17667109119793 112.39662447257433,209.32640501340938 112.52369360597004,209.59814295553224 112.52807530021892,209.86433347730417 113.06264199934594,209.70905588317692 117.82554365465694,208.86611010003253 122.86011035378397,208.0730597412621 123.09672184355804,208.1285183077125 124.07383966245834,208.88829310605797 124.8231093800714,208.8217440519038 125.07286595261394,209.83660537866308 125.61619604025691,209.73678406815452 125.69506653683129,209.65359945689488 125.6468679000318,209.38186188272084 125.83528075300273,209.2764937668435 125.83528075300273,209.0491195405193 126.01493021746137,208.6609167245806 125.9798766634267,208.32262269885905 125.86595261278853,208.12297245445734 125.9010061668414,207.9011377080642 126.0061668289527,207.69039358600276 126.49253489127659,207.26335611881223 127.14978902952862,207.26890208849363 127.40392729633095,207.8124034730463 128.0787082116185,208.09524317685646 128.5387861084091,208.0730597412621 128.6132749107528,208.21170601656922 128.95942875689434,208.00650936241436 129.2792924375317,207.60720481824683 129.75251541707985,207.50183213650962 132.4866926322684,207.11916064373872 133.2228172671239,206.94168859281854 134.82213567024155,207.11916064373872 136.7807530022692,208.18952264405743 137.92437520285603,209.23212816326486 140.952125933145,213.52427773669478 141.12739370335112,213.64072514070722" stroke="#4dd2ff" stroke-linecap="round" stroke-linejoin="round" stroke-width="0.5"><title>2022-08-07 17.9km</title></polyline><polyline fill="none" points="188.0,218.80575072518332 184.50727650728732,213.9644607615046 183.4844074844077,213.05928311761818 182.72349272348583,212.56458410058258 181.69230769231217,212.07514164199165 180.71517671518086,211.8646268607954 180.4906444906519,211.83831243298118 178.93139293139757,212.18566144564102 178.43243243243342,212.20671280115857 177.945945945954,212.3698604199344 176.51559251558865,212.4961677834217 175.85446985447925,212.90140113674715 175.442827442821,213.0224440461243 174.73180873181263,212.80140888380993 174.39916839916987,212.20671280115857 173.81288981289254,212.20144996335148 173.3056133056125,212.66457696286307 173.02702702702663,213.51187457479318 172.48232848232874,213.86973385621968 172.1247401247383,213.63291558286437 171.48856548856565,213.72238043350808 170.5862785862737,213.05928311761818 170.26611226611567,212.98034220735644 166.34511434512387,213.59081440543014 164.86486486487775,213.90130951696847 161.03118503118458,214.50650472366397 160.61954261954816,214.59596756343672 160.1580041580055,214.90119217288157 158.61122661122863,214.71174269745825 157.47193347193024,214.45387942761954 157.3264033264095,214.57491750201734 157.06860706860243,214.50650472366397 156.55301455301742,214.0381370838004 156.48648648648668,213.50134925192833 156.38669438669604,213.31715564037222 155.87110187110375,212.9592912708722 155.75467775469588,212.71720468177955 155.55509355510003,212.5277445601605 155.2432432432397,212.3224950527765 155.04365904366205,212.38038604922622 154.3284823284812,212.12777015912434 154.10810810811017,211.89620415067475 153.87110187110738,211.97514726311783 153.8544698544756,212.02777591564882 153.94594594596128,211.9646215240573 154.0166320166354,212.0225130536055 153.82120582121206,212.18566144564102 153.4345114345124,211.68568840017178 153.06029106029746,208.86993060103487 152.99376299376672,207.15932389937734 152.490644490641,201.12159607181093 152.33679833680435,200.07924292795724 152.0,199.36326698763878 152.06237006236915,199.2895628327933 152.35758835759407,199.45276470193494 152.490644490641,199.31588576129434 152.4324324324407,199.18953554180916 152.2952182952249,199.12636027792178 152.02910602911288,199.3000920063423 152.01663201662814,199.41064815618302 152.30769230769874,199.86866313902283 152.4074844074894,200.3161438259085 153.20582120582185,209.12783092479003 153.52598752598715,211.74358034523902 153.779625779629,212.14882154601946 153.95010395011195,212.2803924557411 154.25779625780342,212.35933478776133 154.26195426195773,212.42775134581825 154.47401247401285,212.33828351490956 154.63201663202562,212.35933478776133 155.03950103950774,212.89087564856527 155.40540540540678,212.79088336852874 155.73388773388797,213.01191859070605 155.70478170478236,212.7698323294244 155.47193347194116,212.51195617499252 155.55509355510003,212.50669337852014 155.779625779629,212.71720468177955 155.8918918918971,212.94350306103297 156.41580041580164,213.2961048863326 156.49480249480985,213.44345992523085 156.54469854470517,213.9697233606057 157.00207900207897,214.44861689410027 157.31808731808633,214.55912994847313 157.54261954262256,214.42756675286728 158.16632016632866,214.59070504915508 160.17047817047933,214.8748798009583 160.65280665281534,214.55912994847313 170.3367983367898,212.9329775842416 170.6070686070707,213.0013931324429 171.46777546777594,213.6960672635214 172.22037422038193,213.6539661544848 172.44490644491088,214.60649258987178 173.07692307692196,214.45914196043668 173.82120582120479,214.41177913946376 174.99376299377036,214.2065395816935 175.04365904365477,213.67501671470745 174.8773388773334,213.2855795050309 174.88981288981813,213.01191859070605 175.7130977130946,212.92771484477998 176.4490644490652,212.45932817814173 177.11850311850867,212.4172257293394 180.18295218296043,211.8804155089456 181.68399168399628,212.05409021520245 183.12681912681364,212.8066716403664 183.6465696465675,213.15401199827465 184.44074844075658,213.87499646812284 185.43035343034353,215.10642806252145 187.53846153846462,218.09538179293668 187.4095634095611,218.3321728793926 187.56756756756658,218.59527239487215 187.52598752599806,218.68472582451068 187.63409563410096,218.96887064733164 187.5717255717209,219.33720343763707 187.23908523908904,219.68448544348576 187.17255717256194,219.8686488847452 186.9230769230744,220.0422879017242 186.46153846153538,220.6105556257644 186.4282744282791,220.5789854145587 186.43243243243342,220.76840629718936 186.5405405405436,220.87363972208186 186.3575883575868,220.63160241898368 186.20374220373924,220.70526610553134 186.34095634096593,220.67895766207585" stroke="#ff0000" stroke-linecap="round" stroke-linejoin="round" stroke-width="0.5"><title>2022-08-06 24.1km</title></polyline><polyline fill="none" points="47.54929577467556,254.5400366744143 45.85915492957429,251.96146667771973 40.02816901407641,244.07080960246822 37.55868544599798,241.8365790374446 35.72769953050738,240.68378889540327 33.474178403754195,239.57852227242984 32.056338028181926,239.17444282794168 30.713615023480088,239.0318261092616 28.02816901409824,239.6498302165346 25.64319248827087,239.89940756469878 25.00469483569759,240.1608687872358 22.065727699518902,240.3985601317254 19.511737089196686,241.69396664476517 17.65258215960057,241.1116303028175 16.920187793431978,239.85186907690513 15.558685446005256,239.82809982339677 14.516431924887002,240.82640292966244 13.887323943665251,242.78732239993406 12.657276995290886,243.61921439367143 12.10328638496867,243.23892188919854 12.0,242.92993301600654 12.225352112669498,242.87051195414097 12.300469483583583,242.53775326423056 12.873239436630683,241.9910755346864 13.784037558696582,241.57512280717492 13.896713615016779,240.60059726845066 13.887323943665251,241.50381642737193 13.718309859148576,241.6701978901183 13.971830985909037,241.3255502243701 13.859154929596116,240.29159910638555 13.95305164319143,240.62436631277524 13.671361502325453,240.54117462947033 14.028169014083687,240.636250832511 14.009389671351528,240.93336330322927 14.103286384983221,240.3985601317254 13.699530516430968,238.5088961576621 13.37089201877825,238.6515137262104 13.755868544591067,240.50552102676738 13.305164319252071,240.79074944281456 12.995305164295132,240.6956734071282 13.126760563383868,239.8399844509695 12.95774647887447,238.78224629378383 12.741784037534671,238.68716808212048 12.422535211248032,238.82978536096925 12.751173708922579,240.70755791721604 13.652582159622398,240.73132693257503 13.849765258208208,241.58700719816989 12.58215962441318,242.52586900196184 12.10328638496867,243.09631177522533 12.600938967130787,245.28297472646955 13.79342723004811,244.98587698011397 13.812206572751165,244.24907022949628 14.093896713631693,244.21341813304753 14.272300469478068,243.79747593787033 14.760563380274107,243.57167792071414 14.826291079822113,243.20326938244398 14.563380281695572,242.82297507569456 14.319248826286639,241.24235920570936 14.507042253513646,240.8026339400094 15.511737089196686,239.89940756469878 17.098591549314733,239.81621519418695 17.58685446007439,241.06409247167903 19.15492957747483,241.62266036153596 20.12206572770083,241.46816321573715 21.39906103284011,240.70755791721604 20.394366197178897,241.87223209944204 22.046948356801295,241.37308791391115 21.999999999992724,240.95713225739746 22.262910798119265,240.70755791721604 22.103286384961393,240.57682821767958 21.211267605627654,240.6956734071282 20.018779342717608,241.51570082800026 19.295774647878716,241.68208226825664 17.868544600940368,241.23047476806823 17.446009389670508,240.74321143786074 17.051643192469783,239.8399844509695 15.605633802799275,239.80433056337642 14.582159624391352,240.7194424256959 13.924882629085914,242.76355394138955 12.544600938956137,243.61921439367143 12.150234741769964,243.33399516980717 12.10328638496867,243.09631177522533 12.62910798122175,242.47833193682163 13.765258215957147,241.72961976467195 14.009389671351528,241.19482144537324 14.131455399030528,240.469867409578 13.821596244139073,240.56494368986023 14.084507042243786,240.70755791721604 13.765258215957147,240.30348367123224 13.323943661969679,240.30348367123224 13.821596244139073,240.32725279599254 13.924882629085914,240.54117462947033 13.568075117378612,239.0080566335746 13.69014084507944,238.84167012373655 13.727699530500104,238.94863291629736 13.652582159622398,238.7465919764727 13.63380281690479,239.51909894141136 14.009389671351528,240.70755791721604 13.887323943665251,241.4919320251065 12.657276995290886,242.46644766652025 12.131455399052356,243.16761686115933 12.544600938956137,245.2592069437669 13.727699530500104,245.02152876277978 13.90610328636103,244.84326970465918 13.765258215957147,244.34414241582272 14.009389671351528,244.2253021667857 14.131455399030528,244.34414241582272 14.234741784021026,243.55979379843484 14.610328638482315,242.76355394138955 14.48826291077421,241.9673068605407 14.225352112669498,241.58700719816989 14.291079812195676,241.36120349392877 14.48826291077421,240.79074944281456 15.57746478873014,239.75679202410538 17.070422535209218,239.75679202410538 17.65258215960057,240.945247781121 19.53051643193612,241.58700719816989 20.065727699518902,241.39685674901557 21.624413145531435,240.37479102628276 25.699530516423692,239.98259985639743 25.981220657275117,239.78056129694596 27.427230046945624,239.53098361082084 28.328638497623615,239.637945563205 29.436619718297152,239.15067339094094 31.051643192484335,239.06748031063034 31.915492957741662,239.340828706896 33.34272300469456,239.3645980924266 35.77464788731595,240.56494368986023 37.953051643198705,242.02672853391414 40.59154929576471,244.55805445862643 45.35211267606064,251.42673069822195 48.0,254.87274986656848 45.483568075113,257.712643296436 44.15962441316515,258.7582712940057 44.131455399052356,259.00779431649426 43.802816901421465,259.25731662978797 43.76525821596442,259.8276506829061 43.92488262910774,259.8157687612402 43.73708920189529,260.0771706660671 43.69014084506489,259.3523725626146 43.868544600947644,259.411782468349 43.69014084506489,259.7563591288708 43.45539906102931,259.6731855760372 43.61502347418718,259.55436607813317 43.173708920199715,259.9464698109732 43.09859154928563,260.17222571122693 43.483568075134826,260.5999721407861 42.81690140845603,261.3485233779138 42.920187793439254,261.2415878776519 43.333333333343035,261.467340447678 43.51173708920396,261.44357704660797 43.44600938967778,261.17029747177 43.56807511737861,261.39605022512114 43.63380281692662,261.28911478274676 42.75117370894441,261.49110384233063 43.12676056336932,261.2297061473437" stroke="#4dd2ff" stroke-linecap="round" stroke-linejoin="round" stroke-width="0.5"><title>2022-07-23 16.3km</title></polyline><polyline fill="none" points="94.66666666666424,257.521782867836 92.9720720720652,255.21310758832988 92.56666666665842,254.8539740029737 91.86126126124873,253.67395167104405 87.37747747746471,247.42465758627804 84.90450450451317,245.10541242804175 83.37207207205938,244.13048730166338 81.26396396395285,243.09397420137975 78.57207207206375,242.51926775910397 77.44504504505312,242.478217132164 76.69909909908893,242.6424195064901 76.18828828828555,242.52953041235014 76.08288288289623,243.2171250148167 75.79099099097948,243.34027562813571 73.69099099100276,243.76103871370287 70.90180180180323,244.08943754750362 69.79099099098676,244.81806737853913 69.19909909908893,244.97200236197386 67.7639639639674,244.38704776143277 67.2045045045088,243.42237592585298 66.05315315316693,243.39158832465182 64.99099099099112,244.30494850880496 64.4720720720652,245.90586789268855 63.74234234234609,246.29583031278162 63.55585585585504,246.53185922381817 62.6882882883001,246.20347097356716 61.439639639647794,246.35740314303985 59.582882882903505,244.9412153903031 58.66666666666424,244.9412153903031 59.6234234234289,244.92069073556195 61.35855855856789,246.29583031278162 62.8342342342512,246.2445195826731 63.1828828828875,247.40413360410457 63.25585585585213,248.0711601799194 63.10990990992286,248.17377913205564 63.23963963965798,248.40980219475023 65.98828828830301,247.87618378804473 66.15855855854898,247.62989710236434 74.59909909911221,246.32661673414987 73.99099099098385,245.5672146894285 72.95315315313928,244.79754269044497 73.01801801802503,244.63334498563927 73.39099099099258,244.62308261728322 73.43153153154708,243.80208864577435 73.7477477477587,243.53526368996245 76.36666666666133,243.0837116245384 77.01531531532964,243.1144993508642 77.38018018018192,242.88872240089404 78.45855855855916,242.7245205602303 81.32072072070878,243.0323987196025 83.31531531530345,244.04838777110126 85.0828828829035,245.15672392941633 87.24774774772959,247.16810740958317 92.83423423422937,254.95658377243672 92.68828828827827,255.2438903878865 92.48558558559307,255.2951950260467 92.65585585585359,255.54145680589136" stroke="#4dd2ff" stroke-linecap="round" stroke-linejoin="round" stroke-width="0.5"><title>2022-07-16 10.3km</title></polyline></svg>