<?xml version="1.0" encoding="utf-8" ?>
<svg baseProfile="full" height="300mm" version="1.1" viewBox="0,0,200,300" width="200mm" xmlns="http://www.w3.org/2000/svg" xmlns:ev="http://www.w3.org/2001/xml-events" xmlns:xlink="http://www.w3.org/1999/xlink"><defs /><rect fill="#222222" height="300" width="200" x="0" y="0" /><text fill="#FFFFFF" style="font-size:12px; font-family:Arial; font-weight:bold;" x="10" y="20">Over 10km Runs</text><text fill="#FFFFFF" style="font-size:4px; font-family:Arial" x="10" y="280">ATHLETE</text><text fill="#FFFFFF" style="font-size:9px; font-family:Arial" x="10" y="290">Allen</text><text fill="#FFFFFF" style="font-size:4px; font-family:Arial" x="120" y="280">STATISTICS</text><text fill="#FFFFFF" style="font-size:3px; font-family:Arial" x="120" y="285">Number: 24</text><text fill="#FFFFFF" style="font-size:3px; font-family:Arial" x="120" y="290">Weekly: 1.6</text><text fill="#FFFFFF" style="font-size:3px; font-family:Arial" x="141" y="285">Total: 372.7 km</text><text fill="#FFFFFF" style="font-size:3px; font-family:Arial" x="141" y="290">Avg: 15.5 km</text><text fill="#FFFFFF" style="font-size:3px; font-family:Arial" x="167" y="285">Min: 10.1 km</text><text fill="#FFFFFF" style="font-size:3px; font-family:Arial" x="167" y="290">Max: 24.1 km</text><polyline fill="none" points="48.0,53.880056262954895 44.40190124107539,48.83312942323755 43.79825719566361,48.231550441287254 42.65275944017412,47.305102877253375 41.069976234466594,46.4508289118894 40.83707420120845,46.34253948960395 39.32083443357624,46.11994373704147 37.19144441508615,46.46286105362742 36.65434380774968,46.6493588338235 34.82915236333429,46.871951933717355 34.059149722721486,47.35924644826082 33.70266701874061,47.42542183431215 32.899392659088335,47.1667356737853 32.5666754686863,46.52302171341944 31.84895695800151,46.480909260120825 31.259572220744303,47.03438403245309 30.960126749399933,47.99693243040383 30.361235806693003,48.30374034921624 30.080802746226254,48.267645409927354 29.947715870079264,48.15936041605164 29.153947715854883,48.23756627142211 28.203327171890123,47.485581190638186 27.856350673358975,47.3772942906071 23.1175072616752,48.11724951383803 21.596514391330857,48.44811981318344 17.23316609453468,49.133915859656554 16.7531027198238,49.24219847826316 16.448904145756387,49.50087255450853 16.201742804325477,49.59110734306887 14.034327964072872,49.28430831424339 13.178769474507135,49.061727300624625 13.064695009226853,49.206104301385494 12.936361235791992,49.21813569694132 12.636915764447622,49.09180588115487 12.152099287031888,48.64062503526293 12.047531027197692,48.41202499117935 12.080802746226254,48.19545544333596 12.0,47.870599142122956 12.05703723262559,47.780360859120265 12.114074465262092,48.49624619689348 12.627409559008811,49.067743018364126 12.884077105871256,49.206104301385494 13.064695009226853,49.206104301385494 13.21204119354661,49.08579016666408 16.19698970160971,49.57306040000185 16.377607604947116,49.5369664919308 16.84816477421191,49.188057201958145 27.856350673358975,47.36526239650266 28.103512014789885,47.39534212560102 29.153947715854883,48.225534610344766 29.957222075514437,48.147328733793984 30.34222339581902,48.41804079688154 30.57512542909899,48.18342377083172 30.941114338515035,48.00896415341049 31.245312912593363,47.00430405896259 31.83469764985057,46.48692532731366 32.519144441506796,46.48692532731366 32.86612094004158,47.088527933385194 33.683654607855715,47.40737401151637 34.006865592808026,47.35323049918952 34.86717718509681,46.81780776882806 36.9300237655043,46.57115018260083 39.39688407709764,46.14400819650109 40.01478743067128,46.26433029823238 40.751518352259154,46.27636249048737 42.19646157907482,46.99227206387877 43.10905730128434,47.59386782675938 44.23554264588165,48.6767196715482 44.644309479794174,49.206104301385494" stroke="#4dd2ff" stroke-linecap="round" stroke-linejoin="round" stroke-width="0.5"><title>2022-10-29 14.6km</title></polyline><polyline fill="none" points="94.66666666666788,53.67218658123966 93.9230296323658,52.770316228172305 91.99311447189757,49.91893220112979 91.02373048075606,48.647229994105146 89.79761465633055,47.56597226269514 88.98758145825923,47.03373657640259 87.94737489241015,46.54631473090194 86.45124800196209,46.32781341876034 85.66334685848051,46.456673306554876 85.41989425795691,46.607943097467796 84.28673306283235,46.68077650324267 84.01672199680615,46.88807087939131 83.4988319193435,46.87126326595171 82.45419894257793,46.994518939198315 81.27677363826297,47.554767371435446 80.5110045493675,47.30265651577429 80.31624246894717,47.03933909296393 80.20115578506011,46.69758419404752 79.57703184557613,46.652763670026616 79.01045124800294,47.162594265468215 78.74929300380609,47.7340452674689 78.71388171645594,48.03657495549123 78.19599163901148,48.305488376656285 77.89056928563514,48.305488376656285 77.74449772531443,48.21024840654718 77.04069838927535,48.27747664349954 76.08902004180345,47.56036981745274 75.86769949587688,47.481935504281864 65.93925980572021,49.10661591756798 65.49661871387798,49.2186604910421 65.17349071682474,49.481964044389315 64.93446452722856,49.54358803832292 62.198942579612776,49.117820388579275 61.995327677359455,49.20745604735566 61.66334685848051,49.089809205393976 61.1277511373446,48.56319543183781 61.03922291895651,47.93012957677274 60.45051026680085,47.49314041525213 60.238042542721814,47.145786763576325 59.83081273821881,46.83204547474452 59.543096028526634,46.848853104096634 58.69322513216321,46.49589145360005 58.66666666666788,46.3950447146417 58.768474117787264,46.529506978633435 59.35276035901916,46.68077650324267 59.543096028526634,46.820840384716575 59.82195991638582,46.77601999422768 59.994589942201856,46.893673415681405 60.31771793925509,47.19620924879564 60.49477437599489,47.481935504281864 61.02594368620703,47.818081513825746 61.15430960283993,48.546388498911256 61.68547891306298,49.06740024517421 61.955489979096455,49.168240470538876 62.18566334684874,49.033786782096286 62.8806098610512,49.2186604910421 64.93889093814869,49.52117932385954 65.15135866224227,49.47636185857482 65.54530923398488,49.179444924840936 75.82343538669375,47.46512813210211 76.15541620557997,47.54916492467237 77.05840403295588,48.28307899164065 77.79318824542133,48.19904368978314 77.974671093074,48.40072812751532 78.14287470798081,48.43994443180418 78.42616500677104,48.182236608914536 78.70502889463023,48.070189228721574 78.97946637156565,47.15699176560156 79.52391491454546,46.635955961020954 80.1834501413905,46.64716110112204 80.47559326201736,47.17940176054253 80.96692487397377,47.420308439603104 81.34316980203948,47.481935504281864 81.65301856633596,47.397898575134604 82.3700971351318,46.96090379200541 85.58367146194723,46.484686272524414 85.79613918603718,46.378236900920456 86.62387802777812,46.33901864233849 87.91639001598378,46.49028886344604 89.43464896103251,47.26904161895072 90.51026681421718,48.103803474648885 91.26275667035225,48.882525860382884 93.2280831181597,51.621943542093504" stroke="#4dd2ff" stroke-linecap="round" stroke-linejoin="round" stroke-width="0.5"><title>2022-10-22 16.5km</title></polyline><polyline fill="none" points="141.2095274487292,53.96366323760958 141.33333333333212,53.702537473298435 139.9622977964682,51.921037039264775 137.51369252325094,48.42745641362126 136.3123169023129,47.36539789018934 135.40899248503774,46.77341942157 134.267227104825,46.23366722083665 133.61151445675932,46.20464809274927 132.79531269902145,46.0421406123678 132.09833142274874,46.14080594180632 131.5847662718188,46.303313048072596 130.69061266080826,46.372958762120106 130.2779263788143,46.55868011293569 128.695962297792,46.686363074779365 128.29703222518947,46.831456887870445 127.70551522099413,47.20289481103464 127.3616099859828,47.266735379904276 126.63253088777492,47.04619482975977 126.41701694052608,46.77341942157 126.27028404024168,46.39037017293958 125.62832760158562,46.34974353668076 125.02305438796247,46.912709208630986 124.72041778117273,47.84129622049659 124.35817093363949,47.99799329480811 124.16099859890892,48.22433250186077 123.77123933256007,47.968975361291086 123.00547700930474,48.067636255047546 122.07922557635175,47.313164824805426 121.79951598522166,47.220305884715344 116.5584002037831,48.05022552559603 115.20570627944835,48.35201050162141 111.74831231688586,48.87432563105176 111.08342886256287,49.0194120374108 110.76245064322575,49.274762919820205 110.4873264552225,49.35601060882982 109.40058591260822,49.234139017560665 107.60769328746755,48.88593256163222 107.39676474333828,49.00200169458549 107.10788434593269,48.903342951609375 106.54846516365069,48.36361757365012 106.50719653545457,47.81808179039581 106.35129282893104,47.556918585331005 105.85606929051573,47.24352063858532 105.71392179339455,46.98815765427571 105.33333333333212,46.63993295085311 105.6909947777167,46.94753158466483 105.8744109030522,47.23771695130199 106.43841548846467,47.632365896908595 106.51636734173735,48.288171549287654 107.0987135396681,48.87432563105176 107.31881289007288,48.98459134468794 107.65354731880143,48.87432563105176 109.58400203794372,49.22833559980063 110.56527830849518,49.3269935947028 110.93669596229665,49.048429259750264 111.21182015028899,48.95557407911474 121.79034517894615,47.18548373030717 122.02420073875328,47.249324325097405 123.01464781555114,48.021207627451076 123.74372691375902,47.957368182404025 124.09680295503495,48.201118279212096 124.25270666156939,48.14308266761873 124.34441472422623,47.99799329480811 124.68831995923028,47.87611784208275 125.0368105973721,46.85467185236121 125.63749840783203,46.32652829865765 126.29779645905364,46.372958762120106 126.52248121257799,46.86627932992269 127.39370780791432,47.23191326322922 127.69175901158451,47.179680035158526 128.44376512547387,46.72118563472395 130.82358935167213,46.32072448719191 132.72653165202064,46.03633676239042 134.06546936696031,46.18723660647811 134.2763979111005,46.22205957197002 135.87670360464836,47.051998542996444 136.50031843077522,47.48727479522131 137.4907655075731,48.39263523996851 138.83887402877735,50.168479028670845 139.9026875557247,51.75855123073052" stroke="#4dd2ff" stroke-linecap="round" stroke-linejoin="round" stroke-width="0.5"><title>2022-10-15 16.0km</title></polyline><polyline fill="none" points="188.0,53.83550933227161 187.4572146541468,53.20886140444418 187.18106070625072,52.68463953410537 184.24335405369493,48.653347824521916 182.98161618833183,47.50837029444665 182.2531411189011,47.05037103409268 180.85808755455582,46.38746901934428 180.42481153285917,46.2910460854946 180.1867477846863,46.32720471017092 179.38209231583096,46.164490667732025 178.42983732310677,46.29707252497974 177.5918529295086,46.526076620753884 177.04430630868592,46.51402380298896 176.69197196137975,46.68878934109671 174.87316492528407,46.90573870942171 174.1494511308083,47.345660570710606 173.7209363840775,47.460160067959805 172.94484856499912,47.21910815208321 172.77820394127048,47.04434469660191 172.59251421769295,46.56223505445814 171.8688004232281,46.48991815766931 171.29268615262117,47.03831835832898 170.98796455494085,48.02662693089587 170.42613410923514,48.32190998992519 170.13569633645966,48.30383149158661 169.9928580875494,48.17728179763799 169.18344134374638,48.26767447289603 168.14548340166584,47.472212629480055 167.78838777939018,47.40592350072984 157.18978971035176,49.177617177250795 156.75651368866602,49.27403385713842 156.22801216770313,49.62354257082552 153.24745404045825,49.153512974633486 152.94749371774378,49.24390366711668 152.6570559449683,49.12940875897766 152.09046422429674,48.60513883834574 152.0,47.930207548528415 152.04761274962584,48.44243312445542 152.16188334875915,48.65937394411594 152.39994709693565,48.81002666892891 152.60944319534246,49.08722635013328 152.89988096811794,49.219799500406225 153.24269276549967,49.12338270301552 156.16611559316516,49.599438609715435 156.41370189127338,49.52712664809951 156.6612881893816,49.29813799448311 157.08980293611967,49.177617177250795 161.5749239518591,48.46051156648173 162.15103822245874,48.26164830024936 167.85504562887945,47.39989721140955 168.14548340166584,47.44810750317265 169.1739187938001,48.24356977744901 169.3500859674641,48.29177915529726 170.0119031874092,48.189334164952015 170.32138606003718,48.46051156648173 170.5880174580052,48.20138652899914 170.93559053035642,48.05073174384597 171.27840232771632,47.02626567927655 171.7688136489778,46.55620865088713 172.06401269674097,46.49594457021885 172.6067980425869,46.56826145722516" stroke="#4dd2ff" stroke-linecap="round" stroke-linejoin="round" stroke-width="0.5"><title>2022-10-05 12.1km</title></polyline><polyline fill="none" points="48.0,93.4327776413993 44.99178082191429,89.14335593369833 43.593026151927916,87.91205193477435 42.60224159402787,87.27652603715978 41.58007471979727,86.76582859889822 40.06475716064233,86.62396709474706 39.132254047315655,86.83959639124078 38.195267745944875,86.92471291337279 37.69763387298008,87.07792221746786 36.16886674968919,87.27652603715978 35.79676214197025,87.38433914510824 35.26326276463806,87.71912544903535 34.976338729760755,87.78721725130163 34.18729763387819,87.58294151253358 33.78829389789098,86.9530850489682 33.187546699871746,86.89066632526738 32.60921544208031,87.4637802050238 32.353673723533575,88.05958335395917 32.33574097134988,88.3035764842607 31.761892901631654,88.72346831263712 31.394271481945907,88.50217449503907 30.667995018691727,88.57593923075547 29.780323785806104,87.8893547472544 29.385803237855725,87.74182272875987 24.27048567870952,88.57026502492226 23.580074719797267,88.79723265880239 23.45454545454777,88.75751341161231 19.356911581566237,89.42138731346495 18.93997509340261,89.52352082646394 18.653051058525307,89.76750543320668 18.366127023666195,89.82991987189234 15.57758405977438,89.37599456114185 15.443088418436673,89.49515043114661 15.102366127033747,89.39301684902603 14.524034869242314,88.83695186833575 14.50610211705498,88.42840962949776 14.416438356169238,88.20711425371701 13.83810709838508,87.74749704676287 13.5691158156842,87.33326981275968 13.13872976338098,87.04955016636814 12.923536737234826,87.11196865340389 12.098630136984866,86.79987528841957 12.0,86.6069436819671 12.112079701131734,86.79987528841957 12.703860523033654,86.96443389785054 12.910087173109787,87.10629424932267 13.179078455781564,87.04387575385772 13.560149439595989,87.32759543866632 13.856039850568777,87.73614840997107 14.420921544206067,88.15037166142065 14.582316313826595,88.87667104024877 15.111332503111043,89.37599456114185 15.389290161892859,89.47812818474995 15.582067247822124,89.35329816652666 18.38854296389036,89.79587564413669 19.03860523039475,89.44408367119468 23.4814445828124,88.7177941267837 24.261519302614033,88.50217449503907 29.206475716062414,87.73047409041465 29.470983810722828,87.71345112717609 29.7041095890454,87.80424018458143 30.623163138232485,88.52487135063348 31.38530510585042,88.4681291886227 31.694645080951886,88.72346831263712 31.963636363641854,88.49082606263619 32.286425902872,88.35464463408425 32.600249066003016,87.37866477791977 33.16064757161803,86.88499189123468 33.85554171856347,86.92471291337279 34.11556662514704,87.4921519756499 34.21419676214282,87.45810584860374 34.5594022416044,87.66238219594015 34.9315068493197,87.74749704676287 35.24533001245072,87.67373085270083 35.99850560399136,87.2368053485261 37.953175591526815,86.97010832112574 38.15491905354429,86.8679685845018 38.679452054799185,86.83959639124078 39.8181818181838,86.5955947362745 40.35616438355646,86.56722235860434 41.62042341220513,86.74880524375112" stroke="#4dd2ff" stroke-linecap="round" stroke-linejoin="round" stroke-width="0.5"><title>2022-10-02 14.7km</title></polyline><polyline fill="none" points="94.66666666666788,93.92080403406726 93.54359991187448,92.33693469946229 93.30090328266306,92.16830650603879 92.67750605860783,91.1264109927215 91.03573474333825,88.85583739116191 90.62648160387471,88.41014090144381 89.59858999781136,87.48861913187284 88.47552324300705,86.6995885887809 88.28993170303511,86.71163496181543 87.46666666667443,86.32012616759675 86.79568186826145,86.20568448454651 85.87248292575168,86.12135884543022 84.78748623045612,86.3622888187092 81.50870235734692,86.8682375145836 80.69495483587525,87.30190324466457 80.38563560256443,87.36213426166432 79.47195417492185,87.12120970431351 79.1721524564964,86.49479974773567 78.53447896012221,86.44059077902784 77.93487552324223,86.9766543434962 77.56845120071375,87.96443994581568 77.18299184841817,88.15717604224483 77.08305794227635,88.30172756651154 76.60718219872797,88.13308407587465 75.8029521921053,88.21138291891111 74.68464419476368,87.36815735886921 74.49429389733996,87.33201876334715 64.15827274730691,89.06061536212655 63.39211280017116,89.25334670895245 62.854373209956975,89.56051056696015 59.80400969376933,89.06061536212655 59.56131306455063,89.19914110206082 59.22344128663099,89.04856962524354 58.72853051333004,88.56673747429522 58.66666666666788,88.40411794532702 58.695219211283984,87.94637089396565 58.76184181537974,88.53662279156197 59.41379158406198,89.0847068261537 59.58986560917765,89.13288971505608 59.827803480948205,89.01845526870602 60.51782330910646,89.193118252766 62.84961445252702,89.53039655700559 63.377836527874024,89.16300399410466 63.72046706323454,89.09072969012777 74.5180876845152,87.28985703147191 74.76554307116385,87.33201876334715 75.76012337519933,88.1391070686841 75.95523243006392,88.1872909818776 76.64049350077403,88.08490010394962 76.72615113461507,88.24752079996324 76.94981273408848,88.337865374182 77.17823309098821,88.13308407587465 77.59224498788171,87.95239391205541 77.85873540427929,87.00074693626084 78.46785635602646,86.41649788285213 79.22449878828411,86.44059077902784 79.49098920467077,86.99472378929204 80.30949548359058,87.33201876334715 80.61405595946417,87.28985703147191 81.32786957479402,86.86221434966137 81.88464419475349,86.71163496181543 83.63110817361303,86.50684617623847 84.44485569510289,86.31410292847431 84.8683851068563,86.30205644775197 85.39660718221057,86.12738211069518 85.93910552985471,86.07919596593274 87.50949548359131,86.24182399521305 87.66653447895806,86.17556820322352 89.62714254240927,87.46452680336006 90.99290592642137,88.69924183608964 92.33963428067727,90.53017079053097 94.06230447235794,93.07166436832267" stroke="#4dd2ff" stroke-linecap="round" stroke-linejoin="round" stroke-width="0.5"><title>2022-10-01 15.4km</title></polyline><polyline fill="none" points="141.23552939399815,95.16806737277511 134.69081578750774,86.10130739137821 132.4576258395391,84.05881664366461 131.08022036072362,83.1613412702427 128.8388800845205,82.08848327119631 126.35302996000246,81.66552548433538 124.14429099689733,82.26385532332642 122.44902271524916,82.35669918749772 121.58508791787608,82.70744165310316 118.43906120293104,83.06849838676862 117.29801524411596,83.81123828637647 116.7030412798922,83.99692212977243 115.26858350314433,83.57397493895405 114.6328578975008,82.43922697175731 113.41845898422616,82.33606722745753 112.51377254545514,83.20260473769304 111.861746283299,85.01817517847667 110.80220360726526,85.65774082327698 110.23168062788318,85.22448726345465 108.87872613388026,85.3895365291828 106.89004603426292,83.82155406734091 105.33333333333576,84.05881664366461 106.83299373632326,83.86281717719248 108.85427514906769,85.31732751944219 110.23983095615404,85.22448726345465 110.80220360726526,85.66805635420315 111.25862199079711,85.25543402803305 111.92694890950224,84.93565018806112 111.99215153572732,84.39923557116708 112.4567202475373,83.21292060107226 113.4429099690824,82.33606722745753 114.66545921060606,82.34638320819067 115.14632857896504,83.3573425415525 116.60523734057642,83.8937644948819 117.24911327447626,83.80092250403686 118.67542072296783,82.96533949463628 123.875330163748,82.09879928544979 124.59255905215832,82.10911529829173 126.10852011168754,81.74805401740741 128.8551807410695,82.08848327119631 131.60999169873685,83.49144838401116 132.7999396271989,84.32702562274062 134.73971775714745,86.13225379979849 141.16217643948767,95.01335355449555 141.33333333333576,95.43623724690406 141.10512414156983,96.02414482230233 139.96407818278385,97.40622546747181 138.84748320881772,98.33447451566462" stroke="#4dd2ff" stroke-linecap="round" stroke-linejoin="round" stroke-width="0.5"><title>2022-09-29 10.1km</title></polyline><polyline fill="none" points="188.0,93.49274213761964 187.42983253278726,92.80666444212329 184.9201609762422,89.21049476740518 184.30793197455932,88.57167050646967 183.5741918732965,87.95058240734215 182.70959366481839,87.3708922141268 181.52719719590823,86.77936367864095 180.76541607166655,86.6137342532129 180.66727249124597,86.67288769153674 179.9568999091316,86.507257862384 178.6810333636313,86.83260157486802 177.72296507854116,86.87400878261542 177.2369206802723,87.04555251089187 175.74139945476782,87.22892609614064 175.39088666753014,87.30582446731569 174.7552901466952,87.7198902928285 174.46553290926386,87.7731270427721 173.5962611969444,87.50694264420599 173.25042191354078,86.88583940620083 172.5867843697415,86.85034752585125 172.03998442164811,87.3708922141268 171.70349214591988,88.33506655757446 171.12397767104267,88.74912262715225 170.72205634169222,88.49477436364032 170.10515383617167,88.61307606576156 168.964818901728,87.80861817335972 168.6703881604626,87.73172068730855 158.2718421394202,89.45892390157314 157.7437362066703,89.577222992717 157.2249772815776,89.90254384157015 155.08451252758823,89.61862759893484 154.2386083344245,89.4116041754205 154.10307672334966,89.54173329901096 153.97221861612343,89.53581834725992 153.68713488251888,89.41751914398628 153.19641698039777,88.95614919020227 153.0562118654998,88.23450949124526 152.4299623523293,87.71397509438975 152.2897572374386,87.4300446270936 152.0,87.18751922482625 152.2804102297705,87.40638367151769 152.45800337532273,87.70214469507482 153.02349733871233,88.08071588321036 153.14968194211178,88.37647234114047 153.18706997274057,88.84967850888643 153.71517590550138,89.38202932053173 154.00025963910593,89.51215853222675 154.26197585356567,89.40568920603982 157.21095677008634,89.89071403498019 157.8185122679497,89.52398844134586 168.586265091526,87.7258054904596 168.94145138258682,87.70805989513246 169.89017266000155,88.53026490792399 170.12852135532012,88.59533083087445 170.73140334934942,88.48885927013544 171.09593664806016,88.725462386039 171.71283915357708,88.31732120975357 171.99792288718527,87.3708922141268 172.62884590420435,86.83260157486802 173.2924834480109,86.85034752585125 173.37193301310617,87.14611231425079 173.6056082046016,87.42412938939378 174.04959106842216,87.64299265057343 174.4328183824582,87.7198902928285 174.71790211606276,87.67256868283948 175.33480462158332,87.28807870136734 175.85823705051007,87.12245120489024 179.73257172529702,86.53091930499068 180.6111904452846,86.61964960065961 180.72335453720007,86.56641144488822 181.38699208101025,86.68471836958634 182.69089964949308,87.34131597758824 183.62560041542747,87.94466724014637 184.705179800083,88.92657402698023 185.1958977022041,89.50032861991349 186.9905231727971,92.04960068877335 187.43917954044446,92.80666444212329 187.86446838895063,93.31530928366192" stroke="#4dd2ff" stroke-linecap="round" stroke-linejoin="round" stroke-width="0.5"><title>2022-09-24 16.0km</title></polyline><polyline fill="none" points="48.0,133.6916116629909 47.10767590618343,132.5502059110877 44.51705756929732,128.85258035264633 43.15938166311389,127.66247508777815 41.091684434970375,126.50877146545827 39.44136460554,126.30838833701273 38.30437100213021,126.60592659932809 37.282515991482796,126.65450408731704 36.845948827296525,126.81845272074497 35.03251599147916,127.04312209667478 34.317697228143516,127.47424126006808 33.84275053305828,127.57746636019874 33.012793176982086,127.2860066421963 32.72014925372787,126.66664845106789 32.01972281451526,126.63021534989457 31.458422174837324,127.18885298186069 31.10820895523284,128.18466802154217 30.729211087433214,128.36075496539343 30.508528784655937,128.57327276988508 30.38859275053983,128.56112892247256 30.124733475473477,128.3243232406312 29.34275053305464,128.4154024970303 28.30170575693046,127.64425894542364 27.927505330499116,127.55317812271824 23.485074626867572,128.24538773544919 21.791577825169952,128.5975604548221 17.253198294238246,129.32011306528148 16.71588486140172,129.45976474829877 16.500000000010914,129.67834911817772 16.20255863539569,129.76942562449403 14.854477611948823,129.61155956263974 13.232942430709954,129.27761029282556 13.007462686571671,129.3990466786854 12.772388059711375,129.35047216381645 12.105543710029451,128.76150198419055 12.0,128.0571563546946 12.143923240946606,128.7554300863958 12.662046908320917,129.2411793129504 12.954690831556945,129.37475942783203 13.20415778251845,129.2351074800972 16.26492537314698,129.7451385742388 16.88859275053983,129.36261579745405 21.710021321971,128.59148853483202 23.41791044776619,128.2028839443483 28.17697228144607,127.49852954030939 29.289978678039915,128.36075496539343 30.201492537322338,128.3243232406312 30.321428571438446,128.8465084671734 30.158315565044177,128.87686788632345 30.081556503195316,128.66435152063787 29.966417910458404,128.63399195759848 29.5682302772002,128.71899868227774 29.46268656717075,128.83436469375374 29.424307036253595,128.7857895672205 29.366737739877863,128.57934469235624 29.44349680171581,128.5307692895476 30.129530916852673,128.40325860686426 30.369402985073975,129.47190835235597 30.882729211098194,129.44154933603932" stroke="#4dd2ff" stroke-linecap="round" stroke-linejoin="round" stroke-width="0.5"><title>2022-09-22 12.2km</title></polyline><polyline fill="none" points="94.66666666666788,133.6932322288303 91.0073746312737,128.69813303710907 89.7728613569343,127.5724724669526 88.96755162242698,127.06283496918331 87.72418879056568,126.52518860371856 86.3613569321642,126.34597159528857 85.31710914454379,126.60359580067961 84.37020648968974,126.66520135115206 83.80383480827004,126.86121840123087 82.2374631268467,127.06283496918331 81.58259587021166,127.44366358254774 81.19321533923357,127.53887018795285 80.42330383480657,127.28685222526838 80.15781710914234,126.70440483548737 79.52949852506936,126.65400034880076 78.99852507374453,127.13004027340867 78.74631268437224,127.70128095017208 78.6843657817044,128.05410213246796 78.2905604719781,128.26691345386644 78.15339233039049,128.44052187869602 77.99410029498904,128.4237210952342 77.75516224189414,128.21091058071033 77.15781710915326,128.31731597484395 76.98525073745623,128.28371430101106 76.02064896755473,127.55567133087243 75.82153392330656,127.49406710683252 71.16224188790147,128.22211116140898 70.14011799410218,128.45172239720705 65.78613569320805,129.1573489487091 65.44985250737227,129.23575115578933 65.12241887906202,129.49895747825212 64.91002949852191,129.54375838759734 63.140117994102184,129.31415321422537 62.13569321533578,129.0845467662366 61.98967551622627,129.20215022809498 61.635693215339415,129.1125476208108 61.082595870204386,128.54692668211283 61.016224188795604,127.91969441792753 60.46312684365694,127.53887018795285 60.2551622418905,127.19164503970751 60.02949852506936,126.99562955573856 59.78613569321897,126.82201506554338 59.516224188795604,126.86681887470695 58.94985250737591,126.60919630905119 58.76843657816789,126.60359580067961 58.66666666666788,126.4131780644675 58.66666666666788,126.71560582419261 58.71976401179927,126.58119375956085 58.90117994100001,126.5867942709774 59.50294985250366,126.85561792696899 59.73746312683579,126.79401266014611 59.98967551622263,126.92282356793294 60.339233038335806,127.24764929304729 60.45870206488689,127.49966749462328 61.03392330382849,127.86369107461724 61.16224188790511,128.61972981091458 61.65781710914598,129.0845467662366 61.91887905603653,129.17414943416225 62.17109144542701,129.03414518020145 62.82153392331384,129.23015100305565 64.94985250737591,129.52695805227995 65.46755162242334,129.21895069534003 65.90560471975914,129.1069474514079 75.61356932153649,127.48286632896634 76.09587020649269,127.55567133087243 77.0029498525073,128.26131316995452 77.79941002949636,128.19970999697762 77.84808259586862,128.31731597484395 78.10471976401459,128.4237210952342 78.67994100294891,128.0597024444396 78.69764011799998,127.77408556758746 78.94985250736863,127.15804245128675 79.50737463127007,126.64839984647915 80.17551622418978,126.65400034880076 80.43657817109124,127.19724546844736 80.56489675516787,127.19724546844736 80.92772861357662,127.42686239412433 81.29498525074814,127.49966749462328 81.57374631268976,127.43806318716088 82.35693215340143,126.95642634746764 86.41445427729559,126.30676777116969 87.89675516224452,126.48598494948601 89.52507374631023,127.3540571654703 91.04277286136494,128.64773098020305 92.03392330383576,129.99736486176334" stroke="#4dd2ff" stroke-linecap="round" stroke-linejoin="round" stroke-width="0.5"><title>2022-09-17 16.2km</title></polyline><polyline fill="none" points="141.33333333333212,133.66812593150826 137.70326701055455,128.64872586705314 136.5094571358386,127.57426002393913 134.55956767378302,126.52774820821287 133.97592729059397,126.39903102099561 133.88749692949204,126.4549950647015 133.13141734216697,126.33187406849174 132.04814541881206,126.60050122365283 131.18594939817922,126.64527224642734 130.67305330384625,126.81316314981814 128.99729796118118,127.02582398160666 128.23679685579918,127.47912368120888 127.87865389338549,127.55187502182162 127.15794645050846,127.28885033873303 126.82191107836843,126.67885048165408 126.24711373127502,126.6284831185767 125.67673790223125,127.1713281307384 125.4247113731144,127.77012827525323 125.38933922868455,128.03874608181286 125.00908867598991,128.24580444942694 124.8189633996517,128.44166951808438 124.70400393023738,128.43607338614675 124.46082043722708,128.2122274873218 123.7312699582435,128.2961698414656 122.81159420289259,127.57985627257221 122.46229427658545,127.48471994273132 112.64210267747694,129.1243919290937 112.18226479980513,129.23631255986402 111.68705477770709,129.54968871366873 108.85286170474865,129.09081568076 108.71579464505339,129.20273640245796 108.37533775485281,129.10760380834108 107.82264799804034,128.57597645723945 107.72979611888513,127.93241840881092 107.15057725374936,127.49591246348064 106.90297224270034,127.10417243325719 106.51387865389916,126.82435585244093 106.23974453452684,126.85793394217035 105.39965610416039,126.51655542525259 105.33333333333212,126.35985614530728 105.45271432081063,126.56692292475054 105.99213952345963,126.69563958905565 106.24858757062248,126.84674124863523 106.5536723163932,126.81316314981814 106.99140260378408,127.16013552206641 107.15057725374936,127.4623348921159 107.69000245639472,127.81489803091972 107.80938344386595,128.06113082022057 107.83149103415053,128.547995880901 108.32670105625948,129.05723940515236 108.67157946450607,129.19154434393567 108.87054777696176,129.05723940515236 109.9493981822634,129.29227276160964 111.69147629575673,129.52170879653931 112.16900024564166,129.20273640245796 112.63325964135947,129.10200776657803 122.54630311961955,127.47352741894429 122.75411446818907,127.52949000758235 123.72684844017567,128.28497753741976 124.4519774011278,128.2066313243049 124.80569884548459,128.44166951808438 125.00466715794028,128.25140060713602 125.37607467452835,128.0835155464847 125.40260378285893,127.79810937822913 125.67231638418161,127.14334660338864 126.22058462293353,126.64527224642734 126.90149840334198,126.6732541110141 127.1756325227143,127.23848371908389 127.96266273641959,127.51270123894574 128.26332596412976,127.45114236226436 128.9707688528615,127.02022765795482 131.756325227223,126.52215181710926 132.2736428395874,126.50536263924369 133.08278064356637,126.33747048536316 134.537460083513,126.48297705813093 136.14689265535708,127.30563919830456 137.31417342176064,128.22901597178497 138.68484401865499,129.868658430114 139.40997297959984,130.98783094650935" stroke="#4dd2ff" stroke-linecap="round" stroke-linejoin="round" stroke-width="0.5"><title>2022-09-11 16.4km</title></polyline><polyline fill="none" points="188.0,133.76237662763015 186.74830627635674,132.14338450780997 185.344752652436,130.04093330265096 184.31394605649984,128.6664221189967 183.04384507221766,127.5015477488123 182.40879458008203,127.11130778036386 181.0696663683957,126.44148465495527 180.39780135497494,126.33081722145289 179.52805828966302,126.23762337236985 178.44202991179918,126.5113797294216 177.48945417358482,126.56962553803896 176.83139460564053,126.75018704345712 175.39562827558984,126.92492326248612 174.99066854147532,127.06471172660167 174.42004346158137,127.43747874317341 174.13473092163622,127.47824993962422 173.3524223443601,127.23944666787065 173.01648983765335,126.59874841274723 172.36303208487152,126.55797638261356 172.02709957816478,126.80843252869454 171.77399974433865,127.12878128749435 171.4886872043826,128.00827197654144 170.8720439728968,128.42762544375728 170.5269078358615,128.183003084745 169.7307938131089,128.26454402565287 168.88866163874263,127.58308998158464 168.52972005624542,127.41418089929721 163.0167454940456,128.2936657527971 162.21602965613783,128.51499023481665 158.21705228172505,129.11489034100669 157.73846350504027,129.21390217550652 157.25527291320032,129.55752971548281 155.39153777322645,129.3420347995052 154.27789850439876,129.07994493324804 154.08462226765914,129.21390217550652 153.7302825003062,129.0915934056393 153.21027738718476,128.57323333029854 153.19187012653492,128.09563761936442 153.09523200817057,127.8801353794297 152.5568196344102,127.48989884580078 152.23929438833147,127.03558916737893 152.09203630319826,126.91909873329496 152.0,126.94822137139636 152.0644254122344,126.8725024713167 152.40035791894843,127.16372828047315 152.52920874343545,127.42582982281601 153.05381567173026,127.74617398337432 153.20567557201866,128.07816450500104 153.2378882781486,128.5499361015609 153.7532915761185,129.07994493324804 154.02479867058355,129.20225373622452 154.3331202863301,129.07994493324804 157.2000511312799,129.54588136924576 157.85350888405083,129.15565994751523 168.4883037197942,127.39670750808364 168.70919084749767,127.45495211781599 169.71238655246998,128.21794922119443 169.92407004984852,128.26454402565287 170.5223060207063,128.15388128267296 170.72018407259748,128.39850380728603 170.8858494183769,128.43344976867593 171.4426690527871,128.05486700813708 171.76939792916528,127.04723819342689 172.3216157484312,126.55215180373125 173.01188802249817,126.53467806232948 173.2603860411582,127.12878128749435 173.3662277898511,127.10548327639845 173.72056755720405,127.30934044562309 174.15313818228242,127.42000536144405 174.47526524350542,127.35593623435125 175.2299629298177,126.8725024713167 175.84200434615923,126.8142570728669" stroke="#4dd2ff" stroke-linecap="round" stroke-linejoin="round" stroke-width="0.5"><title>2022-09-10 13.4km</title></polyline><polyline fill="none" points="48.0,173.74182776850284 44.496473906918254,168.8288169705629 43.19476856007168,167.631149273544 42.80702654185734,167.37992695305365 41.10373124760008,166.48603101982735 40.71137325298332,166.39839316672078 40.40210283369743,166.42176327829293 39.557379151174246,166.25817223149716 38.07103474804899,166.58535370478785 37.244774971153674,166.64962120264317 37.04628798563863,166.7839983887643 35.28760097448685,166.98848460807494 34.4613411975879,167.46172042730177 34.11514296705354,167.52014424254958 33.35812283625637,167.24555162300385 33.0488524169632,166.63793621013974 32.384151814330835,166.58535370478785 31.807154763431754,167.14623045790722 31.53019617899554,167.78305043211003 31.488652391333744,168.08100884361556 31.15168611360059,168.2329084183657 30.902423387611634,168.4665990276153 30.528529298622743,168.2329084183657 29.73458135657347,168.28548891579703 28.797538145914586,167.5610408661414 28.511347608666256,167.45587804143724 23.07372740095525,168.32054254516333 19.574817284257733,168.9807139126424 18.250032055395423,169.15013679412004 17.75612257981993,169.2786640535378 17.345300679568027,169.57077003747327 17.15604564687601,169.61750681140256 14.326452109238744,169.15597895058454 14.007949737140734,169.26113763160902 13.735607129106938,169.15013679412004 13.209385818681767,168.653550603678 13.080138479286688,167.94079337687072 12.503141428380331,167.52014424254958 12.29080651365075,167.17544258901762 12.0,166.94758744174396 12.32311834850043,167.140388029311 12.484677522752463,167.43250849002288 13.038594691624894,167.77136574659016 13.163226054621191,167.99921654339778 13.227849724316911,168.5834438576021 13.790998845994181,169.13845247881545 14.077189383249788,169.2202426194417 14.28952429797937,169.09171518600488 14.981920759069908,169.26113763160902 17.15142967047359,169.5649279371828 17.331452750353492,169.5298753187708 17.793050391079305,169.2202426194417 28.432876009756,167.42666610019296 28.78830619310247,167.48508996289092 29.76689319142315,168.26211981374217 30.60700089755119,168.19785471782598 30.717784331322036,168.39649197774634 30.883959481980128,168.46075677781118 31.09167842030729,168.25627753625304 31.488652391333744,168.0517973256101 31.784074881386914,167.0819636998167 32.254904474935756,166.63793621013974 32.42107962559021,166.57951120024518 33.062700346195925,166.61456621568868 33.34889088345517,167.1579153127277 34.17053468392987,167.4734051966807 34.558276702136936,167.36824215836168 35.329144762148644,166.92421761500736 39.50660341069306,166.2698573268317 40.44364662135922,166.32828275607608 41.149891011664295,166.4626609430743 42.29926913706731,167.03522417926433 43.03782536222934,167.4967747259434 43.91024490319978,168.22706613692935 44.63956917553878,168.9923982706605 47.75535325042438,173.35044313326944" stroke="#4dd2ff" stroke-linecap="round" stroke-linejoin="round" stroke-width="0.5"><title>2022-09-03 16.2km</title></polyline><polyline fill="none" points="92.70028011204704,174.88152299038848 92.97988286223335,174.52190181393598 93.236567354219,174.39429357432164 94.09829386300044,173.5764317442081 94.43290043290472,173.19939798469204 94.39623121975455,173.1239908347343 94.66666666666788,172.8919680025756 91.05933282402839,167.8161541960617 89.64298446650719,166.48764192819726 88.70791953145817,165.91909570665666 87.56200662083211,165.35054193996257 86.00814871403418,165.16489009624274 84.9080723198349,165.41435957541034 81.83702571938193,165.86108036185396 81.10822510822982,166.29619353289308 80.7782021899693,166.39481857065402 79.94856124267244,166.139553300407 79.60478736948426,165.5477961423785 78.97224344283677,165.4723755251689 78.38095238095775,166.02932464534388 78.06926406926505,166.96915986790555 77.73007384771336,167.10839296229096 77.51005856888878,167.32884443634975 77.38629997454336,167.32304309629035 77.12044817926653,167.0967902217053 76.33206009675996,167.17800933979743 75.41991341990433,166.4760390195006 75.04405398523886,166.348406816458 64.36414565826635,168.1352230599514 64.06162464985755,168.42528360160577 63.882862235812354,168.48329547428875 61.51769798829628,168.15842797556616 60.94015788134493,168.00179455140096 60.802648332060926,168.1236205974492 60.44970715558884,168.01339704688144 59.904252610125695,167.50868558822185 59.86758339699372,166.96915986790555 59.71173924115283,166.69069232170295 59.2579577285469,166.4006200363874 58.96002037179278,165.98871401673023 58.66666666666788,165.77405719737726 59.047109752988035,166.05833221364082 59.25337407690313,166.4006200363874 59.77132671250729,166.74870654307597 59.85841609370982,166.90534454842782 59.91800356506428,167.4912816387623 60.440539852308575,168.01339704688144 60.802648332060926,168.1236205974492 60.99516170104471,168.00179455140096 63.8507766743096,168.4774942905642 64.33206009677087,168.17003042863507 64.61624649859732,168.08301195392414 75.08989050165474,166.3368038700719 75.38782785840885,166.41222296550768 76.32289279348697,167.15480389320874 77.16628469569332,167.0967902217053 77.36338171633179,167.32884443634975 77.53297682709308,167.32884443634975 77.67965367965371,167.14900252958614 78.09676597912403,166.92274873590213 78.133435192256,166.60367084231984 78.39928698751464,165.9597064012778 78.84848484848044,165.53619297913974 79.0914183855457,165.4723755251689 79.60937102114258,165.501383470586 79.93939393938854,166.09894277627245 80.5306850012712,166.3368038700719 80.8286223580435,166.3658112301673 81.92411510057718,165.81466802946306 85.43060860706828,165.22290638382765 86.12274000509933,165.1184770096079 86.90196078431472,165.26931935733228 87.64451235039087,165.30412905445337 88.02953908837299,165.57680403673294 89.15253374076929,166.09894277627245 90.01426024956163,166.74870654307597 90.72930990577879,167.41006311454476 91.58186911127996,168.4542895477607 94.1441303794345,172.1204830526258" stroke="#4dd2ff" stroke-linecap="round" stroke-linejoin="round" stroke-width="0.5"><title>2022-09-01 16.9km</title></polyline><polyline fill="none" points="141.33333333333212,173.7603733067699 137.5761301062812,168.57359077254296 136.47893456267047,167.5875063718886 135.76437443973919,167.19656725642562 135.47394032526063,166.9339942175866 134.39057497757676,166.44385359727676 133.73133563836745,166.33882273895142 132.8600332949136,166.2396266932301 131.72595722882397,166.52554408785 131.43552311435633,166.49053389656183 130.6933025995495,166.6013994047098 130.27378665640936,166.76477963359503 128.68792419003512,166.9106543144735 127.83045204251539,167.41829435430554 127.48469714430757,167.49998299748404 126.71942630297053,167.24324674027594 126.37828147010441,166.61890445884274 125.67294147778375,166.57222429864123 125.13817390190161,167.0973731853628 124.86618004865886,167.73921313308165 124.82007939555479,168.04845987680528 124.43744397490082,168.23517381735655 124.22538097067081,168.4510608025994 123.87962607248119,168.19433021199075 123.39095914969585,168.29935654756991 122.92534255345163,168.17099099154075 122.09553079778925,167.52332258137903 121.80970674861601,167.42996416993628 111.51082084773225,169.15706204007802 111.07747470866525,169.2504167097286 110.75016007170052,169.5304795052907 110.51504674093303,169.60049491977043 108.91996414393361,169.39628297621312 107.58765526955176,169.09288058735547 107.37559226533995,169.2329127245721 107.02983736713577,169.10454994951579 106.80394416697527,168.81864966714784 106.56422077090247,168.67278144538432 106.47201946470886,168.4627303385605 106.49045972594831,168.08930362043247 106.36598796259932,167.82090116787003 105.83122038672082,167.46497359793284 105.65142783967167,167.15572266658637 105.33333333333212,166.90481933671617 105.67908823151083,167.15572266658637 105.81739019080851,167.44163398244928 106.39364835446031,167.8267360215832 106.55039057497197,168.57359077254296 107.06210782429844,169.11038462939905 107.34793187347168,169.22707806128165 107.59226533486435,169.0578724819352 108.32987578435132,169.25625136986855 110.51504674093303,169.57132184422153 111.2157766679411,169.18040072643998 121.82353694453559,167.43579907658932 122.10936099371975,167.4766434009398 123.10974516583519,168.27601738399972 123.85196568062383,168.18849540807423 124.05019848891607,168.39271307540184 124.22999103599068,168.42188694888682 124.42361377897032,168.22933901896977 124.79241900371562,168.0659643430954 125.08746318349586,167.15572266658637 125.70060186962291,166.56055425068917 126.34140094761096,166.5547192255217 126.6594954539687,167.14405277667902 126.76091689076202,167.12071298734372 127.15277244204844,167.37161506008852 127.59072864643167,167.44163398244928 128.56806249199144,166.92232426760165 128.96913817389577,166.84063452929695 132.80471251119525,166.2396266932301 133.73594570366913,166.303812395945 134.3352541938766,166.40300829390253 135.79203483159654,167.1090430879376 136.56652580355876,167.62835055244432 137.3410167755137,168.30519133649796 138.66871558457206,169.90972830637475 140.95991804327787,173.24113973121348" stroke="#4dd2ff" stroke-linecap="round" stroke-linejoin="round" stroke-width="0.5"><title>2022-08-28 16.3km</title></polyline><polyline fill="none" points="188.0,173.6357521328282 184.4790330537944,168.7694922918854 183.44449926000016,167.8253942777883 182.87173162309773,167.42639401783526 181.25111001480764,166.58342310843364 180.6428219042973,166.45978593517066 180.03897385299933,166.3642478671718 179.0222002960145,166.5778032449125 178.77799703997152,166.71267975937735 177.82338431179596,166.76887817766692 177.37049827332157,166.9037540711288 175.66551554022953,167.12292646303104 174.93734583128025,167.5612677743411 174.65762210163666,167.63432420941172 173.87617168229553,167.38143600158583 173.52096694623833,166.76887817766692 172.92599901332505,166.75201866018688 172.37987173162037,167.25218143359234 172.06906758757395,168.14009600212012 171.55402072029392,168.52785020233205 171.3897385298551,168.52785020233205 171.11889491861075,168.30868522997844 170.39072520966874,168.3705011085949 169.49383325110466,167.66804252069414 169.2274296990763,167.57250723425022 159.2683769116884,169.2246747323079 158.83769116921758,169.32020621562697 158.5579674395667,169.544985308974 158.27824370991948,169.6405160549948 156.23581647756146,169.36516213169307 155.4810064134217,169.17409915213648 155.3522446966017,169.28648924662048 155.1835224469687,169.29210874336422 154.92155895411634,169.14600158094981 154.481993093239,168.72453573058738 154.34879131722118,168.03332247027356 153.784903798718,167.60622559575495 153.4163788850492,167.1004472966015 153.1011346817977,166.89251443007015 152.87025160335543,166.943092790807 152.27528367046034,166.69020037072914 152.1110014800215,166.66210111781402 152.0,166.75763850011208 152.0399605328057,166.66210111781402 152.21312284164014,166.66772096991917 152.87025160335543,166.9318531603967 153.14553527380485,166.88127478597744 153.4341391218586,167.08920770884288 153.7538233843079,167.50507042906247 154.37099161321748,167.96588641386916 154.49087321163825,168.68519869950978 154.98815984212706,169.18533817526622 155.26788357178157,169.28648924662048 155.52096694622742,169.14038206443 158.32264430193027,169.6180382521925 158.77553034041193,169.30334773454524 158.99753330044405,169.2415332453529 169.18302910705825,167.5387888453588 169.47607301431708,167.61746504350594 170.39516526887382,168.35364224174555 170.56388751850682,168.3873599685976 171.07893438580504,168.26372816950607 171.50518006907078,168.51661100112324 171.6872224963081,168.32554411509045 172.06906758757395,168.15133530528692 172.3399111988183,167.25218143359234 172.6906758756777,166.86441531415767 172.93931919093666,166.71267975937735 173.56092747903313,166.74077897803363 173.8450912678818,167.28028028696644 174.63986186483453,167.5837466911289 175.15934879131964,167.3982952633778 175.63443512580488,167.08920770884288 175.97631968427595,167.0049107035229 179.0399605328057,166.60590255491843 179.29748396645664,166.47664557139433 179.8080907745425,166.38672743237112 180.57622101629386,166.5159846959541 180.6783423779052,166.4654058146698 181.34435125802702,166.59466283320216 181.94375925013082,166.93747297598384 182.38776517021324,167.0835879138176 183.31573754318015,167.67928195170316 184.52343364579428,168.78073142457288 185.8909718796276,170.62952732728445 187.54711396152925,173.09071444833535 187.67587567835653,173.16376115122694" stroke="#4dd2ff" stroke-linecap="round" stroke-linejoin="round" stroke-width="0.5"><title>2022-08-26 16.9km</title></polyline><polyline fill="none" points="47.48155634158684,212.39444967650343 45.78979282466025,210.00587235933926 44.59828196059971,208.67626876755457 44.048004042451794,208.18701022549794 43.197574532594444,207.64594128039244 41.95603840323383,207.04730378372915 40.46892369883062,206.86310593471353 39.70490146538941,207.01276674784094 39.40020212228774,207.17393934191568 38.445174330467125,207.2084762468403 37.999494694300665,207.38691647527958 36.253158160689054,207.58262425158318 35.49823143001777,208.03159751010753 35.14350682162694,208.10642592549266 34.384032339570695,207.84164786409383 34.04295098534931,207.22574468877428 33.39717028803352,207.202720097961 32.83779686710841,207.75530683530815 32.51035876705646,208.67051281744716 32.16472966145011,208.84319098177002 31.9555330975345,209.04464795360036 31.614451743302197,208.80865540503146 30.864072764034063,208.9122620511007 29.927235977778764,208.1524741156354 29.608893380504014,208.0373535467479 19.039919151091453,209.8159315352168 18.644264780195954,210.09796457461562 18.335017685709317,210.1612778569106 15.547246083879145,209.7008154711948 15.356240525517933,209.8389547106126 15.01970692267787,209.7008154711948 14.51490651844506,209.22883634946993 14.396664982319635,208.52661381133657 13.823648307214171,208.077645781319 13.482566953010974,207.61716082444036 13.08236483071596,207.34662358593778 12.845881758457836,207.40994096632494 12.268317331992876,207.15667087892143 12.0,207.15667087892143 12.48660939867841,207.17969549468035 12.832238504295674,207.36964809882193 13.064173825168837,207.31784292732118 13.28701364324661,207.4214532071528 13.659929257195472,207.74955076049446 13.832743810002285,208.06613371819913 14.323900960072933,208.37120233758833 14.47852450733626,208.71080445186453 14.542193026787572,209.24610397068318 15.05154118241262,209.69505965981443 15.324406265783182,209.80441994284047 15.601819100560533,209.66052477513585 16.35674583123182,209.8504662936466 18.42142496209999,210.14976635805215 19.158160687205964,209.76988514700497 29.5816068721615,208.0373535467479 29.8681152097015,208.10066989822008 30.827690752907074,208.8489469085107 31.64173825164471,208.80289947283381 31.782718544727686,208.98708891620845 31.941889843354147,209.04464795360036 32.20111167256255,208.80865540503146 32.52854977262177,208.6590009148822 32.83779686710841,207.6919899693894 33.35169277413661,207.18545164667376 34.065689742295945,207.202720097961 34.324911571504344,207.7840871977205 34.45224861042152,207.76681898261086 34.82516422435219,207.98554918903392 35.22081859525497,208.06613371819913 35.493683678632806,207.99706127397803 36.325922182917566,207.52506323443595 40.50075795857265,206.8515935426476 41.196563921177585,206.96671732300456 41.36937847397712,206.9149116604276 42.03335017685822,207.0530599536578 43.43860535624481,207.7840871977205 44.12531581607254,208.256082361062 45.22587165235018,209.22883634946993 46.60838807479013,211.0936989122347 48.0,213.1484064573524" stroke="#4dd2ff" stroke-linecap="round" stroke-linejoin="round" stroke-width="0.5"><title>2022-08-21 16.1km</title></polyline><polyline fill="none" points="94.66666666666788,213.64383349535638 94.17708463298186,213.06973402261792 91.14976086504976,208.77794969296883 89.95050946143238,207.68077414900472 89.19592430859848,207.2032380134151 87.91133291745427,206.56651471611258 86.38419629860437,206.40164728834498 85.7643584944999,206.52103411106145 85.39155749636484,206.6802160131956 84.49773341651235,206.72001139442 83.91382823871754,206.9076176835115 82.45406529423781,207.08385313077815 81.30422125182304,207.62960982286677 80.50022873778653,207.41358198060698 80.30259929299064,207.21460798452972 80.09149511334545,206.75980673791491 79.47614888750832,206.72569644581017 78.93266791433416,207.2373479175294 78.66766479517537,207.89111572358524 78.65868163859341,208.12988055817914 78.07028488252399,208.5505581533398 77.67951757123228,208.30042603722904 76.95637346641888,208.39138334278687 75.97720939904684,207.64666460517037 75.64034102723963,207.5727604984604 67.13329174465616,209.0167094840799 66.08226242462842,209.11903469320896 65.15250571844808,209.34642315393648 64.9414015387847,209.56812571741102 64.69436473280439,209.65339562240842 62.70908712830351,209.39190069828328 61.828737783333054,209.15882776273065 61.65356622999025,209.3123149633284 61.366105219385645,209.22135965293273 60.786691619894555,208.6756236525398 60.78220004159084,208.220838233221 60.69686005406038,208.0104983106139 60.121938032873004,207.59550023746124 59.94227490123376,207.2885127217305 59.37184445831372,206.86782248013333 59.43472655438018,206.73706654626585 59.31345394052914,206.6347355313228 59.31794551882558,206.53240426694538 59.48413391557915,206.62905046761807 59.547016011656524,206.54377441974066 59.49311707216111,206.6347355313228 59.31345394052914,206.52103411106145 59.43921813267298,206.7768618735936 59.20565606155651,206.9246727591235 58.66666666666788,206.7029562356729 59.16074027865034,206.91330270949766 59.479642337293626,206.87919254209191 59.94676647951928,207.24303289884483 60.14439592431518,207.56707556179754 60.660927427743445,207.88543083002878 60.78220004159084,208.11282597217723 60.86304845082486,208.70404757767392 61.44246205033414,209.2270443656016 61.65805780827577,209.2952608576452 61.88712830110671,209.14177359468886 62.53391557496798,209.32368436326578 64.65843210646926,209.63634165524854 64.83360365982298,209.59086437566293 65.24233728426407,209.27820674502073 75.70771470160253,207.4988562616636 75.93678519443347,207.56707556179754 76.90696610522718,208.32885021639595 77.12256186318336,208.36864403487562 77.71095861925642,208.28337152050153 78.01638594301767,208.52213412428318 78.58681638593771,208.18104427463913 78.91021002287016,207.2032380134151 79.40428363485262,206.73706654626585 79.61987939281607,206.6802160131956 80.10496984820202,206.69727118120863 80.45082137658392,207.2885127217305 81.26828862548791,207.56139062435977 81.54227490123594,207.49317131497446 82.33728425867594,207.00994803330104 86.54140153878689,206.35616650464726 88.02362237471243,206.53808934372137 88.7243085880691,206.96446790863047 89.35312954876281,207.24303289884483 89.97745893117099,207.68645907027894" stroke="#4dd2ff" stroke-linecap="round" stroke-linejoin="round" stroke-width="0.5"><title>2022-08-19 15.6km</title></polyline><polyline fill="none" points="141.33333333333212,213.59908625888056 141.2398037032399,213.45254229847342 141.19081199224456,213.35672481473375 138.58979751741572,209.69858656007636 137.79702255762822,208.71776757894622 136.63903666130136,207.66364325575705 134.7372675161896,206.63767844278482 133.2452472266923,206.42346281836217 132.4524722668939,206.57566877014324 132.1807909604504,206.70532525307135 131.19204915665978,206.77860917346698 130.80011546866808,206.93645102539813 129.10322075136355,207.13375249868477 128.44405954884496,207.51707840200834 128.05212586085327,207.65236905456186 127.32615777969477,207.44943291083837 127.12128335188754,207.2070356648619 126.93422409171399,206.78424639278091 126.35077735164305,206.7504230655104 126.20825601054821,206.81243247784369 125.72279269248247,207.31977874553922 125.45556517794466,208.18225321028513 125.10371561714055,208.3457267480153 124.89884118932241,208.54865852251896 124.56926058807221,208.32317871202395 123.81211596354478,208.41337078276774 122.78329003258841,207.62982064300013 122.54723906140134,207.59599800275828 117.21159635449294,208.43028177427186 115.94226566043653,208.72904149161332 112.60192172873212,209.21945373784183 112.15208874591917,209.32091761923948 111.65326405212545,209.66476560058072 108.8696441090251,209.2025430668873 108.6514083054899,209.30400698951053 108.36636562331842,209.21945373784183 107.77846509134542,208.64448707216434 107.76064992370448,208.17097914953774 107.64930512597857,207.9398602313413 107.1103963050009,207.57908667234005 106.9856901315361,207.32541589156244 106.7051012412885,207.0830179234399 106.40224339147608,206.89699061853025 106.17064621221289,206.93645102539813 105.54711534496528,206.6715018616669 105.33778712524509,206.722236938469 105.3689636686031,206.91953942704276 105.7029980617699,207.24085862112042 105.7742587323155,207.18448701207672 105.61392222359791,206.9589998125266 105.47140088250308,206.9928229703437 105.33333333333212,206.85189296487079 105.40014021196475,206.6658646270953 106.17064621221289,206.93645102539813 106.44678131055844,206.88571620969742 106.63829436265223,207.00973453892948 106.98123633963405,207.31977874553922 107.1103963050009,207.5621753350315 107.71165821270188,207.97368259220093 107.7962802589791,208.66703493415844 108.36191183140545,209.21381684828884 108.65586209741014,209.29837011141717 108.85628273330803,209.1799954949638 109.45309084910696,209.33219136858315 111.63099509258245,209.64785511052105 112.21889562456272,209.2814594725205 122.53833147758633,207.57908667234005 122.82782795166713,207.62982064300013 123.74976287682512,208.3626377670189 124.53363025279032,208.3062676769914 124.88102602169238,208.54865852251896 125.44665759413692,208.17661618028433 125.74060786011614,207.24085862112042 126.3463235597228,206.7391486169763 126.99657717844457,206.76733473259083 127.25489710916736,207.3028673029039 127.84279764114035,207.55653822108798 128.1412016990398,207.59036089338406 128.38616025403462,207.52271552129605 129.08985937563557,207.05483202158211 131.08515815085048,206.8011580461207 133.30314652150264,206.40091374111944 134.76399026763102,206.60949223941134 136.0110520021408,207.24085862112042 136.75928904284228,207.72001421594905 138.00635077734842,208.88123901384824 139.35584972575816,210.7752060798448" stroke="#4dd2ff" stroke-linecap="round" stroke-linejoin="round" stroke-width="0.5"><title>2022-08-14 16.5km</title></polyline><polyline fill="none" points="188.0,213.69852219035602 185.27868450116875,209.85200082586744 184.306786108722,208.59956771550424 183.2597864768686,207.63785222267325 181.5501288501655,206.68170589437796 180.9360657749421,206.49159228969074 179.94207878266752,206.38535195286022 179.80071174377736,206.30147780964398 178.77138299178114,206.63697336026962 177.83040863909264,206.68170589437796 177.35329488280695,206.86063554624707 175.72315621548842,207.039564422721 175.03840962081085,207.43656009874758 174.66290342372668,207.54838917762027 173.88538470977437,207.279998879505 173.70425819118827,207.05074745174352 173.5982329120161,206.71525526317055 172.90023315743747,206.66493119977167 172.3789422014961,207.19612655359379 172.09179040372692,208.06279903960603 171.50865136826178,208.47096752250218 171.14639833108595,208.22494864598048 170.39980365688461,208.28086215571966 169.59136090318134,207.63785222267325 169.1716775064342,207.492474676048 164.6611854215298,208.21935729085453 162.66879371702453,208.62193292558732 159.33341514296262,209.1139644826253 158.8960608663656,209.23138023775027 158.62216222849747,209.46061955933328 158.35268131059638,209.5388961093886 156.43980856547932,209.29288359528437 155.6004417719996,209.09719077606496 155.35304945391908,209.21460657887292 155.083568536018,209.09719077606496 154.5666953000291,208.61634162419068 154.46508774082395,207.95656274536668 153.89961958521963,207.50924903446503 153.70523990673973,207.17935206796756 153.47110074856027,206.98364923210102 153.17511351086068,206.80472011332313 152.96306295251634,206.85504400635182 152.66265799484972,206.67052276540562 152.1546201987985,206.60342392787425 152.0,206.34621070723006 152.1016075592088,206.46363433282386 152.18112651859337,206.87741016134532 152.1281138790073,206.87741016134532 152.5080377960585,206.84386092430577 153.002822432205,207.43096863685423 153.40041722911337,207.31913923997854 153.6257209473588,207.48688322171802 154.385568781443,207.80000349774855 154.49601178060038,207.92301438513095 154.5490244201792,208.50451543754025 155.04822677629272,209.07482582340162 155.37955577372486,209.18665046563547 155.61369493188977,209.0468696155258 156.40004908577976,209.24256267318924 158.36593447048654,209.52212257544306 158.53822554915314,209.48857548709566 158.97557982575017,209.16428556141182 163.24751503252264,208.4653762006601 164.58608418210497,208.15785233437055 169.29095594551472,207.47570031082068 169.51625966376014,207.54279773087546 170.39538593692487,208.25290541031063 171.18174009080758,208.19699186272555 171.27892993004934,208.33677558973795 171.47772732850353,208.42064559881692 172.0652840839466,208.07957316635293 172.37452448153635,207.1290285701798 172.95324579703447,206.62579021916827 173.56730887225058,206.65933963337739 173.88096698981462,207.21849252383254 174.65406798380718,207.52043193629652 174.95447294146652,207.4477430202678 175.72315621548842,206.97805770887135 177.65811756043695,206.69848058217758 178.5239906737006,206.49159228969074 178.9215854706199,206.48600069983877 179.1999018284514,206.36857713786594 180.16296478096046,206.3182526519231 180.51638237820225,206.418901562447 181.6208123696124,206.5027754671355 182.0625843661801,206.7376214938704 182.68106516136322,207.23526699355352 183.37906491594185,207.6546265220204 184.50116578721645,208.72257622102916 185.34936802062293,209.90232100532012" stroke="#4dd2ff" stroke-linecap="round" stroke-linejoin="round" stroke-width="0.5"><title>2022-08-12 16.3km</title></polyline><polyline fill="none" points="48.0,254.05660602423086 44.66114897761145,249.3929532475595 43.52629016553328,248.45572232109043 43.33349561830255,248.21725185780815 42.53602726387544,247.69039358600276 41.471275559884816,247.19680442417302 40.638753651415755,246.98051066966946 40.23563777994423,246.91950453238314 38.96494644596169,247.1912584447382 37.90457643622722,247.29663192557564 37.54527750730995,247.49074025950176 35.95910418695712,247.5905670444081 35.20983446932587,248.08415146058178 34.911879259983834,248.15070171326443 34.12755598831427,247.9066835913618 33.974196689396194,247.74585267062866 33.781402142161824,247.3077238551632 33.17234664070202,247.26335611881223 32.65530671860324,247.77912808536348 32.392405063292244,248.4058100134389 32.37487828627491,248.63873359538775 31.976144109055895,248.87720160453318 31.827166504383058,249.054665268377 31.691333982489596,249.0324823524461 31.445959104181384,248.81619829249757 30.7185978578309,248.8993846045705 29.57059396301338,248.07860560129848 24.724440116839105,248.87165585265393 23.287244401170028,249.19330822071788 19.72492697175403,249.73123843266512 19.313047711792024,249.81442288624748 18.787244401177304,250.1471590111214 16.898734177215374,249.8865159427005 16.004868549160165,249.67578203642915 15.579844206422422,249.18776251161762 15.124148003891605,247.6182966637134 14.646543330094573,247.10806866309213 13.870983446926402,246.84740625295672 12.648490749754274,246.7253934909313 12.3330087633949,246.6144724827136 12.157740993181505,246.45363648714556 12.0,245.9433939757655 12.192794547223457,246.4924590266637 12.337390457643778,246.58674218370652 13.025316455692519,246.77530784659757 13.621226874394779,246.7919459516379 14.243427458612132,246.92505054861613 14.791139240507619,247.2134423579846 15.321324245374853,247.93995887542042 15.702531645569252,249.23767386634427 16.0486854917217,249.6924189631718 16.500000000003638,249.75896660263243 18.80915287244352,249.17667109119793 19.06329113924221,249.32640501340938 19.190360272637918,249.59814295553224 19.194741966886795,249.86433347730417 19.72930866601382,249.70905588317692 24.49221032132482,248.86611010003253 29.526777020451846,248.0730597412621 29.763388510225923,248.1285183077125 30.74050632912622,248.88829310605797 31.48977604673928,248.8217440519038 31.739532619281817,249.83660537866308 32.28286270692479,249.73678406815452 32.36173320349917,249.65359945689488 32.31353456669967,249.38186188272084 32.501947419670614,249.2764937668435 32.501947419670614,249.0491195405193 32.68159688412925,248.6609167245806 32.64654333009457,248.32262269885905 32.53261927945641,248.12297245445734 32.56767283350928,247.9011377080642 32.67283349562058,247.69039358600276 33.15920155794447,247.26335611881223 33.8164556961965,247.26890208849363 34.07059396299883,247.8124034730463 34.745374878286384,248.09524317685646 35.20545277507699,248.0730597412621 35.279941577420686,248.21170601656922 35.62609542356222,248.00650936241436 35.945959104199574,247.60720481824683 36.41918208374773,247.50183213650962 39.153359298936266,247.11916064373872 39.88948393379178,246.94168859281854 41.48880233690943,247.11916064373872 43.44741966893707,248.18952264405743 44.591041869523906,249.23212816326486 47.61879259981288,253.52427773669478 47.794060370019,253.64072514070722" stroke="#4dd2ff" stroke-linecap="round" stroke-linejoin="round" stroke-width="0.5"><title>2022-08-07 17.9km</title></polyline><polyline fill="none" points="94.66666666666788,258.8057507251833 91.1739431739552,253.9644607615046 90.15107415107559,253.05928311761818 89.39015939015371,252.56458410058258 88.35897435898005,252.07514164199165 87.38184338184874,251.8646268607954 87.15731115731978,251.83831243298118 85.59805959806545,252.18566144564102 85.0990990991013,252.20671280115857 84.61261261262189,252.3698604199344 83.18225918225653,252.4961677834217 82.52113652114713,252.90140113674715 82.10949410948888,253.0224440461243 81.39847539848051,252.80140888380993 81.06583506583775,252.20671280115857 80.47955647956042,252.20144996335148 79.97227997228038,252.66457696286307 79.69369369369451,253.51187457479318 79.14899514899662,253.86973385621968 78.79140679140619,253.63291558286437 78.15523215523353,253.72238043350808 77.25294525294157,253.05928311761818 76.93277893278355,252.98034220735644 73.01178101179175,253.59081440543014 71.53153153154562,253.90130951696847 67.69785169785246,254.50650472366397 67.28620928621604,254.59596756343672 66.82467082467338,254.90119217288157 65.27789327789651,254.71174269745825 64.13860013859812,254.45387942761954 63.99306999307737,254.57491750201734 63.73527373527031,254.50650472366397 63.2196812196853,254.0381370838004 63.15315315315456,253.50134925192833 63.053361053363915,253.31715564037222 62.537768537771626,252.9592912708722 62.421344421363756,252.71720468177955 62.22176022176791,252.5277445601605 61.90990990990758,252.3224950527765 61.710325710329926,252.38038604922622 60.995148995149066,252.12777015912434 60.77477477477805,251.89620415067475 60.537768537775264,251.97514726311783 60.52113652114349,252.02777591564882 60.612612612629164,251.9646215240573 60.68329868330329,252.0225130536055 60.48787248787994,252.18566144564102 60.10117810118027,251.68568840017178 59.72695772696534,248.86993060103487 59.6604296604346,247.15932389937734 59.15731115730887,241.12159607181093 59.00346500347223,240.07924292795724 58.66666666666788,239.36326698763878 58.729036729037034,239.2895628327933 59.02425502426195,239.45276470193494 59.15731115730887,239.31588576129434 59.09909909910857,239.18953554180916 58.96188496189279,239.12636027792178 58.69577269578076,239.3000920063423 58.683298683296016,239.41064815618302 58.97435897436662,239.86866313902283 59.07415107415727,240.3161438259085 59.87248787248973,249.12783092479003 60.19265419265503,251.74358034523902 60.446292446296866,252.14882154601946 60.61677061677983,252.2803924557411 60.9244629244713,252.35933478776133 60.928620928625605,252.42775134581825 61.14067914068073,252.33828351490956 61.298683298693504,252.35933478776133 61.70616770617562,252.89087564856527 62.07207207207466,252.79088336852874 62.40055440055585,253.01191859070605 62.37144837145024,252.7698323294244 62.138600138609036,252.51195617499252 62.22176022176791,252.50669337852014 62.446292446296866,252.71720468177955 62.55855855856498,252.94350306103297 63.08246708246952,253.2961048863326 63.161469161477726,253.44345992523085 63.21136521137305,253.9697233606057 63.66874566874685,254.44861689410027 63.98475398475421,254.55912994847313 64.20928620929044,254.42756675286728 64.83298683299654,254.59070504915508 66.8371448371472,254.8748798009583 67.31947331948322,254.55912994847313 77.00346500345768,252.9329775842416 77.27373527373857,253.0013931324429 78.13444213444382,253.6960672635214 78.8870408870498,253.6539661544848 79.11157311157876,254.60649258987178 79.74358974358984,254.45914196043668 80.48787248787266,254.41177913946376 81.66042966043824,254.2065395816935 81.71032571032265,253.67501671470745 81.54400554400127,253.2855795050309 81.55647955648601,253.01191859070605 82.37976437976249,252.92771484477998 83.11573111573307,252.45932817814173 83.78516978517655,252.4172257293394 86.84961884962831,251.8804155089456 88.35065835066416,252.05409021520245 89.79348579348152,252.8066716403664 90.3132363132354,253.15401199827465 91.10741510742446,253.87499646812284 92.09702009701141,255.10642806252145 94.2051282051325,258.0953817929367 94.07623007622897,258.3321728793926 94.23423423423446,258.59527239487215 94.19265419266594,258.6847258245107 94.30076230076884,258.96887064733164 94.23839223838877,259.3372034376371 93.90575190575692,259.68448544348576 93.83922383922982,259.8686488847452 93.58974358974228,260.0422879017242 93.12820512820326,260.6105556257644 93.09494109494699,260.5789854145587 93.0990990991013,260.76840629718936 93.20720720721147,260.87363972208186 93.02425502425467,260.6316024189837 92.87040887040712,260.70526610553134 93.00762300763381,260.67895766207585" stroke="#ff0000" stroke-linecap="round" stroke-linejoin="round" stroke-width="0.5"><title>2022-08-06 24.1km</title></polyline><polyline fill="none" points="140.88262910801132,254.5400366744143 139.19248826291005,251.96146667771973 133.36150234741217,244.07080960246822 130.89201877933374,241.8365790374446 129.06103286384314,240.68378889540327 126.80751173708995,239.57852227242984 125.38967136151768,239.17444282794168 124.04694835681585,239.0318261092616 121.361502347434,239.6498302165346 118.97652582160663,239.89940756469878 118.33802816903335,240.1608687872358 115.39906103285466,240.3985601317254 112.84507042253244,241.69396664476517 110.98591549293633,241.1116303028175 110.25352112676774,239.85186907690513 108.89201877934102,239.82809982339677 107.84976525822276,240.82640292966244 107.22065727700101,242.78732239993406 105.99061032862664,243.61921439367143 105.43661971830443,243.23892188919854 105.33333333333576,242.92993301600654 105.55868544600526,242.87051195414097 105.63380281691934,242.53775326423056 106.20657276996644,241.9910755346864 107.11737089203234,241.57512280717492 107.23004694835254,240.60059726845066 107.22065727700101,241.50381642737193 107.05164319248433,241.6701978901183 107.3051643192448,241.3255502243701 107.19248826293187,240.29159910638555 107.28638497652719,240.62436631277524 107.00469483566121,240.54117462947033 107.36150234741945,240.636250832511 107.34272300468729,240.93336330322927 107.43661971831898,240.3985601317254 107.03286384976673,238.5088961576621 106.70422535211401,238.6515137262104 107.08920187792683,240.50552102676738 106.63849765258783,240.79074944281456 106.32863849763089,240.6956734071282 106.46009389671963,239.8399844509695 106.29107981221023,238.78224629378383 106.07511737087043,238.68716808212048 105.75586854458379,238.82978536096925 106.08450704225834,240.70755791721604 106.98591549295816,240.73132693257503 107.18309859154397,241.58700719816989 105.91549295774894,242.52586900196184 105.43661971830443,243.09631177522533 105.93427230046655,245.28297472646955 107.12676056338387,244.98587698011397 107.14553990608692,244.24907022949628 107.42723004696745,244.21341813304753 107.60563380281383,243.79747593787033 108.09389671360987,243.57167792071414 108.15962441315787,243.20326938244398 107.89671361503133,242.82297507569456 107.6525821596224,241.24235920570936 107.8403755868494,240.8026339400094 108.84507042253244,239.89940756469878 110.43192488265049,239.81621519418695 110.92018779341015,241.06409247167903 112.48826291081059,241.62266036153596 113.45539906103659,241.46816321573715 114.73239436617587,240.70755791721604 113.72769953051466,241.87223209944204 115.38028169013705,241.37308791391115 115.33333333332848,240.95713225739746 115.59624413145502,240.70755791721604 115.43661971829715,240.57682821767958 114.54460093896341,240.6956734071282 113.35211267605337,241.51570082800026 112.62910798121447,241.68208226825664 111.20187793427613,241.23047476806823 110.77934272300627,240.74321143786074 110.38497652580554,239.8399844509695 108.93896713613503,239.80433056337642 107.91549295772711,240.7194424256959 107.25821596242167,242.76355394138955 105.8779342722919,243.61921439367143 105.48356807510572,243.33399516980717 105.43661971830443,243.09631177522533 105.96244131455751,242.47833193682163 107.0985915492929,241.72961976467195 107.34272300468729,241.19482144537324 107.46478873236629,240.469867409578 107.15492957747483,240.56494368986023 107.41784037557954,240.70755791721604 107.0985915492929,240.30348367123224 106.65727699530544,240.30348367123224 107.15492957747483,240.32725279599254 107.25821596242167,240.54117462947033 106.90140845071437,239.0080566335746 107.0234741784152,238.84167012373655 107.06103286383586,238.94863291629736 106.98591549295816,238.7465919764727 106.96713615024055,239.51909894141136 107.34272300468729,240.70755791721604 107.22065727700101,241.4919320251065 105.99061032862664,242.46644766652025 105.46478873238812,243.16761686115933 105.8779342722919,245.2592069437669 107.06103286383586,245.02152876277978 107.23943661969679,244.84326970465918 107.0985915492929,244.34414241582272 107.34272300468729,244.2253021667857 107.46478873236629,244.34414241582272 107.56807511735678,243.55979379843484 107.94366197181807,242.76355394138955 107.82159624410997,241.9673068605407 107.55868544600526,241.58700719816989 107.62441314553143,241.36120349392877 107.82159624410997,240.79074944281456 108.9107981220659,239.75679202410538 110.40375586854498,239.75679202410538 110.98591549293633,240.945247781121 112.86384976527188,241.58700719816989 113.39906103285466,241.39685674901557 114.9577464788672,240.37479102628276 119.03286384975945,239.98259985639743 119.31455399061088,239.78056129694596 120.76056338028138,239.53098361082084 121.66197183095937,239.637945563205 122.76995305163291,239.15067339094094 124.3849765258201,239.06748031063034 125.24882629107742,239.340828706896 126.67605633803032,239.3645980924266 129.1079812206517,240.56494368986023 131.28638497653446,242.02672853391414 133.92488262910047,244.55805445862643 138.6854460093964,251.42673069822195 141.33333333333576,254.87274986656848 138.81690140844876,257.712643296436 137.4929577465009,258.7582712940057 137.46478873238812,259.00779431649426 137.13615023475722,259.25731662978797 137.09859154930018,259.8276506829061 137.2582159624435,259.8157687612402 137.07042253523105,260.0771706660671 137.02347417840065,259.3523725626146 137.2018779342834,259.411782468349 137.02347417840065,259.7563591288708 136.78873239436507,259.6731855760372 136.94835680752294,259.55436607813317 136.50704225353547,259.9464698109732 136.4319248826214,260.17222571122693 136.81690140847059,260.5999721407861 136.1502347417918,261.3485233779138 136.253521126775,261.2415878776519 136.6666666666788,261.467340447678 136.84507042253972,261.44357704660797 136.77934272301354,261.17029747177 136.90140845071437,261.39605022512114 136.96713615026238,261.28911478274676 136.08450704228017,261.49110384233063 136.46009389670508,261.2297061473437" stroke="#4dd2ff" stroke-linecap="round" stroke-linejoin="round" stroke-width="0.5"><title>2022-07-23 16.3km</title></polyline><polyline fill="none" points="188.0,257.521782867836 186.30540540540096,255.21310758832988 185.89999999999418,254.8539740029737 185.1945945945845,253.67395167104405 180.71081081080047,247.42465758627804 178.23783783784893,245.10541242804175 176.70540540539514,244.13048730166338 174.5972972972886,243.09397420137975 171.9054054053995,242.51926775910397 170.77837837838888,242.478217132164 170.03243243242468,242.6424195064901 169.5216216216213,242.52953041235014 169.416216216232,243.2171250148167 169.12432432431524,243.34027562813571 167.02432432433852,243.76103871370287 164.235135135139,244.08943754750362 163.12432432432252,244.81806737853913 162.53243243242468,244.97200236197386 161.09729729730316,244.38704776143277 160.53783783784456,243.42237592585298 159.3864864865027,243.39158832465182 158.32432432432688,244.30494850880496 157.80540540540096,245.90586789268855 157.07567567568185,246.29583031278162 156.8891891891908,246.53185922381817 156.02162162163586,246.20347097356716 154.77297297298355,246.35740314303985 152.91621621623926,244.9412153903031 152.0,244.9412153903031 152.95675675676466,244.92069073556195 154.69189189190365,246.29583031278162 156.16756756758696,246.2445195826731 156.51621621622326,247.40413360410457 156.5891891891879,248.0711601799194 156.44324324325862,248.17377913205564 156.57297297299374,248.40980219475023 159.32162162163877,247.87618378804473 159.49189189188473,247.62989710236434 167.93243243244797,246.32661673414987 167.3243243243196,245.5672146894285 166.28648648647504,244.79754269044497 166.3513513513608,244.63334498563927 166.72432432432834,244.62308261728322 166.76486486488284,243.80208864577435 167.08108108109445,243.53526368996245 169.6999999999971,243.0837116245384 170.3486486486654,243.1144993508642 170.71351351351768,242.88872240089404 171.79189189189492,242.7245205602303 174.65405405404454,243.0323987196025 176.6486486486392,244.04838777110126 178.41621621623926,245.15672392941633 180.58108108106535,247.16810740958317 186.16756756756513,254.95658377243672 186.02162162161403,255.2438903878865 185.81891891892883,255.2951950260467 185.98918918918935,255.54145680589136" stroke="#4dd2ff" stroke-linecap="round" stroke-linejoin="round" stroke-width="0.5"><title>2022-07-16 10.3km</title></polyline></svg>