<?xml version="1.0" encoding="utf-8" ?>
<svg baseProfile="full" height="300mm" version="1.1" viewBox="0,0,200,300" width="200mm" xmlns="http://www.w3.org/2000/svg" xmlns:ev="http://www.w3.org/2001/xml-events" xmlns:xlink="http://www.w3.org/1999/xlink"><defs /><rect fill="#222222" height="300" width="200" x="0" y="0" /><text fill="#FFFFFF" style="font-size:12px; font-family:Arial; font-weight:bold;" x="10" y="20">Over 10km Runs</text><text fill="#FFFFFF" style="font-size:4px; font-family:Arial" x="10" y="280">ATHLETE</text><text fill="#FFFFFF" style="font-size:9px; font-family:Arial" x="10" y="290">Allen</text><text fill="#FFFFFF" style="font-size:4px; font-family:Arial" x="120" y="280">STATISTICS</text><text fill="#FFFFFF" style="font-size:3px; font-family:Arial" x="120" y="285">Number: 30</text><text fill="#FFFFFF" style="font-size:3px; font-family:Arial" x="120" y="290">Weekly: 1.6</text><text fill="#FFFFFF" style="font-size:3px; font-family:Arial" x="141" y="285">Total: 475.1 km</text><text fill="#FFFFFF" style="font-size:3px; font-family:Arial" x="141" y="290">Avg: 15.8 km</text><text fill="#FFFFFF" style="font-size:3px; font-family:Arial" x="167" y="285">Min: 10.1 km</text><text fill="#FFFFFF" style="font-size:3px; font-family:Arial" x="167" y="290">Max: 24.1 km</text><polyline fill="none" points="27.65999835321054,54.62006497470429 27.643903600703197,54.36368534937719 26.4046076573577,54.2802124591999 26.235612755990587,53.74955815578687 25.644130601212964,52.67033451787211 24.95607993136946,52.24698246756088 24.416905722253432,52.27083343979393 23.491457452866598,51.17963281775155 23.165538714521972,49.96913070099254 22.771217278015683,49.408586736804864 22.40506165838815,49.086567569891486 22.1153561131905,48.48426354989351 22.103285048811813,48.03700057516471 22.272279950168013,47.54202208410425 21.717010988544644,46.38505381150571 20.542094055246707,45.341360097096185 19.35108236944143,44.71512712733602 18.304923456220422,43.82048681694141 18.29687607996675,42.86617557138743 22.187782499480818,41.136412109437515 25.145193273379846,39.16197878926505 28.770536276475468,34.56243699241713 29.752316179638,32.784481818047425 30.79445140471944,31.967065768199973 31.41007568826899,31.80000000000109 32.06593685307962,31.97899900315133 32.39185559143152,32.30716117694283 33.38973024711231,35.20080559192502 35.33317161280502,37.30673281865347 36.71329664062432,39.60340371976599 37.0432390670976,40.75465830203029 37.01507325019702,41.50623166026162 37.53815270679843,43.12264958398191 37.65483966251486,44.363238329504384 37.650815974386205,45.13261716898887 37.779573994463135,46.03914775869089 37.71117129630147,48.23379707307504 37.01104956206473,50.04665194684276 37.68300547940089,48.26957812128967 37.74738448944845,46.015292027630494 37.602531716853264,44.90001626283265 37.55022377119167,43.32544149821297 37.409394686728774,42.663380674976 37.01909693832931,41.607633030147554 37.02312062645069,40.790447919720464 36.92655211139572,40.289389539595504 36.729391393131664,39.68691584253793 35.38547955847025,37.39025108372152 33.37765918272635,35.2366015755415 32.38783190329195,32.26539527364184 32.06593685307962,31.973032386240448 31.52676264397087,31.811933298800795 31.120370143064065,31.865633086974412 30.778356652201182,32.014798680620515 29.704031922097784,32.89187795665566 28.68201513765962,34.69965751219024 25.2498091646994,39.03670841557869 24.93193780260117,39.334970383903055 22.228019380760088,41.12448237359058 19.09759001738348,42.43076137809658 18.26468657494479,42.87810464193717 18.220426005536865,43.58191173931846 18.29285239183082,43.81452246222216 19.427532443856762,44.7449480296782 20.437478163919877,45.323467900787364 21.596300344703195,46.39101767536886 22.167664058852097,47.482385591854836 22.026834974371013,48.19205246499223 22.087190296297194,48.609496035154734 22.397014282123564,49.14023766158243 23.00056750129079,49.86775647383183 23.398912625933008,51.20348460494279 24.175484434585087,52.10983902373664 26.022357285219186,55.42496408014995 26.179281122200337,56.46235900596366 26.66212369752975,57.08835652045855 26.670171073790698,58.203197224636824 26.794905405749887,58.626468570451834 26.835142287018243,59.478955425734966 26.440820850493765,61.01098872530565 26.682242138169386,61.91109777166275 27.277747981072025,62.82906307317171 27.297866421718936,64.20000000000073 27.398458624895284,64.16423719204613 27.72840105137948,63.675474714464144 28.199172562326567,62.74561279647605 28.146864616672246,61.23750867523995" stroke="#ff1c00" stroke-linecap="round" stroke-linejoin="round" stroke-width="0.5"><title>2023-02-11 22.6km</title></polyline><polyline fill="none" points="62.254019816147775,60.64369576788886 61.965598310856876,60.54448102931201 61.563868357046886,59.46073477794198 61.01277726658009,58.491443881932355 60.05995622229602,57.911384549104696 59.32860169101696,57.99534102597681 58.10281029351245,56.51462820849338 57.711381107747,54.98806274339586 57.33540307405565,54.40031949983677 56.8049135196743,53.90416588086737 56.4701385581684,53.163740568874346 56.43408587000886,52.56070363696563 56.64525161495476,52.34696684501978 56.63495084692113,52.02635951467164 56.00660399609478,50.64466517641995 54.37908264478028,49.1178755660585 53.05543395083805,48.40026430618309 51.59787527228036,47.186403171705024 51.541221048042644,46.010678632683266 56.54224393450204,43.77365269271468 60.31232503942738,41.26925670235141 65.07643026083679,35.25195664786588 66.35372549856402,32.97614261068156 67.6722238084767,31.983297229151503 68.1924125948317,31.80763740133989 68.59929293266032,31.799999999999272 69.21733901542757,31.998571960302797 69.69117434556756,32.4568111800254 70.51523578926572,35.16031563371871 71.05087572765842,36.32108628747301 73.45610506646699,38.83342837502278 75.2278371704233,41.84192206177249 75.58836405205511,43.16283886993915 75.57291289997374,44.30047211836063 76.10855283837736,45.613672927014704 76.27851551114509,46.3160649541569 76.33516973539372,47.60629641300693 76.46392933598327,48.140699614439654 76.38667357563463,48.86594967613564 76.48453087208327,49.629356580288004 76.29911704724509,48.621656387997064 76.257913975056,46.430584223246115 75.57806328399965,44.369187183761824 75.5677625159442,43.13993317002678 75.21753640237876,41.887734936106426 73.47670660255608,38.94033304611003 71.03542457559888,36.336359360844654 70.5821907815589,35.32068727058504 69.73237741774574,32.50263481301954 69.44910629646256,32.174230948898185 68.81045867760258,31.861099169800582 68.01214915401215,31.899286103482154 67.69797572860261,32.021484046090336 66.36917665064539,33.037239982397296 64.59229416266317,35.91634771651661 61.053980338758265,40.406425401059096 60.10630967850011,41.460146067092865 56.57829662266158,43.77365269271468 51.865695241493086,45.81217627268779 51.56182258412082,46.07175608360558 51.51546912791673,47.01081014484225 51.61332642436173,47.209306553126225 53.03483241473805,48.39263007460977 54.38423302879528,49.125509659137606 55.92419785172024,50.59122852470682 56.58344700667658,51.98055825760093 56.36713087770477,52.652304769468174 56.43923625402749,53.23244040174177 56.91822196818248,54.07972863449686 57.61867419532791,54.911732940185175 58.01010338109336,56.36197428467494 59.266797082742414,57.96481141840559 61.45055990853871,62.063202763773006 61.70292872567006,63.436871236666775 62.320974808451865,64.20000000000073 61.75443256591461,63.55134147952049 61.404206452345534,61.74267333039825 59.426458987443766,58.056400171190035 60.018753150117846,57.92664937616428 60.87371689795691,58.34642983760932 61.738981413833244,59.827074825167074 61.95014715878642,60.53684911614255 62.465185561111866,60.689487102667044 62.53729093742368,61.963991547028854 63.16048740423139,61.94872826106075 63.23774316456911,60.72001463003835 63.90729308758091,60.62080008084013 63.87639078344728,61.91820167165861 63.768232718954096,61.97925482716164" stroke="#ff3600" stroke-linecap="round" stroke-linejoin="round" stroke-width="0.5"><title>2023-02-05 21.1km</title></polyline><polyline fill="none" points="106.2976965018679,49.84602892431576 104.48004496756039,49.74243591101549 104.41013529316842,49.328061485332 103.3556643710399,47.40289717844644 102.3536257046726,46.78130196543498 101.52636122431431,46.9108016726168 100.08738709297904,45.21000930877926 99.5805419536191,43.465983210564445 99.1261290700495,42.809797563902976 98.66006457406911,42.386725454318366 98.24643233388633,41.67008407561298 98.13574201609299,41.229732535583025 98.18234846568521,40.60805247366443 98.38042587647215,40.34038203736782 98.35712265168695,39.97772924154924 97.54150978373946,38.363025541049865 95.77046469900961,36.77416990208803 94.37809701729566,36.00562730576348 92.87503901777382,34.891649119654176 92.5779229015825,34.47713860307704 92.58374870779517,33.45811743102968 92.7818261185821,33.15586097259438 95.8811550168175,31.80000000000291 92.71191644419014,33.173132824653294 92.63618096359278,34.58076658844584 94.27323250570771,35.94517958120923 95.89280662922101,36.817346064908634 97.5065549465362,38.250771268820245 98.3746000702813,40.029536961843405 98.14739362848195,40.867086871367064 98.19982588428684,41.411054277214134 98.39790329508105,41.868672583023 99.66210324041458,43.51778693509914 100.06408386818657,45.12367296534285 101.38654187553766,46.7295019787598 103.97902563438402,51.65023585679228 104.11301917699166,52.82422659972144 104.86454817675258,53.84281152867334 104.83541914575471,55.52601601720744 105.08592881233199,56.25106942002094 105.07427719993575,57.701141364028445 104.51499980476365,59.50503503665095 104.85289656434179,60.791020580396435 105.75589652529015,62.14601277831025 105.82580619970395,64.20000000000073 106.50742552505835,63.224799205974705 107.10165775743371,61.947513273615186 107.00261905203661,59.87616213394358 107.32303839301312,58.37437325287101 107.4220770984175,51.589809038167004 106.42003843206476,51.28767373417577" stroke="#4dd2ff" stroke-linecap="round" stroke-linejoin="round" stroke-width="0.5"><title>2023-01-31 10.4km</title></polyline><polyline fill="none" points="130.97164402037743,35.39591748167004 130.39065103237226,37.03972529456951 129.491495217575,38.190375764308556 128.35717557433236,39.07390256287181 125.20321363935363,40.32726529543288 123.98589499780792,41.99154397848906 123.64006583823357,42.93667839327827 123.0175733511278,48.0320421058932 121.6619230457436,51.237066160552786 121.64808987938159,53.127163633667806 122.36741453118157,54.44199439517979 124.64988698411616,57.15378191188938 125.89487195841502,61.34459133689961 126.46203178007272,62.16629946530884 127.8176820854278,63.04962867910217 130.48748319705192,64.11783102933259 131.06847618504253,60.81047767606651 133.76594362940523,59.37246613215393 134.74809844249103,58.53019327032962 138.62138502929884,53.74349256099231 140.17069966401323,52.30538621839514 140.80702531755378,51.216521439739154 141.52634996941197,48.17585934134695 142.42550578415103,47.004770527571964 143.53215909466962,46.57331352899928 148.1247703332774,46.614404746535 149.5772528033267,45.71039432213729 150.26891112243175,44.23108809166297 150.10291312582558,42.69012239284348 149.35592214121425,41.33405425310775 146.22962653901777,38.51913077266363 144.70797823708563,37.92326157756179 141.58168263488915,38.046545131044695 139.85253683726478,37.40957857830654 138.64905136206653,36.23837213493971 136.44957790742046,32.95070671960275 135.19075976673048,31.923290596540028 133.72444413027551,31.80000000000291 131.98146516623092,32.88906202995713 130.10015453837696,37.51231537509011 128.49550723811262,38.97116726280365 125.20321363935363,40.32726529543288 124.19339249352925,41.64225306402659 123.54323367362667,43.18323382666131 122.9622406855924,48.052587437137845 121.60659038019367,51.19597671498923 121.55125771465828,52.695731276093284 121.84175420871179,53.68185982778232 124.84355131341727,57.64682681784325 126.04703678865917,61.71436077405815 127.58251825695334,63.07017113239999 130.55664902896388,64.11783102933259 131.0546430186805,61.01590632209263 134.33310345107748,58.96160214818519 138.46922019909834,53.92839054829528 140.21219916314294,52.30538621839514 140.83469165027782,51.237066160552786 141.48485047022405,48.360766931888065 141.96901129357866,47.43622578952636 143.3938274308748,46.614404746535 147.0734496882651,46.77876945915341 148.7195964877028,46.367857205012115 149.84008296453976,45.42275304278155 150.32424378790893,43.82016607130208 149.53575330415333,41.53952022552403 146.6861210296338,38.868431864262675 144.58347973963828,37.92326157756179 142.01051079273748,38.10818685466802 140.01853483381274,37.55341006623348 138.82888252499106,36.505490520481544 136.4080784082471,32.88906202995713 135.38442409603158,32.02603265201469 133.54461296732188,31.90274217359547 131.8154671696684,33.07399599257769 130.5151495297905,36.66987073448399 129.78199171161395,37.882167028219556 128.13584491220536,39.15609073204541 125.27237947125104,40.286171667721646 123.8475633339549,42.279194465168985 123.07290601667773,47.621134655906644 121.6619230457436,50.96998448255181 121.55125771465828,52.28484170226875 122.14608386909822,54.15437654402922 124.87121764622862,57.74954422123119 126.13003578690405,61.89924501438509 127.13985693278664,62.9263738769223 130.5704821953259,64.19999999999709 130.91631135484204,61.44730519736913 131.34513951270492,60.728306107492244 134.42993561571348,58.899972414728836 138.4138875335775,54.03111151452322 140.21219916314294,52.32593073053431 140.84852481669805,51.31924500452442 141.540183135774,48.21694994458812 142.06584345824376,47.354043968749465 143.47682642911968,46.59385913976439 146.9766175236,46.71713272146735 148.6504306557763,46.38840285515471 149.66025180160068,45.6282111782275 150.44874228534172,44.4365485110975 150.26891112243175,42.95722470108012 149.2867563093023,41.190227838102146 146.60312203131616,38.78624347452569 144.76331090263557,37.9027143048952 141.67851479952515,38.08763961744262 139.74187150617945,37.38903120715986 138.95338102242386,36.64932322158711 136.3804120755376,32.827417304848495" stroke="#4dd2ff" stroke-linecap="round" stroke-linejoin="round" stroke-width="0.5"><title>2022-12-04 15.0km</title></polyline><polyline fill="none" points="188.12390605685505,51.406158179041086 186.9824969097608,49.50045646014041 186.8343139678509,49.439634595251846 185.10417799752395,46.9053023893066 183.92672435105123,45.86110761445525 183.52622991346288,45.622864919903805 183.52222496909235,45.4150349480733 182.26467243510342,44.75605423687011 180.86694684795293,44.609049264825444 179.98185414091495,44.82702194778176 178.91253399257766,44.943611466478615 178.74032138441544,45.044993361472734 177.18640296662124,45.21734195281533 176.6056860321478,45.5671057724212 176.25725587143825,45.67355498190591 175.6004449938264,45.47586335194137 175.456266996287,45.32379215691981 175.2480098887463,44.89292041601584 174.79545117428643,44.862505752782454 174.55515451174142,44.96895696597858 174.22274412854676,45.318723106451216 173.97443757725705,45.850969658360555 173.91436341161898,46.14496927095024 173.43777503090314,46.39841535963933 173.21750309022536,46.378139735687 173.0533003708224,46.2767614512195 172.5566872682357,46.378139735687 172.40850432632578,46.34772627917482 171.54744128553648,45.66848597878925 171.2871199011097,45.61779590993683 162.21191594561606,47.13846811826079 161.50704573547773,47.49328274544678 158.98393077874425,47.07257360294534 158.79169344870388,47.18408733013348 158.52736711990656,47.10298647058153 158.25903584672778,46.78365012812719 158.03475896167947,46.64172199043969 157.93864029667384,46.03345244832599 157.42200247219807,45.63807194570472 157.15367119901202,45.24775632772071 156.83327564895808,45.004440636432264 156.59297898640943,45.050062449023244 156.2845982694671,44.89292041601584 155.87208899876714,44.806745472676994 155.79999999999927,44.63946413398662 155.8841038319042,44.806745472676994 156.13641532757174,44.82702194778176 156.58897404203162,45.03485518434172 156.79322620519815,44.98416425744654 157.21374536465737,45.2933778437764 157.39396786156067,45.59751986317133 157.96266996292252,46.00303871177675 158.0667985166947,46.61637762351165 158.51935723115457,47.06243597490902 158.7556489493145,47.15874333040483 158.98393077874425,47.047229527703166 161.50304079109992,47.4679389550256 162.09577255871045,47.12833050806512 171.3031396786173,45.592450849766465 171.5634610630368,45.653278965342906 172.40049443757744,46.32238171320569 172.55268232385788,46.35786410075525 173.0893448702118,46.26155468487559 173.29359703337832,46.46937995696862 173.4457849196442,46.47951774561079 173.56593325092763,46.31224388201008 173.91436341161898,46.13483139171149 174.15866501853816,45.298446897671965 174.27080346105504,45.21734195281533 174.27881334982158,45.2629635059202 174.5030902348517,44.9790951609757 174.70333745365133,44.857436639853404 175.2880593325135,44.88785130720498 175.45226205191648,45.318723106451216 175.97290482076278,45.57217478926759 176.2812855376942,45.63807194570472 176.5776514215031,45.546829698214424 177.15836835599112,45.16665127302622 177.5188133498159,45.095684206011356 178.94056860321507,44.943611466478615 179.26096415326901,44.83716018121777 180.88296662546782,44.593841820958914 182.23263288009548,44.71550119879976 183.24588380716523,45.19199662149549 184.07490729294295,45.73438296569293 185.1282076637799,46.7430992865593 186.15747836834998,48.08125386686879 187.37498145858262,49.9312751745274 188.20000000000073,50.93481013341443" stroke="#4dd2ff" stroke-linecap="round" stroke-linejoin="round" stroke-width="0.5"><title>2022-11-05 16.8km</title></polyline><polyline fill="none" points="44.19999999999709,92.10875040631436 44.14312225705362,91.90309563596384 43.03400626959046,90.50461366565287 41.782695924761356,88.59190053529528 41.18954231974931,87.810334113321 40.03167398120058,86.69451733340247 39.18663322884095,86.1700206987407 38.13439498432126,85.6712279627136 37.56968025078095,85.64037458861276 36.92371159874892,85.5015340948994 36.50931661442155,85.55295655917507 35.80647021943878,85.71750797687127 34.98580564263466,85.81006783595876 34.56734796238743,85.97976032496445 33.09258934169338,86.09803039915641 32.414119122255215,86.52997014946959 32.01597492162546,86.6276701259194 31.39031974921818,86.39113290841487 31.256250783699215,86.24715301113247 31.10999373040977,85.84606327578149 30.476213166155503,85.79978341831156 29.984626959252637,86.30371660731544 29.7327398119196,87.08531403763845 29.237090909085964,87.34755693952684 28.9770783699023,87.30642091780828 28.899887147344998,87.22929075698266 28.217354231986974,87.32184693118325 27.299184952986252,86.60710173071493 27.0472978056423,86.55053858644169 17.995611285263294,88.06228820361139 17.601529780560668,88.1548423475615 17.313078369912546,88.40165229533159 17.11806896552298,88.45821268244617 15.196413793109969,88.18055179196745 14.550445141063392,88.01601104703877 14.383874608160113,88.134274779517 14.071047021952836,88.02629486449587 13.607899686514429,87.589230167192 13.530708463953488,87.05960385174694 13.38038871473691,86.84877967078864 12.986307210034283,86.57624911702078 12.57191222570691,86.08260388863346 12.328150470220862,85.94376501188162 12.120952978053538,85.99004469387 11.799999999999272,85.80492562748987 12.129078369918716,85.96947595327947 12.385028213171609,85.92319624623997 12.80754858934597,86.25743730761315 12.998495297812042,86.57110701229249 13.457579937305127,86.84877967078864 13.542896551738522,86.98761523861685 13.640401253920572,87.59437213403362 13.888225705330115,87.78462441830561 14.079172413792548,88.04686249100996 14.436689655176451,88.12399099130926 14.546382445143536,88.00572722681318 15.293918495302933,88.18569367875534 17.114006269603124,88.42736157263789 17.309015673985414,88.36051741542178 17.540589341690065,88.1497004565972 17.739661442006764,88.09828150862086 27.091987460818928,86.52997014946959 27.30324764890611,86.58653332436006 28.164539184952446,87.27042686225468 28.867385579935217,87.19329662832388 29.058332288408565,87.41440287976002 29.20865203763242,87.45039679885667 29.342721003133192,87.28071088161232 29.724614420061698,87.05446181246589 29.984626959252637,86.20601579735376 30.508714733547095,85.77921457467528 31.085617554850614,85.79978341831156 31.329379310336662,86.30371660731544 31.853467084642034,86.52997014946959 32.19067084640119,86.57624911702078 33.084463949846395,86.04660867303755 34.80298432602649,85.87177428333234 35.63989968652095,85.64551681937519 35.98116614419996,85.66094350746789 36.71245141066174,85.49124959368783 38.11408150470743,85.61980565862177 39.17038244514333,86.11345690341841 39.808225705335644,86.4991174730967 40.24293416927685,86.95162088087818 41.152978056426946,87.71263717958936 41.84363636364287,88.7512969755735 42.29053291535456,89.26033274050133 43.200576802504656,90.64857742254026" stroke="#4dd2ff" stroke-linecap="round" stroke-linejoin="round" stroke-width="0.5"><title>2022-11-04 16.4km</title></polyline><polyline fill="none" points="80.19999999999709,92.29205063666086 76.96171111696822,87.74981648091853 76.41843147609688,87.20839539716326 75.38748349615707,86.37459258953095 73.96297861101993,85.60574602070483 73.75336678108579,85.5082855406472 72.38875099021607,85.30794936334132 70.47229997357499,85.61657494826795 69.98890942697471,85.78442295044442 68.34623712699977,85.98475674034853 67.65323475044715,86.4233218034351 67.33240031686364,86.48287965088457 66.6094533931755,86.25006210641004 66.31000792181658,85.67071954208222 65.66406126220318,85.63281833411384 65.13361499866733,86.13094562921106 64.86411407445848,86.99723918736709 64.32511222602261,87.27336631429716 64.0727224716029,87.24088086893971 63.952944283068064,87.14342437444793 63.23855294426539,87.21380964428317 62.382994454699656,86.537023071578 62.0707156060198,86.43956486154639 57.80575653550841,87.10552456245568 56.43686295219595,87.40330783186437 52.50984948507903,88.02052427369563 52.077792447838874,88.11797863044194 51.80401373118002,88.35078529905877 51.5815685238922,88.43199660876417 49.630895167665585,88.15587748282269 48.86089252705642,87.95555457056616 48.75822550830344,88.08549387125095 48.64272511221134,88.09632212725046 48.373224188002496,87.98262529304338 47.93688935833052,87.57656253173991 47.84277792447756,87.37082249206287 47.872722471602174,87.17590989900418 47.79999999999927,86.8835392279143 47.85133350936303,86.8023247732126 47.9026670187377,87.44662157720813 48.36466860310975,87.96096871652844 48.59566939528304,88.08549387125095 48.75822550830344,88.08549387125095 48.89083707418831,87.9772111500024 51.577290731449466,88.41575436000494 51.73984684445168,88.38326984273954 52.16334829678817,88.06925148176742 62.0707156060198,86.42873615685676 62.29316081330762,86.45580791304383 63.23855294426539,87.20298114931575 63.96149986796445,87.1325958604175 64.30800105623712,87.37623671719848 64.51761288618582,87.16508139375219 64.84700290466208,87.00806773807199 65.12078162133184,86.10387365306815 65.65122788486406,85.63823279458666 66.26722999735648,85.63823279458666 66.57950884603633,86.17967514004704 67.31528914706723,86.46663661037019 67.60617903352613,86.4179074492713 68.38045946658531,85.93602699194889 70.23702138895169,85.71403516434293 72.45719566938715,85.32960737685426 73.01330868760124,85.43789726841351 73.67636651703287,85.44872624144045 74.97681542116698,86.0930448574909 75.79815157115445,86.63448104408963 76.81198838129058,87.60904770439447 77.1798785318133,88.08549387125095" stroke="#4dd2ff" stroke-linecap="round" stroke-linejoin="round" stroke-width="0.5"><title>2022-10-29 14.6km</title></polyline><polyline fill="none" points="116.20000000000073,92.1049679231146 115.53072666912703,91.2932846053518 113.79380302470963,88.72703898101463 112.92135743268227,87.58250699469136 111.81785319069968,86.60937503642344 111.08882331243512,86.13036291876051 110.15263740317096,85.69168325780993 108.80612320176442,85.4950320768803 108.097012172635,85.61100597589757 107.8779048321594,85.7471487877192 106.85805975654876,85.81269885291476 106.61504979712845,85.99926379144745 106.14894872740842,85.98413693935436 105.20877904832378,86.09506704527303 104.14909627443558,86.59929063428717 103.45990409443039,86.37239086419504 103.28461822205281,86.13540518366426 103.18104020655664,85.82782577463877 102.61932866101779,85.78748730302323 102.10940612320337,86.24633483892103 101.87436370342766,86.76064074071837 101.84249354480926,87.0329174599392 101.37639247511106,87.27493953898738 101.10151235707235,87.27493953898738 100.97004795278554,87.18922356588882 100.33662855034709,87.24972897914631 99.48011803762347,86.60433283570455 99.28092954629028,86.53374195384822 90.34533382514928,87.99595432581191 89.94695684249018,88.09679444193534 89.65614164514409,88.33376763994966 89.44101807450716,88.38922923448627 86.97904832165295,88.00603834971844 86.79579490962351,88.08671044261791 86.49701217263282,87.98082828485349 86.01497602360905,87.50687588865185 85.93530062706122,86.93711661909038 85.40545924012258,86.54382637372328 85.21423828844854,86.23120808721796 84.84773146439693,85.94884092726716 84.58878642567288,85.96396779368297 83.82390261894761,85.64630230823605 83.79999999999927,85.55554024317462 83.89162670600854,85.67655628076682 84.41748432311579,85.81269885291476 84.58878642567288,85.93875634624055 84.83976392474506,85.898417994802 84.99513094798385,86.00430607411181 85.28594614532994,86.27658832391171 85.4452969383965,86.53374195384822 85.92334931758887,86.83627336244172 86.03887864255739,87.49174964901613 86.51693102175705,87.96066022065497 86.75994098118827,88.05141642348462 86.96709701216241,87.9304081038863 87.59254887494899,88.09679444193534 89.44500184433491,88.36906139147322 89.63622279601623,88.32872567271625 89.99077831058821,88.06150043235539 99.24109184802364,86.5186153188879 99.53987458502525,86.5942484322004 100.3525636296581,87.25477109247367 101.01386942087993,87.1791393208041 101.17720398376696,87.36065531475833 101.32858723718164,87.3959499886223 101.58354850609248,87.16401294802199 101.8345260051683,87.06317030584978 102.08151973440908,86.2412925890385 102.571523423092,85.7723603649174 103.1651051272529,85.78244499100765 103.42803393581562,86.26146158448319 103.87023238657639,86.47827759564098 104.20885282183735,86.53374195384822 104.48771670970018,86.45810871761933 105.13308742161826,86.06481341280232 108.0253043157536,85.63621764527124 108.21652526743492,85.54041321082696 108.96149022500322,85.50511677810209 110.12475101438395,85.64125997709925 111.49118406492926,86.34213745705347 112.45924013279364,87.09342312718218 113.1364810033192,87.7942732743395 114.9052748063441,90.25974918788415" stroke="#4dd2ff" stroke-linecap="round" stroke-linejoin="round" stroke-width="0.5"><title>2022-10-22 16.5km</title></polyline><polyline fill="none" points="152.0885747038592,92.36729691384971 152.1999999999971,92.13228372596859 150.96606801682356,90.52893333533575 148.76232327092657,87.38471077226131 147.68108521208342,86.4288581011715 146.86809323653506,85.89607747941409 145.84050439434577,85.4103004987519 145.25036301108412,85.38418328347689 144.51578142911967,85.23792655112993 143.88849828047387,85.32672534762605 143.42628964463802,85.47298174326716 142.62155139472816,85.5356628859081 142.25013374093032,85.70281210164467 140.82636606801316,85.81772676730179 140.46732900267307,85.94831119908122 139.93496369889544,86.28260532993227 139.6254489873827,86.34006184191458 138.96927779899852,86.14157534678452 138.77531524647566,85.89607747941409 138.6432556362197,85.55133315564672 138.0654948414267,85.51476918301341 137.52074894916586,86.02143828776752 137.24837600305545,86.85716659844547 136.922353840273,86.99819396532621 136.74489873901985,87.20189925167506 136.39411539930734,86.97207782516125 135.70492930837645,87.06087262954316 134.8713030187173,86.38184834232379 134.6195643866995,86.29827529624527 129.9025601834037,87.0452029730368 128.68513565150715,87.31680945145854 125.57348108519727,87.78689306794695 124.97508597630804,87.91747083367227 124.68620557890245,88.14728662783455 124.43859380970025,88.22040954794647 123.46052732134922,88.11072511580642 121.84692395872116,87.79733930547081 121.65708826900664,87.90180152512767 121.39709591133942,87.8130086564488 120.89361864728562,87.3272558162862 120.85647688190875,86.83627361135586 120.71616354603975,86.6012267267979 120.2704623614627,86.3191685747297 120.14252961405509,86.08934188884814 119.79999999999927,85.7759396557667 120.12189529994794,86.05277842619762 120.28696981275061,86.31394525617361 120.79457393961638,86.6691293072181 120.86473060756543,87.25935439435852 121.38884218570092,87.78689306794695 121.58693160106486,87.8861322102166 121.88819258692456,87.78689306794695 123.6256018341519,88.10550203981984 124.5087504776493,88.19429423523252 124.84302636606662,87.94358633377851 125.09063813526154,87.86001667120217 134.61131066105372,86.26693535727463 134.82178066487904,86.3243918925873 135.71318303399676,87.01908686470779 136.36935422238457,86.96163136416726 136.68712265953218,87.18100645129743 136.8274359954121,87.12877440085867 136.90997325180433,86.99819396532621 137.2194879633098,86.88850605787593 137.53312953763452,85.96920466712618 138.07374856705064,85.4938754687937 138.66801681314973,85.5356628859081 138.870233091322,85.97965139693042 139.65433702712107,86.30872193690448 139.92258311042679,86.26171203164267 140.59938861292903,85.84906707125265 142.7412304165082,85.48865203847527 144.45387848682003,85.23270308615247 145.6589224302661,85.36851294583175 145.84875811999154,85.39985361477375 147.2890332441857,86.14679868870007 147.85028658769806,86.53854731570027 148.74168895681942,87.35337171597348 149.95498662590035,88.95163112580485 150.9124188001515,90.38269610765929" stroke="#4dd2ff" stroke-linecap="round" stroke-linejoin="round" stroke-width="0.5"><title>2022-10-15 16.0km</title></polyline><polyline fill="none" points="188.1999999999971,92.25195839904336 187.71149318872995,91.68797526399794 187.46295463562637,91.21617558069556 184.81901864832253,87.58801304207009 183.68345456949828,86.55753326500053 183.02782700700845,86.14533393068268 181.77227879909697,85.54872211740803 181.38233037956888,85.46194147694405 181.1680730062144,85.49448423915237 180.4438830842446,85.34804160095882 179.5868535907939,85.4673652724814 178.8326676365541,85.6734689586774 178.33987567781514,85.66262142268897 178.02277476523886,85.81991040698995 176.38584843275385,86.01516483847809 175.73450601772493,86.41109451363809 175.34884274566866,86.51414406116601 174.65036370849703,86.2971973368767 174.50038354714343,86.13991022694245 174.33326279592075,85.70601154900942 173.68192038090274,85.64092634190092 173.16341753735833,86.13448652249645 172.88916809944567,87.02396423780374 172.38352069830944,87.28971899093449 172.12212670281224,87.27344834242831 171.99357227879227,87.15955361787564 171.26509720936883,87.24090702560716 170.33093506149817,86.52499136653205 170.00954900145007,86.46533115065904 160.47081073931622,88.05985545952353 160.08086231979541,88.14663047142676 159.60521095093281,88.46118831374406 156.9227086364117,88.03816167717014 156.65274434597086,88.11951330040392 156.39135035047002,88.01646788308062 155.8814178018656,87.54462495451298 155.79999999999927,86.93718679367521 155.8428514746629,87.39818981201097 155.94569501388105,87.59343654970507 156.15995238723917,87.72902400203384 156.3484988758064,87.97850371511959 156.6098928713036,88.09781955036306 156.91842348894716,88.0110444327147 159.54950403384646,88.43949474874171 159.77233170214458,88.37441398328883 159.9951593704427,88.16832419503407 160.38082264250625,88.05985545952353 164.41743155667064,87.41446040983283 164.9359344002114,87.2354834702237 170.0695410659864,86.45990749026896 170.33093506149817,86.50329675285684 171.25652691441792,87.21921279970411 171.41507737071515,87.26260123977045 172.010712868665,87.17040074845863 172.28924745403128,87.41446040983283 172.52921571220213,87.1812478760985 172.8420314773175,87.04565856946283 173.15056209494287,86.1236391113489 173.5919322840782,85.7005877857955 173.85761142706542,85.64635011319479 174.3461182383253,85.71143531150301" stroke="#4dd2ff" stroke-linecap="round" stroke-linejoin="round" stroke-width="0.5"><title>2022-10-05 12.1km</title></polyline><polyline fill="none" points="44.20000000000073,132.68949987725864 41.492602739723225,128.82902034032668 40.23372353673403,127.72084674129655 39.34201743462472,127.14887343344526 38.42206724781863,126.6892457390095 37.058281444577005,126.5615703852709 36.219028642586636,126.75563675211743 35.37574097135075,126.8322416220326 34.927870485680614,126.97012999572325 33.55198007472063,127.14887343344526 33.21708592777577,127.24590523059669 32.73693648817425,127.54721290412999 32.47870485678504,127.60849552617219 31.768567870491097,127.42464736128022 31.409464508102246,126.85777654407138 30.868792029887118,126.80159969273882 30.3482938978741,127.3174021845225 30.118306351181673,127.85362501856434 30.102166874214163,128.07321883583427 29.58570361146849,128.4511214813756 29.254844333750953,128.25195704553698 28.601195516821463,128.3183453076781 27.802291407224402,127.70041927252896 27.447222914070153,127.56764045588352 22.843437110841478,128.31323852243077 22.222067247817904,128.51750939292106 22.10909090909263,128.48176207045253 18.421220423409977,129.07924858211845 18.045977584060893,129.17116874381827 17.787745952671685,129.390754889886 17.529514321300667,129.44692788470275 15.019825653795124,129.03839510502803 14.89877957659337,129.14563538803122 14.592129514330736,129.05371516412197 14.071631382317719,128.55325668150545 14.055491905350209,128.18556866654762 13.974794520552678,127.98640282834458 13.454296388546936,127.57274734208477 13.212204234114324,127.1999428314848 12.824856787043245,126.94459514973278 12.631183063513163,127.00077178806532 11.888767123287835,126.71988775957652 11.799999999999272,126.54624931377111 11.900871731017105,126.71988775957652 12.433474470730289,126.86799050806803 12.619078455798444,126.99566482438968 12.86117061020559,126.93948817847195 13.204134495637845,127.19483589479933 13.470435865510808,127.56253356897287 13.978829389787279,127.93533449527968 14.124084682443936,128.5890039362239 14.60019925279994,129.03839510502803 14.850361145701754,129.13031536627386 15.02386052304064,129.01796834987545 17.549688667502778,129.41628807972302 18.13474470735673,129.09967530407448 22.13330012452934,128.44601471410715 22.835367372354085,128.25195704553698 27.2858281444569,127.557426681371 27.523885429651273,127.54210601445811 27.73369863014159,127.62381616612402 28.560846824409964,128.2723842155683 29.24677459526356,128.2213162697626 29.52518057285488,128.4511214813756 29.767272727276577,128.2417434563722 30.057783312582615,128.11918017067364 30.34022415940126,127.24079830012852 30.84458281445768,126.79649270210939 31.469987546704942,126.8322416220326 31.70400996263197,127.34293677808455 31.79277708592781,127.31229526374591 32.103462017443235,127.4961439763465 32.4383561643881,127.57274734208477 32.72079701120674,127.50635776743366 33.398655043591134,127.1131248136735 35.15785803237304,126.87309748901316 35.339427148192044,126.78117172605198 35.81150684932072,126.75563675211743 36.836363636364695,126.53603526264851 37.320547945200815,126.51050012274209 38.458381070984615,126.67392471937637" stroke="#4dd2ff" stroke-linecap="round" stroke-linejoin="round" stroke-width="0.5"><title>2022-10-02 14.7km</title></polyline><polyline fill="none" points="80.20000000000073,133.1287236306598 79.18923992068812,131.7032412295157 78.97081295439784,131.55147585543455 78.40975545274705,130.6137698934508 76.9321612690037,128.57025365204754 76.56383344348797,128.16912681129907 75.63873099803095,127.3397572186841 74.62797091870743,126.62962972990135 74.46093853273123,126.64047146563098 73.72000000000844,126.28811355083599 73.11611368143713,126.18511603608931 72.28523463317833,126.10922296088756 71.30873760741088,126.32605993683683 68.35783212161186,126.78141376312487 67.62545935228991,127.17171292019702 67.34707204230654,127.22592083549534 66.52475875743039,127.00908873388107 66.25493721084786,126.44531977296356 65.68103106410854,126.39653170112433 65.141387970918,126.87898890914585 64.81160608064238,127.76799595123157 64.46469266357599,127.94145843801743 64.37475214804726,128.07155480985966 63.94646397885299,127.91977566828427 63.22265697289549,127.99024462701709 62.21617977528513,127.23134162298084 62.04486450760305,127.19881688701207 52.74244547257695,128.75455382591463 52.05290152015368,128.9280120380572 51.56893588896128,129.2044595102634 48.823608724393125,128.75455382591463 48.60518175809557,128.87922699185583 48.30109715796789,128.7437126627192 47.8556774619974,128.31006372686534 47.79999999999927,128.1637061507936 47.825697290154494,127.75173380456545 47.88565763384031,128.2829605124025 48.47241242565724,128.77623614353797 48.630879048258066,128.81960074355084 48.845023132853385,128.7166097418376 49.46604097819727,128.87380642748758 51.56465300727359,129.17735690130576 52.040052875086985,128.846703594696 52.34842035690963,128.78165672111572 62.06627891606331,127.16087132832399 62.288988764048554,127.19881688701207 63.18411103768085,127.92519636181532 63.35970918705789,127.96856188369202 63.9764441506959,127.87641009355502 64.05353602115429,128.02276871996582 64.25483146067927,128.10407883676453 64.4604097818883,127.91977566828427 64.83302048909536,127.75715452084842 65.07286186385318,126.90067224263476 65.62107072042636,126.3748480945651 66.30204890945606,126.39653170112433 66.54189028420296,126.8952514103621 67.2785459352308,127.19881688701207 67.55265036351557,127.16087132832399 68.19508261731244,126.77599291469596 68.69617977527741,126.64047146563098 70.26799735625173,126.45616155861353 71.00037012559187,126.28269263562834 71.38154659617066,126.27185080297568 71.85694646399133,126.11464389962566 72.34519497687143,126.07127636933728 73.758545935234,126.2176415956892 73.89988103106225,126.15801138290044 75.66442828816798,127.31807412302442 76.89361533378178,128.42931765248068 78.10567085260845,130.07715371147788 79.6560740251225,132.3644979314886" stroke="#4dd2ff" stroke-linecap="round" stroke-linejoin="round" stroke-width="0.5"><title>2022-10-01 15.4km</title></polyline><polyline fill="none" points="116.1119764545947,134.25126063549396 110.22173420876061,126.09117665224039 108.21186325558665,124.2529349792967 106.97219832465635,123.44520714321698 104.95499207606917,122.47963494407304 102.71772696400149,122.09897293589893 100.72986189721269,122.63746979099233 99.20412044372642,122.72102926874504 98.42657912609138,123.03669748779066 95.59515508264303,123.36164854809613 94.56821371970727,124.03011445773882 94.0327371519088,124.19722991679009 92.74172515283135,123.81657744506083 92.16957210775581,122.7953042745794 91.0766130858101,122.70246050471178 90.26239529091254,123.48234426392446 89.67557165497419,125.11635766062682 88.72198324654164,125.69196674094565 88.20851256509923,125.30203853710555 86.99085352049588,125.45058287626307 85.20104143083881,124.03939866060682 83.80000000000291,124.2529349792967 85.14969436269166,124.0765354594696 86.96884763416165,125.38559476748924 88.21584786053427,125.30203853710555 88.72198324654164,125.70125071877555 89.13275979171885,125.32989062522392 89.73425401855638,125.04208516925428 89.79293638215313,124.55931201404746 90.21104822278721,123.49162854096357 91.09861897217343,122.70246050471178 92.19891328954691,122.7117448873687 92.6316957210729,123.62160828739434 93.94471360652096,124.10438804539444 94.52420194703154,124.02083025362663 95.80787865067396,123.26880554517265 100.48779714737611,122.48891935690335 101.13330314694758,122.49820376846037 102.49766810052097,122.17324861566885 104.96966266696836,122.47963494407304 107.44899252886535,123.74230354560859 108.51994566447684,124.4943230604622 110.26574598143634,126.11902841981646 116.04595879554108,134.11201819904818 116.20000000000437,134.4926135222122 115.99461172741576,135.02173034007137 114.9676703645091,136.265602920721 113.96273488793668,137.10102706409816" stroke="#4dd2ff" stroke-linecap="round" stroke-linejoin="round" stroke-width="0.5"><title>2022-09-29 10.1km</title></polyline><polyline fill="none" points="152.1999999999971,132.74346792385768 151.68684927950744,132.1259979979077 149.42814487862051,128.88944529066066 148.8771387771012,128.31450345582198 148.21677268596613,127.75552416660503 147.43863429833436,127.2338029927123 146.37447747631813,126.7014273107743 145.68887446449662,126.5523608278927 145.6005452421232,126.60559892238234 144.96120991821954,126.45653207614305 143.8129300272667,126.74934141738049 142.9506685706874,126.78660790435242 142.51322861224617,126.9409972598005 141.16725950928958,127.10603348652512 140.85179800077458,127.17524202058485 140.27976113202385,127.54790126354419 140.01897961833674,127.59581433849235 139.23663507724996,127.35624837978321 138.92537972218634,126.79725546557893 138.32810593276736,126.76531277326285 137.83598597948367,127.2338029927123 137.53314293133008,128.10155990181374 137.01157990393767,128.47421036443484 136.649850707523,128.24529692727447 136.09463845255596,128.3517684591825 135.06833701155483,127.62775635602156 134.80334934441635,127.55854861857733 125.44465792547635,129.11303151141328 124.96936258600181,129.2195006934453 124.50247955341911,129.5122894574124 122.57606127482723,129.25676483903953 121.81474750098278,129.07044375787518 121.69276905101287,129.1875599691084 121.57499675451254,129.18223651252993 121.3184213942659,129.07576722958402 120.87677528235872,128.66053427118095 120.75059067894836,128.0110585421171 120.18696611709674,127.54257758495078 120.06078151369366,127.28704016438132 119.79999999999927,127.06876730234217 120.05236920679454,127.26574530436483 120.21220303779046,127.53193022556661 120.72114760483964,127.87264429488641 120.83471374789951,128.13882510702388 120.86836297546688,128.56471065799633 121.3436583149487,129.04382638847892 121.60023367519534,129.1609426790019 121.83577826820692,129.0651202854351 124.48986109307589,129.50164263147963 125.03666104115109,129.171589597212 134.72763858237158,127.55322494141365 135.04730624432705,127.53725390561885 135.90115539399994,128.2772384171294 136.11566921978738,128.33579774778627 136.65826301441484,128.23997334311935 136.98634298325123,128.4529161474311 137.54155523822192,128.08558908877603 137.79813059846492,127.2338029927123 138.36596131378246,126.74934141738049 138.96323510321236,126.76531277326285 139.03473971179483,127.03150108282352 139.2450473841418,127.28171645045222 139.64463196157885,127.4786933855139 139.98953654420984,127.54790126354419 140.24611190445648,127.50531181455153 140.80132415942353,127.15927083122733 141.2724133454576,127.01020608440012 144.7593145527644,126.47782737449234 145.55007140075395,126.55768464058929 145.65101908348151,126.5097703003994 146.24829287290777,126.61624653262697 147.4218096845434,127.20718437982941 148.263040373884,127.75020051612955 149.23466182007542,128.6339166242833 149.6763079319826,129.1502957579214 151.29147085551813,131.44464061989493 151.69526158639928,132.1259979979077 152.0780215500563,132.58377835529245" stroke="#4dd2ff" stroke-linecap="round" stroke-linejoin="round" stroke-width="0.5"><title>2022-09-24 16.0km</title></polyline><polyline fill="none" points="188.20000000000073,132.92245049669145 187.39690831556436,131.895185319976 185.06535181236904,128.56732231737988 183.84344349680396,127.49622757899851 181.9825159914726,126.45789431890807 180.49722814498455,126.27754950330927 179.47393390191792,126.54533393939346 178.5542643923327,126.5890536785846 178.16135394456796,126.7366074486672 176.52926439233124,126.93880988700403 175.88592750532916,127.32681713406055 175.45847547975427,127.41971972417741 174.71151385928533,127.15740597797412 174.44813432835508,126.59998360596 173.8177505330641,126.56719381490257 173.3125799573536,127.06996768367026 172.99738805970992,127.96620121938759 172.6562899786877,128.12467946885226 172.45767590618925,128.31594549289366 172.34973347548657,128.30501603022276 172.11226012792758,128.09189091656663 171.40847547975136,128.173862247324 170.4715351812374,127.47983305088201 170.13475479744739,127.39786031044423 166.13656716418336,128.02084896190354 164.61242004265296,128.3378044093406 160.52787846481442,128.98810175875042 160.04429637526118,129.11378827346925 159.85000000000946,129.31051420635413 159.58230277185794,129.39248306204172 158.36902985075358,129.25040360637286 156.9096481876404,128.94984926353936 156.70671641791705,129.05914201081396 156.49514925374024,129.01542494743262 155.89498933902723,128.48535178577004 155.79999999999927,127.85144071922332 155.92953091685558,128.47988707775585 156.395842217491,128.91706138165318 156.65922174840307,129.03728348504592 156.8837420042655,128.91159673208313 159.63843283583265,129.37062471681202 160.19973347548876,129.02635421770538 164.539019189775,128.33233968134664 166.07611940299103,127.98259554991091 170.35927505330255,127.34867658627627 171.36098081023738,128.12467946885226 172.18134328359156,128.09189091656663 172.28928571429424,128.56185762045425 172.14248400854194,128.58918109769002 172.07340085287797,128.39791636857262 171.96977611941475,128.37059276183936 171.611407249482,128.44709881404924 171.51641791045404,128.55092822437655 171.48187633262933,128.50721061049626 171.43006396589044,128.3214102231177 171.49914712154714,128.27769236058884 172.11657782516704,128.16293274617783 172.33246268656876,129.12471751711928 172.7944562899902,129.09739440243357" stroke="#4dd2ff" stroke-linecap="round" stroke-linejoin="round" stroke-width="0.5"><title>2022-09-22 12.2km</title></polyline><polyline fill="none" points="44.20000000000073,173.72390900594837 40.90663716814379,169.22831973339999 39.795575221236504,168.2152252202577 39.070796460178826,167.7565514722628 37.951769911505835,167.27266974334634 36.72522123894305,167.1113744357608 35.785398230083956,167.3432362206113 34.93318584071676,167.39868121604013 34.42345132743867,167.57509656110778 33.013716814159125,167.7565514722628 32.424336283187586,168.09929722429297 32.07389380530731,168.18498316915793 31.38097345132337,167.95816700274008 31.142035398224834,167.43396435194154 30.576548672557692,167.38860031392323 30.098672566367895,167.81703624606962 29.87168141593429,168.3311528551567 29.815929203530686,168.64869191922116 29.461504424780287,168.8402221084798 29.338053097348165,168.99646969082823 29.194690265485406,168.98134898571152 28.97964601770218,168.78981952264076 28.44203539823502,168.88558437735992 28.28672566370733,168.85534287091286 27.418584070797806,168.20010419778555 27.239380530972994,168.14466039614854 23.046017699107324,168.79990004526917 22.126106194689783,169.00655015748998 18.2075221238847,169.64161405383857 17.904867256631405,169.7121760402115 17.61017699115473,169.94906173042546 17.419026548664988,169.98938254883615 15.82610619469051,169.78273789280502 14.922123893800745,169.57609208961367 14.790707964602916,169.6819352052844 14.472123893803655,169.60129285873336 13.974336283179582,169.09223401390045 13.914601769913133,168.52772497613478 13.41681415928906,168.18498316915793 13.229646017698542,167.87248053573785 13.02654867255842,167.69606660016507 12.80752212389416,167.5398135589894 12.564601769914589,167.58013698723516 12.054867256636498,167.34827667814534 11.891592920346739,167.3432362206113 11.799999999999272,167.1718602580222 11.799999999999272,167.44404524177298 11.84778761061898,167.32307438360658 12.011061946897826,167.32811484388003 12.552654867249657,167.57005613427464 12.76371681414821,167.51461139413004 12.990707964600006,167.63054121114328 13.305309734500042,167.92288436374292 13.412831858393474,168.14970074516168 13.93053097344091,168.47732196715515 14.046017699110962,169.15775682982348 14.492035398227017,169.57609208961367 14.726991150429967,169.6567344907453 14.953982300881762,169.5307306621835 15.539380530979543,169.7071359027541 17.454867256634316,169.97426224705123 17.92079646017737,169.69705562580566 18.315044247778133,169.5962527062693 27.052212389378838,168.13457969607043 27.486283185840875,168.20010419778555 28.302654867253295,168.8351818529627 29.01946902654163,168.77973899728022 29.0632743362803,168.88558437735992 29.294247787609493,168.98134898571152 29.81194690264965,168.65373219999674 29.827876106195617,168.39667701082726 30.054867256629223,167.84223820615807 30.556637168141606,167.3835598618316 31.157964601767162,167.38860031392323 31.392920353981026,167.87752092160372 31.50840707964744,167.87752092160372 31.834955752216047,168.08417615471262 32.165486725669325,168.14970074516168 32.41637168141824,168.09425686844406 33.12123893805983,167.66078371271942 36.77300884956276,167.0760909940509 38.107079646015336,167.23738645454068 39.57256637167666,168.01865144892145 40.938495575224806,169.18295788218165 41.83053097344964,170.39762837558737" stroke="#4dd2ff" stroke-linecap="round" stroke-linejoin="round" stroke-width="0.5"><title>2022-09-17 16.2km</title></polyline><polyline fill="none" points="80.19999999999709,173.7013133383589 76.93294030949619,169.1838532803522 75.8585114222551,168.2168340215503 74.10361090640436,167.27497338739704 73.57833456153094,167.15912791889787 73.49874723654284,167.20949555823609 72.81827560795136,167.09868666164402 71.84333087692721,167.34045110129227 71.06735445836239,167.38074502179006 70.60574797346271,167.53184683484142 69.09756816506342,167.72324158345145 68.41311717021745,168.13121131309163 68.09078850404694,168.1966875196449 67.44215180545507,167.95996530486445 67.13971997052795,167.4109654334934 66.62240235814534,167.36563480671975 66.10906411200631,167.8541953176682 65.88224023580187,168.39311544773227 65.85040530581682,168.63487147363412 65.50817980838838,168.8212240044886 65.33706705968507,168.99750256627885 65.23360353721364,168.99246604753716 65.01473839350365,168.79100473859216 64.35814296241733,168.8665528573256 63.53043478260224,168.2218706453168 63.21606484892618,168.13624794846328 54.37789240972779,169.61195273618796 53.964038319823885,169.71268130388125 53.518349299934926,169.99471984230695 50.96757553427233,169.58173411268945 50.8442151805466,169.68246276221544 50.53780397936498,169.5968434275128 50.04038319823667,169.1183788115195 49.95681650699407,168.5391765679342 49.43551952837515,168.14632121713657 49.212675018428854,167.79375518993402 48.862490788505966,167.54192026720193 48.6157700810727,167.57214054795986 47.85969049374398,167.2648998827317 47.79999999999927,167.1238705307769 47.90744288872884,167.31023063227985 48.392925571111846,167.4260756301519 48.623728813559865,167.5620671237739 48.89830508475279,167.53184683484142 49.2922623434024,167.84412196986523 49.43551952837515,168.11610140290577 49.92100221075452,168.4334082278292 50.02844509948045,168.65501773820142 50.04834193073475,169.09319629281526 50.494030950630986,169.55151546464185 50.80442151805619,169.67238990954502 50.983492999264854,169.55151546464185 51.95445836403451,169.76304548545158 53.52232866617851,169.96953791688793 53.95210022107494,169.68246276221544 54.369933677222434,169.5918069899235 63.29167280765614,168.12617467705422 63.478703021370166,168.17654100682557 64.35416359615556,168.8564797836807 65.00677966101648,168.78596819187806 65.32512896093613,168.99750256627885 65.50420044214479,168.82626054642606 65.83846720707515,168.67516399184024 65.86234340457304,168.41829844041058 66.10508474576272,167.82901194305305 66.59852616064018,167.38074502179006 67.21134856300705,167.40592869991815 67.45806927044032,167.9146353471806 68.1663964627769,168.16143111505517 68.43699336771533,168.10602812603975 69.07369196757281,167.71820489216407 71.58069270450142,167.2699366354027 72.04627855562649,167.25482637532332 72.77450257920646,167.10372343683048 74.08371407516097,167.2346793523211 75.53220338982283,167.97507527847483 76.58275607958058,168.80611437460902 77.81635961678694,170.28179258710588 78.46897568163695,171.28904785186023" stroke="#4dd2ff" stroke-linecap="round" stroke-linejoin="round" stroke-width="0.5"><title>2022-09-11 16.4km</title></polyline><polyline fill="none" points="116.20000000000073,173.78613896486422 115.0734756487218,172.32904605702788 113.81027738719422,170.43683997238622 112.88255145084986,169.19977990709594 111.73946056499699,168.15139297393034 111.16791512207419,167.80017700232565 109.96269973155722,167.19733618945975 109.35802121947563,167.09773549930833 108.57525246069417,167.01386103513505 107.59782692062072,167.26024175647763 106.74050875622925,167.3126629842336 106.14825514507538,167.4751683391114 104.85606544802795,167.63243093623896 104.49160168732851,167.7582405539397 103.9780391154236,168.09373086885535 103.72125782947114,168.13042494566253 103.01718010992408,167.91550200108395 102.71484085388875,167.3388735714725 102.12672887638473,167.30217874435039 101.8243896203494,167.5275892758218 101.59659976990588,167.815903158742 101.33981848394615,168.6074447788851 100.78483957560456,168.98486289938228 100.47421705227316,168.76470277626868 99.75771443179838,168.8380896230883 98.99979547486873,168.22478098342617 98.67674805062052,168.0727628093664 93.71507094463959,168.86429917751593 92.99442669052587,169.06349121133462 89.39534705355254,169.60340130690747 88.96461715453552,169.69251195795368 88.5297456218832,170.00177674393126 86.85238399590526,169.80783131955468 85.85010865395816,169.57195043992397 85.67616004089359,169.69251195795368 85.35725425027704,169.5824340650761 84.88924964846592,169.11590999726832 84.87268311388107,168.6860738574287 84.78570880735424,168.49212184148564 84.30113767096918,168.1409089612207 84.01536494950051,167.7320302506414 83.88283267287989,167.62718885996583 83.79999999999927,167.65339923425563 83.85798287100988,167.58525222418393 84.1603221270525,167.84735545242438 84.2762878690919,168.08324684053514 84.74843410455651,168.37155658503616 84.88510801481607,168.6703480545002 84.91409945033593,169.09494249140334 85.3779624185081,169.57195043992397 85.62231880352556,169.6820283626039 85.89980825769817,169.57195043992397 88.48004601815046,169.99129323232046 89.0681579956472,169.64009395276298 98.63947334781551,168.05703675727273 98.83827176275008,168.1094569060333 99.74114789722444,168.79615429907426 99.93166304486294,168.8380896230883 100.47007541863422,168.73849315440748 100.64816566533773,168.9586534265618 100.79726447653957,168.99010479180652 101.29840214750948,168.64938030732446 101.59245813624875,167.74251437408384 102.089454173587,167.29693662335558 102.71069922024981,167.28121025609653 102.93434743704347,167.815903158742 103.02960501086636,167.79493494875715 103.34851080148292,167.97840640106006 103.737824364056,168.0780048253 104.02773871915633,168.02034261091467 104.70696663683702,167.58525222418393 105.2578039115433,167.5328313655773" stroke="#4dd2ff" stroke-linecap="round" stroke-linejoin="round" stroke-width="0.5"><title>2022-09-10 13.4km</title></polyline><polyline fill="none" points="152.1999999999971,173.76764499165438 149.04682651622352,169.34593527350808 147.87529170406196,168.2680343461907 147.5263238876687,168.04193425775156 145.99335812283607,167.23742791784753 145.64023592768353,167.15855385005125 145.36189255032514,167.17958695046764 144.601641236055,167.03235500834853 143.26393127324263,167.3268183343098 142.52029747403503,167.3846590823814 142.34165918707004,167.50559854989115 140.75884087703525,167.68963614726817 140.01520707782765,168.11554838457232 139.7036286703442,168.1681298182957 139.02231055262746,167.9209964607071 138.74396717526542,167.3741425891276 138.1457366328941,167.3268183343098 137.62643928708712,167.8316074121176 137.37717656109453,168.40474538889976 137.33978715219928,168.6729079592551 137.03651750223798,168.8096175765313 136.8121810488483,169.0199391248534 136.4756763687583,168.8096175765313 135.76112322091285,168.8569400242195 134.91778433132276,168.20493677952982 134.66021284779708,168.11029023729498 129.7663546608601,168.88848829064955 126.61733555583123,169.4826425213796 125.42502884985151,169.63512311470913 124.98051032183503,169.75079764818656 124.61077061160904,170.0136930337285 124.4404410821844,170.05575613026303 121.8938068983116,169.64038105552754 121.60715476342375,169.73502386845212 121.36204641619406,169.63512311470913 120.88844723681177,169.18819554331276 120.77212463135584,168.54671403918474 120.25282728553793,168.1681298182957 120.06172586228422,167.8578983301195 119.79999999999927,167.65282869757357 120.09080651364638,167.82634922638317 120.2362097704754,168.0892576410224 120.73473522246059,168.39422917193224 120.84690344915725,168.59929488905982 120.90506475188522,169.125099471843 121.41189896139258,169.62460723093682 121.6694704449219,169.69821835749826 121.86057186817925,169.58254366740584 122.48372868316073,169.73502386845212 124.43628670342514,170.00843514346707 124.59830747531669,169.97688778689553 125.01374535196737,169.69821835749826 134.58958840877676,168.0839994901762 134.90947557378968,168.13658096660583 135.79020387227865,168.83590783237014 136.54630080779316,168.77806924604374 136.64600589818656,168.95684277997134 136.79556353377848,169.01468110003043 136.98251057827292,168.83064978263064 137.33978715219928,168.6466175930509 137.6056673932435,167.77376732983976 138.02941402743818,167.3741425891276 138.1789716630301,167.32156008022503 138.75643031157233,167.35310959412163 139.0140017951053,167.8421237814582 139.75348121553543,168.12606467701335 140.10244903192142,168.03141794252952 140.7962302859305,167.631795853511 144.5559430696194,167.0428715941489 145.3992819592204,167.09545448047356 146.03490191049423,167.2163948487687 147.06934222335985,167.73170176133863 147.73404282600313,168.14709725334978 148.51922041287617,168.8043595232375 149.17561225798272,169.49315844359808 151.97981792537757,173.41539881994322" stroke="#4dd2ff" stroke-linecap="round" stroke-linejoin="round" stroke-width="0.5"><title>2022-09-03 16.2km</title></polyline><polyline fill="none" points="186.43025210083943,174.79337069135 186.68189457600602,174.4697116325442 186.91291061879383,174.35486421688984 187.68846447669785,173.61878856978728 187.98961038961352,173.27945818622175 187.95660809777473,173.21159175126013 188.1999999999971,173.0027712023184 184.95339954162046,168.4345387764588 183.67868601985174,167.2388777353808 182.83712757831017,166.72718613599136 181.80580595874562,166.21548774596522 180.40733384262785,166.0484010866203 179.41726508784632,166.27292361787113 176.65332314744228,166.67497232566893 175.9974025974043,167.06657417960741 175.70038197097165,167.15533671358935 174.95370511840156,166.92559797036665 174.64430863253438,166.39301652814174 174.0750190985491,166.32513797264983 173.54285714285652,166.82639218081022 173.26233766233418,167.67224388111572 172.9570664629391,167.79755366606332 172.75905271199736,167.99595999271696 172.64766997708648,167.99073878666604 172.40840336133624,167.78711119953732 171.6988540870807,167.8602084058184 170.87792207791063,167.22843511755127 170.53964858671316,167.11356613481257 160.92773109243717,168.72170075395843 160.65546218486998,168.98275524144628 160.4945760122282,169.03496592686133 158.36592818946156,168.7425851780099 157.84614209320716,168.6016150962605 157.72238349885083,168.71125853770718 157.4047364400285,168.61205734219402 156.91382734911167,168.15781702939785 156.88082505729108,167.67224388111572 156.74056531703172,167.42162308953266 156.3321619556882,167.16055803274867 156.06401833461132,166.78984261505684 155.79999999999927,166.596651477641 156.14239877768705,166.85249899228074 156.3280366692088,167.16055803274867 156.79419404125292,167.47383588876983 156.87257448433593,167.61481009358613 156.9262032085535,168.1421534748879 157.39648586707335,168.61205734219402 157.72238349885083,168.71125853770718 157.89564553093805,168.6016150962605 160.46569900687246,169.02974486150924 160.89885408709233,168.7530273857701 161.15462184873104,168.67471075853246 170.58090145148526,167.10312348306616 170.8490450725658,167.17100066895728 171.69060351413282,167.83932350388932 172.44965622611926,167.78711119953732 172.6270435446968,167.99595999271696 172.77967914437977,167.99595999271696 172.91168831168397,167.83410227662898 173.2870893812069,167.63047386231483 173.3200916730275,167.34330375809077 173.55935828875954,166.7637357611493 173.96363636363094,166.38257368122504 174.18227654698785,166.32513797264983 174.64843391902468,166.3512451235256 174.9454545454464,166.88904849864775 175.47761650113898,167.10312348306616 175.74576012223406,167.12923010715167 176.731703590518,166.63320122651567 179.88754774635527,166.1006157454467 180.51046600458358,166.00662930864928 181.21176470588034,166.1423874216016 181.8800611153456,166.17371614900912 182.2265851795346,166.41912363306255 183.23728036668763,166.88904849864775 184.01283422460256,167.47383588876983 184.65637891519873,168.06905680309137 185.4236822001476,169.008860592985 187.72971734148814,172.3084347473632" stroke="#4dd2ff" stroke-linecap="round" stroke-linejoin="round" stroke-width="0.5"><title>2022-09-01 16.9km</title></polyline><polyline fill="none" points="44.19999999999709,214.5843359760911 40.81851709564944,209.91623169528975 39.831041106401244,209.0287557347001 39.18793699576054,208.67691053078306 38.92654629273238,208.44059479582938 37.951517479817994,207.9994682375509 37.35820207452707,207.9049404650541 36.57402996542078,207.81566402390672 35.55336150593939,208.07298967906536 35.29197080291851,208.04148050690492 34.623972339592,208.14125946424247 34.246407990765874,208.28830167023625 32.81913177102979,208.41958888302543 32.04740683826094,208.87646491887426 31.736227429875726,208.94998469773418 31.04748367267166,208.71892206624761 30.740453323094698,208.15701401295883 30.105647330001375,208.11500186877674 29.624356511711085,208.58763586682835 29.37956204378861,209.1652918197724 29.338071455997124,209.44361388912512 28.993699577407824,209.6116564356198 28.80284287359973,209.80595472233836 28.491663465232705,209.5748971907924 28.051863234722987,209.66942089281292 27.632808298105374,209.5538918923885 26.88597771800778,208.9709903232433 26.628736073751497,208.88696775294375 17.35973876295975,210.4413558360684 16.969727237796178,210.52537503875647 16.675144064527558,210.77743155476128 16.463542066838272,210.84044542779156 15.027967729536613,210.6566546785907 13.828889742595493,210.38359252861846 13.638033038805588,210.50962145211815 13.326853630420374,210.39409495456493 13.123549750274833,210.13678470043305 12.907798693810037,210.0055033008466 12.82481751823434,209.81645730470336 12.841413753350935,209.4803732583896 12.729389166339388,209.23881105108376 12.24809834804546,208.918476238141 12.08628505570232,208.64015039992591 11.799999999999272,208.41433740304637 12.111179408359021,208.64015039992591 12.235651171726204,208.8974705842047 12.754283519010642,209.24406241942415 12.89535151747259,209.91623169528975 13.355897041867138,210.39934616646133 13.61313868612342,210.50437025515566 13.83303880137828,210.3520852337424 14.496888205914729,210.53062623288497 16.463542066838272,210.81418965980265 17.09419900114517,210.46236065379708 26.641183250081667,208.89221916893075 26.898424894345226,208.92897906084545 27.79877064924949,209.64841564560265 28.466769112557813,209.56964586726826 28.645178640021186,209.75344176786166 28.806991932389792,209.7796982539985 28.98125240107038,209.60640511707243 29.313177103340422,209.45936790878477 29.578716865144088,208.64015039992591 30.130541682658077,208.1044988256217 30.707260852846957,208.09924730296916 30.993545908568194,208.6296474990122 31.084825201683998,208.60864168860644 31.43749519784251,208.8344535540782 31.83165578178523,208.8974705842047 32.711256242790114,208.43009184084076 33.072224356503284,208.3565710763687 36.52424126007463,207.81566402390672 37.362351133298944,207.87343115635304 37.9017287744864,207.9627074645141 39.21283134843543,208.59813877914348 39.90987322320143,209.06551549719734 40.606915097960155,209.67467220284743 41.80184402611121,211.118755475738 43.8639262389479,214.1170257580925" stroke="#4dd2ff" stroke-linecap="round" stroke-linejoin="round" stroke-width="0.5"><title>2022-08-28 16.3km</title></polyline><polyline fill="none" points="80.19999999999709,214.47217691954575 77.03112974841133,210.0925430626994 76.10004933399614,209.2428548500102 75.58455846078505,208.88375461605392 74.12599901332578,208.1250807975921 73.5785397138643,208.0138073416565 73.03507646769867,207.9278230804557 72.11998026641231,208.12002292042234 71.90019733597,208.24141178344144 71.04104588061091,208.2919903598995 70.6334484459876,208.4133786640159 69.09896398620185,208.61063381672648 68.44361124814895,209.00514099690918 68.19185989146717,209.0708917884731 67.48855451406416,208.84329240142688 67.16887025161122,208.2919903598995 66.63339911199,208.27681679416855 66.14188455845579,208.7269632902353 65.8621608288122,209.52608640191102 65.39861864826162,209.8750651820992 65.25076467686813,209.8750651820992 65.00700542674531,209.6778167069824 64.35165268869969,209.7334509977336 63.54444992599383,209.10123826862764 63.30468672916322,209.01525651082557 54.34153922051701,210.50220725908002 53.95392205229291,210.5881855940679 53.70217069560749,210.79048677807805 53.45041933892571,210.87646444949496 51.61223482980131,210.62864591852485 50.93290577207881,210.45668923692574 50.81702022693935,210.5578403219588 50.6651702022682,210.56289786902926 50.4294030587007,210.43140142285483 50.03379378391037,210.0520821575301 49.91391218549688,209.4299902232451 49.40641341884475,209.045603036182 49.07474099654064,208.5904025669406 48.79102121361575,208.4032629870635 48.58322644301734,208.4487835117252 48.04775530341067,208.22118033365768 47.89990133201718,208.1958910060348 47.79999999999927,208.28187465010342 47.835964479520044,208.1958910060348 47.99181055747613,208.20094887292726 48.58322644301734,208.43866784435886 48.83098174642146,208.39314730737897 49.09072520966947,208.5802869379586 49.37844104587202,208.95456338615622 49.93389245189246,209.36929777248224 50.04178589046933,210.016678829561 50.4893438579129,210.46680435774033 50.741095214601955,210.5578403219588 50.96887025159958,210.42634385799101 53.49037987173506,210.85623442697397 53.89797730636565,210.5730129610929 54.097779970394186,210.5173799208169 63.26472619635024,208.98490996082546 63.52846571287955,209.05571853915535 64.35564874198462,209.71827801757172 64.50749876665577,209.74862397174002 64.97104094722454,209.63735535255546 65.35466206216006,209.8649499010171 65.5185002466751,209.69298970358068 65.8621608288122,209.5362017747575 66.10592007893138,208.7269632902353 66.42160828810665,208.37797378274263 66.64538727184117,208.24141178344144 67.20483473112836,208.26670108023245 67.46058214109144,208.75225225827307 68.17587567834926,209.0253720220171 68.64341391218477,208.85846573704112 69.07099161322185,208.5802869379586 69.37868771584544,208.50441963316916 72.13596447952295,208.14531229942804 72.36773556980916,208.02898101425308 72.82728169708571,207.94805468913546 73.51859891466302,208.06438622635687 73.61050814011105,208.01886523320354 74.20991613222213,208.1351965498834 74.74938332511374,208.44372567838582 75.14898865318901,208.57522912243803 75.98416378886031,209.11135375653248 77.07109028120976,210.10265828211777 78.30187469166412,211.766574594556 79.79240256537378,213.98164300350254 79.90828811051688,214.04738503610497" stroke="#4dd2ff" stroke-linecap="round" stroke-linejoin="round" stroke-width="0.5"><title>2022-08-26 16.9km</title></polyline><polyline fill="none" points="115.73340070742779,213.35500470885017 114.21081354219132,211.20528512340388 113.13845376453901,210.00864189079948 112.64320363820661,209.5683092029467 111.87781707933391,209.08134715235428 110.76043456291154,208.54257340535332 109.42203132894792,208.37679534124254 108.73441131885193,208.51149007305867 108.46018191005714,208.65654540772448 107.60065689741896,208.6876286221559 107.19954522487023,208.84822482775053 105.62784234462015,209.02436182642487 104.9484082870149,209.4284377590957 104.62915613946097,209.49578333294266 103.94562910561217,209.257483077683 103.63865588681074,208.7031702198983 103.05745325922908,208.68244808816598 102.55401718039502,209.17977615177733 102.25932289034972,210.00346153570354 101.94825669530474,210.15887188359193 101.75997978778105,210.34018315824142 101.45300656897234,210.12778986452759 100.77766548762884,210.2210358459888 99.93451237999761,209.53722670407296 99.64800404245398,209.43361819207348 90.13592723598049,211.0343383816944 89.77983830217636,211.28816811715296 89.50151591713802,211.3451500712181 86.99252147549123,210.93073392407314 86.8206164729636,211.05505923955207 86.51773623040935,210.93073392407314 86.06341586659983,210.50595271452403 85.95699848408913,209.87395243020364 85.44128347649166,209.4698812031893 85.13431025770842,209.05544474199633 84.77412834764255,208.811961227344 84.56129358261023,208.8689468696939 84.04148559879468,208.6410037910282 83.79999999999927,208.6410037910282 84.23794845880911,208.66172594521413 84.54901465386502,208.83268328893973 84.75775644265013,208.7860586345887 84.95831227892268,208.87930788644007 85.29393633147265,209.17459568444247 85.4494694290006,209.45952034637594 85.89151086406491,209.7340821038306 86.03067205660045,210.03972400667772 86.08797372410845,210.52149357361486 86.54638706417245,210.92555369383263 86.79196563920414,211.02397794855642 87.04163719050484,210.894472297623 87.72107124811009,211.06541966428267 89.57928246588926,211.3347897222484 90.24234461848391,210.99289663230593 99.62344618494535,209.43361819207348 99.88130368872953,209.4906029083977 100.74492167761491,210.16405221766036 101.47756442647733,210.12260952555152 101.6044466902531,210.28838002458724 101.74770085901764,210.34018315824142 101.98100050530411,210.12778986452759 102.27569479535669,209.99310082339434 102.55401718039502,209.12279097245118 103.01652349672077,208.6669064820053 103.6591207680649,208.68244808816598 103.89242041435136,209.20567847794882 104.00702374937828,209.19013708434795 104.34264780191734,209.38699427013125 104.69873673572874,209.45952034637594 104.9443153107677,209.39735514657878 105.69332996462617,208.97255691099053 109.45068216271466,208.3664341883814 110.0769075290591,208.4700455907041 110.23244062657977,208.42342049438594 110.8300151591684,208.54775395829347 112.09474482062069,209.20567847794882 112.71278423446347,209.6304741249587 113.7032844871137,210.50595271452403 114.94754926731184,212.18432902100903 116.20000000000073,214.03356581161643" stroke="#4dd2ff" stroke-linecap="round" stroke-linejoin="round" stroke-width="0.5"><title>2022-08-21 16.1km</title></polyline><polyline fill="none" points="152.1999999999971,214.47945014582 151.75937616968076,213.96276062035395 149.0347847785415,210.10015472367377 147.95545851528732,209.11269673410425 147.27633187773245,208.68291421207323 146.12019962570412,208.10986324449914 144.7457766687403,207.96148255950902 144.18792264504373,208.06893069995203 143.85240174672435,208.2121944118735 143.04796007485857,208.248010254978 142.52244541484106,208.41685591515852 141.20865876481184,208.57546781769634 140.1737991266382,209.06664884058046 139.45020586400278,208.87222378254592 139.2723393636843,208.69314718607347 139.08234560200435,208.28382606412197 138.52853399875312,208.25312680122806 138.03940112289638,208.71361312577574 137.8008983156542,209.30200415122454 137.7928134747308,209.51689250236086 137.26325639426796,209.895502338004 136.91156581410542,209.67038343350214 136.26073611977336,209.7522450085089 135.37948845913706,209.08199814465115 135.0763069245113,209.01548444861328 127.41996257018764,210.3150385356712 126.47403618216049,210.40713122388843 125.63725514660109,210.61178083854247 125.44726138490296,210.81131314566665 125.22492825951849,210.8880560601683 123.43817841546843,210.65271062845204 122.64586400499684,210.44294498645831 122.48820960698504,210.58108346699373 122.22949469744344,210.49922368763873 121.70802245790037,210.00806128728436 121.70398003742594,209.59875440989708 121.6271740486518,209.4094484795496 121.10974422957952,209.03595021371075 120.9480474111042,208.759661449556 120.43466001247725,208.3810402321178 120.49125389893743,208.26335989163636 120.38210854647332,208.17126197818652 120.38615096693684,208.07916384024793 120.53572052401796,208.16614542085517 120.59231441048541,208.0893969777644 120.54380536494136,208.17126197818652 120.38210854647332,208.06893069995203 120.49529631940095,208.29917568623205 120.28509045539613,208.43220548320824 119.79999999999927,208.23266061210597 120.24466625077912,208.42197243854753 120.53167810356172,208.39127328788163 120.95208983156408,208.7187296089578 121.12995633187893,209.01036800561633 121.59483468496182,209.296887747023 121.70398003742594,209.5015433749577 121.77674360573656,210.03364281990434 122.29821584529782,210.50433992904073 122.49225202744128,210.56573477187703 122.69841547098986,210.42759623521852 123.28052401746754,210.59131592693666 125.19258889581761,210.87270748972514 125.35024329383668,210.8317779380959 125.71810355583148,210.55038607051756 135.13694323143864,208.94897063549797 135.3431066749872,209.01036800561633 136.2162694947001,209.69596519475454 136.41030567686175,209.73177963138733 136.9398627573246,209.6550343684503 137.214747348713,209.8699207118516 137.72813474733994,209.56293984717195 138.01918902057878,208.68291421207323 138.46385527136226,208.26335989163636 138.6578914535312,208.2121944118735 139.09447286337672,208.2275440630874 139.40573923892225,208.759661449556 140.14145976293366,209.00525156192452 140.38804741110653,208.9438541834752 141.10355583280398,208.50895322996803 144.8872613849053,207.92054985418144 146.22126013723755,208.08428040934814 146.8518777292593,208.4680211177656 147.4178165938829,208.7187296089578 147.97971303805025,209.11781316324777" stroke="#4dd2ff" stroke-linecap="round" stroke-linejoin="round" stroke-width="0.5"><title>2022-08-19 15.6km</title></polyline><polyline fill="none" points="188.20000000000073,214.43917763299032 188.11582333291517,214.3072880686268 188.07173079302083,214.22105233326147 185.73081776567778,210.9287279040691 185.01732030186395,210.0459908210505 183.97513299517232,209.09727893018135 182.2635407645721,208.17391059850706 180.92072250402634,207.9811165365245 180.20722504020523,208.1181018931311 179.96271186440936,208.23479272776603 179.07284424099635,208.30074825611882 178.72010392180528,208.44280592285577 177.19289867622865,208.6203772488152 176.59965359395937,208.9653705618075 176.2469132747683,209.08713214910676 175.59354200172675,208.90448961975562 175.40915501669951,208.68633209837571 175.24080168254295,208.30582175350355 174.7156996164813,208.2753807589579 174.58743040949412,208.33118923005895 174.15051342323568,208.78780087098494 173.9100086601502,209.56402788925698 173.5933440554254,209.71115407321486 173.4089570703909,209.89379267026743 173.11233452926535,209.69086084081937 172.43090436719285,209.77203370449206 171.50496102932811,209.0668385786994 171.29251515526266,209.03639820248281 166.49043671904292,209.7872535968454 165.34803909439142,210.05613734245344 162.34172955585746,210.49750836405656 161.93687987132944,210.58882585731408 161.48793764691436,210.8982890405241 158.98267969812514,210.48228876019857 158.78626747494127,210.57360629055984 158.52972906098876,210.49750836405656 158.00061858221306,209.980038364949 157.98458493133512,209.55388123458397 157.88437461338253,209.34587420820753 157.39935667450118,209.02117800510678 157.28712111838468,208.79287430240947 157.03459111716074,208.57471613109374 156.7620190523303,208.4072915566794 156.55358159098978,208.44280592285577 155.9924038104691,208.20435167550022 155.80400841272058,208.2500132446221 155.83206730174425,208.4275854843363 156.13269825559473,208.71677275900947 156.19683285908468,208.66603831087195 156.0525300012414,208.46309983127503 155.92426079425422,208.49354067330933 155.79999999999927,208.3667036683837 155.86012619077155,208.19927816438576 156.55358159098978,208.44280592285577 156.80210317950332,208.39714458872913 156.97446492638846,208.50876108503508 157.28311270567065,208.78780087098494 157.39935667450118,209.00595780152798 157.9404923914335,209.37631433298156 158.0166522330801,210.00033144074405 158.52572064826745,210.49243516345814 158.7902758876735,210.5685331002751 158.97065445997578,210.46199594546852 159.50778176419772,210.59897223172447 161.46789558332603,210.8830695994693 161.997006062109,210.5533135252699 171.28449832982733,209.02117800510678 171.54504515650115,209.0668385786994 172.37478658914188,209.72637399031737 173.0802672275131,209.67564090929227 173.39292341952387,209.89379267026743 173.90199183472578,209.558954562257 174.16654707410635,208.71677275900947 174.7116912037527,208.26523375527904 175.2969194606012,208.2906012593303 175.52940739825135,208.77258057261497 176.05851787702704,209.0008843989781 176.3270815291362,209.03132480404747 176.54754422863334,208.9704439691668 177.180873438072,208.54934881942245 178.97664233576506,208.32104224151044 180.97283186935238,207.9608223670075 182.2875912408672,208.14854301547166 183.40994680193035,208.71677275900947 184.08336013856024,209.14801279435414 185.20571569961248,210.1931151124627 186.42026475318562,211.8976854718603" stroke="#4dd2ff" stroke-linecap="round" stroke-linejoin="round" stroke-width="0.5"><title>2022-08-14 16.5km</title></polyline><polyline fill="none" points="44.20000000000073,255.32866997132078 41.75081605105515,251.86680074327887 40.87610749785017,250.73961094395418 39.933807829183934,249.87406700040447 38.39511596515149,249.01353530493725 37.84245919745081,248.8424330607195 36.9478709044015,248.74681675757165 36.820640569399984,248.67133002867922 35.89424469260484,248.97327602424048 35.047367775183375,249.01353530493725 34.617965394529165,249.17457199162163 33.15084059394212,249.3356079804471 32.53456865873159,249.69290408887173 32.19661308135619,249.79355025985933 31.496846238798753,249.55199899155195 31.3338323720709,249.3456727065677 31.23840962081522,249.04372973685167 30.610209841695905,248.99843807979414 30.141047981349402,249.47651389823295 29.882611363358592,250.25651913564434 29.357786231437785,250.62387077024687 29.031758497982082,250.40245378138206 28.359823291197245,250.45277594014988 27.632224812867207,249.87406700040447 27.254509755792242,249.7432272084443 23.1950668793761,250.39742156176726 21.401914345326077,250.7597396330275 18.400073628668906,251.20256803436132 18.00645477973012,251.30824221397415 17.75994600564809,251.51455760339377 17.51741317953929,251.58500649845155 15.795827708931029,251.36359523575447 15.040397594802926,251.18747169845665 14.81774450852754,251.29314592098308 14.57521168241874,251.18747169845665 14.110025770027278,250.75470746177234 14.018578966744826,250.1609064708282 13.509657626698754,249.7583241310167 13.334715916069399,249.4614168611697 13.123990673702792,249.28528430889128 12.857602159776434,249.12424810199082 12.666756657265068,249.16953960571846 12.396392195365479,249.00347048886397 11.939158178916841,248.9430815350861 11.799999999999272,248.7115896365067 11.891446803292638,248.81727089954074 11.963013866738038,249.18966914520934 11.915302491110197,249.18966914520934 12.257234016455186,249.15947483187483 12.70254018898413,249.68787177317063 13.060375506203854,249.5872253159796 13.263148852624,249.73819489954622 13.947011903299426,250.0200031479726 14.046410602542892,250.1307129466186 14.094121978163457,250.65406389378404 14.543404098665633,251.16734324106073 14.841600196356012,251.26798541907192 15.052325438704429,251.14218265396994 15.76004417720469,251.3183064058685 17.529341023440793,251.56991031789585 17.684402994240372,251.53971793838355 18.07802184317552,251.24785700527354 21.922763529273652,250.61883858059446 23.127475763896655,250.3420671009335 27.36186035096398,249.72813027973825 27.564633697384124,249.7885179577861 28.35584734323129,250.42761486928066 29.063566081727913,250.37729267645045 29.15103693704441,250.5030980307638 29.32995459565427,250.5785810389316 29.858755675555585,250.2716158497169 30.137072033383447,249.41612571316364 30.657921217331022,248.96321119724962 31.21057798502443,248.99340567004037 31.492870290836436,249.49664327145 32.18866118542792,249.76838874266832 32.45902564732023,249.7029687182403 33.15084059394212,249.28025193798385 34.89230580439471,249.02863252395764 35.671591606333095,248.8424330607195 36.029426923560095,248.83740062985453 36.27991164560808,248.73171942407862 37.14666830286296,248.6864273867286 37.46474414038312,248.77701140620047 38.45873113265043,248.85249792042305 38.856325929562445,249.06385934448554 39.41295864522908,249.5117402941978 40.041158424348396,249.8891638698151 41.051049208497716,250.8503185989248 41.81443121856137,251.9120889047881" stroke="#4dd2ff" stroke-linecap="round" stroke-linejoin="round" stroke-width="0.5"><title>2022-08-12 16.3km</title></polyline><polyline fill="none" points="80.20000000000073,255.65094542181032 77.1950340798503,251.45365792280427 76.17366114897959,250.61015008898175 76.00014605647084,250.39552667202952 75.2824245374868,249.92135422740466 74.32414800389597,249.47712398175645 73.574878286272,249.28245960270579 73.21207400194908,249.2275540791452 72.06845180136588,249.47213260026547 71.11411879260413,249.5669687330228 70.79074975657568,249.74166623355268 69.36319376826214,249.8315103399691 68.68885102239074,250.2757363145247 68.420691333984,250.3356315419369 67.71480038948357,250.11601523222635 67.57677702045476,249.97126740356907 67.403261927946,249.5769514696476 66.85511197663072,249.5370205069339 66.38977604674074,250.0012152768286 66.15316455696302,250.5652290120961 66.13739045765033,250.77486023584788 65.77852969814921,250.98948144408132 65.64444985394584,251.14919874154293 65.52220058424064,251.12923411720112 65.30136319376106,250.93457846324964 64.64673807204963,251.00944614411856 63.61353456670986,250.270745041169 59.25199610515483,250.98449026739036 57.958519961051934,251.27397739864682 54.75243427457826,251.75811458940007 54.38174294061173,251.83298059762456 53.9085199610563,252.13244311001108 52.20886075949238,251.89786434843336 51.40438169424306,251.70820383278624 51.021859785782,251.2689862604566 50.61173320350281,249.85646699734207 50.18188899708548,249.39726179678473 49.48388510223231,249.16266562766396 48.38364167477994,249.0528541418389 48.09970788705323,248.95302523444116 47.94196689386081,248.80827283843246 47.79999999999927,248.34905457818968 47.97351509250075,248.8432131240006 48.10365141187867,248.9280679653384 48.722784810121084,249.09777706193927 49.259104186952754,249.1127513564752 49.819084712751646,249.23254549375633 50.31202531645613,249.4920981221876 50.789191820837004,250.14596298788092 51.13227848101087,251.31390647971057 51.44381694254844,251.723177066855 51.85000000000218,251.7830699423721 53.928237585198076,251.25900398207887 54.156962025317625,251.39376451206772 54.27132424537558,251.6383286599812 54.27526777019739,251.87790012957703 54.756377799410984,251.73815029485922 59.04298928919161,250.97949909003 63.574099318408116,250.26575376714027 63.78704965920406,250.31566647694126 64.66645569621323,250.99946379545509 65.34079844206644,250.93956964671452 65.56557935735327,251.85294484079714 66.05457643623231,251.76310566133907 66.12555988314853,251.6882395112043 66.08218111002861,251.44367569444876 66.25175267770464,251.3488443901624 66.25175267770464,251.14420758646884 66.41343719571523,250.79482505212582 66.38188899708257,250.4903604289757 66.27935735151186,250.31067520901343 66.31090555015544,250.11102393726105 66.40555014605707,249.92135422740466 66.84328140214711,249.5370205069339 67.43481012657867,249.54201187964645 67.66353456669822,250.03116312574275 68.27083739045702,250.28571885917336 68.68490749756893,250.26575376714027 68.75194741967789,250.39053541491376 69.06348588120818,250.20585842617584 69.35136319377852,249.8464843364236 69.77726387537405,249.75164892286193 72.23802336904191,249.40724457936813 72.90053554041151,249.24751973354068 74.33992210321958,249.40724457936813 76.10267770204518,250.37057037965133 77.13193768257042,251.30891534694092 79.8569133398305,255.17184996302603 80.01465433301564,255.27665262663504" stroke="#4dd2ff" stroke-linecap="round" stroke-linejoin="round" stroke-width="0.5"><title>2022-08-07 17.9km</title></polyline><polyline fill="none" points="116.20000000000073,259.9251756526646 113.05654885655895,255.56801468535195 112.1359667359684,254.75335480585272 111.45114345114052,254.30812569052068 110.52307692308023,253.86762747778994 109.64365904366423,253.67816417471477 109.44158004158817,253.65448118968197 108.03825363825672,253.96709530107546 107.58918918919153,253.98604152104235 107.15135135136006,254.13287437794133 105.86403326402797,254.2465510050788 105.2690228690335,254.61126102307026 104.8985446985389,254.72019964150968 104.25862785863137,254.52126799542748 103.95925155925215,253.98604152104235 103.43160083160183,253.9813049670156 102.97505197505234,254.3981192665742 102.7243243243247,255.1606871173135 102.23409563409587,255.482760470597 101.91226611226375,255.26962402457502 101.33970893970763,255.350142390158 100.52765072764669,254.75335480585272 100.23950103950483,254.68230798661898 96.71060291061076,255.23173296488312 95.37837837839106,255.5111785652698 91.92806652806394,256.0558542512954 91.5575883575948,256.13637080709304 91.14220374220531,256.41107295559414 89.75010395010395,256.24056842771097 88.72474012473685,256.00849148485577 88.5937629937689,256.11742575181415 88.36174636174474,256.0558542512954 87.89771309771822,255.63432337541963 87.8378378378402,255.15121432673186 87.74802494802861,254.98544007633245 87.28399168399483,254.66336214378316 87.17920997922556,254.44548421360014 86.99958419959148,254.274970104143 86.71891891891573,254.09024554749703 86.5392931392962,254.14234744429996 85.89563409563198,253.91499314321118 85.6972972973017,253.70658373560582 85.48399168399555,253.77763253680314 85.4690228690306,253.82499832408212 85.55135135136516,253.76815937164793 85.61496881497442,253.82026174824205 85.43908523908976,253.96709530107546 85.0910602910626,253.51711956015424 84.75426195426917,250.9829375409281 84.69438669439114,249.4433915094378 84.24158004157653,244.00943646462838 84.10311850312428,243.07131863516042 83.79999999999927,242.42694028887126 83.85613305613515,242.36060654951143 84.12182952183502,242.50748823173853 84.24158004157653,242.38429718516272 84.18918918919735,242.27058198762825 84.06569646570279,242.2137242501267 83.8261954262016,242.37008280570808 83.81496881496787,242.469583340564 84.07692307692923,242.88179682512055 84.16673596674082,243.2845294433173 84.88523908524076,251.2150478323092 85.17338877338989,253.5692223107144 85.40166320166827,253.93393939141606 85.55509355510367,254.05235321016517 85.83201663202271,254.12340130898156 85.83575883576123,254.18497621123242 86.02661122661084,254.1044551634186 86.16881496882343,254.12340130898156 86.5355509355577,254.60178808370983 86.86486486486683,254.5117950316744 87.16049896050026,254.71072673163508 87.13430353430522,254.49284909647758 86.92474012474486,254.26076055749218 86.99958419959148,254.2560240406674 87.20166320166754,254.44548421360014 87.30270270270557,254.64915275492604 87.77422037422366,254.9664943976968 87.84532224532813,255.09911393270522 87.89022869023393,255.57275102454514 88.30187110187035,256.0037552046888 88.58627858627733,256.10321695362654 88.78835758836067,255.98481007758164 89.34968814969397,256.13163454423557 91.15343035343176,256.38739182086283 91.58752598753563,256.10321695362654 100.30311850311409,254.63967982581744 100.54636174636471,254.7012538191957 101.32099792099689,255.32646053716599 101.9983367983441,255.28856953903596 102.20041580042016,256.1458433308835 102.76923076923049,256.01322776438974 103.43908523908613,255.97060122551557 104.49438669439405,255.7858856235216 104.53929313928893,255.30751504323416 104.38960498960296,254.95702155452454 104.40083160083668,254.71072673163508 105.14178794178588,254.63494336029908 105.80415800415722,254.2133953603261 106.4066528066578,254.17550315640256 109.16465696466548,253.69237395805249 110.51559251559593,253.84868119368184 111.81413721413264,254.52600447633085 112.28191268191222,254.83861079844428 112.99667359668092,255.487496821308 113.88731808730881,256.59578525626785 115.78461538461852,259.2858436136412 115.66860706860462,259.49895559145443 115.81081081080993,259.7357451553835 115.77338877339571,259.8162532420574 115.87068607069159,260.0719835825985 115.81455301454844,260.40348309387264 115.51517671518013,260.71603689913536 115.45530145530574,260.88178399627213 115.23076923076587,261.03805911154996 114.81538461538366,261.54950006318904 114.78544698545011,261.521086873101 114.78918918918862,261.69156566746824 114.88648648649178,261.7862757498733 114.7218295218263,261.56844217708567 114.58336798336677,261.6347394949771 114.70686070686861,261.61106189586644" stroke="#ff0000" stroke-linecap="round" stroke-linejoin="round" stroke-width="0.5"><title>2022-08-06 24.1km</title></polyline><polyline fill="none" points="151.79436619721673,256.0860330069845 150.27323943662486,253.76532000995212 145.0253521126724,246.6637286422265 142.80281690139964,244.65292113371106 141.15492957746028,243.61541000587022 139.12676056338387,242.62067004519486 137.85070422536955,242.2569985451555 136.64225352113135,242.12864349834126 134.22535211269133,242.68484719488333 132.07887323944306,242.9094668082398 131.50422535213147,243.14478190851514 128.8591549295743,243.35870411856013 126.5605633802843,244.52456998029083 124.8873239436507,244.00046727254085 124.22816901409533,242.86668216922408 123.00281690141128,242.84528984106146 122.06478873240121,243.74376263670274 121.49859154930164,245.50859015994502 120.39154929576762,246.25729295430938 119.89295774647326,245.91502970028523 119.80000000000291,245.63693971440807 120.00281690141128,245.58346075873123 120.07042253523105,245.28397793781187 120.58591549297125,244.79196798122575 121.40563380283129,244.41761052646325 121.50704225352092,243.5405375416085 121.49859154930164,244.3534347846362 121.34647887324536,244.503178101113 121.57464788732614,244.19299520193454 121.4732394366365,243.26243919575063 121.55774647888029,243.56192968150572 121.304225352098,243.48705716653058 121.6253521126855,243.57262574926426 121.60845070421783,243.84002697291726 121.69295774649072,243.35870411856013 121.32957746479224,241.6580065418966 121.03380281690625,241.7863623535959 121.38028169013705,243.45496892409574 120.97464788732759,243.71167449853965 120.6957746478729,243.6261060664183 120.81408450705203,242.855986005874 120.66197183099575,241.90402166441345 120.46760563379212,241.81845127391716 120.18028169013269,241.94680682488251 120.47605633804051,243.6368021255039 121.2873239436667,243.65819423932408 121.46478873238812,244.42830647835945 120.32394366197695,245.27328210177075 119.89295774647326,245.78668059771007 120.3408450704228,247.75467725382623 121.41408450705057,247.48728928210767 121.43098591548187,246.82416320654738 121.68450704227871,246.79207631974714 121.84507042253244,246.41772834408766 122.28450704225543,246.21451012865145 122.34366197184136,245.8829424442083 122.10704225352674,245.5406775681331 121.88732394365798,244.11812328514497 122.05633802816737,243.72237054601283 122.96056338028575,242.9094668082398 124.38873239439272,242.8345936747719 124.82816901407205,243.95768322451477 126.23943661973317,244.46039432538964 127.10985915493802,244.32134689416853 128.2591549295612,243.6368021255039 127.35492957746465,244.68500888950075 128.84225352112844,244.23577912252222 128.8000000000029,243.86141903166572 129.03661971831752,243.6368021255039 128.89295774647326,243.51914539591962 128.09014084507362,243.6261060664183 127.01690140844585,244.36413074520533 126.36619718309521,244.51387404143316 125.08169014085433,244.10742729127378 124.70140845071,243.66889029408048 124.34647887323081,242.855986005874 123.04507042252226,242.82389750704897 122.12394366195804,243.6474981831343 121.53239436617878,245.4871985472564 120.29014084506343,246.25729295430938 119.93521126759879,246.000595652833 119.89295774647326,245.78668059771007 120.36619718310249,245.23049874314893 121.38873239437089,244.55665778821276 121.60845070421783,244.07533930084173 121.71830985913402,243.42288066862238 121.43943661973026,243.50844932087784 121.67605633802305,243.6368021255039 121.38873239437089,243.2731353041163 120.99154929578071,243.2731353041163 121.43943661973026,243.294527516402 121.53239436617878,243.48705716653058 121.2112676056422,242.10725097022078 121.32112676058023,241.95750311136362 121.35492957745737,242.05376962467562 121.2873239436667,241.8719327788276 121.27042253522086,242.5671890472804 121.60845070421783,243.6368021255039 121.49859154930164,244.3427388226046 120.39154929576762,245.2198028998755 119.91830985915294,245.85085517504922 120.29014084506343,247.7332862494004 121.35492957745737,247.51937588651344 121.51549295773293,247.35894273420126 121.38873239437089,246.90972817425063 121.60845070421783,246.8027719501115 121.71830985913402,246.90972817425063 121.8112676056262,246.2038144186081 122.14929577463772,245.4871985472564 122.03943661970698,244.77057617449464 121.80281690140691,244.42830647835945 121.86197183097829,244.2250831445417 122.03943661970698,243.71167449853965 123.01971830985713,242.78111282169994 124.3633802816912,242.78111282169994 124.8873239436507,243.85072300301545 126.57746478874469,244.42830647835945 127.05915492957865,244.25717107411765 128.4619718309841,243.33731192366395 132.12957746478787,242.98433987075987 132.38309859154833,242.80250516725937 133.68450704225688,242.57788524974603 134.49577464786853,242.6741510068896 135.4929577464718,242.23560605185048 136.94647887323663,242.1607322795753 137.72394366197113,242.40674583621148 139.00845070423384,242.4281382831905 141.1971830985931,243.50844932087784 143.1577464788861,244.82405568053218 145.53239436619333,247.10224901277252 149.81690140845603,253.28405762840703 152.20000000000437,256.38547487992037 149.93521126760606,258.94137896679604 148.7436619718501,259.88244416460657 148.71830985915585,260.10701488484483 148.4225352112844,260.33158496681426 148.3887323943709,260.8448856146206 148.5323943662006,260.834191885122 148.36338028170576,261.0694535994626 148.32112676056568,260.4171353063575 148.4816901408558,260.4706042215257 148.32112676056568,260.7807232159903 148.10985915493075,260.7058670184415 148.253521126775,260.59892947032495 147.85633802818484,260.9518228298766 147.7887323943578,261.1550031401057 148.13521126762498,261.53997492671624 147.53521126761188,262.2136710401319 147.62816901410406,262.11742908989254 148.00000000001455,262.32060640291456 148.1605633802901,262.2992193419559 148.10140845071146,262.053267724601 148.21126760564948,262.25644520261994 148.2704225352427,262.16020330447645 147.47605633805506,262.3419934581034 147.81408450703748,262.10673553261586" stroke="#4dd2ff" stroke-linecap="round" stroke-linejoin="round" stroke-width="0.5"><title>2022-07-23 16.3km</title></polyline><polyline fill="none" points="188.20000000000437,258.7696045810517 186.6748648648645,256.6917968294947 186.30999999999767,256.3685766026756 185.67513513512677,255.306556503936 181.6397297297226,249.68219182764733 179.4140540540684,247.59487118523975 178.0348648648578,246.71743857149704 176.1375675675663,245.7845767812396 173.71486486486538,245.2673409831914 172.70054054055072,245.23039541894832 172.02918918918294,245.37817755584547 171.5694594594679,245.2765773711144 171.47459459461243,245.8954125133314 171.2118918918859,246.00624806532142 169.3218918919083,246.38493484233186 166.81162162162946,246.6804937927518 165.811891891899,247.33626064068085 165.27918918919022,247.47480212577648 163.9875675675721,246.9483429852844 163.48405405406083,246.0801383332655 162.44783783785533,246.05242949218518 161.4918918918993,246.8744536579179 161.02486486486305,248.31528110341605 160.36810810811585,248.66624728150055 160.2002702702739,248.8786733014349 159.41945945947373,248.58312387621118 158.2956756756903,248.72166282873513 156.62459459462116,247.4470938512677 155.8000000000029,247.4470938512677 156.66108108108892,247.42862166200212 158.22270270271838,248.66624728150055 159.55081081083335,248.62006762440433 159.86459459460457,249.66372024369048 159.9302702702771,250.26404416192963 159.79891891893203,250.3564012188508 159.9156756757002,250.5688219752774 162.3894594594749,250.08856540923443 162.54270270269626,249.86690739212645 170.13918918920535,248.69395506073488 169.59189189189055,248.01049322048493 168.65783783783263,247.31778842140193 168.71621621622762,247.17001048707607 169.05189189189696,247.16077435555053 169.08837837839383,246.42187978119182 169.37297297298937,246.18173732097057 171.7300000000032,245.77534046208166 172.3137837838076,245.80304941577197 172.64216216217028,245.59985016080464 173.61270270270325,245.45206850420072 176.18864864864008,245.7291588476437 177.98378378377674,246.6435489939904 179.57459459461825,247.6410515364696 181.52297297296172,249.4512966686234 186.55081081081153,256.46092539519304 186.41945945945918,256.71950134909275 186.2370270270403,256.76567552344204 186.39027027027623,256.9873111252964" stroke="#4dd2ff" stroke-linecap="round" stroke-linejoin="round" stroke-width="0.5"><title>2022-07-16 10.3km</title></polyline></svg>