<?xml version="1.0" encoding="utf-8" ?>
<svg baseProfile="full" height="200mm" version="1.1" viewBox="0,0,200,200" width="200mm" xmlns="http://www.w3.org/2000/svg" xmlns:ev="http://www.w3.org/2001/xml-events" xmlns:xlink="http://www.w3.org/1999/xlink"><defs /><rect fill="#1a1a1a" height="200" width="200" x="0" y="0" /><text alignment-baseline="middle" fill="#e1ed5e" style="dominant-baseline: central; font-size:9.0px; font-family:Arial;" text-anchor="middle" x="100.0" y="100.0">2023</text><line stroke="#e1ed5e" stroke-width="0.3" x1="100.0" x2="100.0" y1="15.0" y2="10.0" /><path d="M 100.0 14.0 a86.0,86.0 0 0,1 42.46469731375804,11.215312516191453" fill="none" id="id13" stroke="none" /><text fill="#e1ed5e" style="font-size:6.75px; font-family:Arial;" text-anchor="middle"><textPath startOffset="22.20632615414155" xlink:href="#id13">January</textPath></text><path d="M 100.36148047927253 79.00311137660856 l 0.2605656486331164 -15.135168334516152 a36.13741110531745,36.13741110531745 0 0,0 0.6218618022130913,0.016060855680139464 l -0.5210540860410755 15.128440686693652" fill="#ff1c02" stroke="none" /><path d="M 100.72285384407766 79.0124445844662 l 0.5125868844443034 -14.88260141478178 a35.891426062851366,35.891426062851366 0 0,0 0.6172627410104405,0.02658063207457657 l -0.7686904578440755 14.871573056183008" fill="#ff1802" stroke="none" /><path d="M 101.08401301168833 79.027996857942 l 0.9560150222517131 -18.49567286954498 a39.52036391705069,39.52036391705069 0 0,0 0.679068911663881,0.04096329120832347 l -1.274245982755206 18.47647630895635" fill="#ff5808" stroke="none" /><path d="M 101.44485096284872 79.0497635885617 l 0.9375124640355478 -13.593864187548935 a34.626154012403774,34.626154012403774 0 0,0 0.5942669338438502,0.0461265514247068 l -1.1713695872417391 13.575712373935763" fill="#ff0100" stroke="none" /><path d="M 101.80526077348638 79.07773832637324 l 1.4823116038098791 -17.179407934993115 a38.243239390778456,38.243239390778456 0 0,0 0.6553705197816078,0.06223532772169245 l -1.777807250681731 17.151347062756244" fill="#ff4206" stroke="none" /><path d="M 102.88285421437855 79.19881850522331 l 2.199819444389477 -15.872756690316464 a37.024469118753984,37.024469118753984 0 0,0 0.6305285066679874,0.09292351159858114 l -2.4727169314861204 15.832538694556915" fill="#ff2c04" stroke="none" /><path d="M 103.59715602781102 79.31037775812273 l 2.482159680716893 -14.276541173361933 a35.49071235499743,35.49071235499743 0 0,0 0.6009843080462209,0.10982604090042404 l -2.7275391098660147 14.23169965111077" fill="#ff1101" stroke="none" /><path d="M 104.307194497241 79.44645832069477 l 3.4482931585999372 -16.454942353577483 a37.812372038686426,37.812372038686426 0 0,0 0.6358911572607528,0.1389811774458915 l -3.731027040014218 16.39314767803572" fill="#ff3a05" stroke="none" /><path d="M 104.66035177308747 79.52364482259891 l 5.095840663949435 -22.389778377897883 a43.96235545155906,43.96235545155906 0 0,0 0.73642453872345,0.17428789539326003 l -5.480488889635408 22.298744570363755" fill="#ffa30f" stroke="none" /><path d="M 105.71112130821622 79.79150937346287 l 4.029704267022207 -14.258888318600553 a35.81736861126092,35.81736861126092 0 0,0 0.591856061119686,0.1727790140026432 l -4.27455054586532 14.187410975679207" fill="#ff1602" stroke="none" /><path d="M 106.0581310904928 79.89281104454417 l 4.325431827031386 -14.35628806325285 a35.99374427704409,35.99374427704409 0 0,0 0.5916936673974044,0.1838421026775617 l -4.571910867139509 14.279705825692767" fill="#ff1a02" stroke="none" /><path d="M 106.40334571778207 80.00007090966166 l 4.258889914500941 -13.302029914929989 a34.96718093108019,34.96718093108019 0 0,0 0.5716587557808195,0.18846690394011525 l -4.487231492524177 13.226749286730637" fill="#ff0701" stroke="none" /><path d="M 108.09893153111575 80.62456947434976 l 5.731613986912662 -13.711992523533821 a35.86170036908362,35.86170036908362 0 0,0 0.567496452662073,0.24297236459857982 l -5.96679419736505 13.61130063097245" fill="#ff1702" stroke="none" /><path d="M 108.43124777332544 80.76684994638697 l 6.137000930493795 -13.999571943405872 a36.28564015733324,36.28564015733324 0 0,0 0.5698882365127799,0.25569223987991685 l -6.377071285473356 13.891859373009424" fill="#ff1f03" stroke="none" /><path d="M 109.08828744355905 81.06846463323043 l 5.879207285078059 -12.246798017475284 a34.584886454503454,34.584886454503454 0 0,0 0.5344661610318135,0.26226022405725813 l -6.089144713120304 12.143782633283193" fill="#ff0000" stroke="none" /><path d="M 109.41281617654863 81.2277094730956 l 11.8262843241613 -23.585549852768267 a47.384449260375334,47.384449260375334 0 0,0 0.725973790519453,0.37187197247906717 l -12.230518602269509 23.3784853549767" fill="#ffda14" stroke="none" /><path d="M 109.73455568895987 81.39251694778311 l 11.548796278607105 -22.075381547347085 a45.91379469181123,45.91379469181123 0 0,0 0.6971352795317212,0.37238552300220434 l -11.927076604667137 21.87331729784313" fill="#ffc312" stroke="none" /><path d="M 110.05341064243156 81.56283822128135 l 10.930295454720074 -20.04529932730629 a43.831675011894774,43.831675011894774 0 0,0 0.6593033462800371,0.3669015983922533 l -11.273722890072147 19.854182331353854" fill="#ffa10e" stroke="none" /><path d="M 110.36928655335952 81.73862282372117 l 14.39967354485256 -25.359302056576063 a50.16238671636788,50.16238671636788 0 0,0 0.7471884986770325,0.43281980611421256 l -14.83405877599492 25.1076780930718" fill="#f9ff18" stroke="none" /><line stroke="#e1ed5e" stroke-width="0.3" x1="143.23703022742887" x2="145.7803849466894" y1="26.81831364943548" y2="22.513508569990506" /><path d="M 143.74570117128098 25.957352633546492 a86.0,86.0 0 0,1 28.547481713284135,27.462654790039103" fill="none" id="id14" stroke="none" /><text fill="#e1ed5e" style="font-size:6.75px; font-family:Arial;" text-anchor="middle"><textPath startOffset="19.985693538727396" xlink:href="#id14">February</textPath></text><path d="M 110.68208982089419 81.91981866633111 l 12.917198255002427 -21.86325809736031 a46.394016330443456,46.394016330443456 0 0,0 0.6840641598296997,0.41214100225126815 l -13.291624481049764 21.63767048565043" fill="#ffca12" stroke="none" /><path d="M 110.99172775467656 82.1063720568725 l 11.462963002862613 -18.660760134983423 a42.900307980034974,42.900307980034974 0 0,0 0.6258967963054322,0.3919365164265792 l -11.782478951540309 18.4606792772339" fill="#ff910d" stroke="none" /><path d="M 111.2981086023043 82.29822771554956 l 14.393185596509058 -22.551110353574668 a47.75287591633203,47.75287591633203 0 0,0 0.689080762680015,0.4481972960755051 l -14.779233384973354 22.300014133339634" fill="#ffe015" stroke="none" /><path d="M 111.60114157652 82.49532879139004 l 12.917451784001361 -19.49081862682034 a44.38274088586722,44.38274088586722 0 0,0 0.6331838485131742,0.4275285609878909 l -13.251040326921078 19.265578153533777" fill="#ffaa0f" stroke="none" /><path d="M 111.90073688211348 82.69761687909136 l 33.4481593701065 -48.63000281777633 a80.02250875136517,80.02250875136517 0 0,0 1.1281987130320954,0.7903752969089879 l -34.280289222722246 48.04704267810341" fill="#47fffd" stroke="none" /><path d="M 112.19680574252982 82.90503203632743 l 8.475529534129631 -11.879250102006987 a35.59284701043414,35.59284701043414 0 0,0 0.4956807053573578,0.360133112753813 l -8.678755555840777 11.7315977544365" fill="#ff1202" stroke="none" /><path d="M 112.77801427241765 83.33499621200491 l 13.907452434559628 -18.13800975348625 a43.85617271191966,43.85617271191966 0 0,0 0.5951229275334506,0.46450288462331696 l -14.21760791725251 17.89592847963971" fill="#ffa10e" stroke="none" /><path d="M 113.06298171725822 83.55741782278167 l 13.086255857506732 -16.47187770651809 a42.037415419832755,42.037415419832755 0 0,0 0.5626940289356019,0.45499277198584964 l -13.367853285006825 16.244178837268112" fill="#ff830c" stroke="none" /><path d="M 113.6212207817346 84.01681056812373 l 40.86366234520383 -47.94956829562881 a84.0,84.0 0 0,0 1.0924248054129433,0.947340026321315 l -41.68298094926353 47.23906327588782" fill="#4dd2ff" stroke="none" /><path d="M 113.89432698308785 84.25364557470407 l 9.482042500954298 -10.745939841309543 a35.33123696904588,35.33123696904588 0 0,0 0.45255783520550946,0.4063108928300678 l -9.665611323755797 10.581129939710177" fill="#ff0e01" stroke="none" /><path d="M 114.16331599549186 84.49514656593476 l 15.454740857740504 -16.918600978541868 a43.91480032754009,43.91480032754009 0 0,0 0.5537282338788617,0.5146300459074044 l -15.743676975414212 16.65006634655982" fill="#ffa20f" stroke="none" /><path d="M 114.68862486808459 84.99185889309783 l 17.76813206972119 -18.154635692811663 a46.40270289527801,46.40270289527801 0 0,0 0.5660338693924932,0.5636031400723505 l -18.078001739281007 17.846096702089195" fill="#ffca12" stroke="none" /><line stroke="#e1ed5e" stroke-width="0.3" x1="172.23445277983987" x2="176.4835382374775" y1="55.19839476539836" y2="52.563006222186495" /><path d="M 173.08426987136738 54.67131705675599 a86.0,86.0 0 0,1 12.851231095245387,41.99856678651699" fill="none" id="id15" stroke="none" /><text fill="#e1ed5e" style="font-size:6.75px; font-family:Arial;" text-anchor="middle"><textPath startOffset="22.20632615414155" xlink:href="#id15">March</textPath></text><line stroke="#e1ed5e" stroke-width="0.3" x1="184.98032266829074" x2="189.97916517819016" y1="98.17113171792111" y2="98.06355123074" /><path d="M 185.9800911702706 98.14961562048488 a86.0,86.0 0 0,1 -9.607161424134198,41.387399972396054" fill="none" id="id16" stroke="none" /><text fill="#e1ed5e" style="font-size:6.75px; font-family:Arial;" text-anchor="middle"><textPath startOffset="21.466115282336823" xlink:href="#id16">April</textPath></text><line stroke="#e1ed5e" stroke-width="0.3" x1="174.80103733775053" x2="179.2010983576182" y1="140.37084112569926" y2="142.7455964860345" /><path d="M 175.68104954172406 140.8457921977663 a86.0,86.0 0 0,1 -30.038265399797805,32.042727171017184" fill="none" id="id17" stroke="none" /><text fill="#e1ed5e" style="font-size:6.75px; font-family:Arial;" text-anchor="middle"><textPath startOffset="22.206326154141568" xlink:href="#id17">May</textPath></text><line stroke="#e1ed5e" stroke-width="0.3" x1="143.8653032363475" x2="146.44561519142675" y1="172.8068346515853" y2="177.08958963109032" /><path d="M 144.38136562736335 173.6633856474863 a86.0,86.0 0 0,1 -40.68145358897372,12.25698825130547" fill="none" id="id18" stroke="none" /><text fill="#e1ed5e" style="font-size:6.75px; font-family:Arial;" text-anchor="middle"><textPath startOffset="21.466115282336833" xlink:href="#id18">June</textPath></text><line stroke="#e1ed5e" stroke-width="0.3" x1="102.19456741930631" x2="102.32365962044197" y1="184.97166512339345" y2="189.96999836594603" /><path d="M 102.22038585953345 185.97133177190398 a86.0,86.0 0 0,1 -42.740103519485714,-10.115201625700543" fill="none" id="id19" stroke="none" /><text fill="#e1ed5e" style="font-size:6.75px; font-family:Arial;" text-anchor="middle"><textPath startOffset="22.20632615414155" xlink:href="#id19">July</textPath></text><line stroke="#e1ed5e" stroke-width="0.3" x1="58.666819895761336" x2="56.23545636021788" y1="174.27360380694188" y2="178.64263932499728" /><path d="M 58.180547188652646 175.14741091055294 a86.0,86.0 0 0,1 -31.652253787137756,-30.449443065178592" fill="none" id="id20" stroke="none" /><text fill="#e1ed5e" style="font-size:6.75px; font-family:Arial;" text-anchor="middle"><textPath startOffset="22.20632615414155" xlink:href="#id20">August</textPath></text><line stroke="#e1ed5e" stroke-width="0.3" x1="26.63291911575756" x2="22.317208475507996" y1="142.92168965132927" y2="145.44649492493687" /><path d="M 25.769776987707644 143.4266507060508 a86.0,86.0 0 0,1 -11.730757126820373,-40.83630448921669" fill="none" id="id21" stroke="none" /><text fill="#e1ed5e" style="font-size:6.75px; font-family:Arial;" text-anchor="middle"><textPath startOffset="21.46611528233685" xlink:href="#id21">September</textPath></text><line stroke="#e1ed5e" stroke-width="0.3" x1="15.007084014347285" x2="10.007500721073583" y1="101.09737516637583" y2="101.16192664675087" /><path d="M 14.007167355692545 101.11028546245083 a86.0,86.0 0 0,1 10.666146001902534,-42.60595125391555" fill="none" id="id22" stroke="none" /><text fill="#e1ed5e" style="font-size:6.75px; font-family:Arial;" text-anchor="middle"><textPath startOffset="22.20632615414155" xlink:href="#id22">October</textPath></text><line stroke="#e1ed5e" stroke-width="0.3" x1="26.266209847984243" x2="21.928928074336255" y1="57.711370442889674" y2="55.22380399835377" /><path d="M 25.398753493254645 57.213857153982495 a86.0,86.0 0 0,1 29.58750427330803,-30.492523968695096" fill="none" id="id23" stroke="none" /><text fill="#e1ed5e" style="font-size:6.75px; font-family:Arial;" text-anchor="middle"><textPath startOffset="21.46611528233685" xlink:href="#id23">November</textPath></text><line stroke="#e1ed5e" stroke-width="0.3" x1="56.762969772571076" x2="54.21961505331055" y1="26.818313649435495" y2="22.513508569990535" /><path d="M 56.25429882871897 25.957352633546506 a86.0,86.0 0 0,1 42.265352541879196,-11.944610805530505" fill="none" id="id24" stroke="none" /><text fill="#e1ed5e" style="font-size:6.75px; font-family:Arial;" text-anchor="middle"><textPath startOffset="22.20632615414155" xlink:href="#id24">December</textPath></text></svg>