<?xml version="1.0" encoding="utf-8" ?>
<svg baseProfile="full" height="200mm" version="1.1" viewBox="0,0,200,200" width="200mm" xmlns="http://www.w3.org/2000/svg" xmlns:ev="http://www.w3.org/2001/xml-events" xmlns:xlink="http://www.w3.org/1999/xlink"><defs /><rect fill="#1a1a1a" height="200" width="200" x="0" y="0" /><text alignment-baseline="middle" fill="#e1ed5e" style="dominant-baseline: central; font-size:9.0px; font-family:Arial;" text-anchor="middle" x="100.0" y="100.0">2023</text><line stroke="#e1ed5e" stroke-width="0.3" x1="100.0" x2="100.0" y1="15.0" y2="10.0" /><path d="M 100.0 14.0 a86.0,86.0 0 0,1 42.46469731375804,11.215312516191453" fill="none" id="id13" stroke="none" /><text fill="#e1ed5e" style="font-size:6.75px; font-family:Arial;" text-anchor="middle"><textPath startOffset="22.20632615414155" xlink:href="#id13">January</textPath></text><path d="M 100.36148047927253 79.00311137660856 l 0.562904402288609 -32.69676156304933 a53.701606658955086,53.701606658955086 0 0,0 0.9241109663708711,0.023867059868441492 l -1.125642003854348 32.68222771103852" fill="#ff5808" stroke="none" /><path d="M 100.72285384407766 79.0124445844662 l 1.1073501642396828 -32.15113695083833 a53.17020098814745,53.17020098814745 0 0,0 0.9144240728843465,0.039377024120533274 l -1.6606150695133608 32.1273122001936" fill="#ff4a06" stroke="none" /><path d="M 101.08401301168833 79.027996857942 l 2.065295511908613 -39.95651666354628 a61.0098571534036,61.0098571534036 0 0,0 1.0483177074201002,0.0632373869430602 l -2.752775268168325 39.91504600722292" fill="#f8ff18" stroke="none" /><path d="M 101.44485096284872 79.0497635885617 l 2.0253241207136607 -29.367056000766446 a50.436812258566604,50.436812258566604 0 0,0 0.8656153312036733,0.06718840947538282 l -2.530529641279675 29.327842329102598" fill="#ff0200" stroke="none" /><path d="M 101.80526077348638 79.07773832637324 l 3.2022629679897956 -37.112967139178146 a58.25086331871888,58.25086331871888 0 0,0 0.9982391444622625,0.09479483502085698 l -3.8406272395423025 37.05234675964211" fill="#ffc712" stroke="none" /><path d="M 102.88285421437855 79.19881850522331 l 4.752307358943014 -34.29018623255139 a55.617933171940244,55.617933171940244 0 0,0 0.9471761022253274,0.13958913608227938 l -5.3418524415969975 34.20330261230814" fill="#ff880c" stroke="none" /><path d="M 103.59715602781102 79.31037775812273 l 5.362251773356932 -30.841854703784797 a52.30453234996878,52.30453234996878 0 0,0 0.885702232956193,0.16185642180654505 l -5.892349127416026 30.74498280062751" fill="#ff3404" stroke="none" /><path d="M 104.307194497241 79.44645832069477 l 7.4494063570546185 -35.547891822363695 a57.32005325005729,57.32005325005729 0 0,0 0.9639520884364262,0.21068259044430232 l -8.060201169644571 35.41439573382352" fill="#ffb110" stroke="none" /><path d="M 104.66035177308747 79.52364482259891 l 11.008631253374965 -48.36901902188507 a70.60596701216764,70.60596701216764 0 0,0 1.1827384168564772,0.27991597052428263 l -11.839593357193966 48.172357139219926" fill="#37ff2e" stroke="none" /><path d="M 105.71112130821622 79.79150937346287 l 8.705438662875608 -30.80371894141446 a53.01021341595125,53.01021341595125 0 0,0 0.8759553626620907,0.2557153906386678 l -9.234384243261125 30.649305221857087" fill="#ff4606" stroke="none" /><path d="M 106.0581310904928 79.89281104454417 l 9.344303940322927 -31.014133266304093 a53.39124076643568,53.39124076643568 0 0,0 0.877687489604638,0.2727017753839409 l -9.876776802638283 30.84869135603763" fill="#ff5007" stroke="none" /><path d="M 106.40334571778207 80.00007090966166 l 9.200552314977896 -28.73660145828297 a51.173538510967454,51.173538510967454 0 0,0 0.8366073722597289,0.275816297168236 l -9.693842509480044 28.573971436855494" fill="#ff1602" stroke="none" /><path d="M 108.09893153111575 80.62456947434976 l 12.382103175829188 -29.622250654051477 a53.105984066343964,53.105984066343964 0 0,0 0.8403800506559438,0.3598068800457109 l -12.890166984275448 29.404724246042978" fill="#ff4906" stroke="none" /><path d="M 108.43124777332544 80.76684994638697 l 13.257867484628957 -30.243513365781812 a54.021828401016876,54.021828401016876 0 0,0 0.8484459523702148,0.38067296722262584 l -13.776495555465951 30.010820068042655" fill="#ff6008" stroke="none" /><path d="M 109.08828744355905 81.06846463323043 l 12.700951488035445 -26.45696604345139 a50.347661251380316,50.347661251380316 0 0,0 0.7780601292808776,0.38179072636008493 l -13.154482884326754 26.234420156956475" fill="#ff0000" stroke="none" /><path d="M 109.41281617654863 81.2277094730956 l 25.548523159936934 -50.95226447602179 a77.99877446830156,77.99877446830156 0 0,0 1.1950136983859985,0.6121324308971708 l -26.42179734591169 50.50493951981212" fill="#3fffc0" stroke="none" /><path d="M 109.73455568895987 81.39251694778311 l 24.949061015773598 -47.689822201770795 a74.82169439180919,74.82169439180919 0 0,0 1.1360603754272973,0.6068441082909287 l -25.766266437729204 47.25329936697811" fill="#38ff81" stroke="none" /><path d="M 110.05341064243156 81.56283822128135 l 23.612903166834133 -43.30420105537858 a70.32365583582524,70.32365583582524 0 0,0 1.0577880403298092,0.5886578992007273 l -24.354815296235977 42.89132775861767" fill="#3cff2e" stroke="none" /><path d="M 110.36928655335952 81.73862282372117 l 31.107859660078564 -54.7841315288365 a84.0,84.0 0 0,0 1.2512130701386868,0.7247833704398019 l -32.04626946268258 54.24054400100664" fill="#4dd2ff" stroke="none" /><line stroke="#e1ed5e" stroke-width="0.3" x1="143.23703022742887" x2="145.7803849466894" y1="26.81831364943548" y2="22.513508569990506" /><path d="M 143.74570117128098 25.957352633546492 a86.0,86.0 0 0,1 28.547481713284135,27.462654790039103" fill="none" id="id14" stroke="none" /><text fill="#e1ed5e" style="font-size:6.75px; font-family:Arial;" text-anchor="middle"><textPath startOffset="19.985693538727396" xlink:href="#id14">February</textPath></text><path d="M 110.68208982089419 81.91981866633111 l 27.90524307835213 -47.231568305094136 a75.85912536507206,75.85912536507206 0 0,0 1.1185172779322914,0.6738941447789621 l -28.714122422502058 46.74422755085656" fill="#3aff96" stroke="none" /><path d="M 110.99172775467656 82.1063720568725 l 24.763633930381168 -40.31315749077955 a68.31160779675872,68.31160779675872 0 0,0 0.9966365856944975,0.6240937385302783 l -25.453889668447932 39.880919410926325" fill="#61ff29" stroke="none" /><path d="M 111.2981086023043 82.29822771554956 l 31.093843634928906 -48.71754723277848 a78.79469283914753,78.79469283914753 0 0,0 1.1370185773076646,0.7395485109102625 l -31.92782923802085 48.17509979770869" fill="#41ffcf" stroke="none" /><path d="M 111.60114157652 82.49532879139004 l 27.9057907813604 -42.10634696783887 a71.51413281557046,71.51413281557046 0 0,0 1.0202523083396184,0.6888789128990795 l -28.62644778410656 41.619756142641116" fill="#30ff3a" stroke="none" /><line stroke="#e1ed5e" stroke-width="0.3" x1="172.23445277983987" x2="176.4835382374775" y1="55.19839476539836" y2="52.563006222186495" /><path d="M 173.08426987136738 54.67131705675599 a86.0,86.0 0 0,1 12.851231095245387,41.99856678651699" fill="none" id="id15" stroke="none" /><text fill="#e1ed5e" style="font-size:6.75px; font-family:Arial;" text-anchor="middle"><textPath startOffset="22.20632615414155" xlink:href="#id15">March</textPath></text><line stroke="#e1ed5e" stroke-width="0.3" x1="184.98032266829074" x2="189.97916517819016" y1="98.17113171792111" y2="98.06355123074" /><path d="M 185.9800911702706 98.14961562048488 a86.0,86.0 0 0,1 -9.607161424134198,41.387399972396054" fill="none" id="id16" stroke="none" /><text fill="#e1ed5e" style="font-size:6.75px; font-family:Arial;" text-anchor="middle"><textPath startOffset="21.466115282336823" xlink:href="#id16">April</textPath></text><line stroke="#e1ed5e" stroke-width="0.3" x1="174.80103733775053" x2="179.2010983576182" y1="140.37084112569926" y2="142.7455964860345" /><path d="M 175.68104954172406 140.8457921977663 a86.0,86.0 0 0,1 -30.038265399797805,32.042727171017184" fill="none" id="id17" stroke="none" /><text fill="#e1ed5e" style="font-size:6.75px; font-family:Arial;" text-anchor="middle"><textPath startOffset="22.206326154141568" xlink:href="#id17">May</textPath></text><line stroke="#e1ed5e" stroke-width="0.3" x1="143.8653032363475" x2="146.44561519142675" y1="172.8068346515853" y2="177.08958963109032" /><path d="M 144.38136562736335 173.6633856474863 a86.0,86.0 0 0,1 -40.68145358897372,12.25698825130547" fill="none" id="id18" stroke="none" /><text fill="#e1ed5e" style="font-size:6.75px; font-family:Arial;" text-anchor="middle"><textPath startOffset="21.466115282336833" xlink:href="#id18">June</textPath></text><line stroke="#e1ed5e" stroke-width="0.3" x1="102.19456741930631" x2="102.32365962044197" y1="184.97166512339345" y2="189.96999836594603" /><path d="M 102.22038585953345 185.97133177190398 a86.0,86.0 0 0,1 -42.740103519485714,-10.115201625700543" fill="none" id="id19" stroke="none" /><text fill="#e1ed5e" style="font-size:6.75px; font-family:Arial;" text-anchor="middle"><textPath startOffset="22.20632615414155" xlink:href="#id19">July</textPath></text><line stroke="#e1ed5e" stroke-width="0.3" x1="58.666819895761336" x2="56.23545636021788" y1="174.27360380694188" y2="178.64263932499728" /><path d="M 58.180547188652646 175.14741091055294 a86.0,86.0 0 0,1 -31.652253787137756,-30.449443065178592" fill="none" id="id20" stroke="none" /><text fill="#e1ed5e" style="font-size:6.75px; font-family:Arial;" text-anchor="middle"><textPath startOffset="22.20632615414155" xlink:href="#id20">August</textPath></text><line stroke="#e1ed5e" stroke-width="0.3" x1="26.63291911575756" x2="22.317208475507996" y1="142.92168965132927" y2="145.44649492493687" /><path d="M 25.769776987707644 143.4266507060508 a86.0,86.0 0 0,1 -11.730757126820373,-40.83630448921669" fill="none" id="id21" stroke="none" /><text fill="#e1ed5e" style="font-size:6.75px; font-family:Arial;" text-anchor="middle"><textPath startOffset="21.46611528233685" xlink:href="#id21">September</textPath></text><line stroke="#e1ed5e" stroke-width="0.3" x1="15.007084014347285" x2="10.007500721073583" y1="101.09737516637583" y2="101.16192664675087" /><path d="M 14.007167355692545 101.11028546245083 a86.0,86.0 0 0,1 10.666146001902534,-42.60595125391555" fill="none" id="id22" stroke="none" /><text fill="#e1ed5e" style="font-size:6.75px; font-family:Arial;" text-anchor="middle"><textPath startOffset="22.20632615414155" xlink:href="#id22">October</textPath></text><line stroke="#e1ed5e" stroke-width="0.3" x1="26.266209847984243" x2="21.928928074336255" y1="57.711370442889674" y2="55.22380399835377" /><path d="M 25.398753493254645 57.213857153982495 a86.0,86.0 0 0,1 29.58750427330803,-30.492523968695096" fill="none" id="id23" stroke="none" /><text fill="#e1ed5e" style="font-size:6.75px; font-family:Arial;" text-anchor="middle"><textPath startOffset="21.46611528233685" xlink:href="#id23">November</textPath></text><line stroke="#e1ed5e" stroke-width="0.3" x1="56.762969772571076" x2="54.21961505331055" y1="26.818313649435495" y2="22.513508569990535" /><path d="M 56.25429882871897 25.957352633546506 a86.0,86.0 0 0,1 42.265352541879196,-11.944610805530505" fill="none" id="id24" stroke="none" /><text fill="#e1ed5e" style="font-size:6.75px; font-family:Arial;" text-anchor="middle"><textPath startOffset="22.20632615414155" xlink:href="#id24">December</textPath></text></svg>