<?xml version="1.0" encoding="utf-8" ?>
<svg baseProfile="full" height="200mm" version="1.1" viewBox="0,0,200,200" width="200mm" xmlns="http://www.w3.org/2000/svg" xmlns:ev="http://www.w3.org/2001/xml-events" xmlns:xlink="http://www.w3.org/1999/xlink"><defs /><rect fill="#1a1a1a" height="200" width="200" x="0" y="0" /><text alignment-baseline="middle" fill="#e1ed5e" style="dominant-baseline: central; font-size:9.0px; font-family:Arial;" text-anchor="middle" x="100.0" y="100.0">2023</text><line stroke="#e1ed5e" stroke-width="0.3" x1="100.0" x2="100.0" y1="15.0" y2="10.0" /><path d="M 100.0 14.0 a86.0,86.0 0 0,1 42.46469731375804,11.215312516191453" fill="none" id="id13" stroke="none" /><text fill="#e1ed5e" style="font-size:6.75px; font-family:Arial;" text-anchor="middle"><textPath startOffset="22.20632615414155" xlink:href="#id13">January</textPath></text><path d="M 100.36148047927253 79.00311137660856 l 0.2285803663100699 -13.27727710930725 a34.27924457268548,34.27924457268548 0 0,0 0.589885997819496,0.015235014990464937 l -0.45709299932443376 13.271375302174425" fill="#ff1802" stroke="none" /><path d="M 100.72285384407766 79.0124445844662 l 0.44966517431079756 -13.055713601862807 a34.06345499563012,34.06345499563012 0 0,0 0.5858251929602495,0.02522686512489636 l -0.6743311996603786 13.046039010213716" fill="#ff1402" stroke="none" /><path d="M 101.08401301168833 79.027996857942 l 0.8386610634616585 -16.22526876374483 a37.24692890472289,37.24692890472289 0 0,0 0.6400050244284212,0.03860685085143185 l -1.1178281367296916 16.20842864351309" fill="#ff4b07" stroke="none" /><path d="M 101.44485096284872 79.0497635885617 l 0.8224297545500239 -11.925173068129276 a32.95349921177916,32.95349921177916 0 0,0 0.5655602100364555,0.043898357162960144 l -1.0275801539488205 11.909249448777851" fill="#ff0100" stroke="none" /><path d="M 101.80526077348638 79.07773832637324 l 1.3003530248977968 -15.070579638454172 a36.12657557507152,36.12657557507152 0 0,0 0.6190974663687405,0.058790764229015795 l -1.5595756183567817 15.045963329709977" fill="#ff3805" stroke="none" /><path d="M 102.88285421437855 79.19881850522331 l 1.9297844403218607 -13.924324091284022 a35.057413324834016,35.057413324834016 0 0,0 0.5970294509949723,0.08798662158416654 l -2.169182871745489 13.889042985538886" fill="#ff2603" stroke="none" /><path d="M 103.59715602781102 79.31037775812273 l 2.177466492742604 -12.524049229692338 a33.71193020098734,33.71193020098734 0 0,0 0.5708631836433125,0.10432159794517441 l -2.392724797488817 12.484712150396424" fill="#ff0e01" stroke="none" /><path d="M 104.307194497241 79.44645832069477 l 3.025003938439735 -14.435044567550824 a35.74859859426496,35.74859859426496 0 0,0 0.6011846521371255,0.13139567968886628 l -3.2730313147303884 14.380835389766085" fill="#ff3104" stroke="none" /><path d="M 104.66035177308747 79.52364482259891 l 4.470309619605286 -19.641360133496615 a41.14365150584287,41.14365150584287 0 0,0 0.6892077157916295,0.16311319891966305 l -4.807741022359439 19.561501022436083" fill="#ff8b0c" stroke="none" /><path d="M 105.71112130821622 79.79150937346287 l 3.5350449389978387 -12.508563320367974 a33.998488337510224,33.998488337510224 0 0,0 0.561800382653906,0.1640049372775122 l -3.749835539375172 12.445860054171758" fill="#ff1302" stroke="none" /><path d="M 106.0581310904928 79.89281104454417 l 3.7944709775009455 -12.594006929024458 a34.15321331566599,34.15321331566599 0 0,0 0.5614375621666176,0.17444138350318267 l -4.010693912378281 12.526825410638754" fill="#ff1602" stroke="none" /><path d="M 106.40334571778207 80.00007090966166 l 3.7360973015349357 -11.66916240330446 a33.25266396508249,33.25266396508249 0 0,0 0.5436290831149231,0.17922596155556125 l -3.936409206892276 11.603122717489663" fill="#ff0601" stroke="none" /><path d="M 108.09893153111575 80.62456947434976 l 5.028039695750996 -12.028800765996088 a34.03737822762214,34.03737822762214 0 0,0 0.5386273155844348,0.23061210672071925 l -5.234350769125746 11.940469131312579" fill="#ff1402" stroke="none" /><path d="M 108.43124777332544 80.76684994638697 l 5.383664071209516 -12.2810788751115 a34.40927802561876,34.40927802561876 0 0,0 0.5404188182617691,0.2424701709236118 l -5.594265007938065 12.186588373671357" fill="#ff1a02" stroke="none" /><path d="M 109.08828744355905 81.06846463323043 l 5.15751543569038 -10.743463659331157 a32.91729738106563,32.91729738106563 0 0,0 0.5086956577389552,0.24961475001151956 l -5.3416823604397665 10.653093749184805" fill="#ff0000" stroke="none" /><path d="M 109.41281617654863 81.2277094730956 l 10.374569391954218 -20.690346763863463 a44.14567215004543,44.14567215004543 0 0,0 0.6763527158391557,0.34645413073482195 l -10.729182595382127 20.50870010781614" fill="#ffbb11" stroke="none" /><path d="M 109.73455568895987 81.39251694778311 l 10.131143908080277 -19.365556538237545 a42.85554522133701,42.85554522133701 0 0,0 0.6507001370263462,0.34758147802665645 l -10.462989091634935 19.188296333709133" fill="#ffa70f" stroke="none" /><path d="M 110.05341064243156 81.56283822128135 l 9.58856607547334 -17.58467352495185 a41.02901251591952,41.02901251591952 0 0,0 0.6171465096638549,0.34344136445758644 l -9.88983667420923 17.417016762934082" fill="#ff8a0c" stroke="none" /><path d="M 110.36928655335952 81.73862282372117 l 12.632066701402836 -22.24636510556191 a46.58260873247005,46.58260873247005 0 0,0 0.6938662962764649,0.40193214477378797 l -13.013129730144628 22.02562880339807" fill="#ffe115" stroke="none" /><line stroke="#e1ed5e" stroke-width="0.3" x1="143.23703022742887" x2="145.7803849466894" y1="26.81831364943548" y2="22.513508569990506" /><path d="M 143.74570117128098 25.957352633546492 a86.0,86.0 0 0,1 28.547481713284135,27.462654790039103" fill="none" id="id14" stroke="none" /><text fill="#e1ed5e" style="font-size:6.75px; font-family:Arial;" text-anchor="middle"><textPath startOffset="19.985693538727396" xlink:href="#id14">February</textPath></text><path d="M 110.68208982089419 81.91981866633111 l 11.331570083459534 -19.179471932859634 a43.276818089208916,43.276818089208916 0 0,0 0.6381021206579913,0.3844493879230802 l -11.660034270335162 18.981575935477938" fill="#ffae10" stroke="none" /><path d="M 110.99172775467656 82.1063720568725 l 10.055846946588266 -16.370091029477095 a40.211973821723134,40.211973821723134 0 0,0 0.5866751725849474,0.3673759392510103 l -10.336141271545477 16.194570748903143" fill="#ff7c0b" stroke="none" /><path d="M 111.2981086023043 82.29822771554956 l 12.62637516985699 -19.782888083520646 a44.468873233606345,44.468873233606345 0 0,0 0.6416921388572164,0.41737441694082755 l -12.965034334498487 19.56261474242029" fill="#ffc011" stroke="none" /><path d="M 111.60114157652 82.49532879139004 l 11.33179249094782 -17.098257137013466 a41.512433258424835,41.512433258424835 0 0,0 0.592234767999325,0.3998795590321832 l -11.624431953353687 16.90066566568261" fill="#ff910d" stroke="none" /><path d="M 111.90073688211348 82.69761687909136 l 29.342288829414123 -42.660511529662465 a72.77730349990452,72.77730349990452 0 0,0 1.0260520624472145,0.7188150404118798 l -30.07227203144499 42.149111646486645" fill="#3cffa5" stroke="none" /><path d="M 112.19680574252982 82.90503203632743 l 7.4351306695495945 -10.421033448000657 a33.801527494702555,33.801527494702555 0 0,0 0.47073404905818805,0.34200830602093346 l -7.613410034961571 10.291505907163048" fill="#ff1001" stroke="none" /><path d="M 112.77801427241765 83.33499621200491 l 12.200267336112253 -15.911509960490529 a41.05050304344998,41.05050304344998 0 0,0 0.5570503315100938,0.43478661952957554 l -12.472350222781778 15.699144951737729" fill="#ff8a0c" stroke="none" /><path d="M 113.06298171725822 83.55741782278167 l 11.479875314447007 -14.44990105074061 a39.455004134690526,39.455004134690526 0 0,0 0.5281270272326408,0.427041993915891 l -11.726905740244138 14.250152959560591" fill="#ff700a" stroke="none" /><path d="M 113.6212207817346 84.01681056812373 l 35.84751465374304 -42.06360256204375 a76.26654473863817,76.26654473863817 0 0,0 0.9918507773288612,0.860123220239729 l -36.56625922971866 41.44031434838435" fill="#41ffd2" stroke="none" /><path d="M 113.89432698308785 84.25364557470407 l 8.318090890359668 -9.42684071426108 a33.57203093825078,33.57203093825078 0 0,0 0.4300241641179498,0.3860799404388275 l -8.47912604207361 9.282261765052956" fill="#ff0c01" stroke="none" /><path d="M 114.16331599549186 84.49514656593476 l 13.55762106410119 -14.841787585646854 a41.101933928237386,41.101933928237386 0 0,0 0.5182603840467792,0.4816665449143979 l -13.811089331942815 14.606216454657815" fill="#ff8b0c" stroke="none" /><path d="M 114.68862486808459 84.99185889309783 l 15.587035967512348 -15.926095011594496 a43.284438349908186,43.284438349908186 0 0,0 0.5279963578624328,0.5257289737050815 l -15.858868125542102 15.655430187239295" fill="#ffae10" stroke="none" /><path d="M 114.94478906791727 85.2469230424477 l 12.453723332824739 -12.293966673082867 a38.49962403623048,38.49962403623048 0 0,0 0.46151100971018855,0.47562766346940993 l -12.663498606238036 12.077774814063343" fill="#ff6008" stroke="none" /><path d="M 115.19652480421416 85.50635884689758 l 13.576975724963308 -12.949000948389958 a39.76195340036978,39.76195340036978 0 0,0 0.4681168677551942,0.4993544360165301 l -13.797859914688965 12.713377095495375" fill="#ff750a" stroke="none" /><path d="M 115.4437574822437 85.77008943001954 l 46.331272446731084 -42.689731709941405 a84.0,84.0 0 0,0 0.9706254375358574,1.0717888509218039 l -47.05924152488298 41.88589007175005" fill="#4dd2ff" stroke="none" /><path d="M 116.15771136456269 86.58626213691792 l 12.790620746862285 -10.618461360858282 a37.62382930500985,37.62382930500985 0 0,0 0.4093857966692642,0.501858580395043 l -12.971505035607958 10.396718610855139" fill="#ff5107" stroke="none" /><path d="M 116.38621287248628 86.86637796730983 l 14.162999975854515 -11.351707071021936 a39.15080774352327,39.15080774352327 0 0,0 0.41694849491853403,0.5294822467639473 l -14.356302551367012 11.10623243030495" fill="#ff6b09" stroke="none" /><path d="M 116.60985879189232 87.15038557335679 l 16.977354403511605 -13.13391406891929 a42.46462814288174,42.46462814288174 0 0,0 0.44228742210878375,0.5819984031462895 l -17.2009177658445 12.839730889891968" fill="#ffa10e" stroke="none" /><line stroke="#e1ed5e" stroke-width="0.3" x1="172.23445277983987" x2="176.4835382374775" y1="55.19839476539836" y2="52.563006222186495" /><path d="M 173.08426987136738 54.67131705675599 a86.0,86.0 0 0,1 12.851231095245387,41.99856678651699" fill="none" id="id15" stroke="none" /><text fill="#e1ed5e" style="font-size:6.75px; font-family:Arial;" text-anchor="middle"><textPath startOffset="22.20632615414155" xlink:href="#id15">March</textPath></text><line stroke="#e1ed5e" stroke-width="0.3" x1="184.98032266829074" x2="189.97916517819016" y1="98.17113171792111" y2="98.06355123074" /><path d="M 185.9800911702706 98.14961562048488 a86.0,86.0 0 0,1 -9.607161424134198,41.387399972396054" fill="none" id="id16" stroke="none" /><text fill="#e1ed5e" style="font-size:6.75px; font-family:Arial;" text-anchor="middle"><textPath startOffset="21.466115282336823" xlink:href="#id16">April</textPath></text><line stroke="#e1ed5e" stroke-width="0.3" x1="174.80103733775053" x2="179.2010983576182" y1="140.37084112569926" y2="142.7455964860345" /><path d="M 175.68104954172406 140.8457921977663 a86.0,86.0 0 0,1 -30.038265399797805,32.042727171017184" fill="none" id="id17" stroke="none" /><text fill="#e1ed5e" style="font-size:6.75px; font-family:Arial;" text-anchor="middle"><textPath startOffset="22.206326154141568" xlink:href="#id17">May</textPath></text><line stroke="#e1ed5e" stroke-width="0.3" x1="143.8653032363475" x2="146.44561519142675" y1="172.8068346515853" y2="177.08958963109032" /><path d="M 144.38136562736335 173.6633856474863 a86.0,86.0 0 0,1 -40.68145358897372,12.25698825130547" fill="none" id="id18" stroke="none" /><text fill="#e1ed5e" style="font-size:6.75px; font-family:Arial;" text-anchor="middle"><textPath startOffset="21.466115282336833" xlink:href="#id18">June</textPath></text><line stroke="#e1ed5e" stroke-width="0.3" x1="102.19456741930631" x2="102.32365962044197" y1="184.97166512339345" y2="189.96999836594603" /><path d="M 102.22038585953345 185.97133177190398 a86.0,86.0 0 0,1 -42.740103519485714,-10.115201625700543" fill="none" id="id19" stroke="none" /><text fill="#e1ed5e" style="font-size:6.75px; font-family:Arial;" text-anchor="middle"><textPath startOffset="22.20632615414155" xlink:href="#id19">July</textPath></text><line stroke="#e1ed5e" stroke-width="0.3" x1="58.666819895761336" x2="56.23545636021788" y1="174.27360380694188" y2="178.64263932499728" /><path d="M 58.180547188652646 175.14741091055294 a86.0,86.0 0 0,1 -31.652253787137756,-30.449443065178592" fill="none" id="id20" stroke="none" /><text fill="#e1ed5e" style="font-size:6.75px; font-family:Arial;" text-anchor="middle"><textPath startOffset="22.20632615414155" xlink:href="#id20">August</textPath></text><line stroke="#e1ed5e" stroke-width="0.3" x1="26.63291911575756" x2="22.317208475507996" y1="142.92168965132927" y2="145.44649492493687" /><path d="M 25.769776987707644 143.4266507060508 a86.0,86.0 0 0,1 -11.730757126820373,-40.83630448921669" fill="none" id="id21" stroke="none" /><text fill="#e1ed5e" style="font-size:6.75px; font-family:Arial;" text-anchor="middle"><textPath startOffset="21.46611528233685" xlink:href="#id21">September</textPath></text><line stroke="#e1ed5e" stroke-width="0.3" x1="15.007084014347285" x2="10.007500721073583" y1="101.09737516637583" y2="101.16192664675087" /><path d="M 14.007167355692545 101.11028546245083 a86.0,86.0 0 0,1 10.666146001902534,-42.60595125391555" fill="none" id="id22" stroke="none" /><text fill="#e1ed5e" style="font-size:6.75px; font-family:Arial;" text-anchor="middle"><textPath startOffset="22.20632615414155" xlink:href="#id22">October</textPath></text><line stroke="#e1ed5e" stroke-width="0.3" x1="26.266209847984243" x2="21.928928074336255" y1="57.711370442889674" y2="55.22380399835377" /><path d="M 25.398753493254645 57.213857153982495 a86.0,86.0 0 0,1 29.58750427330803,-30.492523968695096" fill="none" id="id23" stroke="none" /><text fill="#e1ed5e" style="font-size:6.75px; font-family:Arial;" text-anchor="middle"><textPath startOffset="21.46611528233685" xlink:href="#id23">November</textPath></text><line stroke="#e1ed5e" stroke-width="0.3" x1="56.762969772571076" x2="54.21961505331055" y1="26.818313649435495" y2="22.513508569990535" /><path d="M 56.25429882871897 25.957352633546506 a86.0,86.0 0 0,1 42.265352541879196,-11.944610805530505" fill="none" id="id24" stroke="none" /><text fill="#e1ed5e" style="font-size:6.75px; font-family:Arial;" text-anchor="middle"><textPath startOffset="22.20632615414155" xlink:href="#id24">December</textPath></text></svg>