<?xml version="1.0" encoding="utf-8" ?>
<svg baseProfile="full" height="200mm" version="1.1" viewBox="0,0,200,200" width="200mm" xmlns="http://www.w3.org/2000/svg" xmlns:ev="http://www.w3.org/2001/xml-events" xmlns:xlink="http://www.w3.org/1999/xlink"><defs /><rect fill="#1a1a1a" height="200" width="200" x="0" y="0" /><text alignment-baseline="middle" fill="#e1ed5e" style="dominant-baseline: central; font-size:9.0px; font-family:Arial;" text-anchor="middle" x="100.0" y="100.0">2023</text><line stroke="#e1ed5e" stroke-width="0.3" x1="100.0" x2="100.0" y1="15.0" y2="10.0" /><path d="M 100.0 14.0 a86.0,86.0 0 0,1 42.46469731375804,11.215312516191453" fill="none" id="id13" stroke="none" /><text fill="#e1ed5e" style="font-size:6.75px; font-family:Arial;" text-anchor="middle"><textPath startOffset="22.20632615414155" xlink:href="#id13">January</textPath></text><path d="M 100.36148047927253 79.00311137660856 l 0.27812501046063476 -16.1551181955217 a37.15751210529393,37.15751210529393 0 0,0 0.6394159608227381,0.016514227807214097 l -0.5561676064782406 16.147937175572125" fill="#ff1f03" stroke="none" /><path d="M 100.72285384407766 79.0124445844662 l 0.5471298052752492 -15.88553094347359 a36.8949502792515,36.8949502792515 0 0,0 0.6345214062805463,0.0273238265056741 l -0.8204920439451271 15.873759390443722" fill="#ff1a02" stroke="none" /><path d="M 101.08401301168833 79.027996857942 l 1.020440297710403 -19.74208510332734 a40.76844006562507,40.76844006562507 0 0,0 0.7005143040612014,0.042256935842556145 l -1.3601166506112163 19.72159489810448" fill="#ff6008" stroke="none" /><path d="M 101.44485096284872 79.0497635885617 l 1.000690863261102 -14.50994649216389 a35.54441230883096,35.54441230883096 0 0,0 0.6100264242596493,0.04734979119069811 l -1.2503074768830924 14.490571438784727" fill="#ff0100" stroke="none" /><path d="M 101.80526077348638 79.07773832637324 l 1.5822036883151374 -18.337117869113513 a39.40525088818623,39.40525088818623 0 0,0 0.6752837931125267,0.06412633296888355 l -1.8976126085179081 18.30716599162945" fill="#ff4706" stroke="none" /><path d="M 102.88285421437855 79.19881850522331 l 2.3480639493036053 -16.94241218553436 a38.104348422976024,38.104348422976024 0 0,0 0.6489189036481265,0.09563377806395812 l -2.639351833380388 16.899483923309432" fill="#ff3004" stroke="none" /><path d="M 103.59715602781102 79.31037775812273 l 2.6494309237837577 -15.238628668101114 a36.4672327164291,36.4672327164291 0 0,0 0.6175202797065763,0.11284788402608309 l -2.9113463245932345 15.190765302724293" fill="#ff1202" stroke="none" /><path d="M 104.307194497241 79.44645832069477 l 3.680671553744678 -17.56383098933259 a38.94534764523622,38.94534764523622 0 0,0 0.6549444229183542,0.1431454833417147 l -3.9824587008165597 17.497872007895005" fill="#ff3f05" stroke="none" /><path d="M 104.66035177308747 79.52364482259891 l 5.43924629129542 -23.89861203205703 a45.50977472920043,45.50977472920043 0 0,0 0.7623457505430593,0.18042260875019658 l -5.849815728801003 23.801443511165967" fill="#ffb010" stroke="none" /><path d="M 105.71112130821622 79.79150937346287 l 4.301263605920972 -15.21978619810967 a36.81590214068707,36.81590214068707 0 0,0 0.6083561041026397,0.17759582901033721 l -4.562609927747038 15.14349204018063" fill="#ff1802" stroke="none" /><path d="M 106.0581310904928 79.89281104454417 l 4.616920067747452 -15.323749652779886 a37.00416365615651,37.00416365615651 0 0,0 0.6083037411767455,0.18900293345449912 l -4.880009181634915 15.242006584442867" fill="#ff1c02" stroke="none" /><path d="M 106.40334571778207 80.00007090966166 l 4.545893935885152 -14.198445684015525 a35.90842082577013,35.90842082577013 0 0,0 0.5870465569350001,0.1935400200476668 l -4.7896233150625696 14.118091939708622" fill="#ff0801" stroke="none" /><path d="M 108.09893153111575 80.62456947434976 l 6.117863994846641 -14.636035425428272 a36.86322138891821,36.86322138891821 0 0,0 0.5833451051289988,0.24975793047749661 l -6.368892857765956 14.528557966987986" fill="#ff1902" stroke="none" /><path d="M 108.43124777332544 80.76684994638697 l 6.550569719931915 -14.942994648870636 a37.315730223678784,37.315730223678784 0 0,0 0.586066432868518,0.262950925001632 l -6.806818271267214 14.828023393352472" fill="#ff2203" stroke="none" /><path d="M 109.08828744355905 81.06846463323043 l 6.275403516312761 -13.072102345752919 a35.50036375510592,35.50036375510592 0 0,0 0.5486137176244436,0.269202368635098 l -6.499488500947637 12.96214481698299" fill="#ff0000" stroke="none" /><path d="M 109.41281617654863 81.2277094730956 l 12.62325048839828 -25.174965825051164 a49.162481374789074,49.162481374789074 0 0,0 0.7532148945929297,0.38582592403572447 l -13.054725870579967 24.95394737570294" fill="#ffeb16" stroke="none" /><path d="M 109.73455568895987 81.39251694778311 l 12.327062690899583 -23.563028188812783 a47.592720282290685,47.592720282290685 0 0,0 0.7226273624381381,0.3860025108440736 l -12.730835099866033 23.347346951466957" fill="#ffd213" stroke="none" /><path d="M 110.05341064243156 81.56283822128135 l 11.666881469714511 -21.396139952981702 a45.37028781356403,45.37028781356403 0 0,0 0.682446713913023,0.3797808574232175 l -12.033452272699568 21.192143697998304" fill="#ffae10" stroke="none" /><path d="M 110.36928655335952 81.73862282372117 l 15.370058855804379 -27.068250119533253 a52.12762235964229,52.12762235964229 0 0,0 0.7764614572814057,0.4497765931766038 l -15.833717045551113 26.799669368966597" fill="#e5ff1a" stroke="none" /><line stroke="#e1ed5e" stroke-width="0.3" x1="143.23703022742887" x2="145.7803849466894" y1="26.81831364943548" y2="22.513508569990506" /><path d="M 143.74570117128098 25.957352633546492 a86.0,86.0 0 0,1 28.547481713284135,27.462654790039103" fill="none" id="id14" stroke="none" /><text fill="#e1ed5e" style="font-size:6.75px; font-family:Arial;" text-anchor="middle"><textPath startOffset="19.985693538727396" xlink:href="#id14">February</textPath></text><path d="M 110.68208982089419 81.91981866633111 l 13.787680450745505 -23.336609867533653 a48.10530376736883,48.10530376736883 0 0,0 0.7092965172619515,0.4273432152774256 l -14.187339034225094 23.095820042797612" fill="#ffdb14" stroke="none" /><path d="M 110.99172775467656 82.1063720568725 l 12.235445162497289 -19.918297499964606 a44.37615651944465,44.37615651944465 0 0,0 0.647428783280408,0.4054198446949608 l -12.57649309814996 19.7047333139467" fill="#ff9e0e" stroke="none" /><path d="M 111.2981086023043 82.29822771554956 l 15.363133688537047 -24.07081607222166 a49.55573608076995,49.55573608076995 0 0,0 0.7150962901907132,0.46511851883744054 l -15.77519700451204 23.802798629224693" fill="#fff216" stroke="none" /><path d="M 111.60114157652 82.49532879139004 l 13.787951064910692 -20.804293132681863 a45.95848968425224,45.95848968425224 0 0,0 0.6556641791222545,0.4427073805651754 l -14.144019938439488 20.563873839818015" fill="#ffb811" stroke="none" /><path d="M 111.90073688211348 82.69761687909136 l 35.70221064634041 -51.90714936272591 a84.0,84.0 0 0,0 1.1842754416653962,0.8296606289442576 l -36.590417227589455 51.28490389101772" fill="#4dd2ff" stroke="none" /><path d="M 112.19680574252982 82.90503203632743 l 9.04669035502183 -12.679785598051698 a36.57625016466429,36.57625016466429 0 0,0 0.509375984327218,0.37008331535831385 l -9.263611655702837 12.522183047876709" fill="#ff1402" stroke="none" /><line stroke="#e1ed5e" stroke-width="0.3" x1="172.23445277983987" x2="176.4835382374775" y1="55.19839476539836" y2="52.563006222186495" /><path d="M 173.08426987136738 54.67131705675599 a86.0,86.0 0 0,1 12.851231095245387,41.99856678651699" fill="none" id="id15" stroke="none" /><text fill="#e1ed5e" style="font-size:6.75px; font-family:Arial;" text-anchor="middle"><textPath startOffset="22.20632615414155" xlink:href="#id15">March</textPath></text><line stroke="#e1ed5e" stroke-width="0.3" x1="184.98032266829074" x2="189.97916517819016" y1="98.17113171792111" y2="98.06355123074" /><path d="M 185.9800911702706 98.14961562048488 a86.0,86.0 0 0,1 -9.607161424134198,41.387399972396054" fill="none" id="id16" stroke="none" /><text fill="#e1ed5e" style="font-size:6.75px; font-family:Arial;" text-anchor="middle"><textPath startOffset="21.466115282336823" xlink:href="#id16">April</textPath></text><line stroke="#e1ed5e" stroke-width="0.3" x1="174.80103733775053" x2="179.2010983576182" y1="140.37084112569926" y2="142.7455964860345" /><path d="M 175.68104954172406 140.8457921977663 a86.0,86.0 0 0,1 -30.038265399797805,32.042727171017184" fill="none" id="id17" stroke="none" /><text fill="#e1ed5e" style="font-size:6.75px; font-family:Arial;" text-anchor="middle"><textPath startOffset="22.206326154141568" xlink:href="#id17">May</textPath></text><line stroke="#e1ed5e" stroke-width="0.3" x1="143.8653032363475" x2="146.44561519142675" y1="172.8068346515853" y2="177.08958963109032" /><path d="M 144.38136562736335 173.6633856474863 a86.0,86.0 0 0,1 -40.68145358897372,12.25698825130547" fill="none" id="id18" stroke="none" /><text fill="#e1ed5e" style="font-size:6.75px; font-family:Arial;" text-anchor="middle"><textPath startOffset="21.466115282336833" xlink:href="#id18">June</textPath></text><line stroke="#e1ed5e" stroke-width="0.3" x1="102.19456741930631" x2="102.32365962044197" y1="184.97166512339345" y2="189.96999836594603" /><path d="M 102.22038585953345 185.97133177190398 a86.0,86.0 0 0,1 -42.740103519485714,-10.115201625700543" fill="none" id="id19" stroke="none" /><text fill="#e1ed5e" style="font-size:6.75px; font-family:Arial;" text-anchor="middle"><textPath startOffset="22.20632615414155" xlink:href="#id19">July</textPath></text><line stroke="#e1ed5e" stroke-width="0.3" x1="58.666819895761336" x2="56.23545636021788" y1="174.27360380694188" y2="178.64263932499728" /><path d="M 58.180547188652646 175.14741091055294 a86.0,86.0 0 0,1 -31.652253787137756,-30.449443065178592" fill="none" id="id20" stroke="none" /><text fill="#e1ed5e" style="font-size:6.75px; font-family:Arial;" text-anchor="middle"><textPath startOffset="22.20632615414155" xlink:href="#id20">August</textPath></text><line stroke="#e1ed5e" stroke-width="0.3" x1="26.63291911575756" x2="22.317208475507996" y1="142.92168965132927" y2="145.44649492493687" /><path d="M 25.769776987707644 143.4266507060508 a86.0,86.0 0 0,1 -11.730757126820373,-40.83630448921669" fill="none" id="id21" stroke="none" /><text fill="#e1ed5e" style="font-size:6.75px; font-family:Arial;" text-anchor="middle"><textPath startOffset="21.46611528233685" xlink:href="#id21">September</textPath></text><line stroke="#e1ed5e" stroke-width="0.3" x1="15.007084014347285" x2="10.007500721073583" y1="101.09737516637583" y2="101.16192664675087" /><path d="M 14.007167355692545 101.11028546245083 a86.0,86.0 0 0,1 10.666146001902534,-42.60595125391555" fill="none" id="id22" stroke="none" /><text fill="#e1ed5e" style="font-size:6.75px; font-family:Arial;" text-anchor="middle"><textPath startOffset="22.20632615414155" xlink:href="#id22">October</textPath></text><line stroke="#e1ed5e" stroke-width="0.3" x1="26.266209847984243" x2="21.928928074336255" y1="57.711370442889674" y2="55.22380399835377" /><path d="M 25.398753493254645 57.213857153982495 a86.0,86.0 0 0,1 29.58750427330803,-30.492523968695096" fill="none" id="id23" stroke="none" /><text fill="#e1ed5e" style="font-size:6.75px; font-family:Arial;" text-anchor="middle"><textPath startOffset="21.46611528233685" xlink:href="#id23">November</textPath></text><line stroke="#e1ed5e" stroke-width="0.3" x1="56.762969772571076" x2="54.21961505331055" y1="26.818313649435495" y2="22.513508569990535" /><path d="M 56.25429882871897 25.957352633546506 a86.0,86.0 0 0,1 42.265352541879196,-11.944610805530505" fill="none" id="id24" stroke="none" /><text fill="#e1ed5e" style="font-size:6.75px; font-family:Arial;" text-anchor="middle"><textPath startOffset="22.20632615414155" xlink:href="#id24">December</textPath></text></svg>