<?xml version="1.0" encoding="utf-8" ?>
<svg baseProfile="full" height="200mm" version="1.1" viewBox="0,0,200,200" width="200mm" xmlns="http://www.w3.org/2000/svg" xmlns:ev="http://www.w3.org/2001/xml-events" xmlns:xlink="http://www.w3.org/1999/xlink"><defs /><rect fill="#1a1a1a" height="200" width="200" x="0" y="0" /><text alignment-baseline="middle" fill="#e1ed5e" style="dominant-baseline: central; font-size:9.0px; font-family:Arial;" text-anchor="middle" x="100.0" y="100.0">2022</text><line stroke="#e1ed5e" stroke-width="0.3" x1="100.0" x2="100.0" y1="15.0" y2="10.0" /><path d="M 100.0 14.0 a86.0,86.0 0 0,1 42.46469731375804,11.215312516191453" fill="none" id="id1" stroke="none" /><text fill="#e1ed5e" style="font-size:6.75px; font-family:Arial;" text-anchor="middle"><textPath startOffset="22.20632615414155" xlink:href="#id1">January</textPath></text><line stroke="#e1ed5e" stroke-width="0.3" x1="143.23703022742887" x2="145.7803849466894" y1="26.81831364943548" y2="22.513508569990506" /><path d="M 143.74570117128098 25.957352633546492 a86.0,86.0 0 0,1 28.547481713284135,27.462654790039103" fill="none" id="id2" stroke="none" /><text fill="#e1ed5e" style="font-size:6.75px; font-family:Arial;" text-anchor="middle"><textPath startOffset="19.985693538727396" xlink:href="#id2">February</textPath></text><line stroke="#e1ed5e" stroke-width="0.3" x1="172.23445277983987" x2="176.4835382374775" y1="55.19839476539836" y2="52.563006222186495" /><path d="M 173.08426987136738 54.67131705675599 a86.0,86.0 0 0,1 12.851231095245387,41.99856678651699" fill="none" id="id3" stroke="none" /><text fill="#e1ed5e" style="font-size:6.75px; font-family:Arial;" text-anchor="middle"><textPath startOffset="22.20632615414155" xlink:href="#id3">March</textPath></text><path d="M 120.91429891909075 98.10471618934814 l 4.212588063605378 -0.38175078154824726 a25.229850098152795,25.229850098152795 0 0,0 0.03547258796689202,0.4328554219666029 l -4.2185351353917655 0.30918144237387557" fill="#ff0000" stroke="none" /><path d="M 120.94382443527127 98.46500227214037 l 23.987038610545277 -1.7580385033814576 a45.05137668997685,45.05137668997685 0 0,0 0.050027213278462455,0.7738988468491068 l -24.013746414828155 1.3448805922793154" fill="#e9ff1a" stroke="none" /><path d="M 120.98425023603335 99.18683210126433 l 11.036214455698772 -0.4276681424398218 a32.044497704840744,32.044497704840744 0 0,0 0.016614775334556502,0.5513635062633363 l -11.041940925488973 0.2376344887514865" fill="#ff6609" stroke="none" /><line stroke="#e1ed5e" stroke-width="0.3" x1="184.98032266829074" x2="189.97916517819016" y1="98.17113171792111" y2="98.06355123074" /><path d="M 185.9800911702706 98.14961562048488 a86.0,86.0 0 0,1 -9.607161424134198,41.387399972396054" fill="none" id="id4" stroke="none" /><text fill="#e1ed5e" style="font-size:6.75px; font-family:Arial;" text-anchor="middle"><textPath startOffset="21.466115282336823" xlink:href="#id4">April</textPath></text><path d="M 120.99513854157772 99.54816195383933 l 10.065293160460543 -0.21661597453383907 a31.06762379543639,31.06762379543639 0 0,0 0.0069043990058472665,0.5347533119175356 l -10.067530566584106 0.04332640455584078" fill="#ff5808" stroke="none" /><path d="M 120.99980553446 99.90962569577887 l 8.192134208574528 -0.035255489769709394 a29.192210070600968,29.192210070600968 0 0,0 -0.0021625904920110173,0.5025098690861521 l -8.191527320793014 -0.1057638575201274" fill="#ff3c05" stroke="none" /><path d="M 120.99824983174949 100.27111621757518 l 9.00937555317912 0.11632340039116289 a30.01012646924005,30.01012646924005 0 0,0 -0.011115089642511792,0.5164745397814284 l -9.006038400851601 -0.27138775596270615" fill="#ff4806" stroke="none" /><path d="M 120.95626037817324 101.35467743843564 l 14.532719207260604 0.9394398844987232 a35.56305170126331,35.56305170126331 0 0,0 -0.044747533825974156,0.6105445469742695 l -14.514395114770291 -1.189457567969763" fill="#ff980e" stroke="none" /><path d="M 120.92983693683757 101.71520430193887 l 12.064346047124733 0.988675559324934 a33.10478933754655,33.10478933754655 0 0,0 -0.0514312912999918,0.5675400137950284 l -12.045540159547665 -1.1961969616685328" fill="#ff750a" stroke="none" /><path d="M 120.89721153311464 102.0752229133903 l 11.041260055393158 1.096465708993942 a32.09556941584433,32.09556941584433 0 0,0 -0.059327435082681214,0.5492983666312595 l -11.020750318809425 -1.2863603975099929" fill="#ff6609" stroke="none" /><path d="M 120.8583938346157 102.4346265915055 l 10.882250944471004 1.2701945190466377 a31.956129779016685,31.956129779016685 0 0,0 -0.06847512430321923,0.5458141139724362 l -10.858774310920937 -1.4573263873064688" fill="#ff6409" stroke="none" /><path d="M 120.81339534386255 102.79330883721812 l 10.817062774813962 1.4517283961812046 a31.914044273803583,31.914044273803583 0 0,0 -0.07775773148416001,0.5438373928951572 l -10.790470992313201 -1.6377112610567712" fill="#ff6409" stroke="none" /><path d="M 120.76222939487914 103.15116336523771 l 8.175762220294216 1.2408668597910733 a29.26939166121172,29.26939166121172 0 0,0 -0.07988905623490426,0.49746922943480815 l -8.153191409698023 -1.3814153189190863" fill="#ff3d05" stroke="none" /><path d="M 120.70491114924044 103.5080841355445 l 10.468027761961562 1.7736237483696673 a31.61721933587033,31.61721933587033 0 0,0 -0.09553452620015075,0.5358083578853037 l -10.435946793422222 -1.9535508569881894" fill="#ff6008" stroke="none" /><path d="M 120.64145759157962 103.86396538481128 l 9.666297399217965 1.8094767961108522 a30.8342011208736,30.8342011208736 0 0,0 -0.10214940183909661,0.5208575992598141 l -9.633718064403205 -1.9755981224386112" fill="#ff5407" stroke="none" /><path d="M 120.5718875245553 104.21870165774334 l 9.600462999179841 1.9687784663123222 a30.80025399915922,30.80025399915922 0 0,0 -0.11097765839893803,0.5184506736749838 l -9.56515130205646 -2.1337429594034747" fill="#ff5407" stroke="none" /><path d="M 120.49622156327973 104.57218783832717 l 10.16990691214958 2.2686486168726376 a31.419873950707174,31.419873950707174 0 0,0 -0.12229727215543665,0.5268534476286365 l -10.12934907406359 -2.4433707218498393" fill="#ff5d08" stroke="none" /><path d="M 120.41448212921028 104.9243191809786 l 9.887749025984958 2.385092694352064 a31.171344452014104,31.171344452014104 0 0,0 -0.1303091124332507,0.5205201289464657 l -9.845228599256647 -2.5549406626959255" fill="#ff5908" stroke="none" /><path d="M 120.32669344350535 105.2749913415812 l 9.458914862062688 2.454688173303308 a30.7722343604677,30.7722343604677 0 0,0 -0.13746678574367313,0.5115650486517243 l -9.415259999977238 -2.6171441551305805" fill="#ff5307" stroke="none" /><path d="M 120.23288151984713 105.62410040840565 l 9.554416805483822 2.65582534079928 a30.916667219068273,30.916667219068273 0 0,0 -0.14693862054310355,0.5115126146465626 l -9.507285548054618 -2.8198954309504245" fill="#ff5507" stroke="none" /><path d="M 120.13307415673323 105.97154293290107 l 9.761006589732723 2.8951500136120836 a31.18131343423449,31.18131343423449 0 0,0 -0.15705467425889835,0.5132637626007166 l -9.709725142967693 -3.062740748764857" fill="#ff5908" stroke="none" /><path d="M 120.02730092923936 106.31721596034902 l 10.801096473806945 3.406992248964736 a32.32569120279158,32.32569120279158 0 0,0 -0.17195381898132167,0.5292194378332311 l -10.740850403809377 -3.5924105867757623" fill="#ff6a09" stroke="none" /><path d="M 119.9155931802556 106.66101706037122 l 11.409344209764653 3.8159966284225235 a33.03058458949615,33.03058458949615 0 0,0 -0.18498569557285566,0.5376550212194133 l -11.341967683248566 -4.011824352731237" fill="#ff740a" stroke="none" /><path d="M 119.79798401119884 107.00284435728193 l 11.597573069442282 4.102235817625088 a33.301708816439245,33.301708816439245 0 0,0 -0.1958072907570758,0.5387775682783609 l -11.525241517679978 -4.30126118290958" fill="#ff780b" stroke="none" /><path d="M 119.67450827220406 107.3425965602758 l 10.785971116179592 4.0253628360706255 a32.51263301252494,32.51263301252494 0 0,0 -0.20019378257126055,0.5226427945348164 l -10.715083054014825 -4.210429197438586" fill="#ff6c0a" stroke="none" /><path d="M 119.54520255179757 107.68017299344265 l 11.179144364679106 4.392779374471548 a33.0112355467337,33.0112355467337 0 0,0 -0.2123681724998648,0.5270803879575998 l -11.101873577921847 -4.584559130271962" fill="#ff740a" stroke="none" /><path d="M 119.41010516605496 108.01547362559984 l 11.29191716944039 4.663038323583862 a33.21684573728892,33.21684573728892 0 0,0 -0.22278857761826573,0.5266063868076566 l -11.209977610629815 -4.856719236057683" fill="#ff770a" stroke="none" /><path d="M 119.26925614724726 108.34839909993367 l 11.086139562364382 4.803066441015857 a33.08188468878235,33.08188468878235 0 0,0 -0.23087833976347874,0.5205697060650102 l -11.00182013786963 -4.993184483573555" fill="#ff750a" stroke="none" /><path d="M 119.12269723197855 108.67885076344098 l 10.740383001448192 4.874531039266093 a32.794781891606384,32.794781891606384 0 0,0 -0.2377237256716163,0.512035756201206 l -10.654884658936744 -5.058686862746129" fill="#ff710a" stroke="none" /><path d="M 118.97047184881838 109.00673069616215 l 10.421143181680458 4.947711945783186 a32.53603392468706,32.53603392468706 0 0,0 -0.24455747608023945,0.5038608362569855 l -10.334432448985504 -5.126361738005447" fill="#ff6d0a" stroke="none" /><path d="M 118.81262510543309 109.33194174019688 l 10.815963399658116 5.365223606170813 a33.07355327179851,33.07355327179851 0 0,0 -0.25737733669390506,0.5078299026913335 l -10.722007393177943 -5.550607720564842" fill="#ff750a" stroke="none" /><path d="M 118.64920377521936 109.65438752849418 l 10.433937258103063 5.401478527012135 a32.74917090623013,32.74917090623013 0 0,0 -0.2634709658248517,0.4983877757147221 l -10.339413784053319 -5.580281317812991" fill="#ff700a" stroke="none" /><line stroke="#e1ed5e" stroke-width="0.3" x1="174.80103733775053" x2="179.2010983576182" y1="140.37084112569926" y2="142.7455964860345" /><path d="M 175.68104954172406 140.8457921977663 a86.0,86.0 0 0,1 -30.038265399797805,32.042727171017184" fill="none" id="id5" stroke="none" /><text fill="#e1ed5e" style="font-size:6.75px; font-family:Arial;" text-anchor="middle"><textPath startOffset="22.206326154141568" xlink:href="#id5">May</textPath></text><path d="M 118.48025628344425 109.97397251340804 l 12.646280014073005 6.825319266282253 a35.37057344997151,35.37057344997151 0 0,0 -0.2937839248049113,0.5333031588303256 l -12.526919679816585 -7.041992943510384" fill="#ff950d" stroke="none" /><path d="M 118.30583269289576 110.29060199501025 l 10.271377060140455 5.774042352501343 a32.783070559071554,32.783070559071554 0 0,0 -0.2807604666687959,0.489529539007209 l -10.170464597319281 -5.949991737366867" fill="#ff700a" stroke="none" /><path d="M 118.12598468904814 110.60418214915192 l 10.435265274494439 6.104907161944092 a33.089857435264726,33.089857435264726 0 0,0 -0.29185116273477324,0.48915933599099576 l -10.328633236061439 -6.283628591821191" fill="#ff750a" stroke="none" /><path d="M 117.94076556474637 110.91462005526583 l 10.245193070152235 6.232866114324865 a32.99218916811249,32.99218916811249 0 0,0 -0.29934184053757357,0.4826343594635734 l -10.136386589946698 -6.408296805153712" fill="#ff730a" stroke="none" /><path d="M 117.75023020441432 111.22182372390056 l 11.31621821980063 7.154194882059242 a34.388028204654724,34.388028204654724 0 0,0 -0.32061946097734373,0.4976085234612585 l -11.191393895446236 -7.347925005441954" fill="#ff870c" stroke="none" /><path d="M 117.55443506779139 111.5257021239791 l 10.001824249933298 6.566890165131678 a32.96497115614814,32.96497115614814 0 0,0 -0.31551699202909184,0.4716550931758495 l -9.887304152493485 -6.738082172513335" fill="#ff730a" stroke="none" /><path d="M 117.35343817320211 111.8261652097733 l 9.704859537832279 6.613748300857357 a32.744188572913316,32.744188572913316 0 0,0 -0.32142177753010936,0.46303204330107406 l -9.589576853140032 -6.77982160634545" fill="#ff700a" stroke="none" /><path d="M 117.14729908036423 112.12312394758627 l 8.860240078919674 6.264181208871358 a31.85098246582638,31.85098246582638 0 0,0 -0.32036052997489917,0.44495275661136785 l -8.751099756569172 -6.415767570933857" fill="#ff6309" stroke="none" /><path d="M 116.93607887273984 112.41649034213515 l 9.654289318308289 7.0779305517937114 a32.97089817589375,32.97089817589375 0 0,0 -0.33950405988001736,0.45482116916982096 l -9.531023991733178 -7.243064600472847" fill="#ff730a" stroke="none" /><path d="M 116.71984013943494 112.70617746262583 l 9.696879599140603 7.369105924033105 a33.17921163622051,33.17921163622051 0 0,0 -0.3494769249529006,0.45174603546519404 l -9.568595856969633 -7.534929953611552" fill="#ff760a" stroke="none" /><path d="M 116.498646956653 112.99209946851258 l 9.0318923610514 7.112294981035433 a32.49607844088063,32.49607844088063 0 0,0 -0.3498467268544543,0.43648758314430064 l -8.90812772214209 -7.266710397757984" fill="#ff6c0a" stroke="none" /><path d="M 116.27256486870786 113.27417163493432 l 9.98433416929645 8.14461435508811 a33.88493972812011,33.88493972812011 0 0,0 -0.372579434599482,0.44879593041690397 l -9.842658734803424 -8.315271542618785" fill="#ff800b" stroke="none" /><path d="M 116.0416608686014 113.55231037782055 l 9.049710521917874 7.645373308103869 a32.84689805606422,32.84689805606422 0 0,0 -0.3686008363941219,0.42876604660351864 l -8.916767175952973 -7.800016453868915" fill="#ff710a" stroke="none" /><path d="M 115.80600337817218 113.82643327865902 l 8.055007706085096 7.0461851704443355 a31.70195657818139,31.70195657818139 0 0,0 -0.36282308154278786,0.4076355783744014 l -7.93252577489397 -7.183794918559603" fill="#ff6108" stroke="none" /><path d="M 115.56566222782051 114.09645910891815 l 12.45265033220109 11.277276458677688 a37.80016263675783,37.80016263675783 0 0,0 -0.4409183626771301,0.4785298002517875 l -12.256685561528238 -11.48995751373081" fill="#ffb610" stroke="none" /><path d="M 115.32070863581623 114.36230785411682 l 8.432916899219986 7.905388157545169 a32.55894672323588,32.55894672323588 0 0,0 -0.386821138164223,0.40558041687465735 l -8.295589209676798 -8.049375691002334" fill="#ff6d0a" stroke="none" /><path d="M 115.07121518719521 114.62390073753431 l 8.865325439765723 8.602202120186112 a33.35280844462067,33.35280844462067 0 0,0 -0.40334563739230095,0.40858700118193475 l -8.715939177317887 -8.753529615348711" fill="#ff790b" stroke="none" /><path d="M 114.81725581225074 114.88116024355365 l 8.987814028165653 9.026577018519873 a33.738127557697105,33.738127557697105 0 0,0 -0.41505937434678936,0.4062229562166119 l -8.831104701443069 -9.179950077659056" fill="#ff7e0b" stroke="none" /><path d="M 114.55890576462653 115.13401014063108 l 8.046373509334133 8.364220515901652 a32.60621865597681,32.60621865597681 0 0,0 -0.40783262937823955,0.3856312067063616 l -7.901205045565085 -8.501486359353933" fill="#ff6e0a" stroke="none" /><path d="M 114.29624159901734 115.38237550388516 l 8.272836764524126 8.901352198958604 a33.15211500531357,33.15211500531357 0 0,0 -0.4213483062402158,0.3848916876785205 l -8.118388908817046 -9.042436653223708" fill="#ff760a" stroke="none" /><path d="M 114.0293411484842 115.62618273729858 l 8.308813803408182 9.254536007649442 a33.43715496150894,33.43715496150894 0 0,0 -0.43159031187449665,0.3808282700841349 l -8.148281138627096 -9.396187419505866" fill="#ff7a0b" stroke="none" /><path d="M 113.75828350139079 115.86535959552629 l 7.493948354265038 8.64164380816099 a32.438412024556506,32.438412024556506 0 0,0 -0.4249965253797016,0.36219125903129434 l -7.344086352308289 -8.769359457415232" fill="#ff6b09" stroke="none" /><path d="M 113.48314897796784 116.09983520530334 l 8.058247076681297 9.6221179629612 a33.550717112658674,33.550717112658674 0 0,0 -0.4459527311852308,0.3669887374580806 l -7.891424216951376 -9.759401819276459" fill="#ff7b0b" stroke="none" /><path d="M 113.20401910651253 116.32954008644616 l 7.787145046584334 9.63043874530983 a33.384868929613575,33.384868929613575 0 0,0 -0.449968428911449,0.3574821336978135 l -7.6202191249555336 -9.763054793012769" fill="#ff790b" stroke="none" /><path d="M 112.92097659922987 116.55440617244103 l 7.238845033656585 9.274436803302555 a32.765035292754014,32.765035292754014 0 0,0 -0.4475879683518046,0.34319136800207506 l -7.078128336811286 -9.397667513132001" fill="#ff700a" stroke="none" /><path d="M 112.63410532772338 116.77436683061366 l 7.18701721363622 9.542239836716078 a32.94602685123864,32.94602685123864 0 0,0 -0.45593383656969017,0.3372889524556544 l -7.021698406647965 -9.664538737911503" fill="#ff730a" stroke="none" /><path d="M 112.34349029814194 116.9893568818739 l 6.912411564679695 9.514118304480984 a32.76009697031354,32.76009697031354 0 0,0 -0.4590667273992298,0.3275319210217683 l -6.7476175094315805 -9.631694487346973" fill="#ff700a" stroke="none" /><path d="M 112.04921762599082 117.19931262002967 l 7.210062436600557 10.291798331331785 a33.56606991992652,33.56606991992652 0 0,0 -0.47606775409128765,0.32744374228153356 l -7.031837797886387 -10.414382862978412" fill="#ff7c0b" stroke="none" /><path d="M 111.7513745106137 117.40417183066458 l 6.520096322775623 9.656476921195917 a32.65157511188344,32.65157511188344 0 0,0 -0.46851170034299844,0.3105040078251704 l -6.3529099236926605 -9.767278950112406" fill="#ff6e0a" stroke="none" /><path d="M 111.45004920935366 117.60387380957326 l 6.139018282518905 9.43843132760006 a32.259286451588466,32.259286451588466 0 0,0 -0.4680948397514242,0.2987602738701689 l -5.97564164072055 -9.542706030294038" fill="#ff6909" stroke="none" /><path d="M 111.1453310114006 117.79835938074945 l 6.1856651062202515 9.878099668538647 a32.65501204923848,32.65501204923848 0 0,0 -0.4789725208393588,0.2942240426463904 l -6.014713385448585 -9.983112178013416" fill="#ff6f0a" stroke="none" /><line stroke="#e1ed5e" stroke-width="0.3" x1="143.8653032363475" x2="146.44561519142675" y1="172.8068346515853" y2="177.08958963109032" /><path d="M 144.38136562736335 173.6633856474863 a86.0,86.0 0 0,1 -40.68145358897372,12.25698825130547" fill="none" id="id6" stroke="none" /><text fill="#e1ed5e" style="font-size:6.75px; font-family:Arial;" text-anchor="middle"><textPath startOffset="21.466115282336833" xlink:href="#id6">June</textPath></text><path d="M 110.8373102113329 117.98757091392108 l 4.225637608178927 7.0136366544315925 a29.18823010888449,29.18823010888449 0 0,0 -0.43258642846198087,0.25557968688763083 l -4.104283308688564 -7.085334913612973" fill="#ff3c05" stroke="none" /><path d="M 110.5260780823613 118.17145234162733 l 6.133391897565914 10.588239768609077 a33.236393160023994,33.236393160023994 0 0,0 -0.4975191034735889,0.2825043314033023 l -5.950224027171125 -10.692247265807007" fill="#ff770a" stroke="none" /><path d="M 110.21172684928248 118.3499491758327 l 5.668419543419322 10.185859068131048 a32.65687372652057,32.65687372652057 0 0,0 -0.493549845546843,0.26912272774643453 l -5.492246886003831 -10.281922447637253" fill="#ff6f0a" stroke="none" /><path d="M 109.89434966115114 118.52300852407294 l 5.114120326735983 9.574039492176608 a31.854329040253546,31.854329040253546 0 0,0 -0.4858681612146502,0.25418325840006994 l -4.948561262994837 -9.660652169521393" fill="#ff6309" stroke="none" /><path d="M 109.57404056367764 118.69057910512821 l 5.501587541084074 10.740277989894047 a33.06735417448307,33.06735417448307 0 0,0 -0.5088374421311601,0.25514165677658546 l -5.315896191270154 -10.833387487579934" fill="#ff740a" stroke="none" /><path d="M 109.2508944713604 118.85261126421891 l 5.368274969378711 10.940131407882182 a33.186256659392505,33.186256659392505 0 0,0 -0.5149990781804253,0.24723085396904543 l -5.179163223198053 -11.030916538350787" fill="#ff760a" stroke="none" /><path d="M 108.92500713936063 119.00905698771935 l 4.877367504943576 10.38813251393823 a32.476149655063764,32.476149655063764 0 0,0 -0.508069263615968,0.23322967970234318 l -4.697830245560189 -10.470549263974648" fill="#ff6c09" stroke="none" /><path d="M 108.59647513512805 119.15986991738527 l 4.617900660036204 10.292401774786654 a32.28089273061287,32.28089273061287 0 0,0 -0.5089302946046061,0.22310008507196638 l -4.440049690773844 -10.370366413153075" fill="#ff6909" stroke="none" /><path d="M 108.2653958097858 119.30500536409082 l 4.834291370045089 11.291173826159083 a33.28254775781606,33.28254775781606 0 0,0 -0.5286037894224018,0.22095642684960068 l -4.639216121125226 -11.372715296028657" fill="#ff780b" stroke="none" /><path d="M 107.93186726928326 119.44442032107085 l 4.614650548673751 11.312494505645038 a33.217509223512955,33.217509223512955 0 0,0 -0.5312886311696625,0.21141071089014374 l -4.419240841462223 -11.39025206094125" fill="#ff770a" stroke="none" /><path d="M 107.59598834532513 119.57807347666477 l 4.256878153913641 10.971774769746983 a32.76863854552954,32.76863854552954 0 0,0 -0.5276215484469644,0.1995013228413932 l -4.067386384706402 -11.043424342695007" fill="#ff700a" stroke="none" /><path d="M 107.2578585660854 119.70592522655815 l 3.989307614795681 10.831431454209696 a32.54272422752575,32.54272422752575 0 0,0 -0.5273167856403732,0.18907703829804196 l -3.802271268525573 -10.898496033547698" fill="#ff6d0a" stroke="none" /><path d="M 106.91757812671514 119.82793768551818 l 4.0506552862835825 11.610442141848912 a33.296754652245376,33.296754652245376 0 0,0 -0.5427850910679424,0.18414217291894305 l -3.850200462278413 -11.678447301665978" fill="#ff780b" stroke="none" /><path d="M 106.57524785965236 119.94407469862006 l 3.8482822479295824 11.672628964307808 a33.2906282670223,33.2906282670223 0 0,0 -0.5457739390879979,0.17473958032303685 l -3.6467869637506443 -11.737141391290553" fill="#ff780b" stroke="none" /><path d="M 106.2309692047433 120.05430185196036 l 3.968738856591223 12.773339810618312 a34.37569056270904,34.37569056270904 0 0,0 -0.5665850845072318,0.17070743819370976 l -3.7482787976437453 -12.839762617917748" fill="#ff870c" stroke="none" /><path d="M 105.88484417918355 120.15858648285463 l 3.4838657117195124 11.934013222095746 a33.43213545141988,33.43213545141988 0 0,0 -0.5538094241549539,0.15651207511900783 l -3.277925119459953 -11.992214090553274" fill="#ff7a0b" stroke="none" /><path d="M 105.53697534728816 120.25689768951611 l 3.1084733018086226 11.372278490668997 a32.78945818676116,32.78945818676116 0 0,0 -0.5457251910145625,0.1441309829660226 l -2.912257667982563 -11.424100822938604" fill="#ff700a" stroke="none" /><path d="M 105.18746579009965 120.34920634021253 l 2.9643200470308346 11.62832927218208 a33.000218123164075,33.000218123164075 0 0,0 -0.5516484845187763,0.1355817759537686 l -2.763718277768847 -11.677632306449878" fill="#ff730a" stroke="none" /><path d="M 104.83641907484287 120.43548508189849 l 2.8162813764472094 11.89972894494991 a33.22845001439684,33.22845001439684 0 0,0 -0.5577313855705405,0.1269378475383597 l -2.611029841483807 -11.946443526065956" fill="#ff770a" stroke="none" /><path d="M 104.48393922423573 120.51570834832081 l 1.8099711067197506 8.281298538491903 a29.47678600005854,29.47678600005854 0 0,0 -0.4966256464971277,0.10407273282418864 l -1.6671539987932449 -8.311227252042633" fill="#ff4006" stroke="none" /><path d="M 104.13013068566511 120.58985236759428 l 2.4436092997748444 12.182073293969413 a33.42473887651523,33.42473887651523 0 0,0 -0.5650887988403377,0.10830061322042724 l -2.2335528863628027 -12.222331105538307" fill="#ff7a0b" stroke="none" /><path d="M 103.7750983002368 120.6578951692458 l 2.271985991841067 12.432642732112045 a33.638533366315116,33.638533366315116 0 0,0 -0.5704951550754712,0.09918789535765692 l -2.057641865293546 -12.469909205990708" fill="#ff7d0b" stroke="none" /><path d="M 103.41894727170886 120.7198165907248 l 2.2111515891707927 13.400222858368151 a34.5814271711122,34.5814271711122 0 0,0 -0.5881545509883452,0.09185764485511555 l -1.9801611745739305 -13.436298810570372" fill="#ff8a0c" stroke="none" /><path d="M 103.06178313531738 120.77559828337769 l 1.8596949828999747 12.618880628310038 a33.75517987881636,33.75517987881636 0 0,0 -0.5755602292357013,0.07976740325531526 l -1.642206162477443 -12.649022597057956" fill="#ff7e0b" stroke="none" /><path d="M 102.70371172650421 120.8252237178851 l 1.5084575224710048 11.618829428610114 a32.716340784913854,32.716340784913854 0 0,0 -0.5590951202767268,0.06769863289760329 l -1.3082349791428978 -11.643073590233069" fill="#ff6f0a" stroke="none" /><path d="M 102.34483914955558 120.86867818915974 l 1.3492897139402236 12.008453897359495 a33.084020346604575,33.084020346604575 0 0,0 -0.5664731090417151,0.05871725392097577 l -1.1423840082929058 -12.029900519736229" fill="#ff750a" stroke="none" /><path d="M 101.98527174616119 120.90594882070398 l 1.1749656315948231 12.373002037481818 a33.428665401198884,33.428665401198884 0 0,0 -0.5733106568837383,0.04946765584136331 l -0.9618106569695432 -12.391393945601845" fill="#ff7a0b" stroke="none" /><path d="M 101.62511606390274 120.93702456842531 l 0.9042698238332394 11.650072224758551 a32.685113895738716,32.685113895738716 0 0,0 -0.5613080589993062,0.03871109010765685 l -0.7035990040550028 -11.663911659382492" fill="#ff6f0a" stroke="none" /><path d="M 101.26447882468166 120.96189622390904 l 0.7886056231900559 13.073108787774851 a34.09687261165516,34.09687261165516 0 0,0 -0.586160849647293,0.030297820558955763 l -0.5634567051292833 -13.084746415096008" fill="#ff830c" stroke="none" /><path d="M 100.90346689309514 120.98055641714683 l 0.5593237546538351 12.988769903635413 a34.000807154638714,34.000807154638714 0 0,0 -0.5849428405526591,0.02014661414765153 l -0.33566056242652376 -12.99647331620916" fill="#ff820b" stroke="none" /><line stroke="#e1ed5e" stroke-width="0.3" x1="102.19456741930631" x2="102.32365962044197" y1="184.97166512339345" y2="189.96999836594603" /><path d="M 102.22038585953345 185.97133177190398 a86.0,86.0 0 0,1 -42.740103519485714,-10.115201625700543" fill="none" id="id7" stroke="none" /><text fill="#e1ed5e" style="font-size:6.75px; font-family:Arial;" text-anchor="middle"><textPath startOffset="22.20632615414155" xlink:href="#id7">July</textPath></text><path d="M 100.54218724476979 120.99299961872073 l 0.31273350758059415 12.108758493918668 a33.11279631261135,33.11279631261135 0 0,0 -0.5699190175119604,0.009811672733608685 l -0.10425480017596583 -12.112347643931436" fill="#ff750a" stroke="none" /><path d="M 100.18074693466247 120.99922214144158 l 0.10289191721357391 11.954007575074947 a32.954450378481525,32.954450378481525 0 0,0 -0.5672777037520504,0.0 l 0.10289191721356568 -11.954007575074947" fill="#ff730a" stroke="none" /><path d="M 99.81925306533755 120.99922214144158 l -0.09652207919287609 11.213958268837658 a32.21437365914852,32.21437365914852 0 0,0 -0.55445586691791,-0.009545460572937725 l 0.28953763600345406 -11.21063533098556" fill="#ff6809" stroke="none" /><path d="M 99.45781275523022 120.99299961872073 l -0.3670194852320364 14.210662437864611 a35.21540116301598,35.21540116301598 0 0,0 -0.6058384641814658,-0.020866301675113295 l 0.6115783010881453 -14.202239337763404" fill="#ff930d" stroke="none" /><path d="M 99.09653310690486 120.98055641714683 l -0.5260997415650052 12.21723274345665 a33.228554977832175,33.228554977832175 0 0,0 -0.5712335626845605,-0.02952625032853079 l 0.7363213726630546 -12.206366686365918" fill="#ff770a" stroke="none" /><path d="M 98.73552117531835 120.96189622390904 l -0.7093030864674089 11.758471078842724 a32.77984520188839,32.77984520188839 0 0,0 -0.5629348988430032,-0.03882328650813671 l 0.9116007460893422 -11.744519447818302" fill="#ff700a" stroke="none" /><path d="M 98.37488393609728 120.93702456842531 l -1.134877222123349 14.621080185916613 a35.6650582035087,35.6650582035087 0 0,0 -0.6116653985748715,-0.052777064342810584 l 1.386386938439762 -14.59937886929514" fill="#ff990e" stroke="none" /><path d="M 98.01472825383883 120.90594882070398 l -1.1082360001182818 11.670304150822036 a32.722806234202295,32.722806234202295 0 0,0 -0.5602883080671629,-0.05807617401183282 l 1.308956904791038 -11.649498608354442" fill="#ff6f0a" stroke="none" /><path d="M 97.65516085044442 120.86867818915974 l -1.289247217489503 11.47408567157255 a32.54628946399625,32.54628946399625 0 0,0 -0.5561890842885596,-0.06734675240998643 l 1.4865637248294519 -11.450193390437214" fill="#ff6d0a" stroke="none" /><path d="M 97.2962882734958 120.8252237178851 l -1.7656522923449989 13.599861122629271 a34.713998343745935,34.713998343745935 0 0,0 -0.5919090615468152,-0.08203320244273266 l 1.9994899450786452 -13.567453354693933" fill="#ff8c0c" stroke="none" /><path d="M 96.93821686468263 120.77559828337769 l -1.8448290928175795 12.518008768081279 a33.65321847987562,33.65321847987562 0 0,0 -0.5723677483408889,-0.08939207095357725 l 2.0600327047669853 -12.484398389780594" fill="#ff7d0b" stroke="none" /><path d="M 96.58105272829116 120.7198165907248 l -1.829253012668367 11.085806217062663 a32.23571386546585,32.23571386546585 0 0,0 -0.5467039356437315,-0.09505148690189313 l 2.0198059197841483 -11.052676151639764" fill="#ff6809" stroke="none" /><path d="M 96.22490169976321 120.6578951692458 l -2.6074901181813908 14.268570837706873 a35.504865337777964,35.504865337777964 0 0,0 -0.6002560492943834,-0.11504050046870358 l 2.8527137820474695 -14.221573138889703" fill="#ff970d" stroke="none" /><path d="M 95.86986931433489 120.58985236759428 l -2.201776358978476 10.976468695088185 a32.19511876440833,32.19511876440833 0 0,0 -0.5424241866258399,-0.11367026219902794 l 2.390392007033703 -10.936942452162617" fill="#ff6809" stroke="none" /><path d="M 95.51606077576429 120.51570834832081 l -2.330249844623473 10.661769439830824 a31.91345004691359,31.91345004691359 0 0,0 -0.535659433566402,-0.12191434312232068 l 2.5134294275827376 -10.620078363130817" fill="#ff6409" stroke="none" /><path d="M 95.16358092515715 120.4354850818985 l -6.179414435118615 26.11008879701722 a47.83136037827893,47.83136037827893 0 0,0 -0.7995734260504078,-0.1965156945983843 l 6.627941145912233 -25.999851844104807" fill="#c6ff1e" stroke="none" /><path d="M 94.81253420990036 120.34920634021253 l -6.4446659324689035 25.280906353895958 a47.089422091253425,47.089422091253425 0 0,0 -0.783723955398898,-0.20698861977703423 l 6.878880330679291 -25.166226384815342" fill="#cfff1d" stroke="none" /><path d="M 94.46302465271185 120.25689768951611 l -2.967621262672808 10.856974526469251 a32.2552508558037,32.2552508558037 0 0,0 -0.5343141160810041,-0.15100250632394063 l 3.154066546858426 -10.804283226806788" fill="#ff6909" stroke="none" /><path d="M 94.11515582081647 120.15858648285463 l -1.5315970421129539 5.246499395775319 a26.465486749529262,26.465486749529262 0 0,0 -0.436207965601531,-0.13142588176723666 l 1.6216799821547307 -5.2193581449023565" fill="#ff1302" stroke="none" /><path d="M 93.76903079525671 120.05430185196036 l -3.7043761232436756 11.922491430734649 a33.48471883457529,33.48471883457529 0 0,0 -0.5489559028750303,-0.1757583446445401 l 3.9090533712096462 -11.856960239430402" fill="#ff7a0b" stroke="none" /><path d="M 93.42475214034765 119.94407469862007 l -4.560580566496603 13.833175787245892 a35.56556375374302,35.56556375374302 0 0,0 -0.5797699494312843,-0.19668944493543303 l 4.798020248865114 -13.752623355412336" fill="#ff980e" stroke="none" /><path d="M 93.08242187328487 119.8279376855182 l -3.614190968226787 10.359399198515842 a31.971760483578866,31.971760483578866 0 0,0 -0.5180649859425409,-0.185759672089665 l 3.791975514799055 -10.295651985386218" fill="#ff6509" stroke="none" /><path d="M 92.7421414339146 119.70592522655815 l -14.721321773544751 39.97009082832572 a63.59489964285455,63.59489964285455 0 0,0 -1.0239680655719223,-0.3871771049348572 l 15.407160059876958 -39.71076547328423" fill="#32ff4c" stroke="none" /><path d="M 91.7346041902142 119.30500536409082 l -4.194868990986793 9.797712080137757 a31.657958897313307,31.657958897313307 0 0,0 -0.4991093177826373,-0.2187948574451161 l 4.362898983427173 -9.724052669398189" fill="#ff6008" stroke="none" /><path d="M 91.40352486487194 119.15986991738527 l -4.4712300632168285 9.96550156143279 a31.922596744782503,31.922596744782503 0 0,0 -0.4994092708986594,-0.22925430179164716 l 4.642107329882907 -9.887060189307068" fill="#ff6409" stroke="none" /><path d="M 91.07499286063937 119.00905698771935 l -4.746654939621275 10.109732444960732 a32.16859092385977,32.16859092385977 0 0,0 -0.4992064890651566,-0.23964945147965963 l 4.9199740966866745 -10.026528716981511" fill="#ff6809" stroke="none" /><path d="M 90.7491055286396 118.85261126421891 l -5.27267003485107 10.745295906172519 a32.9692286053707,32.9692286053707 0 0,0 -0.5073274947875854,-0.25438453783252446 l 5.456851437321416 -10.652943527430692" fill="#ff730a" stroke="none" /><line stroke="#e1ed5e" stroke-width="0.3" x1="58.666819895761336" x2="56.23545636021788" y1="174.27360380694188" y2="178.64263932499728" /><path d="M 58.180547188652646 175.14741091055294 a86.0,86.0 0 0,1 -31.652253787137756,-30.449443065178592" fill="none" id="id8" stroke="none" /><text fill="#e1ed5e" style="font-size:6.75px; font-family:Arial;" text-anchor="middle"><textPath startOffset="22.20632615414155" xlink:href="#id8">August</textPath></text><path d="M 89.7882731507175 118.34994917583269 l -5.631554086327659 10.11961373333506 a32.58106141677598,32.58106141677598 0 0,0 -0.48770937292282895,-0.2769341103783399 l 5.804912226171695 -10.021176457162086" fill="#ff6d0a" stroke="none" /><path d="M 89.4739219176387 118.17145234162733 l -5.697364870416005 9.835514557802114 a32.366499596770666,32.366499596770666 0 0,0 -0.47969021794580696,-0.28340943598609386 l 5.8658229593901945 -9.735986549522272" fill="#ff6a09" stroke="none" /><path d="M 89.1626897886671 117.98757091392108 l -5.877706292783233 9.755710290739673 a32.389526528397376,32.389526528397376 0 0,0 -0.4750784702424129,-0.29183199872099935 l 6.044763962957955 -9.653089825190296" fill="#ff6b09" stroke="none" /><path d="M 88.8546689885994 117.79835938074946 l -6.846407483791378 10.93326171640177 a33.899980898956834,33.899980898956834 0 0,0 -0.49190195667494485,-0.31395510228551177 l 7.033591242513246 -10.813792185292453" fill="#ff800b" stroke="none" /><path d="M 88.54995079064634 117.60387380957326 l -5.8934507862885335 9.060883673757585 a31.808902586283757,31.808902586283757 0 0,0 -0.45642034069348386,-0.30249051397115934 l 6.0485458257219795 -8.958095138695109" fill="#ff6209" stroke="none" /><path d="M 88.24862548938628 117.40417183066458 l -35.25412353184113 52.212515491993734 a84.0,84.0 0 0,0 -1.191372461508439,-0.8194368425395955 l 36.14765287797246 -51.59793786008904" fill="#4dd2ff" stroke="none" /><path d="M 87.95078237400918 117.19931262002967 l -26.79556093070267 38.24856049425958 a67.700690203401,67.700690203401 0 0,0 -0.9486887148871188,-0.6768642088243281 l 27.449976973438677 -37.78165202359103" fill="#38ff7e" stroke="none" /><path d="M 87.65650970185807 116.9893568818739 l -4.98505297980851 6.861336793999387 a29.48107869390371,29.48107869390371 0 0,0 -0.4079830741295934,-0.30181612474330144 l 5.102421024356668 -6.774510720516319" fill="#ff4006" stroke="none" /><path d="M 87.36589467227662 116.77436683061367 l -7.0035526268324695 9.298652958211912 a32.64107796701298,32.64107796701298 0 0,0 -0.44589464474953566,-0.3418929996708768 l 7.162576000075491 -9.176720616713668" fill="#ff6e0a" stroke="none" /><path d="M 86.79598089348748 116.32954008644616 l -8.299089713495887 10.263565741941585 a34.199078445551045,34.199078445551045 0 0,0 -0.45457068430460795,-0.3740807261680598 l 8.474530526345184 -10.119189896916344" fill="#ff850c" stroke="none" /><path d="M 86.51685102203217 116.09983520530335 l -27.268523485612832 32.56054910671757 a63.47071616086059,63.47071616086059 0 0,0 -0.8315707258205377,-0.7086826130858931 l 27.824959688010427 -32.086342103408725" fill="#32ff4a" stroke="none" /><path d="M 86.24171649860922 115.8653595955263 l -7.379308540906153 8.509446949249142 a32.26343117899586,32.26343117899586 0 0,0 -0.4164404639304216,-0.3674602907161052 l 7.524691357743162 -8.381163516760749" fill="#ff6909" stroke="none" /><path d="M 85.97065885151581 115.62618273729859 l -28.720930026898856 31.989991278669432 a63.991294044484945,63.991294044484945 0 0,0 -0.8133002481272388,-0.7429304935014663 l 29.26732982449295 -31.49086801858139" fill="#33ff50" stroke="none" /><path d="M 85.70375840098266 115.38237550388516 l -7.2159107627684245 7.764127948359506 a31.599577865874394,31.599577865874394 0 0,0 -0.39524175017820506,-0.3737257445396733 l 7.3484883473374465 -7.638767567073902" fill="#ff5f08" stroke="none" /><path d="M 85.44109423537348 115.13401014063109 l -5.271347234583439 5.4795754428746335 a28.60347609332108,28.60347609332108 0 0,0 -0.35189092432987296,-0.3443993326787131 l 5.3648881112891065 -5.388026007273351" fill="#ff3304" stroke="none" /><path d="M 85.18274418774928 114.88116024355367 l -8.277225324485846 8.312923660522548 a32.73103400634341,32.73103400634341 0 0,0 -0.39582633035890746,-0.4009699828559034 l 8.419092279900287 -8.169213183685981" fill="#ff700a" stroke="none" /><path d="M 84.9287848128048 114.62390073753433 l -7.832786882517539 7.600309360954379 a31.914085061476733,31.914085061476733 0 0,0 -0.3791597686463393,-0.3975475015649075 l 7.962453202542836 -7.464354742806972" fill="#ff6409" stroke="none" /><path d="M 84.67929136418377 114.36230785411682 l -29.648465490880184 27.7937789239534 a61.63896717237668,61.63896717237668 0 0,0 -0.7189850674431911,-0.7803162894341658 l 30.122496966319105 -27.279311379717893" fill="#30ff33" stroke="none" /><path d="M 84.43433777217949 114.09645910891817 l -9.313442719621648 8.434370638323998 a33.56498401735137,33.56498401735137 0 0,0 -0.38414508906025563,-0.43159107985332995 l 9.457246658330241 -8.272805388729804" fill="#ff7c0b" stroke="none" /><path d="M 84.19399662182784 113.82643327865904 l -31.762433665556113 27.7844537507261 a63.19985856119769,63.19985856119769 0 0,0 -0.7092152411435039,-0.8249775505417383 l 32.235991416270394 -27.233599101022833" fill="#32ff47" stroke="none" /><path d="M 83.95833913139862 113.55231037782056 l -8.553055868328466 7.225789695710791 a32.19673172909793,32.19673172909793 0 0,0 -0.3540168641239718,-0.42643611848460844 l 8.676168732345973 -7.077492320112421" fill="#ff6809" stroke="none" /><path d="M 83.72743513129214 113.27417163493432 l -8.58171699230792 7.000444318239383 a32.07484027825397,32.07484027825397 0 0,0 -0.3453117552673573,-0.4308295088056379 l 8.700946659630137 -6.851686975855486" fill="#ff6609" stroke="none" /><path d="M 83.50135304334701 112.99209946851258 l -8.752969003212272 6.892652726815548 a32.141055963582296,32.141055963582296 0 0,0 -0.33854202221699764,-0.4376111996393168 l 8.870317842647339 -6.7409635330629785" fill="#ff6709" stroke="none" /><path d="M 83.28015986056508 112.70617746262583 l -8.287221025138326 6.29784137523281 a31.408690518364402,31.408690518364402 0 0,0 -0.3234178786884386,-0.4332711006975373 l 8.394400170521848 -6.154257395025964" fill="#ff5d08" stroke="none" /><path d="M 83.06392112726016 112.41649034213515 l -35.55505474100248 26.066777152079062 a65.0867189608371,65.0867189608371 0 0,0 -0.6546490615475475,-0.909250289264563 l 35.99848359492564 -25.45089325736336" fill="#34ff5e" stroke="none" /><path d="M 82.85270091963577 112.12312394758628 l -7.897625987076905 5.5836139723398395 a30.672085670829283,30.672085670829283 0 0,0 -0.30108171026809816,-0.4337306593762515 l 7.992568604507137 -5.446842050776575" fill="#ff5207" stroke="none" /><path d="M 82.6465618267979 111.8261652097733 l -35.175251084098264 23.971522326808405 a63.56679658482689,63.56679658482689 0 0,0 -0.6084156529779997,-0.9094988502822845 l 35.58266984248699 -23.3624865623203" fill="#32ff4b" stroke="none" /><path d="M 82.44556493220864 111.52570212397912 l -8.792022795864714 5.7725717416163045 a31.51771122227226,31.51771122227226 0 0,0 -0.29385783689560085,-0.4560738885886623 l 8.89008549613736 -5.620376253106194" fill="#ff5e08" stroke="none" /><path d="M 82.24976979558568 111.22182372390057 l -7.997920684185975 5.056343215951808 a30.4622059789476,30.4622059789476 0 0,0 -0.2763870187003681,-0.44562387768760414 l 8.0837723425543 -4.917923006898939" fill="#ff4f07" stroke="none" /><path d="M 82.05923443525364 110.91462005526583 l -9.63311474194419 5.8604961409063145 a32.27574009318414,32.27574009318414 0 0,0 -0.2846706817262397,-0.47712443680019895 l 9.732566299368662 -5.693809610220005" fill="#ff6909" stroke="none" /><line stroke="#e1ed5e" stroke-width="0.3" x1="26.63291911575756" x2="22.317208475507996" y1="142.92168965132927" y2="145.44649492493687" /><path d="M 25.769776987707644 143.4266507060508 a86.0,86.0 0 0,1 -11.730757126820373,-40.83630448921669" fill="none" id="id9" stroke="none" /><text fill="#e1ed5e" style="font-size:6.75px; font-family:Arial;" text-anchor="middle"><textPath startOffset="21.46611528233685" xlink:href="#id9">September</textPath></text><path d="M 81.87401531095188 110.60418214915194 l -38.114775200166875 22.29815514744173 a65.1581681180123,65.1581681180123 0 0,0 -0.558026974780587,-0.9729670667636499 l 38.49295417109984 -21.638768234819775" fill="#34ff5f" stroke="none" /><path d="M 81.69416730710424 110.29060199501025 l -12.725779471122515 7.1537817377963915 a35.59870050037579,35.59870050037579 0 0,0 -0.29567872191122097,-0.5367427659592935 l 12.847034602485252 -6.933668453439275" fill="#ff980e" stroke="none" /><path d="M 81.51974371655577 109.97397251340807 l -37.22425781291642 20.090290879280396 a63.29970635047679,63.29970635047679 0 0,0 -0.5092536484768716,-0.963315985669989 l 37.56456396961818 -19.44655987852428" fill="#32ff48" stroke="none" /><path d="M 81.35079622478065 109.6543875284942 l -12.272007118044883 6.353017206422313 a34.818935788635905,34.818935788635905 0 0,0 -0.2709598477716878,-0.5346294856209666 l 12.379545635602838 -6.1408335090986625" fill="#ff8d0d" stroke="none" /><path d="M 81.18737489456691 109.33194174019688 l -10.296957147703324 5.1077722362053715 a32.494201308424564,32.494201308424564 0 0,0 -0.24424304073526457,-0.5032130063136648 l 10.383353445053308 -4.9297702739264215" fill="#ff6c0a" stroke="none" /><path d="M 81.02952815118164 109.00673069616217 l -9.707840698760517 4.609052822290497 a31.746419820162206,31.746419820162206 0 0,0 -0.23012432957561485,-0.4956673330844235 l 9.785739645175958 -4.4412654219272465" fill="#ff6109" stroke="none" /><path d="M 80.87730276802145 108.67885076344099 l -10.374512090112278 4.7084802463445605 a32.39299290520725,32.39299290520725 0 0,0 -0.2260705667854534,-0.5097294472145733 l 10.454023741629012 -4.529202462637291" fill="#ff6b09" stroke="none" /><path d="M 80.73074385275274 108.34839909993369 l -10.367349267848594 4.491650774426481 a32.29853342345664,32.29853342345664 0 0,0 -0.2166293686486361,-0.5120478362043679 l 10.443129617689538 -4.312528412555955" fill="#ff6909" stroke="none" /><line stroke="#e1ed5e" stroke-width="0.3" x1="15.007084014347285" x2="10.007500721073583" y1="101.09737516637583" y2="101.16192664675087" /><path d="M 14.007167355692545 101.11028546245083 a86.0,86.0 0 0,1 10.666146001902534,-42.60595125391555" fill="none" id="id10" stroke="none" /><text fill="#e1ed5e" style="font-size:6.75px; font-family:Arial;" text-anchor="middle"><textPath startOffset="22.20632615414155" xlink:href="#id10">October</textPath></text><line stroke="#e1ed5e" stroke-width="0.3" x1="26.266209847984243" x2="21.928928074336255" y1="57.711370442889674" y2="55.22380399835377" /><path d="M 25.398753493254645 57.213857153982495 a86.0,86.0 0 0,1 29.58750427330803,-30.492523968695096" fill="none" id="id11" stroke="none" /><text fill="#e1ed5e" style="font-size:6.75px; font-family:Arial;" text-anchor="middle"><textPath startOffset="21.46611528233685" xlink:href="#id11">November</textPath></text><line stroke="#e1ed5e" stroke-width="0.3" x1="56.762969772571076" x2="54.21961505331055" y1="26.818313649435495" y2="22.513508569990535" /><path d="M 56.25429882871897 25.957352633546506 a86.0,86.0 0 0,1 42.265352541879196,-11.944610805530505" fill="none" id="id12" stroke="none" /><text fill="#e1ed5e" style="font-size:6.75px; font-family:Arial;" text-anchor="middle"><textPath startOffset="22.20632615414155" xlink:href="#id12">December</textPath></text></svg>