<?xml version="1.0" encoding="utf-8" ?>
<svg baseProfile="full" height="200mm" version="1.1" viewBox="0,0,200,200" width="200mm" xmlns="http://www.w3.org/2000/svg" xmlns:ev="http://www.w3.org/2001/xml-events" xmlns:xlink="http://www.w3.org/1999/xlink"><defs /><rect fill="#1a1a1a" height="200" width="200" x="0" y="0" /><text alignment-baseline="middle" fill="#e1ed5e" style="dominant-baseline: central; font-size:9.0px; font-family:Arial;" text-anchor="middle" x="100.0" y="100.0">2023</text><line stroke="#e1ed5e" stroke-width="0.3" x1="100.0" x2="100.0" y1="15.0" y2="10.0" /><path d="M 100.0 14.0 a86.0,86.0 0 0,1 42.46469731375804,11.215312516191453" fill="none" id="id13" stroke="none" /><text fill="#e1ed5e" style="font-size:6.75px; font-family:Arial;" text-anchor="middle"><textPath startOffset="22.20632615414155" xlink:href="#id13">January</textPath></text><path d="M 100.36148047927253 79.00311137660856 l 0.15625940517259482 -9.076455064376459 a30.077800038409634,30.077800038409634 0 0,0 0.5175864669436202,0.013367731412334298 l -0.31247250731108284 9.072420540821765" fill="#ff3404" stroke="none" /><path d="M 100.72285384407766 79.0124445844662 l 0.3073947854704307 -8.924992441229474 a29.93028452123098,29.93028452123098 0 0,0 0.514742697335155,0.02216590333727831 l -0.4609783151949173 8.918378811368001" fill="#ff3104" stroke="none" /><path d="M 101.08401301168833 79.027996857942 l 0.5733155521334963 -11.091726234916603 a32.106533284182575,32.106533284182575 0 0,0 0.5516788423393927,0.03327877433948109 l -0.7641564433125009 11.080214191196818" fill="#ff5207" stroke="none" /><path d="M 101.44485096284872 79.0497635885617 l 0.5622196968041542 -8.152145699505944 a29.171509682638074,29.171509682638074 0 0,0 0.5006522990825819,0.038860254044688985 l -0.7024621852490772 8.14126018327279" fill="#ff2603" stroke="none" /><path d="M 101.80526077348638 79.07773832637324 l 0.8889319475028012 -10.302371318788651 a31.340650598366146,31.340650598366146 0 0,0 0.5370815548093371,0.05100236517805796 l -1.0661386294023825 10.285543409095416" fill="#ff4706" stroke="none" /><path d="M 102.88285421437855 79.19881850522331 l 1.3192164035076117 -9.518781665538967 a30.609762552502758,30.609762552502758 0 0,0 0.5212857424042054,0.0768239678590435 l -1.482871126340473 9.494663213518953" fill="#ff3c05" stroke="none" /><path d="M 103.59715602781102 79.31037775812273 l 1.488533877304519 -8.561542334433671 a29.68997930079141,29.68997930079141 0 0,0 0.5027572139864434,0.09187566731278411 l -1.6356862123938631 8.534651185770148" fill="#ff2e04" stroke="none" /><path d="M 104.307194497241 79.44645832069477 l 2.067917396825548 -9.867914354051063 a31.08226244743613,31.08226244743613 0 0,0 0.5227108158610305,0.11424433855160382 l -2.2374709368401065 9.83085651740359" fill="#ff4306" stroke="none" /><path d="M 104.66035177308747 79.52364482259891 l 3.0559401639478327 -13.426994193707749 a34.77036467794122,34.77036467794122 0 0,0 0.5824471756845079,0.13784642837101693 l -3.2866110265948643 13.372401853195864" fill="#ff7a0b" stroke="none" /><path d="M 105.71112130821622 79.79150937346287 l 2.4165855901940576 -8.550956040349693 a29.885872783172537,29.885872783172537 0 0,0 0.493842390839717,0.14416613593611505 l -2.563418198757202 8.508091575494873" fill="#ff3104" stroke="none" /><path d="M 106.0581310904928 79.89281104454417 l 2.5939313487872893 -8.609365989025473 a29.99164404184296,29.99164404184296 0 0,0 0.49302639141417265,0.15318569974188245 l -2.7417431129121805 8.56344015440107" fill="#ff3204" stroke="none" /><path d="M 106.40334571778207 80.00007090966166 l 2.5540266271726035 -7.977134718251758 a29.376021151205638,29.376021151205638 0 0,0 0.48025203216090334,0.15833154429461288 l -2.690961481575924 7.931989449697909" fill="#ff2904" stroke="none" /><path d="M 108.09893153111575 80.62456947434976 l 3.4372089988536927 -8.222986440071159 a29.912458229657794,29.912458229657794 0 0,0 0.4733521768635256,0.20266469889090538 l -3.5782449335075337 8.162602213217461" fill="#ff3104" stroke="none" /><path d="M 108.43124777332544 80.76684994638697 l 3.680316726219231 -8.395445815759468 a30.166691968787987,30.166691968787987 0 0,0 0.47378640181004045,0.21257414795004081 l -3.8242852464960513 8.330851337292895" fill="#ff3505" stroke="none" /><path d="M 109.08828744355905 81.06846463323043 l 3.525719672074704 -7.344319496903876 a29.146761815510317,29.146761815510317 0 0,0 0.45042674679696615,0.22102244847138736 l -3.6516176858821017 7.282541888297656" fill="#ff2503" stroke="none" /><path d="M 109.41281617654863 81.2277094730956 l 7.0921403630507625 -14.144090021057941 a36.82257050712698,36.82257050712698 0 0,0 0.5641559943186526,0.288982612227714 l -7.334556844958171 14.019914883517727" fill="#ff980e" stroke="none" /><path d="M 109.73455568895987 81.39251694778311 l 6.925732714274859 -13.238452603564417 a35.9406292024934,35.9406292024934 0 0,0 0.5457070310525836,0.29149779695699624 l -7.1525847918557535 13.117276080105666" fill="#ff8b0c" stroke="none" /><path d="M 110.05341064243156 81.56283822128135 l 6.554822076796977 -12.021026431622278 a34.691996528199475,34.691996528199475 0 0,0 0.5218269526311812,0.29039613416919824 l -6.760773118500193 11.9064148998929" fill="#ff790b" stroke="none" /><path d="M 110.36928655335952 81.73862282372117 l 8.635383960248697 -15.207796867085223 a38.48848025677039,38.48848025677039 0 0,0 0.5733010660362609,0.3320929814715216 l -8.895881758750287 15.056899728223653" fill="#ffaf10" stroke="none" /><line stroke="#e1ed5e" stroke-width="0.3" x1="143.23703022742887" x2="145.7803849466894" y1="26.81831364943548" y2="22.513508569990506" /><path d="M 143.74570117128098 25.957352633546492 a86.0,86.0 0 0,1 28.547481713284135,27.462654790039103" fill="none" id="id14" stroke="none" /><text fill="#e1ed5e" style="font-size:6.75px; font-family:Arial;" text-anchor="middle"><textPath startOffset="19.985693538727396" xlink:href="#id14">February</textPath></text><path d="M 110.68208982089419 81.91981866633111 l 7.746353851367298 -13.11124364761811 a36.2286147754088,36.2286147754088 0 0,0 0.5341787344216548,0.3218367105223926 l -7.97089465200659 12.975960327637102" fill="#ff8f0d" stroke="none" /><path d="M 110.99172775467656 82.1063720568725 l 6.874259096466035 -11.19072791850116 a34.13346220428061,34.13346220428061 0 0,0 0.49799233726746717,0.3118427559109831 l -7.065870586105765 11.070740821267234" fill="#ff710a" stroke="none" /><path d="M 111.2981086023043 82.29822771554956 l 8.631493182802531 -13.523743856170237 a37.04351340735778,37.04351340735778 0 0,0 0.5345431449157868,0.3476817307381508 l -8.863003353502599 13.373163201272558" fill="#ff9b0e" stroke="none" /><path d="M 111.60114157652 82.49532879139004 l 7.7465058909426405 -11.688508216377357 a35.0224668957616,35.0224668957616 0 0,0 0.4996460320129747,0.3373632311869879 l -7.946556617362157 11.5534330728917" fill="#ff7e0b" stroke="none" /><path d="M 111.90073688211348 82.69761687909136 l 20.05862827547992 -29.163074080216887 a56.395387525807664,56.395387525807664 0 0,0 0.7950913389287744,0.557012293859723 l -20.557650753992345 28.81347694359323" fill="#6cff28" stroke="none" /><path d="M 112.19680574252982 82.90503203632743 l 5.082716046698162 -7.1239035712253145 a29.751228742495524,29.751228742495524 0 0,0 0.41432791380821893,0.3010268499214088 l -5.204589276860171 7.03535748648723" fill="#ff2f04" stroke="none" /><path d="M 112.77801427241765 83.33499621200491 l 8.340202387730422 -10.877238154616325 a34.70668762832747,34.70668762832747 0 0,0 0.47096552820591864,0.36759606509614273 l -8.52620047109577 10.732063700296958" fill="#ff790b" stroke="none" /><path d="M 113.06298171725822 83.55741782278167 l 7.847736518444887 -9.878070367289068 a33.61599154422861,33.61599154422861 0 0,0 0.4499686179508317,0.3638433291630352 l -8.016608534960211 9.741520940861903" fill="#ff6909" stroke="none" /><path d="M 113.6212207817346 84.01681056812373 l 24.505653775667238 -28.755022235135126 a58.780661332432885,58.780661332432885 0 0,0 0.764445863311037,0.6629199196887056 l -24.996993437625036 28.32893732202675" fill="#51ff2b" stroke="none" /><path d="M 113.89432698308785 84.25364557470407 l 5.686314864576018 -6.444265299098624 a29.59434302225975,29.59434302225975 0 0,0 0.3790739572525311,0.3403363416522455 l -5.796399809424539 6.34542994867708" fill="#ff2c04" stroke="none" /><path d="M 114.16331599549186 84.49514656593476 l 9.26810048137789 -10.145967202997742 a34.74184620119229,34.74184620119229 0 0,0 0.4380650941184604,0.4071337629244569 l -9.4413734592912 9.984928853998644" fill="#ff7a0b" stroke="none" /><path d="M 114.68862486808459 84.99185889309783 l 10.655425083112318 -10.887208614663738 a36.23382404785573,36.23382404785573 0 0,0 0.44199088305223755,0.44009283373617114 l -10.841251766331878 10.702179930277447" fill="#ff8f0d" stroke="none" /><path d="M 114.94478906791727 85.2469230424477 l 8.51346697699963 -8.404256019704365 a32.96288590655283,32.96288590655283 0 0,0 0.39513982638840406,0.4072263248645872 l -8.656871067091144 8.256465499289662" fill="#ff5f08" stroke="none" /><path d="M 115.19652480421416 85.50635884689758 l 9.281331485608284 -8.852042799817855 a33.82582456903067,33.82582456903067 0 0,0 0.39823091403613164,0.4248049732462419 l -9.43232972161488 8.690968409693559" fill="#ff6c0a" stroke="none" /><path d="M 115.4437574822437 85.77008943001954 l 31.67243622138117 -29.183049234090035 a64.0673145064419,64.0673145064419 0 0,0 0.7403019663638399,0.8174599213869664 l -32.17008182836105 28.63353652543352" fill="#32ff4b" stroke="none" /><path d="M 116.15771136456269 86.58626213691792 l 8.743772800599032 -7.258866904802934 a32.36418547587722,32.36418547587722 0 0,0 0.35215548495032056,0.4317009852158471 l -8.867426777625761 7.107281749978987" fill="#ff5608" stroke="none" /><path d="M 116.38621287248628 86.86637796730983 l 9.68194244944215 -7.760119660519082 a33.408040406925046,33.408040406925046 0 0,0 0.3557891386838453,0.4518160751757592 l -9.81408566871996 7.592311191390284" fill="#ff6609" stroke="none" /><path d="M 116.60985879189232 87.15038557335679 l 11.605858120370803 -8.978450919154431 a35.67339509513194,35.67339509513194 0 0,0 0.37155380005697397,0.48892124782808744 l -11.758687860651891 8.77734489544531" fill="#ff870c" stroke="none" /><path d="M 116.82858285166822 87.43820079747576 l 9.073619796620857 -6.773059319959388 a32.3227606512422,32.3227606512422 0 0,0 0.328980115140184,0.4487285073359214 l -9.188862524274668 6.615868368951972" fill="#ff5607" stroke="none" /><path d="M 117.04232023915458 87.72973835380427 l 32.10082372665899 -23.11219955130085 a60.55548826685349,60.55548826685349 0 0,0 0.6017698191860172,0.8511607331354372 l -32.49390616564889 22.55621231783362" fill="#3eff2d" stroke="none" /><path d="M 117.45458315368197 88.32363383020206 l 9.69121277485294 -6.483004950177585 a32.65971518655151,32.65971518655151 0 0,0 0.30856178006017604,0.46996076023856653 l -9.801371190271041 6.3152261259613445" fill="#ff5b08" stroke="none" /><path d="M 117.65298651832404 88.62581576622439 l 9.493195434436913 -6.116662114166404 a32.29310918105782,32.29310918105782 0 0,0 0.2970541678665113,0.4698683558521039 l -9.59707719854938 5.952346110600094" fill="#ff5507" stroke="none" /><line stroke="#e1ed5e" stroke-width="0.3" x1="172.23445277983987" x2="176.4835382374775" y1="55.19839476539836" y2="52.563006222186495" /><path d="M 173.08426987136738 54.67131705675599 a86.0,86.0 0 0,1 12.851231095245387,41.99856678651699" fill="none" id="id15" stroke="none" /><text fill="#e1ed5e" style="font-size:6.75px; font-family:Arial;" text-anchor="middle"><textPath startOffset="22.20632615414155" xlink:href="#id15">March</textPath></text><path d="M 117.84615892207809 88.93136811851018 l 10.265619951807144 -6.366992963469552 a33.07979935229935,33.07979935229935 0 0,0 0.2959605568646976,0.4864813378968358 l -10.373696306958067 6.189343852365635" fill="#ff6108" stroke="none" /><path d="M 118.03404312379186 89.2402003453031 l 12.589387201574931 -7.5113097564707205 a35.65989237234813,35.65989237234813 0 0,0 0.3099699220000724,0.5298390749246148 l -12.716816798045333 7.29349126919221" fill="#ff870c" stroke="none" /><path d="M 118.21658344932153 89.55222093294921 l 51.63287142415296 -29.61306299492081 a80.52215479503627,80.52215479503627 0 0,0 0.6792325918385025,1.2082789900713826 l -52.13496165728389 28.719900494914633" fill="#48f5ff" stroke="none" /><path d="M 118.73160827565052 90.50648371742162 l 13.535847460217536 -6.860211166657543 a36.175034224587776,36.175034224587776 0 0,0 0.2767217632975142,0.5578541890169084 l -13.651929236468458 6.6261973891416845" fill="#ff8e0d" stroke="none" /><path d="M 118.89224826269711 90.83032412892265 l 14.73959415143021 -7.154114161558602 a37.384046666971166,37.384046666971166 0 0,0 0.27600429127387066,0.5813354272927339 l -14.860556636545835 6.899336318625328" fill="#ffa00e" stroke="none" /><path d="M 119.04729006885535 91.15688171328212 l 11.031731097560227 -5.121720866870366 a33.16269360162512,33.16269360162512 0 0,0 0.23592521844463005,0.5198299457699589 l -11.118258632968203 4.931068912258344" fill="#ff6209" stroke="none" /><path d="M 119.196687751892 91.48605970444005 l 9.87881520692583 -4.381362240699394 a31.806818448406332,31.806818448406332 0 0,0 0.2176635857801524,0.5023975660626192 l -9.952769502548664 4.210665530050171" fill="#ff4e07" stroke="none" /><path d="M 119.34039704204932 91.81776055985345 l 12.509731699792205 -5.292425997105868 a34.58319403290802,34.58319403290802 0 0,0 0.2272252749879987,0.5502440267305788 l -12.5989786616664 5.076307399921986" fill="#ff770b" stroke="none" /><path d="M 119.47837535516314 92.15188598940014 l 34.3471656627682 -13.8389607524897 a58.03032033043453,58.03032033043453 0 0,0 0.36533250714831134,0.9297313819710044 l -34.580291719798204 13.245680365622912" fill="#5aff2a" stroke="none" /><path d="M 119.7369772167798 92.82701384747503 l 14.270317340490532 -5.1862444563421475 a36.18351370925862,36.18351370925862 0 0,0 0.20770529062510223,0.5872108264924033 l -14.357475711925444 4.939836003423129" fill="#ff8e0d" stroke="none" /><path d="M 119.85752413597 93.16781622104841 l 9.98063710799038 -3.4339400262540942 a31.554859600454407,31.554859600454407 0 0,0 0.17229359983047357,0.5151359335498007 l -10.038268001592623 3.2616309897819793" fill="#ff4a06" stroke="none" /><path d="M 119.97218684219823 93.5106431181261 l 12.95234832516552 -4.208473083315574 a34.61890497908733,34.61890497908733 0 0,0 0.17926743211549,0.5683267490495223 l -13.022871241049215 3.984896167839633" fill="#ff780b" stroke="none" /><path d="M 120.18372546131832 94.20196356495316 l 12.837357799209348 -3.68769721884074 a34.35652896686736,34.35652896686736 0 0,0 0.15838888197203438,0.5698090806152026 l -12.898933451747746 3.4661768348065856" fill="#ff740a" stroke="none" /><path d="M 120.28053869075195 94.5502522615342 l 34.03591502527823 -9.146066273880948 a56.24335454939247,56.24335454939247 0 0,0 0.24319537623828263,0.9371309902836072 l -34.18830673338682 8.558838858048489" fill="#6eff28" stroke="none" /><path d="M 120.45610955862082 95.25157060432595 l 13.263787073312207 -3.078892213418685 a34.61644684886679,34.61644684886679 0 0,0 0.1297385080500688,0.5815922924235031 l -13.314819968364313 2.850121751445218" fill="#ff780b" stroke="none" /><path d="M 120.53481517161879 95.60439243477599 l 14.393376480913664 -3.0809936208271242 a35.719436409485795,35.719436409485795 0 0,0 0.12352241055125492,0.6023391419391378 l -14.444278187379917 2.832778822724575" fill="#ff880c" stroke="none" /><path d="M 120.6074358757038 95.95851677861258 l 11.62653891897567 -2.280170237930843 a32.8480202375081,32.8480202375081 0 0,0 0.10404106129010207,0.5557915096352393 l -11.66406570417563 2.079700650833041" fill="#ff5e08" stroke="none" /><path d="M 120.67395015179393 96.31383870115 l 8.308654756541753 -1.4814315302202912 a29.43969094470495,29.43969094470495 0 0,0 0.08465753017003232,0.49965353525154194 l -8.332924148232008 1.3381922066529115" fill="#ff2a04" stroke="none" /><path d="M 120.73433829027371 96.67025291283417 l 9.787566013541756 -1.571794525958982 a30.912970619409315,30.912970619409315 0 0,0 0.07984983201843003,0.5261106256178274 l -9.813171738999486 1.4030847879490724" fill="#ff4006" stroke="none" /><path d="M 120.78858239683441 97.02765380044208 l 32.29728896214889 -4.617858123759569 a53.625748848964626,53.625748848964626 0 0,0 0.1227876456275169,0.914910581220522 l -32.37199260683424 4.061229200474382" fill="#8cff24" stroke="none" /><path d="M 120.87857604477298 97.74499172005257 l 13.454851270222159 -1.4532026013051818 a34.53310091975372,34.53310091975372 0 0,0 0.0587438868552036,0.5915429238804093 l -13.477872282759591 1.2213841467203375" fill="#ff760a" stroke="none" /><path d="M 120.91429891909075 98.10471618934814 l 8.625142221787607 -0.7816227778308233 a29.66048569728553,29.66048569728553 0 0,0 0.04170195954175469,0.508869533599524 l -8.637318665148857 0.6330393270235305" fill="#ff2d04" stroke="none" /><path d="M 120.94382443527127 98.46500227214037 l 12.109649831604566 -0.8875305956721291 a33.14213035683338,33.14213035683338 0 0,0 0.03680261394171305,0.5693201484558076 l -12.123133036550694 0.6789513829632863" fill="#ff6209" stroke="none" /><path d="M 120.98425023603335 99.18683210126433 l 8.482699235400785 -0.3287159958192253 a29.489065939440952,29.489065939440952 0 0,0 0.015289807626964916,0.5073942784986991 l -8.487100737483395 0.1826515698955271" fill="#ff2b04" stroke="none" /><line stroke="#e1ed5e" stroke-width="0.3" x1="184.98032266829074" x2="189.97916517819016" y1="98.17113171792111" y2="98.06355123074" /><path d="M 185.9800911702706 98.14961562048488 a86.0,86.0 0 0,1 -9.607161424134198,41.387399972396054" fill="none" id="id16" stroke="none" /><text fill="#e1ed5e" style="font-size:6.75px; font-family:Arial;" text-anchor="middle"><textPath startOffset="21.466115282336823" xlink:href="#id16">April</textPath></text><path d="M 120.99513854157772 99.54816195383933 l 40.87091255402032 -0.879586159274008 a61.880376280190504,61.880376280190504 0 0,0 0.013752155983463453,1.0651196363268687 l -40.879997717121505 0.17593026488667646" fill="#30ff2f" stroke="none" /><path d="M 120.9764740272857 100.99374915477107 l 10.183596020631908 0.4824423744843461 a31.19501733966785,31.19501733966785 0 0,0 -0.03002691116959453,0.5361506698710965 l -10.173782758574784 -0.6576647606908659" fill="#ff4506" stroke="none" /><path d="M 120.92983693683757 101.71520430193887 l 19.29839160991377 1.5815070327454976 a40.363085581182915,40.363085581182915 0 0,0 -0.06270771250424056,0.6919743821348898 l -19.268309301132454 -1.913462803428958" fill="#ffc912" stroke="none" /><path d="M 120.76222939487914 103.15116336523771 l 16.843790967153538 2.556446902590681 a38.03668732209782,38.03668732209782 0 0,0 -0.10381886605766043,0.646480178043898 l -16.797290346734588 -2.846006310327784" fill="#ffa90f" stroke="none" /><path d="M 120.70491114924044 103.5080841355445 l 13.306227085965862 2.254506856260612 a34.49586901345066,34.49586901345066 0 0,0 -0.1042326482621326,0.5845920456690515 l -13.265447995364541 -2.4832176526628817" fill="#ff760a" stroke="none" /><path d="M 120.32669344350535 105.2749913415812 l 12.151888646315989 3.153543274086075 a33.55441089235162,33.55441089235162 0 0,0 -0.14989542062047279,0.5578166225939568 l -12.09580514935374 -3.36225082985558" fill="#ff6809" stroke="none" /><path d="M 120.23288151984713 105.62410040840565 l 14.280584362559837 3.96955027226152 a35.82202479758417,35.82202479758417 0 0,0 -0.17025246840226832,0.5926711775338147 l -14.21013925727147 -4.214778925299917" fill="#ff890c" stroke="none" /><path d="M 119.41010516605496 108.01547362559984 l 10.312663750469287 4.258652057492515 a32.15738100886711,32.15738100886711 0 0,0 -0.21568264583447674,0.5098100631290947 l -10.237830123442503 -4.435536646287773" fill="#ff5307" stroke="none" /><path d="M 119.26925614724726 108.34839909993367 l 9.481909694984392 4.108034360971861 a31.333564620921692,31.333564620921692 0 0,0 -0.21867682106404038,0.49305850250464 l -9.409791789189079 -4.270641199969189" fill="#ff4706" stroke="none" /><line stroke="#e1ed5e" stroke-width="0.3" x1="174.80103733775053" x2="179.2010983576182" y1="140.37084112569926" y2="142.7455964860345" /><path d="M 175.68104954172406 140.8457921977663 a86.0,86.0 0 0,1 -30.038265399797805,32.042727171017184" fill="none" id="id17" stroke="none" /><text fill="#e1ed5e" style="font-size:6.75px; font-family:Arial;" text-anchor="middle"><textPath startOffset="22.206326154141568" xlink:href="#id17">May</textPath></text><path d="M 118.30583269289576 110.29060199501025 l 8.439226241001508 4.744100956723818 a30.68127230452673,30.68127230452673 0 0,0 -0.2627602656892578,0.4581446713579285 l -8.356313979159872 -4.888665473940062" fill="#ff3d05" stroke="none" /><path d="M 118.12598468904814 110.60418214915192 l 25.488289867189437 14.911326091175999 a50.52965570661564,50.52965570661564 0 0,0 -0.4456694562499726,0.7469676435341823 l -25.227839535241237 -15.347855828596286" fill="#b1ff20" stroke="none" /><path d="M 117.35343817320211 111.8261652097733 l 24.001284810621282 16.356594963155597 a50.04479077819785,50.04479077819785 0 0,0 -0.49124703677516174,0.7076779954099198 l -23.716176866683984 -16.767314220752535" fill="#b7ff1f" stroke="none" /><path d="M 116.93607887273984 112.41649034213515 l 17.789917915674668 13.042472560923844 a43.05872321665272,43.05872321665272 0 0,0 -0.4433792269569341,0.5939789305065493 l -17.56277742202264 -13.34676437093971" fill="#ffee16" stroke="none" /><path d="M 116.71984013943494 112.70617746262583 l 6.930406307142711 5.266735309206889 a29.70454090686752,29.70454090686752 0 0,0 -0.3128781879174338,0.4044372342874525 l -6.838721302007208 -5.385250537607594" fill="#ff2e04" stroke="none" /><path d="M 116.498646956653 112.99209946851258 l 14.285166993807655 11.249062483455456 a39.18261265048719,39.18261265048719 0 0,0 -0.42183270853181126,0.5263011636374846 l -14.08941637322099 -11.493291480671191" fill="#ffb911" stroke="none" /><path d="M 115.80600337817218 113.82643327865902 l 28.460435235160997 24.896003084750408 a58.812793382276,58.812793382276 0 0,0 -0.6731016388995624,0.7562368268051405 l -28.027674746613098 -25.382214081296414" fill="#51ff2b" stroke="none" /><path d="M 115.07121518719521 114.62390073753431 l 6.2240908686810394 6.039359528375524 a29.6725527184664,29.6725527184664 0 0,0 -0.35883918768516165,0.36350220260406435 l -6.119211055940342 -6.145602224960253" fill="#ff2d04" stroke="none" /><path d="M 114.55890576462653 115.13401014063108 l 6.411156390753048 6.66440922136962 a30.24755516537047,30.24755516537047 0 0,0 -0.37833089710619294,0.35773547743785794 l -6.295489659256048 -6.7737793355533995" fill="#ff3605" stroke="none" /><path d="M 112.92097659922987 116.55440617244103 l 5.320043159669518 6.816060275609117 a29.64647540339317,29.64647540339317 0 0,0 -0.4049867664122744,0.31052658296328595 l -5.201927664763749 -6.906626200399774" fill="#ff2d04" stroke="none" /><path d="M 112.34349029814194 116.9893568818739 l 14.887556105837467 20.49096306407491 a46.32822327163397,46.32822327163397 0 0,0 -0.649196669436058,0.4631845864019871 l -14.532632108552525 -20.74419191232112" fill="#e5ff1a" stroke="none" /><path d="M 111.1453310114006 117.79835938074945 l 4.83819725703457 7.726282283368097 a30.11611708021922,30.11611708021922 0 0,0 -0.44173287990387555,0.2713484136154451 l -4.704485177198385 -7.808419163811921" fill="#ff3405" stroke="none" /><line stroke="#e1ed5e" stroke-width="0.3" x1="143.8653032363475" x2="146.44561519142675" y1="172.8068346515853" y2="177.08958963109032" /><path d="M 144.38136562736335 173.6633856474863 a86.0,86.0 0 0,1 -40.68145358897372,12.25698825130547" fill="none" id="id18" stroke="none" /><text fill="#e1ed5e" style="font-size:6.75px; font-family:Arial;" text-anchor="middle"><textPath startOffset="21.466115282336833" xlink:href="#id18">June</textPath></text><path d="M 110.8373102113329 117.98757091392108 l 5.698449570563046 9.458183234684668 a32.04217177955135,32.04217177955135 0 0,0 -0.4748834923725744,0.2805695377920396 l -5.53479820716209 -9.554871344770458" fill="#ff5107" stroke="none" /><path d="M 110.21172684928248 118.3499491758327 l 4.60820984168803 8.280716634375006 a30.476595692749868,30.476595692749868 0 0,0 -0.4605988687990955,0.2511552279603942 l -4.464988161020286 -8.35881251409517" fill="#ff3a05" stroke="none" /><path d="M 108.59647513512805 119.15986991738527 l 5.222095740387226 11.639035012512792 a33.756857761387366,33.756857761387366 0 0,0 -0.5321998901578237,0.23330079193211975 l -5.020975175571648 -11.727200357739367" fill="#ff6b09" stroke="none" /><path d="M 106.57524785965236 119.94407469862006 l 1.8041252524610611 5.472281740365076 a26.762007928882145,26.762007928882145 0 0,0 -0.4387422901152921,0.14047142627004955 l -1.7096616172548287 -5.5025260132948315" fill="#ff0000" stroke="none" /><path d="M 106.2309692047433 120.05430185196036 l 18.692907614229917 60.16290555588107 a84.0,84.0 0 0,0 -1.3845001022390167,0.4171385235770977 l -17.654532537550654 -60.47575944856389" fill="#4dd2ff" stroke="none" /><path d="M 104.13013068566511 120.58985236759428 l 1.6368778114029046 8.16029202115893 a29.322844155699016,29.322844155699016 0 0,0 -0.49574091943523707,0.09500992708309565 l -1.4961692773959632 -8.187259146590494" fill="#ff2803" stroke="none" /><path d="M 103.06178313531738 120.77559828337769 l 4.993118868349621 33.88059415228055 a55.24654575493733,55.24654575493733 0 0,0 -0.9420099271681733,0.1305539922915037 l -4.409180349994617 -33.961522710064656" fill="#79ff26" stroke="none" /><line stroke="#e1ed5e" stroke-width="0.3" x1="102.19456741930631" x2="102.32365962044197" y1="184.97166512339345" y2="189.96999836594603" /><path d="M 102.22038585953345 185.97133177190398 a86.0,86.0 0 0,1 -42.740103519485714,-10.115201625700543" fill="none" id="id19" stroke="none" /><text fill="#e1ed5e" style="font-size:6.75px; font-family:Arial;" text-anchor="middle"><textPath startOffset="22.20632615414155" xlink:href="#id19">July</textPath></text><line stroke="#e1ed5e" stroke-width="0.3" x1="58.666819895761336" x2="56.23545636021788" y1="174.27360380694188" y2="178.64263932499728" /><path d="M 58.180547188652646 175.14741091055294 a86.0,86.0 0 0,1 -31.652253787137756,-30.449443065178592" fill="none" id="id20" stroke="none" /><text fill="#e1ed5e" style="font-size:6.75px; font-family:Arial;" text-anchor="middle"><textPath startOffset="22.20632615414155" xlink:href="#id20">August</textPath></text><line stroke="#e1ed5e" stroke-width="0.3" x1="26.63291911575756" x2="22.317208475507996" y1="142.92168965132927" y2="145.44649492493687" /><path d="M 25.769776987707644 143.4266507060508 a86.0,86.0 0 0,1 -11.730757126820373,-40.83630448921669" fill="none" id="id21" stroke="none" /><text fill="#e1ed5e" style="font-size:6.75px; font-family:Arial;" text-anchor="middle"><textPath startOffset="21.46611528233685" xlink:href="#id21">September</textPath></text><line stroke="#e1ed5e" stroke-width="0.3" x1="15.007084014347285" x2="10.007500721073583" y1="101.09737516637583" y2="101.16192664675087" /><path d="M 14.007167355692545 101.11028546245083 a86.0,86.0 0 0,1 10.666146001902534,-42.60595125391555" fill="none" id="id22" stroke="none" /><text fill="#e1ed5e" style="font-size:6.75px; font-family:Arial;" text-anchor="middle"><textPath startOffset="22.20632615414155" xlink:href="#id22">October</textPath></text><line stroke="#e1ed5e" stroke-width="0.3" x1="26.266209847984243" x2="21.928928074336255" y1="57.711370442889674" y2="55.22380399835377" /><path d="M 25.398753493254645 57.213857153982495 a86.0,86.0 0 0,1 29.58750427330803,-30.492523968695096" fill="none" id="id23" stroke="none" /><text fill="#e1ed5e" style="font-size:6.75px; font-family:Arial;" text-anchor="middle"><textPath startOffset="21.46611528233685" xlink:href="#id23">November</textPath></text><line stroke="#e1ed5e" stroke-width="0.3" x1="56.762969772571076" x2="54.21961505331055" y1="26.818313649435495" y2="22.513508569990535" /><path d="M 56.25429882871897 25.957352633546506 a86.0,86.0 0 0,1 42.265352541879196,-11.944610805530505" fill="none" id="id24" stroke="none" /><text fill="#e1ed5e" style="font-size:6.75px; font-family:Arial;" text-anchor="middle"><textPath startOffset="22.20632615414155" xlink:href="#id24">December</textPath></text></svg>