<?xml version="1.0" encoding="utf-8" ?>
<svg baseProfile="full" height="200mm" version="1.1" viewBox="0,0,200,200" width="200mm" xmlns="http://www.w3.org/2000/svg" xmlns:ev="http://www.w3.org/2001/xml-events" xmlns:xlink="http://www.w3.org/1999/xlink"><defs /><rect fill="#1a1a1a" height="200" width="200" x="0" y="0" /><text alignment-baseline="middle" fill="#e1ed5e" style="dominant-baseline: central; font-size:9.0px; font-family:Arial;" text-anchor="middle" x="100.0" y="100.0">2023</text><line stroke="#e1ed5e" stroke-width="0.3" x1="100.0" x2="100.0" y1="15.0" y2="10.0" /><path d="M 100.0 14.0 a86.0,86.0 0 0,1 42.46469731375804,11.215312516191453" fill="none" id="id13" stroke="none" /><text fill="#e1ed5e" style="font-size:6.75px; font-family:Arial;" text-anchor="middle"><textPath startOffset="22.20632615414155" xlink:href="#id13">January</textPath></text><path d="M 100.36148047927253 79.00311137660856 l 0.6221708742861519 -36.139302953218184 a57.14465817435952,57.14465817435952 0 0,0 0.9833598764336858,0.025397284414052597 l -1.2441573859147055 36.12323887666177" fill="#ff6a09" stroke="none" /><path d="M 100.72285384407766 79.0124445844662 l 1.2239396548060342 -35.536231204922785 a56.55730243604448,56.55730243604448 0 0,0 0.9726756319098407,0.041885458787580446 l -1.8354561191052066 35.509898019611015" fill="#ff5a08" stroke="none" /><path d="M 101.08401301168833 79.027996857942 l 2.282744119745979 -44.16341532401415 a65.22237186987603,65.22237186987603 0 0,0 1.1207003350165237,0.0676037047080583 l -3.0426065036021144 44.117578349925786" fill="#c6ff1e" stroke="none" /><path d="M 101.44485096284872 79.0497635885617 l 2.2385642637969285 -32.459022940522814 a53.53612362000942,53.53612362000942 0 0,0 0.9188068655315185,0.0713170962721769 l -2.796961318690788 32.41568058206217" fill="#ff0300" stroke="none" /><path d="M 101.80526077348638 79.07773832637324 l 3.5394193798947593 -41.02047722216393 a62.172892066028645,62.172892066028645 0 0,0 1.0654505538425725,0.10117736820348217 l -4.244995060827576 40.95347430944527" fill="#ffef16" stroke="none" /><path d="M 102.88285421437855 79.19881850522331 l 5.252663174011069 -37.90049440189498 a59.26274880778542,59.26274880778542 0 0,0 1.0092474894632746,0.148736845045393 l -5.904279643902998 37.80446307268862" fill="#ffa40f" stroke="none" /><path d="M 103.59715602781102 79.31037775812273 l 5.926826758518428 -34.0890986598144 a55.60049021132576,55.60049021132576 0 0,0 0.9415145518198973,0.1720557663355228 l -6.512736431441226 33.98202741212814" fill="#ff3f05" stroke="none" /><path d="M 104.307194497241 79.44645832069477 l 8.233731424443825 -39.29061994226497 a61.14407987010517,61.14407987010517 0 0,0 1.0282607943364501,0.22473798272952936 l -8.908834942933803 39.14306846143957" fill="#ffd513" stroke="none" /><path d="M 104.66035177308747 79.52364482259891 l 12.167696155437861 -53.46164416347951 a75.82882660055347,75.82882660055347 0 0,0 1.2702278592143248,0.3006218948598722 l -13.08614770161471 53.24427635647877" fill="#38ff84" stroke="none" /><path d="M 105.71112130821622 79.79150937346287 l 9.622007505901129 -34.046947700399166 a56.380470264784975,56.380470264784975 0 0,0 0.9316464148206584,0.2719731359129555 l -10.206644138445213 33.87627623556751" fill="#ff5507" stroke="none" /><path d="M 106.0581310904928 79.89281104454417 l 10.328136942097418 -34.27951590193865 a56.801614812267644,56.801614812267644 0 0,0 0.9337499184212534,0.2901206449151833 l -10.916672233229388 34.096655122140945" fill="#ff6108" stroke="none" /><path d="M 106.40334571778207 80.00007090966166 l 10.169250150561691 -31.76218977968796 a54.35041751201345,54.35041751201345 0 0,0 0.8885443785795595,0.29293911157811386 l -10.714477351383668 31.58243694385061" fill="#ff1b02" stroke="none" /><path d="M 108.09893153111575 80.62456947434976 l 13.685776709305506 -32.74108625340856 a56.48632431219255,56.48632431219255 0 0,0 0.8938725253173992,0.38270956603741146 l -14.24733299241322 32.50065715940836" fill="#ff5808" stroke="none" /><path d="M 108.43124777332544 80.76684994638697 l 14.653747546732346 -33.42775980392108 a57.49859507805754,57.49859507805754 0 0,0 0.9030507057038741,0.4051725283530837 l -15.226980370903 33.17056694505146" fill="#ff740a" stroke="none" /><path d="M 109.08828744355905 81.06846463323043 l 14.038195578945682 -29.242538568340276 a53.43758617766739,53.43758617766739 0 0,0 0.8258110541075838,0.40522189779256 l -14.539477900063698 28.996561510412885" fill="#ff0000" stroke="none" /><path d="M 109.41281617654863 81.2277094730956 l 28.23844852964587 -56.31687158071319 a84.0,84.0 0 0,0 1.2869580496449777,0.6592298987499978 l -29.203667066879603 55.82244915665069" fill="#4dd2ff" stroke="none" /><path d="M 109.73455568895987 81.39251694778311 l 27.575870861361214 -52.710936800622164 a80.48841494073997,80.48841494073997 0 0,0 1.2221014190923634,0.6528042540267653 l -28.47911732698189 52.22845382009365" fill="#44ffe8" stroke="none" /><line stroke="#e1ed5e" stroke-width="0.3" x1="143.23703022742887" x2="145.7803849466894" y1="26.81831364943548" y2="22.513508569990506" /><path d="M 143.74570117128098 25.957352633546492 a86.0,86.0 0 0,1 28.547481713284135,27.462654790039103" fill="none" id="id14" stroke="none" /><text fill="#e1ed5e" style="font-size:6.75px; font-family:Arial;" text-anchor="middle"><textPath startOffset="19.985693538727396" xlink:href="#id14">February</textPath></text><line stroke="#e1ed5e" stroke-width="0.3" x1="172.23445277983987" x2="176.4835382374775" y1="55.19839476539836" y2="52.563006222186495" /><path d="M 173.08426987136738 54.67131705675599 a86.0,86.0 0 0,1 12.851231095245387,41.99856678651699" fill="none" id="id15" stroke="none" /><text fill="#e1ed5e" style="font-size:6.75px; font-family:Arial;" text-anchor="middle"><textPath startOffset="22.20632615414155" xlink:href="#id15">March</textPath></text><line stroke="#e1ed5e" stroke-width="0.3" x1="184.98032266829074" x2="189.97916517819016" y1="98.17113171792111" y2="98.06355123074" /><path d="M 185.9800911702706 98.14961562048488 a86.0,86.0 0 0,1 -9.607161424134198,41.387399972396054" fill="none" id="id16" stroke="none" /><text fill="#e1ed5e" style="font-size:6.75px; font-family:Arial;" text-anchor="middle"><textPath startOffset="21.466115282336823" xlink:href="#id16">April</textPath></text><line stroke="#e1ed5e" stroke-width="0.3" x1="174.80103733775053" x2="179.2010983576182" y1="140.37084112569926" y2="142.7455964860345" /><path d="M 175.68104954172406 140.8457921977663 a86.0,86.0 0 0,1 -30.038265399797805,32.042727171017184" fill="none" id="id17" stroke="none" /><text fill="#e1ed5e" style="font-size:6.75px; font-family:Arial;" text-anchor="middle"><textPath startOffset="22.206326154141568" xlink:href="#id17">May</textPath></text><line stroke="#e1ed5e" stroke-width="0.3" x1="143.8653032363475" x2="146.44561519142675" y1="172.8068346515853" y2="177.08958963109032" /><path d="M 144.38136562736335 173.6633856474863 a86.0,86.0 0 0,1 -40.68145358897372,12.25698825130547" fill="none" id="id18" stroke="none" /><text fill="#e1ed5e" style="font-size:6.75px; font-family:Arial;" text-anchor="middle"><textPath startOffset="21.466115282336833" xlink:href="#id18">June</textPath></text><line stroke="#e1ed5e" stroke-width="0.3" x1="102.19456741930631" x2="102.32365962044197" y1="184.97166512339345" y2="189.96999836594603" /><path d="M 102.22038585953345 185.97133177190398 a86.0,86.0 0 0,1 -42.740103519485714,-10.115201625700543" fill="none" id="id19" stroke="none" /><text fill="#e1ed5e" style="font-size:6.75px; font-family:Arial;" text-anchor="middle"><textPath startOffset="22.20632615414155" xlink:href="#id19">July</textPath></text><line stroke="#e1ed5e" stroke-width="0.3" x1="58.666819895761336" x2="56.23545636021788" y1="174.27360380694188" y2="178.64263932499728" /><path d="M 58.180547188652646 175.14741091055294 a86.0,86.0 0 0,1 -31.652253787137756,-30.449443065178592" fill="none" id="id20" stroke="none" /><text fill="#e1ed5e" style="font-size:6.75px; font-family:Arial;" text-anchor="middle"><textPath startOffset="22.20632615414155" xlink:href="#id20">August</textPath></text><line stroke="#e1ed5e" stroke-width="0.3" x1="26.63291911575756" x2="22.317208475507996" y1="142.92168965132927" y2="145.44649492493687" /><path d="M 25.769776987707644 143.4266507060508 a86.0,86.0 0 0,1 -11.730757126820373,-40.83630448921669" fill="none" id="id21" stroke="none" /><text fill="#e1ed5e" style="font-size:6.75px; font-family:Arial;" text-anchor="middle"><textPath startOffset="21.46611528233685" xlink:href="#id21">September</textPath></text><line stroke="#e1ed5e" stroke-width="0.3" x1="15.007084014347285" x2="10.007500721073583" y1="101.09737516637583" y2="101.16192664675087" /><path d="M 14.007167355692545 101.11028546245083 a86.0,86.0 0 0,1 10.666146001902534,-42.60595125391555" fill="none" id="id22" stroke="none" /><text fill="#e1ed5e" style="font-size:6.75px; font-family:Arial;" text-anchor="middle"><textPath startOffset="22.20632615414155" xlink:href="#id22">October</textPath></text><line stroke="#e1ed5e" stroke-width="0.3" x1="26.266209847984243" x2="21.928928074336255" y1="57.711370442889674" y2="55.22380399835377" /><path d="M 25.398753493254645 57.213857153982495 a86.0,86.0 0 0,1 29.58750427330803,-30.492523968695096" fill="none" id="id23" stroke="none" /><text fill="#e1ed5e" style="font-size:6.75px; font-family:Arial;" text-anchor="middle"><textPath startOffset="21.46611528233685" xlink:href="#id23">November</textPath></text><line stroke="#e1ed5e" stroke-width="0.3" x1="56.762969772571076" x2="54.21961505331055" y1="26.818313649435495" y2="22.513508569990535" /><path d="M 56.25429882871897 25.957352633546506 a86.0,86.0 0 0,1 42.265352541879196,-11.944610805530505" fill="none" id="id24" stroke="none" /><text fill="#e1ed5e" style="font-size:6.75px; font-family:Arial;" text-anchor="middle"><textPath startOffset="22.20632615414155" xlink:href="#id24">December</textPath></text></svg>