<?xml version="1.0" encoding="utf-8" ?>
<svg baseProfile="full" height="200mm" version="1.1" viewBox="0,0,200,200" width="200mm" xmlns="http://www.w3.org/2000/svg" xmlns:ev="http://www.w3.org/2001/xml-events" xmlns:xlink="http://www.w3.org/1999/xlink"><defs /><rect fill="#1a1a1a" height="200" width="200" x="0" y="0" /><text alignment-baseline="middle" fill="#e1ed5e" style="dominant-baseline: central; font-size:9.0px; font-family:Arial;" text-anchor="middle" x="100.0" y="100.0">2023</text><line stroke="#e1ed5e" stroke-width="0.3" x1="100.0" x2="100.0" y1="15.0" y2="10.0" /><path d="M 100.0 14.0 a86.0,86.0 0 0,1 42.46469731375804,11.215312516191453" fill="none" id="id13" stroke="none" /><text fill="#e1ed5e" style="font-size:6.75px; font-family:Arial;" text-anchor="middle"><textPath startOffset="22.20632615414155" xlink:href="#id13">January</textPath></text><path d="M 100.36148047927253 79.00311137660856 l 0.16538955217216744 -9.606787103470296 a30.608210663561188,30.608210663561188 0 0,0 0.5267139084835921,0.013603466298736221 l -0.33073009585062735 9.602516845029202" fill="#ff1001" stroke="none" /><path d="M 100.72285384407766 79.0124445844662 l 0.3253556856488688 -9.446474606533338 a30.452075899719766,30.452075899719766 0 0,0 0.5237164944742709,0.022552333918972357 l -0.4879130125124712 9.439474546090171" fill="#ff0e01" stroke="none" /><path d="M 101.08401301168833 79.027996857942 l 0.6068140494709094 -11.739809407202769 a32.75548162382477,32.75548162382477 0 0,0 0.5628295656386987,0.03395141642019969 l -0.80880566394922 11.727624721402265" fill="#ff3304" stroke="none" /><path d="M 101.44485096284872 79.0497635885617 l 0.5950698697086729 -8.628470875044725 a29.64896628455275,29.64896628455275 0 0,0 0.5088465868675232,0.03949628848540087 l -0.7435066459385373 8.616949324370859" fill="#ff0000" stroke="none" /><path d="M 101.80526077348638 79.07773832637324 l 0.9408717289473317 -10.90433293819214 a31.94484885401687,31.94484885401687 0 0,0 0.5474356391171752,0.05198561024433142 l -1.128432495154751 10.88652178343263" fill="#ff2603" stroke="none" /><path d="M 102.88285421437855 79.19881850522331 l 1.39629745776459 -10.074958593047512 a31.171255440808757,31.171255440808757 0 0,0 0.530847993553107,0.07823319511228707 l -1.5695144317463525 10.049430913774255" fill="#ff1a02" stroke="none" /><path d="M 103.59715602781102 79.31037775812273 l 1.5755080539860613 -9.061788319436003 a30.197729783726075,30.197729783726075 0 0,0 0.5113552401290111,0.09344690163313836 l -1.7312584152179733 9.033325936452126" fill="#ff0a01" stroke="none" /><path d="M 104.307194497241 79.44645832069477 l 2.188744618682283 -10.444490903361254 a31.671363232324474,31.671363232324474 0 0,0 0.5326177314986584,0.1164096065922947 l -2.3682050743344694 10.405267798673089" fill="#ff2203" stroke="none" /><path d="M 104.66035177308747 79.52364482259891 l 3.234496986738267 -14.211525727125231 a35.57495915088482,35.57495915088482 0 0,0 0.5959251412646237,0.14103622736822732 l -3.478645814965414 14.153743587616134" fill="#ff6008" stroke="none" /><path d="M 105.71112130821622 79.79150937346287 l 2.5577852936688683 -9.050583474289063 a30.40506920939889,30.40506920939889 0 0,0 0.5024217355456018,0.14667068191688487 l -2.713197246937897 9.005214463453475" fill="#ff0d01" stroke="none" /><path d="M 106.0581310904928 79.89281104454417 l 2.7454932627410042 -9.112406282607168 a30.51702062176261,30.51702062176261 0 0,0 0.5016629476152907,0.15586911979417123 l -2.901941583067013 9.063797027930475" fill="#ff0f01" stroke="none" /><path d="M 106.40334571778207 80.00007090966166 l 2.703256931237514 -8.44323410300614 a29.86542724037875,29.86542724037875 0 0,0 0.48825305679482184,0.1609693563212013 l -2.848192810274753 8.395451022425704" fill="#ff0400" stroke="none" /><path d="M 108.09893153111575 80.62456947434976 l 3.63804313996107 -8.703450799259109 a30.43320802820238,30.43320802820238 0 0,0 0.4815928252532297,0.2061929144694866 l -3.787319723004615 8.639538356826831" fill="#ff0d01" stroke="none" /><path d="M 108.43124777332544 80.76684994638697 l 3.895355511745469 -8.885986876888975 a30.702296498207467,30.702296498207467 0 0,0 0.4821983994877895,0.21634836610420005 l -4.047736029700038 8.817618180268243" fill="#ff1202" stroke="none" /><path d="M 109.08828744355905 81.06846463323043 l 3.7317254408140075 -7.773443852935401 a29.622772413809706,29.622772413809706 0 0,0 0.457782895194857,0.22463207854283063 l -3.864979603019296 7.708056614257738" fill="#ff0000" stroke="none" /><path d="M 109.41281617654863 81.2277094730956 l 7.506530037609767 -14.970521050440192 a37.747074184083935,37.747074184083935 0 0,0 0.5783202496637256,0.29623809395812273 l -7.763110774862247 14.839090431169568" fill="#ff820c" stroke="none" /><path d="M 109.73455568895987 81.39251694778311 l 7.330399285808487 -14.011967760517129 a36.813601557240304,36.813601557240304 0 0,0 0.5589618672218643,0.2985780713945798 l -7.570506199558662 13.883710962620794" fill="#ff730a" stroke="none" /><path d="M 110.05341064243156 81.56283822128135 l 6.937816553520455 -12.723408078891644 a35.492011995313405,35.492011995313405 0 0,0 0.5338605533183752,0.2970928199231187 l -7.155801195910866 12.602099861408345" fill="#ff5f08" stroke="none" /><path d="M 110.36928655335952 81.73862282372117 l 9.139944468896077 -16.096379674518555 a39.51032208041659,39.51032208041659 0 0,0 0.5885218022905523,0.3409098143405531 l -9.415663003651957 15.936665702787952" fill="#ff9d0e" stroke="none" /><line stroke="#e1ed5e" stroke-width="0.3" x1="143.23703022742887" x2="145.7803849466894" y1="26.81831364943548" y2="22.513508569990506" /><path d="M 143.74570117128098 25.957352633546492 a86.0,86.0 0 0,1 28.547481713284135,27.462654790039103" fill="none" id="id14" stroke="none" /><text fill="#e1ed5e" style="font-size:6.75px; font-family:Arial;" text-anchor="middle"><textPath startOffset="19.985693538727396" xlink:href="#id14">February</textPath></text><path d="M 110.68208982089419 81.91981866633111 l 8.19896884305736 -13.87732605857918 a37.11841396122913,37.11841396122913 0 0,0 0.5472985240111136,0.32974123695171387 l -8.436629433286111 13.734138212168853" fill="#ff780b" stroke="none" /><path d="M 110.99172775467656 82.1063720568725 l 7.2759180941728285 -11.84459570210934 a34.900842832704015,34.900842832704015 0 0,0 0.5091880861907752,0.31885353285965856 l -7.478725332735866 11.717597827926737" fill="#ff5607" stroke="none" /><path d="M 111.2981086023043 82.29822771554956 l 9.135826355565802 -14.313928416613301 a37.98092665065663,37.98092665065663 0 0,0 0.5480701507817893,0.35648007163154644 l -9.380863532131873 14.154549420822226" fill="#ff850c" stroke="none" /><path d="M 111.60114157652 82.49532879139004 l 8.199129766217478 -12.371461015943968 a35.84179155601826,35.84179155601826 0 0,0 0.5113348806782056,0.3452555939836479 l -8.410869341302226 12.22849350966165" fill="#ff6409" stroke="none" /><path d="M 111.90073688211348 82.69761687909136 l 21.23064236680857 -30.86705569346894 a58.463519622307786,58.463519622307786 0 0,0 0.8242489347859775,0.5774390530968908 l -21.7588224411782 30.497031797608116" fill="#64ff29" stroke="none" /><path d="M 112.19680574252982 82.90503203632743 l 5.379696216385761 -7.540149151734372 a30.262557995013896,30.262557995013896 0 0,0 0.4214488964169958,0.3062005466278718 l -5.5086904291565455 7.446429370289826" fill="#ff0b01" stroke="none" /><path d="M 112.77801427241765 83.33499621200491 l 8.827515607194279 -11.512788911969546 a35.50756148795612,35.50756148795612 0 0,0 0.4818332890353462,0.37607852480507686 l -9.024381451389056 11.359131997941244" fill="#ff5f08" stroke="none" /><path d="M 113.06298171725822 83.55741782278167 l 8.306275240950416 -10.455240326600345 a34.35313666017824,34.35313666017824 0 0,0 0.45983571256312805,0.3718218334624102 l -8.485014352078036 10.310712395873804" fill="#ff4d07" stroke="none" /><path d="M 113.6212207817346 84.01681056812373 l 25.937505004368266 -30.4351616142194 a60.98816360293734,60.98816360293734 0 0,0 0.7931545566241854,0.6878158156297063 l -26.457553359639217 29.98418080517002" fill="#46ff2c" stroke="none" /><path d="M 113.89432698308785 84.25364557470407 l 6.018562965367707 -6.820800007009657 a30.096505532550324,30.096505532550324 0 0,0 0.385506157143454,0.3461112342233918 l -6.13508011010715 6.716189764016968" fill="#ff0801" stroke="none" /><path d="M 114.16331599549186 84.49514656593476 l 9.80963025175123 -10.738790220043619 a35.54477435597326,35.54477435597326 0 0,0 0.44818933436918196,0.41654314085794014 l -9.993027469915258 10.568342493111038" fill="#ff6008" stroke="none" /><path d="M 114.68862486808459 84.99185889309783 l 11.278015430517598 -11.523341940252042 a37.12392760846329,37.12392760846329 0 0,0 0.4528486290699163,0.45090395314186965 l -11.474699859754837 11.327502136460053" fill="#ff780b" stroke="none" /><path d="M 114.94478906791727 85.2469230424477 l 9.01090394657057 -8.895311855973482 a33.66187043644593,33.66187043644593 0 0,0 0.4035188447356791,0.4158616398079607 l -9.162687055009359 8.738886020615407" fill="#ff4206" stroke="none" /><path d="M 115.19652480421416 85.50635884689758 l 9.823634335934415 -9.369262559611352 a34.57523010770295,34.57523010770295 0 0,0 0.4070536539530895,0.43421645704190165 l -9.983455311857968 9.198776685691394" fill="#ff5007" stroke="none" /><path d="M 115.4437574822437 85.77008943001954 l 33.523038418518624 -30.888197984072185 a66.58371287546372,66.58371287546372 0 0,0 0.7693791124108199,0.8495676322964354 l -34.04976117154548 30.3065775645062" fill="#34ff5f" stroke="none" /><path d="M 116.15771136456269 86.58626213691792 l 9.254666406728887 -7.682998315120155 a33.02818828460776,33.02818828460776 0 0,0 0.3593805155722457,0.44055801846109033 l -9.38554541437754 7.522556127050964" fill="#ff3805" stroke="none" /><path d="M 116.38621287248628 86.86637796730983 l 10.247652767532571 -8.213538980505323 a34.13303505775411,34.13303505775411 0 0,0 0.36351019083856545,0.46162102732713134 l -10.387517038965102 8.035925559225154" fill="#ff4906" stroke="none" /><path d="M 116.60985879189232 87.15038557335679 l 12.283981722454962 -9.503056632517943 a36.530753114979674,36.530753114979674 0 0,0 0.3804835537132841,0.5006717569058337 l -12.44574121639236 9.290200099731075" fill="#ff6f0a" stroke="none" /><path d="M 116.82858285166822 87.43820079747576 l 9.603786172653557 -7.168805273041381 a32.984343031340416,32.984343031340416 0 0,0 0.3357136813082416,0.45791308402181813 l -9.725762466475425 7.00242974534807" fill="#ff3705" stroke="none" /><path d="M 117.04232023915458 87.72973835380427 l 33.97645635887103 -24.462632052651752 a62.86669265239007,62.86669265239007 0 0,0 0.6247373995819889,0.8836467467986439 l -34.392506378256904 23.874158805521315" fill="#31ff2f" stroke="none" /><path d="M 117.45458315368197 88.32363383020206 l 10.257464752715075 -6.861803193577392 a33.34098562597741,33.34098562597741 0 0,0 0.3149982727941419,0.4797639802547808 l -10.374059660867141 6.684221149344938" fill="#ff3d05" stroke="none" /><path d="M 117.65298651832404 88.62581576622439 l 10.047877373206259 -6.4740551567635585 a32.95295904283986,32.95295904283986 0 0,0 0.30312391948161654,0.47946924525319706 l -10.15782888893383 6.300138263796155" fill="#ff3705" stroke="none" /><line stroke="#e1ed5e" stroke-width="0.3" x1="172.23445277983987" x2="176.4835382374775" y1="55.19839476539836" y2="52.563006222186495" /><path d="M 173.08426987136738 54.67131705675599 a86.0,86.0 0 0,1 12.851231095245387,41.99856678651699" fill="none" id="id15" stroke="none" /><text fill="#e1ed5e" style="font-size:6.75px; font-family:Arial;" text-anchor="middle"><textPath startOffset="22.20632615414155" xlink:href="#id15">March</textPath></text><path d="M 117.84615892207809 88.93136811851018 l 10.865434210015916 -6.739012693338049 a33.78561506745591,33.78561506745591 0 0,0 0.3022753960170418,0.4968612730881328 l -10.97982540431918 6.550983647042835" fill="#ff4406" stroke="none" /><path d="M 118.03404312379186 89.2402003453031 l 13.324977841114084 -7.950191257140408 a36.51646143588457,36.51646143588457 0 0,0 0.31741555989038617,0.542566083618144 l -13.459853075474797 7.719645761168368" fill="#ff6f0a" stroke="none" /><path d="M 118.21658344932153 89.55222093294921 l 54.6497503479646 -31.34333720115238 a84.0,84.0 0 0,0 0.708569434830268,1.2604659602608244 l -55.1811774240873 30.397987730956764" fill="#4dd2ff" stroke="none" /><path d="M 118.73160827565052 90.50648371742162 l 14.326739227270357 -7.261049351920757 a37.06170272969949,37.06170272969949 0 0,0 0.28350435459159834,0.5715274791864513 l -14.449603594815365 7.013362284235356" fill="#ff770b" stroke="none" /><line stroke="#e1ed5e" stroke-width="0.3" x1="184.98032266829074" x2="189.97916517819016" y1="98.17113171792111" y2="98.06355123074" /><path d="M 185.9800911702706 98.14961562048488 a86.0,86.0 0 0,1 -9.607161424134198,41.387399972396054" fill="none" id="id16" stroke="none" /><text fill="#e1ed5e" style="font-size:6.75px; font-family:Arial;" text-anchor="middle"><textPath startOffset="21.466115282336823" xlink:href="#id16">April</textPath></text><line stroke="#e1ed5e" stroke-width="0.3" x1="174.80103733775053" x2="179.2010983576182" y1="140.37084112569926" y2="142.7455964860345" /><path d="M 175.68104954172406 140.8457921977663 a86.0,86.0 0 0,1 -30.038265399797805,32.042727171017184" fill="none" id="id17" stroke="none" /><text fill="#e1ed5e" style="font-size:6.75px; font-family:Arial;" text-anchor="middle"><textPath startOffset="22.206326154141568" xlink:href="#id17">May</textPath></text><line stroke="#e1ed5e" stroke-width="0.3" x1="143.8653032363475" x2="146.44561519142675" y1="172.8068346515853" y2="177.08958963109032" /><path d="M 144.38136562736335 173.6633856474863 a86.0,86.0 0 0,1 -40.68145358897372,12.25698825130547" fill="none" id="id18" stroke="none" /><text fill="#e1ed5e" style="font-size:6.75px; font-family:Arial;" text-anchor="middle"><textPath startOffset="21.466115282336833" xlink:href="#id18">June</textPath></text><line stroke="#e1ed5e" stroke-width="0.3" x1="102.19456741930631" x2="102.32365962044197" y1="184.97166512339345" y2="189.96999836594603" /><path d="M 102.22038585953345 185.97133177190398 a86.0,86.0 0 0,1 -42.740103519485714,-10.115201625700543" fill="none" id="id19" stroke="none" /><text fill="#e1ed5e" style="font-size:6.75px; font-family:Arial;" text-anchor="middle"><textPath startOffset="22.20632615414155" xlink:href="#id19">July</textPath></text><line stroke="#e1ed5e" stroke-width="0.3" x1="58.666819895761336" x2="56.23545636021788" y1="174.27360380694188" y2="178.64263932499728" /><path d="M 58.180547188652646 175.14741091055294 a86.0,86.0 0 0,1 -31.652253787137756,-30.449443065178592" fill="none" id="id20" stroke="none" /><text fill="#e1ed5e" style="font-size:6.75px; font-family:Arial;" text-anchor="middle"><textPath startOffset="22.20632615414155" xlink:href="#id20">August</textPath></text><line stroke="#e1ed5e" stroke-width="0.3" x1="26.63291911575756" x2="22.317208475507996" y1="142.92168965132927" y2="145.44649492493687" /><path d="M 25.769776987707644 143.4266507060508 a86.0,86.0 0 0,1 -11.730757126820373,-40.83630448921669" fill="none" id="id21" stroke="none" /><text fill="#e1ed5e" style="font-size:6.75px; font-family:Arial;" text-anchor="middle"><textPath startOffset="21.46611528233685" xlink:href="#id21">September</textPath></text><line stroke="#e1ed5e" stroke-width="0.3" x1="15.007084014347285" x2="10.007500721073583" y1="101.09737516637583" y2="101.16192664675087" /><path d="M 14.007167355692545 101.11028546245083 a86.0,86.0 0 0,1 10.666146001902534,-42.60595125391555" fill="none" id="id22" stroke="none" /><text fill="#e1ed5e" style="font-size:6.75px; font-family:Arial;" text-anchor="middle"><textPath startOffset="22.20632615414155" xlink:href="#id22">October</textPath></text><line stroke="#e1ed5e" stroke-width="0.3" x1="26.266209847984243" x2="21.928928074336255" y1="57.711370442889674" y2="55.22380399835377" /><path d="M 25.398753493254645 57.213857153982495 a86.0,86.0 0 0,1 29.58750427330803,-30.492523968695096" fill="none" id="id23" stroke="none" /><text fill="#e1ed5e" style="font-size:6.75px; font-family:Arial;" text-anchor="middle"><textPath startOffset="21.46611528233685" xlink:href="#id23">November</textPath></text><line stroke="#e1ed5e" stroke-width="0.3" x1="56.762969772571076" x2="54.21961505331055" y1="26.818313649435495" y2="22.513508569990535" /><path d="M 56.25429882871897 25.957352633546506 a86.0,86.0 0 0,1 42.265352541879196,-11.944610805530505" fill="none" id="id24" stroke="none" /><text fill="#e1ed5e" style="font-size:6.75px; font-family:Arial;" text-anchor="middle"><textPath startOffset="22.20632615414155" xlink:href="#id24">December</textPath></text></svg>